<?xml version="1.0" standalone="no"?>
<!DOCTYPE svg PUBLIC "-//W3C//DTD SVG 1.1//EN" "http://www.w3.org/Graphics/SVG/1.1/DTD/svg11.dtd" >
<svg xmlns="http://www.w3.org/2000/svg" xmlns:xlink="http://www.w3.org/1999/xlink" version="1.1">
<metadata>
Created by FontForge 20170731 at Fri Sep  3 12:30:43 2021
 By Aleksey,,,
2013 published by FontShop International GmbH
</metadata>
<defs>
<font id="MarkPro-BoldItalic" horiz-adv-x="1" >
  <font-face 
    font-family="MarkPro-BoldItalic"
    font-weight="700"
    font-style="italic"
    font-stretch="normal"
    units-per-em="2048"
    panose-1="2 11 8 4 2 1 1 1 1 2"
    ascent="1618"
    descent="-430"
    x-height="992"
    cap-height="1434"
    bbox="-1388 -484 3028 2280"
    underline-thickness="139"
    underline-position="-404"
    slope="-12"
    unicode-range="U+000D-FEFF"
  />
<missing-glyph horiz-adv-x="1188" 
d="M27 0v1434h1135v-1434h-1135zM244 217h701v1000h-701v-1000z" />
    <glyph glyph-name=".notdef" horiz-adv-x="1188" 
d="M27 0v1434h1135v-1434h-1135zM244 217h701v1000h-701v-1000z" />
    <glyph glyph-name=".null" horiz-adv-x="0" 
 />
    <glyph glyph-name=".null" horiz-adv-x="0" 
 />
    <glyph glyph-name="nonmarkingreturn" horiz-adv-x="682" 
 />
    <glyph glyph-name="CR" unicode="&#xd;" horiz-adv-x="506" 
 />
    <glyph glyph-name="space" unicode=" " horiz-adv-x="506" 
 />
    <glyph glyph-name="exclam" unicode="!" horiz-adv-x="550" 
d="M627 1434l-235 -941h-232l146 941h321zM218 364q77 0 135.5 -58t58.5 -136t-58.5 -137t-135.5 -59q-78 0 -136.5 59t-58.5 137t58.5 136t136.5 58z" />
    <glyph glyph-name="quotedbl" unicode="&#x22;" horiz-adv-x="1127" 
d="M426 1475h266l-130 -612h-266zM852 1475h266l-130 -612h-266z" />
    <glyph glyph-name="numbersign" unicode="#" horiz-adv-x="1429" 
d="M312 1096h208l114 338h246l-114 -338h245l113 338h245l-114 -338h208l-77 -230h-207l-99 -292h207l-76 -229h-207l-116 -345h-245l116 345h-245l-116 -345h-245l115 345h-207l76 229h208l98 292h-209zM689 866l-98 -292h245l98 292h-245z" />
    <glyph glyph-name="dollar" unicode="$" horiz-adv-x="1433" 
d="M1381 1260l-142 -213q-116 78 -256 107l-71 -332q362 -84 362 -353q0 -194 -146.5 -316t-385.5 -134l-42 -196h-227l45 211q-258 47 -402 174l153 213q112 -104 301 -141l70 327q-166 34 -260.5 124.5t-94.5 232.5q0 189 138.5 318t388.5 135l39 185h227l-43 -202
q186 -33 346 -140zM989 433q0 46 -32.5 77t-99.5 52l-61 -292q88 14 140.5 56t52.5 107zM570 1000q0 -91 125 -132l64 298q-95 -13 -142 -59t-47 -107z" />
    <glyph glyph-name="percent" unicode="%" horiz-adv-x="2063" 
d="M607 1459q161 0 264.5 -100.5t103.5 -258.5q0 -172 -120 -296t-296 -124q-162 0 -266 100.5t-104 258.5q0 172 121 296t297 124zM595 1246q-76 0 -127 -56.5t-51 -135.5q0 -70 43 -115.5t110 -45.5q76 0 127.5 56.5t51.5 135.5q0 70 -43.5 115.5t-110.5 45.5zM1788 1434
l-1137 -1434h-281l1136 1434h282zM1599 754q160 0 264 -101.5t104 -259.5q0 -172 -120.5 -296t-296.5 -124q-161 0 -264.5 101.5t-103.5 258.5q0 173 120.5 297t296.5 124zM1587 540q-76 0 -127 -57t-51 -136q0 -70 43.5 -115t109.5 -45q77 0 127.5 56.5t50.5 135.5
q0 70 -43 115.5t-110 45.5z" />
    <glyph glyph-name="ampersand" unicode="&#x26;" horiz-adv-x="1470" 
d="M1189 797l177 -149l-289 -322l260 -326h-337l-107 136q-190 -162 -423 -162q-189 0 -303 93t-114 260q0 81 27 150t78 124t106 95.5t129 81.5q-56 83 -81.5 151.5t-25.5 141.5q0 166 111 277t316 111q176 0 288.5 -91.5t112.5 -238.5q0 -71 -27.5 -133.5t-80 -113.5
t-107 -88.5t-131.5 -79.5l163 -205zM512 212q126 0 241 103l-217 274q-96 -55 -147.5 -110.5t-51.5 -121.5q0 -68 48 -106.5t127 -38.5zM554 1066q0 -58 77 -168q104 53 158.5 102t54.5 110q0 53 -37.5 83t-104.5 30q-75 0 -111.5 -44t-36.5 -113z" />
    <glyph glyph-name="quotesingle" unicode="'" horiz-adv-x="701" 
d="M426 1475h266l-130 -612h-266z" />
    <glyph glyph-name="parenleft" unicode="(" horiz-adv-x="807" 
d="M824 1481l71 -237q-155 -59 -271 -187.5t-174 -289t-58 -331.5q0 -165 56.5 -290t175.5 -226l-122 -228q-392 260 -392 744q0 222 84.5 432.5t249.5 376.5t380 236z" />
    <glyph glyph-name="parenright" unicode=")" horiz-adv-x="807" 
d="M20 -316l-70 236q155 59 271 187.5t174 289t58 331.5q0 165 -56.5 290t-175.5 226l122 229q392 -260 392 -745q0 -165 -50 -328.5t-140.5 -304t-226.5 -249.5t-298 -162z" />
    <glyph glyph-name="asterisk" unicode="*" horiz-adv-x="968" 
d="M319 1336l222 -108l47 247h208l-62 -268l255 58l23 -202l-259 -49l104 -207l-186 -102l-97 210l-180 -186l-141 138l187 182l-224 99z" />
    <glyph glyph-name="plus" unicode="+" horiz-adv-x="1228" 
d="M631 74h-234l76 357h-354l48 228h355l76 358h233l-75 -358h354l-48 -228h-355z" />
    <glyph glyph-name="comma" unicode="," horiz-adv-x="536" 
d="M114 324h299l-258 -611h-240z" />
    <glyph glyph-name="hyphen" unicode="-" horiz-adv-x="813" 
d="M738 662l-49 -234h-595l49 234h595z" />
    <glyph glyph-name="period" unicode="." horiz-adv-x="550" 
d="M211 372q79 0 138.5 -59.5t59.5 -138.5q0 -81 -59.5 -140.5t-138.5 -59.5q-80 0 -140 59.5t-60 140.5q0 79 60 138.5t140 59.5z" />
    <glyph glyph-name="slash" unicode="/" horiz-adv-x="1060" 
d="M1226 1577l-1089 -1782h-288l1089 1782h288z" />
    <glyph glyph-name="zero" unicode="0" horiz-adv-x="1436" 
d="M868 1459q242 0 385.5 -156t143.5 -414q0 -105 -22.5 -213t-64.5 -210t-106.5 -191.5t-144 -156.5t-182 -105.5t-215.5 -38.5q-241 0 -385 157t-144 414q0 126 31 254.5t94.5 247t149.5 210.5t205.5 147t254.5 55zM852 1195q-80 0 -150.5 -39t-120 -103.5t-85.5 -146.5
t-53 -168.5t-17 -168.5q0 -153 66.5 -241.5t184.5 -88.5q80 0 150.5 39t120 103t85.5 145.5t53.5 168t17.5 169.5q0 154 -66.5 242.5t-185.5 88.5z" />
    <glyph glyph-name="one" unicode="1" horiz-adv-x="815" 
d="M858 1456l-309 -1456h-280l226 1065l-350 -121l63 291z" />
    <glyph glyph-name="two" unicode="2" horiz-adv-x="1147" 
d="M378 1041l-158 188q80 98 200 164t272 66q112 0 200.5 -34t143 -91.5t82.5 -128.5t28 -149q0 -136 -70.5 -248.5t-234.5 -254.5l-339 -294h525l-56 -259h-934l48 219l572 496q113 97 157 166t44 142q0 71 -52.5 121.5t-146.5 50.5q-148 0 -281 -154z" />
    <glyph glyph-name="three" unicode="3" horiz-adv-x="1152" 
d="M356 1061l-145 193q188 205 487 205q209 0 333 -101.5t124 -258.5q0 -126 -76.5 -229.5t-209.5 -157.5q85 -39 131 -109t46 -162q0 -200 -155.5 -333.5t-405.5 -133.5q-165 0 -287.5 53t-190.5 148l186 176q50 -61 128 -93t169 -32q129 0 201.5 61.5t72.5 157.5
q0 76 -63.5 115.5t-169.5 39.5h-157l52 246h147q129 0 211 61.5t82 149.5q0 69 -57 109.5t-149 40.5q-168 0 -304 -146z" />
    <glyph glyph-name="four" unicode="4" horiz-adv-x="1177" 
d="M1024 902l-81 -382h200l-56 -258h-199l-55 -262h-277l55 262h-621l47 221l654 950h320l-630 -913h286l82 382h275z" />
    <glyph glyph-name="five" unicode="5" horiz-adv-x="1155" 
d="M1157 1434l-54 -257h-553l-68 -287h115q125 0 221.5 -39.5t151 -106.5t75 -154.5t1.5 -185.5q-22 -110 -74 -193.5t-127 -134.5t-166 -76.5t-196 -25.5q-153 0 -276 56t-202 163l181 174q116 -137 310 -137q114 0 183.5 53t83.5 141q7 45 -1 82t-34.5 68t-79.5 48.5
t-129 17.5h-343l183 794h798z" />
    <glyph glyph-name="six" unicode="6" horiz-adv-x="1204" 
d="M1073 1434l-428 -495h11q202 0 340 -122t138 -317q0 -107 -42.5 -203.5t-116 -167.5t-179.5 -113t-227 -42q-141 0 -257.5 55.5t-186 160t-69.5 238.5q0 204 188 431l479 575h350zM608 696q-116 0 -188.5 -73.5t-72.5 -180.5q0 -96 65.5 -156.5t170.5 -60.5
q114 0 187.5 74t73.5 182q0 97 -67.5 156t-168.5 59z" />
    <glyph glyph-name="seven" unicode="7" horiz-adv-x="1106" 
d="M1242 1434l-45 -230l-736 -1204h-330l732 1176h-668l54 258h993z" />
    <glyph glyph-name="eight" unicode="8" horiz-adv-x="1259" 
d="M788 1459q127 0 235 -44t175.5 -130t67.5 -198q0 -123 -78.5 -222t-219.5 -153q87 -44 136 -113.5t49 -158.5q0 -96 -42 -181t-117.5 -148.5t-189 -100t-249.5 -36.5q-137 0 -250 44t-181.5 128.5t-68.5 193.5q0 132 82.5 235.5t234.5 156.5q-152 88 -152 253
q0 95 39 180t110 151t180 104.5t239 38.5zM633 610q-122 0 -199.5 -63.5t-77.5 -158.5q0 -76 64.5 -121.5t159.5 -45.5q124 0 202.5 61.5t78.5 158.5q0 79 -65.5 124t-162.5 45zM769 1209q-118 0 -188 -60.5t-70 -153.5q0 -74 55 -115.5t146 -41.5q115 0 187.5 60.5
t72.5 151.5q0 74 -59 116.5t-144 42.5z" />
    <glyph glyph-name="nine" unicode="9" horiz-adv-x="1204" 
d="M225 0l427 495h-10q-132 0 -240 53.5t-172.5 154.5t-64.5 231q0 107 42 203t115.5 167t179 113t226.5 42q142 0 258 -55t185.5 -159.5t69.5 -238.5q0 -207 -186 -432l-480 -574h-350zM690 737q115 0 188 73.5t73 180.5q0 96 -65.5 156.5t-170.5 60.5q-113 0 -186.5 -74
t-73.5 -182q0 -97 67 -156t168 -59z" />
    <glyph glyph-name="colon" unicode=":" horiz-adv-x="550" 
d="M347 1019q79 0 138.5 -59.5t59.5 -138.5q0 -81 -59 -140t-139 -59t-140 59t-60 140q0 79 60 138.5t140 59.5zM209 372q79 0 138.5 -59t59.5 -139q0 -81 -59 -140.5t-139 -59.5t-139.5 59.5t-59.5 140.5q0 79 59.5 138.5t139.5 59.5z" />
    <glyph glyph-name="semicolon" unicode=";" horiz-adv-x="536" 
d="M342 1019q79 0 138.5 -59.5t59.5 -138.5q0 -81 -59.5 -140t-138.5 -59q-80 0 -140 59t-60 140q0 79 60 138.5t140 59.5zM114 324h299l-258 -611h-240z" />
    <glyph glyph-name="less" unicode="&#x3c;" horiz-adv-x="1228" 
d="M173 421l53 249l922 390l-62 -285l-634 -248l529 -248l-53 -248z" />
    <glyph glyph-name="equal" unicode="=" horiz-adv-x="1228" 
d="M1074 442l-49 -228h-942l48 228h943zM1166 877l-48 -229h-943l48 229h943z" />
    <glyph glyph-name="greater" unicode="&#x3e;" horiz-adv-x="1228" 
d="M1079 670l-53 -249l-922 -390l62 284l635 248l-530 249l54 248z" />
    <glyph glyph-name="question" unicode="?" horiz-adv-x="885" 
d="M417 489h-246l74 349h111q148 0 220 48.5t72 134.5q0 80 -81 122.5t-217 43.5q-64 0 -101 -3l16 269q58 5 123 5q253 0 406 -107.5t153 -294.5q0 -191 -127 -310.5t-371 -142.5zM243 365q77 0 135 -58t58 -136q0 -79 -58 -138t-135 -59q-78 0 -137 59t-59 137t59 136.5
t137 58.5z" />
    <glyph glyph-name="at" unicode="@" horiz-adv-x="1910" 
d="M1245 -27l110 -167q-195 -136 -474 -136q-218 0 -391.5 92.5t-272 263t-98.5 390.5q0 189 68 359.5t188 297.5t296 202t381 75q213 0 385 -87t272.5 -248.5t100.5 -368.5q0 -153 -48.5 -279.5t-146 -204.5t-227.5 -78q-90 0 -153.5 37.5t-96.5 99.5q-98 -117 -250 -117
q-150 0 -246 101.5t-96 263.5q0 120 50.5 223t142 165.5t201.5 62.5q160 0 235 -114l19 93h216l-87 -405q-10 -47 -10 -87q0 -61 25 -92t70 -31q54 0 94 52t59.5 131.5t19.5 172.5q0 230 -151.5 368t-394.5 138q-152 0 -281.5 -57.5t-216.5 -156t-136 -229.5t-49 -278
q0 -256 152.5 -403t395.5 -147q196 0 345 98zM965 712q-83 0 -137.5 -65.5t-54.5 -158.5q0 -82 46 -130.5t118 -48.5q84 0 138.5 66t54.5 159q0 80 -46 129t-119 49z" />
    <glyph glyph-name="A" unicode="A" horiz-adv-x="1500" 
d="M1120 1434l247 -1434h-292l-52 334h-597l-193 -334h-311l851 1434h347zM896 1148l-318 -551h404z" />
    <glyph glyph-name="B" unicode="B" horiz-adv-x="1391" 
d="M355 1434h558q214 0 342.5 -96t128.5 -255q0 -123 -70 -220t-193 -139q94 -39 142 -135t22 -211q-20 -87 -58 -152t-90.5 -108t-126 -69.5t-158 -37.5t-193.5 -11h-609zM769 596h-300l-74 -344l300 -1q131 0 204.5 33t93.5 119q22 98 -38 145.5t-186 47.5zM864 1182h-271
l-71 -335h272q292 0 292 195q0 71 -61 105.5t-161 34.5z" />
    <glyph glyph-name="C" unicode="C" horiz-adv-x="1485" 
d="M1186 410l200 -181q-225 -255 -558 -255q-200 0 -358 85.5t-247 240t-89 351.5q0 171 61.5 321.5t167.5 257t254.5 168t317.5 61.5q56 0 109 -6t123.5 -26t131 -52.5t123 -91.5t107.5 -137l-238 -158q-121 198 -372 198q-201 0 -343.5 -148t-142.5 -365
q0 -190 117.5 -307t290.5 -117q200 0 345 161z" />
    <glyph glyph-name="D" unicode="D" horiz-adv-x="1555" 
d="M355 1434h507q303 0 482.5 -169t179.5 -436q0 -173 -60 -323.5t-170 -263t-278 -177.5t-373 -65h-593zM829 1166h-239l-192 -899h279q251 0 398 148.5t147 380.5q0 170 -99 270t-294 100z" />
    <glyph glyph-name="E" unicode="E" horiz-adv-x="1325" 
d="M1246 854l-56 -262h-722l-71 -330h762l-56 -262h-1053l305 1434h1043l-57 -263h-750l-68 -317h723z" />
    <glyph glyph-name="F" unicode="F" horiz-adv-x="1280" 
d="M1234 844l-56 -263h-713l-123 -581h-292l305 1434h1031l-56 -264h-739l-70 -326h713z" />
    <glyph glyph-name="G" unicode="G" horiz-adv-x="1616" 
d="M1466 1227l-219 -188q-121 150 -332 150q-134 0 -244.5 -67t-176 -188.5t-65.5 -273.5q0 -193 114.5 -306t301.5 -113q162 0 267.5 79.5t147.5 230.5h-371l52 239h636q2 -37 -5 -104q-27 -216 -129.5 -378.5t-262.5 -248.5t-355 -86q-197 0 -355 83.5t-248 236.5t-90 348
q0 174 62.5 326.5t170 260t256.5 169.5t318 62q61 0 121.5 -9t135 -32t145.5 -72t125 -119z" />
    <glyph glyph-name="H" unicode="H" horiz-adv-x="1568" 
d="M647 1434l-123 -578h673l124 578h292l-306 -1434h-292l126 590h-674l-125 -590h-292l305 1434h292z" />
    <glyph glyph-name="I" unicode="I" horiz-adv-x="603" 
d="M647 1434l-305 -1434h-292l305 1434h292z" />
    <glyph glyph-name="J" unicode="J" horiz-adv-x="1099" 
d="M1149 1434l-197 -937q-109 -523 -557 -523q-136 0 -249 53.5t-181 149.5l181 202q41 -58 106 -94.5t145 -36.5q109 0 175.5 73.5t100.5 233.5l185 879h291z" />
    <glyph glyph-name="K" unicode="K" horiz-adv-x="1421" 
d="M647 1434l-124 -581h108l562 581h371l-725 -718l487 -716h-335l-395 590h-129l-125 -590h-292l305 1434h292z" />
    <glyph glyph-name="L" unicode="L" horiz-adv-x="1212" 
d="M647 1434l-249 -1167h735l-58 -267h-1025l305 1434h292z" />
    <glyph glyph-name="M" unicode="M" horiz-adv-x="1867" 
d="M1912 1434l-305 -1434h-291l227 1064l-524 -926h-303l-150 927l-225 -1065h-291l305 1434h409l154 -975l560 975h434z" />
    <glyph glyph-name="N" unicode="N" horiz-adv-x="1582" 
d="M1626 1434l-305 -1434h-268l-502 987l-210 -987h-291l305 1434h270l500 -988l210 988h291z" />
    <glyph glyph-name="O" unicode="O" horiz-adv-x="1671" 
d="M937 1459q199 0 357 -82.5t248.5 -235.5t90.5 -351q0 -165 -60 -314.5t-165 -260.5t-256 -176.5t-324 -65.5q-148 0 -276.5 48.5t-221 135t-145.5 212.5t-53 275q0 165 60 314t165 259.5t256 176t324 65.5zM919 1186q-141 0 -253.5 -72t-173.5 -191t-61 -259
q0 -188 116 -302t301 -114q140 0 252 72t173 191t61 259q0 188 -115.5 302t-299.5 114z" />
    <glyph glyph-name="P" unicode="P" horiz-adv-x="1309" 
d="M746 524h-292l-112 -524h-292l305 1434h512q225 0 350 -111.5t125 -287.5q0 -233 -158 -372t-438 -139zM834 1170h-243l-82 -385h252q139 0 213 57.5t74 162.5q0 79 -54.5 122t-159.5 43z" />
    <glyph glyph-name="Q" unicode="Q" horiz-adv-x="1703" 
d="M937 1459q199 0 357 -82.5t248.5 -235.5t90.5 -351q0 -282 -162 -499l191 -291h-324l-67 101q-196 -128 -443 -128q-148 0 -276.5 48.5t-221 135t-145.5 212.5t-53 275q0 165 60 314t165 259.5t256 176t324 65.5zM919 1186q-141 0 -253.5 -72t-173.5 -191t-61 -259
q0 -188 116 -302t301 -114q149 0 267 82l-214 329h322l69 -106q42 104 42 217q0 188 -115.5 302t-299.5 114z" />
    <glyph glyph-name="R" unicode="R" horiz-adv-x="1360" 
d="M355 1434h546q224 0 350 -109.5t126 -277.5q0 -65 -15.5 -126.5t-54.5 -123.5t-97.5 -109t-151.5 -79t-209 -38l394 -571h-334l-370 570h-76l-121 -570h-292zM866 1169h-275l-75 -350h302q75 0 129 17t82 47t40 63t12 71q0 71 -56 111.5t-159 40.5z" />
    <glyph glyph-name="S" unicode="S" horiz-adv-x="1359" 
d="M1370 1291l-152 -229q-99 69 -214 100.5t-218 31.5q-132 0 -198 -51.5t-66 -126.5q0 -67 58.5 -104t165.5 -58l87 -16q195 -36 308.5 -129.5t113.5 -253.5q0 -218 -169.5 -350t-441.5 -132q-152 0 -323 49.5t-287 151.5l165 229q93 -85 223 -125t241 -40q125 0 205 46.5
t80 130.5q0 65 -60.5 102t-191.5 61l-91 17q-181 33 -286 130t-105 251q0 79 23.5 150.5t71.5 132t116 105.5t162.5 70t206.5 25q329 0 576 -168z" />
    <glyph glyph-name="T" unicode="T" horiz-adv-x="1221" 
d="M1390 1434l-58 -268h-429l-248 -1166h-291l247 1166h-437l57 268h1159z" />
    <glyph glyph-name="U" unicode="U" horiz-adv-x="1489" 
d="M1549 1434l-186 -882q-122 -578 -676 -578q-160 0 -281.5 50.5t-192.5 156t-71 254.5q0 65 18 155l180 844h293l-181 -847q-13 -63 -13 -105q0 -119 71 -176.5t199 -57.5q140 0 236 81t132 252l180 853h292z" />
    <glyph glyph-name="V" unicode="V" horiz-adv-x="1467" 
d="M1639 1434l-829 -1434h-348l-235 1434h291l168 -1145l645 1145h308z" />
    <glyph glyph-name="W" unicode="W" horiz-adv-x="2219" 
d="M2375 1434l-721 -1434h-338l-83 1027l-510 -1027h-352l-127 1434h288l81 -1104l542 1104h302l83 -1097l531 1097h304z" />
    <glyph glyph-name="X" unicode="X" horiz-adv-x="1373" 
d="M1527 1434l-634 -722l332 -712h-312l-218 498l-424 -498h-350l645 734l-319 700h310l207 -493l416 493h347z" />
    <glyph glyph-name="Y" unicode="Y" horiz-adv-x="1379" 
d="M1571 1434l-719 -869l-121 -565h-292l125 590l-356 844h305l236 -598l474 598h348z" />
    <glyph glyph-name="Z" unicode="Z" horiz-adv-x="1313" 
d="M1401 1434l-48 -231l-900 -940h734l-57 -263h-1116l52 237l898 933h-727l56 264h1108z" />
    <glyph glyph-name="bracketleft" unicode="[" horiz-adv-x="774" 
d="M600 -28l-51 -241h-556l362 1703h556l-51 -242h-286l-259 -1220h285z" />
    <glyph glyph-name="backslash" unicode="\" horiz-adv-x="1818" 
d="M1383 -205l-1088 1782h288l1088 -1782h-288z" />
    <glyph glyph-name="bracketright" unicode="]" horiz-adv-x="774" 
d="M211 1192l51 242h556l-362 -1703h-556l51 241h285l259 1220h-284z" />
    <glyph glyph-name="asciicircum" unicode="^" horiz-adv-x="1228" 
d="M456 650h-268l366 784h249l365 -784h-272l-221 517z" />
    <glyph glyph-name="underscore" unicode="_" horiz-adv-x="962" 
d="M840 -105l-46 -218h-973l46 218h973z" />
    <glyph glyph-name="grave" unicode="`" horiz-adv-x="1024" 
d="M898 1135h-255l-270 322h319z" />
    <glyph glyph-name="a" unicode="a" horiz-adv-x="1227" 
d="M614 1019q205 0 299 -127l23 100h265l-211 -992h-260l18 82q-111 -109 -269 -109q-180 0 -299.5 131.5t-119.5 325.5q0 85 24 169.5t72 160t113.5 133.5t155 92t189.5 34zM561 223q110 0 188.5 77t92.5 194q15 122 -49 199t-172 77q-120 0 -202 -91.5t-82 -220.5
q0 -106 62.5 -170.5t161.5 -64.5z" />
    <glyph glyph-name="b" unicode="b" horiz-adv-x="1230" 
d="M616 -26q-206 0 -300 127l-21 -101h-268l313 1475h268l-111 -523q98 68 234 68q188 0 313.5 -131.5t125.5 -325.5q0 -107 -39 -211.5t-108.5 -189t-176 -136.5t-230.5 -52zM669 769q-109 0 -188 -76t-93 -193q-15 -123 49 -200t172 -77q121 0 203 92t82 220
q0 106 -63 170t-162 64z" />
    <glyph glyph-name="c" unicode="c" horiz-adv-x="1047" 
d="M1056 785l-225 -127q-79 111 -211 111q-120 0 -200.5 -89t-80.5 -215q0 -105 62.5 -172.5t157.5 -67.5q125 0 215 97l175 -165q-76 -87 -179.5 -134t-220.5 -47q-216 0 -350 133t-134 337q0 154 71.5 284.5t202.5 208.5t294 78q296 0 423 -232z" />
    <glyph glyph-name="d" unicode="d" horiz-adv-x="1230" 
d="M614 1019q205 0 299 -127l125 583h269l-314 -1475h-263l18 81q-115 -108 -269 -108q-179 0 -299 131.5t-120 325.5q0 85 24 169.5t72 160t113.5 133.5t155 92t189.5 34zM561 223q110 0 188.5 77t92.5 194q15 122 -49 199t-172 77q-120 0 -202 -91.5t-82 -220.5
q0 -106 62.5 -170.5t161.5 -64.5z" />
    <glyph glyph-name="e" unicode="e" horiz-adv-x="1097" 
d="M795 288l137 -174q-160 -141 -406 -141q-219 0 -344.5 121.5t-125.5 314.5q0 78 20 160t65 163t109 144.5t162 103t215 39.5q189 0 306 -110.5t117 -294.5q0 -51 -11 -109t-28 -97h-689q3 -99 62.5 -153t164.5 -54q136 0 246 87zM611 788q-99 0 -163 -55.5t-96 -142.5
h440q1 6 1 18q0 87 -49 133.5t-133 46.5z" />
    <glyph glyph-name="f" unicode="f" horiz-adv-x="837" 
d="M888 992l-50 -237h-291l-161 -755h-268l161 755h-184l50 237h184l31 148q78 360 397 360q173 0 285 -93l-135 -200q-70 45 -140 45q-113 0 -145 -150l-24 -110h290z" />
    <glyph glyph-name="g" unicode="g" horiz-adv-x="1222" 
d="M1196 992l-201 -937q-49 -230 -192 -354t-356 -124q-262 0 -466 142l124 211q153 -117 333 -117q118 0 195.5 67t100.5 178l4 21q-98 -71 -238 -71q-189 0 -313 123t-124 311q0 109 38 212t106.5 184.5t173.5 131t229 49.5q205 0 298 -125l22 98h266zM557 254
q122 0 201 83t79 211q0 98 -62.5 161t-159.5 63q-122 0 -200 -83.5t-78 -213.5q0 -96 62 -158.5t158 -62.5z" />
    <glyph glyph-name="h" unicode="h" horiz-adv-x="1188" 
d="M760 1019q153 0 243.5 -92.5t90.5 -240.5q0 -52 -12 -107l-124 -579h-268l120 557q7 32 7 66q0 66 -37 105.5t-117 39.5q-91 0 -159.5 -57t-94.5 -179l-113 -532h-269l313 1475h268l-120 -567q107 111 272 111z" />
    <glyph glyph-name="i" unicode="i" horiz-adv-x="533" 
d="M507 992l-211 -992h-269l211 992h269zM440 1489q72 0 121.5 -50t49.5 -122t-49.5 -121t-121.5 -49t-121 49t-49 121t49 122t121 50z" />
    <glyph glyph-name="j" unicode="j" horiz-adv-x="540" 
d="M514 992l-235 -1108q-34 -156 -127.5 -235.5t-228.5 -79.5q-104 0 -180 39l83 224q34 -14 71 -14q43 0 76.5 28.5t45.5 86.5l225 1059h270zM445 1489q72 0 121.5 -50t49.5 -122t-49.5 -121t-121.5 -49t-121 49t-49 121t49 122t121 50z" />
    <glyph glyph-name="k" unicode="k" horiz-adv-x="1095" 
d="M609 1475l-177 -836h80l329 353h337l-479 -488l295 -504h-296l-225 401h-92l-85 -401h-269l313 1475h269z" />
    <glyph glyph-name="l" unicode="l" horiz-adv-x="533" 
d="M609 1475l-313 -1475h-269l313 1475h269z" />
    <glyph glyph-name="m" unicode="m" horiz-adv-x="1852" 
d="M1412 1019q158 0 251.5 -92.5t93.5 -240.5q0 -56 -11 -107l-125 -579h-268l120 557q7 32 7 66q0 66 -37.5 105.5t-119.5 39.5q-91 0 -159.5 -57t-94.5 -179l-113 -532h-267l119 557q7 33 7.5 62.5t-7.5 57t-25 47.5t-48 32t-73 12q-91 0 -159.5 -57t-94.5 -179l-113 -532
h-268l211 992h258l-23 -100q111 127 287 127q104 0 180 -44t115 -122q131 166 357 166z" />
    <glyph glyph-name="n" unicode="n" horiz-adv-x="1188" 
d="M760 1019q153 0 243.5 -92.5t90.5 -240.5q0 -52 -12 -107l-124 -579h-268l120 557q7 32 7 66q0 66 -37 105.5t-118 39.5q-91 0 -159.5 -57t-94.5 -179l-113 -532h-268l211 992h258l-23 -100q111 127 287 127z" />
    <glyph glyph-name="o" unicode="o" horiz-adv-x="1199" 
d="M639 1019q216 0 356 -132.5t140 -342.5q0 -154 -74 -285t-206.5 -208.5t-294.5 -77.5q-215 0 -355 133t-140 344q0 154 73.5 284t206 207.5t294.5 77.5zM621 770q-120 0 -201.5 -88.5t-81.5 -215.5q0 -107 67 -175.5t172 -68.5q120 0 202 89t82 215q0 107 -67 175.5
t-173 68.5z" />
    <glyph glyph-name="p" unicode="p" horiz-adv-x="1229" 
d="M615 -26q-206 0 -299 126l-107 -510h-269l298 1402h262l-18 -81q114 109 269 109q180 0 299 -131.5t119 -325.5q0 -85 -24 -169.5t-72 -160t-113.5 -133.5t-155 -92t-189.5 -34zM669 769q-110 0 -188.5 -76t-92.5 -193q-15 -123 49 -200t172 -77q120 0 202 92t82 220
q0 106 -62.5 170t-161.5 64z" />
    <glyph glyph-name="q" unicode="q" horiz-adv-x="1228" 
d="M614 1019q205 0 299 -127l23 100h266l-298 -1402h-269l95 448q-97 -65 -231 -65q-188 0 -313.5 131.5t-125.5 325.5q0 85 24 169.5t72 160t113.5 133.5t155 92t189.5 34zM561 223q110 0 188.5 77t92.5 194q15 122 -49 199t-172 77q-120 0 -202 -91.5t-82 -220.5
q0 -106 62.5 -170.5t161.5 -64.5z" />
    <glyph glyph-name="r" unicode="r" horiz-adv-x="836" 
d="M407 528l-112 -528h-268l211 992h258l-24 -104q109 131 283 131q70 0 147 -30l-86 -257q-62 32 -144 32q-97 0 -167.5 -59.5t-97.5 -176.5z" />
    <glyph glyph-name="s" unicode="s" horiz-adv-x="990" 
d="M985 908l-122 -199q-66 40 -155.5 63.5t-155.5 23.5q-149 0 -159 -81q-5 -48 27 -66.5t112 -33.5l67 -12q323 -59 294 -307q-18 -151 -137 -236.5t-318 -85.5q-122 0 -244.5 35.5t-207.5 99.5l128 195q157 -107 328 -107q170 0 180 92q4 37 -29 59t-109 35l-68 11
q-166 27 -239 108.5t-58 205.5q19 150 132.5 230t300.5 80q244 0 433 -110z" />
    <glyph glyph-name="t" unicode="t" horiz-adv-x="945" 
d="M948 992l-51 -237h-347l-77 -360q-19 -87 12.5 -129.5t100.5 -42.5q80 0 173 57l94 -211q-148 -95 -316 -95q-203 0 -289 112t-45 307l77 362h-186l51 237h186l63 295h270l-64 -295h348z" />
    <glyph glyph-name="u" unicode="u" horiz-adv-x="1179" 
d="M1161 992l-124 -581q-25 -118 -76.5 -204.5t-122.5 -136t-152.5 -73t-176.5 -23.5q-183 0 -295.5 95t-112.5 266q0 49 15 121l113 536h270l-119 -557q-7 -35 -7 -65q0 -74 43.5 -110.5t117.5 -36.5q91 0 155.5 59.5t88.5 175.5l113 534h270z" />
    <glyph glyph-name="v" unicode="v" horiz-adv-x="1111" 
d="M1201 992l-581 -992h-309l-190 992h274l116 -721l399 721h291z" />
    <glyph glyph-name="w" unicode="w" horiz-adv-x="1743" 
d="M1101 992l83 -690l353 690h290l-540 -992h-297l-78 672l-341 -672h-306l-136 992h268l77 -690l352 690h275z" />
    <glyph glyph-name="x" unicode="x" horiz-adv-x="1111" 
d="M1167 992l-456 -506l268 -486h-292l-163 307l-264 -307h-322l459 507l-265 485h295l155 -312l262 312h323z" />
    <glyph glyph-name="y" unicode="y" horiz-adv-x="1146" 
d="M1245 992l-965 -1406h-306l462 654l-320 752h288l201 -505l336 505h304z" />
    <glyph glyph-name="z" unicode="z" horiz-adv-x="1031" 
d="M1031 992l-44 -204l-573 -549h483l-50 -239h-847l42 204l581 551h-476l52 237h832z" />
    <glyph glyph-name="braceleft" unicode="{" horiz-adv-x="894" 
d="M1013 1434l-51 -238h-48q-99 0 -153.5 -44t-71.5 -143l-16 -97q-23 -141 -87.5 -221.5t-191.5 -118.5q70 -30 108 -80.5t42 -110t-12 -128.5l-25 -96q-25 -92 15.5 -140t131.5 -48h67l-51 -237h-88q-85 0 -152 24t-109 67t-66.5 102.5t-24 130t18.5 149.5l17 69
q24 91 -24.5 141t-154.5 50l50 234q119 0 181 50.5t80 154.5l23 131q34 199 157 299t343 100h92z" />
    <glyph glyph-name="bar" unicode="|" horiz-adv-x="701" 
d="M683 1434l-362 -1705h-267l363 1705h266z" />
    <glyph glyph-name="braceright" unicode="}" horiz-adv-x="894" 
d="M-81 -268l51 237h47q99 0 154 44.5t72 143.5l16 96q25 141 88.5 221.5t189.5 118.5q-103 44 -135 128t-3 191l26 97q25 92 -15.5 139.5t-131.5 47.5h-67l51 238h88q85 0 152 -24t109 -67t66.5 -102.5t24 -130t-18.5 -149.5l-17 -70q-24 -91 24.5 -141t154.5 -50l-50 -234
q-119 0 -181 -50.5t-80 -154.5l-23 -131q-34 -199 -157 -298.5t-343 -99.5h-92z" />
    <glyph glyph-name="asciitilde" unicode="~" horiz-adv-x="1228" 
d="M1015 697l102 -177q-154 -131 -320 -131q-62 0 -116.5 14t-87.5 31.5t-77 31.5t-86 14q-48 0 -90 -20.5t-98 -67.5l-103 177q152 131 321 131q62 0 116.5 -14t87 -31.5t76.5 -31.5t86 -14q48 0 90.5 21t98.5 67z" />
    <glyph glyph-name="uni00A0" unicode="&#xa0;" horiz-adv-x="506" 
 />
    <glyph glyph-name="exclamdown" unicode="&#xa1;" horiz-adv-x="550" 
d="M-76 -440l235 941h232l-146 -941h-321zM333 630q-78 0 -136 57.5t-58 135.5t58.5 137t135.5 59q78 0 136.5 -59t58.5 -137t-58.5 -135.5t-136.5 -57.5z" />
    <glyph glyph-name="cent" unicode="&#xa2;" horiz-adv-x="1433" 
d="M1298 1009l-215 -127q-44 57 -99 84l-110 -519q82 21 149 88l167 -162q-71 -79 -166.5 -124.5t-202.5 -51.5l-42 -197h-227l48 225q-142 50 -224 168.5t-82 273.5q0 222 146 383.5t374 181.5l43 202h227l-47 -222q171 -51 261 -203zM561 684q0 -131 93 -201l106 493
q-89 -32 -144 -112t-55 -180z" />
    <glyph glyph-name="sterling" unicode="&#xa3;" horiz-adv-x="1433" 
d="M1212 259l-55 -259h-1069l55 259h156l74 346h-157l48 223h156l27 130q53 247 205.5 374t367.5 127q262 0 386 -167l-204 -179q-76 82 -206 82q-221 0 -280 -286l-18 -81h485l-48 -223h-484l-72 -346h633z" />
    <glyph glyph-name="currency" unicode="&#xa4;" horiz-adv-x="1433" 
d="M1263 1267l126 -159l-178 -146q64 -126 46 -271q-18 -148 -114 -265l103 -130l-172 -142l-104 131q-129 -66 -265 -59q-145 7 -258 92l-183 -152l-125 160l178 147q-63 121 -46 269q18 145 114 264l-104 132l172 143l105 -134q128 66 267 59q143 -7 254 -90zM730 438
q117 -7 208.5 69.5t105.5 194.5q14 116 -56.5 201t-187.5 91q-119 6 -210.5 -70t-105.5 -193t57 -202.5t189 -90.5z" />
    <glyph glyph-name="yen" unicode="&#xa5;" horiz-adv-x="1433" 
d="M1219 465l-40 -190h-366l-58 -275h-277l59 275h-364l41 190h364l29 138h-365l42 190h279l-291 641h305l216 -521l434 521h332l-557 -641h287l-42 -190h-363l-30 -138h365z" />
    <glyph glyph-name="brokenbar" unicode="&#xa6;" horiz-adv-x="701" 
d="M683 1434l-152 -711h-266l152 711h266zM472 439l-151 -710h-267l152 710h266z" />
    <glyph glyph-name="section" unicode="&#xa7;" horiz-adv-x="1260" 
d="M1304 1325l-155 -208q-162 98 -343 98q-101 0 -173.5 -34.5t-82.5 -89.5q-7 -40 5.5 -68.5t45 -46t69.5 -27.5t94 -18l65 -10q196 -31 284 -127.5t56 -245.5q-35 -156 -181 -239q97 -107 65 -260q-25 -123 -112.5 -210.5t-203 -126.5t-249.5 -39q-149 0 -287.5 43.5
t-218.5 120.5l165 203q64 -53 158 -88.5t200 -35.5q104 0 178.5 34.5t86.5 94.5q7 37 -4 62.5t-44.5 43t-73.5 28t-107 22.5l-76 12q-172 29 -259 121t-58 230q35 160 187 248q-102 105 -67 277q34 168 185 269t362 101q140 0 267 -35.5t222 -98.5zM586 702l-39 7
q-105 -43 -121 -124q-6 -28 2.5 -50t26 -36t51 -25.5t65 -17.5t79.5 -13l66 -9q45 -7 71 -14q95 41 109 111q16 72 -43 107.5t-193 53.5z" />
    <glyph glyph-name="dieresis" unicode="&#xa8;" horiz-adv-x="1095" 
d="M497 1458q72 0 122 -50t50 -122t-50 -121t-122 -49t-121 49t-49 121t49 122t121 50zM938 1458q72 0 122 -50t50 -122t-50 -121t-122 -49t-121 49t-49 121t49 122t121 50z" />
    <glyph glyph-name="copyright" unicode="&#xa9;" horiz-adv-x="1903" 
d="M945 -97q-215 0 -396 99t-288.5 276.5t-107.5 393.5q0 172 71 333t191.5 281t289 192.5t353.5 72.5q160 0 305.5 -58.5t252.5 -159.5t170 -245t63 -306q0 -172 -71 -333t-191 -281t-288.5 -192.5t-353.5 -72.5zM1042 1327q-135 0 -257 -53.5t-208 -141.5t-136.5 -205
t-50.5 -241q0 -159 78 -288t208.5 -200t284.5 -71q135 0 257 53.5t208 141.5t136.5 205t50.5 241q0 159 -78 288t-208.5 200t-284.5 71zM1422 929l-205 -99q-56 114 -186 114q-97 0 -157.5 -70.5t-60.5 -170.5q0 -90 54 -140.5t134 -50.5q113 0 188 101l165 -124
q-133 -188 -365 -188q-172 0 -290.5 104.5t-118.5 284.5q0 193 129.5 328.5t330.5 135.5q132 0 235 -60t147 -165z" />
    <glyph glyph-name="ordfeminine" unicode="&#xaa;" horiz-adv-x="780" 
d="M513 1318q140 0 221.5 -68t81.5 -187q0 -37 -9 -81l-83 -390h-192l11 51q-84 -70 -190 -70q-103 0 -167 55.5t-64 143.5q0 112 83.5 179.5t227.5 67.5h182q1 7 1 20q0 105 -139 105q-86 0 -190 -57l-53 160q128 71 279 71zM417 732q83 0 155 69l18 81h-138
q-56 0 -88 -22.5t-32 -60.5q0 -31 22.5 -49t62.5 -18z" />
    <glyph glyph-name="guillemotleft" unicode="&#xab;" horiz-adv-x="1113" 
d="M1114 944l-302 -427l104 -372h-254l-112 400l283 399h281zM654 944l-302 -427l105 -372h-255l-112 400l283 399h281z" />
    <glyph glyph-name="logicalnot" unicode="&#xac;" horiz-adv-x="1228" 
d="M987 111h-233l67 320h-709l48 228h943z" />
    <glyph glyph-name="uni00AD" unicode="&#xad;" horiz-adv-x="813" 
d="M738 662l-49 -234h-595l49 234h595z" />
    <glyph glyph-name="registered" unicode="&#xae;" horiz-adv-x="1076" 
d="M678 1478q185 0 316 -123.5t131 -311.5q0 -129 -66.5 -242.5t-184 -183.5t-256.5 -70q-185 0 -316.5 123t-131.5 311q0 130 66.5 244t184 183.5t257.5 69.5zM626 684q95 0 175.5 50t126 130.5t45.5 170.5q0 131 -88.5 218t-213.5 87q-146 0 -248 -106t-102 -244
q0 -132 89.5 -219t215.5 -87zM523 1224h187q81 0 123.5 -46t29.5 -106q-21 -104 -152 -119l110 -146h-134l-95 144h-7l-31 -144h-119zM696 1120h-76l-16 -72h77q54 0 61 33q4 19 -8 29t-38 10z" />
    <glyph glyph-name="macron" unicode="&#xaf;" horiz-adv-x="1079" 
d="M350 1179l46 214h677l-46 -214h-677z" />
    <glyph glyph-name="degree" unicode="&#xb0;" horiz-adv-x="872" 
d="M529 670q-158 0 -265 106.5t-107 257.5q0 175 122.5 299t305.5 124q156 0 263.5 -107.5t107.5 -259.5q0 -172 -124.5 -296t-302.5 -124zM543 878q75 0 133.5 57.5t58.5 138.5q0 70 -48.5 120.5t-116.5 50.5q-75 0 -133.5 -57t-58.5 -138q0 -72 48 -122t117 -50z" />
    <glyph glyph-name="plusminus" unicode="&#xb1;" horiz-adv-x="1228" 
d="M696 325h-233l56 265h-353l47 228h355l71 330h232l-70 -330h355l-48 -228h-355zM1031 228l-49 -228h-942l48 228h943z" />
    <glyph glyph-name="twosuperior" unicode="&#xb2;" horiz-adv-x="744" 
d="M338 1180l-111 134q120 134 299 134q136 0 209 -72.5t73 -174.5q0 -83 -42 -148.5t-152 -154.5l-151 -122h289l-39 -184h-580l34 160l322 262q62 51 87 86.5t25 70.5q0 37 -28 61.5t-77 24.5q-48 0 -82 -18.5t-76 -58.5z" />
    <glyph glyph-name="threesuperior" unicode="&#xb3;" horiz-adv-x="736" 
d="M311 1196l-91 141q119 111 300 111q129 0 207.5 -63.5t78.5 -155.5q0 -71 -45.5 -132t-120.5 -91q50 -24 76 -65.5t26 -92.5q0 -115 -93 -193t-251 -78q-207 0 -293 122l131 124q57 -69 165 -69q67 0 102.5 27.5t35.5 71.5q0 37 -34.5 58t-89.5 21h-92l34 170h92
q69 0 108.5 27.5t39.5 69.5q0 34 -29.5 53.5t-79.5 19.5q-93 0 -177 -76z" />
    <glyph glyph-name="acute" unicode="&#xb4;" horiz-adv-x="1024" 
d="M674 1134h-261l237 323h327z" />
    <glyph glyph-name="mu" unicode="&#xb5;" horiz-adv-x="1188" 
d="M193 -410h-263l300 1402h269l-120 -557q-7 -32 -7 -65q0 -67 37 -106.5t118 -39.5q91 0 159.5 57t94.5 179l113 532h268l-211 -992h-258l23 100q-111 -127 -287 -127q-80 0 -149 29z" />
    <glyph glyph-name="paragraph" unicode="&#xb6;" horiz-adv-x="1317" 
d="M475 0l130 610q-190 8 -292 110.5t-102 263.5q0 62 14.5 120.5t52 120t94.5 106.5t151 74t213 29h251l-305 -1434h-207zM787 0l306 1434h206l-305 -1434h-207z" />
    <glyph glyph-name="periodcentered" unicode="&#xb7;" horiz-adv-x="652" 
d="M343 743q79 0 138.5 -59t59.5 -138q0 -81 -59.5 -140.5t-138.5 -59.5q-80 0 -140 59.5t-60 140.5q0 79 60 138t140 59z" />
    <glyph glyph-name="cedilla" unicode="&#xb8;" horiz-adv-x="1024" 
d="M592 7l-166 -336h-271l185 336h252z" />
    <glyph glyph-name="onesuperior" unicode="&#xb9;" horiz-adv-x="542" 
d="M627 1447l-182 -855h-199l124 584l-196 -61l43 205z" />
    <glyph glyph-name="ordmasculine" unicode="&#xba;" horiz-adv-x="875" 
d="M561 1318q154 0 254 -94t100 -245q0 -168 -117 -287t-292 -119q-154 0 -254 94t-100 246q0 168 117 286.5t292 118.5zM547 1133q-81 0 -136.5 -60.5t-55.5 -147.5q0 -73 45.5 -120t116.5 -47q83 0 139.5 61t56.5 148q0 73 -46.5 119.5t-119.5 46.5z" />
    <glyph glyph-name="guillemotright" unicode="&#xbb;" horiz-adv-x="1113" 
d="M19 146l303 427l-105 372h255l112 -399l-283 -400h-282zM479 146l302 427l-104 372h255l111 -399l-282 -400h-282z" />
    <glyph glyph-name="onequarter" unicode="&#xbc;" horiz-adv-x="1693" 
d="M1496 1434l-1080 -1434h-259l1080 1434h259zM1568 548l-47 -220h106l-39 -186h-107l-30 -142h-200l30 142h-366l34 159l364 540h227l-345 -513h126l19 93l85 127h143zM627 1447l-182 -855h-199l124 584l-196 -61l43 205z" />
    <glyph glyph-name="onehalf" unicode="&#xbd;" horiz-adv-x="1805" 
d="M1496 1434l-1080 -1434h-259l1080 1434h259zM1272 588l-111 134q120 134 299 134q136 0 209 -72.5t73 -174.5q0 -83 -42 -148.5t-152 -154.5l-151 -122h289l-39 -184h-580l34 160l322 262q62 50 87 86.5t25 71.5q0 37 -28 61.5t-77 24.5q-48 0 -81.5 -19t-76.5 -59z
M627 1447l-182 -855h-199l124 584l-196 -61l43 205z" />
    <glyph glyph-name="threequarters" unicode="&#xbe;" horiz-adv-x="1863" 
d="M1666 1434l-1080 -1434h-259l1080 1434h259zM1738 548l-47 -220h106l-39 -186h-107l-30 -142h-200l30 142h-366l34 159l364 540h227l-345 -513h126l19 93l85 127h143zM311 1196l-91 141q119 111 300 111q129 0 207.5 -63.5t78.5 -155.5q0 -71 -45.5 -132t-120.5 -91
q50 -24 76 -65.5t26 -92.5q0 -115 -93 -193t-251 -78q-207 0 -293 122l131 124q57 -69 165 -69q67 0 102.5 27.5t35.5 71.5q0 37 -34.5 58t-89.5 21h-92l34 170h92q69 0 108.5 27.5t39.5 69.5q0 34 -29.5 53.5t-79.5 19.5q-93 0 -177 -76z" />
    <glyph glyph-name="questiondown" unicode="&#xbf;" horiz-adv-x="885" 
d="M469 504h246l-74 -348h-112q-148 0 -219.5 -48.5t-71.5 -135.5q0 -80 81 -122.5t217 -43.5q51 0 101 4l-16 -270q-58 -5 -123 -5q-252 0 -405.5 108t-153.5 295q0 190 127 309.5t370 142.5zM643 629q-77 0 -135 57.5t-58 135.5q0 79 58 138t135 59q78 0 137 -59t59 -137
t-59 -136t-137 -58z" />
    <glyph glyph-name="Agrave" unicode="&#xc0;" horiz-adv-x="1500" 
d="M1120 1434l247 -1434h-292l-52 334h-597l-193 -334h-311l851 1434h347zM896 1148l-318 -551h404zM872 1554l-270 323h320l205 -323h-255z" />
    <glyph glyph-name="Aacute" unicode="&#xc1;" horiz-adv-x="1500" 
d="M1120 1434l247 -1434h-292l-52 334h-597l-193 -334h-311l851 1434h347zM896 1148l-318 -551h404zM1032 1553h-261l238 324h326z" />
    <glyph glyph-name="Acircumflex" unicode="&#xc2;" horiz-adv-x="1500" 
d="M1120 1434l247 -1434h-292l-52 334h-597l-193 -334h-311l851 1434h347zM896 1148l-318 -551h404zM1326 1544h-252l-89 159l-151 -159h-271l284 323h322z" />
    <glyph glyph-name="Atilde" unicode="&#xc3;" horiz-adv-x="1500" 
d="M1120 1434l247 -1434h-292l-52 334h-597l-193 -334h-311l851 1434h347zM896 1148l-318 -551h404zM690 1564l-132 161q117 129 276 129q66 0 118 -18t86.5 -35.5t58.5 -17.5q55 0 138 72l131 -161q-116 -130 -275 -130q-65 0 -116.5 18t-86.5 35.5t-60 17.5
q-34 0 -65.5 -17.5t-72.5 -53.5z" />
    <glyph glyph-name="Adieresis" unicode="&#xc4;" horiz-adv-x="1500" 
d="M1120 1434l247 -1434h-292l-52 334h-597l-193 -334h-311l851 1434h347zM896 1148l-318 -551h404zM763 1878q72 0 122 -50t50 -122t-50 -121t-122 -49t-121 49t-49 121t49 122t121 50zM1204 1878q72 0 122 -50t50 -122t-50 -121t-122 -49t-121 49t-49 121t49 122t121 50z
" />
    <glyph glyph-name="Aring" unicode="&#xc5;" horiz-adv-x="1500" 
d="M1120 1434l247 -1434h-292l-52 334h-597l-193 -334h-311l851 1434h347zM896 1148l-318 -551h404zM976 1522q-110 0 -188.5 77.5t-78.5 186.5q0 108 78.5 185.5t188.5 77.5q111 0 190 -77.5t79 -185.5q0 -109 -79 -186.5t-190 -77.5zM976 1674q45 0 77 32.5t32 79.5
q0 46 -32.5 78t-76.5 32q-43 0 -75.5 -32.5t-32.5 -77.5q0 -47 32.5 -79.5t75.5 -32.5z" />
    <glyph glyph-name="AE" unicode="&#xc6;" horiz-adv-x="2356" 
d="M2190 262l-56 -262h-1053l64 301h-586l-275 -301h-367l1338 1434h1174l-56 -263h-751l-68 -317h723l-56 -262h-722l-71 -330h762zM800 564h401l122 573z" />
    <glyph glyph-name="Ccedilla" unicode="&#xc7;" horiz-adv-x="1485" 
d="M1199 423l187 -194q-192 -217 -466 -249l-151 -309h-289l176 322q-236 51 -379 228t-143 430q0 171 61.5 321.5t167.5 257t254.5 168t317.5 61.5q56 0 109 -6t123.5 -26t131 -52.5t123 -91.5t107.5 -137l-238 -158q-121 198 -372 198q-201 0 -343.5 -148t-142.5 -365
q0 -190 117.5 -307t290.5 -117q103 0 195 45.5t163 128.5z" />
    <glyph glyph-name="Egrave" unicode="&#xc8;" horiz-adv-x="1325" 
d="M1246 854l-56 -262h-722l-71 -330h762l-56 -262h-1053l305 1434h1043l-57 -263h-750l-68 -317h723zM797 1554l-271 323h320l206 -323h-255z" />
    <glyph glyph-name="Eacute" unicode="&#xc9;" horiz-adv-x="1325" 
d="M1246 854l-56 -262h-722l-71 -330h762l-56 -262h-1053l305 1434h1043l-57 -263h-750l-68 -317h723zM956 1553h-261l238 324h327z" />
    <glyph glyph-name="Ecircumflex" unicode="&#xca;" horiz-adv-x="1325" 
d="M1246 854l-56 -262h-722l-71 -330h762l-56 -262h-1053l305 1434h1043l-57 -263h-750l-68 -317h723zM1250 1544h-252l-89 159l-151 -159h-271l284 323h323z" />
    <glyph glyph-name="Edieresis" unicode="&#xcb;" horiz-adv-x="1325" 
d="M1246 854l-56 -262h-722l-71 -330h762l-56 -262h-1053l305 1434h1043l-57 -263h-750l-68 -317h723zM687 1878q72 0 122 -50t50 -122t-50 -121t-122 -49t-121 49t-49 121t49 122t121 50zM1128 1878q72 0 122 -50t50 -122t-50 -121t-122 -49t-121 49t-49 121t49 122t121 50
z" />
    <glyph glyph-name="Igrave" unicode="&#xcc;" horiz-adv-x="603" 
d="M647 1434l-305 -1434h-292l305 1434h292zM426 1554l-270 323h319l206 -323h-255z" />
    <glyph glyph-name="Iacute" unicode="&#xcd;" horiz-adv-x="603" 
d="M647 1434l-305 -1434h-292l305 1434h292zM586 1553h-261l237 324h327z" />
    <glyph glyph-name="Icircumflex" unicode="&#xce;" horiz-adv-x="603" 
d="M647 1434l-305 -1434h-292l305 1434h292zM880 1544h-252l-89 159l-152 -159h-270l283 323h323z" />
    <glyph glyph-name="Idieresis" unicode="&#xcf;" horiz-adv-x="603" 
d="M647 1434l-305 -1434h-292l305 1434h292zM316 1878q72 0 122 -50t50 -122t-50 -121t-122 -49t-121 49t-49 121t49 122t121 50zM758 1878q72 0 122 -50t50 -122t-50 -121t-122 -49t-121 49t-49 121t49 122t121 50z" />
    <glyph glyph-name="Eth" unicode="&#xd0;" horiz-adv-x="1674" 
d="M981 1434q303 0 482 -169t179 -436q0 -173 -59.5 -323.5t-169.5 -263t-278 -177.5t-373 -65h-593l126 595h-180l54 256h181l124 583h507zM972 851l-56 -256h-329l-70 -328h279q251 0 397.5 148.5t146.5 380.5q0 170 -98.5 270t-293.5 100h-239l-67 -315h330z" />
    <glyph glyph-name="Ntilde" unicode="&#xd1;" horiz-adv-x="1582" 
d="M1626 1434l-305 -1434h-268l-502 987l-210 -987h-291l305 1434h270l500 -988l210 988h291zM721 1564l-132 161q117 129 275 129q66 0 118 -18t86.5 -35.5t58.5 -17.5q56 0 139 72l131 -161q-116 -130 -276 -130q-65 0 -116.5 18t-86 35.5t-59.5 17.5q-34 0 -65.5 -17.5
t-72.5 -53.5z" />
    <glyph glyph-name="Ograve" unicode="&#xd2;" horiz-adv-x="1671" 
d="M937 1459q199 0 357 -82.5t248.5 -235.5t90.5 -351q0 -165 -60 -314.5t-165 -260.5t-256 -176.5t-324 -65.5q-148 0 -276.5 48.5t-221 135t-145.5 212.5t-53 275q0 165 60 314t165 259.5t256 176t324 65.5zM919 1186q-141 0 -253.5 -72t-173.5 -191t-61 -259
q0 -188 116 -302t301 -114q140 0 252 72t173 191t61 259q0 188 -115.5 302t-299.5 114zM887 1554l-271 323h320l206 -323h-255z" />
    <glyph glyph-name="Oacute" unicode="&#xd3;" horiz-adv-x="1671" 
d="M937 1459q199 0 357 -82.5t248.5 -235.5t90.5 -351q0 -165 -60 -314.5t-165 -260.5t-256 -176.5t-324 -65.5q-148 0 -276.5 48.5t-221 135t-145.5 212.5t-53 275q0 165 60 314t165 259.5t256 176t324 65.5zM919 1186q-141 0 -253.5 -72t-173.5 -191t-61 -259
q0 -188 116 -302t301 -114q140 0 252 72t173 191t61 259q0 188 -115.5 302t-299.5 114zM1047 1553h-262l238 324h327z" />
    <glyph glyph-name="Ocircumflex" unicode="&#xd4;" horiz-adv-x="1671" 
d="M937 1459q199 0 357 -82.5t248.5 -235.5t90.5 -351q0 -165 -60 -314.5t-165 -260.5t-256 -176.5t-324 -65.5q-148 0 -276.5 48.5t-221 135t-145.5 212.5t-53 275q0 165 60 314t165 259.5t256 176t324 65.5zM919 1186q-141 0 -253.5 -72t-173.5 -191t-61 -259
q0 -188 116 -302t301 -114q140 0 252 72t173 191t61 259q0 188 -115.5 302t-299.5 114zM1340 1544h-251l-90 159l-151 -159h-270l283 323h323z" />
    <glyph glyph-name="Otilde" unicode="&#xd5;" horiz-adv-x="1671" 
d="M937 1459q199 0 357 -82.5t248.5 -235.5t90.5 -351q0 -165 -60 -314.5t-165 -260.5t-256 -176.5t-324 -65.5q-148 0 -276.5 48.5t-221 135t-145.5 212.5t-53 275q0 165 60 314t165 259.5t256 176t324 65.5zM919 1186q-141 0 -253.5 -72t-173.5 -191t-61 -259
q0 -188 116 -302t301 -114q140 0 252 72t173 191t61 259q0 188 -115.5 302t-299.5 114zM705 1564l-133 161q117 129 276 129q66 0 118 -18t86.5 -35.5t58.5 -17.5q55 0 138 72l131 -161q-116 -130 -275 -130q-65 0 -116.5 18t-86 35.5t-59.5 17.5q-34 0 -65.5 -17.5
t-72.5 -53.5z" />
    <glyph glyph-name="Odieresis" unicode="&#xd6;" horiz-adv-x="1671" 
d="M937 1459q199 0 357 -82.5t248.5 -235.5t90.5 -351q0 -165 -60 -314.5t-165 -260.5t-256 -176.5t-324 -65.5q-148 0 -276.5 48.5t-221 135t-145.5 212.5t-53 275q0 165 60 314t165 259.5t256 176t324 65.5zM919 1186q-141 0 -253.5 -72t-173.5 -191t-61 -259
q0 -188 116 -302t301 -114q140 0 252 72t173 191t61 259q0 188 -115.5 302t-299.5 114zM777 1878q72 0 122 -50t50 -122t-50 -121t-122 -49t-121 49t-49 121t49 122t121 50zM1219 1878q72 0 122 -50t50 -122t-50 -121t-122 -49t-121 49t-49 121t49 122t121 50z" />
    <glyph glyph-name="multiply" unicode="&#xd7;" horiz-adv-x="1228" 
d="M1002 260l-182 -150l-215 272l-360 -299l-141 176l347 286l-225 285l183 151l215 -272l360 298l140 -177l-346 -284z" />
    <glyph glyph-name="Oslash" unicode="&#xd8;" horiz-adv-x="1671" 
d="M937 1459q267 0 455 -146l169 150l155 -176l-171 -151q88 -154 88 -346q0 -165 -60 -314.5t-165 -260.5t-256 -176.5t-324 -65.5q-253 0 -438 135l-153 -138l-156 175l149 134q-98 160 -98 365q0 165 60 314t165 259.5t256 176t324 65.5zM919 1186q-141 0 -253.5 -72
t-173.5 -191t-61 -259q0 -100 33 -178l703 627q-106 73 -248 73zM1334 770q0 83 -25 155l-694 -617q100 -60 233 -60q140 0 252 72t173 191t61 259z" />
    <glyph glyph-name="Ugrave" unicode="&#xd9;" horiz-adv-x="1489" 
d="M1549 1434l-186 -882q-122 -578 -676 -578q-160 0 -281.5 50.5t-192.5 156t-71 254.5q0 65 18 155l180 844h293l-181 -847q-13 -63 -13 -105q0 -119 71 -176.5t199 -57.5q140 0 236 81t132 252l180 853h292zM870 1554l-270 323h320l205 -323h-255z" />
    <glyph glyph-name="Uacute" unicode="&#xda;" horiz-adv-x="1489" 
d="M1549 1434l-186 -882q-122 -578 -676 -578q-160 0 -281.5 50.5t-192.5 156t-71 254.5q0 65 18 155l180 844h293l-181 -847q-13 -63 -13 -105q0 -119 71 -176.5t199 -57.5q140 0 236 81t132 252l180 853h292zM1030 1553h-261l238 324h326z" />
    <glyph glyph-name="Ucircumflex" unicode="&#xdb;" horiz-adv-x="1489" 
d="M1549 1434l-186 -882q-122 -578 -676 -578q-160 0 -281.5 50.5t-192.5 156t-71 254.5q0 65 18 155l180 844h293l-181 -847q-13 -63 -13 -105q0 -119 71 -176.5t199 -57.5q140 0 236 81t132 252l180 853h292zM1324 1544h-252l-89 159l-152 -159h-270l284 323h322z" />
    <glyph glyph-name="Udieresis" unicode="&#xdc;" horiz-adv-x="1489" 
d="M1549 1434l-186 -882q-122 -578 -676 -578q-160 0 -281.5 50.5t-192.5 156t-71 254.5q0 65 18 155l180 844h293l-181 -847q-13 -63 -13 -105q0 -119 71 -176.5t199 -57.5q140 0 236 81t132 252l180 853h292zM761 1878q72 0 122 -50t50 -122t-50 -121t-122 -49t-121 49
t-49 121t49 122t121 50zM1202 1878q72 0 122 -50t50 -122t-50 -121t-122 -49t-121 49t-49 121t49 122t121 50z" />
    <glyph glyph-name="Yacute" unicode="&#xdd;" horiz-adv-x="1379" 
d="M1571 1434l-719 -869l-121 -565h-292l125 590l-356 844h305l236 -598l474 598h348zM953 1553h-261l238 324h326z" />
    <glyph glyph-name="Thorn" unicode="&#xde;" horiz-adv-x="1325" 
d="M647 1434l-52 -246h236q225 0 350 -112t125 -288q0 -233 -158 -371t-438 -138h-309l-59 -279h-292l305 1434h292zM797 924h-258l-82 -384h267q139 0 213 57t74 162q0 78 -54.5 121.5t-159.5 43.5z" />
    <glyph glyph-name="germandbls" unicode="&#xdf;" horiz-adv-x="1233" 
d="M22 0l215 1017q51 236 186 359.5t373 123.5q208 0 329.5 -107.5t121.5 -267.5q0 -131 -80 -239.5t-210 -151.5q101 -33 157 -139.5t31 -226.5q-81 -394 -520 -394q-135 0 -222 37l76 223q60 -26 137 -26q229 0 263 190q18 99 -44 159.5t-189 60.5h-43l50 231h11
q145 0 221 58q40 30 63.5 81t23.5 98q0 73 -56 120.5t-135 47.5q-224 0 -278 -256l-212 -998h-269z" />
    <glyph glyph-name="agrave" unicode="&#xe0;" horiz-adv-x="1227" 
d="M614 1019q205 0 299 -127l23 100h265l-211 -992h-260l18 82q-111 -109 -269 -109q-180 0 -299.5 131.5t-119.5 325.5q0 85 24 169.5t72 160t113.5 133.5t155 92t189.5 34zM561 223q110 0 188.5 77t92.5 194q15 122 -49 199t-172 77q-120 0 -202 -91.5t-82 -220.5
q0 -106 62.5 -170.5t161.5 -64.5zM623 1135l-271 322h320l206 -322h-255z" />
    <glyph glyph-name="aacute" unicode="&#xe1;" horiz-adv-x="1227" 
d="M614 1019q205 0 299 -127l23 100h265l-211 -992h-260l18 82q-111 -109 -269 -109q-180 0 -299.5 131.5t-119.5 325.5q0 85 24 169.5t72 160t113.5 133.5t155 92t189.5 34zM561 223q110 0 188.5 77t92.5 194q15 122 -49 199t-172 77q-120 0 -202 -91.5t-82 -220.5
q0 -106 62.5 -170.5t161.5 -64.5zM784 1134h-261l238 323h326z" />
    <glyph glyph-name="acircumflex" unicode="&#xe2;" horiz-adv-x="1227" 
d="M614 1019q205 0 299 -127l23 100h265l-211 -992h-260l18 82q-111 -109 -269 -109q-180 0 -299.5 131.5t-119.5 325.5q0 85 24 169.5t72 160t113.5 133.5t155 92t189.5 34zM561 223q110 0 188.5 77t92.5 194q15 122 -49 199t-172 77q-120 0 -202 -91.5t-82 -220.5
q0 -106 62.5 -170.5t161.5 -64.5zM1076 1124h-252l-89 159l-151 -159h-271l284 323h323z" />
    <glyph glyph-name="atilde" unicode="&#xe3;" horiz-adv-x="1227" 
d="M614 1019q205 0 299 -127l23 100h265l-211 -992h-260l18 82q-111 -109 -269 -109q-180 0 -299.5 131.5t-119.5 325.5q0 85 24 169.5t72 160t113.5 133.5t155 92t189.5 34zM561 223q110 0 188.5 77t92.5 194q15 122 -49 199t-172 77q-120 0 -202 -91.5t-82 -220.5
q0 -106 62.5 -170.5t161.5 -64.5zM439 1144l-132 162q117 129 276 129q66 0 118 -18t86.5 -36t58.5 -18q33 0 64 17.5t74 55.5l131 -162q-116 -130 -275 -130q-65 0 -116.5 18t-86 35.5t-59.5 17.5q-58 0 -139 -71z" />
    <glyph glyph-name="adieresis" unicode="&#xe4;" horiz-adv-x="1227" 
d="M614 1019q205 0 299 -127l23 100h265l-211 -992h-260l18 82q-111 -109 -269 -109q-180 0 -299.5 131.5t-119.5 325.5q0 85 24 169.5t72 160t113.5 133.5t155 92t189.5 34zM561 223q110 0 188.5 77t92.5 194q15 122 -49 199t-172 77q-120 0 -202 -91.5t-82 -220.5
q0 -106 62.5 -170.5t161.5 -64.5zM512 1458q72 0 122 -50t50 -122t-50 -121t-122 -49t-121 49t-49 121t49 122t121 50zM953 1458q72 0 122 -50t50 -122t-50 -121t-122 -49t-121 49t-49 121t49 122t121 50z" />
    <glyph glyph-name="aring" unicode="&#xe5;" horiz-adv-x="1227" 
d="M614 1019q205 0 299 -127l23 100h265l-211 -992h-260l18 82q-111 -109 -269 -109q-180 0 -299.5 131.5t-119.5 325.5q0 85 24 169.5t72 160t113.5 133.5t155 92t189.5 34zM561 223q110 0 188.5 77t92.5 194q15 122 -49 199t-172 77q-120 0 -202 -91.5t-82 -220.5
q0 -106 62.5 -170.5t161.5 -64.5zM714 1102q-110 0 -189 77.5t-79 186.5q0 108 79 185.5t189 77.5q111 0 190 -77.5t79 -185.5q0 -109 -79 -186.5t-190 -77.5zM714 1254q45 0 77 32.5t32 79.5q0 46 -32.5 78.5t-76.5 32.5q-43 0 -75.5 -33t-32.5 -78q0 -47 32.5 -79.5
t75.5 -32.5z" />
    <glyph glyph-name="ae" unicode="&#xe6;" horiz-adv-x="1740" 
d="M1437 288l137 -174q-160 -141 -406 -141q-254 0 -380 165q-172 -164 -401 -164q-162 0 -256 75.5t-94 203.5q0 156 116 247.5t313 91.5h263q3 20 3 40q0 151 -202 151q-121 0 -258 -74l-81 210q172 100 388 100q236 0 331 -146q135 146 359 146q189 0 306.5 -110.5
t117.5 -294.5q0 -117 -40 -206h-689q3 -99 62.5 -153t164.5 -54q137 0 246 87zM445 189q66 0 138 31t130 91q-10 52 -10 98v3h-210q-83 0 -130.5 -33t-47.5 -90q0 -46 34 -73t96 -27zM1253 788q-100 0 -164 -57t-96 -145h441q1 7 1 22q0 87 -49 133.5t-133 46.5z" />
    <glyph glyph-name="ccedilla" unicode="&#xe7;" horiz-adv-x="1047" 
d="M1056 785l-225 -127q-79 111 -211 111q-120 0 -200.5 -89t-80.5 -215q0 -105 62.5 -172.5t157.5 -67.5q125 0 215 97l175 -165q-129 -146 -314 -173l-154 -313h-271l180 328q-151 43 -238 163.5t-87 283.5q0 154 71.5 284.5t202.5 208.5t294 78q296 0 423 -232z" />
    <glyph glyph-name="egrave" unicode="&#xe8;" horiz-adv-x="1097" 
d="M795 288l137 -174q-160 -141 -406 -141q-219 0 -344.5 121.5t-125.5 314.5q0 78 20 160t65 163t109 144.5t162 103t215 39.5q189 0 306 -110.5t117 -294.5q0 -51 -11 -109t-28 -97h-689q3 -99 62.5 -153t164.5 -54q136 0 246 87zM611 788q-99 0 -163 -55.5t-96 -142.5
h440q1 6 1 18q0 87 -49 133.5t-133 46.5zM583 1135l-271 322h320l206 -322h-255z" />
    <glyph glyph-name="eacute" unicode="&#xe9;" horiz-adv-x="1097" 
d="M795 288l137 -174q-160 -141 -406 -141q-219 0 -344.5 121.5t-125.5 314.5q0 78 20 160t65 163t109 144.5t162 103t215 39.5q189 0 306 -110.5t117 -294.5q0 -51 -11 -109t-28 -97h-689q3 -99 62.5 -153t164.5 -54q136 0 246 87zM611 788q-99 0 -163 -55.5t-96 -142.5
h440q1 6 1 18q0 87 -49 133.5t-133 46.5zM744 1134h-261l238 323h327z" />
    <glyph glyph-name="ecircumflex" unicode="&#xea;" horiz-adv-x="1097" 
d="M795 288l137 -174q-160 -141 -406 -141q-219 0 -344.5 121.5t-125.5 314.5q0 78 20 160t65 163t109 144.5t162 103t215 39.5q189 0 306 -110.5t117 -294.5q0 -51 -11 -109t-28 -97h-689q3 -99 62.5 -153t164.5 -54q136 0 246 87zM611 788q-99 0 -163 -55.5t-96 -142.5
h440q1 6 1 18q0 87 -49 133.5t-133 46.5zM1036 1124h-252l-89 159l-151 -159h-271l284 323h323z" />
    <glyph glyph-name="edieresis" unicode="&#xeb;" horiz-adv-x="1097" 
d="M795 288l137 -174q-160 -141 -406 -141q-219 0 -344.5 121.5t-125.5 314.5q0 78 20 160t65 163t109 144.5t162 103t215 39.5q189 0 306 -110.5t117 -294.5q0 -51 -11 -109t-28 -97h-689q3 -99 62.5 -153t164.5 -54q136 0 246 87zM611 788q-99 0 -163 -55.5t-96 -142.5
h440q1 6 1 18q0 87 -49 133.5t-133 46.5zM472 1458q72 0 122 -50t50 -122t-50 -121t-122 -49t-121 49t-49 121t49 122t121 50zM913 1458q72 0 122 -50t50 -122t-50 -121t-122 -49t-121 49t-49 121t49 122t121 50z" />
    <glyph glyph-name="igrave" unicode="&#xec;" horiz-adv-x="533" 
d="M507 992l-211 -992h-269l211 992h269zM318 1135l-270 322h320l205 -322h-255z" />
    <glyph glyph-name="iacute" unicode="&#xed;" horiz-adv-x="533" 
d="M507 992l-211 -992h-269l211 992h269zM480 1134h-261l238 323h326z" />
    <glyph glyph-name="icircumflex" unicode="&#xee;" horiz-adv-x="533" 
d="M507 992l-211 -992h-269l211 992h269zM772 1124h-252l-89 159l-151 -159h-271l284 323h322z" />
    <glyph glyph-name="idieresis" unicode="&#xef;" horiz-adv-x="533" 
d="M507 992l-211 -992h-269l211 992h269zM208 1458q72 0 122 -50t50 -122t-50 -121t-122 -49t-121 49t-49 121t49 122t121 50zM649 1458q72 0 122 -50t50 -122t-50 -121t-122 -49t-121 49t-49 121t49 122t121 50z" />
    <glyph glyph-name="eth" unicode="&#xf0;" horiz-adv-x="1198" 
d="M971 1464l83 -144l-162 -92q121 -129 183.5 -290t62.5 -335q0 -54 -10 -134q-27 -216 -185 -356t-377 -140q-221 0 -363.5 130.5t-142.5 328.5q0 144 69 266t187 193.5t257 71.5q167 0 279 -99q-54 139 -180 247l-216 -123l-83 145l150 84q-71 42 -173 86l145 190
q145 -58 267 -147zM613 726q-68 0 -122.5 -26.5t-87.5 -68.5t-50 -90t-17 -96q0 -102 69 -167.5t178 -65.5q59 0 107.5 18.5t80 48t53.5 67t31 74t9 70.5q0 104 -70.5 170t-180.5 66z" />
    <glyph glyph-name="ntilde" unicode="&#xf1;" horiz-adv-x="1188" 
d="M760 1019q153 0 243.5 -92.5t90.5 -240.5q0 -52 -12 -107l-124 -579h-268l120 557q7 32 7 66q0 66 -37 105.5t-118 39.5q-91 0 -159.5 -57t-94.5 -179l-113 -532h-268l211 992h258l-23 -100q111 127 287 127zM451 1144l-133 162q117 129 276 129q66 0 118 -18t86.5 -36
t58.5 -18q33 0 64 17.5t74 55.5l131 -162q-116 -130 -275 -130q-65 0 -116.5 18t-86 35.5t-59.5 17.5q-34 0 -65.5 -17.5t-72.5 -53.5z" />
    <glyph glyph-name="ograve" unicode="&#xf2;" horiz-adv-x="1199" 
d="M639 1019q216 0 356 -132.5t140 -342.5q0 -154 -74 -285t-206.5 -208.5t-294.5 -77.5q-215 0 -355 133t-140 344q0 154 73.5 284t206 207.5t294.5 77.5zM621 770q-120 0 -201.5 -88.5t-81.5 -215.5q0 -107 67 -175.5t172 -68.5q120 0 202 89t82 215q0 107 -67 175.5
t-173 68.5zM606 1134l-270 322h319l206 -322h-255z" />
    <glyph glyph-name="oacute" unicode="&#xf3;" horiz-adv-x="1199" 
d="M639 1019q216 0 356 -132.5t140 -342.5q0 -154 -74 -285t-206.5 -208.5t-294.5 -77.5q-215 0 -355 133t-140 344q0 154 73.5 284t206 207.5t294.5 77.5zM621 770q-120 0 -201.5 -88.5t-81.5 -215.5q0 -107 67 -175.5t172 -68.5q120 0 202 89t82 215q0 107 -67 175.5
t-173 68.5zM768 1133h-261l237 323h327z" />
    <glyph glyph-name="ocircumflex" unicode="&#xf4;" horiz-adv-x="1199" 
d="M639 1019q216 0 356 -132.5t140 -342.5q0 -154 -74 -285t-206.5 -208.5t-294.5 -77.5q-215 0 -355 133t-140 344q0 154 73.5 284t206 207.5t294.5 77.5zM621 770q-120 0 -201.5 -88.5t-81.5 -215.5q0 -107 67 -175.5t172 -68.5q120 0 202 89t82 215q0 107 -67 175.5
t-173 68.5zM1060 1123h-252l-89 159l-152 -159h-270l284 323h322z" />
    <glyph glyph-name="otilde" unicode="&#xf5;" horiz-adv-x="1199" 
d="M639 1019q216 0 356 -132.5t140 -342.5q0 -154 -74 -285t-206.5 -208.5t-294.5 -77.5q-215 0 -355 133t-140 344q0 154 73.5 284t206 207.5t294.5 77.5zM621 770q-120 0 -201.5 -88.5t-81.5 -215.5q0 -107 67 -175.5t172 -68.5q120 0 202 89t82 215q0 107 -67 175.5
t-173 68.5zM423 1143l-132 162q117 129 275 129q66 0 118 -18t86.5 -36t58.5 -18q33 0 64.5 18t74.5 55l131 -162q-116 -130 -276 -130q-51 0 -95 11t-68.5 24.5t-51 24.5t-47.5 11q-34 0 -65.5 -17.5t-72.5 -53.5z" />
    <glyph glyph-name="odieresis" unicode="&#xf6;" horiz-adv-x="1199" 
d="M639 1019q216 0 356 -132.5t140 -342.5q0 -154 -74 -285t-206.5 -208.5t-294.5 -77.5q-215 0 -355 133t-140 344q0 154 73.5 284t206 207.5t294.5 77.5zM621 770q-120 0 -201.5 -88.5t-81.5 -215.5q0 -107 67 -175.5t172 -68.5q120 0 202 89t82 215q0 107 -67 175.5
t-173 68.5zM496 1457q72 0 122 -50t50 -122t-50 -121t-122 -49t-121 49t-49 121t49 122t121 50zM937 1457q72 0 122 -50t50 -122t-50 -121t-122 -49t-121 49t-49 121t49 122t121 50z" />
    <glyph glyph-name="divide" unicode="&#xf7;" horiz-adv-x="1228" 
d="M1122 670l-48 -229h-943l48 229h943zM691 1083q67 0 116.5 -49t49.5 -116q0 -68 -49.5 -118t-116.5 -50t-117.5 50t-50.5 118q0 67 50 116t118 49zM575 362q67 0 116.5 -49.5t49.5 -116.5q0 -68 -49.5 -118t-116.5 -50t-117 50t-50 118q0 67 49.5 116.5t117.5 49.5z" />
    <glyph glyph-name="oslash" unicode="&#xf8;" horiz-adv-x="1199" 
d="M639 1019q168 0 297 -85l127 113l138 -155l-125 -111q60 -109 60 -237q0 -154 -74 -285t-206.5 -208.5t-294.5 -77.5q-170 0 -296 84l-127 -112l-138 154l124 111q-59 107 -59 240q0 154 73.5 284t206 207.5t294.5 77.5zM622 777q-123 0 -206.5 -91t-83.5 -221
q0 -41 9 -75l402 359q-56 28 -121 28zM868 527q0 33 -8 70l-400 -356q55 -26 115 -26q124 0 208.5 91t84.5 221z" />
    <glyph glyph-name="ugrave" unicode="&#xf9;" horiz-adv-x="1179" 
d="M1161 992l-124 -581q-25 -118 -76.5 -204.5t-122.5 -136t-152.5 -73t-176.5 -23.5q-183 0 -295.5 95t-112.5 266q0 49 15 121l113 536h270l-119 -557q-7 -35 -7 -65q0 -74 43.5 -110.5t117.5 -36.5q91 0 155.5 59.5t88.5 175.5l113 534h270zM641 1135l-270 322h319
l206 -322h-255z" />
    <glyph glyph-name="uacute" unicode="&#xfa;" horiz-adv-x="1179" 
d="M1161 992l-124 -581q-25 -118 -76.5 -204.5t-122.5 -136t-152.5 -73t-176.5 -23.5q-183 0 -295.5 95t-112.5 266q0 49 15 121l113 536h270l-119 -557q-7 -35 -7 -65q0 -74 43.5 -110.5t117.5 -36.5q91 0 155.5 59.5t88.5 175.5l113 534h270zM803 1134h-261l237 323h327z
" />
    <glyph glyph-name="ucircumflex" unicode="&#xfb;" horiz-adv-x="1179" 
d="M1161 992l-124 -581q-25 -118 -76.5 -204.5t-122.5 -136t-152.5 -73t-176.5 -23.5q-183 0 -295.5 95t-112.5 266q0 49 15 121l113 536h270l-119 -557q-7 -35 -7 -65q0 -74 43.5 -110.5t117.5 -36.5q91 0 155.5 59.5t88.5 175.5l113 534h270zM1095 1124h-252l-89 159
l-152 -159h-270l283 323h323z" />
    <glyph glyph-name="udieresis" unicode="&#xfc;" horiz-adv-x="1179" 
d="M1161 992l-124 -581q-25 -118 -76.5 -204.5t-122.5 -136t-152.5 -73t-176.5 -23.5q-183 0 -295.5 95t-112.5 266q0 49 15 121l113 536h270l-119 -557q-7 -35 -7 -65q0 -74 43.5 -110.5t117.5 -36.5q91 0 155.5 59.5t88.5 175.5l113 534h270zM530 1458q72 0 122 -50
t50 -122t-50 -121t-122 -49t-121 49t-49 121t49 122t121 50zM972 1458q72 0 122 -50t50 -122t-50 -121t-122 -49t-121 49t-49 121t49 122t121 50z" />
    <glyph glyph-name="yacute" unicode="&#xfd;" horiz-adv-x="1146" 
d="M1245 992l-965 -1406h-306l462 654l-320 752h288l201 -505l336 505h304zM770 1134h-261l237 323h327z" />
    <glyph glyph-name="thorn" unicode="&#xfe;" horiz-adv-x="1229" 
d="M615 -26q-204 0 -299 126l-107 -510h-269l400 1885h269l-111 -522q95 67 233 67q188 0 313 -132t125 -326q0 -107 -39 -211.5t-108.5 -188.5t-176 -136t-230.5 -52zM668 769q-109 0 -188 -76t-93 -193q-15 -123 49 -200t172 -77q121 0 203 92t82 220q0 106 -63 170
t-162 64z" />
    <glyph glyph-name="ydieresis" unicode="&#xff;" horiz-adv-x="1146" 
d="M1245 992l-965 -1406h-306l462 654l-320 752h288l201 -505l336 505h304zM498 1458q72 0 122 -50t50 -122t-50 -121t-122 -49t-121 49t-49 121t49 122t121 50zM939 1458q72 0 122 -50t50 -122t-50 -121t-122 -49t-121 49t-49 121t49 122t121 50z" />
    <glyph glyph-name="Amacron" unicode="&#x100;" horiz-adv-x="1500" 
d="M1120 1434l247 -1434h-292l-52 334h-597l-193 -334h-311l851 1434h347zM896 1148l-318 -551h404zM630 1598l46 214h677l-46 -214h-677z" />
    <glyph glyph-name="amacron" unicode="&#x101;" horiz-adv-x="1227" 
d="M614 1019q205 0 299 -127l23 100h265l-211 -992h-260l18 82q-111 -109 -269 -109q-180 0 -299.5 131.5t-119.5 325.5q0 85 24 169.5t72 160t113.5 133.5t155 92t189.5 34zM561 223q110 0 188.5 77t92.5 194q15 122 -49 199t-172 77q-120 0 -202 -91.5t-82 -220.5
q0 -106 62.5 -170.5t161.5 -64.5zM378 1179l46 214h677l-46 -214h-677z" />
    <glyph glyph-name="Abreve" unicode="&#x102;" horiz-adv-x="1500" 
d="M1120 1434l247 -1434h-292l-52 334h-597l-193 -334h-311l851 1434h347zM896 1148l-318 -551h404zM627 1852l204 60q16 -168 153 -168q128 0 211 168l202 -60q-76 -161 -183 -241.5t-255 -80.5q-146 0 -235 84t-97 238z" />
    <glyph glyph-name="abreve" unicode="&#x103;" horiz-adv-x="1227" 
d="M614 1019q205 0 299 -127l23 100h265l-211 -992h-260l18 82q-111 -109 -269 -109q-180 0 -299.5 131.5t-119.5 325.5q0 85 24 169.5t72 160t113.5 133.5t155 92t189.5 34zM561 223q110 0 188.5 77t92.5 194q15 122 -49 199t-172 77q-120 0 -202 -91.5t-82 -220.5
q0 -106 62.5 -170.5t161.5 -64.5zM367 1433l204 59q16 -168 153 -168q128 0 211 168l202 -59q-76 -161 -183 -242t-255 -81q-146 0 -235 84.5t-97 238.5z" />
    <glyph glyph-name="Aogonek" unicode="&#x104;" horiz-adv-x="1500" 
d="M1212 -181l112 -157q-103 -91 -237 -91q-111 0 -180.5 51t-69.5 139q0 82 57.5 146t176.5 121l-48 306h-597l-193 -334h-311l851 1434h347l247 -1434h-102q-189 -87 -189 -171q0 -46 54 -46q37 0 82 36zM896 1148l-318 -551h404z" />
    <glyph glyph-name="aogonek" unicode="&#x105;" horiz-adv-x="1227" 
d="M918 -181l111 -157q-103 -91 -236 -91q-111 0 -181 51t-70 139q0 141 189 243l17 78q-111 -109 -269 -109q-180 0 -299.5 131.5t-119.5 325.5q0 85 24 169.5t72 160t113.5 133.5t155 92t189.5 34q205 0 299 -127l23 100h265l-211 -992h-20q-189 -87 -189 -171
q0 -22 15 -34t40 -12q37 0 82 36zM561 223q110 0 188.5 77t92.5 194q15 122 -49 199t-172 77q-120 0 -202 -91.5t-82 -220.5q0 -106 62.5 -170.5t161.5 -64.5z" />
    <glyph glyph-name="Cacute" unicode="&#x106;" horiz-adv-x="1485" 
d="M1186 410l200 -181q-225 -255 -558 -255q-200 0 -358 85.5t-247 240t-89 351.5q0 171 61.5 321.5t167.5 257t254.5 168t317.5 61.5q56 0 109 -6t123.5 -26t131 -52.5t123 -91.5t107.5 -137l-238 -158q-121 198 -372 198q-201 0 -343.5 -148t-142.5 -365
q0 -190 117.5 -307t290.5 -117q200 0 345 161zM1031 1553h-261l238 324h326z" />
    <glyph glyph-name="cacute" unicode="&#x107;" horiz-adv-x="1047" 
d="M1056 785l-225 -127q-79 111 -211 111q-120 0 -200.5 -89t-80.5 -215q0 -105 62.5 -172.5t157.5 -67.5q125 0 215 97l175 -165q-76 -87 -179.5 -134t-220.5 -47q-216 0 -350 133t-134 337q0 154 71.5 284.5t202.5 208.5t294 78q296 0 423 -232zM735 1134h-261l238 323
h326z" />
    <glyph glyph-name="Ccircumflex" unicode="&#x108;" horiz-adv-x="1485" 
d="M1186 410l200 -181q-225 -255 -558 -255q-200 0 -358 85.5t-247 240t-89 351.5q0 171 61.5 321.5t167.5 257t254.5 168t317.5 61.5q56 0 109 -6t123.5 -26t131 -52.5t123 -91.5t107.5 -137l-238 -158q-121 198 -372 198q-201 0 -343.5 -148t-142.5 -365
q0 -190 117.5 -307t290.5 -117q200 0 345 161zM1325 1544h-252l-89 159l-151 -159h-271l284 323h322z" />
    <glyph glyph-name="ccircumflex" unicode="&#x109;" horiz-adv-x="1047" 
d="M1056 785l-225 -127q-79 111 -211 111q-120 0 -200.5 -89t-80.5 -215q0 -105 62.5 -172.5t157.5 -67.5q125 0 215 97l175 -165q-76 -87 -179.5 -134t-220.5 -47q-216 0 -350 133t-134 337q0 154 71.5 284.5t202.5 208.5t294 78q296 0 423 -232zM1027 1124h-252l-89 159
l-151 -159h-271l284 323h322z" />
    <glyph glyph-name="Cdotaccent" unicode="&#x10a;" horiz-adv-x="1485" 
d="M1186 410l200 -181q-225 -255 -558 -255q-200 0 -358 85.5t-247 240t-89 351.5q0 171 61.5 321.5t167.5 257t254.5 168t317.5 61.5q56 0 109 -6t123.5 -26t131 -52.5t123 -91.5t107.5 -137l-238 -158q-121 198 -372 198q-201 0 -343.5 -148t-142.5 -365
q0 -190 117.5 -307t290.5 -117q200 0 345 161zM977 1893q76 0 127.5 -52.5t51.5 -128.5q0 -75 -51.5 -126.5t-127.5 -51.5t-127 51.5t-51 126.5q0 76 51.5 128.5t126.5 52.5z" />
    <glyph glyph-name="cdotaccent" unicode="&#x10b;" horiz-adv-x="1047" 
d="M1056 785l-225 -127q-79 111 -211 111q-120 0 -200.5 -89t-80.5 -215q0 -105 62.5 -172.5t157.5 -67.5q125 0 215 97l175 -165q-76 -87 -179.5 -134t-220.5 -47q-216 0 -350 133t-134 337q0 154 71.5 284.5t202.5 208.5t294 78q296 0 423 -232zM695 1489q72 0 121.5 -50
t49.5 -122t-49.5 -121t-121.5 -49t-121 49t-49 121t49 122t121 50z" />
    <glyph glyph-name="Ccaron" unicode="&#x10c;" horiz-adv-x="1485" 
d="M1186 410l200 -181q-225 -255 -558 -255q-200 0 -358 85.5t-247 240t-89 351.5q0 171 61.5 321.5t167.5 257t254.5 168t317.5 61.5q56 0 109 -6t123.5 -26t131 -52.5t123 -91.5t107.5 -137l-238 -158q-121 198 -372 198q-201 0 -343.5 -148t-142.5 -365
q0 -190 117.5 -307t290.5 -117q200 0 345 161zM635 1867h252l88 -159l152 159h271l-284 -323h-322z" />
    <glyph glyph-name="ccaron" unicode="&#x10d;" horiz-adv-x="1047" 
d="M1056 785l-225 -127q-79 111 -211 111q-120 0 -200.5 -89t-80.5 -215q0 -105 62.5 -172.5t157.5 -67.5q125 0 215 97l175 -165q-76 -87 -179.5 -134t-220.5 -47q-216 0 -350 133t-134 337q0 154 71.5 284.5t202.5 208.5t294 78q296 0 423 -232zM338 1447h252l88 -159
l152 159h271l-284 -323h-322z" />
    <glyph glyph-name="Dcaron" unicode="&#x10e;" horiz-adv-x="1555" 
d="M355 1434h507q303 0 482.5 -169t179.5 -436q0 -173 -60 -323.5t-170 -263t-278 -177.5t-373 -65h-593zM829 1166h-239l-192 -899h279q251 0 398 148.5t147 380.5q0 170 -99 270t-294 100zM579 1867h251l89 -159l152 159h270l-283 -323h-323z" />
    <glyph glyph-name="dcaron" unicode="&#x10f;" horiz-adv-x="1375" 
d="M614 1019q205 0 299 -127l125 583h269l-314 -1475h-263l18 81q-115 -108 -269 -108q-179 0 -299 131.5t-120 325.5q0 85 24 169.5t72 160t113.5 133.5t155 92t189.5 34zM561 223q110 0 188.5 77t92.5 194q15 122 -49 199t-172 77q-120 0 -202 -91.5t-82 -220.5
q0 -106 62.5 -170.5t161.5 -64.5zM1536 1036h-211l93 439h280z" />
    <glyph glyph-name="Dcroat" unicode="&#x110;" horiz-adv-x="1674" 
d="M981 1434q303 0 482 -169t179 -436q0 -173 -59.5 -323.5t-169.5 -263t-278 -177.5t-373 -65h-593l126 595h-180l54 256h181l124 583h507zM972 851l-56 -256h-329l-70 -328h279q251 0 397.5 148.5t146.5 380.5q0 170 -98.5 270t-293.5 100h-239l-67 -315h330z" />
    <glyph glyph-name="dcroat" unicode="&#x111;" horiz-adv-x="1238" 
d="M1415 1336l-45 -220h-140l-237 -1116h-263l18 81q-115 -108 -269 -108q-179 0 -299 131.5t-120 325.5q0 85 24 169.5t72 160t113.5 133.5t155 92t189.5 34q205 0 299 -127l49 224h-337l44 220h340l29 139h269l-30 -139h138zM561 223q110 0 188.5 77t92.5 194
q15 122 -49 199t-172 77q-120 0 -202 -91.5t-82 -220.5q0 -106 62.5 -170.5t161.5 -64.5z" />
    <glyph glyph-name="Emacron" unicode="&#x112;" horiz-adv-x="1325" 
d="M1246 854l-56 -262h-722l-71 -330h762l-56 -262h-1053l305 1434h1043l-57 -263h-750l-68 -317h723zM554 1598l46 214h677l-46 -214h-677z" />
    <glyph glyph-name="emacron" unicode="&#x113;" horiz-adv-x="1097" 
d="M795 288l137 -174q-160 -141 -406 -141q-219 0 -344.5 121.5t-125.5 314.5q0 78 20 160t65 163t109 144.5t162 103t215 39.5q189 0 306 -110.5t117 -294.5q0 -51 -11 -109t-28 -97h-689q3 -99 62.5 -153t164.5 -54q136 0 246 87zM611 788q-99 0 -163 -55.5t-96 -142.5
h440q1 6 1 18q0 87 -49 133.5t-133 46.5zM338 1179l46 214h677l-46 -214h-677z" />
    <glyph glyph-name="Ebreve" unicode="&#x114;" horiz-adv-x="1325" 
d="M1246 854l-56 -262h-722l-71 -330h762l-56 -262h-1053l305 1434h1043l-57 -263h-750l-68 -317h723zM551 1852l205 60q16 -168 152 -168q128 0 211 168l202 -60q-76 -161 -182.5 -241.5t-254.5 -80.5q-146 0 -235.5 84t-97.5 238z" />
    <glyph glyph-name="ebreve" unicode="&#x115;" horiz-adv-x="1097" 
d="M795 288l137 -174q-160 -141 -406 -141q-219 0 -344.5 121.5t-125.5 314.5q0 78 20 160t65 163t109 144.5t162 103t215 39.5q189 0 306 -110.5t117 -294.5q0 -51 -11 -109t-28 -97h-689q3 -99 62.5 -153t164.5 -54q136 0 246 87zM611 788q-99 0 -163 -55.5t-96 -142.5
h440q1 6 1 18q0 87 -49 133.5t-133 46.5zM327 1433l204 59q16 -168 153 -168q128 0 211 168l202 -59q-76 -161 -183 -242t-255 -81q-146 0 -235 84.5t-97 238.5z" />
    <glyph glyph-name="Edotaccent" unicode="&#x116;" horiz-adv-x="1325" 
d="M1246 854l-56 -262h-722l-71 -330h762l-56 -262h-1053l305 1434h1043l-57 -263h-750l-68 -317h723zM902 1893q76 0 127.5 -52.5t51.5 -128.5q0 -75 -51.5 -126.5t-127.5 -51.5t-127 51.5t-51 126.5q0 76 51.5 128.5t126.5 52.5z" />
    <glyph glyph-name="edotaccent" unicode="&#x117;" horiz-adv-x="1097" 
d="M795 288l137 -174q-160 -141 -406 -141q-219 0 -344.5 121.5t-125.5 314.5q0 78 20 160t65 163t109 144.5t162 103t215 39.5q189 0 306 -110.5t117 -294.5q0 -51 -11 -109t-28 -97h-689q3 -99 62.5 -153t164.5 -54q136 0 246 87zM611 788q-99 0 -163 -55.5t-96 -142.5
h440q1 6 1 18q0 87 -49 133.5t-133 46.5zM705 1489q72 0 121.5 -50t49.5 -122t-49.5 -121t-121.5 -49t-121 49t-49 121t49 122t121 50z" />
    <glyph glyph-name="Eogonek" unicode="&#x118;" horiz-adv-x="1325" 
d="M1246 854l-56 -262h-722l-71 -330h762l-56 -262h-149q-168 -69 -168 -159q0 -27 21 -42.5t58 -15.5q56 0 114 39l112 -162q-119 -88 -265 -88q-133 0 -214.5 59.5t-81.5 154.5q0 133 146 214h-626l305 1434h1043l-57 -263h-750l-68 -317h723z" />
    <glyph glyph-name="eogonek" unicode="&#x119;" horiz-adv-x="1097" 
d="M766 -179l120 -158q-111 -92 -255 -92q-138 0 -224 64.5t-86 165.5q0 110 99 181q-172 29 -268 144.5t-96 282.5q0 78 20 160t65 163t109 144.5t162 103t215 39.5q189 0 306 -110.5t117 -294.5q0 -51 -11 -109t-28 -97h-689q3 -99 62.5 -153t164.5 -54q136 0 246 87
l137 -174q-81 -73 -196 -113q-166 -58 -166 -153q0 -30 22.5 -48t62.5 -18q55 0 111 39zM611 788q-99 0 -163 -55.5t-96 -142.5h440q1 6 1 18q0 87 -49 133.5t-133 46.5z" />
    <glyph glyph-name="Ecaron" unicode="&#x11a;" horiz-adv-x="1325" 
d="M1246 854l-56 -262h-722l-71 -330h762l-56 -262h-1053l305 1434h1043l-57 -263h-750l-68 -317h723zM560 1867h252l88 -159l153 159h270l-284 -323h-322z" />
    <glyph glyph-name="ecaron" unicode="&#x11b;" horiz-adv-x="1097" 
d="M795 288l137 -174q-160 -141 -406 -141q-219 0 -344.5 121.5t-125.5 314.5q0 78 20 160t65 163t109 144.5t162 103t215 39.5q189 0 306 -110.5t117 -294.5q0 -51 -11 -109t-28 -97h-689q3 -99 62.5 -153t164.5 -54q136 0 246 87zM611 788q-99 0 -163 -55.5t-96 -142.5
h440q1 6 1 18q0 87 -49 133.5t-133 46.5zM347 1447h252l88 -159l153 159h270l-284 -323h-322z" />
    <glyph glyph-name="Gcircumflex" unicode="&#x11c;" horiz-adv-x="1616" 
d="M1466 1227l-219 -188q-121 150 -332 150q-134 0 -244.5 -67t-176 -188.5t-65.5 -273.5q0 -193 114.5 -306t301.5 -113q162 0 267.5 79.5t147.5 230.5h-371l52 239h636q2 -37 -5 -104q-27 -216 -129.5 -378.5t-262.5 -248.5t-355 -86q-197 0 -355 83.5t-248 236.5t-90 348
q0 174 62.5 326.5t170 260t256.5 169.5t318 62q61 0 121.5 -9t135 -32t145.5 -72t125 -119zM1320 1544h-252l-89 159l-152 -159h-270l284 323h322z" />
    <glyph glyph-name="gcircumflex" unicode="&#x11d;" horiz-adv-x="1222" 
d="M1196 992l-201 -937q-49 -230 -192 -354t-356 -124q-262 0 -466 142l124 211q153 -117 333 -117q118 0 195.5 67t100.5 178l4 21q-98 -71 -238 -71q-189 0 -313 123t-124 311q0 109 38 212t106.5 184.5t173.5 131t229 49.5q205 0 298 -125l22 98h266zM557 254
q122 0 201 83t79 211q0 98 -62.5 161t-159.5 63q-122 0 -200 -83.5t-78 -213.5q0 -96 62 -158.5t158 -62.5zM1063 1124h-252l-89 159l-152 -159h-270l284 323h322z" />
    <glyph glyph-name="Gbreve" unicode="&#x11e;" horiz-adv-x="1616" 
d="M1466 1227l-219 -188q-121 150 -332 150q-134 0 -244.5 -67t-176 -188.5t-65.5 -273.5q0 -193 114.5 -306t301.5 -113q162 0 267.5 79.5t147.5 230.5h-371l52 239h636q2 -37 -5 -104q-27 -216 -129.5 -378.5t-262.5 -248.5t-355 -86q-197 0 -355 83.5t-248 236.5t-90 348
q0 174 62.5 326.5t170 260t256.5 169.5t318 62q61 0 121.5 -9t135 -32t145.5 -72t125 -119zM621 1852l204 60q16 -168 153 -168q128 0 211 168l202 -60q-76 -161 -183 -241.5t-255 -80.5q-146 0 -235 84t-97 238z" />
    <glyph glyph-name="gbreve" unicode="&#x11f;" horiz-adv-x="1222" 
d="M1196 992l-201 -937q-49 -230 -192 -354t-356 -124q-262 0 -466 142l124 211q153 -117 333 -117q118 0 195.5 67t100.5 178l4 21q-98 -71 -238 -71q-189 0 -313 123t-124 311q0 109 38 212t106.5 184.5t173.5 131t229 49.5q205 0 298 -125l22 98h266zM557 254
q122 0 201 83t79 211q0 98 -62.5 161t-159.5 63q-122 0 -200 -83.5t-78 -213.5q0 -96 62 -158.5t158 -62.5zM353 1433l205 59q16 -168 153 -168q128 0 211 168l201 -59q-76 -161 -182.5 -242t-254.5 -81q-146 0 -235.5 84.5t-97.5 238.5z" />
    <glyph glyph-name="Gdotaccent" unicode="&#x120;" horiz-adv-x="1616" 
d="M1466 1227l-219 -188q-121 150 -332 150q-134 0 -244.5 -67t-176 -188.5t-65.5 -273.5q0 -193 114.5 -306t301.5 -113q162 0 267.5 79.5t147.5 230.5h-371l52 239h636q2 -37 -5 -104q-27 -216 -129.5 -378.5t-262.5 -248.5t-355 -86q-197 0 -355 83.5t-248 236.5t-90 348
q0 174 62.5 326.5t170 260t256.5 169.5t318 62q61 0 121.5 -9t135 -32t145.5 -72t125 -119zM972 1893q76 0 127.5 -52.5t51.5 -128.5q0 -75 -51.5 -126.5t-127.5 -51.5t-127 51.5t-51 126.5q0 76 51.5 128.5t126.5 52.5z" />
    <glyph glyph-name="gdotaccent" unicode="&#x121;" horiz-adv-x="1222" 
d="M1196 992l-201 -937q-49 -230 -192 -354t-356 -124q-262 0 -466 142l124 211q153 -117 333 -117q118 0 195.5 67t100.5 178l4 21q-98 -71 -238 -71q-189 0 -313 123t-124 311q0 109 38 212t106.5 184.5t173.5 131t229 49.5q205 0 298 -125l22 98h266zM557 254
q122 0 201 83t79 211q0 98 -62.5 161t-159.5 63q-122 0 -200 -83.5t-78 -213.5q0 -96 62 -158.5t158 -62.5zM731 1489q72 0 121.5 -50t49.5 -122t-49.5 -121t-121.5 -49t-121 49t-49 121t49 122t121 50z" />
    <glyph glyph-name="Gcommaaccent" unicode="&#x122;" horiz-adv-x="1616" 
d="M1466 1227l-219 -188q-121 150 -332 150q-134 0 -244.5 -67t-176 -188.5t-65.5 -273.5q0 -193 114.5 -306t301.5 -113q162 0 267.5 79.5t147.5 230.5h-371l52 239h636q2 -37 -5 -104q-27 -216 -129.5 -378.5t-262.5 -248.5t-355 -86q-197 0 -355 83.5t-248 236.5t-90 348
q0 174 62.5 326.5t170 260t256.5 169.5t318 62q61 0 121.5 -9t135 -32t145.5 -72t125 -119zM640 -86h275l-170 -398h-234z" />
    <glyph glyph-name="gcommaaccent" unicode="&#x123;" horiz-adv-x="1222" 
d="M1196 992l-201 -937q-49 -230 -192 -354t-356 -124q-262 0 -466 142l124 211q153 -117 333 -117q118 0 195.5 67t100.5 178l4 21q-98 -71 -238 -71q-189 0 -313 123t-124 311q0 109 38 212t106.5 184.5t173.5 131t229 49.5q205 0 298 -125l22 98h266zM557 254
q122 0 201 83t79 211q0 98 -62.5 161t-159.5 63q-122 0 -200 -83.5t-78 -213.5q0 -96 62 -158.5t158 -62.5zM831 1135h-275l169 398h236z" />
    <glyph glyph-name="Hcircumflex" unicode="&#x124;" horiz-adv-x="1568" 
d="M647 1434l-123 -578h673l124 578h292l-306 -1434h-292l126 590h-674l-125 -590h-292l305 1434h292zM1365 1544h-252l-89 159l-152 -159h-270l284 323h322z" />
    <glyph glyph-name="hcircumflex" unicode="&#x125;" horiz-adv-x="1188" 
d="M760 1019q153 0 243.5 -92.5t90.5 -240.5q0 -52 -12 -107l-124 -579h-268l120 557q7 32 7 66q0 66 -37 105.5t-117 39.5q-91 0 -159.5 -57t-94.5 -179l-113 -532h-269l313 1475h268l-120 -567q107 111 272 111zM1181 1566h-252l-89 158l-152 -158h-270l283 322h323z" />
    <glyph glyph-name="Hbar" unicode="&#x126;" horiz-adv-x="1628" 
d="M1737 1239l-45 -223h-134l-218 -1016h-291l126 590h-674l-125 -590h-292l216 1016h-140l45 223h142l42 195h292l-42 -195h674l42 195h292l-42 -195h132zM558 856h673l34 160h-673z" />
    <glyph glyph-name="hbar" unicode="&#x127;" horiz-adv-x="1188" 
d="M934 1336l-45 -220h-357l-44 -208q107 111 272 111q153 0 243.5 -92.5t90.5 -240.5q0 -52 -12 -107l-124 -579h-268l120 557q7 32 7 66q0 66 -37 105.5t-117 39.5q-91 0 -159.5 -57t-94.5 -179l-113 -532h-269l236 1116h-120l44 220h123l30 139h268l-29 -139h355z" />
    <glyph glyph-name="Itilde" unicode="&#x128;" horiz-adv-x="603" 
d="M647 1434l-305 -1434h-292l305 1434h292zM244 1564l-132 161q117 129 275 129q66 0 118 -18t86.5 -35.5t58.5 -17.5q55 0 138 72l132 -161q-116 -130 -276 -130q-65 0 -116.5 18t-86 35.5t-59.5 17.5q-34 0 -65.5 -17.5t-72.5 -53.5z" />
    <glyph glyph-name="itilde" unicode="&#x129;" horiz-adv-x="533" 
d="M507 992l-211 -992h-269l211 992h269zM135 1144l-132 162q117 129 276 129q66 0 118 -18t86.5 -36t58.5 -18q33 0 64 17.5t74 55.5l131 -162q-116 -130 -275 -130q-65 0 -116.5 18t-86.5 35.5t-60 17.5q-34 0 -65.5 -17.5t-72.5 -53.5z" />
    <glyph glyph-name="Imacron" unicode="&#x12a;" horiz-adv-x="603" 
d="M647 1434l-305 -1434h-292l305 1434h292zM183 1598l46 214h677l-46 -214h-677z" />
    <glyph glyph-name="imacron" unicode="&#x12b;" horiz-adv-x="533" 
d="M507 992l-211 -992h-269l211 992h269zM74 1179l46 214h677l-46 -214h-677z" />
    <glyph glyph-name="Ibreve" unicode="&#x12c;" horiz-adv-x="603" 
d="M647 1434l-305 -1434h-292l305 1434h292zM180 1852l205 60q16 -168 153 -168q128 0 211 168l201 -60q-76 -161 -182.5 -241.5t-254.5 -80.5q-146 0 -235.5 84t-97.5 238z" />
    <glyph glyph-name="ibreve" unicode="&#x12d;" horiz-adv-x="533" 
d="M507 992l-211 -992h-269l211 992h269zM62 1433l205 59q16 -168 153 -168q128 0 211 168l202 -59q-76 -161 -183 -242t-255 -81q-146 0 -235.5 84.5t-97.5 238.5z" />
    <glyph glyph-name="Iogonek" unicode="&#x12e;" horiz-adv-x="603" 
d="M297 -188l111 -163q-93 -78 -220 -78q-119 0 -190.5 54t-71.5 145q0 129 163 230h-39l305 1434h292l-305 -1434h-27q-154 -82 -154 -170q0 -49 58 -49q36 0 78 31z" />
    <glyph glyph-name="iogonek" unicode="&#x12f;" horiz-adv-x="533" 
d="M507 992l-211 -992h-20q-154 -82 -154 -170q0 -49 58 -49q36 0 78 31l111 -163q-93 -78 -219 -78q-119 0 -191 54t-72 145q0 129 163 230h-23l211 992h269zM440 1489q72 0 121.5 -50t49.5 -122t-49.5 -121t-121.5 -49t-121 49t-49 121t49 122t121 50z" />
    <glyph glyph-name="Idotaccent" unicode="&#x130;" horiz-adv-x="603" 
d="M647 1434l-305 -1434h-292l305 1434h292zM531 1893q76 0 128 -52.5t52 -128.5q0 -75 -52 -126.5t-128 -51.5t-127 51.5t-51 126.5q0 76 51.5 128.5t126.5 52.5z" />
    <glyph glyph-name="dotlessi" unicode="&#x131;" horiz-adv-x="533" 
d="M507 992l-211 -992h-269l211 992h269z" />
    <glyph glyph-name="IJ" unicode="&#x132;" horiz-adv-x="1702" 
d="M647 1434l-305 -1434h-292l305 1434h292zM1752 1434l-197 -937q-109 -523 -557 -523q-136 0 -249 53.5t-181 149.5l182 202q41 -58 105.5 -94.5t144.5 -36.5q109 0 175.5 73.5t100.5 233.5l185 879h291z" />
    <glyph glyph-name="ij" unicode="&#x133;" horiz-adv-x="1074" 
d="M1048 992l-236 -1108q-34 -156 -127 -235.5t-228 -79.5q-105 0 -181 39l83 224q34 -14 71 -14q43 0 77 28.5t46 86.5l224 1059h271zM979 1489q72 0 121.5 -50t49.5 -122t-49.5 -121t-121.5 -49t-121 49t-49 121t49 122t121 50zM507 992l-211 -992h-269l211 992h269z
M440 1489q72 0 121.5 -50t49.5 -122t-49.5 -121t-121.5 -49t-121 49t-49 121t49 122t121 50z" />
    <glyph glyph-name="Jcircumflex" unicode="&#x134;" horiz-adv-x="1099" 
d="M1149 1434l-197 -937q-109 -523 -557 -523q-136 0 -249 53.5t-181 149.5l181 202q41 -58 106 -94.5t145 -36.5q109 0 175.5 73.5t100.5 233.5l185 879h291zM1382 1544h-252l-89 159l-151 -159h-270l283 323h323z" />
    <glyph glyph-name="jcircumflex" unicode="&#x135;" horiz-adv-x="540" 
d="M514 992l-235 -1108q-34 -156 -127.5 -235.5t-228.5 -79.5q-104 0 -180 39l83 224q34 -14 71 -14q43 0 76.5 28.5t45.5 86.5l225 1059h270zM777 1124h-252l-89 159l-151 -159h-271l284 323h323z" />
    <glyph glyph-name="Kcommaaccent" unicode="&#x136;" horiz-adv-x="1421" 
d="M647 1434l-124 -581h108l562 581h371l-725 -718l487 -716h-335l-395 590h-129l-125 -590h-292l305 1434h292zM507 -86h275l-170 -398h-234z" />
    <glyph glyph-name="kcommaaccent" unicode="&#x137;" horiz-adv-x="1095" 
d="M609 1475l-177 -836h80l329 353h337l-479 -488l295 -504h-296l-225 401h-92l-85 -401h-269l313 1475h269zM337 -86h275l-170 -398h-234z" />
    <glyph glyph-name="kgreenlandic" unicode="&#x138;" horiz-adv-x="1093" 
d="M697 504l296 -504h-297l-224 401h-91l-85 -401h-269l211 992h269l-75 -353h79l329 353h336z" />
    <glyph glyph-name="Lacute" unicode="&#x139;" horiz-adv-x="1212" 
d="M647 1434l-249 -1167h735l-58 -267h-1025l305 1434h292zM586 1553h-261l237 324h327z" />
    <glyph glyph-name="lacute" unicode="&#x13a;" horiz-adv-x="533" 
d="M609 1475l-313 -1475h-269l313 1475h269zM550 1553h-261l237 324h327z" />
    <glyph glyph-name="Lcommaaccent" unicode="&#x13b;" horiz-adv-x="1212" 
d="M647 1434l-249 -1167h735l-58 -267h-1025l305 1434h292zM443 -86h276l-170 -398h-235z" />
    <glyph glyph-name="lcommaaccent" unicode="&#x13c;" horiz-adv-x="533" 
d="M609 1475l-313 -1475h-269l313 1475h269zM7 -86h276l-170 -398h-235z" />
    <glyph glyph-name="Lcaron" unicode="&#x13d;" horiz-adv-x="1212" 
d="M647 1434l-249 -1167h735l-58 -267h-1025l305 1434h292zM944 995h-211l93 439h280z" />
    <glyph glyph-name="lcaron" unicode="&#x13e;" horiz-adv-x="677" 
d="M609 1475l-313 -1475h-269l313 1475h269zM839 1036h-211l93 439h279z" />
    <glyph glyph-name="Ldot" unicode="&#x13f;" horiz-adv-x="1212" 
d="M647 1434l-249 -1167h735l-58 -267h-1025l305 1434h292zM924 911q76 0 127.5 -52.5t51.5 -128.5q0 -75 -51.5 -126.5t-127.5 -51.5t-127.5 51.5t-51.5 126.5q0 76 51.5 128.5t127.5 52.5z" />
    <glyph glyph-name="ldot" unicode="&#x140;" horiz-adv-x="747" 
d="M609 1475l-313 -1475h-269l313 1475h269zM707 913q69 0 116.5 -48t47.5 -117q0 -70 -47 -117.5t-117 -47.5t-117 47.5t-47 117.5q0 69 47.5 117t116.5 48z" />
    <glyph glyph-name="Lslash" unicode="&#x141;" horiz-adv-x="1335" 
d="M770 1434l-113 -527l457 223l-63 -299l-457 -224l-73 -340h734l-57 -267h-1025l95 449l-207 -102l64 299l207 102l146 686h292z" />
    <glyph glyph-name="lslash" unicode="&#x142;" horiz-adv-x="717" 
d="M699 1475l-103 -486l210 108l-60 -280l-209 -108l-151 -709h-269l117 554l-205 -105l59 279l206 106l136 641h269z" />
    <glyph glyph-name="Nacute" unicode="&#x143;" horiz-adv-x="1582" 
d="M1626 1434l-305 -1434h-268l-502 987l-210 -987h-291l305 1434h270l500 -988l210 988h291zM1063 1553h-261l237 324h327z" />
    <glyph glyph-name="nacute" unicode="&#x144;" horiz-adv-x="1188" 
d="M760 1019q153 0 243.5 -92.5t90.5 -240.5q0 -52 -12 -107l-124 -579h-268l120 557q7 32 7 66q0 66 -37 105.5t-118 39.5q-91 0 -159.5 -57t-94.5 -179l-113 -532h-268l211 992h258l-23 -100q111 127 287 127zM796 1134h-261l237 323h327z" />
    <glyph glyph-name="Ncommaaccent" unicode="&#x145;" horiz-adv-x="1582" 
d="M1626 1434l-305 -1434h-268l-502 987l-210 -987h-291l305 1434h270l500 -988l210 988h291zM564 -86h276l-170 -398h-235z" />
    <glyph glyph-name="ncommaaccent" unicode="&#x146;" horiz-adv-x="1188" 
d="M760 1019q153 0 243.5 -92.5t90.5 -240.5q0 -52 -12 -107l-124 -579h-268l120 557q7 32 7 66q0 66 -37 105.5t-118 39.5q-91 0 -159.5 -57t-94.5 -179l-113 -532h-268l211 992h258l-23 -100q111 127 287 127zM339 -86h275l-170 -398h-234z" />
    <glyph glyph-name="Ncaron" unicode="&#x147;" horiz-adv-x="1582" 
d="M1626 1434l-305 -1434h-268l-502 987l-210 -987h-291l305 1434h270l500 -988l210 988h291zM667 1867h252l88 -159l152 159h271l-284 -323h-323z" />
    <glyph glyph-name="ncaron" unicode="&#x148;" horiz-adv-x="1188" 
d="M760 1019q153 0 243.5 -92.5t90.5 -240.5q0 -52 -12 -107l-124 -579h-268l120 557q7 32 7 66q0 66 -37 105.5t-118 39.5q-91 0 -159.5 -57t-94.5 -179l-113 -532h-268l211 992h258l-23 -100q111 127 287 127zM398 1447h252l88 -159l153 159h270l-283 -323h-323z" />
    <glyph glyph-name="napostrophe" unicode="&#x149;" horiz-adv-x="1503" 
d="M358 1475h299l-258 -611h-239zM1074 1019q153 0 243.5 -92.5t90.5 -240.5q0 -56 -11 -107l-124 -579h-268l119 557q8 37 8 66q0 66 -37.5 105.5t-118.5 39.5q-91 0 -159.5 -57t-94.5 -179l-113 -532h-268l211 992h258l-23 -100q111 127 287 127z" />
    <glyph glyph-name="Eng" unicode="&#x14a;" horiz-adv-x="1582" 
d="M1626 1434l-317 -1493q-37 -177 -148.5 -273t-290.5 -96q-93 0 -174 24.5t-131 67.5l141 230q67 -53 162 -53q132 0 167 160l5 24l-489 962l-210 -987h-291l305 1434h270l500 -988l210 988h291z" />
    <glyph glyph-name="eng" unicode="&#x14b;" horiz-adv-x="1189" 
d="M760 1019q153 0 243.5 -92.5t90.5 -240.5q0 -52 -12 -107l-137 -640q-32 -152 -124 -229t-216 -77q-101 0 -177 36l74 226q36 -13 73 -13q40 0 71.5 28t42.5 82l121 565q7 32 7 66q0 66 -37 105.5t-118 39.5q-91 0 -159.5 -57t-94.5 -179l-113 -532h-268l211 992h258
l-23 -100q111 127 287 127z" />
    <glyph glyph-name="Omacron" unicode="&#x14c;" horiz-adv-x="1671" 
d="M937 1459q199 0 357 -82.5t248.5 -235.5t90.5 -351q0 -165 -60 -314.5t-165 -260.5t-256 -176.5t-324 -65.5q-148 0 -276.5 48.5t-221 135t-145.5 212.5t-53 275q0 165 60 314t165 259.5t256 176t324 65.5zM919 1186q-141 0 -253.5 -72t-173.5 -191t-61 -259
q0 -188 116 -302t301 -114q140 0 252 72t173 191t61 259q0 188 -115.5 302t-299.5 114zM644 1598l46 214h677l-46 -214h-677z" />
    <glyph glyph-name="omacron" unicode="&#x14d;" horiz-adv-x="1199" 
d="M639 1019q216 0 356 -132.5t140 -342.5q0 -154 -74 -285t-206.5 -208.5t-294.5 -77.5q-215 0 -355 133t-140 344q0 154 73.5 284t206 207.5t294.5 77.5zM621 770q-120 0 -201.5 -88.5t-81.5 -215.5q0 -107 67 -175.5t172 -68.5q120 0 202 89t82 215q0 107 -67 175.5
t-173 68.5zM361 1178l47 214h676l-46 -214h-677z" />
    <glyph glyph-name="Obreve" unicode="&#x14e;" horiz-adv-x="1671" 
d="M937 1459q199 0 357 -82.5t248.5 -235.5t90.5 -351q0 -165 -60 -314.5t-165 -260.5t-256 -176.5t-324 -65.5q-148 0 -276.5 48.5t-221 135t-145.5 212.5t-53 275q0 165 60 314t165 259.5t256 176t324 65.5zM919 1186q-141 0 -253.5 -72t-173.5 -191t-61 -259
q0 -188 116 -302t301 -114q140 0 252 72t173 191t61 259q0 188 -115.5 302t-299.5 114zM641 1852l205 60q16 -168 152 -168q128 0 211 168l202 -60q-76 -161 -182.5 -241.5t-254.5 -80.5q-146 0 -235.5 84t-97.5 238z" />
    <glyph glyph-name="obreve" unicode="&#x14f;" horiz-adv-x="1199" 
d="M639 1019q216 0 356 -132.5t140 -342.5q0 -154 -74 -285t-206.5 -208.5t-294.5 -77.5q-215 0 -355 133t-140 344q0 154 73.5 284t206 207.5t294.5 77.5zM621 770q-120 0 -201.5 -88.5t-81.5 -215.5q0 -107 67 -175.5t172 -68.5q120 0 202 89t82 215q0 107 -67 175.5
t-173 68.5zM350 1432l205 59q16 -168 153 -168q128 0 211 168l201 -59q-76 -161 -182.5 -242t-254.5 -81q-146 0 -235.5 84.5t-97.5 238.5z" />
    <glyph glyph-name="Ohungarumlaut" unicode="&#x150;" horiz-adv-x="1671" 
d="M937 1459q199 0 357 -82.5t248.5 -235.5t90.5 -351q0 -165 -60 -314.5t-165 -260.5t-256 -176.5t-324 -65.5q-148 0 -276.5 48.5t-221 135t-145.5 212.5t-53 275q0 165 60 314t165 259.5t256 176t324 65.5zM919 1186q-141 0 -253.5 -72t-173.5 -191t-61 -259
q0 -188 116 -302t301 -114q140 0 252 72t173 191t61 259q0 188 -115.5 302t-299.5 114zM1292 1554h-267l259 323h295zM903 1554h-261l231 323h290z" />
    <glyph glyph-name="ohungarumlaut" unicode="&#x151;" horiz-adv-x="1199" 
d="M639 1019q216 0 356 -132.5t140 -342.5q0 -154 -74 -285t-206.5 -208.5t-294.5 -77.5q-215 0 -355 133t-140 344q0 154 73.5 284t206 207.5t294.5 77.5zM621 770q-120 0 -201.5 -88.5t-81.5 -215.5q0 -107 67 -175.5t172 -68.5q120 0 202 89t82 215q0 107 -67 175.5
t-173 68.5zM995 1134h-267l259 322h295zM606 1134h-261l232 322h289z" />
    <glyph glyph-name="OE" unicode="&#x152;" horiz-adv-x="2214" 
d="M2136 854l-56 -262h-722l-71 -330h762l-56 -262h-1208q-303 0 -481.5 168.5t-178.5 435.5q0 173 59.5 323.5t169.5 263.5t278 178t373 65h1283l-57 -263h-750l-68 -317h723zM427 638q0 -171 98 -271t293 -100h178l192 899h-217q-251 0 -397.5 -148t-146.5 -380z" />
    <glyph glyph-name="oe" unicode="&#x153;" horiz-adv-x="1887" 
d="M1584 288l137 -174q-160 -141 -405 -141q-122 0 -215 44.5t-150 124.5q-74 -80 -175 -124.5t-216 -44.5q-215 0 -355 133t-140 344q0 154 73.5 284t206 207.5t294.5 77.5q119 0 217 -48t160 -136q149 184 400 184q189 0 306 -110.5t117 -294.5q0 -51 -11 -109t-28 -97
h-689q3 -99 62.5 -153t164.5 -54q137 0 246 87zM621 770q-120 0 -201.5 -88.5t-81.5 -215.5q0 -107 67 -175.5t172 -68.5q120 0 202 89t82 215q0 107 -67 175.5t-173 68.5zM1401 788q-99 0 -163 -55.5t-96 -142.5h439q1 6 1 18q0 88 -48.5 134t-132.5 46z" />
    <glyph glyph-name="Racute" unicode="&#x154;" horiz-adv-x="1360" 
d="M355 1434h546q224 0 350 -109.5t126 -277.5q0 -65 -15.5 -126.5t-54.5 -123.5t-97.5 -109t-151.5 -79t-209 -38l394 -571h-334l-370 570h-76l-121 -570h-292zM866 1169h-275l-75 -350h302q75 0 129 17t82 47t40 63t12 71q0 71 -56 111.5t-159 40.5zM925 1553h-261
l237 324h327z" />
    <glyph glyph-name="racute" unicode="&#x155;" horiz-adv-x="836" 
d="M407 528l-112 -528h-268l211 992h258l-24 -104q109 131 283 131q70 0 147 -30l-86 -257q-62 32 -144 32q-97 0 -167.5 -59.5t-97.5 -176.5zM660 1134h-261l238 323h327z" />
    <glyph glyph-name="Rcommaaccent" unicode="&#x156;" horiz-adv-x="1360" 
d="M355 1434h546q224 0 350 -109.5t126 -277.5q0 -65 -15.5 -126.5t-54.5 -123.5t-97.5 -109t-151.5 -79t-209 -38l394 -571h-334l-370 570h-76l-121 -570h-292zM866 1169h-275l-75 -350h302q75 0 129 17t82 47t40 63t12 71q0 71 -56 111.5t-159 40.5zM482 -86h276
l-170 -398h-235z" />
    <glyph glyph-name="rcommaaccent" unicode="&#x157;" horiz-adv-x="836" 
d="M407 528l-112 -528h-268l211 992h258l-24 -104q109 131 283 131q70 0 147 -30l-86 -257q-62 32 -144 32q-97 0 -167.5 -59.5t-97.5 -176.5zM7 -86h276l-170 -398h-235z" />
    <glyph glyph-name="Rcaron" unicode="&#x158;" horiz-adv-x="1360" 
d="M355 1434h546q224 0 350 -109.5t126 -277.5q0 -65 -15.5 -126.5t-54.5 -123.5t-97.5 -109t-151.5 -79t-209 -38l394 -571h-334l-370 570h-76l-121 -570h-292zM866 1169h-275l-75 -350h302q75 0 129 17t82 47t40 63t12 71q0 71 -56 111.5t-159 40.5zM528 1867h252l88 -159
l153 159h270l-283 -323h-323z" />
    <glyph glyph-name="rcaron" unicode="&#x159;" horiz-adv-x="836" 
d="M407 528l-112 -528h-268l211 992h258l-24 -104q109 131 283 131q70 0 147 -30l-86 -257q-62 32 -144 32q-97 0 -167.5 -59.5t-97.5 -176.5zM263 1447h252l88 -159l153 159h270l-284 -323h-322z" />
    <glyph glyph-name="Sacute" unicode="&#x15a;" horiz-adv-x="1359" 
d="M1370 1291l-152 -229q-99 69 -214 100.5t-218 31.5q-132 0 -198 -51.5t-66 -126.5q0 -67 58.5 -104t165.5 -58l87 -16q195 -36 308.5 -129.5t113.5 -253.5q0 -218 -169.5 -350t-441.5 -132q-152 0 -323 49.5t-287 151.5l165 229q93 -85 223 -125t241 -40q125 0 205 46.5
t80 130.5q0 65 -60.5 102t-191.5 61l-91 17q-181 33 -286 130t-105 251q0 79 23.5 150.5t71.5 132t116 105.5t162.5 70t206.5 25q329 0 576 -168zM923 1553h-261l237 324h327z" />
    <glyph glyph-name="sacute" unicode="&#x15b;" horiz-adv-x="990" 
d="M985 908l-122 -199q-66 40 -155.5 63.5t-155.5 23.5q-149 0 -159 -81q-5 -48 27 -66.5t112 -33.5l67 -12q323 -59 294 -307q-18 -151 -137 -236.5t-318 -85.5q-122 0 -244.5 35.5t-207.5 99.5l128 195q157 -107 328 -107q170 0 180 92q4 37 -29 59t-109 35l-68 11
q-166 27 -239 108.5t-58 205.5q19 150 132.5 230t300.5 80q244 0 433 -110zM689 1134h-261l238 323h326z" />
    <glyph glyph-name="Scircumflex" unicode="&#x15c;" horiz-adv-x="1359" 
d="M1370 1291l-152 -229q-99 69 -214 100.5t-218 31.5q-132 0 -198 -51.5t-66 -126.5q0 -67 58.5 -104t165.5 -58l87 -16q195 -36 308.5 -129.5t113.5 -253.5q0 -218 -169.5 -350t-441.5 -132q-152 0 -323 49.5t-287 151.5l165 229q93 -85 223 -125t241 -40q125 0 205 46.5
t80 130.5q0 65 -60.5 102t-191.5 61l-91 17q-181 33 -286 130t-105 251q0 79 23.5 150.5t71.5 132t116 105.5t162.5 70t206.5 25q329 0 576 -168zM1217 1544h-252l-89 159l-152 -159h-270l283 323h323z" />
    <glyph glyph-name="scircumflex" unicode="&#x15d;" horiz-adv-x="990" 
d="M985 908l-122 -199q-66 40 -155.5 63.5t-155.5 23.5q-149 0 -159 -81q-5 -48 27 -66.5t112 -33.5l67 -12q323 -59 294 -307q-18 -151 -137 -236.5t-318 -85.5q-122 0 -244.5 35.5t-207.5 99.5l128 195q157 -107 328 -107q170 0 180 92q4 37 -29 59t-109 35l-68 11
q-166 27 -239 108.5t-58 205.5q19 150 132.5 230t300.5 80q244 0 433 -110zM981 1124h-252l-89 159l-152 -159h-270l284 323h322z" />
    <glyph glyph-name="Scedilla" unicode="&#x15e;" horiz-adv-x="1359" 
d="M1370 1291l-152 -229q-99 69 -214 100.5t-218 31.5q-132 0 -198 -51.5t-66 -126.5q0 -67 58.5 -104t165.5 -58l87 -16q195 -36 308.5 -129.5t113.5 -253.5q0 -186 -125.5 -311.5t-337.5 -158.5l-154 -314h-289l170 311q-135 15 -264 62.5t-221 129.5l165 229
q93 -85 223 -125t241 -40q125 0 205 46.5t80 130.5q0 65 -60.5 102t-191.5 61l-91 17q-181 33 -286 130t-105 251q0 79 23.5 150.5t71.5 132t116 105.5t162.5 70t206.5 25q329 0 576 -168z" />
    <glyph glyph-name="scedilla" unicode="&#x15f;" horiz-adv-x="990" 
d="M985 908l-122 -199q-66 40 -155.5 63.5t-155.5 23.5q-149 0 -159 -81q-5 -48 27 -66.5t112 -33.5l67 -12q323 -59 294 -307q-15 -126 -101 -206.5t-232 -104.5l-154 -314h-272l173 314q-195 29 -321 124l128 195q157 -107 328 -107q170 0 180 92q4 37 -29 59t-109 35
l-68 11q-166 27 -239 108.5t-58 205.5q19 150 132.5 230t300.5 80q244 0 433 -110z" />
    <glyph glyph-name="Scaron" unicode="&#x160;" horiz-adv-x="1359" 
d="M1370 1291l-152 -229q-99 69 -214 100.5t-218 31.5q-132 0 -198 -51.5t-66 -126.5q0 -67 58.5 -104t165.5 -58l87 -16q195 -36 308.5 -129.5t113.5 -253.5q0 -218 -169.5 -350t-441.5 -132q-152 0 -323 49.5t-287 151.5l165 229q93 -85 223 -125t241 -40q125 0 205 46.5
t80 130.5q0 65 -60.5 102t-191.5 61l-91 17q-181 33 -286 130t-105 251q0 79 23.5 150.5t71.5 132t116 105.5t162.5 70t206.5 25q329 0 576 -168zM526 1867h252l88 -159l153 159h270l-283 -323h-323z" />
    <glyph glyph-name="scaron" unicode="&#x161;" horiz-adv-x="990" 
d="M985 908l-122 -199q-66 40 -155.5 63.5t-155.5 23.5q-149 0 -159 -81q-5 -48 27 -66.5t112 -33.5l67 -12q323 -59 294 -307q-18 -151 -137 -236.5t-318 -85.5q-122 0 -244.5 35.5t-207.5 99.5l128 195q157 -107 328 -107q170 0 180 92q4 37 -29 59t-109 35l-68 11
q-166 27 -239 108.5t-58 205.5q19 150 132.5 230t300.5 80q244 0 433 -110zM292 1447h252l88 -159l152 159h271l-284 -323h-322z" />
    <glyph glyph-name="Tcommaaccent" unicode="&#x162;" horiz-adv-x="1221" 
d="M1390 1434l-58 -268h-429l-248 -1166h-14l-161 -329h-289l181 329h-8l247 1166h-437l57 268h1159z" />
    <glyph glyph-name="tcommaaccent" unicode="&#x163;" horiz-adv-x="945" 
d="M948 992l-51 -237h-347l-77 -360q-19 -87 12.5 -129.5t100.5 -42.5q80 0 173 57l94 -211q-122 -78 -257 -92l-151 -306h-271l184 334q-107 43 -146.5 143.5t-8.5 244.5l77 362h-186l51 237h186l63 295h270l-64 -295h348z" />
    <glyph glyph-name="Tcaron" unicode="&#x164;" horiz-adv-x="1221" 
d="M1390 1434l-58 -268h-429l-248 -1166h-291l247 1166h-437l57 268h1159zM509 1867h252l88 -159l152 159h271l-284 -323h-322z" />
    <glyph glyph-name="tcaron" unicode="&#x165;" horiz-adv-x="945" 
d="M948 992l-51 -237h-347l-77 -360q-19 -87 12.5 -129.5t100.5 -42.5q80 0 173 57l94 -211q-148 -95 -316 -95q-203 0 -289 112t-45 307l77 362h-186l51 237h186l63 295h270l-64 -295h348zM902 1072h-211l93 438h280z" />
    <glyph glyph-name="Tbar" unicode="&#x166;" horiz-adv-x="1221" 
d="M1100 851l-56 -256h-263l-126 -595h-291l125 595h-246l54 256h247l67 315h-437l57 268h1159l-58 -268h-429l-67 -315h264z" />
    <glyph glyph-name="tbar" unicode="&#x167;" horiz-adv-x="945" 
d="M948 992l-51 -237h-347l-28 -129h274l-44 -208h-275l-4 -23q-19 -87 12.5 -129.5t100.5 -42.5q80 0 173 57l94 -211q-148 -95 -316 -95q-203 0 -289 112t-45 307l5 25h-138l44 208h138l28 129h-186l51 237h186l63 295h270l-64 -295h348z" />
    <glyph glyph-name="Utilde" unicode="&#x168;" horiz-adv-x="1489" 
d="M1549 1434l-186 -882q-122 -578 -676 -578q-160 0 -281.5 50.5t-192.5 156t-71 254.5q0 65 18 155l180 844h293l-181 -847q-13 -63 -13 -105q0 -119 71 -176.5t199 -57.5q140 0 236 81t132 252l180 853h292zM688 1564l-132 161q117 129 275 129q66 0 118 -18t87 -35.5
t59 -17.5q55 0 138 72l131 -161q-116 -130 -275 -130q-65 0 -116.5 18t-86.5 35.5t-60 17.5q-34 0 -65.5 -17.5t-72.5 -53.5z" />
    <glyph glyph-name="utilde" unicode="&#x169;" horiz-adv-x="1179" 
d="M1161 992l-124 -581q-25 -118 -76.5 -204.5t-122.5 -136t-152.5 -73t-176.5 -23.5q-183 0 -295.5 95t-112.5 266q0 49 15 121l113 536h270l-119 -557q-7 -35 -7 -65q0 -74 43.5 -110.5t117.5 -36.5q91 0 155.5 59.5t88.5 175.5l113 534h270zM458 1144l-132 162
q117 129 275 129q66 0 118 -18t86.5 -36t58.5 -18q33 0 64 17.5t74 55.5l132 -162q-116 -130 -276 -130q-65 0 -116.5 18t-86 35.5t-59.5 17.5q-34 0 -65.5 -17.5t-72.5 -53.5z" />
    <glyph glyph-name="Umacron" unicode="&#x16a;" horiz-adv-x="1489" 
d="M1549 1434l-186 -882q-122 -578 -676 -578q-160 0 -281.5 50.5t-192.5 156t-71 254.5q0 65 18 155l180 844h293l-181 -847q-13 -63 -13 -105q0 -119 71 -176.5t199 -57.5q140 0 236 81t132 252l180 853h292zM628 1598l46 214h677l-46 -214h-677z" />
    <glyph glyph-name="umacron" unicode="&#x16b;" horiz-adv-x="1179" 
d="M1161 992l-124 -581q-25 -118 -76.5 -204.5t-122.5 -136t-152.5 -73t-176.5 -23.5q-183 0 -295.5 95t-112.5 266q0 49 15 121l113 536h270l-119 -557q-7 -35 -7 -65q0 -74 43.5 -110.5t117.5 -36.5q91 0 155.5 59.5t88.5 175.5l113 534h270zM396 1179l46 214h677
l-46 -214h-677z" />
    <glyph glyph-name="Ubreve" unicode="&#x16c;" horiz-adv-x="1489" 
d="M1549 1434l-186 -882q-122 -578 -676 -578q-160 0 -281.5 50.5t-192.5 156t-71 254.5q0 65 18 155l180 844h293l-181 -847q-13 -63 -13 -105q0 -119 71 -176.5t199 -57.5q140 0 236 81t132 252l180 853h292zM625 1852l204 60q16 -168 153 -168q128 0 211 168l202 -60
q-76 -161 -183 -241.5t-255 -80.5q-146 0 -235 84t-97 238z" />
    <glyph glyph-name="ubreve" unicode="&#x16d;" horiz-adv-x="1179" 
d="M1161 992l-124 -581q-25 -118 -76.5 -204.5t-122.5 -136t-152.5 -73t-176.5 -23.5q-183 0 -295.5 95t-112.5 266q0 49 15 121l113 536h270l-119 -557q-7 -35 -7 -65q0 -74 43.5 -110.5t117.5 -36.5q91 0 155.5 59.5t88.5 175.5l113 534h270zM385 1433l205 59
q16 -168 152 -168q128 0 211 168l202 -59q-76 -161 -182.5 -242t-254.5 -81q-146 0 -235.5 84.5t-97.5 238.5z" />
    <glyph glyph-name="Uring" unicode="&#x16e;" horiz-adv-x="1489" 
d="M1549 1434l-186 -882q-122 -578 -676 -578q-160 0 -281.5 50.5t-192.5 156t-71 254.5q0 65 18 155l180 844h293l-181 -847q-13 -63 -13 -105q0 -119 71 -176.5t199 -57.5q140 0 236 81t132 252l180 853h292zM974 1522q-110 0 -188.5 77.5t-78.5 186.5q0 108 78.5 185.5
t188.5 77.5q111 0 190 -77.5t79 -185.5q0 -109 -79 -186.5t-190 -77.5zM974 1674q45 0 77 32.5t32 79.5q0 46 -32.5 78t-76.5 32q-43 0 -75.5 -32.5t-32.5 -77.5q0 -47 32.5 -79.5t75.5 -32.5z" />
    <glyph glyph-name="uring" unicode="&#x16f;" horiz-adv-x="1179" 
d="M1161 992l-124 -581q-25 -118 -76.5 -204.5t-122.5 -136t-152.5 -73t-176.5 -23.5q-183 0 -295.5 95t-112.5 266q0 49 15 121l113 536h270l-119 -557q-7 -35 -7 -65q0 -74 43.5 -110.5t117.5 -36.5q91 0 155.5 59.5t88.5 175.5l113 534h270zM732 1102q-110 0 -188.5 77.5
t-78.5 186.5q0 108 78.5 185.5t188.5 77.5q111 0 190 -77.5t79 -185.5q0 -109 -79 -186.5t-190 -77.5zM732 1254q45 0 77.5 32.5t32.5 79.5q0 46 -33 78.5t-77 32.5q-43 0 -75 -33t-32 -78q0 -47 32 -79.5t75 -32.5z" />
    <glyph glyph-name="Uhungarumlaut" unicode="&#x170;" horiz-adv-x="1489" 
d="M1549 1434l-186 -882q-122 -578 -676 -578q-160 0 -281.5 50.5t-192.5 156t-71 254.5q0 65 18 155l180 844h293l-181 -847q-13 -63 -13 -105q0 -119 71 -176.5t199 -57.5q140 0 236 81t132 252l180 853h292zM1276 1554h-267l259 323h295zM887 1554h-261l231 323h290z" />
    <glyph glyph-name="uhungarumlaut" unicode="&#x171;" horiz-adv-x="1179" 
d="M1161 992l-124 -581q-25 -118 -76.5 -204.5t-122.5 -136t-152.5 -73t-176.5 -23.5q-183 0 -295.5 95t-112.5 266q0 49 15 121l113 536h270l-119 -557q-7 -35 -7 -65q0 -74 43.5 -110.5t117.5 -36.5q91 0 155.5 59.5t88.5 175.5l113 534h270zM1030 1135h-267l259 322h295z
M641 1135h-261l231 322h290z" />
    <glyph glyph-name="Uogonek" unicode="&#x172;" horiz-adv-x="1489" 
d="M1004 -179l120 -158q-112 -92 -259 -92q-137 0 -222 61.5t-85 158.5q0 113 94 184q-232 9 -371 127t-139 333q0 65 18 155l180 844h293l-181 -847q-13 -63 -13 -105q0 -119 71 -176.5t199 -57.5q140 0 236 81t132 252l180 853h292l-186 -882q-43 -208 -140.5 -337.5
t-250.5 -194.5q-91 -39 -127.5 -85.5t-36.5 -88.5q0 -30 22.5 -47t62.5 -17q56 0 111 39z" />
    <glyph glyph-name="uogonek" unicode="&#x173;" horiz-adv-x="1179" 
d="M785 -179l121 -158q-112 -92 -259 -92q-137 0 -222 61.5t-85 158.5q0 116 98 187q-154 18 -245.5 110.5t-91.5 246.5q0 49 15 121l113 536h270l-119 -557q-7 -35 -7 -65q0 -74 43.5 -110.5t117.5 -36.5q91 0 155.5 59.5t88.5 175.5l113 534h270l-124 -581
q-61 -292 -298 -398q-149 -66 -149 -167q0 -30 22.5 -47t62.5 -17q55 0 110 39z" />
    <glyph glyph-name="Wcircumflex" unicode="&#x174;" horiz-adv-x="2219" 
d="M2375 1434l-721 -1434h-338l-83 1027l-510 -1027h-352l-127 1434h288l81 -1104l542 1104h302l83 -1097l531 1097h304zM1684 1544h-251l-90 159l-151 -159h-270l283 323h323z" />
    <glyph glyph-name="wcircumflex" unicode="&#x175;" horiz-adv-x="1743" 
d="M1101 992l83 -690l353 690h290l-540 -992h-297l-78 672l-341 -672h-306l-136 992h268l77 -690l352 690h275zM1363 1124h-252l-89 159l-152 -159h-270l284 323h322z" />
    <glyph glyph-name="Ycircumflex" unicode="&#x176;" horiz-adv-x="1379" 
d="M1571 1434l-719 -869l-121 -565h-292l125 590l-356 844h305l236 -598l474 598h348zM1247 1544h-252l-89 159l-151 -159h-271l284 323h323z" />
    <glyph glyph-name="ycircumflex" unicode="&#x177;" horiz-adv-x="1146" 
d="M1245 992l-965 -1406h-306l462 654l-320 752h288l201 -505l336 505h304zM1062 1124h-252l-89 159l-152 -159h-270l284 323h322z" />
    <glyph glyph-name="Ydieresis" unicode="&#x178;" horiz-adv-x="1379" 
d="M1571 1434l-719 -869l-121 -565h-292l125 590l-356 844h305l236 -598l474 598h348zM684 1878q72 0 122 -50t50 -122t-50 -121t-122 -49t-121 49t-49 121t49 122t121 50zM1125 1878q72 0 122 -50t50 -122t-50 -121t-122 -49t-121 49t-49 121t49 122t121 50z" />
    <glyph glyph-name="Zacute" unicode="&#x179;" horiz-adv-x="1313" 
d="M1401 1434l-48 -231l-900 -940h734l-57 -263h-1116l52 237l898 933h-727l56 264h1108zM904 1553h-261l238 324h326z" />
    <glyph glyph-name="zacute" unicode="&#x17a;" horiz-adv-x="1031" 
d="M1031 992l-44 -204l-573 -549h483l-50 -239h-847l42 204l581 551h-476l52 237h832zM697 1134h-261l238 323h326z" />
    <glyph glyph-name="Zdotaccent" unicode="&#x17b;" horiz-adv-x="1313" 
d="M1401 1434l-48 -231l-900 -940h734l-57 -263h-1116l52 237l898 933h-727l56 264h1108zM850 1893q76 0 127.5 -52.5t51.5 -128.5q0 -75 -51.5 -126.5t-127.5 -51.5t-127 51.5t-51 126.5q0 76 51.5 128.5t126.5 52.5z" />
    <glyph glyph-name="zdotaccent" unicode="&#x17c;" horiz-adv-x="1031" 
d="M1031 992l-44 -204l-573 -549h483l-50 -239h-847l42 204l581 551h-476l52 237h832zM657 1489q72 0 121.5 -50t49.5 -122t-49.5 -121t-121.5 -49t-121 49t-49 121t49 122t121 50z" />
    <glyph glyph-name="Zcaron" unicode="&#x17d;" horiz-adv-x="1313" 
d="M1401 1434l-48 -231l-900 -940h734l-57 -263h-1116l52 237l898 933h-727l56 264h1108zM508 1867h252l88 -159l152 159h271l-284 -323h-322z" />
    <glyph glyph-name="zcaron" unicode="&#x17e;" horiz-adv-x="1031" 
d="M1031 992l-44 -204l-573 -549h483l-50 -239h-847l42 204l581 551h-476l52 237h832zM300 1447h252l88 -159l153 159h270l-284 -323h-322z" />
    <glyph glyph-name="longs" unicode="&#x17f;" horiz-adv-x="664" 
d="M945 1407l-134 -200q-70 45 -141 45q-113 0 -146 -150l-234 -1102h-270l243 1140q76 360 396 360q174 0 286 -93z" />
    <glyph glyph-name="uni018F" unicode="&#x18f;" horiz-adv-x="1597" 
d="M455 992l-174 209q256 258 590 258q199 0 355.5 -84t244.5 -236.5t88 -347.5q0 -165 -59.5 -315.5t-162 -261t-248 -176t-308.5 -65.5q-293 0 -472.5 179.5t-179.5 465.5q0 75 24 212h1103q-19 162 -127 260.5t-268 98.5q-224 0 -406 -197zM800 241q150 0 268 97t166 253
h-806q6 -156 107 -253t265 -97z" />
    <glyph glyph-name="florin" unicode="&#x192;" horiz-adv-x="1433" 
d="M1182 855l-47 -225h-262l-62 -285q-42 -192 -131 -281.5t-249 -89.5q-156 0 -266 78l127 202q64 -39 130 -39q57 0 86 34.5t45 109.5l59 271h-246l47 225h250l53 237q42 190 131 278.5t249 88.5q156 0 266 -78l-128 -201q-62 39 -130 39q-57 0 -85 -34.5t-46 -110.5
l-49 -219h258z" />
    <glyph glyph-name="uni01B5" unicode="&#x1b5;" horiz-adv-x="1313" 
d="M1401 1434l-48 -231l-353 -361h167l-53 -252h-340l-321 -327h734l-57 -263h-1116l52 237l354 361h-187l54 252h363l314 320h-727l56 264h1108z" />
    <glyph glyph-name="uni01B6" unicode="&#x1b6;" horiz-adv-x="1031" 
d="M1031 992l-44 -204l-217 -199h114l-38 -180h-248l-184 -170h483l-50 -239h-847l42 204l233 213h-120l38 180h259l171 158h-476l52 237h832z" />
    <glyph glyph-name="uni01CD" unicode="&#x1cd;" horiz-adv-x="1500" 
d="M1120 1434l247 -1434h-292l-52 334h-597l-193 -334h-311l851 1434h347zM896 1148l-318 -551h404zM636 1867h252l88 -159l152 159h271l-284 -323h-322z" />
    <glyph glyph-name="uni01CE" unicode="&#x1ce;" horiz-adv-x="1227" 
d="M614 1019q205 0 299 -127l23 100h265l-211 -992h-260l18 82q-111 -109 -269 -109q-180 0 -299.5 131.5t-119.5 325.5q0 85 24 169.5t72 160t113.5 133.5t155 92t189.5 34zM561 223q110 0 188.5 77t92.5 194q15 122 -49 199t-172 77q-120 0 -202 -91.5t-82 -220.5
q0 -106 62.5 -170.5t161.5 -64.5zM387 1447h252l88 -159l153 159h270l-284 -323h-322z" />
    <glyph glyph-name="uni01CF" unicode="&#x1cf;" horiz-adv-x="603" 
d="M647 1434l-305 -1434h-292l305 1434h292zM189 1867h252l88 -159l153 159h270l-283 -323h-323z" />
    <glyph glyph-name="uni01D0" unicode="&#x1d0;" horiz-adv-x="533" 
d="M507 992l-211 -992h-269l211 992h269zM83 1447h252l88 -159l152 159h271l-284 -323h-322z" />
    <glyph glyph-name="uni01D1" unicode="&#x1d1;" horiz-adv-x="1671" 
d="M937 1459q199 0 357 -82.5t248.5 -235.5t90.5 -351q0 -165 -60 -314.5t-165 -260.5t-256 -176.5t-324 -65.5q-148 0 -276.5 48.5t-221 135t-145.5 212.5t-53 275q0 165 60 314t165 259.5t256 176t324 65.5zM919 1186q-141 0 -253.5 -72t-173.5 -191t-61 -259
q0 -188 116 -302t301 -114q140 0 252 72t173 191t61 259q0 188 -115.5 302t-299.5 114zM650 1867h252l88 -159l153 159h270l-284 -323h-322z" />
    <glyph glyph-name="uni01D2" unicode="&#x1d2;" horiz-adv-x="1199" 
d="M639 1019q216 0 356 -132.5t140 -342.5q0 -154 -74 -285t-206.5 -208.5t-294.5 -77.5q-215 0 -355 133t-140 344q0 154 73.5 284t206 207.5t294.5 77.5zM621 770q-120 0 -201.5 -88.5t-81.5 -215.5q0 -107 67 -175.5t172 -68.5q120 0 202 89t82 215q0 107 -67 175.5
t-173 68.5zM371 1446h252l88 -159l152 159h271l-284 -323h-323z" />
    <glyph glyph-name="uni01D3" unicode="&#x1d3;" horiz-adv-x="1489" 
d="M1549 1434l-186 -882q-122 -578 -676 -578q-160 0 -281.5 50.5t-192.5 156t-71 254.5q0 65 18 155l180 844h293l-181 -847q-13 -63 -13 -105q0 -119 71 -176.5t199 -57.5q140 0 236 81t132 252l180 853h292zM634 1867h252l88 -159l152 159h271l-284 -323h-322z" />
    <glyph glyph-name="uni01D4" unicode="&#x1d4;" horiz-adv-x="1179" 
d="M1161 992l-124 -581q-25 -118 -76.5 -204.5t-122.5 -136t-152.5 -73t-176.5 -23.5q-183 0 -295.5 95t-112.5 266q0 49 15 121l113 536h270l-119 -557q-7 -35 -7 -65q0 -74 43.5 -110.5t117.5 -36.5q91 0 155.5 59.5t88.5 175.5l113 534h270zM406 1447h251l88 -159
l153 159h270l-283 -323h-323z" />
    <glyph glyph-name="uni01D5" unicode="&#x1d5;" horiz-adv-x="1489" 
d="M1549 1434l-186 -882q-122 -578 -676 -578q-160 0 -281.5 50.5t-192.5 156t-71 254.5q0 65 18 155l180 844h293l-181 -847q-13 -63 -13 -105q0 -119 71 -176.5t199 -57.5q140 0 236 81t132 252l180 853h292zM675 1959l46 214h677l-46 -214h-677zM761 1878q72 0 122 -50
t50 -122t-50 -121t-122 -49t-121 49t-49 121t49 122t121 50zM1202 1878q72 0 122 -50t50 -122t-50 -121t-122 -49t-121 49t-49 121t49 122t121 50z" />
    <glyph glyph-name="uni01D6" unicode="&#x1d6;" horiz-adv-x="1179" 
d="M1161 992l-124 -581q-25 -118 -76.5 -204.5t-122.5 -136t-152.5 -73t-176.5 -23.5q-183 0 -295.5 95t-112.5 266q0 49 15 121l113 536h270l-119 -557q-7 -35 -7 -65q0 -74 43.5 -110.5t117.5 -36.5q91 0 155.5 59.5t88.5 175.5l113 534h270zM530 1458q72 0 122 -50
t50 -122t-50 -121t-122 -49t-121 49t-49 121t49 122t121 50zM972 1458q72 0 122 -50t50 -122t-50 -121t-122 -49t-121 49t-49 121t49 122t121 50zM467 1550l46 214h677l-46 -214h-677z" />
    <glyph glyph-name="uni01D7" unicode="&#x1d7;" horiz-adv-x="1489" 
d="M1549 1434l-186 -882q-122 -578 -676 -578q-160 0 -281.5 50.5t-192.5 156t-71 254.5q0 65 18 155l180 844h293l-181 -847q-13 -63 -13 -105q0 -119 71 -176.5t199 -57.5q140 0 236 81t132 252l180 853h292zM1084 1957h-261l238 323h327zM761 1878q72 0 122 -50t50 -122
t-50 -121t-122 -49t-121 49t-49 121t49 122t121 50zM1202 1878q72 0 122 -50t50 -122t-50 -121t-122 -49t-121 49t-49 121t49 122t121 50z" />
    <glyph glyph-name="uni01D8" unicode="&#x1d8;" horiz-adv-x="1179" 
d="M1161 992l-124 -581q-25 -118 -76.5 -204.5t-122.5 -136t-152.5 -73t-176.5 -23.5q-183 0 -295.5 95t-112.5 266q0 49 15 121l113 536h270l-119 -557q-7 -35 -7 -65q0 -74 43.5 -110.5t117.5 -36.5q91 0 155.5 59.5t88.5 175.5l113 534h270zM530 1458q72 0 122 -50
t50 -122t-50 -121t-122 -49t-121 49t-49 121t49 122t121 50zM972 1458q72 0 122 -50t50 -122t-50 -121t-122 -49t-121 49t-49 121t49 122t121 50zM877 1548h-262l238 324h327z" />
    <glyph glyph-name="uni01D9" unicode="&#x1d9;" horiz-adv-x="1489" 
d="M1549 1434l-186 -882q-122 -578 -676 -578q-160 0 -281.5 50.5t-192.5 156t-71 254.5q0 65 18 155l180 844h293l-181 -847q-13 -63 -13 -105q0 -119 71 -176.5t199 -57.5q140 0 236 81t132 252l180 853h292zM688 2270h252l88 -159l153 159h270l-284 -322h-322zM761 1878
q72 0 122 -50t50 -122t-50 -121t-122 -49t-121 49t-49 121t49 122t121 50zM1202 1878q72 0 122 -50t50 -122t-50 -121t-122 -49t-121 49t-49 121t49 122t121 50z" />
    <glyph glyph-name="uni01DA" unicode="&#x1da;" horiz-adv-x="1179" 
d="M1161 992l-124 -581q-25 -118 -76.5 -204.5t-122.5 -136t-152.5 -73t-176.5 -23.5q-183 0 -295.5 95t-112.5 266q0 49 15 121l113 536h270l-119 -557q-7 -35 -7 -65q0 -74 43.5 -110.5t117.5 -36.5q91 0 155.5 59.5t88.5 175.5l113 534h270zM530 1458q72 0 122 -50
t50 -122t-50 -121t-122 -49t-121 49t-49 121t49 122t121 50zM972 1458q72 0 122 -50t50 -122t-50 -121t-122 -49t-121 49t-49 121t49 122t121 50zM480 1862h252l88 -159l153 159h270l-284 -323h-322z" />
    <glyph glyph-name="uni01DB" unicode="&#x1db;" horiz-adv-x="1489" 
d="M1549 1434l-186 -882q-122 -578 -676 -578q-160 0 -281.5 50.5t-192.5 156t-71 254.5q0 65 18 155l180 844h293l-181 -847q-13 -63 -13 -105q0 -119 71 -176.5t199 -57.5q140 0 236 81t132 252l180 853h292zM925 1958l-271 322h320l206 -322h-255zM761 1878q72 0 122 -50
t50 -122t-50 -121t-122 -49t-121 49t-49 121t49 122t121 50zM1202 1878q72 0 122 -50t50 -122t-50 -121t-122 -49t-121 49t-49 121t49 122t121 50z" />
    <glyph glyph-name="uni01DC" unicode="&#x1dc;" horiz-adv-x="1179" 
d="M1161 992l-124 -581q-25 -118 -76.5 -204.5t-122.5 -136t-152.5 -73t-176.5 -23.5q-183 0 -295.5 95t-112.5 266q0 49 15 121l113 536h270l-119 -557q-7 -35 -7 -65q0 -74 43.5 -110.5t117.5 -36.5q91 0 155.5 59.5t88.5 175.5l113 534h270zM530 1458q72 0 122 -50
t50 -122t-50 -121t-122 -49t-121 49t-49 121t49 122t121 50zM972 1458q72 0 122 -50t50 -122t-50 -121t-122 -49t-121 49t-49 121t49 122t121 50zM717 1549l-271 323h320l206 -323h-255z" />
    <glyph glyph-name="uni01E2" unicode="&#x1e2;" horiz-adv-x="2356" 
d="M2190 262l-56 -262h-1053l64 301h-586l-275 -301h-367l1338 1434h1174l-56 -263h-751l-68 -317h723l-56 -262h-722l-71 -330h762zM800 564h401l122 573zM1469 1598l47 214h676l-46 -214h-677z" />
    <glyph glyph-name="uni01E3" unicode="&#x1e3;" horiz-adv-x="1740" 
d="M1437 288l137 -174q-160 -141 -406 -141q-254 0 -380 165q-172 -164 -401 -164q-162 0 -256 75.5t-94 203.5q0 156 116 247.5t313 91.5h263q3 20 3 40q0 151 -202 151q-121 0 -258 -74l-81 210q172 100 388 100q236 0 331 -146q135 146 359 146q189 0 306.5 -110.5
t117.5 -294.5q0 -117 -40 -206h-689q3 -99 62.5 -153t164.5 -54q137 0 246 87zM445 189q66 0 138 31t130 91q-10 52 -10 98v3h-210q-83 0 -130.5 -33t-47.5 -90q0 -46 34 -73t96 -27zM1253 788q-100 0 -164 -57t-96 -145h441q1 7 1 22q0 87 -49 133.5t-133 46.5zM616 1179
l47 214h676l-46 -214h-677z" />
    <glyph glyph-name="Gcaron" unicode="&#x1e6;" horiz-adv-x="1616" 
d="M1466 1227l-219 -188q-121 150 -332 150q-134 0 -244.5 -67t-176 -188.5t-65.5 -273.5q0 -193 114.5 -306t301.5 -113q162 0 267.5 79.5t147.5 230.5h-371l52 239h636q2 -37 -5 -104q-27 -216 -129.5 -378.5t-262.5 -248.5t-355 -86q-197 0 -355 83.5t-248 236.5t-90 348
q0 174 62.5 326.5t170 260t256.5 169.5t318 62q61 0 121.5 -9t135 -32t145.5 -72t125 -119zM630 1867h252l88 -159l152 159h271l-284 -323h-323z" />
    <glyph glyph-name="gcaron" unicode="&#x1e7;" horiz-adv-x="1222" 
d="M1196 992l-201 -937q-49 -230 -192 -354t-356 -124q-262 0 -466 142l124 211q153 -117 333 -117q118 0 195.5 67t100.5 178l4 21q-98 -71 -238 -71q-189 0 -313 123t-124 311q0 109 38 212t106.5 184.5t173.5 131t229 49.5q205 0 298 -125l22 98h266zM557 254
q122 0 201 83t79 211q0 98 -62.5 161t-159.5 63q-122 0 -200 -83.5t-78 -213.5q0 -96 62 -158.5t158 -62.5zM374 1447h252l88 -159l152 159h271l-284 -323h-323z" />
    <glyph glyph-name="Aringacute" unicode="&#x1fa;" horiz-adv-x="1500" 
d="M233 0h-311l823 1388q-58 71 -58 165q0 108 79 186t188 78q111 0 190.5 -78t79.5 -186q0 -118 -90 -197l233 -1356h-292l-52 334h-597zM896 1148l-318 -551h404zM1010 1885h-261l237 324h327zM954 1442q45 0 77.5 32t32.5 79q0 45 -33 78t-77 33q-43 0 -75 -33t-32 -78
q0 -47 32 -79t75 -32z" />
    <glyph glyph-name="aringacute" unicode="&#x1fb;" horiz-adv-x="1227" 
d="M614 1019q205 0 299 -127l23 100h265l-211 -992h-260l18 82q-111 -109 -269 -109q-180 0 -299.5 131.5t-119.5 325.5q0 85 24 169.5t72 160t113.5 133.5t155 92t189.5 34zM561 223q110 0 188.5 77t92.5 194q15 122 -49 199t-172 77q-120 0 -202 -91.5t-82 -220.5
q0 -106 62.5 -170.5t161.5 -64.5zM743 1068q-110 0 -188.5 77.5t-78.5 186.5q0 108 78.5 185.5t188.5 77.5q111 0 190.5 -77.5t79.5 -185.5q0 -109 -79.5 -186.5t-190.5 -77.5zM743 1221q45 0 77.5 32t32.5 79q0 46 -32.5 78.5t-77.5 32.5q-43 0 -75 -33t-32 -78
q0 -47 32 -79t75 -32zM799 1642h-261l237 324h327z" />
    <glyph glyph-name="AEacute" unicode="&#x1fc;" horiz-adv-x="2356" 
d="M2190 262l-56 -262h-1053l64 301h-586l-275 -301h-367l1338 1434h1174l-56 -263h-751l-68 -317h723l-56 -262h-722l-71 -330h762zM800 564h401l122 573zM1872 1553h-261l237 324h327z" />
    <glyph glyph-name="aeacute" unicode="&#x1fd;" horiz-adv-x="1740" 
d="M1437 288l137 -174q-160 -141 -406 -141q-254 0 -380 165q-172 -164 -401 -164q-162 0 -256 75.5t-94 203.5q0 156 116 247.5t313 91.5h263q3 20 3 40q0 151 -202 151q-121 0 -258 -74l-81 210q172 100 388 100q236 0 331 -146q135 146 359 146q189 0 306.5 -110.5
t117.5 -294.5q0 -117 -40 -206h-689q3 -99 62.5 -153t164.5 -54q137 0 246 87zM445 189q66 0 138 31t130 91q-10 52 -10 98v3h-210q-83 0 -130.5 -33t-47.5 -90q0 -46 34 -73t96 -27zM1253 788q-100 0 -164 -57t-96 -145h441q1 7 1 22q0 87 -49 133.5t-133 46.5zM1023 1134
h-261l237 323h327z" />
    <glyph glyph-name="Oslashacute" unicode="&#x1fe;" horiz-adv-x="1671" 
d="M937 1459q267 0 455 -146l169 150l155 -176l-171 -151q88 -154 88 -346q0 -165 -60 -314.5t-165 -260.5t-256 -176.5t-324 -65.5q-253 0 -438 135l-153 -138l-156 175l149 134q-98 160 -98 365q0 165 60 314t165 259.5t256 176t324 65.5zM919 1186q-141 0 -253.5 -72
t-173.5 -191t-61 -259q0 -100 33 -178l703 627q-106 73 -248 73zM1334 770q0 83 -25 155l-694 -617q100 -60 233 -60q140 0 252 72t173 191t61 259zM1054 1553h-261l237 324h327z" />
    <glyph glyph-name="oslashacute" unicode="&#x1ff;" horiz-adv-x="1199" 
d="M639 1019q168 0 297 -85l127 113l138 -155l-125 -111q60 -109 60 -237q0 -154 -74 -285t-206.5 -208.5t-294.5 -77.5q-170 0 -296 84l-127 -112l-138 154l124 111q-59 107 -59 240q0 154 73.5 284t206 207.5t294.5 77.5zM622 777q-123 0 -206.5 -91t-83.5 -221
q0 -41 9 -75l402 359q-56 28 -121 28zM868 527q0 33 -8 70l-400 -356q55 -26 115 -26q124 0 208.5 91t84.5 221zM787 1133h-261l238 323h327z" />
    <glyph glyph-name="Scommaaccent" unicode="&#x218;" horiz-adv-x="1359" 
d="M1370 1291l-152 -229q-99 69 -214 100.5t-218 31.5q-132 0 -198 -51.5t-66 -126.5q0 -67 58.5 -104t165.5 -58l87 -16q195 -36 308.5 -129.5t113.5 -253.5q0 -218 -169.5 -350t-441.5 -132q-152 0 -323 49.5t-287 151.5l165 229q93 -85 223 -125t241 -40q125 0 205 46.5
t80 130.5q0 65 -60.5 102t-191.5 61l-91 17q-181 33 -286 130t-105 251q0 79 23.5 150.5t71.5 132t116 105.5t162.5 70t206.5 25q329 0 576 -168zM513 -86h275l-170 -398h-234z" />
    <glyph glyph-name="scommaaccent" unicode="&#x219;" horiz-adv-x="990" 
d="M985 908l-122 -199q-66 40 -155.5 63.5t-155.5 23.5q-149 0 -159 -81q-5 -48 27 -66.5t112 -33.5l67 -12q323 -59 294 -307q-18 -151 -137 -236.5t-318 -85.5q-122 0 -244.5 35.5t-207.5 99.5l128 195q157 -107 328 -107q170 0 180 92q4 37 -29 59t-109 35l-68 11
q-166 27 -239 108.5t-58 205.5q19 150 132.5 230t300.5 80q244 0 433 -110zM291 -86h275l-170 -398h-234z" />
    <glyph glyph-name="uni021A" unicode="&#x21a;" horiz-adv-x="1221" 
d="M1390 1434l-58 -268h-429l-248 -1166h-291l247 1166h-437l57 268h1159zM355 -86h276l-170 -398h-235z" />
    <glyph glyph-name="uni021B" unicode="&#x21b;" horiz-adv-x="945" 
d="M948 992l-51 -237h-347l-77 -360q-19 -87 12.5 -129.5t100.5 -42.5q80 0 173 57l94 -211q-148 -95 -316 -95q-203 0 -289 112t-45 307l77 362h-186l51 237h186l63 295h270l-64 -295h348zM331 -86h275l-170 -398h-234z" />
    <glyph glyph-name="uni0232" unicode="&#x232;" horiz-adv-x="1379" 
d="M1571 1434l-719 -869l-121 -565h-292l125 590l-356 844h305l236 -598l474 598h348zM551 1598l46 214h677l-46 -214h-677z" />
    <glyph glyph-name="uni0233" unicode="&#x233;" horiz-adv-x="1146" 
d="M1245 992l-965 -1406h-306l462 654l-320 752h288l201 -505l336 505h304zM364 1179l46 214h676l-46 -214h-676z" />
    <glyph glyph-name="uni0237" unicode="&#x237;" horiz-adv-x="540" 
d="M514 992l-235 -1108q-34 -156 -127.5 -235.5t-228.5 -79.5q-104 0 -180 39l83 224q34 -14 71 -14q43 0 76.5 28.5t45.5 86.5l225 1059h270z" />
    <glyph glyph-name="uni0259" unicode="&#x259;" horiz-adv-x="1097" 
d="M303 705l-137 174q159 140 405 140q219 0 344.5 -121t125.5 -314q0 -78 -19.5 -160t-64.5 -163.5t-109.5 -145t-162 -103t-214.5 -39.5q-189 0 -306 110.5t-117 294.5q0 51 11 109.5t28 97.5h689q-3 99 -62.5 153t-164.5 54q-136 0 -246 -87zM486 204q99 0 163 55.5
t96 142.5h-439q-1 -6 -1 -18q0 -88 48.5 -134t132.5 -46z" />
    <glyph glyph-name="uni02BB" unicode="&#x2bb;" horiz-adv-x="536" 
d="M465 864h-299l258 611h240z" />
    <glyph glyph-name="afii57929" unicode="&#x2bc;" horiz-adv-x="536" 
d="M358 1475h299l-258 -611h-239z" />
    <glyph glyph-name="uni02BE" unicode="&#x2be;" horiz-adv-x="562" 
d="M272 1266l47 222q142 -15 236.5 -123.5t94.5 -255.5q0 -176 -123.5 -299.5t-305.5 -123.5q-36 0 -70 6l48 224q16 -3 38 -3q70 0 123 56t53 133q0 65 -41 112t-100 52z" />
    <glyph glyph-name="uni02BF" unicode="&#x2bf;" horiz-adv-x="562" 
d="M541 908l-47 -222q-142 15 -236.5 123.5t-94.5 255.5q0 176 123.5 299.5t305.5 123.5q37 0 71 -6l-49 -225q-22 4 -37 4q-70 0 -123.5 -56t-53.5 -133q0 -65 41 -112t100 -52z" />
    <glyph glyph-name="circumflex" unicode="&#x2c6;" horiz-adv-x="1094" 
d="M1055 1124h-252l-89 159l-152 -159h-270l283 323h323z" />
    <glyph glyph-name="caron" unicode="&#x2c7;" horiz-adv-x="1094" 
d="M349 1447h252l88 -159l153 159h270l-284 -323h-322z" />
    <glyph glyph-name="breve" unicode="&#x2d8;" horiz-adv-x="1094" 
d="M357 1433l205 59q16 -168 153 -168q128 0 211 168l201 -59q-76 -161 -182.5 -242t-254.5 -81q-146 0 -235.5 84.5t-97.5 238.5z" />
    <glyph glyph-name="dotaccent" unicode="&#x2d9;" horiz-adv-x="612" 
d="M480 1489q72 0 121.5 -50t49.5 -122t-49.5 -121t-121.5 -49t-121 49t-49 121t49 122t121 50z" />
    <glyph glyph-name="ring" unicode="&#x2da;" horiz-adv-x="1024" 
d="M692 1102q-110 0 -188.5 77.5t-78.5 186.5q0 108 78.5 185.5t188.5 77.5q111 0 190.5 -77.5t79.5 -185.5q0 -109 -79.5 -186.5t-190.5 -77.5zM692 1254q45 0 77.5 32.5t32.5 79.5q0 46 -33 78.5t-77 32.5q-43 0 -75 -33t-32 -78q0 -47 32 -79.5t75 -32.5z" />
    <glyph glyph-name="ogonek" unicode="&#x2db;" horiz-adv-x="1131" 
d="M830 -179l121 -158q-112 -92 -259 -92q-137 0 -222 61.5t-85 158.5q0 103 82 174.5t288 127.5l65 -60q-185 -81 -185 -187q0 -30 22.5 -47t62.5 -17q55 0 110 39z" />
    <glyph glyph-name="tilde" unicode="&#x2dc;" horiz-adv-x="1094" 
d="M452 1144l-133 162q117 129 276 129q66 0 118 -18t86.5 -36t58.5 -18q33 0 64 17.5t74 55.5l131 -162q-116 -130 -275 -130q-65 0 -116.5 18t-86 35.5t-59.5 17.5q-34 0 -65.5 -17.5t-72.5 -53.5z" />
    <glyph glyph-name="hungarumlaut" unicode="&#x2dd;" horiz-adv-x="1094" 
d="M908 1135h-267l259 322h295zM519 1135h-261l231 322h290z" />
    <glyph glyph-name="gravecomb" unicode="&#x300;" 
d="M-593 1134l-270 322h319l206 -322h-255z" />
    <glyph glyph-name="acutecomb" unicode="&#x301;" 
d="M-431 1133h-261l237 323h327z" />
    <glyph glyph-name="uni0302" unicode="&#x302;" 
d="M-139 1123h-252l-89 159l-152 -159h-270l284 323h322z" />
    <glyph glyph-name="tildecomb" unicode="&#x303;" 
d="M-776 1143l-132 162q117 129 275 129q66 0 118 -18t86.5 -36t58.5 -18q33 0 64.5 18t74.5 55l131 -162q-116 -130 -276 -130q-51 0 -95 11t-68.5 24.5t-51 24.5t-47.5 11q-34 0 -65.5 -17.5t-72.5 -53.5z" />
    <glyph glyph-name="uni0304" unicode="&#x304;" 
d="M-838 1178l46 214h677l-46 -214h-677z" />
    <glyph glyph-name="uni0306" unicode="&#x306;" 
d="M-849 1432l205 59q16 -168 152 -168q128 0 211 168l202 -59q-76 -161 -182.5 -242t-254.5 -81q-146 0 -235.5 84.5t-97.5 238.5z" />
    <glyph glyph-name="uni0307" unicode="&#x307;" 
d="M-471 1488q72 0 121.5 -50t49.5 -122t-49.5 -121t-121.5 -49t-121 49t-49 121t49 122t121 50z" />
    <glyph glyph-name="uni0308" unicode="&#x308;" 
d="M-703 1457q72 0 122 -50t50 -122t-50 -121t-122 -49t-121 49t-49 121t49 122t121 50zM-262 1457q72 0 122 -50t50 -122t-50 -121t-122 -49t-121 49t-49 121t49 122t121 50z" />
    <glyph glyph-name="uni030A" unicode="&#x30a;" 
d="M-502 1101q-110 0 -188.5 77.5t-78.5 186.5q0 108 78.5 185.5t188.5 77.5q111 0 190.5 -77.5t79.5 -185.5q0 -109 -79.5 -186.5t-190.5 -77.5zM-502 1253q45 0 77.5 32.5t32.5 79.5q0 45 -33 78t-77 33q-43 0 -75 -33t-32 -78q0 -47 32 -79.5t75 -32.5z" />
    <glyph glyph-name="uni030B" unicode="&#x30b;" 
d="M-204 1134h-267l259 322h295zM-593 1134h-261l231 322h290z" />
    <glyph glyph-name="uni030C" unicode="&#x30c;" 
d="M-828 1446h251l89 -159l152 159h270l-283 -323h-323z" />
    <glyph glyph-name="uni0312" unicode="&#x312;" 
d="M-371 1134h-275l169 398h235z" />
    <glyph glyph-name="dotbelowcomb" unicode="&#x323;" 
d="M-560 -105q72 0 121.5 -50.5t49.5 -122.5t-49.5 -120.5t-121.5 -48.5t-121 48.5t-49 120.5t49 122.5t121 50.5z" />
    <glyph glyph-name="uni0326" unicode="&#x326;" 
d="M-714 -86h276l-170 -398h-235z" />
    <glyph glyph-name="uni0327" unicode="&#x327;" 
d="M-341 7l-166 -336h-271l185 336h252z" />
    <glyph glyph-name="uni0328" unicode="&#x328;" 
d="M-397 -179l121 -158q-112 -92 -260 -92q-137 0 -222 61.5t-85 158.5q0 103 82 174.5t288 127.5l65 -60q-185 -81 -185 -187q0 -30 22.5 -47t62.5 -17q56 0 111 39z" />
    <glyph glyph-name="uni032E" unicode="&#x32e;" 
d="M-964 -136l205 59q16 -168 153 -168q128 0 211 168l201 -59q-76 -161 -182.5 -242t-254.5 -81q-146 0 -235.5 84.5t-97.5 238.5z" />
    <glyph glyph-name="uni0331" unicode="&#x331;" 
d="M-979 -376l46 215h678l-46 -215h-678z" />
    <glyph glyph-name="uni0335" unicode="&#x335;" 
d="M-204 650l-45 -220h-745l44 220h746z" />
    <glyph glyph-name="uni0336" unicode="&#x336;" 
d="M189 651l-45 -223h-1532l46 223h1531z" />
    <glyph glyph-name="uni0394" unicode="&#x394;" horiz-adv-x="1414" 
d="M1080 1434l213 -1211l-47 -223h-1289l47 223l729 1211h347zM1002 267l-143 886l-520 -886h663z" />
    <glyph glyph-name="uni03A9" unicode="&#x3a9;" horiz-adv-x="1734" 
d="M1654 260l-56 -260h-651l50 237q167 46 268 194t101 332q0 183 -119 303.5t-308 120.5q-142 0 -255.5 -72.5t-175 -193t-61.5 -263.5q0 -153 75.5 -263t205.5 -151l-51 -244h-651l55 260h269q-196 177 -196 446q0 157 62.5 297t169 239.5t254 158t311.5 58.5
q209 0 373.5 -83t255.5 -231t91 -336q0 -157 -65 -299t-189 -250h237z" />
    <glyph glyph-name="uni03BC" unicode="&#x3bc;" horiz-adv-x="1188" 
d="M193 -410h-263l300 1402h269l-120 -557q-7 -32 -7 -65q0 -67 37 -106.5t118 -39.5q91 0 159.5 57t94.5 179l113 532h268l-211 -992h-258l23 100q-111 -127 -287 -127q-80 0 -149 29z" />
    <glyph glyph-name="pi" unicode="&#x3c0;" horiz-adv-x="1184" 
d="M1166 992l-211 -992h-267l160 755h-394l-160 -755h-267l211 992h928z" />
    <glyph glyph-name="uni1E0C" unicode="&#x1e0c;" horiz-adv-x="1555" 
d="M355 1434h507q303 0 482.5 -169t179.5 -436q0 -173 -60 -323.5t-170 -263t-278 -177.5t-373 -65h-593zM829 1166h-239l-192 -899h279q251 0 398 148.5t147 380.5q0 170 -99 270t-294 100zM645 -105q72 0 121.5 -50.5t49.5 -122.5t-49.5 -120.5t-121.5 -48.5t-121 48.5
t-49 120.5t49 122.5t121 50.5z" />
    <glyph glyph-name="uni1E0D" unicode="&#x1e0d;" horiz-adv-x="1230" 
d="M614 1019q205 0 299 -127l125 583h269l-314 -1475h-263l18 81q-115 -108 -269 -108q-179 0 -299 131.5t-120 325.5q0 85 24 169.5t72 160t113.5 133.5t155 92t189.5 34zM561 223q110 0 188.5 77t92.5 194q15 122 -49 199t-172 77q-120 0 -202 -91.5t-82 -220.5
q0 -106 62.5 -170.5t161.5 -64.5zM510 -105q72 0 121.5 -50.5t49.5 -122.5t-49.5 -120.5t-121.5 -48.5t-121 48.5t-49 120.5t49 122.5t121 50.5z" />
    <glyph glyph-name="uni1E0E" unicode="&#x1e0e;" horiz-adv-x="1555" 
d="M355 1434h507q303 0 482.5 -169t179.5 -436q0 -173 -60 -323.5t-170 -263t-278 -177.5t-373 -65h-593zM829 1166h-239l-192 -899h279q251 0 398 148.5t147 380.5q0 170 -99 270t-294 100zM280 -376l46 215h678l-47 -215h-677z" />
    <glyph glyph-name="uni1E0F" unicode="&#x1e0f;" horiz-adv-x="1230" 
d="M614 1019q205 0 299 -127l125 583h269l-314 -1475h-263l18 81q-115 -108 -269 -108q-179 0 -299 131.5t-120 325.5q0 85 24 169.5t72 160t113.5 133.5t155 92t189.5 34zM561 223q110 0 188.5 77t92.5 194q15 122 -49 199t-172 77q-120 0 -202 -91.5t-82 -220.5
q0 -106 62.5 -170.5t161.5 -64.5zM143 -376l46 215h678l-46 -215h-678z" />
    <glyph glyph-name="uni1E24" unicode="&#x1e24;" horiz-adv-x="1568" 
d="M647 1434l-123 -578h673l124 578h292l-306 -1434h-292l126 590h-674l-125 -590h-292l305 1434h292zM625 -105q72 0 121.5 -50.5t49.5 -122.5t-49.5 -120.5t-121.5 -48.5t-121 48.5t-49 120.5t49 122.5t121 50.5z" />
    <glyph glyph-name="uni1E25" unicode="&#x1e25;" horiz-adv-x="1188" 
d="M760 1019q153 0 243.5 -92.5t90.5 -240.5q0 -52 -12 -107l-124 -579h-268l120 557q7 32 7 66q0 66 -37 105.5t-117 39.5q-91 0 -159.5 -57t-94.5 -179l-113 -532h-269l313 1475h268l-120 -567q107 111 272 111zM441 -105q72 0 121.5 -50.5t49.5 -122.5t-49.5 -120.5
t-121.5 -48.5t-121 48.5t-49 120.5t49 122.5t121 50.5z" />
    <glyph glyph-name="uni1E28" unicode="&#x1e28;" horiz-adv-x="1568" 
d="M647 1434l-123 -578h673l124 578h292l-306 -1434h-292l126 590h-674l-125 -590h-13l-161 -329h-289l180 329h-9l305 1434h292z" />
    <glyph glyph-name="uni1E29" unicode="&#x1e29;" horiz-adv-x="1188" 
d="M760 1019q153 0 243.5 -92.5t90.5 -240.5q0 -52 -12 -107l-124 -579h-268l120 557q7 32 7 66q0 66 -37 105.5t-117 39.5q-91 0 -159.5 -57t-94.5 -179l-113 -532h-10l-162 -329h-271l181 329h-7l313 1475h268l-120 -567q107 111 272 111z" />
    <glyph glyph-name="uni1E2A" unicode="&#x1e2a;" horiz-adv-x="1568" 
d="M647 1434l-123 -578h673l124 578h292l-306 -1434h-292l126 590h-674l-125 -590h-292l305 1434h292zM274 -136l205 59q16 -168 153 -168q128 0 211 168l201 -59q-76 -161 -182.5 -242t-254.5 -81q-146 0 -235.5 84.5t-97.5 238.5z" />
    <glyph glyph-name="uni1E2B" unicode="&#x1e2b;" horiz-adv-x="1188" 
d="M760 1019q153 0 243.5 -92.5t90.5 -240.5q0 -52 -12 -107l-124 -579h-268l120 557q7 32 7 66q0 66 -37 105.5t-117 39.5q-91 0 -159.5 -57t-94.5 -179l-113 -532h-269l313 1475h268l-120 -567q107 111 272 111zM90 -136l205 59q16 -168 152 -168q128 0 211 168l202 -59
q-76 -161 -182.5 -242t-254.5 -81q-146 0 -235.5 84.5t-97.5 238.5z" />
    <glyph glyph-name="uni1E32" unicode="&#x1e32;" horiz-adv-x="1421" 
d="M647 1434l-124 -581h108l562 581h371l-725 -718l487 -716h-335l-395 590h-129l-125 -590h-292l305 1434h292zM608 -105q72 0 121.5 -50.5t49.5 -122.5t-49.5 -120.5t-121.5 -48.5t-121 48.5t-49 120.5t49 122.5t121 50.5z" />
    <glyph glyph-name="uni1E33" unicode="&#x1e33;" horiz-adv-x="1095" 
d="M609 1475l-177 -836h80l329 353h337l-479 -488l295 -504h-296l-225 401h-92l-85 -401h-269l313 1475h269zM438 -105q72 0 121.5 -50.5t49.5 -122.5t-49.5 -120.5t-121.5 -48.5t-121 48.5t-49 120.5t49 122.5t121 50.5z" />
    <glyph glyph-name="uni1E36" unicode="&#x1e36;" horiz-adv-x="1212" 
d="M647 1434l-249 -1167h735l-58 -267h-1025l305 1434h292zM545 -105q72 0 121.5 -50.5t49.5 -122.5t-49.5 -120.5t-121.5 -48.5t-121 48.5t-49 120.5t49 122.5t121 50.5z" />
    <glyph glyph-name="uni1E37" unicode="&#x1e37;" horiz-adv-x="533" 
d="M609 1475l-313 -1475h-269l313 1475h269zM109 -105q72 0 121.5 -50.5t49.5 -122.5t-49.5 -120.5t-121.5 -48.5t-121 48.5t-49 120.5t49 122.5t121 50.5z" />
    <glyph glyph-name="uni1E38" unicode="&#x1e38;" horiz-adv-x="1212" 
d="M647 1434l-249 -1167h735l-58 -267h-1025l305 1434h292zM545 -105q72 0 121.5 -50.5t49.5 -122.5t-49.5 -120.5t-121.5 -48.5t-121 48.5t-49 120.5t49 122.5t121 50.5zM183 1598l46 214h677l-46 -214h-677z" />
    <glyph glyph-name="uni1E39" unicode="&#x1e39;" horiz-adv-x="533" 
d="M609 1475l-313 -1475h-269l313 1475h269zM166 1620l46 214h677l-46 -214h-677zM109 -105q72 0 121.5 -50.5t49.5 -122.5t-49.5 -120.5t-121.5 -48.5t-121 48.5t-49 120.5t49 122.5t121 50.5z" />
    <glyph glyph-name="uni1E3A" unicode="&#x1e3a;" horiz-adv-x="1212" 
d="M647 1434l-249 -1167h735l-58 -267h-1025l305 1434h292zM179 -376l46 215h678l-46 -215h-678z" />
    <glyph glyph-name="uni1E3B" unicode="&#x1e3b;" horiz-adv-x="533" 
d="M609 1475l-313 -1475h-269l313 1475h269zM-258 -376l46 215h678l-46 -215h-678z" />
    <glyph glyph-name="uni1E40" unicode="&#x1e40;" horiz-adv-x="1867" 
d="M1912 1434l-305 -1434h-291l227 1064l-524 -926h-303l-150 927l-225 -1065h-291l305 1434h409l154 -975l560 975h434zM1133 1893q76 0 127.5 -52.5t51.5 -128.5q0 -75 -51.5 -126.5t-127.5 -51.5t-127.5 51.5t-51.5 126.5q0 76 51.5 128.5t127.5 52.5z" />
    <glyph glyph-name="uni1E41" unicode="&#x1e41;" horiz-adv-x="1852" 
d="M1412 1019q158 0 251.5 -92.5t93.5 -240.5q0 -56 -11 -107l-125 -579h-268l120 557q7 32 7 66q0 66 -37.5 105.5t-119.5 39.5q-91 0 -159.5 -57t-94.5 -179l-113 -532h-267l119 557q7 33 7.5 62.5t-7.5 57t-25 47.5t-48 32t-73 12q-91 0 -159.5 -57t-94.5 -179l-113 -532
h-268l211 992h258l-23 -100q111 127 287 127q104 0 180 -44t115 -122q131 166 357 166zM1098 1478q72 0 121.5 -50t49.5 -122t-49.5 -121t-121.5 -49t-121 49t-49 121t49 122t121 50z" />
    <glyph glyph-name="uni1E42" unicode="&#x1e42;" horiz-adv-x="1867" 
d="M1912 1434l-305 -1434h-291l227 1064l-524 -926h-303l-150 927l-225 -1065h-291l305 1434h409l154 -975l560 975h434zM800 -105q72 0 121.5 -50.5t49.5 -122.5t-49.5 -120.5t-121.5 -48.5t-121 48.5t-49 120.5t49 122.5t121 50.5z" />
    <glyph glyph-name="uni1E43" unicode="&#x1e43;" horiz-adv-x="1852" 
d="M1412 1019q158 0 251.5 -92.5t93.5 -240.5q0 -56 -11 -107l-125 -579h-268l120 557q7 32 7 66q0 66 -37.5 105.5t-119.5 39.5q-91 0 -159.5 -57t-94.5 -179l-113 -532h-267l119 557q7 33 7.5 62.5t-7.5 57t-25 47.5t-48 32t-73 12q-91 0 -159.5 -57t-94.5 -179l-113 -532
h-268l211 992h258l-23 -100q111 127 287 127q104 0 180 -44t115 -122q131 166 357 166zM769 -105q72 0 121.5 -50.5t49.5 -122.5t-49.5 -120.5t-121.5 -48.5t-121 48.5t-49 120.5t49 122.5t121 50.5z" />
    <glyph glyph-name="uni1E44" unicode="&#x1e44;" horiz-adv-x="1582" 
d="M1626 1434l-305 -1434h-268l-502 987l-210 -987h-291l305 1434h270l500 -988l210 988h291zM1009 1893q76 0 127.5 -52.5t51.5 -128.5q0 -75 -51.5 -126.5t-127.5 -51.5t-127.5 51.5t-51.5 126.5q0 76 51.5 128.5t127.5 52.5z" />
    <glyph glyph-name="uni1E45" unicode="&#x1e45;" horiz-adv-x="1188" 
d="M760 1019q153 0 243.5 -92.5t90.5 -240.5q0 -52 -12 -107l-124 -579h-268l120 557q7 32 7 66q0 66 -37 105.5t-118 39.5q-91 0 -159.5 -57t-94.5 -179l-113 -532h-268l211 992h258l-23 -100q111 127 287 127zM756 1489q72 0 121.5 -50t49.5 -122t-49.5 -121t-121.5 -49
t-121 49t-49 121t49 122t121 50z" />
    <glyph glyph-name="uni1E46" unicode="&#x1e46;" horiz-adv-x="1582" 
d="M1626 1434l-305 -1434h-268l-502 987l-210 -987h-291l305 1434h270l500 -988l210 988h291zM666 -105q72 0 121.5 -50.5t49.5 -122.5t-49.5 -120.5t-121.5 -48.5t-121 48.5t-49 120.5t49 122.5t121 50.5z" />
    <glyph glyph-name="uni1E47" unicode="&#x1e47;" horiz-adv-x="1188" 
d="M760 1019q153 0 243.5 -92.5t90.5 -240.5q0 -52 -12 -107l-124 -579h-268l120 557q7 32 7 66q0 66 -37 105.5t-118 39.5q-91 0 -159.5 -57t-94.5 -179l-113 -532h-268l211 992h258l-23 -100q111 127 287 127zM440 -105q72 0 121.5 -50.5t49.5 -122.5t-49.5 -120.5
t-121.5 -48.5t-121 48.5t-49 120.5t49 122.5t121 50.5z" />
    <glyph glyph-name="uni1E48" unicode="&#x1e48;" horiz-adv-x="1582" 
d="M1626 1434l-305 -1434h-268l-502 987l-210 -987h-291l305 1434h270l500 -988l210 988h291zM300 -376l46 215h678l-46 -215h-678z" />
    <glyph glyph-name="uni1E49" unicode="&#x1e49;" horiz-adv-x="1188" 
d="M760 1019q153 0 243.5 -92.5t90.5 -240.5q0 -52 -12 -107l-124 -579h-268l120 557q7 32 7 66q0 66 -37 105.5t-118 39.5q-91 0 -159.5 -57t-94.5 -179l-113 -532h-268l211 992h258l-23 -100q111 127 287 127zM74 -376l46 215h678l-46 -215h-678z" />
    <glyph glyph-name="uni1E58" unicode="&#x1e58;" horiz-adv-x="1360" 
d="M355 1434h546q224 0 350 -109.5t126 -277.5q0 -65 -15.5 -126.5t-54.5 -123.5t-97.5 -109t-151.5 -79t-209 -38l394 -571h-334l-370 570h-76l-121 -570h-292zM866 1169h-275l-75 -350h302q75 0 129 17t82 47t40 63t12 71q0 71 -56 111.5t-159 40.5zM870 1893
q76 0 128 -52.5t52 -128.5q0 -75 -52 -126.5t-128 -51.5t-127 51.5t-51 126.5q0 76 51.5 128.5t126.5 52.5z" />
    <glyph glyph-name="uni1E59" unicode="&#x1e59;" horiz-adv-x="836" 
d="M407 528l-112 -528h-268l211 992h258l-24 -104q109 131 283 131q70 0 147 -30l-86 -257q-62 32 -144 32q-97 0 -167.5 -59.5t-97.5 -176.5zM621 1489q72 0 121.5 -50t49.5 -122t-49.5 -121t-121.5 -49t-121 49t-49 121t49 122t121 50z" />
    <glyph glyph-name="uni1E5A" unicode="&#x1e5a;" horiz-adv-x="1360" 
d="M355 1434h546q224 0 350 -109.5t126 -277.5q0 -65 -15.5 -126.5t-54.5 -123.5t-97.5 -109t-151.5 -79t-209 -38l394 -571h-334l-370 570h-76l-121 -570h-292zM866 1169h-275l-75 -350h302q75 0 129 17t82 47t40 63t12 71q0 71 -56 111.5t-159 40.5zM584 -105
q72 0 121.5 -50.5t49.5 -122.5t-49.5 -120.5t-121.5 -48.5t-121 48.5t-49 120.5t49 122.5t121 50.5z" />
    <glyph glyph-name="uni1E5B" unicode="&#x1e5b;" horiz-adv-x="836" 
d="M407 528l-112 -528h-268l211 992h258l-24 -104q109 131 283 131q70 0 147 -30l-86 -257q-62 32 -144 32q-97 0 -167.5 -59.5t-97.5 -176.5zM109 -105q72 0 121.5 -50.5t49.5 -122.5t-49.5 -120.5t-121.5 -48.5t-121 48.5t-49 120.5t49 122.5t121 50.5z" />
    <glyph glyph-name="uni1E5C" unicode="&#x1e5c;" horiz-adv-x="1360" 
d="M355 1434h546q224 0 350 -109.5t126 -277.5q0 -65 -15.5 -126.5t-54.5 -123.5t-97.5 -109t-151.5 -79t-209 -38l394 -571h-334l-370 570h-76l-121 -570h-292zM866 1169h-275l-75 -350h302q75 0 129 17t82 47t40 63t12 71q0 71 -56 111.5t-159 40.5zM584 -105
q72 0 121.5 -50.5t49.5 -122.5t-49.5 -120.5t-121.5 -48.5t-121 48.5t-49 120.5t49 122.5t121 50.5zM522 1598l46 214h677l-46 -214h-677z" />
    <glyph glyph-name="uni1E5D" unicode="&#x1e5d;" horiz-adv-x="836" 
d="M407 528l-112 -528h-268l211 992h258l-24 -104q109 131 283 131q70 0 147 -30l-86 -257q-62 32 -144 32q-97 0 -167.5 -59.5t-97.5 -176.5zM254 1179l46 214h677l-46 -214h-677zM109 -105q72 0 121.5 -50.5t49.5 -122.5t-49.5 -120.5t-121.5 -48.5t-121 48.5t-49 120.5
t49 122.5t121 50.5z" />
    <glyph glyph-name="uni1E5E" unicode="&#x1e5e;" horiz-adv-x="1360" 
d="M355 1434h546q224 0 350 -109.5t126 -277.5q0 -65 -15.5 -126.5t-54.5 -123.5t-97.5 -109t-151.5 -79t-209 -38l394 -571h-334l-370 570h-76l-121 -570h-292zM866 1169h-275l-75 -350h302q75 0 129 17t82 47t40 63t12 71q0 71 -56 111.5t-159 40.5zM218 -376l46 215h678
l-46 -215h-678z" />
    <glyph glyph-name="uni1E5F" unicode="&#x1e5f;" horiz-adv-x="836" 
d="M407 528l-112 -528h-268l211 992h258l-24 -104q109 131 283 131q70 0 147 -30l-86 -257q-62 32 -144 32q-97 0 -167.5 -59.5t-97.5 -176.5zM-258 -376l46 215h678l-46 -215h-678z" />
    <glyph glyph-name="uni1E62" unicode="&#x1e62;" horiz-adv-x="1359" 
d="M1370 1291l-152 -229q-99 69 -214 100.5t-218 31.5q-132 0 -198 -51.5t-66 -126.5q0 -67 58.5 -104t165.5 -58l87 -16q195 -36 308.5 -129.5t113.5 -253.5q0 -218 -169.5 -350t-441.5 -132q-152 0 -323 49.5t-287 151.5l165 229q93 -85 223 -125t241 -40q125 0 205 46.5
t80 130.5q0 65 -60.5 102t-191.5 61l-91 17q-181 33 -286 130t-105 251q0 79 23.5 150.5t71.5 132t116 105.5t162.5 70t206.5 25q329 0 576 -168zM614 -105q72 0 121.5 -50.5t49.5 -122.5t-49.5 -120.5t-121.5 -48.5t-121 48.5t-49 120.5t49 122.5t121 50.5z" />
    <glyph glyph-name="uni1E63" unicode="&#x1e63;" horiz-adv-x="990" 
d="M985 908l-122 -199q-66 40 -155.5 63.5t-155.5 23.5q-149 0 -159 -81q-5 -48 27 -66.5t112 -33.5l67 -12q323 -59 294 -307q-18 -151 -137 -236.5t-318 -85.5q-122 0 -244.5 35.5t-207.5 99.5l128 195q157 -107 328 -107q170 0 180 92q4 37 -29 59t-109 35l-68 11
q-166 27 -239 108.5t-58 205.5q19 150 132.5 230t300.5 80q244 0 433 -110zM392 -105q72 0 121.5 -50.5t49.5 -122.5t-49.5 -120.5t-121.5 -48.5t-121 48.5t-49 120.5t49 122.5t121 50.5z" />
    <glyph glyph-name="uni1E6C" unicode="&#x1e6c;" horiz-adv-x="1221" 
d="M1390 1434l-58 -268h-429l-248 -1166h-291l247 1166h-437l57 268h1159zM457 -105q72 0 121.5 -50.5t49.5 -122.5t-49.5 -120.5t-121.5 -48.5t-121 48.5t-49 120.5t49 122.5t121 50.5z" />
    <glyph glyph-name="uni1E6D" unicode="&#x1e6d;" horiz-adv-x="945" 
d="M948 992l-51 -237h-347l-77 -360q-19 -87 12.5 -129.5t100.5 -42.5q80 0 173 57l94 -211q-148 -95 -316 -95q-203 0 -289 112t-45 307l77 362h-186l51 237h186l63 295h270l-64 -295h348zM432 -105q72 0 121.5 -50.5t49.5 -122.5t-49.5 -120.5t-121.5 -48.5t-121 48.5
t-49 120.5t49 122.5t121 50.5z" />
    <glyph glyph-name="uni1E6E" unicode="&#x1e6e;" horiz-adv-x="1221" 
d="M1390 1434l-58 -268h-429l-248 -1166h-291l247 1166h-437l57 268h1159zM91 -376l46 215h678l-46 -215h-678z" />
    <glyph glyph-name="uni1E6F" unicode="&#x1e6f;" horiz-adv-x="945" 
d="M948 992l-51 -237h-347l-77 -360q-19 -87 12.5 -129.5t100.5 -42.5q80 0 173 57l94 -211q-148 -95 -316 -95q-203 0 -289 112t-45 307l77 362h-186l51 237h186l63 295h270l-64 -295h348zM66 -376l46 215h678l-47 -215h-677z" />
    <glyph glyph-name="Wgrave" unicode="&#x1e80;" horiz-adv-x="2219" 
d="M2375 1434l-721 -1434h-338l-83 1027l-510 -1027h-352l-127 1434h288l81 -1104l542 1104h302l83 -1097l531 1097h304zM1231 1554l-270 323h319l206 -323h-255z" />
    <glyph glyph-name="wgrave" unicode="&#x1e81;" horiz-adv-x="1743" 
d="M1101 992l83 -690l353 690h290l-540 -992h-297l-78 672l-341 -672h-306l-136 992h268l77 -690l352 690h275zM909 1135l-270 322h319l206 -322h-255z" />
    <glyph glyph-name="Wacute" unicode="&#x1e82;" horiz-adv-x="2219" 
d="M2375 1434l-721 -1434h-338l-83 1027l-510 -1027h-352l-127 1434h288l81 -1104l542 1104h302l83 -1097l531 1097h304zM1391 1553h-262l238 324h327z" />
    <glyph glyph-name="wacute" unicode="&#x1e83;" horiz-adv-x="1743" 
d="M1101 992l83 -690l353 690h290l-540 -992h-297l-78 672l-341 -672h-306l-136 992h268l77 -690l352 690h275zM1071 1134h-261l238 323h326z" />
    <glyph glyph-name="Wdieresis" unicode="&#x1e84;" horiz-adv-x="2219" 
d="M2375 1434l-721 -1434h-338l-83 1027l-510 -1027h-352l-127 1434h288l81 -1104l542 1104h302l83 -1097l531 1097h304zM1121 1878q72 0 122 -50t50 -122t-50 -121t-122 -49t-121 49t-49 121t49 122t121 50zM1563 1878q72 0 122 -50t50 -122t-50 -121t-122 -49t-121 49
t-49 121t49 122t121 50z" />
    <glyph glyph-name="wdieresis" unicode="&#x1e85;" horiz-adv-x="1743" 
d="M1101 992l83 -690l353 690h290l-540 -992h-297l-78 672l-341 -672h-306l-136 992h268l77 -690l352 690h275zM799 1458q72 0 122 -50t50 -122t-50 -121t-122 -49t-121 49t-49 121t49 122t121 50zM1240 1458q72 0 122 -50t50 -122t-50 -121t-122 -49t-121 49t-49 121
t49 122t121 50z" />
    <glyph glyph-name="uni1E88" unicode="&#x1e88;" horiz-adv-x="2219" 
d="M2375 1434l-721 -1434h-338l-83 1027l-510 -1027h-352l-127 1434h288l81 -1104l542 1104h302l83 -1097l531 1097h304zM993 -105q72 0 121.5 -50.5t49.5 -122.5t-49.5 -120.5t-121.5 -48.5t-121 48.5t-49 120.5t49 122.5t121 50.5z" />
    <glyph glyph-name="uni1E89" unicode="&#x1e89;" horiz-adv-x="1743" 
d="M1101 992l83 -690l353 690h290l-540 -992h-297l-78 672l-341 -672h-306l-136 992h268l77 -690l352 690h275zM738 -105q72 0 121.5 -50.5t49.5 -122.5t-49.5 -120.5t-121.5 -48.5t-121 48.5t-49 120.5t49 122.5t121 50.5z" />
    <glyph glyph-name="uni1E92" unicode="&#x1e92;" horiz-adv-x="1313" 
d="M1401 1434l-48 -231l-900 -940h734l-57 -263h-1116l52 237l898 933h-727l56 264h1108zM551 -105q72 0 121.5 -50.5t49.5 -122.5t-49.5 -120.5t-121.5 -48.5t-121 48.5t-49 120.5t49 122.5t121 50.5z" />
    <glyph glyph-name="uni1E93" unicode="&#x1e93;" horiz-adv-x="1031" 
d="M1031 992l-44 -204l-573 -549h483l-50 -239h-847l42 204l581 551h-476l52 237h832zM385 -105q72 0 121.5 -50.5t49.5 -122.5t-49.5 -120.5t-121.5 -48.5t-121 48.5t-49 120.5t49 122.5t121 50.5z" />
    <glyph glyph-name="uni1E94" unicode="&#x1e94;" horiz-adv-x="1313" 
d="M1401 1434l-48 -231l-900 -940h734l-57 -263h-1116l52 237l898 933h-727l56 264h1108zM185 -376l46 215h678l-46 -215h-678z" />
    <glyph glyph-name="uni1E95" unicode="&#x1e95;" horiz-adv-x="1031" 
d="M1031 992l-44 -204l-573 -549h483l-50 -239h-847l42 204l581 551h-476l52 237h832zM18 -376l47 215h677l-46 -215h-678z" />
    <glyph glyph-name="uni1E96" unicode="&#x1e96;" horiz-adv-x="1188" 
d="M760 1019q153 0 243.5 -92.5t90.5 -240.5q0 -52 -12 -107l-124 -579h-268l120 557q7 32 7 66q0 66 -37 105.5t-117 39.5q-91 0 -159.5 -57t-94.5 -179l-113 -532h-269l313 1475h268l-120 -567q107 111 272 111zM75 -376l46 215h678l-46 -215h-678z" />
    <glyph glyph-name="uni1E9E" unicode="&#x1e9e;" horiz-adv-x="1475" 
d="M34 0l199 940q23 108 71.5 199t125 164t189.5 114.5t253 41.5q191 0 346.5 -84t231.5 -220l-393 -363q167 -51 249 -158t61 -260q-25 -186 -178.5 -293.5t-374.5 -107.5q-186 0 -336 51l92 256q104 -40 237 -40q243 0 263 152q12 88 -65.5 141.5t-228.5 53.5h-94l44 209
l356 334q-81 64 -231 64q-125 0 -216 -80.5t-118 -208.5l-191 -905h-292z" />
    <glyph glyph-name="Ygrave" unicode="&#x1ef2;" horiz-adv-x="1379" 
d="M1571 1434l-719 -869l-121 -565h-292l125 590l-356 844h305l236 -598l474 598h348zM794 1554l-271 323h320l206 -323h-255z" />
    <glyph glyph-name="ygrave" unicode="&#x1ef3;" horiz-adv-x="1146" 
d="M1245 992l-965 -1406h-306l462 654l-320 752h288l201 -505l336 505h304zM608 1135l-270 322h319l206 -322h-255z" />
    <glyph glyph-name="uni1EF4" unicode="&#x1ef4;" horiz-adv-x="1379" 
d="M1571 1434l-719 -869l-121 -565h-292l125 590l-356 844h305l236 -598l474 598h348zM532 -105q72 0 121.5 -50.5t49.5 -122.5t-49.5 -120.5t-121.5 -48.5t-121 48.5t-49 120.5t49 122.5t121 50.5z" />
    <glyph glyph-name="uni1EF5" unicode="&#x1ef5;" horiz-adv-x="1146" 
d="M1245 992l-965 -1406h-306l462 654l-320 752h288l201 -505l336 505h304zM763 -105q72 0 121.5 -50.5t49.5 -122.5t-49.5 -120.5t-121.5 -48.5t-121 48.5t-49 120.5t49 122.5t121 50.5z" />
    <glyph glyph-name="uni2007" unicode="&#x2007;" horiz-adv-x="1436" 
 />
    <glyph glyph-name="uni2008" unicode="&#x2008;" horiz-adv-x="550" 
 />
    <glyph glyph-name="uni2009" unicode="&#x2009;" horiz-adv-x="168" 
 />
    <glyph glyph-name="uni200B" unicode="&#x200b;" horiz-adv-x="0" 
 />
    <glyph glyph-name="uni2010" unicode="&#x2010;" horiz-adv-x="813" 
d="M738 662l-49 -234h-595l49 234h595z" />
    <glyph glyph-name="uni2011" unicode="&#x2011;" horiz-adv-x="813" 
d="M738 662l-49 -234h-595l49 234h595z" />
    <glyph glyph-name="figuredash" unicode="&#x2012;" horiz-adv-x="1228" 
d="M1123 659l-47 -228h-974l48 228h973z" />
    <glyph glyph-name="endash" unicode="&#x2013;" horiz-adv-x="1162" 
d="M1102 659l-47 -228h-974l47 228h974z" />
    <glyph glyph-name="emdash" unicode="&#x2014;" horiz-adv-x="1605" 
d="M1592 659l-47 -228h-1510l46 228h1511z" />
    <glyph glyph-name="quoteleft" unicode="&#x2018;" horiz-adv-x="536" 
d="M465 864h-299l258 611h240z" />
    <glyph glyph-name="quoteright" unicode="&#x2019;" horiz-adv-x="536" 
d="M358 1475h299l-258 -611h-239z" />
    <glyph glyph-name="quotesinglbase" unicode="&#x201a;" horiz-adv-x="536" 
d="M114 324h299l-258 -611h-240z" />
    <glyph glyph-name="quotedblleft" unicode="&#x201c;" horiz-adv-x="979" 
d="M465 864h-299l258 611h240zM908 864h-299l258 611h240z" />
    <glyph glyph-name="quotedblright" unicode="&#x201d;" horiz-adv-x="979" 
d="M802 1475h299l-258 -611h-240zM358 1475h299l-258 -611h-239z" />
    <glyph glyph-name="quotedblbase" unicode="&#x201e;" horiz-adv-x="979" 
d="M557 324h299l-258 -611h-240zM114 324h299l-258 -611h-240z" />
    <glyph glyph-name="dagger" unicode="&#x2020;" horiz-adv-x="806" 
d="M534 616h-208l91 433h-221l43 203h221l47 223h209l-47 -223h221l-44 -203h-221z" />
    <glyph glyph-name="daggerdbl" unicode="&#x2021;" horiz-adv-x="806" 
d="M716 1475l-36 -170h221l-42 -196h-221l-29 -134h221l-42 -196h-220l-36 -170h-208l35 170h-221l42 196h220l29 134h-220l42 196h220l36 170h209z" />
    <glyph glyph-name="bullet" unicode="&#x2022;" horiz-adv-x="881" 
d="M456 869q134 0 229 -94.5t95 -229.5t-95 -230t-229 -95t-229.5 95t-95.5 230t95 229.5t230 94.5z" />
    <glyph glyph-name="uni2023" unicode="&#x2023;" horiz-adv-x="1029" 
d="M951 545l-852 -440l187 879z" />
    <glyph glyph-name="ellipsis" unicode="&#x2026;" horiz-adv-x="1683" 
d="M210 372q80 0 139 -59t59 -139q0 -81 -59 -140.5t-139 -59.5t-139.5 59.5t-59.5 140.5q0 79 59.5 138.5t139.5 59.5zM777 372q79 0 138.5 -59.5t59.5 -138.5q0 -81 -59.5 -140.5t-138.5 -59.5q-80 0 -139.5 59.5t-59.5 140.5q0 79 59.5 138.5t139.5 59.5zM1343 372
q79 0 138.5 -59t59.5 -139q0 -81 -59 -140.5t-139 -59.5t-139 59.5t-59 140.5q0 80 59.5 139t138.5 59z" />
    <glyph glyph-name="perthousand" unicode="&#x2030;" horiz-adv-x="2913" 
d="M607 1459q161 0 264.5 -100.5t103.5 -258.5q0 -172 -120 -296t-296 -124q-162 0 -266 100.5t-104 258.5q0 172 121 296t297 124zM595 1246q-76 0 -127 -56.5t-51 -135.5q0 -70 43 -115.5t110 -45.5q76 0 127.5 56.5t51.5 135.5q0 70 -43.5 115.5t-110.5 45.5zM1788 1434
l-1137 -1434h-281l1136 1434h282zM1599 754q160 0 264 -101.5t104 -259.5q0 -172 -120.5 -296t-296.5 -124q-161 0 -264.5 101.5t-103.5 258.5q0 173 120.5 297t296.5 124zM1587 540q-76 0 -127 -57t-51 -136q0 -70 43.5 -115t109.5 -45q77 0 127.5 56.5t50.5 135.5
q0 70 -43 115.5t-110 45.5zM2449 754q161 0 264.5 -101.5t103.5 -259.5q0 -172 -120 -296t-296 -124q-161 0 -265 101.5t-104 258.5q0 173 120.5 297t296.5 124zM2437 540q-76 0 -127 -57t-51 -136q0 -70 43.5 -115t110.5 -45q76 0 126.5 56.5t50.5 135.5q0 70 -43 115.5
t-110 45.5z" />
    <glyph glyph-name="minute" unicode="&#x2032;" horiz-adv-x="581" 
d="M429 1434h264l-296 -698h-265z" />
    <glyph glyph-name="second" unicode="&#x2033;" horiz-adv-x="979" 
d="M827 1434h265l-296 -698h-266zM429 1434h264l-296 -698h-265z" />
    <glyph glyph-name="uni2034" unicode="&#x2034;" horiz-adv-x="1334" 
d="M805 1434h264l-296 -698h-265zM1182 1434h264l-296 -698h-265zM429 1434h264l-296 -698h-265z" />
    <glyph glyph-name="guilsinglleft" unicode="&#x2039;" horiz-adv-x="653" 
d="M654 944l-302 -427l105 -372h-255l-112 400l283 399h281z" />
    <glyph glyph-name="guilsinglright" unicode="&#x203a;" horiz-adv-x="653" 
d="M19 146l303 427l-105 372h255l112 -399l-283 -400h-282z" />
    <glyph glyph-name="fraction" unicode="&#x2044;" horiz-adv-x="487" 
d="M920 1434l-1081 -1434h-259l1080 1434h260z" />
    <glyph glyph-name="uni2070" unicode="&#x2070;" horiz-adv-x="912" 
d="M629 1449q145 0 235.5 -91t90.5 -249q0 -73 -18 -147.5t-55.5 -143.5t-89 -123t-124 -86t-155.5 -32q-146 0 -237 90.5t-91 247.5q0 73 18.5 148t56 144t89.5 123t124.5 86.5t155.5 32.5zM616 1257q-67 0 -119 -52.5t-76 -124.5t-24 -145q0 -78 33.5 -122.5t93.5 -44.5
q67 0 119.5 52.5t76.5 124.5t24 146q0 79 -33.5 122.5t-94.5 43.5z" />
    <glyph glyph-name="uni2071" unicode="&#x2071;" horiz-adv-x="448" 
d="M500 1298l-151 -706h-197l149 706h199zM442 1652q53 0 89.5 -35.5t36.5 -88.5t-36.5 -89t-89.5 -36t-88.5 36t-35.5 89t35.5 88.5t88.5 35.5z" />
    <glyph glyph-name="uni2074" unicode="&#x2074;" horiz-adv-x="735" 
d="M736 1140l-47 -220h107l-39 -186h-108l-29 -142h-200l30 142h-366l34 159l363 540h228l-345 -513h125l20 93l85 127h142z" />
    <glyph glyph-name="uni2075" unicode="&#x2075;" horiz-adv-x="733" 
d="M799 1434l-39 -184h-317l-32 -130h53q148 0 224 -83t50 -206q-26 -127 -119 -190.5t-233 -63.5q-91 0 -167 31.5t-122 88.5l118 132q67 -71 180 -71q62 0 97.5 23.5t43.5 64.5q8 46 -23.5 73.5t-109.5 27.5h-206l111 487h491z" />
    <glyph glyph-name="uni2076" unicode="&#x2076;" horiz-adv-x="764" 
d="M777 1434l-254 -284q122 -6 198.5 -74.5t76.5 -182.5q0 -132 -98 -224t-250 -92q-135 0 -227 75t-92 197q0 131 117 265l275 320h254zM471 983q-57 0 -93 -35.5t-36 -87.5q0 -47 32 -76.5t83 -29.5q57 0 93.5 36t36.5 89q0 46 -33 75t-83 29z" />
    <glyph glyph-name="uni2077" unicode="&#x2077;" horiz-adv-x="698" 
d="M852 1434l-34 -167l-423 -675h-238l420 656h-375l39 186h611z" />
    <glyph glyph-name="uni2078" unicode="&#x2078;" horiz-adv-x="800" 
d="M583 1448q124 0 207.5 -58t83.5 -155q0 -73 -47 -132.5t-131 -92.5q112 -55 112 -159q0 -116 -99.5 -195t-269.5 -79q-132 0 -218.5 59.5t-86.5 157.5q0 75 49.5 134.5t139.5 91.5q-90 52 -90 149q0 117 96 198t254 81zM486 940q-57 0 -94.5 -30t-37.5 -79
q0 -37 31.5 -59t75.5 -22q58 0 96 29t38 78q0 38 -31.5 60.5t-77.5 22.5zM564 1275q-54 0 -87.5 -28.5t-33.5 -71.5q0 -35 26.5 -56t69.5 -21q52 0 86.5 28.5t34.5 71.5q0 35 -28 56t-68 21z" />
    <glyph glyph-name="uni2079" unicode="&#x2079;" horiz-adv-x="764" 
d="M207 592l253 282q-122 7 -198 75.5t-76 183.5q0 131 98.5 223t250.5 92q135 0 226.5 -74.5t91.5 -196.5q0 -132 -117 -266l-275 -319h-254zM514 1042q57 0 93 35.5t36 87.5q0 46 -32.5 76t-83.5 30q-58 0 -94 -36t-36 -89q0 -46 33 -75t84 -29z" />
    <glyph glyph-name="uni207F" unicode="&#x207f;" horiz-adv-x="837" 
d="M637 1318q111 0 176 -66t65 -173q0 -34 -10 -79l-89 -408h-197l85 397q5 25 5 43q0 46 -26 73t-80 27q-137 0 -172 -162l-79 -378h-198l150 706h191l-15 -58q77 78 194 78z" />
    <glyph glyph-name="uni2080" unicode="&#x2080;" horiz-adv-x="912" 
d="M422 463q146 0 236.5 -91t90.5 -249q0 -92 -30 -185t-84 -171.5t-140.5 -127.5t-188.5 -49q-146 0 -237 91t-91 248q0 73 18.5 148t56 144t89.5 123t124.5 86.5t155.5 32.5zM410 271q-67 0 -119.5 -52.5t-76.5 -124.5t-24 -145q0 -78 33.5 -122.5t93.5 -44.5q68 0 120 52
t76.5 124.5t24.5 145.5q0 79 -33.5 123t-94.5 44z" />
    <glyph glyph-name="uni2081" unicode="&#x2081;" horiz-adv-x="539" 
d="M418 461l-181 -855h-200l124 583l-196 -60l43 205z" />
    <glyph glyph-name="uni2082" unicode="&#x2082;" horiz-adv-x="744" 
d="M131 194l-111 134q120 134 299 134q136 0 209 -72.5t73 -174.5q0 -84 -42 -149t-151 -154l-152 -122h289l-39 -184h-580l34 160l323 262q62 50 86.5 85.5t24.5 71.5q0 37 -28 61.5t-77 24.5q-48 0 -82 -18.5t-76 -58.5z" />
    <glyph glyph-name="uni2083" unicode="&#x2083;" horiz-adv-x="738" 
d="M103 210l-91 141q119 111 300 111q129 0 207.5 -63.5t78.5 -155.5q0 -71 -45.5 -132.5t-120.5 -91.5q103 -51 103 -157q0 -115 -93.5 -193.5t-251.5 -78.5q-206 0 -292 123l130 124q57 -69 166 -69q67 0 102 27.5t35 71.5q0 37 -34.5 58t-89.5 21h-92l35 170h91
q69 0 108.5 27.5t39.5 69.5q0 34 -29 53.5t-79 19.5q-94 0 -178 -76z" />
    <glyph glyph-name="uni2084" unicode="&#x2084;" horiz-adv-x="735" 
d="M527 154l-47 -221h107l-39 -185h-108l-29 -142h-200l30 142h-366l34 159l363 539h228l-345 -513h126l19 94l85 127h142z" />
    <glyph glyph-name="uni2085" unicode="&#x2085;" horiz-adv-x="732" 
d="M591 447l-39 -183h-316l-33 -130h53q148 0 224 -83t50 -206q-26 -127 -119 -191t-233 -64q-91 0 -167 31.5t-122 89.5l118 132q67 -71 180 -71q62 0 97.5 23.5t43.5 64.5q8 46 -23 73.5t-109 27.5h-207l111 486h491z" />
    <glyph glyph-name="uni2086" unicode="&#x2086;" horiz-adv-x="764" 
d="M569 447l-254 -283q122 -6 198.5 -74.5t76.5 -182.5q0 -132 -98 -224.5t-250 -92.5q-135 0 -227 75.5t-92 197.5q0 131 117 265l275 319h254zM263 -3q-57 0 -93 -35.5t-36 -87.5q0 -47 32 -76.5t83 -29.5q58 0 94 35.5t36 88.5q0 46 -33 75.5t-83 29.5z" />
    <glyph glyph-name="uni2087" unicode="&#x2087;" horiz-adv-x="698" 
d="M644 447l-34 -166l-423 -675h-238l420 656h-375l39 185h611z" />
    <glyph glyph-name="uni2088" unicode="&#x2088;" horiz-adv-x="800" 
d="M376 462q124 0 208 -58.5t84 -154.5q0 -73 -47 -132.5t-132 -92.5q112 -55 112 -159q0 -116 -100 -195.5t-269 -79.5q-132 0 -218.5 59.5t-86.5 157.5q0 75 49.5 135t139.5 92q-89 52 -89 149q0 117 95.5 198t253.5 81zM280 -46q-57 0 -95 -30t-38 -79q0 -37 31.5 -59.5
t75.5 -22.5q58 0 96 29.5t38 78.5q0 38 -31 60.5t-77 22.5zM357 289q-54 0 -87 -28.5t-33 -72.5q0 -35 26 -55.5t69 -20.5q52 0 87 28.5t35 71.5q0 35 -28 56t-69 21z" />
    <glyph glyph-name="uni2089" unicode="&#x2089;" horiz-adv-x="764" 
d="M-4 -394l253 282q-122 7 -198 75t-76 183q0 132 98.5 224t250.5 92q135 0 226.5 -75t91.5 -197q0 -131 -117 -265l-275 -319h-254zM303 56q57 0 93 35.5t36 87.5q0 46 -32.5 76t-83.5 30q-58 0 -94 -36t-36 -89q0 -46 33 -75t84 -29z" />
    <glyph glyph-name="Euro" unicode="&#x20ac;" horiz-adv-x="1433" 
d="M1191 374l135 -194q-182 -200 -441 -200q-234 0 -392 129t-200 354h-199l40 189h146q2 70 13 138h-137l40 189h147q86 225 267 351t417 126q293 0 477 -211l-181 -189q-122 151 -311 151q-118 0 -215 -59.5t-158 -168.5h537l-41 -189h-563q-12 -65 -15 -138h549l-40 -189
h-481q37 -111 119 -172.5t195 -61.5q169 0 292 145z" />
    <glyph glyph-name="uni20BA" unicode="&#x20ba;" horiz-adv-x="1433" 
d="M1080 498l216 -137q-94 -197 -246.5 -279t-379.5 -82h-451l71 332l-186 -79l43 213l188 80l31 142l-188 -80l44 212l189 81l113 535h280l-86 -404l419 179l-44 -213l-420 -179l-31 -141l420 179l-44 -214l-421 -180l-43 -201h139q64 0 115 9.5t102.5 34t94 73t75.5 119.5
z" />
    <glyph glyph-name="uni2100" unicode="&#x2100;" horiz-adv-x="2048" 
d="M665 1459q140 0 221.5 -68t81.5 -187q0 -33 -10 -81l-82 -390h-192l10 51q-83 -69 -189 -69q-104 0 -168 55.5t-64 142.5q0 112 83.5 179.5t228.5 67.5h182q1 7 1 21q0 104 -139 104q-89 0 -191 -56l-52 160q126 70 279 70zM568 873q84 0 156 69l17 81h-138
q-56 0 -88 -22.5t-32 -60.5q0 -31 22.5 -49t62.5 -18zM1779 1434l-1081 -1434h-259l1081 1434h259zM1916 544l-169 -92q-51 78 -145 78q-82 0 -137 -60.5t-55 -146.5q0 -72 43 -118.5t108 -46.5q86 0 147 68l134 -121q-113 -132 -290 -132q-153 0 -249.5 94.5t-96.5 240.5
q0 169 114.5 288t291.5 119q215 0 304 -171z" />
    <glyph glyph-name="uni2101" unicode="&#x2101;" horiz-adv-x="2048" 
d="M656 1459q140 0 221.5 -68t81.5 -187q0 -38 -9 -81l-83 -390h-191l10 51q-83 -69 -189 -69q-104 0 -168 55.5t-64 142.5q0 112 83.5 179.5t228.5 67.5h182q1 7 1 21q0 104 -139 104q-89 0 -191 -56l-52 160q126 70 278 70zM560 873q84 0 156 69l17 81h-138
q-56 0 -88 -22.5t-32 -60.5q0 -31 22.5 -49t62.5 -18zM1762 1434l-1080 -1434h-259l1080 1434h259zM1877 637l-87 -148q-49 29 -113 45.5t-109 16.5q-102 0 -108 -53q-2 -23 10.5 -36t30.5 -18.5t58 -12.5l47 -9q227 -43 206 -219q-12 -109 -97.5 -170t-227.5 -61
q-88 0 -176.5 25.5t-147.5 69.5l92 146q113 -77 236 -77q114 0 120 61q3 26 -20 41t-77 23l-48 7q-231 39 -210 226q13 107 95.5 164.5t216.5 57.5q170 0 309 -79z" />
    <glyph glyph-name="afii61248" unicode="&#x2105;" horiz-adv-x="2048" 
d="M946 1287l-169 -92q-51 79 -145 79q-82 0 -137 -61t-55 -147q0 -72 43 -118.5t108 -46.5q85 0 147 69l134 -121q-113 -132 -289 -132q-153 0 -249.5 94.5t-96.5 240.5q0 169 114 287.5t291 118.5q215 0 304 -171zM1704 1434l-1080 -1434h-259l1080 1434h259zM1550 716
q154 0 254.5 -94t100.5 -245q0 -168 -117.5 -287t-292.5 -119q-154 0 -254 94t-100 246q0 168 117 286.5t292 118.5zM1536 530q-81 0 -136 -60t-55 -147q0 -73 45 -120t116 -47q83 0 139.5 61t56.5 148q0 73 -46.5 119t-119.5 46z" />
    <glyph glyph-name="uni2106" unicode="&#x2106;" horiz-adv-x="2048" 
d="M950 1287l-169 -92q-51 79 -145 79q-82 0 -137 -61t-55 -147q0 -72 43 -118.5t108 -46.5q85 0 147 69l135 -121q-113 -132 -290 -132q-153 0 -249.5 94.5t-96.5 240.5q0 169 114 287.5t291 118.5q215 0 304 -171zM1701 1434l-1080 -1434h-260l1081 1434h259zM1948 707
l-87 -414q-35 -164 -135.5 -238t-241.5 -74q-131 0 -212 68t-81 191q0 35 10 87l80 380h199l-84 -397q-5 -20 -5 -45q0 -98 110 -98q63 0 107 40.5t61 120.5l81 379h198z" />
    <glyph glyph-name="afii61289" unicode="&#x2113;" horiz-adv-x="1070" 
d="M201 375l-79 224q82 28 158 64l1 436q1 179 100 290t265 111q150 0 247 -96t97 -246q0 -373 -461 -634v-154q0 -74 38.5 -111.5t99.5 -37.5q88 0 190 66l105 -203q-145 -101 -314 -101q-177 0 -272.5 95.5t-95.5 281.5v46q-63 -26 -79 -31zM530 1089l-1 -281
q210 160 211 339q0 56 -25 88t-70 32q-52 0 -83.5 -46t-31.5 -132z" />
    <glyph glyph-name="afii61352" unicode="&#x2116;" horiz-adv-x="2433" 
d="M2393 596l-47 -222h-724l48 222h723zM2138 1452q160 0 261.5 -96t101.5 -247q0 -108 -53 -199t-147.5 -145.5t-208.5 -54.5q-159 0 -260 96t-101 244q0 166 116 284t291 118zM2128 1262q-83 0 -136.5 -58t-53.5 -141q0 -71 46.5 -117.5t117.5 -46.5q83 0 137 58.5
t54 141.5q0 71 -46.5 117t-118.5 46zM1626 1434l-305 -1434h-268l-502 987l-210 -987h-291l305 1434h270l500 -988l210 988h291z" />
    <glyph glyph-name="uni2117" unicode="&#x2117;" horiz-adv-x="1903" 
d="M945 -97q-215 0 -396 99t-288.5 276.5t-107.5 393.5q0 172 71 333t191.5 281t289 192.5t353.5 72.5q160 0 305.5 -58.5t252.5 -159.5t170 -245t63 -306q0 -172 -71 -333t-191 -281t-288.5 -192.5t-353.5 -72.5zM1042 1327q-135 0 -257 -53.5t-208 -141.5t-136.5 -205
t-50.5 -241q0 -159 78 -288t208.5 -200t284.5 -71q135 0 257 53.5t208 141.5t136.5 205t50.5 241q0 159 -78 288t-208.5 200t-284.5 71zM790 1144h339q118 0 199 -46t111 -117.5t12 -152.5q-26 -125 -124.5 -187t-253.5 -62h-182l-60 -279h-221zM1116 951h-146l-39 -185h145
q70 0 108.5 19.5t47.5 65.5q9 43 -21 71.5t-95 28.5z" />
    <glyph glyph-name="uni2120" unicode="&#x2120;" horiz-adv-x="1657" 
d="M822 1364l-84 -132q-46 31 -104.5 45t-105.5 14q-105 0 -105 -53q0 -28 29 -41.5t80 -20.5l32 -6q97 -15 151 -61.5t54 -118.5q0 -105 -84 -168t-219 -63q-82 0 -169 24t-144 68l92 132q105 -74 232 -74q49 0 79.5 14.5t30.5 42.5q0 25 -26 37t-90 23l-34 5
q-92 15 -143.5 62.5t-51.5 121.5q0 101 75.5 164.5t209.5 63.5q171 0 295 -79zM1654 771h-183l92 429l-213 -367h-183l-58 368l-91 -430h-180l140 663h248l69 -398l237 398h262z" />
    <glyph glyph-name="trademark" unicode="&#x2122;" horiz-adv-x="1653" 
d="M1650 771h-183l92 429l-213 -367h-183l-58 368l-91 -430h-180l140 663h248l69 -398l237 398h262zM511 771h-181l105 497h-209l36 166h599l-36 -166h-209z" />
    <glyph glyph-name="Omega" unicode="&#x2126;" horiz-adv-x="1734" 
d="M1654 260l-56 -260h-651l50 237q167 46 268 194t101 332q0 183 -119 303.5t-308 120.5q-142 0 -255.5 -72.5t-175 -193t-61.5 -263.5q0 -153 75.5 -263t205.5 -151l-51 -244h-651l55 260h269q-196 177 -196 446q0 157 62.5 297t169 239.5t254 158t311.5 58.5
q209 0 373.5 -83t255.5 -231t91 -336q0 -157 -65 -299t-189 -250h237z" />
    <glyph glyph-name="estimated" unicode="&#x212e;" horiz-adv-x="2048" 
d="M577 666v-314q0 -96 31.5 -162.5t107.5 -109.5q173 -97 369 -97q190 0 349.5 82t257.5 229l82 -64q-113 -166 -294 -258.5t-395 -92.5q-170 0 -322.5 61t-264.5 169t-178 266t-66 342t66 342t178 265.5t264.5 168.5t322.5 61q171 0 323 -61t264.5 -168.5t178.5 -265.5
t66 -342q0 -35 -1 -51h-1339zM577 768h1030v303q0 94 -31 160.5t-105 111.5q-178 108 -386 108q-196 0 -369 -97q-75 -43 -107 -110t-32 -163v-313z" />
    <glyph glyph-name="uni214D" unicode="&#x214d;" horiz-adv-x="2102" 
d="M845 1434l116 -761h-198l-18 143h-276l-77 -143h-215l435 761h233zM1960 682l-98 -155q-49 35 -115 52t-115 17q-53 0 -80 -16t-27 -42q0 -15 9.5 -26.5t30.5 -20t36.5 -12.5t44.5 -11l30 -7q221 -52 221 -205q0 -124 -93.5 -197t-245.5 -73q-98 0 -194.5 27.5
t-157.5 78.5l110 156q119 -86 256 -86q51 0 80.5 16t29.5 47q0 28 -28 42t-95 26l-33 6q-103 20 -159 72.5t-56 136.5q0 119 85 192.5t234 73.5q194 0 330 -92zM695 1240l-132 -248h162zM1831 1434l-1080 -1434h-259l1080 1434h259z" />
    <glyph glyph-name="uni2150" unicode="&#x2150;" horiz-adv-x="1790" 
d="M1496 1434l-1080 -1434h-259l1080 1434h259zM1817 842l-34 -167l-423 -675h-239l420 656h-375l39 186h612zM627 1447l-182 -855h-199l124 584l-196 -61l43 205z" />
    <glyph glyph-name="uni2151" unicode="&#x2151;" horiz-adv-x="1828" 
d="M1496 1434l-1080 -1434h-259l1080 1434h259zM1147 0l253 283q-122 7 -198 75t-76 183q0 131 98.5 223t250.5 92q135 0 226.5 -74.5t91.5 -196.5q0 -132 -117 -266l-275 -319h-254zM1454 451q57 0 93 35.5t36 86.5q0 46 -32.5 76t-83.5 30q-58 0 -94 -36t-36 -89
q0 -46 33 -74.5t84 -28.5zM627 1447l-182 -855h-199l124 584l-196 -61l43 205z" />
    <glyph glyph-name="uni2152" unicode="&#x2152;" horiz-adv-x="2525" 
d="M1496 1434l-1080 -1434h-259l1080 1434h259zM1567 855l-182 -855h-199l124 584l-196 -61l43 205zM2113 857q145 0 235.5 -91t90.5 -249q0 -73 -18 -147.5t-55.5 -143.5t-89 -123t-124 -86t-155.5 -32q-146 0 -237 91t-91 248q0 92 30 185t84.5 171.5t141 127.5t188.5 49z
M2100 666q-67 0 -119 -52.5t-76 -125t-24 -145.5q0 -78 33.5 -122.5t93.5 -44.5q67 0 119.5 52.5t76.5 124.5t24 146q0 79 -33.5 123t-94.5 44zM627 1447l-182 -855h-199l124 584l-196 -61l43 205z" />
    <glyph glyph-name="onethird" unicode="&#x2153;" horiz-adv-x="1801" 
d="M1496 1434l-1080 -1434h-259l1080 1434h259zM1248 604l-91 141q119 111 300 111q129 0 207.5 -63.5t78.5 -155.5q0 -71 -45.5 -132t-120.5 -91q50 -24 76 -65.5t26 -92.5q0 -115 -93 -193t-251 -78q-207 0 -293 123l130 123q57 -69 166 -69q67 0 102.5 27.5t35.5 71.5
q0 37 -34.5 58t-89.5 21h-92l34 170h91q69 0 109 27.5t40 69.5q0 34 -29.5 53.5t-79.5 19.5q-93 0 -177 -76zM627 1447l-182 -855h-199l124 584l-196 -61l43 205z" />
    <glyph glyph-name="twothirds" unicode="&#x2154;" horiz-adv-x="2037" 
d="M1733 1434l-1081 -1434h-259l1081 1434h259zM1485 604l-91 141q119 111 300 111q129 0 207 -63.5t78 -155.5q0 -71 -45 -132t-120 -91q50 -24 76 -65.5t26 -92.5q0 -115 -93 -193t-251 -78q-207 0 -293 123l130 123q57 -69 166 -69q67 0 102 27.5t35 71.5q0 37 -34.5 58
t-89.5 21h-92l35 170h91q69 0 108.5 27.5t39.5 69.5q0 34 -29 53.5t-79 19.5q-93 0 -177 -76zM338 1180l-111 134q120 134 299 134q136 0 209 -72.5t73 -174.5q0 -83 -42 -148.5t-152 -154.5l-151 -122h289l-39 -184h-580l34 160l322 262q62 51 87 86.5t25 70.5
q0 37 -28 61.5t-77 24.5q-48 0 -82 -18.5t-76 -58.5z" />
    <glyph glyph-name="uni2155" unicode="&#x2155;" horiz-adv-x="1798" 
d="M1496 1434l-1080 -1434h-259l1080 1434h259zM1735 842l-39 -184h-317l-32 -130h53q148 0 224 -82.5t50 -205.5q-26 -127 -119 -191t-233 -64q-91 0 -167 31.5t-122 88.5l118 133q67 -72 180 -72q62 0 97 23.5t43 64.5q8 46 -23 73.5t-109 27.5h-206l111 487h491z
M627 1447l-182 -855h-199l124 584l-196 -61l43 205z" />
    <glyph glyph-name="uni2156" unicode="&#x2156;" horiz-adv-x="2034" 
d="M1733 1434l-1081 -1434h-259l1081 1434h259zM1971 842l-39 -184h-316l-33 -130h53q148 0 224.5 -82.5t50.5 -205.5q-26 -127 -119 -191t-233 -64q-91 0 -167 31.5t-122 88.5l118 133q68 -72 180 -72q62 0 97 23.5t43 64.5q8 46 -23 73.5t-109 27.5h-207l112 487h490z
M338 1180l-111 134q120 134 299 134q136 0 209 -72.5t73 -174.5q0 -83 -42 -148.5t-152 -154.5l-151 -122h289l-39 -184h-580l34 160l322 262q62 51 87 86.5t25 70.5q0 37 -28 61.5t-77 24.5q-48 0 -82 -18.5t-76 -58.5z" />
    <glyph glyph-name="uni2157" unicode="&#x2157;" horiz-adv-x="1968" 
d="M1666 1434l-1080 -1434h-259l1080 1434h259zM1905 842l-39 -184h-317l-32 -130h53q148 0 224 -82.5t50 -205.5q-26 -127 -119 -191t-233 -64q-91 0 -167 31.5t-122 88.5l118 133q67 -72 180 -72q62 0 97 23.5t43 64.5q8 46 -23 73.5t-109 27.5h-206l111 487h491z
M311 1196l-91 141q119 111 300 111q129 0 207.5 -63.5t78.5 -155.5q0 -71 -45.5 -132t-120.5 -91q50 -24 76 -65.5t26 -92.5q0 -115 -93 -193t-251 -78q-207 0 -293 122l131 124q57 -69 165 -69q67 0 102.5 27.5t35.5 71.5q0 37 -34.5 58t-89.5 21h-92l34 170h92
q69 0 108.5 27.5t39.5 69.5q0 34 -29.5 53.5t-79.5 19.5q-93 0 -177 -76z" />
    <glyph glyph-name="uni2158" unicode="&#x2158;" horiz-adv-x="1988" 
d="M1687 1434l-1081 -1434h-259l1080 1434h260zM1924 842l-39 -184h-316l-33 -130h53q148 0 224.5 -82.5t50.5 -205.5q-26 -127 -119.5 -191t-233.5 -64q-91 0 -166.5 31t-121.5 89l117 133q68 -72 181 -72q62 0 97 23.5t43 64.5q8 46 -23 73.5t-109 27.5h-207l112 487h490z
M736 1140l-47 -220h107l-39 -186h-108l-29 -142h-200l30 142h-366l34 159l363 540h228l-345 -513h125l20 93l85 127h142z" />
    <glyph glyph-name="uni2159" unicode="&#x2159;" horiz-adv-x="1717" 
d="M1496 1434l-1080 -1434h-259l1080 1434h259zM1602 842l-254 -284q122 -6 198 -74.5t76 -182.5q0 -132 -98 -224t-250 -92q-135 0 -227 75t-92 197q0 131 117 265l276 320h254zM1295 391q-57 0 -93 -35.5t-36 -87.5q0 -47 32 -76.5t83 -29.5q57 0 93.5 36t36.5 89
q0 46 -33 75t-83 29zM627 1447l-182 -855h-199l124 584l-196 -61l43 205z" />
    <glyph glyph-name="uni215A" unicode="&#x215a;" horiz-adv-x="1881" 
d="M1661 1434l-1080 -1434h-259l1080 1434h259zM1765 842l-254 -284q122 -6 198.5 -74.5t76.5 -182.5q0 -132 -98 -224t-250 -92q-135 0 -227 75t-92 197q0 131 117 265l275 320h254zM1459 391q-57 0 -93 -35.5t-36 -87.5q0 -47 32 -76.5t83 -29.5q57 0 93.5 36t36.5 89
q0 46 -33 75t-83 29zM799 1434l-39 -184h-317l-32 -130h53q148 0 224 -83t50 -206q-26 -127 -119 -190.5t-233 -63.5q-91 0 -167 31.5t-122 88.5l118 132q67 -71 180 -71q62 0 97.5 23.5t43.5 64.5q8 46 -23.5 73.5t-109.5 27.5h-206l111 487h491z" />
    <glyph glyph-name="oneeighth" unicode="&#x215b;" horiz-adv-x="1829" 
d="M1496 1434l-1080 -1434h-259l1080 1434h259zM1484 856q124 0 208 -58.5t84 -154.5q0 -73 -47 -132.5t-132 -92.5q112 -55 112 -159q0 -116 -99.5 -195t-269.5 -79q-132 0 -218.5 59.5t-86.5 157.5q0 75 49.5 134.5t139.5 91.5q-89 52 -89 150q0 117 95.5 197.5
t253.5 80.5zM1388 348q-57 0 -95 -30t-38 -78q0 -37 31.5 -59.5t75.5 -22.5q58 0 96 29t38 78q0 38 -31 60.5t-77 22.5zM1465 683q-54 0 -87 -28.5t-33 -71.5q0 -36 26 -56.5t69 -20.5q52 0 87 28.5t35 71.5q0 35 -28 56t-69 21zM627 1447l-182 -855h-199l124 584l-196 -61
l43 205z" />
    <glyph glyph-name="threeeighths" unicode="&#x215c;" horiz-adv-x="1999" 
d="M1666 1434l-1080 -1434h-259l1080 1434h259zM1654 856q124 0 208 -58.5t84 -154.5q0 -73 -47 -132.5t-132 -92.5q112 -55 112 -159q0 -116 -99.5 -195t-269.5 -79q-132 0 -218.5 59.5t-86.5 157.5q0 75 49.5 134.5t139.5 91.5q-89 52 -89 150q0 117 95.5 197.5
t253.5 80.5zM1558 348q-57 0 -95 -30t-38 -78q0 -37 31.5 -59.5t75.5 -22.5q58 0 96 29t38 78q0 38 -31 60.5t-77 22.5zM1635 683q-54 0 -87.5 -28.5t-33.5 -71.5q0 -35 26.5 -56t69.5 -21q52 0 87 28.5t35 71.5q0 35 -28 56t-69 21zM311 1196l-91 141q119 111 300 111
q129 0 207.5 -63.5t78.5 -155.5q0 -71 -45.5 -132t-120.5 -91q50 -24 76 -65.5t26 -92.5q0 -115 -93 -193t-251 -78q-207 0 -293 122l131 124q57 -69 165 -69q67 0 102.5 27.5t35.5 71.5q0 37 -34.5 58t-89.5 21h-92l34 170h92q69 0 108.5 27.5t39.5 69.5q0 34 -29.5 53.5
t-79.5 19.5q-93 0 -177 -76z" />
    <glyph glyph-name="fiveeighths" unicode="&#x215d;" horiz-adv-x="1993" 
d="M1661 1434l-1080 -1434h-259l1080 1434h259zM1648 856q124 0 207.5 -58t83.5 -155q0 -73 -47 -132.5t-131 -92.5q112 -55 112 -159q0 -116 -99.5 -195t-269.5 -79q-132 0 -218.5 59.5t-86.5 157.5q0 75 49.5 134.5t139.5 91.5q-90 52 -90 150q0 117 96 197.5t254 80.5z
M1551 348q-57 0 -94.5 -29.5t-37.5 -78.5q0 -37 31.5 -59.5t75.5 -22.5q58 0 96 29t38 78q0 38 -31.5 60.5t-77.5 22.5zM1629 683q-54 0 -87.5 -28.5t-33.5 -71.5q0 -35 26.5 -56t69.5 -21q52 0 86.5 28.5t34.5 71.5q0 35 -28 56t-68 21zM799 1434l-39 -184h-317l-32 -130
h53q148 0 224 -83t50 -206q-26 -127 -119 -190.5t-233 -63.5q-91 0 -167 31.5t-122 88.5l118 132q67 -71 180 -71q62 0 97.5 23.5t43.5 64.5q8 46 -23.5 73.5t-109.5 27.5h-206l111 487h491z" />
    <glyph glyph-name="seveneighths" unicode="&#x215e;" horiz-adv-x="1884" 
d="M1550 1434l-1080 -1434h-259l1080 1434h259zM1538 856q124 0 208 -58.5t84 -154.5q0 -73 -47 -132.5t-131 -92.5q111 -55 111 -159q0 -116 -99.5 -195t-268.5 -79q-132 0 -218.5 59.5t-86.5 157.5q0 75 49 134.5t139 91.5q-89 52 -89 150q0 117 95.5 197.5t253.5 80.5z
M1442 348q-57 0 -94.5 -29.5t-37.5 -78.5q0 -38 31 -60t75 -22q58 0 96 29t38 78q0 38 -31 60.5t-77 22.5zM1520 683q-54 0 -87.5 -28.5t-33.5 -71.5q0 -36 26 -56.5t69 -20.5q52 0 87 28.5t35 71.5q0 35 -28 56t-68 21zM852 1434l-34 -167l-423 -675h-238l420 656h-375
l39 186h611z" />
    <glyph glyph-name="uni215F" unicode="&#x215f;" horiz-adv-x="1063" 
d="M1496 1434l-1080 -1434h-259l1080 1434h259zM627 1447l-182 -855h-199l124 584l-196 -61l43 205z" />
    <glyph glyph-name="uni2189" unicode="&#x2189;" horiz-adv-x="2137" 
d="M1832 1434l-1080 -1434h-259l1080 1434h259zM1583 604l-91 141q119 111 300 111q129 0 207.5 -63.5t78.5 -155.5q0 -71 -45.5 -132t-120.5 -91q50 -24 76 -65.5t26 -92.5q0 -115 -93 -193t-251 -78q-207 0 -293 123l130 123q57 -69 166 -69q67 0 102 27.5t35 71.5
q0 37 -34 58t-89 21h-93l35 170h91q69 0 109 27.5t40 69.5q0 34 -29.5 53.5t-79.5 19.5q-93 0 -177 -76zM629 1449q145 0 235.5 -91t90.5 -249q0 -73 -18 -147.5t-55.5 -143.5t-89 -123t-124 -86t-155.5 -32q-146 0 -237 90.5t-91 247.5q0 73 18.5 148t56 144t89.5 123
t124.5 86.5t155.5 32.5zM616 1257q-67 0 -119 -52.5t-76 -124.5t-24 -145q0 -78 33.5 -122.5t93.5 -44.5q67 0 119.5 52.5t76.5 124.5t24 146q0 79 -33.5 122.5t-94.5 43.5z" />
    <glyph glyph-name="arrowleft" unicode="&#x2190;" horiz-adv-x="2048" 
d="M1900 561h-995q-169 0 -291 8q120 -98 271 -247l150 -150l-165 -165l-669 671l669 670l165 -165l-150 -149q-145 -145 -271 -249q136 10 291 10h995v-234z" />
    <glyph glyph-name="arrowup" unicode="&#x2191;" horiz-adv-x="2048" 
d="M984 -127v993q0 169 8 291q-79 -97 -248 -270l-149 -151l-165 165l671 670l669 -670l-164 -165l-149 151q-159 161 -248 270q9 -137 9 -291v-993h-234z" />
    <glyph glyph-name="arrowright" unicode="&#x2192;" horiz-adv-x="2048" 
d="M233 795h995q155 0 291 -10q-121 100 -272 249l-149 149l165 165l669 -670l-669 -671l-165 165l149 150q137 137 272 247q-122 -8 -291 -8h-995v234z" />
    <glyph glyph-name="arrowdown" unicode="&#x2193;" horiz-adv-x="2048" 
d="M1158 1571v-993q0 -169 -8 -291q89 109 248 270l148 151l165 -165l-670 -670l-670 670l165 165l149 -151q169 -173 248 -270q-8 122 -8 291v993h233z" />
    <glyph glyph-name="uni2196" unicode="&#x2196;" horiz-adv-x="2048" 
d="M1581 11l-702 704q-11 11 -56 57t-76.5 79t-67.5 75q13 -137 15 -367l2 -212h-233v948h947v-233l-211 1q-230 2 -366 16q92 -81 210 -199l704 -704z" />
    <glyph glyph-name="uni2197" unicode="&#x2197;" horiz-adv-x="2048" 
d="M385 160l702 702q120 120 212 200q-137 -13 -366 -15l-212 -1v232h948v-947h-233l1 212q0 210 15 366q-80 -92 -199 -211l-703 -703z" />
    <glyph glyph-name="uni2198" unicode="&#x2198;" horiz-adv-x="2048" 
d="M561 1361l703 -704q145 -150 199 -211q-15 155 -15 367l-1 212h232v-948h-947v233l212 -1q231 -2 367 -16q-100 88 -212 200l-703 703z" />
    <glyph glyph-name="uni2199" unicode="&#x2199;" horiz-adv-x="2048" 
d="M1764 1178l-702 -703q-120 -120 -212 -200q167 16 367 16l211 1v-233h-948v948h234l-1 -211q-2 -221 -17 -367q81 92 200 211l703 703z" />
    <glyph glyph-name="partialdiff" unicode="&#x2202;" horiz-adv-x="1200" 
d="M353 1303l145 190q209 -82 355.5 -222.5t216.5 -310t70 -357.5q0 -54 -10 -134q-27 -216 -185 -356t-377 -140q-222 0 -365.5 130.5t-143.5 328.5q0 144 70 266t189 193.5t259 71.5q165 0 277 -98q-104 267 -501 438zM615 726q-68 0 -123.5 -26.5t-88.5 -68.5t-50.5 -90
t-17.5 -96q0 -102 70.5 -167.5t179.5 -65.5q73 0 130 27.5t88.5 71t47 89.5t15.5 90q0 104 -70.5 170t-180.5 66z" />
    <glyph glyph-name="uni2300" unicode="&#x2205;" horiz-adv-x="1371" 
d="M1089 1087l161 -160l-118 -118q80 -125 80 -277q0 -214 -152 -366t-366 -152q-147 0 -277 80l-117 -117l-161 161l117 117q-81 127 -81 277q0 141 69.5 260.5t189 189.5t260.5 70q149 0 278 -81zM403 532q0 -61 28 -124l386 387q-58 28 -123 28q-121 0 -206 -85.5
t-85 -205.5zM694 243q120 0 205 84.5t85 204.5q0 59 -27 121l-384 -384q57 -26 121 -26z" />
    <glyph glyph-name="uni2300" unicode="&#x2300;" horiz-adv-x="1371" 
d="M1089 1087l161 -160l-118 -118q80 -125 80 -277q0 -214 -152 -366t-366 -152q-147 0 -277 80l-117 -117l-161 161l117 117q-81 127 -81 277q0 141 69.5 260.5t189 189.5t260.5 70q149 0 278 -81zM403 532q0 -61 28 -124l386 387q-58 28 -123 28q-121 0 -206 -85.5
t-85 -205.5zM694 243q120 0 205 84.5t85 204.5q0 59 -27 121l-384 -384q57 -26 121 -26z" />
    <glyph glyph-name="Delta" unicode="&#x2206;" horiz-adv-x="1414" 
d="M1080 1434l213 -1211l-47 -223h-1289l47 223l729 1211h347zM1002 267l-143 886l-520 -886h663z" />
    <glyph glyph-name="product" unicode="&#x220f;" horiz-adv-x="1857" 
d="M1539 1434v-1705h-286v1437h-612v-1437h-286v1705h1184z" />
    <glyph glyph-name="summation" unicode="&#x2211;" horiz-adv-x="1630" 
d="M1371 1434v-268h-682l454 -493v-166l-461 -511h692v-267h-1101v223l573 633l-570 625v224h1095z" />
    <glyph glyph-name="minus" unicode="&#x2212;" horiz-adv-x="1228" 
d="M1110 659l-48 -228h-943l48 228h943z" />
    <glyph glyph-name="uni2219" unicode="&#x2219;" horiz-adv-x="1228" 
d="M614 869q134 0 229.5 -94.5t95.5 -229.5t-95.5 -230t-229.5 -95t-229 95t-95 230t95 229.5t229 94.5z" />
    <glyph glyph-name="radical" unicode="&#x221a;" horiz-adv-x="1186" 
d="M1368 1475l-566 -1746h-347l-385 1024h308l250 -697l442 1419h298z" />
    <glyph glyph-name="infinity" unicode="&#x221e;" horiz-adv-x="1779" 
d="M59 537q0 192 123 311.5t298 119.5q60 0 114.5 -18t107.5 -58t94.5 -80t101.5 -106q60 67 101 106.5t94 79.5t107.5 58t114.5 18q175 0 298.5 -119.5t123.5 -311.5q0 -193 -123.5 -313t-298.5 -120q-60 0 -114.5 18t-107.5 58.5t-94.5 80t-101.5 106.5q-47 -52 -80 -86
t-76.5 -71t-81.5 -58t-84 -34.5t-95 -13.5q-113 0 -208.5 52t-154 152t-58.5 229zM301 537q0 -96 51 -150t128 -54q36 0 74 23.5t76 61t113 119.5q-78 84 -113.5 119t-74.5 59t-75 24q-77 0 -128 -53.5t-51 -148.5zM1494 537q0 95 -50.5 148.5t-128.5 53.5q-50 0 -101 -41.5
t-160 -160.5q109 -120 160 -162t101 -42q78 0 128.5 54t50.5 150z" />
    <glyph glyph-name="integral" unicode="&#x222b;" horiz-adv-x="424" 
d="M565 1443l-61 -239q-24 6 -53 6q-117 0 -117 -139v-983q0 -178 -92 -281.5t-262 -103.5q-81 0 -144 16l62 239q24 -6 53 -6q117 0 117 139v983q0 177 92.5 281t262.5 104q81 0 142 -16z" />
    <glyph glyph-name="congruent" unicode="&#x2245;" horiz-adv-x="1228" 
d="M1077 442l-49 -228h-942l48 228h943zM1169 877l-48 -229h-943l48 229h943zM1130 1352l103 -177q-155 -132 -321 -132q-62 0 -116.5 14.5t-87 31.5t-76.5 31.5t-86 14.5q-48 0 -90.5 -20.5t-98.5 -67.5l-102 177q152 131 320 131q62 0 116.5 -14t87.5 -31.5t77 -31.5
t86 -14q48 0 90 21t98 67z" />
    <glyph glyph-name="approxequal" unicode="&#x2248;" horiz-adv-x="1228" 
d="M1078 910l103 -177q-154 -131 -321 -131q-62 0 -116.5 14t-87 31.5t-76.5 31.5t-86 14q-48 0 -90.5 -20.5t-98.5 -67.5l-102 177q152 131 320 131q62 0 116.5 -14t87.5 -31.5t77 -31.5t86 -14q48 0 90 21t98 67zM985 480l102 -177q-154 -131 -320 -131q-62 0 -116.5 14
t-87.5 31.5t-77 31.5t-86 14q-48 0 -90 -20.5t-98 -67.5l-102 177q152 131 320 131q62 0 116.5 -14t87.5 -31.5t77 -31.5t86 -14q48 0 90 21t98 67z" />
    <glyph glyph-name="uni2259" unicode="&#x2259;" horiz-adv-x="1228" 
d="M1074 442l-49 -228h-942l48 228h943zM1166 877l-48 -229h-943l48 229h943zM1092 1043h-252l-89 159l-152 -159h-270l283 323h323z" />
    <glyph glyph-name="notequal" unicode="&#x2260;" horiz-adv-x="1228" 
d="M1074 442l-49 -228h-483l-125 -214h-239l125 214h-220l48 228h305l121 206h-382l48 229h467l125 214h239l-125 -214h237l-48 -229h-322l-121 -206h399z" />
    <glyph glyph-name="lessequal" unicode="&#x2264;" horiz-adv-x="1228" 
d="M1114 921l-598 -200l514 -200l-54 -253l-766 338l52 250l910 339zM130 228h839l-48 -228h-839z" />
    <glyph glyph-name="greaterequal" unicode="&#x2265;" horiz-adv-x="1228" 
d="M1118 856l-53 -250l-910 -338l58 275l598 199l-514 199l54 254zM146 228h839l-49 -228h-838z" />
    <glyph glyph-name="dotmath" unicode="&#x22c5;" horiz-adv-x="1228" 
d="M615 743q79 0 138.5 -59t59.5 -138q0 -81 -59.5 -140.5t-138.5 -59.5q-80 0 -139.5 59.5t-59.5 140.5q0 79 59.5 138t139.5 59z" />
    <glyph glyph-name="uni2460" unicode="&#x2460;" horiz-adv-x="2099" 
d="M1106 1642q192 0 366 -73t299.5 -197t200 -295t74.5 -359t-74.5 -359.5t-200 -296t-300 -198t-365.5 -73.5t-365.5 73.5t-300 198t-200 296t-74.5 359.5t74.5 359t200 295t299.5 197t366 73zM1106 1401q-140 0 -267 -54t-219 -145.5t-146.5 -218t-54.5 -265.5
q0 -186 92 -344t250 -249.5t345 -91.5q140 0 267.5 54t219.5 146t146.5 218.5t54.5 266.5q0 139 -54.5 265.5t-146.5 218t-219.5 145.5t-267.5 54zM1248 1175v-884h-211v595l-212 -76v206z" />
    <glyph glyph-name="uni2461" unicode="&#x2461;" horiz-adv-x="2099" 
d="M1106 1642q192 0 366 -73t299.5 -197t200 -295t74.5 -359t-74.5 -359.5t-200 -296t-300 -198t-365.5 -73.5t-365.5 73.5t-300 198t-200 296t-74.5 359.5t74.5 359t200 295t299.5 197t366 73zM1106 1401q-140 0 -267 -54t-219 -145.5t-146.5 -218t-54.5 -265.5
q0 -186 92 -344t250 -249.5t345 -91.5q140 0 267.5 54t219.5 146t146.5 218.5t54.5 266.5q0 139 -54.5 265.5t-146.5 218t-219.5 145.5t-267.5 54zM900 879l-124 143q128 155 329 155q142 0 227.5 -78t85.5 -206q0 -76 -35 -137t-108 -129l-153 -141h315v-195h-615v166
l311 288q66 63 66 126q0 46 -33 75t-84 29q-54 0 -95.5 -25t-86.5 -71z" />
    <glyph glyph-name="uni2462" unicode="&#x2462;" horiz-adv-x="2099" 
d="M1106 1642q192 0 366 -73t299.5 -197t200 -295t74.5 -359t-74.5 -359.5t-200 -296t-300 -198t-365.5 -73.5t-365.5 73.5t-300 198t-200 296t-74.5 359.5t74.5 359t200 295t299.5 197t366 73zM1106 1401q-140 0 -267 -54t-219 -145.5t-146.5 -218t-54.5 -265.5
q0 -186 92 -344t250 -249.5t345 -91.5q140 0 267.5 54t219.5 146t146.5 218.5t54.5 266.5q0 139 -54.5 265.5t-146.5 218t-219.5 145.5t-267.5 54zM1097 1177q148 0 239.5 -69t91.5 -183q0 -139 -132 -197q72 -27 111.5 -77.5t39.5 -118.5q0 -83 -50 -143t-126.5 -87.5
t-168.5 -27.5q-208 0 -319 128l118 137q77 -79 191 -79q60 0 98.5 23t38.5 66q0 44 -44 68t-110 24h-102v177h103q60 0 98 23.5t38 64.5q0 40 -34 62t-91 22q-108 0 -182 -82l-119 138q117 131 311 131z" />
    <glyph glyph-name="uni2463" unicode="&#x2463;" horiz-adv-x="2099" 
d="M1106 1642q192 0 366 -73t299.5 -197t200 -295t74.5 -359t-74.5 -359.5t-200 -296t-300 -198t-365.5 -73.5t-365.5 73.5t-300 198t-200 296t-74.5 359.5t74.5 359t200 295t299.5 197t366 73zM1106 1401q-140 0 -267 -54t-219 -145.5t-146.5 -218t-54.5 -265.5
q0 -186 92 -344t250 -249.5t345 -91.5q140 0 267.5 54t219.5 146t146.5 218.5t54.5 266.5q0 139 -54.5 265.5t-146.5 218t-219.5 145.5t-267.5 54zM1336 860v-232h112v-192h-112v-145h-210v145h-395v147l291 577h231l-272 -532h145v90l72 142h138z" />
    <glyph glyph-name="uni2464" unicode="&#x2464;" horiz-adv-x="2099" 
d="M1106 1642q192 0 366 -73t299.5 -197t200 -295t74.5 -359t-74.5 -359.5t-200 -296t-300 -198t-365.5 -73.5t-365.5 73.5t-300 198t-200 296t-74.5 359.5t74.5 359t200 295t299.5 197t366 73zM1106 1401q-140 0 -267 -54t-219 -145.5t-146.5 -218t-54.5 -265.5
q0 -186 92 -344t250 -249.5t345 -91.5q140 0 267.5 54t219.5 146t146.5 218.5t54.5 266.5q0 139 -54.5 265.5t-146.5 218t-219.5 145.5t-267.5 54zM1396 1161v-193h-349l-5 -130h84q154 0 239 -70.5t85 -188.5q0 -137 -95.5 -221t-245.5 -84q-99 0 -183.5 33t-141.5 87
l104 156q36 -33 97.5 -58.5t122.5 -25.5q60 0 92 26.5t32 70.5q0 94 -158 94h-220l11 504h531z" />
    <glyph glyph-name="uni2465" unicode="&#x2465;" horiz-adv-x="2099" 
d="M1106 1642q192 0 366 -73t299.5 -197t200 -295t74.5 -359t-74.5 -359.5t-200 -296t-300 -198t-365.5 -73.5t-365.5 73.5t-300 198t-200 296t-74.5 359.5t74.5 359t200 295t299.5 197t366 73zM1106 1401q-140 0 -267 -54t-219 -145.5t-146.5 -218t-54.5 -265.5
q0 -186 92 -344t250 -249.5t345 -91.5q140 0 267.5 54t219.5 146t146.5 218.5t54.5 266.5q0 139 -54.5 265.5t-146.5 218t-219.5 145.5t-267.5 54zM1328 1161l-215 -292h12q146 0 233 -82.5t87 -205.5q0 -132 -99.5 -219.5t-247.5 -87.5q-149 0 -248.5 85t-99.5 214
q0 117 90 246l234 342h254zM1098 694q-55 0 -91 -32.5t-36 -83.5t36 -83.5t91 -32.5q54 0 90.5 33t36.5 83q0 51 -36.5 83.5t-90.5 32.5z" />
    <glyph glyph-name="uni2466" unicode="&#x2466;" horiz-adv-x="2099" 
d="M1106 1642q192 0 366 -73t299.5 -197t200 -295t74.5 -359t-74.5 -359.5t-200 -296t-300 -198t-365.5 -73.5t-365.5 73.5t-300 198t-200 296t-74.5 359.5t74.5 359t200 295t299.5 197t366 73zM1106 1401q-140 0 -267 -54t-219 -145.5t-146.5 -218t-54.5 -265.5
q0 -186 92 -344t250 -249.5t345 -91.5q140 0 267.5 54t219.5 146t146.5 218.5t54.5 266.5q0 139 -54.5 265.5t-146.5 218t-219.5 145.5t-267.5 54zM1458 1161v-166l-352 -704h-251l354 675h-401v195h650z" />
    <glyph glyph-name="uni2467" unicode="&#x2467;" horiz-adv-x="2099" 
d="M1106 1642q192 0 366 -73t299.5 -197t200 -295t74.5 -359t-74.5 -359.5t-200 -296t-300 -198t-365.5 -73.5t-365.5 73.5t-300 198t-200 296t-74.5 359.5t74.5 359t200 295t299.5 197t366 73zM1106 1401q-140 0 -267 -54t-219 -145.5t-146.5 -218t-54.5 -265.5
q0 -186 92 -344t250 -249.5t345 -91.5q140 0 267.5 54t219.5 146t146.5 218.5t54.5 266.5q0 139 -54.5 265.5t-146.5 218t-219.5 145.5t-267.5 54zM1106 1177q143 0 239.5 -68.5t96.5 -183.5q0 -133 -136 -195q158 -63 158 -203q0 -115 -102.5 -184t-255.5 -69
q-152 0 -254.5 69t-102.5 184q0 143 158 203q-136 61 -136 195q0 115 96.5 183.5t238.5 68.5zM1106 650q-55 0 -91 -26t-36 -72q0 -44 36.5 -70t90.5 -26q55 0 92 26t37 70q0 46 -37 72t-92 26zM1106 994q-48 0 -80 -24t-32 -65q0 -42 32 -66t80 -24q49 0 81.5 24.5
t32.5 65.5t-32.5 65t-81.5 24z" />
    <glyph glyph-name="uni2468" unicode="&#x2468;" horiz-adv-x="2099" 
d="M1106 1642q192 0 366 -73t299.5 -197t200 -295t74.5 -359t-74.5 -359.5t-200 -296t-300 -198t-365.5 -73.5t-365.5 73.5t-300 198t-200 296t-74.5 359.5t74.5 359t200 295t299.5 197t366 73zM1106 1401q-140 0 -267 -54t-219 -145.5t-146.5 -218t-54.5 -265.5
q0 -186 92 -344t250 -249.5t345 -91.5q140 0 267.5 54t219.5 146t146.5 218.5t54.5 266.5q0 139 -54.5 265.5t-146.5 218t-219.5 145.5t-267.5 54zM887 291l213 291h-10q-146 0 -233 82.5t-87 206.5q0 132 99 219t248 87t248.5 -85t99.5 -214q0 -113 -90 -246l-235 -341
h-253zM1117 758q55 0 91 32.5t36 82.5q0 51 -36 84t-91 33t-91 -33t-36 -84q0 -50 36 -82.5t91 -32.5z" />
    <glyph glyph-name="uni24EA" unicode="&#x24ea;" horiz-adv-x="2099" 
d="M1106 1642q192 0 366 -73t299.5 -197t200 -295t74.5 -359t-74.5 -359.5t-200 -296t-300 -198t-365.5 -73.5t-365.5 73.5t-300 198t-200 296t-74.5 359.5t74.5 359t200 295t299.5 197t366 73zM1106 1401q-140 0 -267 -54t-219 -145.5t-146.5 -218t-54.5 -265.5
q0 -186 92 -344t250 -249.5t345 -91.5q140 0 267.5 54t219.5 146t146.5 218.5t54.5 266.5q0 139 -54.5 265.5t-146.5 218t-219.5 145.5t-267.5 54zM1106 1177q171 0 283.5 -122.5t112.5 -328.5q0 -207 -112.5 -329.5t-283.5 -122.5q-170 0 -282.5 122.5t-112.5 329.5
q0 206 112.5 328.5t282.5 122.5zM1106 975q-77 0 -126.5 -65.5t-49.5 -184.5q0 -118 49.5 -183.5t126.5 -65.5q78 0 127.5 65.5t49.5 183.5q0 119 -49.5 184.5t-127.5 65.5z" />
    <glyph glyph-name="uni24FF" unicode="&#x24ff;" horiz-adv-x="2099" 
d="M1105 1177q-170 0 -283 -122.5t-113 -328.5q0 -207 113 -329.5t283 -122.5q171 0 283.5 122.5t112.5 329.5q0 206 -112.5 328.5t-283.5 122.5zM1105 975q77 0 127 -65.5t50 -184.5q0 -118 -50 -183.5t-127 -65.5t-127 65.5t-50 183.5q0 119 50 184.5t127 65.5zM1105 1621
q187 0 357 -71.5t292.5 -192.5t195 -288t72.5 -351t-72.5 -351.5t-195 -288.5t-292.5 -193t-357 -72t-357.5 72t-293.5 193t-195.5 288.5t-72.5 351.5q0 123 33 240t92 216t144 182t186 141.5t220 91t244 32.5z" />
    <glyph glyph-name="uni2715" unicode="&#x2573;" horiz-adv-x="2224" 
d="M2080 -239l-207 -171l-741 944l-1177 -971l-155 198l1158 956l-752 955l207 171l741 -942l1177 970l154 -199l-1158 -955z" />
    <glyph glyph-name="uni2715" unicode="&#x2715;" horiz-adv-x="2224" 
d="M2080 -239l-207 -171l-741 944l-1177 -971l-155 198l1158 956l-752 955l207 171l741 -942l1177 970l154 -199l-1158 -955z" />
    <glyph glyph-name="uni25AE" unicode="&#x258c;" horiz-adv-x="1843" 
d="M248 1434h717v-1434h-717v1434z" />
    <glyph glyph-name="uni25AE" unicode="&#x25ae;" horiz-adv-x="1843" 
d="M248 1434h717v-1434h-717v1434z" />
    <glyph glyph-name="filledbox" unicode="&#x25a0;" horiz-adv-x="1843" 
d="M248 1434h1433v-1434h-1433v1434z" />
    <glyph glyph-name="H22073" unicode="&#x25a1;" horiz-adv-x="1843" 
d="M248 1434h1433v-1434h-1433v1434zM492 1190v-946h947v946h-947z" />
    <glyph glyph-name="triagup" unicode="&#x25b2;" horiz-adv-x="1843" 
d="M901 1454l840 -1454h-1680z" />
    <glyph glyph-name="uni25B3" unicode="&#x25b3;" horiz-adv-x="1843" 
d="M901 1454l840 -1454h-1680zM901 968l-418 -724h837z" />
    <glyph glyph-name="uni25B4" unicode="&#x25b4;" horiz-adv-x="1228" 
d="M605 1071l455 -785h-910z" />
    <glyph glyph-name="uni25B8" unicode="&#x25b8;" horiz-adv-x="1228" 
d="M1110 678l-787 -457v913z" />
    <glyph glyph-name="triagdn" unicode="&#x25bc;" horiz-adv-x="1843" 
d="M1037 -20l-839 1454h1679z" />
    <glyph glyph-name="uni25BD" unicode="&#x25bd;" horiz-adv-x="1843" 
d="M1037 -20l-839 1454h1679zM1037 466l418 724h-837z" />
    <glyph glyph-name="uni25BE" unicode="&#x25be;" horiz-adv-x="1228" 
d="M700 285l-454 785h910z" />
    <glyph glyph-name="uni25C2" unicode="&#x25c2;" horiz-adv-x="1227" 
d="M196 678l786 456v-913z" />
    <glyph glyph-name="uni25C6" unicode="&#x25c6;" horiz-adv-x="1843" 
d="M977 1473l756 -756l-756 -756l-756 756z" />
    <glyph glyph-name="uni25C7" unicode="&#x25c7;" horiz-adv-x="1843" 
d="M977 1473l756 -756l-756 -756l-756 756zM977 1128l-412 -411l412 -412l412 412z" />
    <glyph glyph-name="lozenge" unicode="&#x25ca;" horiz-adv-x="1566" 
d="M1536 717l-571 -717h-270l-570 717l571 717h270zM1199 716l-373 462l-362 -459l373 -464z" />
    <glyph glyph-name="circle" unicode="&#x25cb;" horiz-adv-x="1843" 
d="M977 -40q-154 0 -294.5 60t-241.5 161.5t-161 241.5t-60 294t60 294t161 241.5t241.5 161.5t294.5 60q206 0 380 -101.5t275.5 -275.5t101.5 -380t-101.5 -380t-275.5 -275.5t-380 -101.5zM977 204q140 0 258 68.5t186.5 186.5t68.5 258t-68.5 258t-186.5 186.5
t-258 68.5t-258.5 -68.5t-187 -186.5t-68.5 -258t68.5 -258t187 -186.5t258.5 -68.5z" />
    <glyph glyph-name="H18533" unicode="&#x25cf;" horiz-adv-x="1843" 
d="M977 -40q-154 0 -294.5 60t-241.5 161.5t-161 241.5t-60 294t60 294t161 241.5t241.5 161.5t294.5 60q206 0 380 -101.5t275.5 -275.5t101.5 -380t-101.5 -380t-275.5 -275.5t-380 -101.5z" />
    <glyph glyph-name="uni25D0" unicode="&#x25d0;" horiz-adv-x="1843" 
d="M977 -40q-154 0 -294.5 60t-241.5 161.5t-161 241.5t-60 294t60 294t161 241.5t241.5 161.5t294.5 60q206 0 380 -101.5t275.5 -275.5t101.5 -380t-101.5 -380t-275.5 -275.5t-380 -101.5zM977 1230v-1026q140 0 258 68.5t186.5 186.5t68.5 258t-68.5 258t-186.5 186.5
t-258 68.5z" />
    <glyph glyph-name="uni25D6" unicode="&#x25d6;" horiz-adv-x="1843" 
d="M977 1474v-1514q-154 0 -294.5 60t-241.5 161.5t-161 241.5t-60 294t60 294t161 241.5t241.5 161.5t294.5 60z" />
    <glyph glyph-name="uni25E7" unicode="&#x25e7;" horiz-adv-x="1843" 
d="M248 1434h1433v-1434h-1433v1434zM965 1190v-946h474v946h-474z" />
    <glyph glyph-name="uni2610" unicode="&#x2610;" horiz-adv-x="2252" 
d="M300 1584h1735v-1735h-1735v1735zM499 1384v-1335h1336v1335h-1336z" />
    <glyph glyph-name="uni2611" unicode="&#x2611;" horiz-adv-x="2252" 
d="M300 1584h1735v-1735h-1735v1735zM499 1384v-1335h1336v1335h-1336zM1566 1220l156 -112l-668 -931l-426 480l140 129l267 -304z" />
    <glyph glyph-name="uni2612" unicode="&#x2612;" horiz-adv-x="2252" 
d="M2035 1584v-1735h-1735v1735h1735zM1835 1384h-1336v-1335h1336v1335zM682 369l348 348l-348 348l137 137l348 -349l349 349l136 -137l-349 -348l349 -348l-136 -138l-349 350l-348 -350z" />
    <glyph glyph-name="heart" unicode="&#x2665;" horiz-adv-x="1843" 
d="M1337 1285q140 0 233 -95.5t93 -237.5q0 -134 -91.5 -288t-232 -290.5t-321.5 -264.5q-181 128 -321.5 264.5t-232 290.5t-91.5 288q0 142 92.5 237.5t232.5 95.5q127 0 223.5 -75.5t96.5 -176.5q0 101 96 176.5t223 75.5z" />
    <glyph glyph-name="uni2713" unicode="&#x2713;" horiz-adv-x="2252" 
d="M1696 1354l187 -140l-837 -1130l-489 532l172 158l297 -323z" />
    <glyph glyph-name="uni2717" unicode="&#x2717;" horiz-adv-x="2252" 
d="M1332 717l429 -429l-165 -165l-429 429l-429 -429l-165 165l429 429l-429 429l165 165l429 -429l429 429l165 -165z" />
    <glyph glyph-name="uni278A" unicode="&#x2776;" horiz-adv-x="2099" 
d="M1246 1175l-422 -159v-206l212 76v-595h210v884zM1105 1621q187 0 357 -71.5t292.5 -192.5t195 -288t72.5 -351t-72.5 -351.5t-195 -288.5t-292.5 -193t-357 -72t-357.5 72t-293.5 193t-195.5 288.5t-72.5 351.5q0 123 33 240t92 216t144 182t186 141.5t220 91t244 32.5z
" />
    <glyph glyph-name="uni278A" unicode="&#x278a;" horiz-adv-x="2099" 
d="M1246 1175l-422 -159v-206l212 76v-595h210v884zM1105 1621q187 0 357 -71.5t292.5 -192.5t195 -288t72.5 -351t-72.5 -351.5t-195 -288.5t-292.5 -193t-357 -72t-357.5 72t-293.5 193t-195.5 288.5t-72.5 351.5q0 123 33 240t92 216t144 182t186 141.5t220 91t244 32.5z
" />
    <glyph glyph-name="uni278B" unicode="&#x2777;" horiz-adv-x="2099" 
d="M775 1022l124 -143q45 46 86 71t96 25q51 0 84 -29t33 -75q0 -65 -66 -126l-312 -288v-166h616v195h-316l154 141q72 67 107 128.5t35 137.5q0 128 -85 206t-227 78q-204 0 -329 -155zM1105 1621q187 0 357 -71.5t292.5 -192.5t195 -288t72.5 -351t-72.5 -351.5
t-195 -288.5t-292.5 -193t-357 -72t-357.5 72t-293.5 193t-195.5 288.5t-72.5 351.5q0 123 33 240t92 216t144 182t186 141.5t220 91t244 32.5z" />
    <glyph glyph-name="uni278B" unicode="&#x278b;" horiz-adv-x="2099" 
d="M775 1022l124 -143q45 46 86 71t96 25q51 0 84 -29t33 -75q0 -65 -66 -126l-312 -288v-166h616v195h-316l154 141q72 67 107 128.5t35 137.5q0 128 -85 206t-227 78q-204 0 -329 -155zM1105 1621q187 0 357 -71.5t292.5 -192.5t195 -288t72.5 -351t-72.5 -351.5
t-195 -288.5t-292.5 -193t-357 -72t-357.5 72t-293.5 193t-195.5 288.5t-72.5 351.5q0 123 33 240t92 216t144 182t186 141.5t220 91t244 32.5z" />
    <glyph glyph-name="uni278C" unicode="&#x2778;" horiz-adv-x="2099" 
d="M1105 1621q187 0 357 -71.5t292.5 -192.5t195 -288t72.5 -351t-72.5 -351.5t-195 -288.5t-292.5 -193t-357 -72t-357.5 72t-293.5 193t-195.5 288.5t-72.5 351.5q0 123 33 240t92 216t144 182t186 141.5t220 91t244 32.5zM1096 1177q-194 0 -311 -131l119 -138
q74 82 182 82q56 0 90 -22t34 -62q0 -42 -37.5 -65t-97.5 -23h-103v-177h101q67 0 111 -24t44 -68q0 -43 -38.5 -66t-99.5 -23q-112 0 -191 79l-118 -137q112 -128 320 -128q92 0 168.5 27.5t126.5 87.5t50 143q0 68 -39.5 119t-111.5 78q132 59 132 196q0 114 -91.5 183
t-239.5 69z" />
    <glyph glyph-name="uni278C" unicode="&#x278c;" horiz-adv-x="2099" 
d="M1105 1621q187 0 357 -71.5t292.5 -192.5t195 -288t72.5 -351t-72.5 -351.5t-195 -288.5t-292.5 -193t-357 -72t-357.5 72t-293.5 193t-195.5 288.5t-72.5 351.5q0 123 33 240t92 216t144 182t186 141.5t220 91t244 32.5zM1096 1177q-194 0 -311 -131l119 -138
q74 82 182 82q56 0 90 -22t34 -62q0 -42 -37.5 -65t-97.5 -23h-103v-177h101q67 0 111 -24t44 -68q0 -43 -38.5 -66t-99.5 -23q-112 0 -191 79l-118 -137q112 -128 320 -128q92 0 168.5 27.5t126.5 87.5t50 143q0 68 -39.5 119t-111.5 78q132 59 132 196q0 114 -91.5 183
t-239.5 69z" />
    <glyph glyph-name="uni278D" unicode="&#x2779;" horiz-adv-x="2099" 
d="M1105 1621q187 0 357 -71.5t292.5 -192.5t195 -288t72.5 -351t-72.5 -351.5t-195 -288.5t-292.5 -193t-357 -72t-357.5 72t-293.5 193t-195.5 288.5t-72.5 351.5q0 123 33 240t92 216t144 182t186 141.5t220 91t244 32.5zM1335 860h-138l-73 -142v-90h-145l272 532h-230
l-292 -577v-147h395v-145h211v145h111v192h-111v232z" />
    <glyph glyph-name="uni278D" unicode="&#x278d;" horiz-adv-x="2099" 
d="M1105 1621q187 0 357 -71.5t292.5 -192.5t195 -288t72.5 -351t-72.5 -351.5t-195 -288.5t-292.5 -193t-357 -72t-357.5 72t-293.5 193t-195.5 288.5t-72.5 351.5q0 123 33 240t92 216t144 182t186 141.5t220 91t244 32.5zM1335 860h-138l-73 -142v-90h-145l272 532h-230
l-292 -577v-147h395v-145h211v145h111v192h-111v232z" />
    <glyph glyph-name="uni278E" unicode="&#x277a;" horiz-adv-x="2099" 
d="M1395 1161h-531l-12 -504h221q158 0 158 -94q0 -44 -32 -70.5t-93 -26.5t-122 25.5t-97 58.5l-104 -156q57 -54 141 -87t183 -33q150 0 246 84t96 221q0 118 -85 188.5t-239 70.5h-84l3 130h351v193zM1105 1621q187 0 357 -71.5t292.5 -192.5t195 -288t72.5 -351
t-72.5 -351.5t-195 -288.5t-292.5 -193t-357 -72t-357.5 72t-293.5 193t-195.5 288.5t-72.5 351.5q0 123 33 240t92 216t144 182t186 141.5t220 91t244 32.5z" />
    <glyph glyph-name="uni278E" unicode="&#x278e;" horiz-adv-x="2099" 
d="M1395 1161h-531l-12 -504h221q158 0 158 -94q0 -44 -32 -70.5t-93 -26.5t-122 25.5t-97 58.5l-104 -156q57 -54 141 -87t183 -33q150 0 246 84t96 221q0 118 -85 188.5t-239 70.5h-84l3 130h351v193zM1105 1621q187 0 357 -71.5t292.5 -192.5t195 -288t72.5 -351
t-72.5 -351.5t-195 -288.5t-292.5 -193t-357 -72t-357.5 72t-293.5 193t-195.5 288.5t-72.5 351.5q0 123 33 240t92 216t144 182t186 141.5t220 91t244 32.5z" />
    <glyph glyph-name="uni278F" unicode="&#x277b;" horiz-adv-x="2099" 
d="M1105 1621q187 0 357 -71.5t292.5 -192.5t195 -288t72.5 -351t-72.5 -351.5t-195 -288.5t-292.5 -193t-357 -72t-357.5 72t-293.5 193t-195.5 288.5t-72.5 351.5q0 123 33 240t92 216t144 182t186 141.5t220 91t244 32.5zM1326 1161h-253l-235 -342q-89 -130 -89 -246
q0 -129 99 -214t248 -85t248.5 87.5t99.5 219.5q0 123 -87 205.5t-233 82.5h-12zM1096 694q55 0 91.5 -32.5t36.5 -83.5q0 -50 -36.5 -83t-91.5 -33t-90.5 32.5t-35.5 83.5t35.5 83.5t90.5 32.5z" />
    <glyph glyph-name="uni278F" unicode="&#x278f;" horiz-adv-x="2099" 
d="M1105 1621q187 0 357 -71.5t292.5 -192.5t195 -288t72.5 -351t-72.5 -351.5t-195 -288.5t-292.5 -193t-357 -72t-357.5 72t-293.5 193t-195.5 288.5t-72.5 351.5q0 123 33 240t92 216t144 182t186 141.5t220 91t244 32.5zM1326 1161h-253l-235 -342q-89 -130 -89 -246
q0 -129 99 -214t248 -85t248.5 87.5t99.5 219.5q0 123 -87 205.5t-233 82.5h-12zM1096 694q55 0 91.5 -32.5t36.5 -83.5q0 -50 -36.5 -83t-91.5 -33t-90.5 32.5t-35.5 83.5t35.5 83.5t90.5 32.5z" />
    <glyph glyph-name="uni2790" unicode="&#x277c;" horiz-adv-x="2099" 
d="M1457 1161h-650v-195h400l-353 -675h251l352 704v166zM1105 1621q187 0 357 -71.5t292.5 -192.5t195 -288t72.5 -351t-72.5 -351.5t-195 -288.5t-292.5 -193t-357 -72t-357.5 72t-293.5 193t-195.5 288.5t-72.5 351.5q0 123 33 240t92 216t144 182t186 141.5t220 91
t244 32.5z" />
    <glyph glyph-name="uni2790" unicode="&#x2790;" horiz-adv-x="2099" 
d="M1457 1161h-650v-195h400l-353 -675h251l352 704v166zM1105 1621q187 0 357 -71.5t292.5 -192.5t195 -288t72.5 -351t-72.5 -351.5t-195 -288.5t-292.5 -193t-357 -72t-357.5 72t-293.5 193t-195.5 288.5t-72.5 351.5q0 123 33 240t92 216t144 182t186 141.5t220 91
t244 32.5z" />
    <glyph glyph-name="uni2791" unicode="&#x277d;" horiz-adv-x="2099" 
d="M1105 1621q187 0 357 -71.5t292.5 -192.5t195 -288t72.5 -351t-72.5 -351.5t-195 -288.5t-292.5 -193t-357 -72t-357.5 72t-293.5 193t-195.5 288.5t-72.5 351.5q0 123 33 240t92 216t144 182t186 141.5t220 91t244 32.5zM1105 1177q-142 0 -239 -68.5t-97 -183.5
q0 -132 136 -196q-157 -61 -157 -202q0 -115 102.5 -184t254.5 -69q153 0 255.5 69t102.5 184q0 140 -158 203q136 62 136 195q0 115 -96.5 183.5t-239.5 68.5zM1105 650q55 0 92 -26t37 -72q0 -44 -37 -70t-92 -26t-91.5 26t-36.5 70q0 46 36.5 72t91.5 26zM1105 994
q49 0 81 -24t32 -65q0 -42 -32 -66t-81 -24q-48 0 -80 24t-32 66q0 41 32 65t80 24z" />
    <glyph glyph-name="uni2791" unicode="&#x2791;" horiz-adv-x="2099" 
d="M1105 1621q187 0 357 -71.5t292.5 -192.5t195 -288t72.5 -351t-72.5 -351.5t-195 -288.5t-292.5 -193t-357 -72t-357.5 72t-293.5 193t-195.5 288.5t-72.5 351.5q0 123 33 240t92 216t144 182t186 141.5t220 91t244 32.5zM1105 1177q-142 0 -239 -68.5t-97 -183.5
q0 -132 136 -196q-157 -61 -157 -202q0 -115 102.5 -184t254.5 -69q153 0 255.5 69t102.5 184q0 140 -158 203q136 62 136 195q0 115 -96.5 183.5t-239.5 68.5zM1105 650q55 0 92 -26t37 -72q0 -44 -37 -70t-92 -26t-91.5 26t-36.5 70q0 46 36.5 72t91.5 26zM1105 994
q49 0 81 -24t32 -65q0 -42 -32 -66t-81 -24q-48 0 -80 24t-32 66q0 41 32 65t80 24z" />
    <glyph glyph-name="uni2792" unicode="&#x277e;" horiz-adv-x="2099" 
d="M1105 1621q187 0 357 -71.5t292.5 -192.5t195 -288t72.5 -351t-72.5 -351.5t-195 -288.5t-292.5 -193t-357 -72t-357.5 72t-293.5 193t-195.5 288.5t-72.5 351.5q0 123 33 240t92 216t144 182t186 141.5t220 91t244 32.5zM886 291h253l235 341q89 132 89 246
q0 129 -99.5 214t-247.5 85q-149 0 -248.5 -87t-99.5 -219q0 -124 86.5 -206.5t232.5 -82.5h12zM1116 758q-55 0 -91.5 32.5t-36.5 82.5q0 51 36.5 84t91.5 33t90.5 -33t35.5 -84q0 -50 -35.5 -82.5t-90.5 -32.5z" />
    <glyph glyph-name="uni2792" unicode="&#x2792;" horiz-adv-x="2099" 
d="M1105 1621q187 0 357 -71.5t292.5 -192.5t195 -288t72.5 -351t-72.5 -351.5t-195 -288.5t-292.5 -193t-357 -72t-357.5 72t-293.5 193t-195.5 288.5t-72.5 351.5q0 123 33 240t92 216t144 182t186 141.5t220 91t244 32.5zM886 291h253l235 341q89 132 89 246
q0 129 -99.5 214t-247.5 85q-149 0 -248.5 -87t-99.5 -219q0 -124 86.5 -206.5t232.5 -82.5h12zM1116 758q-55 0 -91.5 32.5t-36.5 82.5q0 51 36.5 84t91.5 33t90.5 -33t35.5 -84q0 -50 -35.5 -82.5t-90.5 -32.5z" />
    <glyph glyph-name="uni2B51" unicode="&#x2b51;" horiz-adv-x="1843" 
d="M1175 924h620l-502 -365l193 -593l-503 367l-502 -367l192 593l-504 365h623l191 593z" />
    <glyph glyph-name="uni2B52" unicode="&#x2b52;" horiz-adv-x="1843" 
d="M1175 924h620l-502 -365l193 -593l-503 367l-502 -367l192 593l-504 365h623l191 593zM1071 781l-88 272l-87 -272h-288l232 -168l-88 -273l231 169l231 -169l-88 273l232 168h-287z" />
    <glyph glyph-name="uni2E17" unicode="&#x2e17;" horiz-adv-x="848" 
d="M809 980l-49 -231l-612 -221l50 232zM728 599l-49 -231l-612 -221l50 232z" />
    <glyph glyph-name="uni2E38" unicode="&#x2e38;" horiz-adv-x="806" 
d="M507 1475h208l-91 -433h221l-43 -203h-221l-47 -223h-209l47 223h-221l44 203h221z" />
    <glyph glyph-name="uniEA00" unicode="&#xea00;" horiz-adv-x="1843" 
d="M1175 924h620l-502 -365l193 -593l-503 367l-502 -367l192 593l-504 365h623l191 593zM1071 781l-88 272v-544l231 -169l-88 273l232 168h-287z" />
    <glyph glyph-name="uniEA01" unicode="&#xea01;" horiz-adv-x="1843" 
d="M983 333l-502 -367l192 593l-504 365h623l191 593v-1184z" />
    <glyph glyph-name="uniFB00" unicode="&#xfb00;" horiz-adv-x="1654" 
d="M888 992l-50 -237h-291l-161 -755h-268l161 755h-184l50 237h184l31 148q78 360 397 360q173 0 285 -93l-135 -200q-70 45 -140 45q-113 0 -145 -150l-24 -110h290zM1705 992l-50 -237h-291l-161 -755h-268l161 755h-184l51 237h183l32 148q78 360 396 360q174 0 286 -93
l-136 -200q-70 45 -140 45q-113 0 -145 -150l-24 -110h290z" />
    <glyph glyph-name="fi" unicode="&#xfb01;" horiz-adv-x="1371" 
d="M888 992l-50 -237h-291l-161 -755h-268l161 755h-184l50 237h184l31 148q78 360 397 360q173 0 285 -93l-135 -200q-70 45 -140 45q-113 0 -145 -150l-24 -110h290zM1345 992l-211 -992h-270l211 992h270zM1278 1489q72 0 121.5 -50t49.5 -122t-49.5 -121t-121.5 -49
t-121 49t-49 121t49 122t121 50z" />
    <glyph glyph-name="fl" unicode="&#xfb02;" horiz-adv-x="1371" 
d="M888 992l-50 -237h-291l-161 -755h-268l161 755h-184l50 237h184l31 148q78 360 397 360q173 0 285 -93l-135 -200q-70 45 -140 45q-113 0 -145 -150l-24 -110h290zM1447 1475l-313 -1475h-270l314 1475h269z" />
    <glyph glyph-name="uniFB03" unicode="&#xfb03;" horiz-adv-x="2188" 
d="M888 992l-50 -237h-291l-161 -755h-268l161 755h-184l50 237h184l31 148q78 360 397 360q173 0 285 -93l-135 -200q-70 45 -140 45q-113 0 -145 -150l-24 -110h290zM1705 992l-50 -237h-291l-161 -755h-268l161 755h-184l51 237h183l32 148q78 360 396 360q174 0 286 -93
l-136 -200q-70 45 -140 45q-113 0 -145 -150l-24 -110h290zM2162 992l-211 -992h-270l211 992h270zM2095 1489q72 0 121.5 -50t49.5 -122t-49.5 -121t-121.5 -49t-121 49t-49 121t49 122t121 50z" />
    <glyph glyph-name="uniFB04" unicode="&#xfb04;" horiz-adv-x="2188" 
d="M888 992l-50 -237h-291l-161 -755h-268l161 755h-184l50 237h184l31 148q78 360 397 360q173 0 285 -93l-135 -200q-70 45 -140 45q-113 0 -145 -150l-24 -110h290zM1705 992l-50 -237h-291l-161 -755h-268l161 755h-184l51 237h183l32 148q78 360 396 360q174 0 286 -93
l-136 -200q-70 45 -140 45q-113 0 -145 -150l-24 -110h290zM2264 1475l-313 -1475h-270l314 1475h269z" />
    <glyph glyph-name="uniFB05" unicode="&#xfb05;" horiz-adv-x="1473" 
d="M1476 992l-52 -237h-347l-76 -360q-19 -87 12.5 -129.5t100.5 -42.5q80 0 173 57l94 -211q-148 -95 -317 -95q-201 0 -287.5 112t-44.5 307l77 362h-169l51 237h171l14 63q7 35 7 67q0 68 -39.5 101t-108.5 33q-179 0 -227 -225l-219 -1031h-269l227 1064q25 118 75 204
t118.5 135.5t146.5 73t168 23.5q177 0 285.5 -93.5t108.5 -262.5q0 -55 -14 -125l-7 -27h348z" />
    <glyph glyph-name="uniFB06" unicode="&#xfb06;" horiz-adv-x="1928" 
d="M985 908l-122 -199q-66 40 -155.5 63.5t-155.5 23.5q-149 0 -159 -81q-5 -48 27 -66.5t112 -33.5l67 -12q323 -59 294 -307q-18 -151 -137 -236.5t-318 -85.5q-122 0 -244.5 35.5t-207.5 99.5l128 195q157 -107 328 -107q170 0 180 92q4 37 -29 59t-109 35l-68 11
q-166 27 -239 108.5t-58 205.5q19 150 132.5 230t300.5 80q244 0 433 -110zM1931 992l-51 -237h-347l-77 -360q-19 -87 12.5 -129.5t100.5 -42.5q80 0 173 57l94 -211q-148 -95 -316 -95q-203 0 -289 112t-45 307l77 362h-186l51 237h186l63 295h270l-64 -295h348z" />
    <glyph glyph-name="uniFEFF" unicode="&#xfeff;" horiz-adv-x="0" 
 />
    <glyph glyph-name="uni030C.alt001" 
d="M-514 1036h-211l93 439h280z" />
    <glyph glyph-name="uni0328.alt001" 
d="M-430 -188l111 -163q-93 -78 -220 -78q-119 0 -190.5 54t-71.5 145q0 95 79.5 167.5t239.5 139.5l70 -77q-154 -82 -154 -170q0 -49 58 -49q36 0 78 31z" />
    <glyph glyph-name="uni0328.alt002" 
d="M-435 94l64 -77q-213 -76 -213 -176q0 -27 21 -42.5t58 -15.5q56 0 114 39l111 -162q-119 -88 -264 -88q-133 0 -214.5 59.5t-81.5 154.5q0 106 93.5 179.5t311.5 128.5z" />
    <glyph glyph-name="uni0328.alt003" 
d="M-428 -181l112 -157q-103 -91 -237 -91q-111 0 -181 51t-70 139q0 102 91 177.5t281 146.5l63 -82q-195 -87 -195 -174q0 -46 54 -46q37 0 82 36z" />
    <glyph glyph-name="uni0328.alt004" 
d="M-397 -179l119 -158q-111 -92 -254 -92q-138 0 -224.5 64.5t-86.5 165.5q0 96 84 169t294 122l85 -73q-67 -22 -112.5 -46t-65.5 -47t-27.5 -40.5t-7.5 -37.5q0 -30 22.5 -48t62.5 -18q55 0 111 39z" />
    <glyph glyph-name="i.latn_TRK" horiz-adv-x="533" 
d="M507 992l-211 -992h-269l211 992h269zM440 1489q72 0 121.5 -50t49.5 -122t-49.5 -121t-121.5 -49t-121 49t-49 121t49 122t121 50z" />
    <glyph glyph-name="j.latn_NLD" horiz-adv-x="540" 
d="M514 992l-235 -1108q-34 -156 -127.5 -235.5t-228.5 -79.5q-104 0 -180 39l83 224q34 -14 71 -14q43 0 76.5 28.5t45.5 86.5l225 1059h270zM485 1134h-261l238 323h326z" />
    <glyph glyph-name="Ldot.latn_CAT" horiz-adv-x="1212" 
d="M647 1434l-249 -1167h735l-58 -267h-1025l305 1434h292zM924 911q76 0 127.5 -52.5t51.5 -128.5q0 -75 -51.5 -126.5t-127.5 -51.5t-127.5 51.5t-51.5 126.5q0 76 51.5 128.5t127.5 52.5z" />
    <glyph glyph-name="ldot.latn_CAT" horiz-adv-x="747" 
d="M609 1475l-313 -1475h-269l313 1475h269zM707 913q69 0 116.5 -48t47.5 -117q0 -70 -47 -117.5t-117 -47.5t-117 47.5t-47 117.5q0 69 47.5 117t116.5 48z" />
    <glyph glyph-name="zero.numr" horiz-adv-x="912" 
d="M629 1449q145 0 235.5 -91t90.5 -249q0 -73 -18 -147.5t-55.5 -143.5t-89 -123t-124 -86t-155.5 -32q-146 0 -237 90.5t-91 247.5q0 73 18.5 148t56 144t89.5 123t124.5 86.5t155.5 32.5zM616 1257q-67 0 -119 -52.5t-76 -124.5t-24 -145q0 -78 33.5 -122.5t93.5 -44.5
q67 0 119.5 52.5t76.5 124.5t24 146q0 79 -33.5 122.5t-94.5 43.5z" />
    <glyph glyph-name="one.numr" horiz-adv-x="542" 
d="M627 1447l-182 -855h-199l124 584l-196 -61l43 205z" />
    <glyph glyph-name="two.numr" horiz-adv-x="744" 
d="M338 1180l-111 134q120 134 299 134q136 0 209 -72.5t73 -174.5q0 -83 -42 -148.5t-152 -154.5l-151 -122h289l-39 -184h-580l34 160l322 262q62 51 87 86.5t25 70.5q0 37 -28 61.5t-77 24.5q-48 0 -82 -18.5t-76 -58.5z" />
    <glyph glyph-name="three.numr" horiz-adv-x="736" 
d="M311 1196l-91 141q119 111 300 111q129 0 207.5 -63.5t78.5 -155.5q0 -71 -45.5 -132t-120.5 -91q50 -24 76 -65.5t26 -92.5q0 -115 -93 -193t-251 -78q-207 0 -293 122l131 124q57 -69 165 -69q67 0 102.5 27.5t35.5 71.5q0 37 -34.5 58t-89.5 21h-92l34 170h92
q69 0 108.5 27.5t39.5 69.5q0 34 -29.5 53.5t-79.5 19.5q-93 0 -177 -76z" />
    <glyph glyph-name="four.numr" horiz-adv-x="735" 
d="M736 1140l-47 -220h107l-39 -186h-108l-29 -142h-200l30 142h-366l34 159l363 540h228l-345 -513h125l20 93l85 127h142z" />
    <glyph glyph-name="five.numr" horiz-adv-x="733" 
d="M799 1434l-39 -184h-317l-32 -130h53q148 0 224 -83t50 -206q-26 -127 -119 -190.5t-233 -63.5q-91 0 -167 31.5t-122 88.5l118 132q67 -71 180 -71q62 0 97.5 23.5t43.5 64.5q8 46 -23.5 73.5t-109.5 27.5h-206l111 487h491z" />
    <glyph glyph-name="six.numr" horiz-adv-x="764" 
d="M777 1434l-254 -284q122 -6 198.5 -74.5t76.5 -182.5q0 -132 -98 -224t-250 -92q-135 0 -227 75t-92 197q0 131 117 265l275 320h254zM471 983q-57 0 -93 -35.5t-36 -87.5q0 -47 32 -76.5t83 -29.5q57 0 93.5 36t36.5 89q0 46 -33 75t-83 29z" />
    <glyph glyph-name="seven.numr" horiz-adv-x="698" 
d="M852 1434l-34 -167l-423 -675h-238l420 656h-375l39 186h611z" />
    <glyph glyph-name="eight.numr" horiz-adv-x="800" 
d="M583 1448q124 0 207.5 -58t83.5 -155q0 -73 -47 -132.5t-131 -92.5q112 -55 112 -159q0 -116 -99.5 -195t-269.5 -79q-132 0 -218.5 59.5t-86.5 157.5q0 75 49.5 134.5t139.5 91.5q-90 52 -90 149q0 117 96 198t254 81zM486 940q-57 0 -94.5 -30t-37.5 -79
q0 -37 31.5 -59t75.5 -22q58 0 96 29t38 78q0 38 -31.5 60.5t-77.5 22.5zM564 1275q-54 0 -87.5 -28.5t-33.5 -71.5q0 -35 26.5 -56t69.5 -21q52 0 86.5 28.5t34.5 71.5q0 35 -28 56t-68 21z" />
    <glyph glyph-name="nine.numr" horiz-adv-x="764" 
d="M207 592l253 282q-122 7 -198 75.5t-76 183.5q0 131 98.5 223t250.5 92q135 0 226.5 -74.5t91.5 -196.5q0 -132 -117 -266l-275 -319h-254zM514 1042q57 0 93 35.5t36 87.5q0 46 -32.5 76t-83.5 30q-58 0 -94 -36t-36 -89q0 -46 33 -75t84 -29z" />
    <glyph glyph-name="zero.dnom" horiz-adv-x="912" 
d="M500 857q145 0 235.5 -91t90.5 -249q0 -73 -18 -147.5t-55.5 -143.5t-89 -123t-124 -86t-155.5 -32q-146 0 -237 91t-91 248q0 92 30 185t84.5 171.5t141 127.5t188.5 49zM487 666q-67 0 -119 -52.5t-76 -125t-24 -145.5q0 -78 33.5 -122.5t93.5 -44.5q67 0 119.5 52.5
t76.5 124.5t24 146q0 79 -33.5 123t-94.5 44z" />
    <glyph glyph-name="one.dnom" horiz-adv-x="545" 
d="M499 855l-182 -855h-199l124 584l-196 -61l43 205z" />
    <glyph glyph-name="two.dnom" horiz-adv-x="745" 
d="M211 588l-111 134q120 134 299 134q136 0 209 -72.5t73 -174.5q0 -83 -42 -148.5t-152 -154.5l-151 -122h289l-39 -184h-580l34 160l322 262q62 50 87 86.5t25 71.5q0 37 -28 61.5t-77 24.5q-48 0 -81.5 -19t-76.5 -59z" />
    <glyph glyph-name="three.dnom" horiz-adv-x="737" 
d="M184 604l-91 141q119 111 300 111q129 0 207.5 -63.5t78.5 -155.5q0 -71 -45.5 -132t-120.5 -91q50 -24 76 -65.5t26 -92.5q0 -115 -93 -193t-251 -78q-207 0 -293 123l131 123q57 -69 165 -69q67 0 102.5 27.5t35.5 71.5q0 37 -34.5 58t-89.5 21h-92l34 170h92
q69 0 108.5 27.5t39.5 69.5q0 34 -29.5 53.5t-79.5 19.5q-93 0 -177 -76z" />
    <glyph glyph-name="four.dnom" horiz-adv-x="735" 
d="M609 548l-47 -220h107l-39 -186h-108l-29 -142h-200l30 142h-366l34 159l363 540h228l-345 -513h125l20 93l85 127h142z" />
    <glyph glyph-name="five.dnom" horiz-adv-x="734" 
d="M671 842l-39 -184h-317l-32 -130h53q148 0 224 -82.5t50 -205.5q-26 -127 -119 -191t-233 -64q-91 0 -167 31.5t-122 88.5l118 133q67 -72 180 -72q62 0 97.5 23.5t43.5 64.5q8 46 -23.5 73.5t-109.5 27.5h-206l111 487h491z" />
    <glyph glyph-name="six.dnom" horiz-adv-x="764" 
d="M650 842l-254 -284q122 -6 198.5 -74.5t76.5 -182.5q0 -132 -98 -224t-250 -92q-135 0 -227 75t-92 197q0 131 117 265l275 320h254zM344 391q-57 0 -93 -35.5t-36 -87.5q0 -47 32 -76.5t83 -29.5q57 0 93.5 36t36.5 89q0 46 -33 75t-83 29z" />
    <glyph glyph-name="seven.dnom" horiz-adv-x="699" 
d="M725 842l-34 -167l-423 -675h-238l420 656h-375l39 186h611z" />
    <glyph glyph-name="eight.dnom" horiz-adv-x="800" 
d="M455 856q124 0 207.5 -58t83.5 -155q0 -73 -47 -132.5t-131 -92.5q112 -55 112 -159q0 -116 -99.5 -195t-269.5 -79q-132 0 -218.5 59.5t-86.5 157.5q0 75 49.5 134.5t139.5 91.5q-90 52 -90 150q0 117 96 197.5t254 80.5zM358 348q-57 0 -94.5 -29.5t-37.5 -78.5
q0 -37 31.5 -59.5t75.5 -22.5q58 0 96 29t38 78q0 38 -31.5 60.5t-77.5 22.5zM436 683q-54 0 -87.5 -28.5t-33.5 -71.5q0 -35 26.5 -56t69.5 -21q52 0 86.5 28.5t34.5 71.5q0 35 -28 56t-68 21z" />
    <glyph glyph-name="nine.dnom" horiz-adv-x="764" 
d="M83 0l253 283q-122 7 -198 75t-76 183q0 131 98.5 223t250.5 92q135 0 226.5 -74.5t91.5 -196.5q0 -132 -117 -266l-275 -319h-254zM390 451q57 0 93 35.5t36 86.5q0 46 -32.5 76t-83.5 30q-58 0 -94 -36t-36 -89q0 -46 33 -74.5t84 -28.5z" />
    <glyph glyph-name="space.frac" horiz-adv-x="101" 
 />
    <glyph glyph-name="b.ordn" horiz-adv-x="890" 
d="M538 573q-138 0 -209 85l-15 -66h-197l222 1047h198l-79 -369q69 49 168 49q131 0 219 -94.5t88 -232.5q0 -75 -27 -148.5t-76 -134.5t-125.5 -98.5t-166.5 -37.5zM572 1132q-74 0 -127.5 -52.5t-62.5 -131.5q-10 -85 34 -137t118 -52q82 0 137 62t55 150q0 73 -43.5 117
t-110.5 44z" />
    <glyph glyph-name="c.ordn" horiz-adv-x="796" 
d="M861 1146l-169 -92q-51 79 -145 79q-82 0 -137 -61t-55 -147q0 -72 43 -118.5t108 -46.5q86 0 147 68l134 -120q-114 -133 -289 -133q-153 0 -249.5 94.5t-96.5 240.5q0 169 114 288t291 119q215 0 304 -171z" />
    </font>
</defs>
</svg>
