<?xml version="1.0" standalone="no"?>
<!DOCTYPE svg PUBLIC "-//W3C//DTD SVG 1.1//EN" "http://www.w3.org/Graphics/SVG/1.1/DTD/svg11.dtd" >
<svg xmlns="http://www.w3.org/2000/svg" xmlns:xlink="http://www.w3.org/1999/xlink" version="1.1">
<metadata>
Created by FontForge 20170731 at Fri Sep  3 12:30:43 2021
 By Aleksey,,,
2013 published by FontShop International GmbH
</metadata>
<defs>
<font id="MarkPro-Bold" horiz-adv-x="1228" >
  <font-face 
    font-family="MarkPro-Bold"
    font-weight="700"
    font-stretch="normal"
    units-per-em="2048"
    panose-1="2 11 8 4 2 1 1 1 1 2"
    ascent="1618"
    descent="-430"
    x-height="992"
    cap-height="1434"
    bbox="-1394 -484 3180 2280"
    underline-thickness="139"
    underline-position="-404"
    unicode-range="U+000D-FEFF"
  />
<missing-glyph horiz-adv-x="1210" 
d="M140 0v1434h930v-1434h-930zM357 217h496v1000h-496v-1000z" />
    <glyph glyph-name=".notdef" horiz-adv-x="1210" 
d="M140 0v1434h930v-1434h-930zM357 217h496v1000h-496v-1000z" />
    <glyph glyph-name=".null" horiz-adv-x="0" 
 />
    <glyph glyph-name=".null" horiz-adv-x="0" 
 />
    <glyph glyph-name="nonmarkingreturn" horiz-adv-x="682" 
 />
    <glyph glyph-name="CR" unicode="&#xd;" horiz-adv-x="506" 
 />
    <glyph glyph-name="space" unicode=" " horiz-adv-x="506" 
 />
    <glyph glyph-name="exclam" unicode="!" horiz-adv-x="568" 
d="M443 1434l-36 -941h-246l-37 941h319zM285 364q77 0 135 -58t58 -136t-58 -137t-135 -59q-78 0 -137 59t-59 137t59 136t137 58z" />
    <glyph glyph-name="quotedbl" unicode="&#x22;" horiz-adv-x="1149" 
d="M228 1475h268v-612h-268v612zM654 1475h268v-612h-268v612z" />
    <glyph glyph-name="numbersign" unicode="#" horiz-adv-x="1505" 
d="M257 1096h207l73 338h245l-72 -338h244l73 338h246l-73 -338h208l-49 -230h-207l-62 -292h206l-48 -229h-208l-72 -345h-246l73 345h-245l-73 -345h-246l73 345h-207l49 229h207l63 292h-208zM662 866l-63 -292h245l62 292h-244z" />
    <glyph glyph-name="dollar" unicode="$" horiz-adv-x="1433" 
d="M623 1602h227v-190q225 -21 427 -144l-128 -219q-145 88 -299 111v-326q98 -15 176 -44t139.5 -74.5t94 -112.5t30.5 -152q-3 -122 -63.5 -214t-156 -142.5t-219.5 -68.5v-203h-227v197q-139 12 -268 56.5t-221 116.5l140 217q150 -113 348 -140v330l-12 2
q-98 16 -174 44.5t-135 74.5t-89.5 115t-28.5 158q3 169 124 279t315 137v192zM1009 427q1 49 -39 81t-120 53v-283q73 18 115.5 55.5t43.5 93.5zM466 1008q-1 -52 38.5 -83.5t118.5 -52.5v283q-73 -18 -114.5 -55.5t-42.5 -91.5z" />
    <glyph glyph-name="percent" unicode="%" horiz-adv-x="2026" 
d="M475 1459q172 0 286.5 -111.5t114.5 -278.5q0 -169 -114.5 -280.5t-286.5 -111.5q-171 0 -285 111.5t-114 280.5q0 167 114 278.5t285 111.5zM475 1245q-74 0 -123 -50t-49 -126q0 -78 49 -128t123 -50q75 0 124 50t49 128q0 76 -49 126t-124 50zM1626 1434l-960 -1434
h-269l962 1434h267zM1551 757q172 0 286.5 -112t114.5 -279q0 -168 -114.5 -280t-286.5 -112q-171 0 -285 112t-114 280q0 166 114 278.5t285 112.5zM1551 543q-74 0 -123 -50t-49 -127t49 -127.5t123 -50.5q75 0 124 50.5t49 127.5t-49 127t-124 50z" />
    <glyph glyph-name="ampersand" unicode="&#x26;" horiz-adv-x="1508" 
d="M1487 0h-368l-154 147q-184 -173 -424 -173q-211 0 -331 102.5t-120 278.5q0 116 67 211.5t181 182.5q-95 98 -136.5 175.5t-41.5 175.5q0 157 116.5 258t304.5 101q187 0 302 -97.5t115 -256.5q0 -56 -21 -108t-62 -98.5t-83.5 -83.5t-102.5 -80l224 -217l206 289
l202 -139l-229 -323zM562 217q124 0 228 99l-276 265q-137 -111 -137 -206q0 -72 50.5 -115t134.5 -43zM434 1087q0 -40 24.5 -77t98.5 -109q84 59 126.5 104.5t42.5 91.5q0 57 -38.5 89.5t-106.5 32.5q-69 0 -108 -35t-39 -97z" />
    <glyph glyph-name="quotesingle" unicode="'" horiz-adv-x="723" 
d="M228 1475h268v-612h-268v612z" />
    <glyph glyph-name="parenleft" unicode="(" horiz-adv-x="864" 
d="M714 1484l85 -239q-195 -92 -300 -268t-105 -395t105 -395.5t300 -268.5l-85 -239q-272 106 -436.5 348.5t-164.5 554.5t164.5 554t436.5 348z" />
    <glyph glyph-name="parenright" unicode=")" horiz-adv-x="864" 
d="M151 -319l-85 238q195 92 299.5 268t104.5 396t-104.5 395.5t-299.5 267.5l85 239q272 -106 436.5 -348t164.5 -554t-164.5 -554t-436.5 -348z" />
    <glyph glyph-name="asterisk" unicode="*" horiz-adv-x="972" 
d="M146 1302l242 -84l-4 257h206l-5 -257l242 84l64 -197l-245 -75l155 -204l-167 -121l-148 209l-146 -209l-167 121l154 204l-245 75z" />
    <glyph glyph-name="plus" unicode="+" 
d="M731 74h-233v357h-355v228h355v358h233v-358h354v-228h-354v-357z" />
    <glyph glyph-name="comma" unicode="," horiz-adv-x="546" 
d="M155 324h300l-144 -611h-225z" />
    <glyph glyph-name="hyphen" unicode="-" horiz-adv-x="832" 
d="M719 662v-234h-605v234h605z" />
    <glyph glyph-name="period" unicode="." horiz-adv-x="567" 
d="M285 372q79 0 138 -59.5t59 -138.5q0 -81 -59 -140.5t-138 -59.5q-80 0 -140 59.5t-60 140.5q0 79 60 138.5t140 59.5z" />
    <glyph glyph-name="slash" unicode="/" horiz-adv-x="1060" 
d="M1111 1577l-869 -1782h-283l869 1782h283z" />
    <glyph glyph-name="zero" unicode="0" horiz-adv-x="1445" 
d="M723 1459q128 0 240.5 -51.5t196.5 -145t132.5 -234.5t48.5 -311t-48.5 -311t-132.5 -235t-196.5 -145.5t-240.5 -51.5q-129 0 -241.5 51.5t-196 145.5t-132 235t-48.5 311t48.5 311t132 234.5t196 145t241.5 51.5zM723 1194q-143 0 -236.5 -125.5t-93.5 -351.5
t93.5 -351.5t236.5 -125.5q144 0 237 125t93 352t-93 352t-237 125z" />
    <glyph glyph-name="one" unicode="1" horiz-adv-x="840" 
d="M673 1456v-1456h-277v1067l-343 -139v278z" />
    <glyph glyph-name="two" unicode="2" horiz-adv-x="1153" 
d="M247 1037l-178 175q191 247 489 247q223 0 354.5 -127.5t131.5 -335.5q0 -121 -52.5 -217t-153.5 -201l-307 -319h548v-259h-947v216l507 519q118 120 118 246q0 94 -60.5 154t-158.5 60q-93 0 -158.5 -41t-132.5 -117z" />
    <glyph glyph-name="three" unicode="3" horiz-adv-x="1171" 
d="M543 1459q227 0 367.5 -113t140.5 -298q0 -112 -56 -195.5t-158 -130.5q115 -45 180 -130t65 -199q0 -103 -44 -184.5t-118.5 -131.5t-168 -76.5t-197.5 -26.5q-160 0 -289 54.5t-212 153.5l165 182q62 -65 148 -101.5t178 -36.5q110 0 180.5 48t70.5 139q0 89 -79.5 138
t-201.5 49h-167v246h168q109 0 180 47.5t71 134.5q0 84 -67 131.5t-171 47.5q-93 0 -167 -40.5t-122 -104.5l-174 175q75 102 195 162t283 60z" />
    <glyph glyph-name="four" unicode="4" horiz-adv-x="1196" 
d="M954 902v-382h200v-258h-200v-262h-276v262h-636v201l503 970h307l-479 -913h305v382h276z" />
    <glyph glyph-name="five" unicode="5" horiz-adv-x="1193" 
d="M1020 1434v-257h-581l-6 -287h165q122 0 219 -33.5t158 -92.5t93 -136.5t32 -168.5q0 -113 -41 -205.5t-112 -153t-166 -93.5t-204 -33q-158 0 -287.5 56t-220.5 158l155 194q60 -66 156.5 -109t193.5 -43q115 0 177 59t62 149q0 91 -68 146.5t-224 55.5h-341l16 794h824
z" />
    <glyph glyph-name="six" unicode="6" horiz-adv-x="1208" 
d="M931 1434l-353 -499q38 4 66 4q216 0 356.5 -136.5t140.5 -339.5q0 -210 -154.5 -349.5t-385.5 -139.5q-230 0 -384 138t-154 346q0 175 137 381l397 595h334zM601 696q-107 0 -178.5 -66t-71.5 -169t71.5 -169.5t178.5 -66.5q109 0 180.5 66t71.5 170q0 103 -71.5 169
t-180.5 66z" />
    <glyph glyph-name="seven" unicode="7" horiz-adv-x="1126" 
d="M1074 1434v-216l-594 -1218h-325l589 1176h-681v258h1011z" />
    <glyph glyph-name="eight" unicode="8" horiz-adv-x="1299" 
d="M650 1459q146 0 264.5 -48t190 -143t71.5 -220q0 -117 -59.5 -198t-160.5 -127q116 -45 185 -127.5t69 -205.5q0 -127 -76 -223t-202.5 -144.5t-281.5 -48.5t-281.5 48.5t-202.5 144.5t-76 223q0 234 253 333q-100 46 -159 127t-59 198q0 125 71 220t189.5 143t264.5 48z
M650 610q-112 0 -187 -52t-75 -144q0 -91 75 -142t187 -51t187 51t75 142q0 92 -75 144t-187 52zM650 1209q-100 0 -165.5 -48.5t-65.5 -134.5q0 -89 65.5 -138.5t165.5 -49.5t166 49.5t66 138.5q0 86 -66 134.5t-166 48.5z" />
    <glyph glyph-name="nine" unicode="9" horiz-adv-x="1208" 
d="M278 0l351 499q-25 -4 -65 -4q-216 0 -356 136.5t-140 339.5q0 210 153.5 349t384.5 139q151 0 274.5 -62.5t194 -173t70.5 -247.5q0 -178 -136 -381l-398 -595h-333zM606 737q108 0 179.5 66.5t71.5 169.5t-71.5 169t-179.5 66q-109 0 -180 -65.5t-71 -169.5
q0 -103 71.5 -169.5t179.5 -66.5z" />
    <glyph glyph-name="colon" unicode=":" horiz-adv-x="567" 
d="M285 1019q79 0 138 -59.5t59 -138.5q0 -81 -59 -140t-138 -59q-80 0 -140 59t-60 140q0 79 60 138.5t140 59.5zM285 372q79 0 138 -59.5t59 -138.5q0 -81 -59 -140.5t-138 -59.5q-80 0 -140 59.5t-60 140.5q0 79 60 138.5t140 59.5z" />
    <glyph glyph-name="semicolon" unicode=";" horiz-adv-x="546" 
d="M291 1019q79 0 138 -59.5t59 -138.5q0 -81 -59 -140t-138 -59q-80 0 -140 59t-60 140q0 79 60 138.5t140 59.5zM155 324h300l-144 -611h-225z" />
    <glyph glyph-name="less" unicode="&#x3c;" 
d="M1034 297v-266l-838 390v249l838 390v-266l-584 -248z" />
    <glyph glyph-name="equal" unicode="=" 
d="M1085 442v-228h-942v228h942zM1085 877v-229h-942v229h942z" />
    <glyph glyph-name="greater" unicode="&#x3e;" 
d="M196 794v266l838 -390v-249l-838 -390v266l584 248z" />
    <glyph glyph-name="question" unicode="?" horiz-adv-x="912" 
d="M423 489h-247v349h98q149 0 227 46t78 136q0 83 -77 126.5t-224 43.5q-70 0 -156 -8l-20 269q93 13 207 13q266 0 415 -114t149 -310q0 -177 -114 -288t-328 -145zM300 365q77 0 135.5 -58t58.5 -136q0 -79 -58.5 -138t-135.5 -59q-78 0 -137 59t-59 137t59 136.5
t137 58.5z" />
    <glyph glyph-name="at" unicode="@" horiz-adv-x="1980" 
d="M1376 899v-441q0 -88 21 -128t72 -40q69 0 110 65t41 201q0 170 -80 305t-223.5 211.5t-324.5 76.5q-182 0 -324.5 -80t-222.5 -225.5t-80 -331.5q0 -284 174 -462t446 -178q223 0 389 117l122 -165q-216 -158 -511 -158q-185 0 -344 64t-270.5 176t-175 269t-63.5 337
q0 239 109 431t306 301.5t445 109.5q185 0 345.5 -62t272.5 -168.5t175.5 -253.5t63.5 -313q0 -207 -105.5 -337.5t-285.5 -130.5q-191 0 -264 136q-89 -122 -252 -122q-166 0 -271.5 117t-105.5 292q0 174 105.5 291.5t263.5 117.5q141 0 227 -103v81h215zM978 715
q-84 0 -135 -58t-51 -145t51 -145t135 -58q83 0 135 57t52 146t-52 146t-135 57z" />
    <glyph glyph-name="A" unicode="A" horiz-adv-x="1507" 
d="M928 1434l558 -1434h-305l-125 334h-612l-125 -334h-297l558 1434h348zM751 1151l-208 -554h414z" />
    <glyph glyph-name="B" unicode="B" horiz-adv-x="1417" 
d="M163 1434h586q258 0 400.5 -99t142.5 -299q0 -106 -58 -188t-150 -116q102 -34 170.5 -121.5t68.5 -199.5q0 -204 -139.5 -307.5t-400.5 -103.5h-620v1434zM769 596h-320v-344l320 -1q128 0 192.5 38.5t64.5 135.5q0 95 -65 133t-192 38zM740 1182h-291v-335h292
q58 0 100.5 7t78.5 25t55 52.5t19 84.5q0 49 -19 82.5t-55.5 51.5t-79.5 25t-100 7z" />
    <glyph glyph-name="C" unicode="C" horiz-adv-x="1546" 
d="M847 1460q199 0 363 -85.5t251 -235.5l-246 -151q-62 94 -157 146t-213 52q-197 0 -325 -130.5t-128 -338.5q1 -212 130 -340.5t323 -128.5q239 0 374 196l233 -168q-97 -142 -254.5 -222.5t-350.5 -80.5q-163 0 -303.5 56t-239 154t-154.5 236t-56 298q0 213 95.5 382.5
t268 265t389.5 95.5z" />
    <glyph glyph-name="D" unicode="D" horiz-adv-x="1592" 
d="M163 1434h591q337 0 540.5 -196.5t203.5 -520.5t-203.5 -520.5t-540.5 -196.5h-591v1434zM751 1166h-302v-899h302q219 0 333.5 123.5t114.5 326.5q0 205 -114 327t-334 122z" />
    <glyph glyph-name="E" unicode="E" horiz-adv-x="1363" 
d="M1234 262v-262h-1071v1434h1063v-263h-777v-317h741v-262h-741v-330h785z" />
    <glyph glyph-name="F" unicode="F" horiz-adv-x="1312" 
d="M1167 844v-263h-718v-581h-286v1434h1052v-264h-766v-326h718z" />
    <glyph glyph-name="G" unicode="G" horiz-adv-x="1638" 
d="M851 1460q168 0 307.5 -57.5t236.5 -162.5l-206 -202q-132 151 -346 151q-198 0 -325.5 -131.5t-127.5 -340.5q0 -143 60.5 -252.5t162 -166.5t225.5 -57q173 0 275.5 81t131.5 235h-364v239h659q4 -37 4 -81q0 -160 -52.5 -298.5t-144.5 -235.5t-222 -152t-281 -55
q-149 0 -284.5 52t-239 145.5t-165 235t-61.5 310.5q0 214 97 383.5t270 264.5t390 95z" />
    <glyph glyph-name="H" unicode="H" horiz-adv-x="1587" 
d="M449 1434v-578h690v578h285v-1434h-285v590h-690v-590h-286v1434h286z" />
    <glyph glyph-name="I" unicode="I" horiz-adv-x="611" 
d="M449 1434v-1434h-286v1434h286z" />
    <glyph glyph-name="J" unicode="J" horiz-adv-x="1156" 
d="M1001 1434v-912q0 -262 -141.5 -405t-372.5 -143q-294 0 -457 199l166 208q107 -133 278 -133q117 0 179.5 74.5t62.5 226.5v885h285z" />
    <glyph glyph-name="K" unicode="K" horiz-adv-x="1458" 
d="M1091 0l-510 590h-132v-590h-286v1434h286v-581h135l474 581h358l-601 -700l646 -734h-370z" />
    <glyph glyph-name="L" unicode="L" horiz-adv-x="1239" 
d="M1206 267v-267h-1043v1434h286v-1167h757z" />
    <glyph glyph-name="M" unicode="M" horiz-adv-x="1907" 
d="M1745 1434v-1434h-286v1082l-354 -944h-302l-354 936v-1074h-286v1434h419l372 -968l372 968h419z" />
    <glyph glyph-name="N" unicode="N" horiz-adv-x="1607" 
d="M1445 1434v-1434h-268l-727 957l-1 -957h-286v1434h267l728 -958v958h287z" />
    <glyph glyph-name="O" unicode="O" horiz-adv-x="1694" 
d="M847 1460q217 0 389.5 -96t268.5 -265.5t96 -381.5t-96 -381.5t-268.5 -266t-389.5 -96.5t-389.5 96.5t-268 266t-95.5 381.5q0 159 56 296.5t154.5 236t239 154.5t303.5 56zM847 1186q-199 0 -327 -130.5t-128 -338.5t128 -338.5t327 -130.5t327 130.5t128 338.5
t-128 338.5t-327 130.5z" />
    <glyph glyph-name="P" unicode="P" horiz-adv-x="1352" 
d="M750 524h-301v-524h-286v1434h585q252 0 388 -122t136 -334q0 -210 -135.5 -332t-386.5 -122zM742 1170h-293v-385h293q237 0 237 193q0 192 -237 192z" />
    <glyph glyph-name="Q" unicode="Q" horiz-adv-x="1704" 
d="M847 1460q217 0 389.5 -96t268.5 -265.5t96 -381.5q0 -252 -145 -445l202 -272h-336l-67 88q-181 -115 -408 -115q-217 0 -389.5 96.5t-268 266t-95.5 381.5q0 159 56 296.5t154.5 236t239 154.5t303.5 56zM847 1186q-199 0 -327 -130.5t-128 -338.5t128 -338.5
t327 -130.5q136 0 242 63l-262 348h342l99 -133q34 88 34 191q0 208 -128 338.5t-327 130.5z" />
    <glyph glyph-name="R" unicode="R" horiz-adv-x="1392" 
d="M163 1434h606q254 0 389.5 -115t135.5 -322q0 -177 -116.5 -290t-322.5 -133l441 -574h-346l-418 570h-83v-570h-286v1434zM764 1170h-315v-351h315q236 0 236 178q0 173 -236 173z" />
    <glyph glyph-name="S" unicode="S" horiz-adv-x="1385" 
d="M1271 1306l-135 -234q-197 122 -407 122q-123 0 -198.5 -46t-75.5 -126q0 -38 20.5 -65.5t64.5 -46.5t90.5 -30.5t120.5 -23.5l80 -13q457 -75 457 -402q0 -92 -31.5 -169.5t-86.5 -131.5t-129.5 -92t-160 -56t-179.5 -18q-168 0 -330 48.5t-274 139.5l149 230
q83 -67 204 -110.5t252 -43.5q123 0 202.5 46t79.5 127q0 70 -71.5 106t-232.5 62l-91 14q-437 69 -437 411q0 144 80 249t207.5 155t283.5 50q152 0 283 -36t265 -116z" />
    <glyph glyph-name="T" unicode="T" horiz-adv-x="1240" 
d="M1207 1434v-268h-444v-1166h-286v1166h-444v268h1174z" />
    <glyph glyph-name="U" unicode="U" horiz-adv-x="1527" 
d="M1381 1434v-862q0 -194 -79 -330t-216 -202t-322 -66q-282 0 -450 154.5t-168 443.5v862h287v-847q0 -171 88 -255t243 -84t243 84t88 255v847h286z" />
    <glyph glyph-name="V" unicode="V" horiz-adv-x="1467" 
d="M1446 1434l-539 -1434h-347l-538 1434h304l410 -1144l413 1144h297z" />
    <glyph glyph-name="W" unicode="W" horiz-adv-x="2232" 
d="M2198 1434l-429 -1434h-346l-307 1024l-307 -1024h-346l-428 1434h297l308 -1100l321 1100h316l320 -1100l309 1100h292z" />
    <glyph glyph-name="X" unicode="X" horiz-adv-x="1388" 
d="M1343 1434l-477 -706l491 -728h-335l-330 511l-331 -511h-329l489 728l-476 706h336l315 -492l318 492h329z" />
    <glyph glyph-name="Y" unicode="Y" horiz-adv-x="1394" 
d="M1389 1434l-545 -869v-565h-286v566l-552 868h336l360 -609l361 609h326z" />
    <glyph glyph-name="Z" unicode="Z" horiz-adv-x="1318" 
d="M1222 1434v-224l-745 -947h745v-263h-1125v223l745 947h-743v264h1123z" />
    <glyph glyph-name="bracketleft" unicode="[" horiz-adv-x="784" 
d="M719 -28v-241h-556v1703h556v-242h-285v-1220h285z" />
    <glyph glyph-name="backslash" unicode="\" horiz-adv-x="1060" 
d="M819 -205l-869 1782h282l870 -1782h-283z" />
    <glyph glyph-name="bracketright" unicode="]" horiz-adv-x="784" 
d="M66 1192v242h556v-1703h-556v241h284v1220h-284z" />
    <glyph glyph-name="asciicircum" unicode="^" 
d="M391 650h-267l365 784h250l366 -784h-274l-220 518z" />
    <glyph glyph-name="underscore" unicode="_" horiz-adv-x="962" 
d="M968 -105v-218h-973v218h973z" />
    <glyph glyph-name="grave" unicode="`" horiz-adv-x="1024" 
d="M775 1135h-255l-270 322h319z" />
    <glyph glyph-name="a" unicode="a" horiz-adv-x="1257" 
d="M1117 992v-992h-261v110q-110 -136 -297 -136q-205 0 -342.5 150t-137.5 373t137.5 372.5t342.5 149.5q186 0 297 -136v109h261zM608 770q-115 0 -185.5 -78t-70.5 -195t70.5 -195.5t185.5 -78.5q114 0 185 77.5t71 196.5t-71 196t-185 77z" />
    <glyph glyph-name="b" unicode="b" horiz-adv-x="1256" 
d="M697 1019q206 0 344 -149.5t138 -372.5t-138 -373t-343 -150q-186 0 -297 136v-110h-261v1475h267v-586q108 130 290 130zM648 770q-113 0 -184 -77t-71 -196t71 -196.5t184 -77.5q116 0 186 78.5t70 195.5t-70 195t-186 78z" />
    <glyph glyph-name="c" unicode="c" horiz-adv-x="1057" 
d="M607 1019q124 0 226.5 -49t171.5 -139l-193 -160q-91 99 -212 99q-106 0 -177.5 -76t-71.5 -197q0 -122 71 -198t177 -76q123 0 216 101l191 -163q-70 -90 -172.5 -138.5t-226.5 -48.5q-235 0 -381.5 147.5t-146.5 375.5q0 227 146.5 374.5t381.5 147.5z" />
    <glyph glyph-name="d" unicode="d" horiz-adv-x="1257" 
d="M559 1019q184 0 292 -130v586h266v-1475h-261v110q-110 -136 -297 -136q-205 0 -342.5 150t-137.5 373t137.5 372.5t342.5 149.5zM608 770q-115 0 -185.5 -78t-70.5 -195t70.5 -195.5t185.5 -78.5q114 0 185 77.5t71 196.5t-71 196t-185 77z" />
    <glyph glyph-name="e" unicode="e" horiz-adv-x="1140" 
d="M581 1019q214 0 347.5 -144.5t134.5 -376.5q0 -52 -5 -90h-704q21 -103 88.5 -154.5t166.5 -51.5q137 0 251 95l157 -172q-166 -151 -423 -151q-229 0 -372 143.5t-143 376.5q0 234 139.5 379.5t362.5 145.5zM579 788q-93 0 -149.5 -52t-74.5 -146h440q-19 96 -74.5 147
t-141.5 51z" />
    <glyph glyph-name="f" unicode="f" horiz-adv-x="869" 
d="M803 992v-237h-308v-755h-268v755h-185v237h185v123q0 177 93 281t263 104t305 -89l-107 -208q-87 48 -170 48q-116 0 -116 -139v-120h308z" />
    <glyph glyph-name="g" unicode="g" horiz-adv-x="1245" 
d="M536 1019q196 0 307 -137v110h262v-910q0 -238 -144.5 -374.5t-391.5 -136.5q-121 0 -236.5 31t-197.5 89l95 218q153 -102 328 -102q128 0 205.5 69.5t77.5 194.5v69q-110 -134 -305 -134q-90 0 -173 37t-146 101.5t-100.5 160.5t-37.5 207t37.5 207t100.5 161t146 102
t173 37zM603 773q-112 0 -181 -75t-69 -186q0 -110 69 -185t181 -75q110 0 179.5 74t69.5 186t-69.5 186.5t-179.5 74.5z" />
    <glyph glyph-name="h" unicode="h" horiz-adv-x="1210" 
d="M408 1476v-590q96 133 284 133q170 0 278 -107.5t108 -279.5v-632h-267v546q0 107 -51 164.5t-143 57.5q-91 0 -150 -58t-59 -166v-544h-268v1476h268z" />
    <glyph glyph-name="i" unicode="i" horiz-adv-x="547" 
d="M408 992v-992h-268v992h268zM272 1489q72 0 121.5 -50t49.5 -122t-49.5 -121t-121.5 -49t-121 49t-49 121t49 122t121 50z" />
    <glyph glyph-name="j" unicode="j" horiz-adv-x="551" 
d="M412 992v-1086q0 -160 -84.5 -248.5t-224.5 -88.5q-86 0 -150 27l40 234q34 -12 72 -12q79 0 79 103v1071h268zM275 1489q72 0 121.5 -50t49.5 -122t-49.5 -121t-121.5 -49t-121 49t-49 121t49 122t121 50z" />
    <glyph glyph-name="k" unicode="k" horiz-adv-x="1121" 
d="M408 1475v-836h94l279 353h328l-391 -467l394 -525h-329l-285 401h-90v-401h-268v1475h268z" />
    <glyph glyph-name="l" unicode="l" horiz-adv-x="547" 
d="M408 1475v-1475h-268v1475h268z" />
    <glyph glyph-name="m" unicode="m" horiz-adv-x="1880" 
d="M1357 1019q175 0 283 -107t108 -280v-632h-266v546q0 106 -51.5 164t-142.5 58t-150.5 -58t-59.5 -166v-544h-267v546q0 107 -51 164.5t-143 57.5q-91 0 -150 -58t-59 -166v-544h-268v992h260v-116q97 143 292 143q106 0 191.5 -45t136.5 -125q104 170 337 170z" />
    <glyph glyph-name="n" unicode="n" horiz-adv-x="1210" 
d="M692 1019q170 0 278 -107.5t108 -279.5v-632h-267v546q0 107 -51 164.5t-143 57.5q-91 0 -150 -58t-59 -166v-544h-268v992h260v-116q97 143 292 143z" />
    <glyph glyph-name="o" unicode="o" horiz-adv-x="1229" 
d="M614 1019q232 0 385 -149t153 -373t-153 -373.5t-385 -149.5q-152 0 -274.5 68t-191.5 187.5t-69 267.5q0 111 40.5 207.5t111 165.5t170 109t213.5 40zM614 770q-114 0 -188.5 -76.5t-74.5 -196.5t74.5 -197t188.5 -77t189.5 77t75.5 197t-75.5 196.5t-189.5 76.5z" />
    <glyph glyph-name="p" unicode="p" horiz-adv-x="1256" 
d="M697 1019q206 0 344 -149.5t138 -372.5t-138 -373t-343 -150q-182 0 -291 129v-513h-267v1402h261v-109q109 136 296 136zM648 770q-113 0 -184 -77t-71 -196t71 -196.5t184 -77.5q116 0 186 78.5t70 195.5t-70 195t-186 78z" />
    <glyph glyph-name="q" unicode="q" horiz-adv-x="1257" 
d="M559 1019q186 0 297 -136v109h261v-1402h-266v513q-109 -129 -292 -129q-205 0 -342.5 150t-137.5 373t137.5 372.5t342.5 149.5zM608 770q-115 0 -185.5 -78t-70.5 -195t70.5 -195.5t185.5 -78.5q114 0 185 77.5t71 196.5t-71 196t-185 77z" />
    <glyph glyph-name="r" unicode="r" horiz-adv-x="860" 
d="M679 1019q76 0 139 -22l-40 -265q-74 32 -162 32q-95 0 -151.5 -57.5t-56.5 -165.5v-541h-268v992h259v-108q90 135 280 135z" />
    <glyph glyph-name="s" unicode="s" horiz-adv-x="1038" 
d="M942 924l-90 -208q-67 33 -152.5 56.5t-163.5 24.5q-74 0 -113.5 -24t-39.5 -66q0 -39 40.5 -56t121.5 -29l88 -14q335 -51 335 -297q0 -155 -121 -246t-335 -91q-275 0 -441 117l105 203q147 -97 338 -97q183 0 183 93q0 36 -39 57.5t-126 33.5l-80 11q-343 48 -343 301
q0 153 111 239t307 86q224 0 415 -94z" />
    <glyph glyph-name="t" unicode="t" horiz-adv-x="955" 
d="M860 992v-237h-359v-363q0 -88 40.5 -128.5t107.5 -40.5q81 0 187 65l98 -209q-155 -105 -329 -105q-184 0 -278 101.5t-94 295.5v384h-191v237h191v295h268v-295h359z" />
    <glyph glyph-name="u" unicode="u" horiz-adv-x="1203" 
d="M1071 992v-569q0 -114 -38 -202t-104 -140.5t-148.5 -79.5t-178.5 -27t-179 27t-149 79.5t-104 140.5t-38 202v569h267v-546q0 -114 55 -168.5t148 -54.5q92 0 147.5 54.5t55.5 168.5v546h266z" />
    <glyph glyph-name="v" unicode="v" horiz-adv-x="1125" 
d="M1107 992l-388 -992h-308l-393 992h291l257 -710l259 710h282z" />
    <glyph glyph-name="w" unicode="w" horiz-adv-x="1773" 
d="M1028 992l225 -696l213 696h280l-336 -992h-305l-220 671l-218 -671h-303l-336 992h284l212 -693l222 693h282z" />
    <glyph glyph-name="x" unicode="x" horiz-adv-x="1124" 
d="M1091 992l-356 -487l362 -505h-318l-223 315l-219 -315h-309l364 504l-355 488h317l214 -308l213 308h310z" />
    <glyph glyph-name="y" unicode="y" horiz-adv-x="1155" 
d="M1146 992l-759 -1406h-293l347 625l-428 781h303l273 -510l264 510h293z" />
    <glyph glyph-name="z" unicode="z" horiz-adv-x="1064" 
d="M955 992v-195l-489 -558h501v-239h-869v193l501 562h-483v237h839z" />
    <glyph glyph-name="braceleft" unicode="{" horiz-adv-x="902" 
d="M837 1196h-67q-89 0 -139.5 -49t-46.5 -138l4 -97q11 -251 -215 -329q226 -78 215 -330l-4 -96q-4 -89 46.5 -138.5t139.5 -49.5h67v-237h-88q-219 0 -332 118t-104 324l4 100q4 91 -54.5 141t-165.5 50v234q107 0 165.5 50.5t54.5 141.5l-4 100q-9 206 104 324.5
t332 118.5h88v-238z" />
    <glyph glyph-name="bar" unicode="|" horiz-adv-x="723" 
d="M496 1434v-1705h-268v1705h268z" />
    <glyph glyph-name="braceright" unicode="}" horiz-adv-x="902" 
d="M66 -31h66q89 0 139.5 49.5t46.5 138.5l-4 96q-11 252 215 330q-226 78 -215 329l4 97q4 89 -46.5 138t-139.5 49h-66v238h88q219 0 331.5 -118.5t103.5 -324.5l-4 -100q-4 -91 54.5 -141t165.5 -50v-234q-107 0 -165.5 -50.5t-54.5 -141.5l4 -100q9 -206 -103.5 -324
t-331.5 -118h-88v237z" />
    <glyph glyph-name="asciitilde" unicode="~" 
d="M980 698l129 -162q-123 -147 -304 -147q-64 0 -123 14t-96 31.5t-83.5 31.5t-88.5 14q-72 0 -164 -89l-129 163q120 146 303 146q81 0 152.5 -23t130 -45.5t109.5 -22.5q72 0 164 89z" />
    <glyph glyph-name="uni00A0" unicode="&#xa0;" horiz-adv-x="506" 
 />
    <glyph glyph-name="exclamdown" unicode="&#xa1;" horiz-adv-x="568" 
d="M125 -440l37 941h246l36 -941h-319zM284 630q-78 0 -136 57.5t-58 135.5t58.5 137t135.5 59q78 0 136.5 -59t58.5 -137t-58.5 -135.5t-136.5 -57.5z" />
    <glyph glyph-name="cent" unicode="&#xa2;" horiz-adv-x="1433" 
d="M653 1434h228v-203q194 -30 314 -178l-182 -156q-64 62 -132 85v-530q77 26 137 86l177 -158q-122 -148 -314 -177v-203h-228v209q-189 39 -300.5 177t-111.5 331q0 192 111.5 330t300.5 177v210zM505 717q0 -87 40 -153t108 -99v504q-68 -34 -108 -99.5t-40 -152.5z" />
    <glyph glyph-name="sterling" unicode="&#xa3;" horiz-adv-x="1433" 
d="M1252 259v-259h-1089v259h164v346h-164v223h164v66q0 138 42.5 247.5t117.5 178t171.5 104t208.5 35.5q249 0 398 -150l-185 -196q-82 82 -213 82q-120 0 -192.5 -77.5t-72.5 -235.5v-54h495v-223h-495v-346h650z" />
    <glyph glyph-name="currency" unicode="&#xa4;" horiz-adv-x="1433" 
d="M144 1138l151 151l157 -157q121 77 266 77q142 0 264 -76l156 156l150 -151l-155 -156q77 -121 77 -265q0 -145 -77 -266l156 -155l-150 -152l-157 156q-122 -77 -264 -77q-144 0 -267 78l-155 -157l-151 152l156 155q-77 121 -77 266q0 143 77 264zM718 436
q117 0 198 81.5t81 199.5q0 117 -81 198t-198 81q-118 0 -199.5 -81t-81.5 -198q0 -118 81.5 -199.5t199.5 -81.5z" />
    <glyph glyph-name="yen" unicode="&#xa5;" horiz-adv-x="1433" 
d="M1235 465v-190h-373v-275h-276v275h-374v190h374v138h-374v190h286l-435 641h323l338 -525l332 525h315l-426 -641h290v-190h-373v-138h373z" />
    <glyph glyph-name="brokenbar" unicode="&#xa6;" horiz-adv-x="723" 
d="M496 1434v-711h-268v711h268zM496 439v-710h-268v710h268z" />
    <glyph glyph-name="section" unicode="&#xa7;" horiz-adv-x="1334" 
d="M1190 1330l-121 -218q-180 103 -363 103q-110 0 -178.5 -36.5t-68.5 -99.5q0 -60 68.5 -89t208.5 -49l71 -10q124 -19 213 -58.5t143.5 -110.5t54.5 -168q0 -170 -145 -268q120 -90 120 -239q0 -103 -44 -184t-119.5 -130.5t-170 -74.5t-201.5 -25q-152 0 -296 40.5
t-245 115.5l134 216q183 -129 411 -129q110 0 179.5 36t70.5 103q0 58 -64.5 85.5t-210.5 49.5l-77 12q-404 60 -404 348q0 160 143 257q-120 88 -120 250q0 183 146 292.5t373 109.5q135 0 252 -30.5t240 -98.5zM582 705q-31 4 -42 7q-105 -42 -105 -133q0 -33 19 -56
t60 -38.5t84.5 -25t114.5 -19.5l69 -10q44 -7 56 -10q99 43 99 136q0 60 -66 89t-209 49z" />
    <glyph glyph-name="dieresis" unicode="&#xa8;" horiz-adv-x="1095" 
d="M325 1458q72 0 122 -50t50 -122t-50 -121t-122 -49t-121 49t-49 121t49 122t121 50zM766 1458q72 0 122 -50t50 -122t-50 -121t-122 -49t-121 49t-49 121t49 122t121 50z" />
    <glyph glyph-name="copyright" unicode="&#xa9;" horiz-adv-x="1909" 
d="M955 1555q172 0 328 -65.5t268.5 -176.5t179 -264t66.5 -321t-66.5 -321.5t-179 -264.5t-268.5 -177t-328 -66t-328 66t-268.5 177t-179 264.5t-66.5 321.5t66.5 321t179 264t268.5 176.5t328 65.5zM955 1329q-124 0 -236.5 -47.5t-193.5 -128t-129 -191.5t-48 -234
q0 -164 81 -303t221 -219.5t305 -80.5t304.5 80.5t221 219.5t81.5 303t-81.5 302.5t-221 218.5t-304.5 80zM1341 949l-193 -108q-61 104 -180 104q-85 0 -141 -61t-56 -156q0 -104 58 -160.5t140 -56.5q115 0 184 104l180 -128q-59 -89 -151 -138t-211 -49q-189 0 -310 120
t-121 308t121 308t310 120q120 0 218.5 -55t151.5 -152z" />
    <glyph glyph-name="ordfeminine" unicode="&#xaa;" horiz-adv-x="813" 
d="M386 1318q154 0 242.5 -78.5t88.5 -231.5v-416h-192v70q-87 -89 -213 -89q-116 0 -183 62.5t-67 165.5q0 101 79 159t217 58h158q-11 126 -151 126q-100 0 -193 -66l-77 151q119 89 291 89zM361 731q92 0 160 77v79h-133q-61 0 -90.5 -22.5t-29.5 -55.5t23.5 -55.5
t69.5 -22.5z" />
    <glyph glyph-name="guillemotleft" unicode="&#xab;" horiz-adv-x="1113" 
d="M819 545l198 -400h-269l-198 400l198 399h269zM359 545l198 -400h-269l-198 400l198 399h269z" />
    <glyph glyph-name="logicalnot" unicode="&#xac;" 
d="M143 659h942v-548h-233v320h-709v228z" />
    <glyph glyph-name="uni00AD" unicode="&#xad;" horiz-adv-x="832" 
d="M719 662v-234h-605v234h605z" />
    <glyph glyph-name="registered" unicode="&#xae;" horiz-adv-x="1032" 
d="M517 1478q131 0 241 -62.5t173 -169.5t63 -233q0 -192 -139.5 -328.5t-337.5 -136.5q-201 0 -340 136.5t-139 328.5q0 193 139 329t340 136zM517 684q135 0 231 96.5t96 232.5t-96 232t-231 96q-138 0 -234 -96t-96 -232t96 -232.5t234 -96.5zM337 1221h205
q84 0 129.5 -38t45.5 -103q0 -50 -31.5 -84t-90.5 -44l127 -147h-141l-114 143h-10v-143h-120v416zM540 1117h-83v-73h83q55 0 55 36q0 37 -55 37z" />
    <glyph glyph-name="macron" unicode="&#xaf;" horiz-adv-x="1079" 
d="M201 1179v214h678v-214h-678z" />
    <glyph glyph-name="degree" unicode="&#xb0;" horiz-adv-x="878" 
d="M439 668q-166 0 -283.5 115t-117.5 279q0 165 117 281t284 116q166 0 284 -116t118 -281q0 -163 -118 -278.5t-284 -115.5zM439 877q73 0 127.5 54.5t54.5 130.5t-54.5 130t-127.5 54q-75 0 -128.5 -54t-53.5 -130q0 -77 53.5 -131t128.5 -54z" />
    <glyph glyph-name="plusminus" unicode="&#xb1;" 
d="M731 325h-233v265h-355v228h355v330h233v-330h354v-228h-354v-265zM1085 228v-228h-942v228h942z" />
    <glyph glyph-name="twosuperior" unicode="&#xb2;" horiz-adv-x="742" 
d="M176 1167l-122 132q120 149 314 149q136 0 217 -74t81 -197q0 -73 -31.5 -131.5t-103.5 -126.5l-147 -141h301v-186h-587v158l296 281q63 60 63 123q0 45 -31.5 73t-79.5 28q-51 0 -90 -23t-80 -65z" />
    <glyph glyph-name="threesuperior" unicode="&#xb3;" horiz-adv-x="747" 
d="M341 1448q141 0 229 -67t88 -176q0 -131 -123 -189q67 -27 104.5 -76.5t37.5 -114.5q0 -80 -48 -138t-121.5 -84t-161.5 -26q-198 0 -304 123l113 131q74 -76 181 -76q58 0 94.5 22.5t36.5 65.5q0 42 -42 65t-106 23h-96v171h99q56 0 92.5 23t36.5 63t-32 61t-86 21
q-104 0 -175 -79l-113 130q112 127 296 127z" />
    <glyph glyph-name="acute" unicode="&#xb4;" horiz-adv-x="1024" 
d="M505 1135h-255l206 322h319z" />
    <glyph glyph-name="mu" unicode="&#xb5;" horiz-adv-x="1210" 
d="M391 -410h-259v1402h267v-546q0 -107 51 -164.5t143 -57.5q91 0 150.5 58.5t59.5 166.5v543h267v-992h-260v117q-97 -144 -292 -144q-65 0 -127 19v-402z" />
    <glyph glyph-name="paragraph" unicode="&#xb6;" horiz-adv-x="1319" 
d="M572 0v609q-221 4 -339.5 114.5t-118.5 299.5q0 188 118.5 297t339.5 113v1h207v-1434h-207zM885 0v1434h207v-1434h-207z" />
    <glyph glyph-name="periodcentered" unicode="&#xb7;" horiz-adv-x="686" 
d="M344 743q79 0 138.5 -59t59.5 -138q0 -81 -59.5 -140.5t-138.5 -59.5q-80 0 -140 59.5t-60 140.5q0 79 60 138t140 59z" />
    <glyph glyph-name="cedilla" unicode="&#xb8;" horiz-adv-x="891" 
d="M628 7l-106 -336h-258l114 336h250z" />
    <glyph glyph-name="onesuperior" unicode="&#xb9;" horiz-adv-x="566" 
d="M433 1447v-855h-202v578l-189 -69v196z" />
    <glyph glyph-name="ordmasculine" unicode="&#xba;" horiz-adv-x="889" 
d="M445 1318q165 0 273.5 -106t108.5 -266t-108.5 -266.5t-273.5 -106.5t-274 106.5t-109 266.5t109 266t274 106zM445 1133q-78 0 -129 -52.5t-51 -134.5q0 -83 51 -135t129 -52q77 0 129 52.5t52 134.5t-52 134.5t-129 52.5z" />
    <glyph glyph-name="guillemotright" unicode="&#xbb;" horiz-adv-x="1113" 
d="M294 546l-198 399h270l197 -399l-197 -400h-270zM754 546l-198 399h269l198 -399l-198 -400h-269z" />
    <glyph glyph-name="onequarter" unicode="&#xbc;" horiz-adv-x="1750" 
d="M1413 1434l-904 -1434h-247l904 1434h247zM1611 549v-226h106v-182h-106v-141h-202v141h-377v142l278 558h221l-261 -518h139v103l61 123h141zM433 1447v-855h-202v578l-189 -69v196z" />
    <glyph glyph-name="onehalf" unicode="&#xbd;" horiz-adv-x="1824" 
d="M1413 1434l-904 -1434h-247l904 1434h247zM1257 575l-121 133q119 148 313 148q136 0 217 -74t81 -197q0 -73 -31.5 -131.5t-102.5 -126.5l-148 -141h301v-186h-586v158l296 281q62 59 62 123q0 45 -31.5 73.5t-79.5 28.5q-50 0 -89 -23t-81 -66zM433 1447v-855h-202v578
l-189 -69v196z" />
    <glyph glyph-name="threequarters" unicode="&#xbe;" horiz-adv-x="1903" 
d="M1567 1434l-904 -1434h-247l904 1434h247zM1764 549v-226h107v-182h-107v-141h-201v141h-377v142l277 558h221l-261 -518h140v103l61 123h140zM341 1448q141 0 229 -67t88 -176q0 -131 -123 -189q67 -27 104.5 -76.5t37.5 -114.5q0 -80 -48 -138t-121.5 -84t-161.5 -26
q-198 0 -304 123l113 131q74 -76 181 -76q58 0 94.5 22.5t36.5 65.5q0 42 -42 65t-106 23h-96v171h99q56 0 92.5 23t36.5 63t-32 61t-86 21q-104 0 -175 -79l-113 130q112 127 296 127z" />
    <glyph glyph-name="questiondown" unicode="&#xbf;" horiz-adv-x="912" 
d="M489 504h247v-348h-98q-149 0 -226.5 -46.5t-77.5 -136.5q0 -83 77 -126.5t224 -43.5q59 0 156 9l19 -270q-93 -13 -207 -13q-266 0 -415 114t-149 310q0 177 113.5 287.5t328.5 145.5zM612 629q-77 0 -135 57.5t-58 135.5q0 79 58 138t135 59q78 0 137 -59t59 -137
t-59 -136t-137 -58z" />
    <glyph glyph-name="Agrave" unicode="&#xc0;" horiz-adv-x="1507" 
d="M928 1434l558 -1434h-305l-125 334h-612l-125 -334h-297l558 1434h348zM751 1151l-208 -554h414zM672 1554l-271 323h320l206 -323h-255z" />
    <glyph glyph-name="Aacute" unicode="&#xc1;" horiz-adv-x="1507" 
d="M928 1434l558 -1434h-305l-125 334h-612l-125 -334h-297l558 1434h348zM751 1151l-208 -554h414zM821 1554h-255l206 323h320z" />
    <glyph glyph-name="Acircumflex" unicode="&#xc2;" horiz-adv-x="1507" 
d="M928 1434l558 -1434h-305l-125 334h-612l-125 -334h-297l558 1434h348zM751 1151l-208 -554h414zM1139 1544h-259l-126 157l-125 -157h-259l223 323h322z" />
    <glyph glyph-name="Atilde" unicode="&#xc3;" horiz-adv-x="1507" 
d="M928 1434l558 -1434h-305l-125 334h-612l-125 -334h-297l558 1434h348zM751 1151l-208 -554h414zM494 1568l-142 152q104 134 269 134q62 0 115 -18t90 -35.5t61 -17.5q54 0 127 68l142 -152q-105 -135 -269 -135q-61 0 -113.5 18t-90 35.5t-62.5 17.5q-54 0 -127 -67z
" />
    <glyph glyph-name="Adieresis" unicode="&#xc4;" horiz-adv-x="1507" 
d="M928 1434l558 -1434h-305l-125 334h-612l-125 -334h-297l558 1434h348zM751 1151l-208 -554h414zM532 1878q72 0 122.5 -50t50.5 -122t-50.5 -121t-122.5 -49t-121 49t-49 121t49 122t121 50zM974 1878q72 0 122 -50t50 -122t-50 -121t-122 -49t-121 49t-49 121t49 122
t121 50z" />
    <glyph glyph-name="Aring" unicode="&#xc5;" horiz-adv-x="1507" 
d="M928 1434l558 -1434h-305l-125 334h-612l-125 -334h-297l558 1434h348zM751 1151l-208 -554h414zM753 1522q-110 0 -189 77.5t-79 186.5q0 108 79 185.5t189 77.5q111 0 190 -77.5t79 -185.5q0 -109 -79 -186.5t-190 -77.5zM753 1674q45 0 77 32.5t32 79.5q0 46 -32 78
t-77 32q-43 0 -75.5 -32.5t-32.5 -77.5q0 -47 32.5 -79.5t75.5 -32.5z" />
    <glyph glyph-name="AE" unicode="&#xc6;" horiz-adv-x="2358" 
d="M2228 262v-262h-1071v301h-585l-214 -301h-341l1038 1434h1165v-263h-777v-317h741v-262h-741v-330h785zM760 564h397v556z" />
    <glyph glyph-name="Ccedilla" unicode="&#xc7;" horiz-adv-x="1546" 
d="M847 1460q199 0 363 -85.5t251 -235.5l-246 -151q-62 94 -157 146t-213 52q-197 0 -325 -130.5t-128 -338.5q1 -212 130 -340.5t323 -128.5q239 0 374 196l233 -168q-80 -118 -203.5 -194t-275.5 -99l-97 -312h-274l107 314q-276 43 -445.5 243.5t-169.5 488.5
q0 213 95.5 382.5t268 265t389.5 95.5z" />
    <glyph glyph-name="Egrave" unicode="&#xc8;" horiz-adv-x="1363" 
d="M1234 262v-262h-1071v1434h1063v-263h-777v-317h741v-262h-741v-330h785zM610 1554l-270 323h319l206 -323h-255z" />
    <glyph glyph-name="Eacute" unicode="&#xc9;" horiz-adv-x="1363" 
d="M1234 262v-262h-1071v1434h1063v-263h-777v-317h741v-262h-741v-330h785zM760 1554h-255l206 323h319z" />
    <glyph glyph-name="Ecircumflex" unicode="&#xca;" horiz-adv-x="1363" 
d="M1234 262v-262h-1071v1434h1063v-263h-777v-317h741v-262h-741v-330h785zM1077 1544h-259l-126 157l-125 -157h-259l223 323h323z" />
    <glyph glyph-name="Edieresis" unicode="&#xcb;" horiz-adv-x="1363" 
d="M1234 262v-262h-1071v1434h1063v-263h-777v-317h741v-262h-741v-330h785zM471 1878q72 0 122 -50t50 -122t-50 -121t-122 -49t-121 49t-49 121t49 122t121 50zM912 1878q72 0 122 -50t50 -122t-50 -121t-122 -49t-121 49t-49 121t49 122t121 50z" />
    <glyph glyph-name="Igrave" unicode="&#xcc;" horiz-adv-x="611" 
d="M449 1434v-1434h-286v1434h286zM224 1554l-270 323h319l206 -323h-255z" />
    <glyph glyph-name="Iacute" unicode="&#xcd;" horiz-adv-x="611" 
d="M449 1434v-1434h-286v1434h286zM374 1554h-255l206 323h319z" />
    <glyph glyph-name="Icircumflex" unicode="&#xce;" horiz-adv-x="611" 
d="M449 1434v-1434h-286v1434h286zM691 1544h-259l-126 157l-125 -157h-259l223 323h323z" />
    <glyph glyph-name="Idieresis" unicode="&#xcf;" horiz-adv-x="611" 
d="M449 1434v-1434h-286v1434h286zM85 1878q72 0 122 -50t50 -122t-50 -121t-122 -49t-121 49t-49 121t49 122t121 50zM526 1878q72 0 122 -50t50 -122t-50 -121t-122 -49t-121 49t-49 121t49 122t121 50z" />
    <glyph glyph-name="Eth" unicode="&#xd0;" horiz-adv-x="1700" 
d="M271 1434h591q337 0 541 -196.5t204 -520.5t-204 -520.5t-541 -196.5h-591v595h-174v256h174v583zM913 851v-256h-356v-328h302q219 0 334 123.5t115 326.5q0 205 -114.5 327t-334.5 122h-302v-315h356z" />
    <glyph glyph-name="Ntilde" unicode="&#xd1;" horiz-adv-x="1607" 
d="M1445 1434v-1434h-268l-727 957l-1 -957h-286v1434h267l728 -958v958h287zM549 1568l-141 152q104 134 268 134q62 0 115 -18t90 -35.5t61 -17.5q54 0 127 68l142 -152q-105 -135 -269 -135q-61 0 -113.5 18t-90 35.5t-62.5 17.5q-54 0 -127 -67z" />
    <glyph glyph-name="Ograve" unicode="&#xd2;" horiz-adv-x="1694" 
d="M847 1460q217 0 389.5 -96t268.5 -265.5t96 -381.5t-96 -381.5t-268.5 -266t-389.5 -96.5t-389.5 96.5t-268 266t-95.5 381.5q0 159 56 296.5t154.5 236t239 154.5t303.5 56zM847 1186q-199 0 -327 -130.5t-128 -338.5t128 -338.5t327 -130.5t327 130.5t128 338.5
t-128 338.5t-327 130.5zM765 1554l-270 323h319l206 -323h-255z" />
    <glyph glyph-name="Oacute" unicode="&#xd3;" horiz-adv-x="1694" 
d="M847 1460q217 0 389.5 -96t268.5 -265.5t96 -381.5t-96 -381.5t-268.5 -266t-389.5 -96.5t-389.5 96.5t-268 266t-95.5 381.5q0 159 56 296.5t154.5 236t239 154.5t303.5 56zM847 1186q-199 0 -327 -130.5t-128 -338.5t128 -338.5t327 -130.5t327 130.5t128 338.5
t-128 338.5t-327 130.5zM914 1554h-255l206 323h320z" />
    <glyph glyph-name="Ocircumflex" unicode="&#xd4;" horiz-adv-x="1694" 
d="M847 1460q217 0 389.5 -96t268.5 -265.5t96 -381.5t-96 -381.5t-268.5 -266t-389.5 -96.5t-389.5 96.5t-268 266t-95.5 381.5q0 159 56 296.5t154.5 236t239 154.5t303.5 56zM847 1186q-199 0 -327 -130.5t-128 -338.5t128 -338.5t327 -130.5t327 130.5t128 338.5
t-128 338.5t-327 130.5zM1232 1544h-259l-126 157l-125 -157h-259l223 323h323z" />
    <glyph glyph-name="Otilde" unicode="&#xd5;" horiz-adv-x="1694" 
d="M847 1460q217 0 389.5 -96t268.5 -265.5t96 -381.5t-96 -381.5t-268.5 -266t-389.5 -96.5t-389.5 96.5t-268 266t-95.5 381.5q0 159 56 296.5t154.5 236t239 154.5t303.5 56zM847 1186q-199 0 -327 -130.5t-128 -338.5t128 -338.5t327 -130.5t327 130.5t128 338.5
t-128 338.5t-327 130.5zM587 1568l-142 152q104 134 269 134q62 0 115 -18t90 -35.5t61 -17.5q54 0 127 68l142 -152q-105 -135 -269 -135q-61 0 -113.5 18t-90 35.5t-62.5 17.5q-54 0 -127 -67z" />
    <glyph glyph-name="Odieresis" unicode="&#xd6;" horiz-adv-x="1694" 
d="M847 1460q217 0 389.5 -96t268.5 -265.5t96 -381.5t-96 -381.5t-268.5 -266t-389.5 -96.5t-389.5 96.5t-268 266t-95.5 381.5q0 159 56 296.5t154.5 236t239 154.5t303.5 56zM847 1186q-199 0 -327 -130.5t-128 -338.5t128 -338.5t327 -130.5t327 130.5t128 338.5
t-128 338.5t-327 130.5zM626 1878q72 0 122 -50t50 -122t-50 -121t-122 -49t-121 49t-49 121t49 122t121 50zM1067 1878q72 0 122 -50t50 -122t-50 -121t-122 -49t-121 49t-49 121t49 122t121 50z" />
    <glyph glyph-name="multiply" unicode="&#xd7;" 
d="M329 96l-163 163l284 284l-286 285l167 167l285 -285l284 283l163 -163l-284 -283l286 -286l-167 -167l-286 286z" />
    <glyph glyph-name="Oslash" unicode="&#xd8;" horiz-adv-x="1694" 
d="M847 1460q251 0 444 -131l130 130l172 -172l-128 -128q136 -193 136 -442q0 -212 -96 -381.5t-268.5 -266t-389.5 -96.5q-251 0 -440 128l-127 -127l-172 171l123 124q-137 191 -137 448q0 159 56 296.5t154.5 236t239 154.5t303.5 56zM847 1186q-199 0 -327 -130.5
t-128 -338.5q0 -133 53 -234l640 640q-107 63 -238 63zM1302 717q0 121 -51 228l-639 -638q101 -59 235 -59q199 0 327 130.5t128 338.5z" />
    <glyph glyph-name="Ugrave" unicode="&#xd9;" horiz-adv-x="1527" 
d="M1381 1434v-862q0 -194 -79 -330t-216 -202t-322 -66q-282 0 -450 154.5t-168 443.5v862h287v-847q0 -171 88 -255t243 -84t243 84t88 255v847h286zM682 1554l-270 323h319l206 -323h-255z" />
    <glyph glyph-name="Uacute" unicode="&#xda;" horiz-adv-x="1527" 
d="M1381 1434v-862q0 -194 -79 -330t-216 -202t-322 -66q-282 0 -450 154.5t-168 443.5v862h287v-847q0 -171 88 -255t243 -84t243 84t88 255v847h286zM831 1554h-254l205 323h320z" />
    <glyph glyph-name="Ucircumflex" unicode="&#xdb;" horiz-adv-x="1527" 
d="M1381 1434v-862q0 -194 -79 -330t-216 -202t-322 -66q-282 0 -450 154.5t-168 443.5v862h287v-847q0 -171 88 -255t243 -84t243 84t88 255v847h286zM1149 1544h-259l-126 157l-125 -157h-259l223 323h323z" />
    <glyph glyph-name="Udieresis" unicode="&#xdc;" horiz-adv-x="1527" 
d="M1381 1434v-862q0 -194 -79 -330t-216 -202t-322 -66q-282 0 -450 154.5t-168 443.5v862h287v-847q0 -171 88 -255t243 -84t243 84t88 255v847h286zM543 1878q72 0 122 -50t50 -122t-50 -121t-122 -49t-121 49t-49 121t49 122t121 50zM984 1878q72 0 122 -50t50 -122
t-50 -121t-122 -49t-121 49t-49 121t49 122t121 50z" />
    <glyph glyph-name="Yacute" unicode="&#xdd;" horiz-adv-x="1394" 
d="M1389 1434l-545 -869v-565h-286v566l-552 868h336l360 -609l361 609h326zM769 1554h-255l206 323h319z" />
    <glyph glyph-name="Thorn" unicode="&#xde;" horiz-adv-x="1352" 
d="M449 1434v-246h299q252 0 388 -122.5t136 -334.5q0 -210 -135.5 -331t-386.5 -121h-301v-279h-286v1434h286zM742 924h-293v-384h293q237 0 237 191q0 193 -237 193z" />
    <glyph glyph-name="germandbls" unicode="&#xdf;" horiz-adv-x="1262" 
d="M133 0v1029q0 74 16.5 140.5t55 128t96 105.5t145 70.5t196.5 26.5q222 0 361.5 -119.5t139.5 -297.5q0 -124 -60 -214.5t-157 -125.5q109 -29 184 -123.5t75 -213.5q0 -196 -129.5 -314t-336.5 -118q-126 0 -213 27l37 230q64 -23 135 -23q110 0 171.5 54t61.5 154
q0 202 -284 202h-38v231h10q271 0 271 202q0 97 -65.5 150t-168.5 53q-113 0 -175 -65t-62 -172v-1017h-266z" />
    <glyph glyph-name="agrave" unicode="&#xe0;" horiz-adv-x="1257" 
d="M1117 992v-992h-261v110q-110 -136 -297 -136q-205 0 -342.5 150t-137.5 373t137.5 372.5t342.5 149.5q186 0 297 -136v109h261zM608 770q-115 0 -185.5 -78t-70.5 -195t70.5 -195.5t185.5 -78.5q114 0 185 77.5t71 196.5t-71 196t-185 77zM551 1135l-270 322h319
l206 -322h-255z" />
    <glyph glyph-name="aacute" unicode="&#xe1;" horiz-adv-x="1257" 
d="M1117 992v-992h-261v110q-110 -136 -297 -136q-205 0 -342.5 150t-137.5 373t137.5 372.5t342.5 149.5q186 0 297 -136v109h261zM608 770q-115 0 -185.5 -78t-70.5 -195t70.5 -195.5t185.5 -78.5q114 0 185 77.5t71 196.5t-71 196t-185 77zM709 1135h-255l205 322h320z
" />
    <glyph glyph-name="acircumflex" unicode="&#xe2;" horiz-adv-x="1257" 
d="M1117 992v-992h-261v110q-110 -136 -297 -136q-205 0 -342.5 150t-137.5 373t137.5 372.5t342.5 149.5q186 0 297 -136v109h261zM608 770q-115 0 -185.5 -78t-70.5 -195t70.5 -195.5t185.5 -78.5q114 0 185 77.5t71 196.5t-71 196t-185 77zM1017 1124h-259l-126 157
l-125 -157h-259l223 323h323z" />
    <glyph glyph-name="atilde" unicode="&#xe3;" horiz-adv-x="1257" 
d="M1117 992v-992h-261v110q-110 -136 -297 -136q-205 0 -342.5 150t-137.5 373t137.5 372.5t342.5 149.5q186 0 297 -136v109h261zM608 770q-115 0 -185.5 -78t-70.5 -195t70.5 -195.5t185.5 -78.5q114 0 185 77.5t71 196.5t-71 196t-185 77zM370 1148l-142 152
q105 135 269 135q62 0 115 -18t90 -36t61 -18q53 0 127 69l142 -153q-105 -135 -269 -135q-61 0 -113.5 18t-90 35.5t-62.5 17.5q-54 0 -127 -67z" />
    <glyph glyph-name="adieresis" unicode="&#xe4;" horiz-adv-x="1257" 
d="M1117 992v-992h-261v110q-110 -136 -297 -136q-205 0 -342.5 150t-137.5 373t137.5 372.5t342.5 149.5q186 0 297 -136v109h261zM608 770q-115 0 -185.5 -78t-70.5 -195t70.5 -195.5t185.5 -78.5q114 0 185 77.5t71 196.5t-71 196t-185 77zM409 1458q72 0 122 -50
t50 -122t-50 -121t-122 -49t-121 49t-49 121t49 122t121 50zM850 1458q72 0 122 -50t50 -122t-50 -121t-122 -49t-121 49t-49 121t49 122t121 50z" />
    <glyph glyph-name="aring" unicode="&#xe5;" horiz-adv-x="1257" 
d="M1117 992v-992h-261v110q-110 -136 -297 -136q-205 0 -342.5 150t-137.5 373t137.5 372.5t342.5 149.5q186 0 297 -136v109h261zM608 770q-115 0 -185.5 -78t-70.5 -195t70.5 -195.5t185.5 -78.5q114 0 185 77.5t71 196.5t-71 196t-185 77zM631 1102q-110 0 -188.5 77.5
t-78.5 186.5q0 108 78.5 185.5t188.5 77.5q111 0 190 -77.5t79 -185.5q0 -109 -79 -186.5t-190 -77.5zM631 1254q45 0 77 32.5t32 79.5q0 46 -32.5 78.5t-76.5 32.5q-43 0 -75.5 -33t-32.5 -78q0 -47 32.5 -79.5t75.5 -32.5z" />
    <glyph glyph-name="ae" unicode="&#xe6;" horiz-adv-x="1788" 
d="M1236 1019q213 0 343.5 -144t131.5 -377q0 -52 -5 -90h-704q21 -103 88.5 -154.5t165.5 -51.5q138 0 252 95l157 -172q-167 -151 -427 -151q-243 0 -384 153q-74 -70 -163.5 -111.5t-220.5 -41.5q-185 0 -288 87t-103 230q0 141 111 221t304 80h234q-14 191 -222 191
q-138 0 -274 -91l-97 209q79 56 186 87t221 31q235 0 343 -147q61 71 152 109t199 38zM511 189q67 0 132 28.5t113 81.5q-19 59 -24 113h-200q-90 0 -133 -31.5t-43 -79.5q0 -47 39.5 -79.5t115.5 -32.5zM1227 788q-92 0 -149.5 -51.5t-75.5 -149.5h442q-19 98 -74.5 149.5
t-142.5 51.5z" />
    <glyph glyph-name="ccedilla" unicode="&#xe7;" horiz-adv-x="1057" 
d="M607 1019q124 0 226.5 -49t171.5 -139l-193 -160q-91 99 -212 99q-106 0 -177.5 -76t-71.5 -197q0 -122 71 -198t177 -76q123 0 216 101l191 -163q-111 -142 -293 -177l-99 -313h-258l108 320q-177 42 -281 179t-104 327q0 227 146.5 374.5t381.5 147.5z" />
    <glyph glyph-name="egrave" unicode="&#xe8;" horiz-adv-x="1140" 
d="M581 1019q214 0 347.5 -144.5t134.5 -376.5q0 -52 -5 -90h-704q21 -103 88.5 -154.5t166.5 -51.5q137 0 251 95l157 -172q-166 -151 -423 -151q-229 0 -372 143.5t-143 376.5q0 234 139.5 379.5t362.5 145.5zM579 788q-93 0 -149.5 -52t-74.5 -146h440q-19 96 -74.5 147
t-141.5 51zM497 1135l-271 322h320l206 -322h-255z" />
    <glyph glyph-name="eacute" unicode="&#xe9;" horiz-adv-x="1140" 
d="M581 1019q214 0 347.5 -144.5t134.5 -376.5q0 -52 -5 -90h-704q21 -103 88.5 -154.5t166.5 -51.5q137 0 251 95l157 -172q-166 -151 -423 -151q-229 0 -372 143.5t-143 376.5q0 234 139.5 379.5t362.5 145.5zM579 788q-93 0 -149.5 -52t-74.5 -146h440q-19 96 -74.5 147
t-141.5 51zM654 1135h-255l206 322h320z" />
    <glyph glyph-name="ecircumflex" unicode="&#xea;" horiz-adv-x="1140" 
d="M581 1019q214 0 347.5 -144.5t134.5 -376.5q0 -52 -5 -90h-704q21 -103 88.5 -154.5t166.5 -51.5q137 0 251 95l157 -172q-166 -151 -423 -151q-229 0 -372 143.5t-143 376.5q0 234 139.5 379.5t362.5 145.5zM579 788q-93 0 -149.5 -52t-74.5 -146h440q-19 96 -74.5 147
t-141.5 51zM963 1124h-260l-125 157l-125 -157h-259l223 323h322z" />
    <glyph glyph-name="edieresis" unicode="&#xeb;" horiz-adv-x="1140" 
d="M581 1019q214 0 347.5 -144.5t134.5 -376.5q0 -52 -5 -90h-704q21 -103 88.5 -154.5t166.5 -51.5q137 0 251 95l157 -172q-166 -151 -423 -151q-229 0 -372 143.5t-143 376.5q0 234 139.5 379.5t362.5 145.5zM579 788q-93 0 -149.5 -52t-74.5 -146h440q-19 96 -74.5 147
t-141.5 51zM354 1458q72 0 122 -50t50 -122t-50 -121t-122 -49t-121 49t-49 121t49 122t121 50zM796 1458q72 0 122 -50t50 -122t-50 -121t-122 -49t-121 49t-49 121t49 122t121 50z" />
    <glyph glyph-name="igrave" unicode="&#xec;" horiz-adv-x="547" 
d="M408 992v-992h-268v992h268zM193 1135l-271 322h320l205 -322h-254z" />
    <glyph glyph-name="iacute" unicode="&#xed;" horiz-adv-x="547" 
d="M408 992v-992h-268v992h268zM350 1135h-255l206 322h320z" />
    <glyph glyph-name="icircumflex" unicode="&#xee;" horiz-adv-x="547" 
d="M408 992v-992h-268v992h268zM658 1124h-259l-126 157l-125 -157h-259l224 323h322z" />
    <glyph glyph-name="idieresis" unicode="&#xef;" horiz-adv-x="547" 
d="M408 992v-992h-268v992h268zM50 1458q72 0 122 -50t50 -122t-50 -121t-122 -49t-121 49t-49 121t49 122t121 50zM492 1458q72 0 122 -50t50 -122t-50 -121t-122 -49t-121 49t-49 121t49 122t121 50z" />
    <glyph glyph-name="eth" unicode="&#xf0;" horiz-adv-x="1222" 
d="M868 1484l90 -144l-147 -91q170 -155 252 -350.5t82 -397.5q0 -149 -68.5 -269.5t-190.5 -189t-275 -68.5q-228 0 -380 142t-152 354q0 213 137.5 354.5t340.5 141.5q147 0 253 -89q-70 132 -215 242l-230 -141l-90 142l162 101q-48 28 -163 79l142 190q143 -58 252 -130
zM614 730q-114 0 -188.5 -72t-74.5 -187q0 -113 74.5 -185.5t188.5 -72.5t189.5 72.5t75.5 185.5q0 115 -75 187t-190 72z" />
    <glyph glyph-name="ntilde" unicode="&#xf1;" horiz-adv-x="1210" 
d="M692 1019q170 0 278 -107.5t108 -279.5v-632h-267v546q0 107 -51 164.5t-143 57.5q-91 0 -150 -58t-59 -166v-544h-268v992h260v-116q97 143 292 143zM358 1148l-141 152q105 135 268 135q62 0 115 -18t90.5 -36t61.5 -18q53 0 127 69l142 -153q-105 -135 -269 -135
q-61 0 -113.5 18t-90.5 35.5t-63 17.5q-54 0 -127 -67z" />
    <glyph glyph-name="ograve" unicode="&#xf2;" horiz-adv-x="1229" 
d="M614 1019q232 0 385 -149t153 -373t-153 -373.5t-385 -149.5q-152 0 -274.5 68t-191.5 187.5t-69 267.5q0 111 40.5 207.5t111 165.5t170 109t213.5 40zM614 770q-114 0 -188.5 -76.5t-74.5 -196.5t74.5 -197t188.5 -77t189.5 77t75.5 197t-75.5 196.5t-189.5 76.5z
M534 1135l-271 322h320l205 -322h-254z" />
    <glyph glyph-name="oacute" unicode="&#xf3;" horiz-adv-x="1229" 
d="M614 1019q232 0 385 -149t153 -373t-153 -373.5t-385 -149.5q-152 0 -274.5 68t-191.5 187.5t-69 267.5q0 111 40.5 207.5t111 165.5t170 109t213.5 40zM614 770q-114 0 -188.5 -76.5t-74.5 -196.5t74.5 -197t188.5 -77t189.5 77t75.5 197t-75.5 196.5t-189.5 76.5z
M691 1135h-255l206 322h320z" />
    <glyph glyph-name="ocircumflex" unicode="&#xf4;" horiz-adv-x="1229" 
d="M614 1019q232 0 385 -149t153 -373t-153 -373.5t-385 -149.5q-152 0 -274.5 68t-191.5 187.5t-69 267.5q0 111 40.5 207.5t111 165.5t170 109t213.5 40zM614 770q-114 0 -188.5 -76.5t-74.5 -196.5t74.5 -197t188.5 -77t189.5 77t75.5 197t-75.5 196.5t-189.5 76.5z
M999 1124h-259l-126 157l-125 -157h-259l224 323h322z" />
    <glyph glyph-name="otilde" unicode="&#xf5;" horiz-adv-x="1229" 
d="M614 1019q232 0 385 -149t153 -373t-153 -373.5t-385 -149.5q-152 0 -274.5 68t-191.5 187.5t-69 267.5q0 111 40.5 207.5t111 165.5t170 109t213.5 40zM614 770q-114 0 -188.5 -76.5t-74.5 -196.5t74.5 -197t188.5 -77t189.5 77t75.5 197t-75.5 196.5t-189.5 76.5z
M352 1148l-141 152q105 135 268 135q62 0 115 -18t90 -36t61 -18q53 0 127 69l143 -153q-105 -135 -270 -135q-61 0 -113.5 18t-90 35.5t-62.5 17.5q-54 0 -127 -67z" />
    <glyph glyph-name="odieresis" unicode="&#xf6;" horiz-adv-x="1229" 
d="M614 1019q232 0 385 -149t153 -373t-153 -373.5t-385 -149.5q-152 0 -274.5 68t-191.5 187.5t-69 267.5q0 111 40.5 207.5t111 165.5t170 109t213.5 40zM614 770q-114 0 -188.5 -76.5t-74.5 -196.5t74.5 -197t188.5 -77t189.5 77t75.5 197t-75.5 196.5t-189.5 76.5z
M391 1458q72 0 122 -50t50 -122t-50 -121t-122 -49t-121 49t-49 121t49 122t121 50zM833 1458q72 0 122 -50t50 -122t-50 -121t-122 -49t-121 49t-49 121t49 122t121 50z" />
    <glyph glyph-name="divide" unicode="&#xf7;" 
d="M1085 670v-229h-942v229h942zM615 1083q68 0 117.5 -49t49.5 -116q0 -68 -50 -118t-117 -50t-117.5 50t-50.5 118q0 67 50 116t118 49zM615 362q68 0 117.5 -49.5t49.5 -116.5q0 -68 -50 -118t-117 -50t-117.5 50t-50.5 118q0 67 50 116.5t118 49.5z" />
    <glyph glyph-name="oslash" unicode="&#xf8;" horiz-adv-x="1229" 
d="M615 1019q161 0 292 -79l105 103l152 -151l-100 -100q88 -130 88 -295q0 -224 -153 -373.5t-384 -149.5q-160 0 -290 77l-104 -103l-153 151l99 101q-88 130 -88 297q0 224 152.5 373t383.5 149zM615 776q-116 0 -192.5 -78.5t-76.5 -200.5q0 -56 20 -111l365 366
q-56 24 -116 24zM886 497q0 53 -20 108l-365 -364q56 -24 114 -24q116 0 193.5 79t77.5 201z" />
    <glyph glyph-name="ugrave" unicode="&#xf9;" horiz-adv-x="1203" 
d="M1071 992v-569q0 -114 -38 -202t-104 -140.5t-148.5 -79.5t-178.5 -27t-179 27t-149 79.5t-104 140.5t-38 202v569h267v-546q0 -114 55 -168.5t148 -54.5q92 0 147.5 54.5t55.5 168.5v546h266zM521 1135l-270 322h319l206 -322h-255z" />
    <glyph glyph-name="uacute" unicode="&#xfa;" horiz-adv-x="1203" 
d="M1071 992v-569q0 -114 -38 -202t-104 -140.5t-148.5 -79.5t-178.5 -27t-179 27t-149 79.5t-104 140.5t-38 202v569h267v-546q0 -114 55 -168.5t148 -54.5q92 0 147.5 54.5t55.5 168.5v546h266zM679 1135h-255l206 322h319z" />
    <glyph glyph-name="ucircumflex" unicode="&#xfb;" horiz-adv-x="1203" 
d="M1071 992v-569q0 -114 -38 -202t-104 -140.5t-148.5 -79.5t-178.5 -27t-179 27t-149 79.5t-104 140.5t-38 202v569h267v-546q0 -114 55 -168.5t148 -54.5q92 0 147.5 54.5t55.5 168.5v546h266zM987 1124h-259l-126 157l-125 -157h-259l223 323h323z" />
    <glyph glyph-name="udieresis" unicode="&#xfc;" horiz-adv-x="1203" 
d="M1071 992v-569q0 -114 -38 -202t-104 -140.5t-148.5 -79.5t-178.5 -27t-179 27t-149 79.5t-104 140.5t-38 202v569h267v-546q0 -114 55 -168.5t148 -54.5q92 0 147.5 54.5t55.5 168.5v546h266zM379 1458q72 0 122 -50t50 -122t-50 -121t-122 -49t-121 49t-49 121t49 122
t121 50zM820 1458q72 0 122 -50t50 -122t-50 -121t-122 -49t-121 49t-49 121t49 122t121 50z" />
    <glyph glyph-name="yacute" unicode="&#xfd;" horiz-adv-x="1155" 
d="M1146 992l-759 -1406h-293l347 625l-428 781h303l273 -510l264 510h293zM662 1135h-255l205 322h320z" />
    <glyph glyph-name="thorn" unicode="&#xfe;" horiz-adv-x="1256" 
d="M697 1019q206 0 344 -149.5t138 -372.5t-138 -373t-343 -150q-181 0 -290 127v-511h-268v1885h268v-584q109 128 289 128zM648 770q-113 0 -184 -77t-71 -196t71 -196.5t184 -77.5q116 0 186 78.5t70 195.5t-70 195t-186 78z" />
    <glyph glyph-name="ydieresis" unicode="&#xff;" horiz-adv-x="1155" 
d="M1146 992l-759 -1406h-293l347 625l-428 781h303l273 -510l264 510h293zM361 1458q72 0 122.5 -50t50.5 -122t-50.5 -121t-122.5 -49t-121 49t-49 121t49 122t121 50zM803 1458q72 0 122 -50t50 -122t-50 -121t-122 -49t-121 49t-49 121t49 122t121 50z" />
    <glyph glyph-name="Amacron" unicode="&#x100;" horiz-adv-x="1507" 
d="M928 1434l558 -1434h-305l-125 334h-612l-125 -334h-297l558 1434h348zM751 1151l-208 -554h414zM415 1598v214h677v-214h-677z" />
    <glyph glyph-name="amacron" unicode="&#x101;" horiz-adv-x="1257" 
d="M1117 992v-992h-261v110q-110 -136 -297 -136q-205 0 -342.5 150t-137.5 373t137.5 372.5t342.5 149.5q186 0 297 -136v109h261zM608 770q-115 0 -185.5 -78t-70.5 -195t70.5 -195.5t185.5 -78.5q114 0 185 77.5t71 196.5t-71 196t-185 77zM293 1179v214h677v-214h-677z
" />
    <glyph glyph-name="Abreve" unicode="&#x102;" horiz-adv-x="1507" 
d="M928 1434l558 -1434h-305l-125 334h-612l-125 -334h-297l558 1434h348zM751 1151l-208 -554h414zM361 1852l204 60q52 -168 189 -168q135 0 188 168l204 -60q-42 -156 -143.5 -239t-248.5 -83q-148 0 -249.5 83t-143.5 239z" />
    <glyph glyph-name="abreve" unicode="&#x103;" horiz-adv-x="1257" 
d="M1117 992v-992h-261v110q-110 -136 -297 -136q-205 0 -342.5 150t-137.5 373t137.5 372.5t342.5 149.5q186 0 297 -136v109h261zM608 770q-115 0 -185.5 -78t-70.5 -195t70.5 -195.5t185.5 -78.5q114 0 185 77.5t71 196.5t-71 196t-185 77zM240 1433l203 59
q52 -168 189 -168q135 0 188 168l204 -59q-42 -156 -143.5 -239.5t-248.5 -83.5t-248.5 83.5t-143.5 239.5z" />
    <glyph glyph-name="Aogonek" unicode="&#x104;" horiz-adv-x="1507" 
d="M1356 -181l131 -157q-99 -91 -246 -91q-110 0 -182 55.5t-72 149.5q0 132 189 236l-120 322h-612l-125 -334h-297l558 1434h348l558 -1434h-101q-166 -79 -166 -162q0 -27 16 -41t43 -14q37 0 78 36zM751 1151l-208 -554h414z" />
    <glyph glyph-name="aogonek" unicode="&#x105;" horiz-adv-x="1257" 
d="M1055 -181l131 -157q-99 -91 -246 -91q-110 0 -182 55.5t-72 149.5q0 127 170 225v109q-110 -136 -297 -136q-205 0 -342.5 150t-137.5 373t137.5 372.5t342.5 149.5q186 0 297 -136v109h261v-992h-33q-166 -79 -166 -162q0 -27 16 -41t43 -14q37 0 78 36zM608 770
q-115 0 -185.5 -78t-70.5 -195t70.5 -195.5t185.5 -78.5q114 0 185 77.5t71 196.5t-71 196t-185 77z" />
    <glyph glyph-name="Cacute" unicode="&#x106;" horiz-adv-x="1546" 
d="M847 1460q199 0 363 -85.5t251 -235.5l-246 -151q-62 94 -157 146t-213 52q-197 0 -325 -130.5t-128 -338.5q1 -212 130 -340.5t323 -128.5q239 0 374 196l233 -168q-97 -142 -254.5 -222.5t-350.5 -80.5q-163 0 -303.5 56t-239 154t-154.5 236t-56 298q0 213 95.5 382.5
t268 265t389.5 95.5zM907 1554h-255l206 323h320z" />
    <glyph glyph-name="cacute" unicode="&#x107;" horiz-adv-x="1057" 
d="M607 1019q124 0 226.5 -49t171.5 -139l-193 -160q-91 99 -212 99q-106 0 -177.5 -76t-71.5 -197q0 -122 71 -198t177 -76q123 0 216 101l191 -163q-70 -90 -172.5 -138.5t-226.5 -48.5q-235 0 -381.5 147.5t-146.5 375.5q0 227 146.5 374.5t381.5 147.5zM673 1135h-255
l206 322h319z" />
    <glyph glyph-name="Ccircumflex" unicode="&#x108;" horiz-adv-x="1546" 
d="M847 1460q199 0 363 -85.5t251 -235.5l-246 -151q-62 94 -157 146t-213 52q-197 0 -325 -130.5t-128 -338.5q1 -212 130 -340.5t323 -128.5q239 0 374 196l233 -168q-97 -142 -254.5 -222.5t-350.5 -80.5q-163 0 -303.5 56t-239 154t-154.5 236t-56 298q0 213 95.5 382.5
t268 265t389.5 95.5zM1225 1544h-259l-126 157l-125 -157h-259l223 323h322z" />
    <glyph glyph-name="ccircumflex" unicode="&#x109;" horiz-adv-x="1057" 
d="M607 1019q124 0 226.5 -49t171.5 -139l-193 -160q-91 99 -212 99q-106 0 -177.5 -76t-71.5 -197q0 -122 71 -198t177 -76q123 0 216 101l191 -163q-70 -90 -172.5 -138.5t-226.5 -48.5q-235 0 -381.5 147.5t-146.5 375.5q0 227 146.5 374.5t381.5 147.5zM981 1124h-259
l-126 157l-125 -157h-259l223 323h323z" />
    <glyph glyph-name="Cdotaccent" unicode="&#x10a;" horiz-adv-x="1546" 
d="M847 1460q199 0 363 -85.5t251 -235.5l-246 -151q-62 94 -157 146t-213 52q-197 0 -325 -130.5t-128 -338.5q1 -212 130 -340.5t323 -128.5q239 0 374 196l233 -168q-97 -142 -254.5 -222.5t-350.5 -80.5q-163 0 -303.5 56t-239 154t-154.5 236t-56 298q0 213 95.5 382.5
t268 265t389.5 95.5zM816 1893q76 0 127.5 -52.5t51.5 -128.5q0 -75 -51.5 -126.5t-127.5 -51.5t-127 51.5t-51 126.5q0 76 51.5 128.5t126.5 52.5z" />
    <glyph glyph-name="cdotaccent" unicode="&#x10b;" horiz-adv-x="1057" 
d="M607 1019q124 0 226.5 -49t171.5 -139l-193 -160q-91 99 -212 99q-106 0 -177.5 -76t-71.5 -197q0 -122 71 -198t177 -76q123 0 216 101l191 -163q-70 -90 -172.5 -138.5t-226.5 -48.5q-235 0 -381.5 147.5t-146.5 375.5q0 227 146.5 374.5t381.5 147.5zM595 1489
q72 0 121.5 -50t49.5 -122t-49.5 -121t-121.5 -49t-121 49t-49 121t49 122t121 50z" />
    <glyph glyph-name="Ccaron" unicode="&#x10c;" horiz-adv-x="1546" 
d="M847 1460q199 0 363 -85.5t251 -235.5l-246 -151q-62 94 -157 146t-213 52q-197 0 -325 -130.5t-128 -338.5q1 -212 130 -340.5t323 -128.5q239 0 374 196l233 -168q-97 -142 -254.5 -222.5t-350.5 -80.5q-163 0 -303.5 56t-239 154t-154.5 236t-56 298q0 213 95.5 382.5
t268 265t389.5 95.5zM456 1867h259l125 -157l126 157h259l-224 -323h-322z" />
    <glyph glyph-name="ccaron" unicode="&#x10d;" horiz-adv-x="1057" 
d="M607 1019q124 0 226.5 -49t171.5 -139l-193 -160q-91 99 -212 99q-106 0 -177.5 -76t-71.5 -197q0 -122 71 -198t177 -76q123 0 216 101l191 -163q-70 -90 -172.5 -138.5t-226.5 -48.5q-235 0 -381.5 147.5t-146.5 375.5q0 227 146.5 374.5t381.5 147.5zM212 1447h259
l125 -157l126 157h259l-223 -323h-323z" />
    <glyph glyph-name="Dcaron" unicode="&#x10e;" horiz-adv-x="1592" 
d="M163 1434h591q337 0 540.5 -196.5t203.5 -520.5t-203.5 -520.5t-540.5 -196.5h-591v1434zM751 1166h-302v-899h302q219 0 333.5 123.5t114.5 326.5q0 205 -114 327t-334 122zM357 1867h259l125 -157l126 157h259l-223 -323h-322z" />
    <glyph glyph-name="dcaron" unicode="&#x10f;" horiz-adv-x="1375" 
d="M559 1019q184 0 292 -130v586h266v-1475h-261v110q-110 -136 -297 -136q-205 0 -342.5 150t-137.5 373t137.5 372.5t342.5 149.5zM608 770q-115 0 -185.5 -78t-70.5 -195t70.5 -195.5t185.5 -78.5q114 0 185 77.5t71 196.5t-71 196t-185 77zM1428 1036h-210v439h263z" />
    <glyph glyph-name="Dcroat" unicode="&#x110;" horiz-adv-x="1700" 
d="M271 1434h591q337 0 541 -196.5t204 -520.5t-204 -520.5t-541 -196.5h-591v595h-174v256h174v583zM913 851v-256h-356v-328h302q219 0 334 123.5t115 326.5q0 205 -114.5 327t-334.5 122h-302v-315h356z" />
    <glyph glyph-name="dcroat" unicode="&#x111;" horiz-adv-x="1238" 
d="M1237 1337v-223h-120v-1114h-261v110q-110 -136 -297 -136q-205 0 -342.5 150t-137.5 373t137.5 372.5t342.5 149.5q184 0 292 -130v225h-372v223h372v138h266v-138h120zM608 770q-115 0 -185.5 -78t-70.5 -195t70.5 -195.5t185.5 -78.5q114 0 185 77.5t71 196.5t-71 196
t-185 77z" />
    <glyph glyph-name="Emacron" unicode="&#x112;" horiz-adv-x="1363" 
d="M1234 262v-262h-1071v1434h1063v-263h-777v-317h741v-262h-741v-330h785zM353 1598v214h677v-214h-677z" />
    <glyph glyph-name="emacron" unicode="&#x113;" horiz-adv-x="1140" 
d="M581 1019q214 0 347.5 -144.5t134.5 -376.5q0 -52 -5 -90h-704q21 -103 88.5 -154.5t166.5 -51.5q137 0 251 95l157 -172q-166 -151 -423 -151q-229 0 -372 143.5t-143 376.5q0 234 139.5 379.5t362.5 145.5zM579 788q-93 0 -149.5 -52t-74.5 -146h440q-19 96 -74.5 147
t-141.5 51zM239 1179v214h676v-214h-676z" />
    <glyph glyph-name="Ebreve" unicode="&#x114;" horiz-adv-x="1363" 
d="M1234 262v-262h-1071v1434h1063v-263h-777v-317h741v-262h-741v-330h785zM300 1852l204 60q52 -168 188 -168t189 168l203 -60q-42 -156 -143.5 -239t-248.5 -83t-248.5 83t-143.5 239z" />
    <glyph glyph-name="ebreve" unicode="&#x115;" horiz-adv-x="1140" 
d="M581 1019q214 0 347.5 -144.5t134.5 -376.5q0 -52 -5 -90h-704q21 -103 88.5 -154.5t166.5 -51.5q137 0 251 95l157 -172q-166 -151 -423 -151q-229 0 -372 143.5t-143 376.5q0 234 139.5 379.5t362.5 145.5zM579 788q-93 0 -149.5 -52t-74.5 -146h440q-19 96 -74.5 147
t-141.5 51zM185 1433l204 59q52 -168 189 -168q135 0 188 168l204 -59q-42 -156 -143.5 -239.5t-248.5 -83.5t-249 83.5t-144 239.5z" />
    <glyph glyph-name="Edotaccent" unicode="&#x116;" horiz-adv-x="1363" 
d="M1234 262v-262h-1071v1434h1063v-263h-777v-317h741v-262h-741v-330h785zM669 1893q76 0 127.5 -52.5t51.5 -128.5q0 -75 -51.5 -126.5t-127.5 -51.5t-127.5 51.5t-51.5 126.5q0 76 51.5 128.5t127.5 52.5z" />
    <glyph glyph-name="edotaccent" unicode="&#x117;" horiz-adv-x="1140" 
d="M581 1019q214 0 347.5 -144.5t134.5 -376.5q0 -52 -5 -90h-704q21 -103 88.5 -154.5t166.5 -51.5q137 0 251 95l157 -172q-166 -151 -423 -151q-229 0 -372 143.5t-143 376.5q0 234 139.5 379.5t362.5 145.5zM579 788q-93 0 -149.5 -52t-74.5 -146h440q-19 96 -74.5 147
t-141.5 51zM577 1489q72 0 121.5 -50t49.5 -122t-49.5 -121t-121.5 -49t-121 49t-49 121t49 122t121 50z" />
    <glyph glyph-name="Eogonek" unicode="&#x118;" horiz-adv-x="1363" 
d="M1234 262v-262h-184q-126 -66 -126 -146q0 -31 23 -51t62 -20q59 0 113 46l140 -152q-114 -106 -282 -106q-133 0 -217.5 62.5t-84.5 161.5q0 125 124 205h-639v1434h1063v-263h-777v-317h741v-262h-741v-330h785z" />
    <glyph glyph-name="eogonek" unicode="&#x119;" horiz-adv-x="1140" 
d="M880 -171l139 -152q-114 -106 -282 -106q-133 0 -217.5 62.5t-84.5 161.5q0 108 92 183q-203 21 -325.5 160.5t-122.5 355.5q0 234 139.5 379.5t362.5 145.5q214 0 347.5 -144.5t134.5 -376.5q0 -52 -5 -90h-704q21 -103 88.5 -154.5t166.5 -51.5q137 0 251 95l157 -172
q-81 -75 -182 -112q-154 -72 -154 -159q0 -31 23 -51t62 -20q60 0 114 46zM579 788q-93 0 -149.5 -52t-74.5 -146h440q-19 96 -74.5 147t-141.5 51z" />
    <glyph glyph-name="Ecaron" unicode="&#x11a;" horiz-adv-x="1363" 
d="M1234 262v-262h-1071v1434h1063v-263h-777v-317h741v-262h-741v-330h785zM308 1867h259l125 -157l126 157h259l-223 -323h-323z" />
    <glyph glyph-name="ecaron" unicode="&#x11b;" horiz-adv-x="1140" 
d="M581 1019q214 0 347.5 -144.5t134.5 -376.5q0 -52 -5 -90h-704q21 -103 88.5 -154.5t166.5 -51.5q137 0 251 95l157 -172q-166 -151 -423 -151q-229 0 -372 143.5t-143 376.5q0 234 139.5 379.5t362.5 145.5zM579 788q-93 0 -149.5 -52t-74.5 -146h440q-19 96 -74.5 147
t-141.5 51zM194 1447h259l125 -157l125 157h260l-224 -323h-322z" />
    <glyph glyph-name="Gcircumflex" unicode="&#x11c;" horiz-adv-x="1638" 
d="M851 1460q168 0 307.5 -57.5t236.5 -162.5l-206 -202q-132 151 -346 151q-198 0 -325.5 -131.5t-127.5 -340.5q0 -143 60.5 -252.5t162 -166.5t225.5 -57q173 0 275.5 81t131.5 235h-364v239h659q4 -37 4 -81q0 -160 -52.5 -298.5t-144.5 -235.5t-222 -152t-281 -55
q-149 0 -284.5 52t-239 145.5t-165 235t-61.5 310.5q0 214 97 383.5t270 264.5t390 95zM1208 1544h-259l-126 157l-125 -157h-259l224 323h322z" />
    <glyph glyph-name="gcircumflex" unicode="&#x11d;" horiz-adv-x="1245" 
d="M536 1019q196 0 307 -137v110h262v-910q0 -238 -144.5 -374.5t-391.5 -136.5q-121 0 -236.5 31t-197.5 89l95 218q153 -102 328 -102q128 0 205.5 69.5t77.5 194.5v69q-110 -134 -305 -134q-90 0 -173 37t-146 101.5t-100.5 160.5t-37.5 207t37.5 207t100.5 161t146 102
t173 37zM603 773q-112 0 -181 -75t-69 -186q0 -110 69 -185t181 -75q110 0 179.5 74t69.5 186t-69.5 186.5t-179.5 74.5zM991 1124h-259l-126 157l-125 -157h-259l223 323h323z" />
    <glyph glyph-name="Gbreve" unicode="&#x11e;" horiz-adv-x="1638" 
d="M851 1460q168 0 307.5 -57.5t236.5 -162.5l-206 -202q-132 151 -346 151q-198 0 -325.5 -131.5t-127.5 -340.5q0 -143 60.5 -252.5t162 -166.5t225.5 -57q173 0 275.5 81t131.5 235h-364v239h659q4 -37 4 -81q0 -160 -52.5 -298.5t-144.5 -235.5t-222 -152t-281 -55
q-149 0 -284.5 52t-239 145.5t-165 235t-61.5 310.5q0 214 97 383.5t270 264.5t390 95zM431 1852l204 60q52 -168 188 -168t189 168l203 -60q-42 -156 -143.5 -239t-248.5 -83t-248.5 83t-143.5 239z" />
    <glyph glyph-name="gbreve" unicode="&#x11f;" horiz-adv-x="1245" 
d="M536 1019q196 0 307 -137v110h262v-910q0 -238 -144.5 -374.5t-391.5 -136.5q-121 0 -236.5 31t-197.5 89l95 218q153 -102 328 -102q128 0 205.5 69.5t77.5 194.5v69q-110 -134 -305 -134q-90 0 -173 37t-146 101.5t-100.5 160.5t-37.5 207t37.5 207t100.5 161t146 102
t173 37zM603 773q-112 0 -181 -75t-69 -186q0 -110 69 -185t181 -75q110 0 179.5 74t69.5 186t-69.5 186.5t-179.5 74.5zM214 1433l204 59q52 -168 188 -168t189 168l203 -59q-42 -156 -143.5 -239.5t-248.5 -83.5t-248.5 83.5t-143.5 239.5z" />
    <glyph glyph-name="Gdotaccent" unicode="&#x120;" horiz-adv-x="1638" 
d="M851 1460q168 0 307.5 -57.5t236.5 -162.5l-206 -202q-132 151 -346 151q-198 0 -325.5 -131.5t-127.5 -340.5q0 -143 60.5 -252.5t162 -166.5t225.5 -57q173 0 275.5 81t131.5 235h-364v239h659q4 -37 4 -81q0 -160 -52.5 -298.5t-144.5 -235.5t-222 -152t-281 -55
q-149 0 -284.5 52t-239 145.5t-165 235t-61.5 310.5q0 214 97 383.5t270 264.5t390 95zM800 1893q76 0 127.5 -52.5t51.5 -128.5q0 -75 -51.5 -126.5t-127.5 -51.5t-127 51.5t-51 126.5q0 76 51.5 128.5t126.5 52.5z" />
    <glyph glyph-name="gdotaccent" unicode="&#x121;" horiz-adv-x="1245" 
d="M536 1019q196 0 307 -137v110h262v-910q0 -238 -144.5 -374.5t-391.5 -136.5q-121 0 -236.5 31t-197.5 89l95 218q153 -102 328 -102q128 0 205.5 69.5t77.5 194.5v69q-110 -134 -305 -134q-90 0 -173 37t-146 101.5t-100.5 160.5t-37.5 207t37.5 207t100.5 161t146 102
t173 37zM603 773q-112 0 -181 -75t-69 -186q0 -110 69 -185t181 -75q110 0 179.5 74t69.5 186t-69.5 186.5t-179.5 74.5zM605 1489q72 0 121.5 -50t49.5 -122t-49.5 -121t-121.5 -49t-121 49t-49 121t49 122t121 50z" />
    <glyph glyph-name="Gcommaaccent" unicode="&#x122;" horiz-adv-x="1638" 
d="M851 1460q168 0 307.5 -57.5t236.5 -162.5l-206 -202q-132 151 -346 151q-198 0 -325.5 -131.5t-127.5 -340.5q0 -143 60.5 -252.5t162 -166.5t225.5 -57q173 0 275.5 81t131.5 235h-364v239h659q4 -37 4 -81q0 -160 -52.5 -298.5t-144.5 -235.5t-222 -152t-281 -55
q-149 0 -284.5 52t-239 145.5t-165 235t-61.5 310.5q0 214 97 383.5t270 264.5t390 95zM701 -86h272l-94 -398h-222z" />
    <glyph glyph-name="gcommaaccent" unicode="&#x123;" horiz-adv-x="1245" 
d="M536 1019q196 0 307 -137v110h262v-910q0 -238 -144.5 -374.5t-391.5 -136.5q-121 0 -236.5 31t-197.5 89l95 218q153 -102 328 -102q128 0 205.5 69.5t77.5 194.5v69q-110 -134 -305 -134q-90 0 -173 37t-146 101.5t-100.5 160.5t-37.5 207t37.5 207t100.5 161t146 102
t173 37zM603 773q-112 0 -181 -75t-69 -186q0 -110 69 -185t181 -75q110 0 179.5 74t69.5 186t-69.5 186.5t-179.5 74.5zM738 1135h-272l94 398h221z" />
    <glyph glyph-name="Hcircumflex" unicode="&#x124;" horiz-adv-x="1587" 
d="M449 1434v-578h690v578h285v-1434h-285v590h-690v-590h-286v1434h286zM1179 1544h-259l-126 157l-125 -157h-259l223 323h322z" />
    <glyph glyph-name="hcircumflex" unicode="&#x125;" horiz-adv-x="1210" 
d="M408 1476v-590q96 133 284 133q170 0 278 -107.5t108 -279.5v-632h-267v546q0 107 -51 164.5t-143 57.5q-91 0 -150 -58t-59 -166v-544h-268v1476h268zM988 1566h-259l-126 156l-125 -156h-259l223 322h323z" />
    <glyph glyph-name="Hbar" unicode="&#x126;" horiz-adv-x="1654" 
d="M1606 1239v-223h-148v-1016h-286v590h-690v-590h-285v1016h-148v223h148v195h285v-195h690v195h286v-195h148zM482 856h690v160h-690v-160z" />
    <glyph glyph-name="hbar" unicode="&#x127;" horiz-adv-x="1210" 
d="M757 1337v-223h-349v-228q96 133 284 133q170 0 278 -107.5t108 -279.5v-632h-267v546q0 107 -51 164.5t-143 57.5q-91 0 -150 -58t-59 -166v-544h-268v1114h-141v223h141v139h268v-139h349z" />
    <glyph glyph-name="Itilde" unicode="&#x128;" horiz-adv-x="611" 
d="M449 1434v-1434h-286v1434h286zM46 1568l-141 152q104 134 268 134q62 0 115 -18t90 -35.5t61 -17.5q54 0 127 68l143 -152q-105 -135 -270 -135q-61 0 -113.5 18t-90 35.5t-62.5 17.5q-54 0 -127 -67z" />
    <glyph glyph-name="itilde" unicode="&#x129;" horiz-adv-x="547" 
d="M408 992v-992h-268v992h268zM11 1148l-141 152q105 135 268 135q62 0 115 -18t90 -36t61 -18q53 0 127 69l143 -153q-105 -135 -270 -135q-61 0 -113.5 18t-90 35.5t-62.5 17.5q-54 0 -127 -67z" />
    <glyph glyph-name="Imacron" unicode="&#x12a;" horiz-adv-x="611" 
d="M449 1434v-1434h-286v1434h286zM-33 1598v214h677v-214h-677z" />
    <glyph glyph-name="imacron" unicode="&#x12b;" horiz-adv-x="547" 
d="M408 992v-992h-268v992h268zM-66 1179v214h677v-214h-677z" />
    <glyph glyph-name="Ibreve" unicode="&#x12c;" horiz-adv-x="611" 
d="M449 1434v-1434h-286v1434h286zM-86 1852l204 60q52 -168 188 -168t189 168l203 -60q-42 -156 -143.5 -239t-248.5 -83t-248.5 83t-143.5 239z" />
    <glyph glyph-name="ibreve" unicode="&#x12d;" horiz-adv-x="547" 
d="M408 992v-992h-268v992h268zM-119 1433l204 59q52 -168 188 -168t189 168l204 -59q-42 -156 -144 -239.5t-249 -83.5t-248.5 83.5t-143.5 239.5z" />
    <glyph glyph-name="Iogonek" unicode="&#x12e;" horiz-adv-x="611" 
d="M434 -181l131 -157q-99 -91 -246 -91q-110 0 -181.5 54.5t-71.5 146.5q0 127 145 228h-48v1434h286v-1434h-30q-122 -78 -122 -162q0 -26 16 -40.5t43 -14.5q37 0 78 36z" />
    <glyph glyph-name="iogonek" unicode="&#x12f;" horiz-adv-x="547" 
d="M408 992v-992h-27q-122 -78 -122 -162q0 -26 16 -40.5t43 -14.5q37 0 78 36l131 -157q-99 -91 -245 -91q-110 0 -182 54.5t-72 146.5q0 127 145 228h-33v992h268zM272 1489q72 0 121.5 -50t49.5 -122t-49.5 -121t-121.5 -49t-121 49t-49 121t49 122t121 50z" />
    <glyph glyph-name="Idotaccent" unicode="&#x130;" horiz-adv-x="611" 
d="M449 1434v-1434h-286v1434h286zM283 1893q76 0 127.5 -52.5t51.5 -128.5q0 -75 -51.5 -126.5t-127.5 -51.5t-127.5 51.5t-51.5 126.5q0 76 51.5 128.5t127.5 52.5z" />
    <glyph glyph-name="dotlessi" unicode="&#x131;" horiz-adv-x="547" 
d="M408 992v-992h-268v992h268z" />
    <glyph glyph-name="IJ" unicode="&#x132;" horiz-adv-x="1767" 
d="M449 1434v-1434h-286v1434h286zM1613 1434v-912q0 -262 -141.5 -405t-372.5 -143q-295 0 -458 199l166 208q107 -133 278 -133q117 0 179.5 74.5t62.5 226.5v885h286z" />
    <glyph glyph-name="ij" unicode="&#x133;" horiz-adv-x="1099" 
d="M959 992v-1086q0 -160 -84 -248.5t-224 -88.5q-86 0 -150 27l40 234q35 -12 71 -12q80 0 80 103v1071h267zM823 1489q72 0 121.5 -50t49.5 -122t-49.5 -121t-121.5 -49t-121 49t-49 121t49 122t121 50zM408 992v-992h-268v992h268zM272 1489q72 0 121.5 -50t49.5 -122
t-49.5 -121t-121.5 -49t-121 49t-49 121t49 122t121 50z" />
    <glyph glyph-name="Jcircumflex" unicode="&#x134;" horiz-adv-x="1156" 
d="M1001 1434v-912q0 -262 -141.5 -405t-372.5 -143q-294 0 -457 199l166 208q107 -133 278 -133q117 0 179.5 74.5t62.5 226.5v885h285zM1244 1544h-259l-126 157l-125 -157h-259l223 323h323z" />
    <glyph glyph-name="jcircumflex" unicode="&#x135;" horiz-adv-x="551" 
d="M412 992v-1086q0 -160 -84.5 -248.5t-224.5 -88.5q-86 0 -150 27l40 234q34 -12 72 -12q79 0 79 103v1071h268zM662 1124h-260l-126 157l-124 -157h-260l224 323h322z" />
    <glyph glyph-name="Kcommaaccent" unicode="&#x136;" horiz-adv-x="1458" 
d="M1091 0l-510 590h-132v-590h-286v1434h286v-581h135l474 581h358l-601 -700l646 -734h-370zM611 -86h272l-95 -398h-221z" />
    <glyph glyph-name="kcommaaccent" unicode="&#x137;" horiz-adv-x="1121" 
d="M408 1475v-836h94l279 353h328l-391 -467l394 -525h-329l-285 401h-90v-401h-268v1475h268zM462 -86h271l-94 -398h-221z" />
    <glyph glyph-name="kgreenlandic" unicode="&#x138;" horiz-adv-x="1127" 
d="M408 992v-353h96l284 353h327l-393 -467l396 -525h-327l-292 401h-91v-401h-268v992h268z" />
    <glyph glyph-name="Lacute" unicode="&#x139;" horiz-adv-x="1239" 
d="M1206 267v-267h-1043v1434h286v-1167h757zM374 1554h-255l206 323h319z" />
    <glyph glyph-name="lacute" unicode="&#x13a;" horiz-adv-x="547" 
d="M408 1475v-1475h-268v1475h268zM327 1575h-255l206 322h319z" />
    <glyph glyph-name="Lcommaaccent" unicode="&#x13b;" horiz-adv-x="1239" 
d="M1206 267v-267h-1043v1434h286v-1167h757zM564 -86h272l-95 -398h-221z" />
    <glyph glyph-name="lcommaaccent" unicode="&#x13c;" horiz-adv-x="547" 
d="M408 1475v-1475h-268v1475h268zM153 -86h271l-94 -398h-221z" />
    <glyph glyph-name="Lcaron" unicode="&#x13d;" horiz-adv-x="1239" 
d="M1206 267v-267h-1043v1434h286v-1167h757zM833 995h-211v439h263z" />
    <glyph glyph-name="lcaron" unicode="&#x13e;" horiz-adv-x="654" 
d="M408 1475v-1475h-268v1475h268zM708 1036h-211v439h263z" />
    <glyph glyph-name="Ldot" unicode="&#x13f;" horiz-adv-x="1239" 
d="M1206 267v-267h-1043v1434h286v-1167h757zM885 911q76 0 127.5 -52.5t51.5 -128.5q0 -75 -51.5 -126.5t-127.5 -51.5t-127 51.5t-51 126.5q0 76 51.5 128.5t126.5 52.5z" />
    <glyph glyph-name="ldot" unicode="&#x140;" horiz-adv-x="754" 
d="M408 1475v-1475h-268v1475h268zM668 913q70 0 117.5 -48t47.5 -117q0 -70 -47.5 -117.5t-117.5 -47.5t-117 47.5t-47 117.5q0 69 47.5 117t116.5 48z" />
    <glyph glyph-name="Lslash" unicode="&#x141;" horiz-adv-x="1347" 
d="M1315 267v-267h-1044v435l-174 -96v288l174 96v711h286v-551l460 256v-288l-460 -256v-328h758z" />
    <glyph glyph-name="lslash" unicode="&#x142;" horiz-adv-x="734" 
d="M501 1475v-498l191 121v-268l-191 -120v-710h-268v542l-191 -121v267l191 121v666h268z" />
    <glyph glyph-name="Nacute" unicode="&#x143;" horiz-adv-x="1607" 
d="M1445 1434v-1434h-268l-727 957l-1 -957h-286v1434h267l728 -958v958h287zM877 1554h-255l205 323h320z" />
    <glyph glyph-name="nacute" unicode="&#x144;" horiz-adv-x="1210" 
d="M692 1019q170 0 278 -107.5t108 -279.5v-632h-267v546q0 107 -51 164.5t-143 57.5q-91 0 -150 -58t-59 -166v-544h-268v992h260v-116q97 143 292 143zM697 1135h-255l206 322h320z" />
    <glyph glyph-name="Ncommaaccent" unicode="&#x145;" horiz-adv-x="1607" 
d="M1445 1434v-1434h-268l-727 957l-1 -957h-286v1434h267l728 -958v958h287zM686 -86h271l-94 -398h-221z" />
    <glyph glyph-name="ncommaaccent" unicode="&#x146;" horiz-adv-x="1210" 
d="M692 1019q170 0 278 -107.5t108 -279.5v-632h-267v546q0 107 -51 164.5t-143 57.5q-91 0 -150 -58t-59 -166v-544h-268v992h260v-116q97 143 292 143zM487 -86h272l-94 -398h-222z" />
    <glyph glyph-name="Ncaron" unicode="&#x147;" horiz-adv-x="1607" 
d="M1445 1434v-1434h-268l-727 957l-1 -957h-286v1434h267l728 -958v958h287zM425 1867h259l125 -157l126 157h259l-223 -323h-323z" />
    <glyph glyph-name="ncaron" unicode="&#x148;" horiz-adv-x="1210" 
d="M692 1019q170 0 278 -107.5t108 -279.5v-632h-267v546q0 107 -51 164.5t-143 57.5q-91 0 -150 -58t-59 -166v-544h-268v992h260v-116q97 143 292 143zM237 1447h259l125 -157l125 157h260l-224 -323h-322z" />
    <glyph glyph-name="napostrophe" unicode="&#x149;" horiz-adv-x="1524" 
d="M155 1475h300l-144 -611h-225zM1007 1019q170 0 278 -107.5t108 -279.5v-632h-268v546q0 107 -50.5 164.5t-142.5 57.5q-91 0 -150.5 -58t-59.5 -166v-544h-267v992h260v-116q97 143 292 143z" />
    <glyph glyph-name="Eng" unicode="&#x14a;" horiz-adv-x="1607" 
d="M1445 1434v-1453q0 -190 -100 -301t-286 -111q-176 0 -305 74l103 241q83 -46 162 -46q70 0 105 41.5t35 118.5v25l-709 934l-1 -957h-286v1434h267l728 -958v958h287z" />
    <glyph glyph-name="eng" unicode="&#x14b;" horiz-adv-x="1210" 
d="M692 1019q170 0 278 -107.5t108 -279.5v-662q0 -160 -84 -248.5t-224 -88.5q-83 0 -143 25l32 237q36 -13 72 -13q80 0 80 104v560q0 107 -51 164.5t-143 57.5q-91 0 -150 -58t-59 -166v-544h-268v992h260v-116q97 143 292 143z" />
    <glyph glyph-name="Omacron" unicode="&#x14c;" horiz-adv-x="1694" 
d="M847 1460q217 0 389.5 -96t268.5 -265.5t96 -381.5t-96 -381.5t-268.5 -266t-389.5 -96.5t-389.5 96.5t-268 266t-95.5 381.5q0 159 56 296.5t154.5 236t239 154.5t303.5 56zM847 1186q-199 0 -327 -130.5t-128 -338.5t128 -338.5t327 -130.5t327 130.5t128 338.5
t-128 338.5t-327 130.5zM508 1598v214h677v-214h-677z" />
    <glyph glyph-name="omacron" unicode="&#x14d;" horiz-adv-x="1229" 
d="M614 1019q232 0 385 -149t153 -373t-153 -373.5t-385 -149.5q-152 0 -274.5 68t-191.5 187.5t-69 267.5q0 111 40.5 207.5t111 165.5t170 109t213.5 40zM614 770q-114 0 -188.5 -76.5t-74.5 -196.5t74.5 -197t188.5 -77t189.5 77t75.5 197t-75.5 196.5t-189.5 76.5z
M275 1179v214h677v-214h-677z" />
    <glyph glyph-name="Obreve" unicode="&#x14e;" horiz-adv-x="1694" 
d="M847 1460q217 0 389.5 -96t268.5 -265.5t96 -381.5t-96 -381.5t-268.5 -266t-389.5 -96.5t-389.5 96.5t-268 266t-95.5 381.5q0 159 56 296.5t154.5 236t239 154.5t303.5 56zM847 1186q-199 0 -327 -130.5t-128 -338.5t128 -338.5t327 -130.5t327 130.5t128 338.5
t-128 338.5t-327 130.5zM455 1852l203 60q52 -168 189 -168q135 0 188 168l204 -60q-42 -156 -143.5 -239t-248.5 -83t-248.5 83t-143.5 239z" />
    <glyph glyph-name="obreve" unicode="&#x14f;" horiz-adv-x="1229" 
d="M614 1019q232 0 385 -149t153 -373t-153 -373.5t-385 -149.5q-152 0 -274.5 68t-191.5 187.5t-69 267.5q0 111 40.5 207.5t111 165.5t170 109t213.5 40zM614 770q-114 0 -188.5 -76.5t-74.5 -196.5t74.5 -197t188.5 -77t189.5 77t75.5 197t-75.5 196.5t-189.5 76.5z
M222 1433l204 59q52 -168 188 -168t189 168l204 -59q-42 -156 -144 -239.5t-249 -83.5t-248.5 83.5t-143.5 239.5z" />
    <glyph glyph-name="Ohungarumlaut" unicode="&#x150;" horiz-adv-x="1694" 
d="M847 1460q217 0 389.5 -96t268.5 -265.5t96 -381.5t-96 -381.5t-268.5 -266t-389.5 -96.5t-389.5 96.5t-268 266t-95.5 381.5q0 159 56 296.5t154.5 236t239 154.5t303.5 56zM847 1186q-199 0 -327 -130.5t-128 -338.5t128 -338.5t327 -130.5t327 130.5t128 338.5
t-128 338.5t-327 130.5zM1153 1554h-260l222 323h291zM767 1554h-258l198 323h283z" />
    <glyph glyph-name="ohungarumlaut" unicode="&#x151;" horiz-adv-x="1229" 
d="M614 1019q232 0 385 -149t153 -373t-153 -373.5t-385 -149.5q-152 0 -274.5 68t-191.5 187.5t-69 267.5q0 111 40.5 207.5t111 165.5t170 109t213.5 40zM614 770q-114 0 -188.5 -76.5t-74.5 -196.5t74.5 -197t188.5 -77t189.5 77t75.5 197t-75.5 196.5t-189.5 76.5z
M930 1135h-260l222 322h291zM544 1135h-258l197 322h284z" />
    <glyph glyph-name="OE" unicode="&#x152;" horiz-adv-x="2272" 
d="M2142 262v-262h-1303q-337 0 -541 196.5t-204 520.5t204 520.5t541 196.5h1295v-263h-777v-317h741v-262h-741v-330h785zM392 717q0 -205 115 -327.5t335 -122.5h229v899h-229q-219 0 -334.5 -123t-115.5 -326z" />
    <glyph glyph-name="oe" unicode="&#x153;" horiz-adv-x="1940" 
d="M1380 1019q215 0 348.5 -144.5t134.5 -376.5q0 -52 -5 -90h-704q21 -103 88.5 -154.5t165.5 -51.5q138 0 252 95l157 -172q-167 -151 -427 -151q-122 0 -221 46t-164 131q-70 -84 -171.5 -130.5t-219.5 -46.5q-152 0 -274.5 68t-191.5 187.5t-69 267.5q0 111 40.5 207.5
t111 165.5t170 109t213.5 40q119 0 220 -46.5t171 -130.5q64 85 160.5 131t214.5 46zM614 770q-114 0 -188.5 -76.5t-74.5 -196.5t74.5 -197t188.5 -77t189.5 77t75.5 197t-75.5 196.5t-189.5 76.5zM1378 788q-92 0 -148.5 -51.5t-74.5 -146.5h439q-20 96 -75 147t-141 51z
" />
    <glyph glyph-name="Racute" unicode="&#x154;" horiz-adv-x="1392" 
d="M163 1434h606q254 0 389.5 -115t135.5 -322q0 -177 -116.5 -290t-322.5 -133l441 -574h-346l-418 570h-83v-570h-286v1434zM764 1170h-315v-351h315q236 0 236 178q0 173 -236 173zM743 1554h-255l206 323h320z" />
    <glyph glyph-name="racute" unicode="&#x155;" horiz-adv-x="860" 
d="M679 1019q76 0 139 -22l-40 -265q-74 32 -162 32q-95 0 -151.5 -57.5t-56.5 -165.5v-541h-268v992h259v-108q90 135 280 135zM557 1135h-255l206 322h319z" />
    <glyph glyph-name="Rcommaaccent" unicode="&#x156;" horiz-adv-x="1392" 
d="M163 1434h606q254 0 389.5 -115t135.5 -322q0 -177 -116.5 -290t-322.5 -133l441 -574h-346l-418 570h-83v-570h-286v1434zM764 1170h-315v-351h315q236 0 236 178q0 173 -236 173zM565 -86h272l-95 -398h-221z" />
    <glyph glyph-name="rcommaaccent" unicode="&#x157;" horiz-adv-x="860" 
d="M679 1019q76 0 139 -22l-40 -265q-74 32 -162 32q-95 0 -151.5 -57.5t-56.5 -165.5v-541h-268v992h259v-108q90 135 280 135zM153 -86h271l-94 -398h-221z" />
    <glyph glyph-name="Rcaron" unicode="&#x158;" horiz-adv-x="1392" 
d="M163 1434h606q254 0 389.5 -115t135.5 -322q0 -177 -116.5 -290t-322.5 -133l441 -574h-346l-418 570h-83v-570h-286v1434zM764 1170h-315v-351h315q236 0 236 178q0 173 -236 173zM292 1867h259l125 -157l126 157h259l-223 -323h-323z" />
    <glyph glyph-name="rcaron" unicode="&#x159;" horiz-adv-x="860" 
d="M679 1019q76 0 139 -22l-40 -265q-74 32 -162 32q-95 0 -151.5 -57.5t-56.5 -165.5v-541h-268v992h259v-108q90 135 280 135zM96 1447h259l125 -157l126 157h259l-223 -323h-323z" />
    <glyph glyph-name="Sacute" unicode="&#x15a;" horiz-adv-x="1385" 
d="M1271 1306l-135 -234q-197 122 -407 122q-123 0 -198.5 -46t-75.5 -126q0 -38 20.5 -65.5t64.5 -46.5t90.5 -30.5t120.5 -23.5l80 -13q457 -75 457 -402q0 -92 -31.5 -169.5t-86.5 -131.5t-129.5 -92t-160 -56t-179.5 -18q-168 0 -330 48.5t-274 139.5l149 230
q83 -67 204 -110.5t252 -43.5q123 0 202.5 46t79.5 127q0 70 -71.5 106t-232.5 62l-91 14q-437 69 -437 411q0 144 80 249t207.5 155t283.5 50q152 0 283 -36t265 -116zM808 1554h-255l206 323h319z" />
    <glyph glyph-name="sacute" unicode="&#x15b;" horiz-adv-x="1038" 
d="M942 924l-90 -208q-67 33 -152.5 56.5t-163.5 24.5q-74 0 -113.5 -24t-39.5 -66q0 -39 40.5 -56t121.5 -29l88 -14q335 -51 335 -297q0 -155 -121 -246t-335 -91q-275 0 -441 117l105 203q147 -97 338 -97q183 0 183 93q0 36 -39 57.5t-126 33.5l-80 11q-343 48 -343 301
q0 153 111 239t307 86q224 0 415 -94zM621 1135h-255l205 322h320z" />
    <glyph glyph-name="Scircumflex" unicode="&#x15c;" horiz-adv-x="1385" 
d="M1271 1306l-135 -234q-197 122 -407 122q-123 0 -198.5 -46t-75.5 -126q0 -38 20.5 -65.5t64.5 -46.5t90.5 -30.5t120.5 -23.5l80 -13q457 -75 457 -402q0 -92 -31.5 -169.5t-86.5 -131.5t-129.5 -92t-160 -56t-179.5 -18q-168 0 -330 48.5t-274 139.5l149 230
q83 -67 204 -110.5t252 -43.5q123 0 202.5 46t79.5 127q0 70 -71.5 106t-232.5 62l-91 14q-437 69 -437 411q0 144 80 249t207.5 155t283.5 50q152 0 283 -36t265 -116zM1125 1544h-259l-126 157l-125 -157h-259l224 323h322z" />
    <glyph glyph-name="scircumflex" unicode="&#x15d;" horiz-adv-x="1038" 
d="M942 924l-90 -208q-67 33 -152.5 56.5t-163.5 24.5q-74 0 -113.5 -24t-39.5 -66q0 -39 40.5 -56t121.5 -29l88 -14q335 -51 335 -297q0 -155 -121 -246t-335 -91q-275 0 -441 117l105 203q147 -97 338 -97q183 0 183 93q0 36 -39 57.5t-126 33.5l-80 11q-343 48 -343 301
q0 153 111 239t307 86q224 0 415 -94zM929 1124h-259l-126 157l-125 -157h-259l223 323h323z" />
    <glyph glyph-name="Scedilla" unicode="&#x15e;" horiz-adv-x="1385" 
d="M1271 1306l-135 -234q-197 122 -407 122q-123 0 -198.5 -46t-75.5 -126q0 -38 20.5 -65.5t64.5 -46.5t90.5 -30.5t120.5 -23.5l80 -13q457 -75 457 -402q0 -190 -123.5 -306t-319.5 -148l-99 -316h-273l106 311q-138 14 -264.5 60t-217.5 120l149 230q83 -67 204 -110.5
t252 -43.5q123 0 202.5 46t79.5 127q0 70 -71.5 106t-232.5 62l-91 14q-437 69 -437 411q0 144 80 249t207.5 155t283.5 50q152 0 283 -36t265 -116z" />
    <glyph glyph-name="scedilla" unicode="&#x15f;" horiz-adv-x="1038" 
d="M942 924l-90 -208q-67 33 -152.5 56.5t-163.5 24.5q-74 0 -113.5 -24t-39.5 -66q0 -39 40.5 -56t121.5 -29l88 -14q335 -51 335 -297q0 -125 -79.5 -209.5t-225.5 -112.5l-100 -318h-258l104 309q-211 20 -338 111l105 203q147 -97 338 -97q183 0 183 93q0 36 -39 57.5
t-126 33.5l-80 11q-343 48 -343 301q0 153 111 239t307 86q224 0 415 -94z" />
    <glyph glyph-name="Scaron" unicode="&#x160;" horiz-adv-x="1385" 
d="M1271 1306l-135 -234q-197 122 -407 122q-123 0 -198.5 -46t-75.5 -126q0 -38 20.5 -65.5t64.5 -46.5t90.5 -30.5t120.5 -23.5l80 -13q457 -75 457 -402q0 -92 -31.5 -169.5t-86.5 -131.5t-129.5 -92t-160 -56t-179.5 -18q-168 0 -330 48.5t-274 139.5l149 230
q83 -67 204 -110.5t252 -43.5q123 0 202.5 46t79.5 127q0 70 -71.5 106t-232.5 62l-91 14q-437 69 -437 411q0 144 80 249t207.5 155t283.5 50q152 0 283 -36t265 -116zM356 1867h259l125 -157l126 157h259l-223 -323h-322z" />
    <glyph glyph-name="scaron" unicode="&#x161;" horiz-adv-x="1038" 
d="M942 924l-90 -208q-67 33 -152.5 56.5t-163.5 24.5q-74 0 -113.5 -24t-39.5 -66q0 -39 40.5 -56t121.5 -29l88 -14q335 -51 335 -297q0 -155 -121 -246t-335 -91q-275 0 -441 117l105 203q147 -97 338 -97q183 0 183 93q0 36 -39 57.5t-126 33.5l-80 11q-343 48 -343 301
q0 153 111 239t307 86q224 0 415 -94zM160 1447h259l125 -157l126 157h259l-223 -323h-323z" />
    <glyph glyph-name="Tcommaaccent" unicode="&#x162;" horiz-adv-x="1240" 
d="M1207 1434v-268h-444v-1166h-9l-104 -329h-273l111 329h-11v1166h-444v268h1174z" />
    <glyph glyph-name="tcommaaccent" unicode="&#x163;" horiz-adv-x="955" 
d="M860 992v-237h-359v-363q0 -88 40.5 -128.5t107.5 -40.5q81 0 187 65l98 -209q-117 -80 -244 -98l-97 -310h-258l110 328q-212 76 -212 372v384h-191v237h191v295h268v-295h359z" />
    <glyph glyph-name="Tcaron" unicode="&#x164;" horiz-adv-x="1240" 
d="M1207 1434v-268h-444v-1166h-286v1166h-444v268h1174zM242 1867h259l125 -157l126 157h259l-224 -323h-322z" />
    <glyph glyph-name="tcaron" unicode="&#x165;" horiz-adv-x="955" 
d="M860 992v-237h-359v-363q0 -88 40.5 -128.5t107.5 -40.5q81 0 187 65l98 -209q-155 -105 -329 -105q-184 0 -278 101.5t-94 295.5v384h-191v237h191v295h268v-295h359zM791 1072h-211v438h263z" />
    <glyph glyph-name="Tbar" unicode="&#x166;" horiz-adv-x="1240" 
d="M1028 851v-256h-265v-595h-286v595h-265v256h265v315h-444v268h1174v-268h-444v-315h265z" />
    <glyph glyph-name="tbar" unicode="&#x167;" horiz-adv-x="955" 
d="M860 992v-237h-359v-129h257v-208h-257v-26q0 -88 40.5 -128.5t107.5 -40.5q81 0 187 65l98 -209q-155 -105 -329 -105q-184 0 -278 101.5t-94 295.5v47h-179v208h179v129h-191v237h191v295h268v-295h359z" />
    <glyph glyph-name="Utilde" unicode="&#x168;" horiz-adv-x="1527" 
d="M1381 1434v-862q0 -194 -79 -330t-216 -202t-322 -66q-282 0 -450 154.5t-168 443.5v862h287v-847q0 -171 88 -255t243 -84t243 84t88 255v847h286zM504 1568l-142 152q104 134 269 134q62 0 115 -18t90 -35.5t61 -17.5q54 0 127 68l142 -152q-105 -135 -269 -135
q-61 0 -113.5 18t-90 35.5t-62.5 17.5q-54 0 -127 -67z" />
    <glyph glyph-name="utilde" unicode="&#x169;" horiz-adv-x="1203" 
d="M1071 992v-569q0 -114 -38 -202t-104 -140.5t-148.5 -79.5t-178.5 -27t-179 27t-149 79.5t-104 140.5t-38 202v569h267v-546q0 -114 55 -168.5t148 -54.5q92 0 147.5 54.5t55.5 168.5v546h266zM340 1148l-141 152q105 135 268 135q62 0 115 -18t90 -36t61 -18
q53 0 127 69l142 -153q-105 -135 -269 -135q-61 0 -113.5 18t-90 35.5t-62.5 17.5q-54 0 -127 -67z" />
    <glyph glyph-name="Umacron" unicode="&#x16a;" horiz-adv-x="1527" 
d="M1381 1434v-862q0 -194 -79 -330t-216 -202t-322 -66q-282 0 -450 154.5t-168 443.5v862h287v-847q0 -171 88 -255t243 -84t243 84t88 255v847h286zM425 1598v214h677v-214h-677z" />
    <glyph glyph-name="umacron" unicode="&#x16b;" horiz-adv-x="1203" 
d="M1071 992v-569q0 -114 -38 -202t-104 -140.5t-148.5 -79.5t-178.5 -27t-179 27t-149 79.5t-104 140.5t-38 202v569h267v-546q0 -114 55 -168.5t148 -54.5q92 0 147.5 54.5t55.5 168.5v546h266zM263 1179v214h677v-214h-677z" />
    <glyph glyph-name="Ubreve" unicode="&#x16c;" horiz-adv-x="1527" 
d="M1381 1434v-862q0 -194 -79 -330t-216 -202t-322 -66q-282 0 -450 154.5t-168 443.5v862h287v-847q0 -171 88 -255t243 -84t243 84t88 255v847h286zM372 1852l203 60q52 -168 189 -168q135 0 188 168l204 -60q-42 -156 -143.5 -239t-248.5 -83t-248.5 83t-143.5 239z" />
    <glyph glyph-name="ubreve" unicode="&#x16d;" horiz-adv-x="1203" 
d="M1071 992v-569q0 -114 -38 -202t-104 -140.5t-148.5 -79.5t-178.5 -27t-179 27t-149 79.5t-104 140.5t-38 202v569h267v-546q0 -114 55 -168.5t148 -54.5q92 0 147.5 54.5t55.5 168.5v546h266zM210 1433l204 59q52 -168 188 -168t189 168l203 -59q-42 -156 -143.5 -239.5
t-248.5 -83.5t-248.5 83.5t-143.5 239.5z" />
    <glyph glyph-name="Uring" unicode="&#x16e;" horiz-adv-x="1527" 
d="M1381 1434v-862q0 -194 -79 -330t-216 -202t-322 -66q-282 0 -450 154.5t-168 443.5v862h287v-847q0 -171 88 -255t243 -84t243 84t88 255v847h286zM763 1522q-110 0 -188.5 77.5t-78.5 186.5q0 108 78.5 185.5t188.5 77.5q111 0 190 -77.5t79 -185.5q0 -109 -79 -186.5
t-190 -77.5zM763 1674q45 0 77 32.5t32 79.5q0 46 -32 78t-77 32q-43 0 -75.5 -32.5t-32.5 -77.5q0 -47 32.5 -79.5t75.5 -32.5z" />
    <glyph glyph-name="uring" unicode="&#x16f;" horiz-adv-x="1203" 
d="M1071 992v-569q0 -114 -38 -202t-104 -140.5t-148.5 -79.5t-178.5 -27t-179 27t-149 79.5t-104 140.5t-38 202v569h267v-546q0 -114 55 -168.5t148 -54.5q92 0 147.5 54.5t55.5 168.5v546h266zM601 1102q-110 0 -188.5 77.5t-78.5 186.5q0 108 78.5 185.5t188.5 77.5
q111 0 190 -77.5t79 -185.5q0 -109 -79 -186.5t-190 -77.5zM601 1254q45 0 77.5 32.5t32.5 79.5q0 46 -32.5 78.5t-77.5 32.5q-43 0 -75 -33t-32 -78q0 -47 32 -79.5t75 -32.5z" />
    <glyph glyph-name="Uhungarumlaut" unicode="&#x170;" horiz-adv-x="1527" 
d="M1381 1434v-862q0 -194 -79 -330t-216 -202t-322 -66q-282 0 -450 154.5t-168 443.5v862h287v-847q0 -171 88 -255t243 -84t243 84t88 255v847h286zM1070 1554h-260l222 323h291zM684 1554h-258l198 323h283z" />
    <glyph glyph-name="uhungarumlaut" unicode="&#x171;" horiz-adv-x="1203" 
d="M1071 992v-569q0 -114 -38 -202t-104 -140.5t-148.5 -79.5t-178.5 -27t-179 27t-149 79.5t-104 140.5t-38 202v569h267v-546q0 -114 55 -168.5t148 -54.5q92 0 147.5 54.5t55.5 168.5v546h266zM918 1135h-261l223 322h290zM531 1135h-258l198 322h284z" />
    <glyph glyph-name="Uogonek" unicode="&#x172;" horiz-adv-x="1527" 
d="M1120 -171l140 -152q-114 -106 -282 -106q-133 0 -217.5 62.5t-84.5 161.5q0 105 88 179q-282 0 -450 154.5t-168 443.5v862h287v-847q0 -171 88 -255t243 -84t243 84t88 255v847h286v-862q0 -386 -302 -536q-157 -78 -157 -182q0 -31 23 -51t62 -20q59 0 113 46z" />
    <glyph glyph-name="uogonek" unicode="&#x173;" horiz-adv-x="1203" 
d="M907 -171l140 -152q-114 -106 -282 -106q-133 0 -217.5 62.5t-84.5 161.5q0 105 90 181q-88 6 -162.5 36t-133 83t-92 137t-33.5 191v569h267v-546q0 -114 55 -168.5t148 -54.5q92 0 147.5 54.5t55.5 168.5v546h266v-569q0 -277 -221 -396q-141 -74 -141 -173
q0 -31 23 -51t62 -20q59 0 113 46z" />
    <glyph glyph-name="Wcircumflex" unicode="&#x174;" horiz-adv-x="2232" 
d="M2198 1434l-429 -1434h-346l-307 1024l-307 -1024h-346l-428 1434h297l308 -1100l321 1100h316l320 -1100l309 1100h292zM1501 1544h-259l-126 157l-125 -157h-259l223 323h323z" />
    <glyph glyph-name="wcircumflex" unicode="&#x175;" horiz-adv-x="1773" 
d="M1028 992l225 -696l213 696h280l-336 -992h-305l-220 671l-218 -671h-303l-336 992h284l212 -693l222 693h282zM1271 1124h-259l-126 157l-125 -157h-259l223 323h323z" />
    <glyph glyph-name="Ycircumflex" unicode="&#x176;" horiz-adv-x="1394" 
d="M1389 1434l-545 -869v-565h-286v566l-552 868h336l360 -609l361 609h326zM1086 1544h-259l-126 157l-124 -157h-260l224 323h322z" />
    <glyph glyph-name="ycircumflex" unicode="&#x177;" horiz-adv-x="1155" 
d="M1146 992l-759 -1406h-293l347 625l-428 781h303l273 -510l264 510h293zM970 1124h-259l-126 157l-125 -157h-259l223 323h322z" />
    <glyph glyph-name="Ydieresis" unicode="&#x178;" horiz-adv-x="1394" 
d="M1389 1434l-545 -869v-565h-286v566l-552 868h336l360 -609l361 609h326zM480 1878q72 0 122 -50t50 -122t-50 -121t-122 -49t-121 49t-49 121t49 122t121 50zM922 1878q72 0 122 -50t50 -122t-50 -121t-122 -49t-121 49t-49 121t49 122t121 50z" />
    <glyph glyph-name="Zacute" unicode="&#x179;" horiz-adv-x="1318" 
d="M1222 1434v-224l-745 -947h745v-263h-1125v223l745 947h-743v264h1123zM728 1554h-255l206 323h319z" />
    <glyph glyph-name="zacute" unicode="&#x17a;" horiz-adv-x="1064" 
d="M955 992v-195l-489 -558h501v-239h-869v193l501 562h-483v237h839zM612 1135h-255l206 322h320z" />
    <glyph glyph-name="Zdotaccent" unicode="&#x17b;" horiz-adv-x="1318" 
d="M1222 1434v-224l-745 -947h745v-263h-1125v223l745 947h-743v264h1123zM637 1893q76 0 127.5 -52.5t51.5 -128.5q0 -75 -51.5 -126.5t-127.5 -51.5t-127 51.5t-51 126.5q0 76 51.5 128.5t126.5 52.5z" />
    <glyph glyph-name="zdotaccent" unicode="&#x17c;" horiz-adv-x="1064" 
d="M955 992v-195l-489 -558h501v-239h-869v193l501 562h-483v237h839zM535 1489q72 0 121.5 -50t49.5 -122t-49.5 -121t-121.5 -49t-121 49t-49 121t49 122t121 50z" />
    <glyph glyph-name="Zcaron" unicode="&#x17d;" horiz-adv-x="1318" 
d="M1222 1434v-224l-745 -947h745v-263h-1125v223l745 947h-743v264h1123zM276 1867h260l124 -157l126 157h260l-224 -323h-322z" />
    <glyph glyph-name="zcaron" unicode="&#x17e;" horiz-adv-x="1064" 
d="M955 992v-195l-489 -558h501v-239h-869v193l501 562h-483v237h839zM152 1447h259l125 -157l126 157h259l-224 -323h-322z" />
    <glyph glyph-name="longs" unicode="&#x17f;" horiz-adv-x="671" 
d="M487 1500q172 0 307 -89l-108 -208q-85 48 -170 48q-117 0 -117 -139v-1112h-266v1115q0 178 92 281.5t262 103.5z" />
    <glyph glyph-name="uni018F" unicode="&#x18f;" horiz-adv-x="1615" 
d="M781 1459q210 0 379.5 -95.5t265.5 -265.5t96 -381t-93 -381t-257.5 -266t-368.5 -96q-149 0 -279 52t-225 145t-150 230t-55 298q0 58 5 131h1116q-33 160 -149 259.5t-275 99.5q-230 0 -393 -189l-200 198q235 261 583 261zM804 242q150 0 262.5 95t147.5 254h-814
q20 -155 130.5 -252t273.5 -97z" />
    <glyph glyph-name="florin" unicode="&#x192;" horiz-adv-x="1433" 
d="M1114 855v-225h-275l-28 -285q-18 -182 -101 -276.5t-245 -94.5q-157 0 -283 78l104 202q76 -39 152 -39q57 0 81.5 34.5t31.5 109.5l27 271h-234v225h256l24 237q19 181 101 274t244 93q156 0 282 -78l-103 -201q-76 39 -153 39q-56 0 -80.5 -35t-31.5 -110l-22 -219
h253z" />
    <glyph glyph-name="uni01B5" unicode="&#x1b5;" horiz-adv-x="1318" 
d="M1101 842v-252h-368l-256 -327h745v-263h-1125v223l303 375h-182v252h372l252 320h-743v264h1123v-224l-296 -368h175z" />
    <glyph glyph-name="uni01B6" unicode="&#x1b6;" horiz-adv-x="1064" 
d="M896 589v-180h-282l-148 -170h501v-239h-869v193l210 224h-138v180h290l139 158h-483v237h840v-195l-189 -208h129z" />
    <glyph glyph-name="uni01CD" unicode="&#x1cd;" horiz-adv-x="1507" 
d="M928 1434l558 -1434h-305l-125 334h-612l-125 -334h-297l558 1434h348zM751 1151l-208 -554h414zM370 1867h259l125 -157l126 157h259l-224 -323h-322z" />
    <glyph glyph-name="uni01CE" unicode="&#x1ce;" horiz-adv-x="1257" 
d="M1117 992v-992h-261v110q-110 -136 -297 -136q-205 0 -342.5 150t-137.5 373t137.5 372.5t342.5 149.5q186 0 297 -136v109h261zM608 770q-115 0 -185.5 -78t-70.5 -195t70.5 -195.5t185.5 -78.5q114 0 185 77.5t71 196.5t-71 196t-185 77zM248 1447h259l125 -157
l126 157h259l-223 -323h-323z" />
    <glyph glyph-name="uni01CF" unicode="&#x1cf;" horiz-adv-x="611" 
d="M449 1434v-1434h-286v1434h286zM-78 1867h259l125 -157l126 157h259l-223 -323h-323z" />
    <glyph glyph-name="uni01D0" unicode="&#x1d0;" horiz-adv-x="547" 
d="M408 992v-992h-268v992h268zM-111 1447h259l125 -157l126 157h259l-223 -323h-322z" />
    <glyph glyph-name="uni01D1" unicode="&#x1d1;" horiz-adv-x="1694" 
d="M847 1460q217 0 389.5 -96t268.5 -265.5t96 -381.5t-96 -381.5t-268.5 -266t-389.5 -96.5t-389.5 96.5t-268 266t-95.5 381.5q0 159 56 296.5t154.5 236t239 154.5t303.5 56zM847 1186q-199 0 -327 -130.5t-128 -338.5t128 -338.5t327 -130.5t327 130.5t128 338.5
t-128 338.5t-327 130.5zM463 1867h259l125 -157l126 157h259l-223 -323h-323z" />
    <glyph glyph-name="uni01D2" unicode="&#x1d2;" horiz-adv-x="1229" 
d="M614 1019q232 0 385 -149t153 -373t-153 -373.5t-385 -149.5q-152 0 -274.5 68t-191.5 187.5t-69 267.5q0 111 40.5 207.5t111 165.5t170 109t213.5 40zM614 770q-114 0 -188.5 -76.5t-74.5 -196.5t74.5 -197t188.5 -77t189.5 77t75.5 197t-75.5 196.5t-189.5 76.5z
M230 1447h259l125 -157l126 157h259l-223 -323h-322z" />
    <glyph glyph-name="uni01D3" unicode="&#x1d3;" horiz-adv-x="1527" 
d="M1381 1434v-862q0 -194 -79 -330t-216 -202t-322 -66q-282 0 -450 154.5t-168 443.5v862h287v-847q0 -171 88 -255t243 -84t243 84t88 255v847h286zM380 1867h259l125 -157l126 157h259l-223 -323h-323z" />
    <glyph glyph-name="uni01D4" unicode="&#x1d4;" horiz-adv-x="1203" 
d="M1071 992v-569q0 -114 -38 -202t-104 -140.5t-148.5 -79.5t-178.5 -27t-179 27t-149 79.5t-104 140.5t-38 202v569h267v-546q0 -114 55 -168.5t148 -54.5q92 0 147.5 54.5t55.5 168.5v546h266zM218 1447h259l125 -157l126 157h259l-223 -323h-323z" />
    <glyph glyph-name="uni01D5" unicode="&#x1d5;" horiz-adv-x="1527" 
d="M1381 1434v-862q0 -194 -79 -330t-216 -202t-322 -66q-282 0 -450 154.5t-168 443.5v862h287v-847q0 -171 88 -255t243 -84t243 84t88 255v847h286zM425 1959v214h677v-214h-677zM543 1878q72 0 122 -50t50 -122t-50 -121t-122 -49t-121 49t-49 121t49 122t121 50z
M984 1878q72 0 122 -50t50 -122t-50 -121t-122 -49t-121 49t-49 121t49 122t121 50z" />
    <glyph glyph-name="uni01D6" unicode="&#x1d6;" horiz-adv-x="1203" 
d="M1071 992v-569q0 -114 -38 -202t-104 -140.5t-148.5 -79.5t-178.5 -27t-179 27t-149 79.5t-104 140.5t-38 202v569h267v-546q0 -114 55 -168.5t148 -54.5q92 0 147.5 54.5t55.5 168.5v546h266zM379 1458q72 0 122 -50t50 -122t-50 -121t-122 -49t-121 49t-49 121t49 122
t121 50zM820 1458q72 0 122 -50t50 -122t-50 -121t-122 -49t-121 49t-49 121t49 122t121 50zM261 1550v214h677v-214h-677z" />
    <glyph glyph-name="uni01D7" unicode="&#x1d7;" horiz-adv-x="1527" 
d="M1381 1434v-862q0 -194 -79 -330t-216 -202t-322 -66q-282 0 -450 154.5t-168 443.5v862h287v-847q0 -171 88 -255t243 -84t243 84t88 255v847h286zM831 1958h-254l205 322h320zM543 1878q72 0 122 -50t50 -122t-50 -121t-122 -49t-121 49t-49 121t49 122t121 50z
M984 1878q72 0 122 -50t50 -122t-50 -121t-122 -49t-121 49t-49 121t49 122t121 50z" />
    <glyph glyph-name="uni01D8" unicode="&#x1d8;" horiz-adv-x="1203" 
d="M1071 992v-569q0 -114 -38 -202t-104 -140.5t-148.5 -79.5t-178.5 -27t-179 27t-149 79.5t-104 140.5t-38 202v569h267v-546q0 -114 55 -168.5t148 -54.5q92 0 147.5 54.5t55.5 168.5v546h266zM379 1458q72 0 122 -50t50 -122t-50 -121t-122 -49t-121 49t-49 121t49 122
t121 50zM820 1458q72 0 122 -50t50 -122t-50 -121t-122 -49t-121 49t-49 121t49 122t121 50zM668 1549h-255l205 323h320z" />
    <glyph glyph-name="uni01D9" unicode="&#x1d9;" horiz-adv-x="1527" 
d="M1381 1434v-862q0 -194 -79 -330t-216 -202t-322 -66q-282 0 -450 154.5t-168 443.5v862h287v-847q0 -171 88 -255t243 -84t243 84t88 255v847h286zM380 2270h259l125 -156l126 156h259l-223 -322h-323zM543 1878q72 0 122 -50t50 -122t-50 -121t-122 -49t-121 49
t-49 121t49 122t121 50zM984 1878q72 0 122 -50t50 -122t-50 -121t-122 -49t-121 49t-49 121t49 122t121 50z" />
    <glyph glyph-name="uni01DA" unicode="&#x1da;" horiz-adv-x="1203" 
d="M1071 992v-569q0 -114 -38 -202t-104 -140.5t-148.5 -79.5t-178.5 -27t-179 27t-149 79.5t-104 140.5t-38 202v569h267v-546q0 -114 55 -168.5t148 -54.5q92 0 147.5 54.5t55.5 168.5v546h266zM379 1458q72 0 122 -50t50 -122t-50 -121t-122 -49t-121 49t-49 121t49 122
t121 50zM820 1458q72 0 122 -50t50 -122t-50 -121t-122 -49t-121 49t-49 121t49 122t121 50zM216 1862h259l125 -157l126 157h259l-223 -323h-323z" />
    <glyph glyph-name="uni01DB" unicode="&#x1db;" horiz-adv-x="1527" 
d="M1381 1434v-862q0 -194 -79 -330t-216 -202t-322 -66q-282 0 -450 154.5t-168 443.5v862h287v-847q0 -171 88 -255t243 -84t243 84t88 255v847h286zM682 1958l-270 322h319l206 -322h-255zM543 1878q72 0 122 -50t50 -122t-50 -121t-122 -49t-121 49t-49 121t49 122
t121 50zM984 1878q72 0 122 -50t50 -122t-50 -121t-122 -49t-121 49t-49 121t49 122t121 50z" />
    <glyph glyph-name="uni01DC" unicode="&#x1dc;" horiz-adv-x="1203" 
d="M1071 992v-569q0 -114 -38 -202t-104 -140.5t-148.5 -79.5t-178.5 -27t-179 27t-149 79.5t-104 140.5t-38 202v569h267v-546q0 -114 55 -168.5t148 -54.5q92 0 147.5 54.5t55.5 168.5v546h266zM379 1458q72 0 122 -50t50 -122t-50 -121t-122 -49t-121 49t-49 121t49 122
t121 50zM820 1458q72 0 122 -50t50 -122t-50 -121t-122 -49t-121 49t-49 121t49 122t121 50zM518 1549l-270 323h319l206 -323h-255z" />
    <glyph glyph-name="uni01E2" unicode="&#x1e2;" horiz-adv-x="2358" 
d="M2228 262v-262h-1071v301h-585l-214 -301h-341l1038 1434h1165v-263h-777v-317h741v-262h-741v-330h785zM760 564h397v556zM1237 1598v214h677v-214h-677z" />
    <glyph glyph-name="uni01E3" unicode="&#x1e3;" horiz-adv-x="1788" 
d="M1236 1019q213 0 343.5 -144t131.5 -377q0 -52 -5 -90h-704q21 -103 88.5 -154.5t165.5 -51.5q138 0 252 95l157 -172q-167 -151 -427 -151q-243 0 -384 153q-74 -70 -163.5 -111.5t-220.5 -41.5q-185 0 -288 87t-103 230q0 141 111 221t304 80h234q-14 191 -222 191
q-138 0 -274 -91l-97 209q79 56 186 87t221 31q235 0 343 -147q61 71 152 109t199 38zM511 189q67 0 132 28.5t113 81.5q-19 59 -24 113h-200q-90 0 -133 -31.5t-43 -79.5q0 -47 39.5 -79.5t115.5 -32.5zM1227 788q-92 0 -149.5 -51.5t-75.5 -149.5h442q-19 98 -74.5 149.5
t-142.5 51.5zM559 1179v214h677v-214h-677z" />
    <glyph glyph-name="Gcaron" unicode="&#x1e6;" horiz-adv-x="1638" 
d="M851 1460q168 0 307.5 -57.5t236.5 -162.5l-206 -202q-132 151 -346 151q-198 0 -325.5 -131.5t-127.5 -340.5q0 -143 60.5 -252.5t162 -166.5t225.5 -57q173 0 275.5 81t131.5 235h-364v239h659q4 -37 4 -81q0 -160 -52.5 -298.5t-144.5 -235.5t-222 -152t-281 -55
q-149 0 -284.5 52t-239 145.5t-165 235t-61.5 310.5q0 214 97 383.5t270 264.5t390 95zM439 1867h259l125 -157l126 157h259l-223 -323h-322z" />
    <glyph glyph-name="gcaron" unicode="&#x1e7;" horiz-adv-x="1245" 
d="M536 1019q196 0 307 -137v110h262v-910q0 -238 -144.5 -374.5t-391.5 -136.5q-121 0 -236.5 31t-197.5 89l95 218q153 -102 328 -102q128 0 205.5 69.5t77.5 194.5v69q-110 -134 -305 -134q-90 0 -173 37t-146 101.5t-100.5 160.5t-37.5 207t37.5 207t100.5 161t146 102
t173 37zM603 773q-112 0 -181 -75t-69 -186q0 -110 69 -185t181 -75q110 0 179.5 74t69.5 186t-69.5 186.5t-179.5 74.5zM222 1447h259l125 -157l126 157h259l-223 -323h-323z" />
    <glyph glyph-name="Aringacute" unicode="&#x1fa;" horiz-adv-x="1507" 
d="M319 0h-297l533 1371q-74 77 -74 182q0 108 79 186t189 78q111 0 190 -78t79 -186q0 -101 -69 -176l537 -1377h-305l-125 334h-612zM751 1151l-208 -554h414zM817 1886h-255l206 323h319zM749 1442q45 0 77 32t32 79q0 46 -32.5 78.5t-76.5 32.5q-43 0 -75.5 -33
t-32.5 -78q0 -47 32.5 -79t75.5 -32z" />
    <glyph glyph-name="aringacute" unicode="&#x1fb;" horiz-adv-x="1257" 
d="M1117 992v-992h-261v110q-110 -136 -297 -136q-205 0 -342.5 150t-137.5 373t137.5 372.5t342.5 149.5q186 0 297 -136v109h261zM608 770q-115 0 -185.5 -78t-70.5 -195t70.5 -195.5t185.5 -78.5q114 0 185 77.5t71 196.5t-71 196t-185 77zM626 1068q-110 0 -189 77.5
t-79 186.5q0 108 79 185.5t189 77.5q111 0 190 -77.5t79 -185.5q0 -109 -79 -186.5t-190 -77.5zM626 1221q45 0 77 32t32 79q0 46 -32.5 78.5t-76.5 32.5q-43 0 -75.5 -33t-32.5 -78q0 -46 32 -78.5t76 -32.5zM694 1644h-255l206 322h320z" />
    <glyph glyph-name="AEacute" unicode="&#x1fc;" horiz-adv-x="2358" 
d="M2228 262v-262h-1071v301h-585l-214 -301h-341l1038 1434h1165v-263h-777v-317h741v-262h-741v-330h785zM760 564h397v556zM1644 1554h-255l205 323h320z" />
    <glyph glyph-name="aeacute" unicode="&#x1fd;" horiz-adv-x="1788" 
d="M1236 1019q213 0 343.5 -144t131.5 -377q0 -52 -5 -90h-704q21 -103 88.5 -154.5t165.5 -51.5q138 0 252 95l157 -172q-167 -151 -427 -151q-243 0 -384 153q-74 -70 -163.5 -111.5t-220.5 -41.5q-185 0 -288 87t-103 230q0 141 111 221t304 80h234q-14 191 -222 191
q-138 0 -274 -91l-97 209q79 56 186 87t221 31q235 0 343 -147q61 71 152 109t199 38zM511 189q67 0 132 28.5t113 81.5q-19 59 -24 113h-200q-90 0 -133 -31.5t-43 -79.5q0 -47 39.5 -79.5t115.5 -32.5zM1227 788q-92 0 -149.5 -51.5t-75.5 -149.5h442q-19 98 -74.5 149.5
t-142.5 51.5zM975 1135h-255l206 322h319z" />
    <glyph glyph-name="Oslashacute" unicode="&#x1fe;" horiz-adv-x="1694" 
d="M847 1460q251 0 444 -131l130 130l172 -172l-128 -128q136 -193 136 -442q0 -212 -96 -381.5t-268.5 -266t-389.5 -96.5q-251 0 -440 128l-127 -127l-172 171l123 124q-137 191 -137 448q0 159 56 296.5t154.5 236t239 154.5t303.5 56zM847 1186q-199 0 -327 -130.5
t-128 -338.5q0 -133 53 -234l640 640q-107 63 -238 63zM1302 717q0 121 -51 228l-639 -638q101 -59 235 -59q199 0 327 130.5t128 338.5zM919 1554h-255l205 323h320z" />
    <glyph glyph-name="oslashacute" unicode="&#x1ff;" horiz-adv-x="1229" 
d="M615 1019q161 0 292 -79l105 103l152 -151l-100 -100q88 -130 88 -295q0 -224 -153 -373.5t-384 -149.5q-160 0 -290 77l-104 -103l-153 151l99 101q-88 130 -88 297q0 224 152.5 373t383.5 149zM615 776q-116 0 -192.5 -78.5t-76.5 -200.5q0 -56 20 -111l365 366
q-56 24 -116 24zM886 497q0 53 -20 108l-365 -364q56 -24 114 -24q116 0 193.5 79t77.5 201zM691 1135h-255l206 322h320z" />
    <glyph glyph-name="Scommaaccent" unicode="&#x218;" horiz-adv-x="1385" 
d="M1271 1306l-135 -234q-197 122 -407 122q-123 0 -198.5 -46t-75.5 -126q0 -38 20.5 -65.5t64.5 -46.5t90.5 -30.5t120.5 -23.5l80 -13q457 -75 457 -402q0 -92 -31.5 -169.5t-86.5 -131.5t-129.5 -92t-160 -56t-179.5 -18q-168 0 -330 48.5t-274 139.5l149 230
q83 -67 204 -110.5t252 -43.5q123 0 202.5 46t79.5 127q0 70 -71.5 106t-232.5 62l-91 14q-437 69 -437 411q0 144 80 249t207.5 155t283.5 50q152 0 283 -36t265 -116zM598 -86h271l-94 -398h-221z" />
    <glyph glyph-name="scommaaccent" unicode="&#x219;" horiz-adv-x="1038" 
d="M942 924l-90 -208q-67 33 -152.5 56.5t-163.5 24.5q-74 0 -113.5 -24t-39.5 -66q0 -39 40.5 -56t121.5 -29l88 -14q335 -51 335 -297q0 -155 -121 -246t-335 -91q-275 0 -441 117l105 203q147 -97 338 -97q183 0 183 93q0 36 -39 57.5t-126 33.5l-80 11q-343 48 -343 301
q0 153 111 239t307 86q224 0 415 -94zM411 -86h271l-94 -398h-221z" />
    <glyph glyph-name="uni021A" unicode="&#x21a;" horiz-adv-x="1240" 
d="M1207 1434v-268h-444v-1166h-286v1166h-444v268h1174zM502 -86h271l-94 -398h-221z" />
    <glyph glyph-name="uni021B" unicode="&#x21b;" horiz-adv-x="955" 
d="M860 992v-237h-359v-363q0 -88 40.5 -128.5t107.5 -40.5q81 0 187 65l98 -209q-155 -105 -329 -105q-184 0 -278 101.5t-94 295.5v384h-191v237h191v295h268v-295h359zM440 -86h272l-95 -398h-221z" />
    <glyph glyph-name="uni0232" unicode="&#x232;" horiz-adv-x="1394" 
d="M1389 1434l-545 -869v-565h-286v566l-552 868h336l360 -609l361 609h326zM362 1598v214h677v-214h-677z" />
    <glyph glyph-name="uni0233" unicode="&#x233;" horiz-adv-x="1155" 
d="M1146 992l-759 -1406h-293l347 625l-428 781h303l273 -510l264 510h293zM246 1179v214h677v-214h-677z" />
    <glyph glyph-name="uni0237" unicode="&#x237;" horiz-adv-x="551" 
d="M412 992v-1086q0 -160 -84.5 -248.5t-224.5 -88.5q-86 0 -150 27l40 234q34 -12 72 -12q79 0 79 103v1071h268z" />
    <glyph glyph-name="uni0259" unicode="&#x259;" horiz-adv-x="1140" 
d="M560 -27q-214 0 -347.5 145t-134.5 377q0 52 5 90h703q-21 103 -88.5 154.5t-166.5 51.5q-135 0 -250 -96l-157 172q166 151 423 151q229 0 372 -143t143 -376q0 -234 -139.5 -380t-362.5 -146zM562 204q92 0 148.5 51.5t74.5 146.5h-439q19 -96 74.5 -147t141.5 -51z
" />
    <glyph glyph-name="uni02BB" unicode="&#x2bb;" horiz-adv-x="546" 
d="M392 864h-300l144 611h225z" />
    <glyph glyph-name="afii57929" unicode="&#x2bc;" horiz-adv-x="546" 
d="M155 1475h300l-144 -611h-225z" />
    <glyph glyph-name="uni02BE" unicode="&#x2be;" horiz-adv-x="556" 
d="M115 683v228q68 0 118 52t50 124q0 74 -49.5 126.5t-118.5 52.5v225q167 0 285 -118.5t118 -285.5t-118 -285.5t-285 -118.5z" />
    <glyph glyph-name="uni02BF" unicode="&#x2bf;" horiz-adv-x="556" 
d="M441 1490v-228q-68 0 -118 -52.5t-50 -124.5q0 -74 49.5 -126t118.5 -52v-225q-167 0 -285 118t-118 285t118 286t285 119z" />
    <glyph glyph-name="circumflex" unicode="&#x2c6;" horiz-adv-x="1094" 
d="M933 1124h-258l-126 157l-125 -157h-259l223 323h323z" />
    <glyph glyph-name="caron" unicode="&#x2c7;" horiz-adv-x="1094" 
d="M165 1447h258l126 -157l125 157h259l-223 -323h-323z" />
    <glyph glyph-name="breve" unicode="&#x2d8;" horiz-adv-x="1094" 
d="M156 1433l203 59q52 -168 189 -168q135 0 187 168l204 -59q-41 -156 -142.5 -239.5t-248.5 -83.5q-148 0 -249 83t-143 240z" />
    <glyph glyph-name="dotaccent" unicode="&#x2d9;" horiz-adv-x="621" 
d="M310 1489q72 0 121.5 -50t49.5 -122t-49.5 -121t-121.5 -49t-121 49t-49 121t49 122t121 50z" />
    <glyph glyph-name="ring" unicode="&#x2da;" horiz-adv-x="1024" 
d="M512 1102q-110 0 -188.5 77.5t-78.5 186.5q0 108 78.5 185.5t188.5 77.5q111 0 189.5 -77.5t78.5 -185.5q0 -109 -78.5 -186.5t-189.5 -77.5zM512 1254q45 0 77.5 32.5t32.5 79.5q0 46 -33 78.5t-77 32.5t-76.5 -33t-32.5 -78q0 -47 32.5 -79.5t76.5 -32.5z" />
    <glyph glyph-name="ogonek" unicode="&#x2db;" horiz-adv-x="1131" 
d="M829 -171l140 -152q-114 -106 -281 -106q-131 0 -213 66.5t-82 177.5q0 104 74.5 174t218.5 125l151 -102q-112 -41 -159 -79t-47 -81q0 -31 22.5 -50t61.5 -19q60 0 114 46z" />
    <glyph glyph-name="tilde" unicode="&#x2dc;" horiz-adv-x="1094" 
d="M288 1148l-142 152q105 135 269 135q62 0 115 -18t90 -36t61 -18q53 0 127 69l142 -153q-105 -135 -269 -135q-61 0 -113.5 18t-90 35.5t-62.5 17.5q-54 0 -127 -67z" />
    <glyph glyph-name="hungarumlaut" unicode="&#x2dd;" horiz-adv-x="1094" 
d="M757 1135h-255l206 322h319zM323 1135h-255l205 322h320z" />
    <glyph glyph-name="gravecomb" unicode="&#x300;" horiz-adv-x="1" 
d="M-696 1135l-271 322h320l206 -322h-255z" />
    <glyph glyph-name="acutecomb" unicode="&#x301;" horiz-adv-x="1" 
d="M-539 1135h-255l206 322h320z" />
    <glyph glyph-name="uni0302" unicode="&#x302;" horiz-adv-x="1" 
d="M-230 1124h-259l-126 157l-125 -157h-259l223 323h322z" />
    <glyph glyph-name="tildecomb" unicode="&#x303;" horiz-adv-x="1" 
d="M-878 1148l-141 152q105 135 268 135q62 0 115 -18t90.5 -36t61.5 -18q53 0 127 69l142 -153q-105 -135 -269 -135q-61 0 -113.5 18t-90.5 35.5t-63 17.5q-54 0 -127 -67z" />
    <glyph glyph-name="uni0304" unicode="&#x304;" horiz-adv-x="1" 
d="M-954 1179v214h676v-214h-676z" />
    <glyph glyph-name="uni0306" unicode="&#x306;" horiz-adv-x="1" 
d="M-1008 1433l204 59q52 -168 189 -168q135 0 188 168l204 -59q-42 -156 -143.5 -239.5t-248.5 -83.5t-249 83.5t-144 239.5z" />
    <glyph glyph-name="uni0307" unicode="&#x307;" horiz-adv-x="1" 
d="M-616 1489q72 0 121.5 -50t49.5 -122t-49.5 -121t-121.5 -49t-121 49t-49 121t49 122t121 50z" />
    <glyph glyph-name="uni0308" unicode="&#x308;" horiz-adv-x="1" 
d="M-839 1458q72 0 122 -50t50 -122t-50 -121t-122 -49t-121 49t-49 121t49 122t121 50zM-397 1458q72 0 122 -50t50 -122t-50 -121t-122 -49t-121 49t-49 121t49 122t121 50z" />
    <glyph glyph-name="uni030A" unicode="&#x30a;" horiz-adv-x="1" 
d="M-616 1102q-110 0 -189 77.5t-79 186.5q0 108 79 185.5t189 77.5q111 0 190 -77.5t79 -185.5q0 -109 -79 -186.5t-190 -77.5zM-616 1254q45 0 77 32.5t32 79.5q0 46 -32.5 78.5t-76.5 32.5q-43 0 -75.5 -33t-32.5 -78q0 -47 32.5 -79.5t75.5 -32.5z" />
    <glyph glyph-name="uni030B" unicode="&#x30b;" horiz-adv-x="1" 
d="M-300 1135h-260l222 322h291zM-686 1135h-258l198 322h283z" />
    <glyph glyph-name="uni030C" unicode="&#x30c;" horiz-adv-x="1" 
d="M-999 1447h259l125 -157l126 157h259l-224 -323h-322z" />
    <glyph glyph-name="uni0312" unicode="&#x312;" horiz-adv-x="1" 
d="M-483 1135h-273l94 398h222z" />
    <glyph glyph-name="dotbelowcomb" unicode="&#x323;" horiz-adv-x="1" 
d="M-614 -105q72 0 121.5 -50.5t49.5 -122.5t-49.5 -120.5t-121.5 -48.5t-121 48.5t-49 120.5t49 122.5t121 50.5z" />
    <glyph glyph-name="uni0326" unicode="&#x326;" horiz-adv-x="1" 
d="M-736 -86h271l-94 -398h-221z" />
    <glyph glyph-name="uni0327" unicode="&#x327;" horiz-adv-x="1" 
d="M-432 7l-106 -336h-258l114 336h250z" />
    <glyph glyph-name="uni0328" unicode="&#x328;" horiz-adv-x="1" 
d="M-462 -171l139 -152q-114 -106 -281 -106q-133 0 -217.5 62.5t-84.5 161.5q0 108 85.5 177t256.5 125l66 -56q-91 -48 -126.5 -93.5t-35.5 -93.5q0 -31 23 -51t62 -20q59 0 113 46z" />
    <glyph glyph-name="uni032E" unicode="&#x32e;" horiz-adv-x="1" 
d="M-1007 -136l204 59q52 -168 189 -168q135 0 188 168l204 -59q-42 -156 -143.5 -239.5t-248.5 -83.5t-249 83.5t-144 239.5z" />
    <glyph glyph-name="uni0331" unicode="&#x331;" horiz-adv-x="1" 
d="M-953 -376v215h678v-215h-678z" />
    <glyph glyph-name="uni0335" unicode="&#x335;" horiz-adv-x="1" 
d="M-237 651v-223h-757v223h757z" />
    <glyph glyph-name="uni0336" unicode="&#x336;" horiz-adv-x="1" 
d="M163 651v-223h-1557v223h1557z" />
    <glyph glyph-name="uni0394" unicode="&#x394;" horiz-adv-x="1420" 
d="M884 1434l471 -1211v-223h-1289v223l471 1211h347zM710 1152l-332 -885h663z" />
    <glyph glyph-name="uni03A9" unicode="&#x3a9;" horiz-adv-x="1742" 
d="M66 260h258q-99 93 -152 215.5t-53 264.5q0 205 95.5 369.5t267.5 257.5t389 93t389.5 -93t268 -257.5t95.5 -369.5q0 -142 -53 -264.5t-152 -215.5h258v-260h-660v231q141 45 225 170.5t84 298.5q0 216 -128 351t-327 135t-326.5 -135t-127.5 -351q0 -173 84 -298.5
t225 -170.5v-231h-660v260z" />
    <glyph glyph-name="uni03BC" unicode="&#x3bc;" horiz-adv-x="1210" 
d="M391 -410h-259v1402h267v-546q0 -107 51 -164.5t143 -57.5q91 0 150.5 58.5t59.5 166.5v543h267v-992h-260v117q-97 -144 -292 -144q-65 0 -127 19v-402z" />
    <glyph glyph-name="pi" unicode="&#x3c0;" horiz-adv-x="1212" 
d="M1080 992v-992h-266v755h-406v-755h-268v992h940z" />
    <glyph glyph-name="uni1E0C" unicode="&#x1e0c;" horiz-adv-x="1592" 
d="M163 1434h591q337 0 540.5 -196.5t203.5 -520.5t-203.5 -520.5t-540.5 -196.5h-591v1434zM751 1166h-302v-899h302q219 0 333.5 123.5t114.5 326.5q0 205 -114 327t-334 122zM767 -105q72 0 121.5 -50.5t49.5 -122.5t-49.5 -120.5t-121.5 -48.5t-121 48.5t-49 120.5
t49 122.5t121 50.5z" />
    <glyph glyph-name="uni1E0D" unicode="&#x1e0d;" horiz-adv-x="1257" 
d="M559 1019q184 0 292 -130v586h266v-1475h-261v110q-110 -136 -297 -136q-205 0 -342.5 150t-137.5 373t137.5 372.5t342.5 149.5zM608 770q-115 0 -185.5 -78t-70.5 -195t70.5 -195.5t185.5 -78.5q114 0 185 77.5t71 196.5t-71 196t-185 77zM634 -105q72 0 121.5 -50.5
t49.5 -122.5t-49.5 -120.5t-121.5 -48.5t-121 48.5t-49 120.5t49 122.5t121 50.5z" />
    <glyph glyph-name="uni1E0E" unicode="&#x1e0e;" horiz-adv-x="1592" 
d="M163 1434h591q337 0 540.5 -196.5t203.5 -520.5t-203.5 -520.5t-540.5 -196.5h-591v1434zM751 1166h-302v-899h302q219 0 333.5 123.5t114.5 326.5q0 205 -114 327t-334 122zM429 -376v215h678v-215h-678z" />
    <glyph glyph-name="uni1E0F" unicode="&#x1e0f;" horiz-adv-x="1257" 
d="M559 1019q184 0 292 -130v586h266v-1475h-261v110q-110 -136 -297 -136q-205 0 -342.5 150t-137.5 373t137.5 372.5t342.5 149.5zM608 770q-115 0 -185.5 -78t-70.5 -195t70.5 -195.5t185.5 -78.5q114 0 185 77.5t71 196.5t-71 196t-185 77zM295 -376v215h678v-215h-678z
" />
    <glyph glyph-name="uni1E24" unicode="&#x1e24;" horiz-adv-x="1587" 
d="M449 1434v-578h690v578h285v-1434h-285v590h-690v-590h-286v1434h286zM793 -105q72 0 121.5 -50.5t49.5 -122.5t-49.5 -120.5t-121.5 -48.5t-121 48.5t-49 120.5t49 122.5t121 50.5z" />
    <glyph glyph-name="uni1E25" unicode="&#x1e25;" horiz-adv-x="1210" 
d="M408 1476v-590q96 133 284 133q170 0 278 -107.5t108 -279.5v-632h-267v546q0 107 -51 164.5t-143 57.5q-91 0 -150 -58t-59 -166v-544h-268v1476h268zM609 -105q72 0 121.5 -50.5t49.5 -122.5t-49.5 -120.5t-121.5 -48.5t-121 48.5t-49 120.5t49 122.5t121 50.5z" />
    <glyph glyph-name="uni1E28" unicode="&#x1e28;" horiz-adv-x="1587" 
d="M449 1434v-578h690v578h285v-1434h-285v590h-690v-590h-11l-103 -329h-274l112 329h-10v1434h286z" />
    <glyph glyph-name="uni1E29" unicode="&#x1e29;" horiz-adv-x="1210" 
d="M408 1476v-590q96 133 284 133q170 0 278 -107.5t108 -279.5v-632h-267v546q0 107 -51 164.5t-143 57.5q-91 0 -150 -58t-59 -166v-544h-10l-103 -329h-258l110 329h-7v1476h268z" />
    <glyph glyph-name="uni1E2A" unicode="&#x1e2a;" horiz-adv-x="1587" 
d="M449 1434v-578h690v578h285v-1434h-285v590h-690v-590h-286v1434h286zM401 -136l204 59q52 -168 189 -168q135 0 188 168l204 -59q-42 -156 -143.5 -239.5t-248.5 -83.5t-249 83.5t-144 239.5z" />
    <glyph glyph-name="uni1E2B" unicode="&#x1e2b;" horiz-adv-x="1210" 
d="M408 1476v-590q96 133 284 133q170 0 278 -107.5t108 -279.5v-632h-267v546q0 107 -51 164.5t-143 57.5q-91 0 -150 -58t-59 -166v-544h-268v1476h268zM217 -136l204 59q52 -168 188 -168t189 168l203 -59q-42 -156 -143.5 -239.5t-248.5 -83.5t-248.5 83.5t-143.5 239.5
z" />
    <glyph glyph-name="uni1E32" unicode="&#x1e32;" horiz-adv-x="1458" 
d="M1091 0l-510 590h-132v-590h-286v1434h286v-581h135l474 581h358l-601 -700l646 -734h-370zM728 -105q72 0 121.5 -50.5t49.5 -122.5t-49.5 -120.5t-121.5 -48.5t-121 48.5t-49 120.5t49 122.5t121 50.5z" />
    <glyph glyph-name="uni1E33" unicode="&#x1e33;" horiz-adv-x="1121" 
d="M408 1475v-836h94l279 353h328l-391 -467l394 -525h-329l-285 401h-90v-401h-268v1475h268zM584 -105q72 0 121.5 -50.5t49.5 -122.5t-49.5 -120.5t-121.5 -48.5t-121 48.5t-49 120.5t49 122.5t121 50.5z" />
    <glyph glyph-name="uni1E36" unicode="&#x1e36;" horiz-adv-x="1239" 
d="M1206 267v-267h-1043v1434h286v-1167h757zM681 -105q72 0 121.5 -50.5t49.5 -122.5t-49.5 -120.5t-121.5 -48.5t-121 48.5t-49 120.5t49 122.5t121 50.5z" />
    <glyph glyph-name="uni1E37" unicode="&#x1e37;" horiz-adv-x="547" 
d="M408 1475v-1475h-268v1475h268zM274 -105q72 0 121.5 -50.5t49.5 -122.5t-49.5 -120.5t-121.5 -48.5t-121 48.5t-49 120.5t49 122.5t121 50.5z" />
    <glyph glyph-name="uni1E38" unicode="&#x1e38;" horiz-adv-x="1239" 
d="M1206 267v-267h-1043v1434h286v-1167h757zM681 -105q72 0 121.5 -50.5t49.5 -122.5t-49.5 -120.5t-121.5 -48.5t-121 48.5t-49 120.5t49 122.5t121 50.5zM-33 1598v214h677v-214h-677z" />
    <glyph glyph-name="uni1E39" unicode="&#x1e39;" horiz-adv-x="547" 
d="M408 1475v-1475h-268v1475h268zM-78 1625v214h677v-214h-677zM274 -105q72 0 121.5 -50.5t49.5 -122.5t-49.5 -120.5t-121.5 -48.5t-121 48.5t-49 120.5t49 122.5t121 50.5z" />
    <glyph glyph-name="uni1E3A" unicode="&#x1e3a;" horiz-adv-x="1239" 
d="M1206 267v-267h-1043v1434h286v-1167h757zM343 -376v215h678v-215h-678z" />
    <glyph glyph-name="uni1E3B" unicode="&#x1e3b;" horiz-adv-x="547" 
d="M408 1475v-1475h-268v1475h268zM-65 -376v215h678v-215h-678z" />
    <glyph glyph-name="uni1E40" unicode="&#x1e40;" horiz-adv-x="1907" 
d="M1745 1434v-1434h-286v1082l-354 -944h-302l-354 936v-1074h-286v1434h419l372 -968l372 968h419zM931 1893q76 0 127.5 -52.5t51.5 -128.5q0 -75 -51.5 -126.5t-127.5 -51.5t-127 51.5t-51 126.5q0 76 51.5 128.5t126.5 52.5z" />
    <glyph glyph-name="uni1E41" unicode="&#x1e41;" horiz-adv-x="1880" 
d="M1357 1019q175 0 283 -107t108 -280v-632h-266v546q0 106 -51.5 164t-142.5 58t-150.5 -58t-59.5 -166v-544h-267v546q0 107 -51 164.5t-143 57.5q-91 0 -150 -58t-59 -166v-544h-268v992h260v-116q97 143 292 143q106 0 191.5 -45t136.5 -125q104 170 337 170zM954 1478
q72 0 121.5 -50t49.5 -122t-49.5 -121t-121.5 -49t-121 49t-49 121t49 122t121 50z" />
    <glyph glyph-name="uni1E42" unicode="&#x1e42;" horiz-adv-x="1907" 
d="M1745 1434v-1434h-286v1082l-354 -944h-302l-354 936v-1074h-286v1434h419l372 -968l372 968h419zM953 -105q72 0 121.5 -50.5t49.5 -122.5t-49.5 -120.5t-121.5 -48.5t-121 48.5t-49 120.5t49 122.5t121 50.5z" />
    <glyph glyph-name="uni1E43" unicode="&#x1e43;" horiz-adv-x="1880" 
d="M1357 1019q175 0 283 -107t108 -280v-632h-266v546q0 106 -51.5 164t-142.5 58t-150.5 -58t-59.5 -166v-544h-267v546q0 107 -51 164.5t-143 57.5q-91 0 -150 -58t-59 -166v-544h-268v992h260v-116q97 143 292 143q106 0 191.5 -45t136.5 -125q104 170 337 170zM944 -105
q72 0 121.5 -50.5t49.5 -122.5t-49.5 -120.5t-121.5 -48.5t-121 48.5t-49 120.5t49 122.5t121 50.5z" />
    <glyph glyph-name="uni1E44" unicode="&#x1e44;" horiz-adv-x="1607" 
d="M1445 1434v-1434h-268l-727 957l-1 -957h-286v1434h267l728 -958v958h287zM785 1893q76 0 128 -52.5t52 -128.5q0 -75 -52 -126.5t-128 -51.5t-127 51.5t-51 126.5q0 76 51.5 128.5t126.5 52.5z" />
    <glyph glyph-name="uni1E45" unicode="&#x1e45;" horiz-adv-x="1210" 
d="M692 1019q170 0 278 -107.5t108 -279.5v-632h-267v546q0 107 -51 164.5t-143 57.5q-91 0 -150 -58t-59 -166v-544h-268v992h260v-116q97 143 292 143zM620 1489q72 0 121.5 -50t49.5 -122t-49.5 -121t-121.5 -49t-121 49t-49 121t49 122t121 50z" />
    <glyph glyph-name="uni1E46" unicode="&#x1e46;" horiz-adv-x="1607" 
d="M1445 1434v-1434h-268l-727 957l-1 -957h-286v1434h267l728 -958v958h287zM803 -105q72 0 121.5 -50.5t49.5 -122.5t-49.5 -120.5t-121.5 -48.5t-121 48.5t-49 120.5t49 122.5t121 50.5z" />
    <glyph glyph-name="uni1E47" unicode="&#x1e47;" horiz-adv-x="1210" 
d="M692 1019q170 0 278 -107.5t108 -279.5v-632h-267v546q0 107 -51 164.5t-143 57.5q-91 0 -150 -58t-59 -166v-544h-268v992h260v-116q97 143 292 143zM609 -105q72 0 121.5 -50.5t49.5 -122.5t-49.5 -120.5t-121.5 -48.5t-121 48.5t-49 120.5t49 122.5t121 50.5z" />
    <glyph glyph-name="uni1E48" unicode="&#x1e48;" horiz-adv-x="1607" 
d="M1445 1434v-1434h-268l-727 957l-1 -957h-286v1434h267l728 -958v958h287zM465 -376v215h678v-215h-678z" />
    <glyph glyph-name="uni1E49" unicode="&#x1e49;" horiz-adv-x="1210" 
d="M692 1019q170 0 278 -107.5t108 -279.5v-632h-267v546q0 107 -51 164.5t-143 57.5q-91 0 -150 -58t-59 -166v-544h-268v992h260v-116q97 143 292 143zM270 -376v215h678v-215h-678z" />
    <glyph glyph-name="uni1E58" unicode="&#x1e58;" horiz-adv-x="1392" 
d="M163 1434h606q254 0 389.5 -115t135.5 -322q0 -177 -116.5 -290t-322.5 -133l441 -574h-346l-418 570h-83v-570h-286v1434zM764 1170h-315v-351h315q236 0 236 178q0 173 -236 173zM652 1893q76 0 127.5 -52.5t51.5 -128.5q0 -75 -51.5 -126.5t-127.5 -51.5t-127 51.5
t-51 126.5q0 76 51.5 128.5t126.5 52.5z" />
    <glyph glyph-name="uni1E59" unicode="&#x1e59;" horiz-adv-x="860" 
d="M679 1019q76 0 139 -22l-40 -265q-74 32 -162 32q-95 0 -151.5 -57.5t-56.5 -165.5v-541h-268v992h259v-108q90 135 280 135zM479 1489q72 0 121.5 -50t49.5 -122t-49.5 -121t-121.5 -49t-121 49t-49 121t49 122t121 50z" />
    <glyph glyph-name="uni1E5A" unicode="&#x1e5a;" horiz-adv-x="1392" 
d="M163 1434h606q254 0 389.5 -115t135.5 -322q0 -177 -116.5 -290t-322.5 -133l441 -574h-346l-418 570h-83v-570h-286v1434zM764 1170h-315v-351h315q236 0 236 178q0 173 -236 173zM682 -105q72 0 121.5 -50.5t49.5 -122.5t-49.5 -120.5t-121.5 -48.5t-121 48.5
t-49 120.5t49 122.5t121 50.5z" />
    <glyph glyph-name="uni1E5B" unicode="&#x1e5b;" horiz-adv-x="860" 
d="M679 1019q76 0 139 -22l-40 -265q-74 32 -162 32q-95 0 -151.5 -57.5t-56.5 -165.5v-541h-268v992h259v-108q90 135 280 135zM274 -105q72 0 121.5 -50.5t49.5 -122.5t-49.5 -120.5t-121.5 -48.5t-121 48.5t-49 120.5t49 122.5t121 50.5z" />
    <glyph glyph-name="uni1E5C" unicode="&#x1e5c;" horiz-adv-x="1392" 
d="M163 1434h606q254 0 389.5 -115t135.5 -322q0 -177 -116.5 -290t-322.5 -133l441 -574h-346l-418 570h-83v-570h-286v1434zM764 1170h-315v-351h315q236 0 236 178q0 173 -236 173zM682 -105q72 0 121.5 -50.5t49.5 -122.5t-49.5 -120.5t-121.5 -48.5t-121 48.5
t-49 120.5t49 122.5t121 50.5zM337 1598v214h677v-214h-677z" />
    <glyph glyph-name="uni1E5D" unicode="&#x1e5d;" horiz-adv-x="860" 
d="M679 1019q76 0 139 -22l-40 -265q-74 32 -162 32q-95 0 -151.5 -57.5t-56.5 -165.5v-541h-268v992h259v-108q90 135 280 135zM141 1179v214h677v-214h-677zM274 -105q72 0 121.5 -50.5t49.5 -122.5t-49.5 -120.5t-121.5 -48.5t-121 48.5t-49 120.5t49 122.5t121 50.5z
" />
    <glyph glyph-name="uni1E5E" unicode="&#x1e5e;" horiz-adv-x="1392" 
d="M163 1434h606q254 0 389.5 -115t135.5 -322q0 -177 -116.5 -290t-322.5 -133l441 -574h-346l-418 570h-83v-570h-286v1434zM764 1170h-315v-351h315q236 0 236 178q0 173 -236 173zM344 -376v215h678v-215h-678z" />
    <glyph glyph-name="uni1E5F" unicode="&#x1e5f;" horiz-adv-x="860" 
d="M679 1019q76 0 139 -22l-40 -265q-74 32 -162 32q-95 0 -151.5 -57.5t-56.5 -165.5v-541h-268v992h259v-108q90 135 280 135zM-65 -376v215h678v-215h-678z" />
    <glyph glyph-name="uni1E62" unicode="&#x1e62;" horiz-adv-x="1385" 
d="M1271 1306l-135 -234q-197 122 -407 122q-123 0 -198.5 -46t-75.5 -126q0 -38 20.5 -65.5t64.5 -46.5t90.5 -30.5t120.5 -23.5l80 -13q457 -75 457 -402q0 -92 -31.5 -169.5t-86.5 -131.5t-129.5 -92t-160 -56t-179.5 -18q-168 0 -330 48.5t-274 139.5l149 230
q83 -67 204 -110.5t252 -43.5q123 0 202.5 46t79.5 127q0 70 -71.5 106t-232.5 62l-91 14q-437 69 -437 411q0 144 80 249t207.5 155t283.5 50q152 0 283 -36t265 -116zM715 -105q72 0 121.5 -50.5t49.5 -122.5t-49.5 -120.5t-121.5 -48.5t-121 48.5t-49 120.5t49 122.5
t121 50.5z" />
    <glyph glyph-name="uni1E63" unicode="&#x1e63;" horiz-adv-x="1038" 
d="M942 924l-90 -208q-67 33 -152.5 56.5t-163.5 24.5q-74 0 -113.5 -24t-39.5 -66q0 -39 40.5 -56t121.5 -29l88 -14q335 -51 335 -297q0 -155 -121 -246t-335 -91q-275 0 -441 117l105 203q147 -97 338 -97q183 0 183 93q0 36 -39 57.5t-126 33.5l-80 11q-343 48 -343 301
q0 153 111 239t307 86q224 0 415 -94zM532 -105q72 0 121.5 -50.5t49.5 -122.5t-49.5 -120.5t-121.5 -48.5t-121 48.5t-49 120.5t49 122.5t121 50.5z" />
    <glyph glyph-name="uni1E6C" unicode="&#x1e6c;" horiz-adv-x="1240" 
d="M1207 1434v-268h-444v-1166h-286v1166h-444v268h1174zM618 -105q72 0 122 -50.5t50 -122.5t-50 -120.5t-122 -48.5t-120.5 48.5t-48.5 120.5t48.5 122.5t120.5 50.5z" />
    <glyph glyph-name="uni1E6D" unicode="&#x1e6d;" horiz-adv-x="955" 
d="M860 992v-237h-359v-363q0 -88 40.5 -128.5t107.5 -40.5q81 0 187 65l98 -209q-155 -105 -329 -105q-184 0 -278 101.5t-94 295.5v384h-191v237h191v295h268v-295h359zM562 -105q72 0 121.5 -50.5t49.5 -122.5t-49.5 -120.5t-121.5 -48.5t-121 48.5t-49 120.5t49 122.5
t121 50.5z" />
    <glyph glyph-name="uni1E6E" unicode="&#x1e6e;" horiz-adv-x="1240" 
d="M1207 1434v-268h-444v-1166h-286v1166h-444v268h1174zM281 -376v215h677v-215h-677z" />
    <glyph glyph-name="uni1E6F" unicode="&#x1e6f;" horiz-adv-x="955" 
d="M860 992v-237h-359v-363q0 -88 40.5 -128.5t107.5 -40.5q81 0 187 65l98 -209q-155 -105 -329 -105q-184 0 -278 101.5t-94 295.5v384h-191v237h191v295h268v-295h359zM223 -376v215h678v-215h-678z" />
    <glyph glyph-name="Wgrave" unicode="&#x1e80;" horiz-adv-x="2232" 
d="M2198 1434l-429 -1434h-346l-307 1024l-307 -1024h-346l-428 1434h297l308 -1100l321 1100h316l320 -1100l309 1100h292zM1034 1554l-270 323h319l206 -323h-255z" />
    <glyph glyph-name="wgrave" unicode="&#x1e81;" horiz-adv-x="1773" 
d="M1028 992l225 -696l213 696h280l-336 -992h-305l-220 671l-218 -671h-303l-336 992h284l212 -693l222 693h282zM805 1135l-270 322h319l206 -322h-255z" />
    <glyph glyph-name="Wacute" unicode="&#x1e82;" horiz-adv-x="2232" 
d="M2198 1434l-429 -1434h-346l-307 1024l-307 -1024h-346l-428 1434h297l308 -1100l321 1100h316l320 -1100l309 1100h292zM1184 1554h-255l206 323h319z" />
    <glyph glyph-name="wacute" unicode="&#x1e83;" horiz-adv-x="1773" 
d="M1028 992l225 -696l213 696h280l-336 -992h-305l-220 671l-218 -671h-303l-336 992h284l212 -693l222 693h282zM963 1135h-255l205 322h320z" />
    <glyph glyph-name="Wdieresis" unicode="&#x1e84;" horiz-adv-x="2232" 
d="M2198 1434l-429 -1434h-346l-307 1024l-307 -1024h-346l-428 1434h297l308 -1100l321 1100h316l320 -1100l309 1100h292zM895 1878q72 0 122 -50t50 -122t-50 -121t-122 -49t-121 49t-49 121t49 122t121 50zM1336 1878q72 0 122 -50t50 -122t-50 -121t-122 -49t-121 49
t-49 121t49 122t121 50z" />
    <glyph glyph-name="wdieresis" unicode="&#x1e85;" horiz-adv-x="1773" 
d="M1028 992l225 -696l213 696h280l-336 -992h-305l-220 671l-218 -671h-303l-336 992h284l212 -693l222 693h282zM663 1458q72 0 122 -50t50 -122t-50 -121t-122 -49t-121 49t-49 121t49 122t121 50zM1104 1458q72 0 122 -50t50 -122t-50 -121t-122 -49t-121 49t-49 121
t49 122t121 50z" />
    <glyph glyph-name="uni1E88" unicode="&#x1e88;" horiz-adv-x="2232" 
d="M2198 1434l-429 -1434h-346l-307 1024l-307 -1024h-346l-428 1434h297l308 -1100l321 1100h316l320 -1100l309 1100h292zM1115 -105q72 0 121.5 -50.5t49.5 -122.5t-49.5 -120.5t-121.5 -48.5t-121 48.5t-49 120.5t49 122.5t121 50.5z" />
    <glyph glyph-name="uni1E89" unicode="&#x1e89;" horiz-adv-x="1773" 
d="M1028 992l225 -696l213 696h280l-336 -992h-305l-220 671l-218 -671h-303l-336 992h284l212 -693l222 693h282zM886 -105q72 0 121.5 -50.5t49.5 -122.5t-49.5 -120.5t-121.5 -48.5t-121 48.5t-49 120.5t49 122.5t121 50.5z" />
    <glyph glyph-name="uni1E92" unicode="&#x1e92;" horiz-adv-x="1318" 
d="M1222 1434v-224l-745 -947h745v-263h-1125v223l745 947h-743v264h1123zM658 -105q72 0 121.5 -50.5t49.5 -122.5t-49.5 -120.5t-121.5 -48.5t-121 48.5t-49 120.5t49 122.5t121 50.5z" />
    <glyph glyph-name="uni1E93" unicode="&#x1e93;" horiz-adv-x="1064" 
d="M955 992v-195l-489 -558h501v-239h-869v193l501 562h-483v237h839zM532 -105q72 0 121.5 -50.5t49.5 -122.5t-49.5 -120.5t-121.5 -48.5t-121 48.5t-49 120.5t49 122.5t121 50.5z" />
    <glyph glyph-name="uni1E94" unicode="&#x1e94;" horiz-adv-x="1318" 
d="M1222 1434v-224l-745 -947h745v-263h-1125v223l745 947h-743v264h1123zM321 -376v215h677v-215h-677z" />
    <glyph glyph-name="uni1E95" unicode="&#x1e95;" horiz-adv-x="1064" 
d="M955 992v-195l-489 -558h501v-239h-869v193l501 562h-483v237h839zM194 -376v215h677v-215h-677z" />
    <glyph glyph-name="uni1E96" unicode="&#x1e96;" horiz-adv-x="1210" 
d="M408 1476v-590q96 133 284 133q170 0 278 -107.5t108 -279.5v-632h-267v546q0 107 -51 164.5t-143 57.5q-91 0 -150 -58t-59 -166v-544h-268v1476h268zM270 -376v215h678v-215h-678z" />
    <glyph glyph-name="uni1E9E" unicode="&#x1e9e;" horiz-adv-x="1481" 
d="M678 586v202l287 348q-76 58 -224 58q-147 0 -227.5 -76t-80.5 -202v-916h-287v928q0 105 34 197t103 168.5t188 121t275 44.5q206 0 347.5 -69t242.5 -197l-322 -383q171 -38 272.5 -142t101.5 -257q0 -198 -155.5 -317.5t-396.5 -119.5q-153 0 -265 26l52 260
q79 -21 169 -21q146 0 221.5 43.5t75.5 128.5q0 86 -78.5 130.5t-226.5 44.5h-106z" />
    <glyph glyph-name="Ygrave" unicode="&#x1ef2;" horiz-adv-x="1394" 
d="M1389 1434l-545 -869v-565h-286v566l-552 868h336l360 -609l361 609h326zM620 1554l-271 323h320l205 -323h-254z" />
    <glyph glyph-name="ygrave" unicode="&#x1ef3;" horiz-adv-x="1155" 
d="M1146 992l-759 -1406h-293l347 625l-428 781h303l273 -510l264 510h293zM504 1135l-271 322h320l206 -322h-255z" />
    <glyph glyph-name="uni1EF4" unicode="&#x1ef4;" horiz-adv-x="1394" 
d="M1389 1434l-545 -869v-565h-286v566l-552 868h336l360 -609l361 609h326zM699 -105q72 0 121.5 -50.5t49.5 -122.5t-49.5 -120.5t-121.5 -48.5t-121 48.5t-49 120.5t49 122.5t121 50.5z" />
    <glyph glyph-name="uni1EF5" unicode="&#x1ef5;" horiz-adv-x="1155" 
d="M1146 992l-759 -1406h-293l347 625l-428 781h303l273 -510l264 510h293zM865 -105q72 0 121.5 -50.5t49.5 -122.5t-49.5 -120.5t-121.5 -48.5t-121 48.5t-49 120.5t49 122.5t121 50.5z" />
    <glyph glyph-name="uni2007" unicode="&#x2007;" horiz-adv-x="1445" 
 />
    <glyph glyph-name="uni2008" unicode="&#x2008;" horiz-adv-x="567" 
 />
    <glyph glyph-name="uni2009" unicode="&#x2009;" horiz-adv-x="168" 
 />
    <glyph glyph-name="uni200B" unicode="&#x200b;" horiz-adv-x="0" 
 />
    <glyph glyph-name="uni2010" unicode="&#x2010;" horiz-adv-x="832" 
d="M719 662v-234h-605v234h605z" />
    <glyph glyph-name="uni2011" unicode="&#x2011;" horiz-adv-x="832" 
d="M719 662v-234h-605v234h605z" />
    <glyph glyph-name="figuredash" unicode="&#x2012;" 
d="M1110 659v-228h-991v228h991z" />
    <glyph glyph-name="endash" unicode="&#x2013;" horiz-adv-x="1185" 
d="M1089 659v-228h-992v228h992z" />
    <glyph glyph-name="emdash" unicode="&#x2014;" horiz-adv-x="1634" 
d="M1585 659v-228h-1536v228h1536z" />
    <glyph glyph-name="quoteleft" unicode="&#x2018;" horiz-adv-x="546" 
d="M392 864h-300l144 611h225z" />
    <glyph glyph-name="quoteright" unicode="&#x2019;" horiz-adv-x="546" 
d="M155 1475h300l-144 -611h-225z" />
    <glyph glyph-name="quotesinglbase" unicode="&#x201a;" horiz-adv-x="546" 
d="M155 324h300l-144 -611h-225z" />
    <glyph glyph-name="quotedblleft" unicode="&#x201c;" horiz-adv-x="991" 
d="M392 864h-300l144 611h225zM837 864h-300l143 611h225z" />
    <glyph glyph-name="quotedblright" unicode="&#x201d;" horiz-adv-x="990" 
d="M598 1475h300l-143 -611h-226zM155 1475h300l-144 -611h-225z" />
    <glyph glyph-name="quotedblbase" unicode="&#x201e;" horiz-adv-x="990" 
d="M598 324h300l-143 -611h-226zM155 324h300l-144 -611h-225z" />
    <glyph glyph-name="dagger" unicode="&#x2020;" horiz-adv-x="815" 
d="M512 616h-209v433h-221v203h221v223h209v-223h221v-203h-221v-433z" />
    <glyph glyph-name="daggerdbl" unicode="&#x2021;" horiz-adv-x="815" 
d="M512 1475v-170h221v-196h-221v-134h221v-196h-221v-170h-209v170h-221v196h221v134h-221v196h221v170h209z" />
    <glyph glyph-name="bullet" unicode="&#x2022;" horiz-adv-x="904" 
d="M453 869q134 0 229 -94.5t95 -229.5t-95 -230t-229 -95q-135 0 -230 95t-95 230t95 229.5t230 94.5z" />
    <glyph glyph-name="uni2023" unicode="&#x2023;" horiz-adv-x="1029" 
d="M945 546l-762 -443v883z" />
    <glyph glyph-name="ellipsis" unicode="&#x2026;" horiz-adv-x="1700" 
d="M285 372q79 0 138 -59.5t59 -138.5q0 -81 -59 -140.5t-138 -59.5q-80 0 -140 59.5t-60 140.5q0 79 60 138.5t140 59.5zM851 372q79 0 138.5 -59.5t59.5 -138.5q0 -81 -59.5 -140.5t-138.5 -59.5q-80 0 -140 59.5t-60 140.5q0 79 60 138.5t140 59.5zM1418 372
q79 0 138.5 -59.5t59.5 -138.5q0 -81 -59.5 -140.5t-138.5 -59.5q-81 0 -140 59.5t-59 140.5q0 80 59 139t140 59z" />
    <glyph glyph-name="perthousand" unicode="&#x2030;" horiz-adv-x="2903" 
d="M475 1459q172 0 286.5 -111.5t114.5 -278.5q0 -169 -114.5 -280.5t-286.5 -111.5q-171 0 -285 111.5t-114 280.5q0 167 114 278.5t285 111.5zM475 1245q-74 0 -123 -50t-49 -126q0 -78 49 -128t123 -50q75 0 124 50t49 128q0 76 -49 126t-124 50zM1626 1434l-960 -1434
h-269l962 1434h267zM1551 757q171 0 286 -112.5t115 -278.5q0 -168 -114.5 -280t-286.5 -112q-171 0 -285 112t-114 280q0 166 114 278.5t285 112.5zM1551 543q-74 0 -123 -50t-49 -127t49 -127.5t123 -50.5q75 0 124 50.5t49 127.5t-49 127t-124 50zM2427 757
q172 0 286.5 -112t114.5 -279q0 -168 -114.5 -280t-286.5 -112q-171 0 -284.5 112t-113.5 280q0 166 114 278.5t284 112.5zM2427 543q-74 0 -122.5 -50t-48.5 -127t48.5 -127.5t122.5 -50.5q75 0 124.5 50.5t49.5 127.5t-49.5 127t-124.5 50z" />
    <glyph glyph-name="minute" unicode="&#x2032;" horiz-adv-x="579" 
d="M234 1434h253l-148 -698h-253z" />
    <glyph glyph-name="second" unicode="&#x2033;" horiz-adv-x="966" 
d="M622 1434h252l-148 -698h-253zM234 1434h253l-148 -698h-253z" />
    <glyph glyph-name="uni2034" unicode="&#x2034;" horiz-adv-x="1312" 
d="M601 1434h253l-148 -698h-253zM968 1434h253l-149 -698h-253zM234 1434h253l-148 -698h-253z" />
    <glyph glyph-name="guilsinglleft" unicode="&#x2039;" horiz-adv-x="653" 
d="M359 545l198 -400h-269l-198 400l198 399h269z" />
    <glyph glyph-name="guilsinglright" unicode="&#x203a;" horiz-adv-x="653" 
d="M294 546l-198 399h270l197 -399l-197 -400h-270z" />
    <glyph glyph-name="fraction" unicode="&#x2044;" horiz-adv-x="487" 
d="M819 1434l-904 -1434h-247l904 1434h247z" />
    <glyph glyph-name="uni2070" unicode="&#x2070;" horiz-adv-x="922" 
d="M461 1448q163 0 271 -118t108 -317q0 -200 -108 -318t-271 -118q-162 0 -270 118.5t-108 317.5t108 317t270 118zM461 1255q-74 0 -121 -63.5t-47 -178.5q0 -116 47 -180t121 -64t121.5 64t47.5 180q0 115 -47.5 178.5t-121.5 63.5z" />
    <glyph glyph-name="uni2071" unicode="&#x2071;" horiz-adv-x="402" 
d="M300 1298v-706h-198v706h198zM201 1652q53 0 89 -35.5t36 -88.5t-36 -89t-89 -36t-88.5 36t-35.5 89t35.5 88.5t88.5 35.5z" />
    <glyph glyph-name="uni2074" unicode="&#x2074;" horiz-adv-x="750" 
d="M611 1141v-227h107v-181h-107v-141h-201v141h-377v141l277 559h221l-261 -519h140v104l61 123h140z" />
    <glyph glyph-name="uni2075" unicode="&#x2075;" horiz-adv-x="764" 
d="M638 1434v-185h-334l-3 -128h73q150 0 233 -68.5t83 -182.5q0 -133 -91.5 -213t-234.5 -80q-95 0 -175.5 31t-134.5 83l106 144q36 -30 91.5 -52.5t110.5 -22.5q58 0 88.5 26t30.5 69q0 92 -149 92h-212l11 487h507z" />
    <glyph glyph-name="uni2076" unicode="&#x2076;" horiz-adv-x="772" 
d="M604 1434l-206 -283h13q141 0 224 -80t83 -200q0 -128 -95.5 -211t-238.5 -83t-238.5 81.5t-95.5 206.5q0 112 86 237l226 332h242zM384 984q-53 0 -88 -32.5t-35 -82.5q0 -51 34.5 -83t88.5 -32t88.5 32t34.5 83q0 50 -35 82.5t-88 32.5z" />
    <glyph glyph-name="uni2077" unicode="&#x2077;" horiz-adv-x="712" 
d="M671 1434v-158l-336 -684h-240l337 654h-382v188h621z" />
    <glyph glyph-name="uni2078" unicode="&#x2078;" horiz-adv-x="829" 
d="M414 1448q138 0 230 -65.5t92 -177.5q0 -129 -129 -188q151 -59 151 -196q0 -112 -98.5 -178t-245.5 -66q-146 0 -244.5 66t-98.5 178q0 137 149 196q-128 60 -128 188q0 111 92.5 177t229.5 66zM414 940q-53 0 -88 -25.5t-35 -69.5q0 -46 35 -72.5t88 -26.5
q54 0 89.5 26.5t35.5 72.5q0 44 -35.5 69.5t-89.5 25.5zM414 1276q-47 0 -77.5 -24t-30.5 -65t30.5 -64.5t77.5 -23.5t77.5 23.5t30.5 64.5q0 42 -30.5 65.5t-77.5 23.5z" />
    <glyph glyph-name="uni2079" unicode="&#x2079;" horiz-adv-x="772" 
d="M167 592l205 282h-12q-142 0 -224.5 79.5t-82.5 200.5q0 127 95.5 210.5t238.5 83.5t238.5 -81.5t95.5 -206.5q0 -113 -85 -237l-227 -331h-242zM387 1041q53 0 88 32.5t35 82.5q0 51 -34.5 83t-88.5 32t-88.5 -32t-34.5 -83q0 -50 35 -82.5t88 -32.5z" />
    <glyph glyph-name="uni207F" unicode="&#x207f;" horiz-adv-x="868" 
d="M500 1318q120 0 196 -76.5t76 -198.5v-451h-200v388q0 73 -34 112.5t-97 39.5q-61 0 -101 -40t-40 -113v-387h-199v706h193v-81q67 101 206 101z" />
    <glyph glyph-name="uni2080" unicode="&#x2080;" horiz-adv-x="922" 
d="M461 462q163 0 271 -118t108 -317q0 -200 -108 -318.5t-271 -118.5q-162 0 -270 118.5t-108 318.5q0 199 108 317t270 118zM461 269q-74 0 -121 -63.5t-47 -178.5q0 -116 47 -180t121 -64t121.5 64t47.5 180q0 115 -47.5 178.5t-121.5 63.5z" />
    <glyph glyph-name="uni2081" unicode="&#x2081;" horiz-adv-x="566" 
d="M433 461v-855h-202v578l-189 -69v196z" />
    <glyph glyph-name="uni2082" unicode="&#x2082;" horiz-adv-x="742" 
d="M176 181l-122 132q120 149 314 149q136 0 217 -74.5t81 -197.5q0 -73 -31.5 -131.5t-103.5 -126.5l-147 -140h301v-186h-587v157l296 282q63 60 63 123q0 45 -31.5 73t-79.5 28q-51 0 -90 -23t-80 -65z" />
    <glyph glyph-name="uni2083" unicode="&#x2083;" horiz-adv-x="747" 
d="M341 462q141 0 229 -67t88 -176q0 -131 -123 -189q67 -27 104.5 -76.5t37.5 -114.5q0 -80 -48 -138t-121.5 -84.5t-161.5 -26.5q-197 0 -304 124l113 131q74 -76 181 -76q58 0 94.5 22.5t36.5 65.5q0 42 -42 65t-106 23h-96v171h99q56 0 92.5 23t36.5 63t-32 61t-86 21
q-104 0 -175 -79l-113 130q112 127 296 127z" />
    <glyph glyph-name="uni2084" unicode="&#x2084;" horiz-adv-x="750" 
d="M611 155v-227h107v-181h-107v-141h-201v141h-377v141l277 558h221l-261 -518h140v104l61 123h140z" />
    <glyph glyph-name="uni2085" unicode="&#x2085;" horiz-adv-x="764" 
d="M638 447v-184h-334l-3 -128h73q150 0 233 -68.5t83 -182.5q0 -133 -91.5 -213.5t-234.5 -80.5q-95 0 -175.5 31.5t-134.5 83.5l106 143q36 -30 91.5 -52t110.5 -22q58 0 88.5 26t30.5 69q0 92 -149 92h-212l11 486h507z" />
    <glyph glyph-name="uni2086" unicode="&#x2086;" horiz-adv-x="772" 
d="M604 447l-206 -282h13q141 0 224 -80t83 -200q0 -128 -95.5 -211.5t-238.5 -83.5q-142 0 -238 82t-96 207q0 112 86 237l226 331h242zM384 -2q-53 0 -88 -32.5t-35 -82.5q0 -51 34.5 -83t88.5 -32t88.5 32t34.5 83q0 50 -35 82.5t-88 32.5z" />
    <glyph glyph-name="uni2087" unicode="&#x2087;" horiz-adv-x="712" 
d="M671 447v-157l-336 -684h-240l337 654h-382v187h621z" />
    <glyph glyph-name="uni2088" unicode="&#x2088;" horiz-adv-x="829" 
d="M414 462q138 0 230 -65.5t92 -177.5q0 -129 -129 -188q151 -59 151 -196q0 -112 -98.5 -178.5t-245.5 -66.5q-146 0 -244.5 66.5t-98.5 178.5q0 137 149 196q-128 60 -128 188q0 111 92.5 177t229.5 66zM414 -46q-53 0 -88 -25.5t-35 -69.5q0 -46 35 -72.5t88 -26.5
q54 0 89.5 26.5t35.5 72.5q0 44 -35.5 69.5t-89.5 25.5zM414 290q-47 0 -77.5 -24t-30.5 -65t30.5 -64.5t77.5 -23.5t77.5 23.5t30.5 64.5q0 42 -30.5 65.5t-77.5 23.5z" />
    <glyph glyph-name="uni2089" unicode="&#x2089;" horiz-adv-x="772" 
d="M167 -394l205 282h-12q-142 0 -224.5 79.5t-82.5 200.5q0 127 95.5 210.5t238.5 83.5t238.5 -81.5t95.5 -206.5q0 -113 -85 -237l-227 -331h-242zM387 55q53 0 88 32.5t35 82.5q0 51 -34.5 83t-88.5 32t-88.5 -32t-34.5 -83q0 -50 35 -82.5t88 -32.5z" />
    <glyph glyph-name="Euro" unicode="&#x20ac;" horiz-adv-x="1433" 
d="M1068 648v-189h-519q49 -112 138 -173t205 -61q180 0 311 146l152 -199q-188 -198 -461 -198q-238 0 -407 129t-232 356h-178v189h147q-2 23 -2 69q0 45 2 68h-147v190h178q63 227 232 355.5t407 128.5q277 0 465 -194l-158 -203q-129 146 -310 146q-117 0 -206 -61.5
t-137 -171.5h520v-190h-565q-3 -35 -3 -68q0 -36 3 -69h565z" />
    <glyph glyph-name="uni20BA" unicode="&#x20ba;" horiz-adv-x="1433" 
d="M1025 880v-202l-431 -195v-221h168q114 0 199.5 56.5t153.5 179.5l224 -133q-103 -186 -246 -275.5t-351 -89.5h-425v358l-172 -76v201l172 77v134l-172 -77v202l172 77v540h277v-415l431 194v-201l-431 -195v-134z" />
    <glyph glyph-name="uni2100" unicode="&#x2100;" horiz-adv-x="2048" 
d="M517 1459q154 0 242.5 -78.5t88.5 -231.5v-416h-192v70q-86 -88 -213 -88q-116 0 -182.5 62t-66.5 165q0 101 78.5 159t216.5 58h158q-11 126 -151 126q-101 0 -193 -65l-77 150q119 89 291 89zM493 872q91 0 159 77v79h-133q-61 0 -90.5 -22.5t-29.5 -55.5t24 -55.5
t70 -22.5zM1639 1434l-904 -1434h-247l905 1434h246zM1567 719q183 0 287 -138l-147 -117q-61 70 -145 70q-72 0 -121 -51.5t-49 -135.5t48.5 -135.5t120.5 -51.5q86 0 148 70l145 -117q-107 -139 -287 -139q-167 0 -272.5 105t-105.5 268q0 162 105 267t273 105z" />
    <glyph glyph-name="uni2101" unicode="&#x2101;" horiz-adv-x="2048" 
d="M522 1459q154 0 242.5 -78.5t88.5 -231.5v-416h-191v70q-86 -88 -213 -88q-116 0 -183 62.5t-67 164.5q0 101 79 159t217 58h157q-11 126 -151 126q-101 0 -193 -65l-77 150q119 89 291 89zM498 872q91 0 159 77v79h-133q-61 0 -90.5 -22.5t-29.5 -55.5t24 -55.5
t70 -22.5zM1645 1434l-905 -1434h-246l904 1434h247zM1825 651l-64 -153q-120 56 -227 56q-102 0 -102 -59q0 -27 28 -38.5t86 -19.5l61 -9q236 -37 236 -212q0 -112 -86 -177t-239 -65q-200 0 -318 81l77 152q104 -69 243 -69q122 0 122 62q0 24 -26.5 38t-89.5 23l-53 7
q-246 36 -246 216q0 110 80 172t221 62q153 0 297 -67z" />
    <glyph glyph-name="afii61248" unicode="&#x2105;" horiz-adv-x="2048" 
d="M537 1459q183 0 287 -138l-147 -117q-61 70 -146 70q-72 0 -121 -51.5t-49 -135.5t48.5 -135.5t120.5 -51.5q86 0 149 71l145 -118q-106 -138 -287 -138q-168 0 -273 105t-105 267t105 267t273 105zM1584 1434l-904 -1434h-247l904 1434h247zM1508 719q165 0 273.5 -106
t108.5 -266t-108.5 -266.5t-273.5 -106.5t-274 106.5t-109 266.5t109 266t274 106zM1508 534q-78 0 -129 -52.5t-51 -134.5q0 -83 51 -135t129 -52q77 0 129 52.5t52 134.5t-52 134.5t-129 52.5z" />
    <glyph glyph-name="uni2106" unicode="&#x2106;" horiz-adv-x="2048" 
d="M527 1459q184 0 288 -138l-147 -117q-61 70 -146 70q-72 0 -121 -51.5t-49 -135.5t48.5 -135.5t120.5 -51.5q86 0 149 71l145 -118q-106 -138 -288 -138q-167 0 -272 104.5t-105 267.5t105 267.5t272 104.5zM1576 1434l-904 -1434h-247l904 1434h247zM1898 699v-404
q0 -107 -47 -181.5t-121 -107t-167 -32.5q-145 0 -240.5 81.5t-95.5 239.5v404h198v-387q0 -77 38 -114.5t100 -37.5q63 0 100.5 37t37.5 115v387h197z" />
    <glyph glyph-name="afii61289" unicode="&#x2113;" horiz-adv-x="1070" 
d="M182 375l-79 224q76 26 158 64l2 436q1 179 100.5 290t264.5 111q151 0 248 -96t97 -246q-1 -374 -461 -634v-154q0 -74 38 -111.5t99 -37.5q89 0 191 66l104 -203q-145 -101 -314 -101q-176 0 -272.5 95.5t-96.5 281.5v44q-72 -27 -79 -29zM513 1089l-1 -280
q210 159 210 338q0 56 -24.5 88t-69.5 32q-52 0 -83.5 -46t-31.5 -132z" />
    <glyph glyph-name="afii61352" unicode="&#x2116;" horiz-adv-x="2499" 
d="M2417 596v-222h-724v222h724zM2054 1453q165 0 274 -106.5t109 -266.5q0 -159 -109 -265t-274 -106q-164 0 -272.5 106t-108.5 265q0 160 108.5 266.5t272.5 106.5zM2054 1263q-75 0 -125 -51.5t-50 -131.5q0 -79 50 -130.5t125 -51.5t125.5 51.5t50.5 130.5
q0 80 -50 131.5t-126 51.5zM1445 1434v-1434h-268l-727 957l-1 -957h-286v1434h267l728 -958v958h287z" />
    <glyph glyph-name="uni2117" unicode="&#x2117;" horiz-adv-x="1909" 
d="M955 1555q172 0 328 -65.5t268.5 -176.5t179 -264t66.5 -321t-66.5 -321.5t-179 -264.5t-268.5 -177t-328 -66t-328 66t-268.5 177t-179 264.5t-66.5 321.5t66.5 321t179 264t268.5 176.5t328 65.5zM955 1329q-124 0 -236.5 -47.5t-193.5 -128t-129 -191.5t-48 -234
q0 -164 81 -303t221 -219.5t305 -80.5t304.5 80.5t221 219.5t81.5 303t-81.5 302.5t-221 218.5t-304.5 80zM639 1144h384q171 0 264 -77.5t93 -208.5q0 -128 -92.5 -203.5t-262.5 -75.5h-166v-279h-220v844zM1019 951h-160v-185h160q137 0 137 92q0 45 -35 69t-102 24z" />
    <glyph glyph-name="uni2120" unicode="&#x2120;" horiz-adv-x="1682" 
d="M673 1382l-73 -138q-108 51 -198 51q-53 0 -85.5 -14t-32.5 -41q0 -10 4.5 -18t16.5 -13.5t21.5 -9.5t31 -7.5t33 -5.5t38.5 -5l32 -4q107 -12 168.5 -61t61.5 -126q0 -80 -45 -134t-111 -76.5t-148 -22.5q-186 0 -305 76l82 138q108 -63 224 -63q54 0 87.5 14t33.5 43
q0 27 -32.5 39t-109.5 20l-37 4q-111 11 -170.5 60.5t-59.5 135.5q0 100 82.5 161t212.5 61q148 0 278 -64zM1617 771h-182v429l-135 -367h-182l-136 368v-430h-181v663h255l153 -398l153 398h255v-663z" />
    <glyph glyph-name="trademark" unicode="&#x2122;" horiz-adv-x="1658" 
d="M1593 771h-182v429l-134 -367h-182l-138 368v-430h-180v663h255l154 -398l152 398h255v-663zM456 771h-182v497h-208v166h599v-166h-209v-497z" />
    <glyph glyph-name="Omega" unicode="&#x2126;" horiz-adv-x="1742" 
d="M66 260h258q-99 93 -152 215.5t-53 264.5q0 205 95.5 369.5t267.5 257.5t389 93t389.5 -93t268 -257.5t95.5 -369.5q0 -142 -53 -264.5t-152 -215.5h258v-260h-660v231q141 45 225 170.5t84 298.5q0 216 -128 351t-327 135t-326.5 -135t-127.5 -351q0 -173 84 -298.5
t225 -170.5v-231h-660v260z" />
    <glyph glyph-name="estimated" unicode="&#x212e;" horiz-adv-x="2048" 
d="M515 666v-314q0 -96 31.5 -162.5t107.5 -109.5q172 -97 370 -97q189 0 348 82t257 229l83 -64q-114 -166 -294.5 -258.5t-393.5 -92.5q-170 0 -322.5 61t-264.5 169t-178 266t-66 342t66 342t178 265.5t264.5 168.5t322.5 61t322.5 -61t264.5 -168.5t178 -265.5t66 -342
q0 -35 -2 -51h-1338zM515 768h1030v303q0 95 -31 161t-104 111q-178 108 -386 108q-198 0 -370 -97q-75 -43 -107 -110t-32 -163v-313z" />
    <glyph glyph-name="uni214D" unicode="&#x214d;" horiz-adv-x="2102" 
d="M650 1434l272 -761h-210l-43 136h-276l-42 -136h-208l272 761h235zM1919 702l-82 -161q-106 58 -218 58q-56 0 -90 -15t-34 -44q0 -42 138 -62q17 -3 25 -4l31 -5q251 -39 251 -216q0 -69 -28 -121.5t-76.5 -83t-107 -46t-124.5 -15.5q-208 0 -338 87l92 159
q123 -72 249 -72q56 0 90 15.5t34 47.5q0 30 -34 42.5t-120 23.5l-38 5q-253 30 -253 226q0 113 90 183t233 70q97 0 166 -17.5t144 -54.5zM531 1247l-81 -260h163zM1699 1434l-904 -1434h-247l904 1434h247z" />
    <glyph glyph-name="uni2150" unicode="&#x2150;" horiz-adv-x="1828" 
d="M1413 1434l-904 -1434h-247l904 1434h247zM1787 842v-158l-336 -684h-240l337 654h-382v188h621zM433 1447v-855h-202v578l-189 -69v196z" />
    <glyph glyph-name="uni2151" unicode="&#x2151;" horiz-adv-x="1853" 
d="M1413 1434l-904 -1434h-247l904 1434h247zM1248 0l205 283h-11q-142 0 -224.5 79t-82.5 200q0 127 95 210.5t238 83.5t238.5 -81.5t95.5 -206.5q0 -113 -85 -237l-227 -331h-242zM1468 450q53 0 88 32t35 82q0 51 -34.5 83t-88.5 32q-53 0 -87.5 -32t-34.5 -83
q0 -50 34.5 -82t87.5 -32zM433 1447v-855h-202v578l-189 -69v196z" />
    <glyph glyph-name="uni2152" unicode="&#x2152;" horiz-adv-x="2590" 
d="M1413 1434l-904 -1434h-247l904 1434h247zM1535 855v-855h-202v579l-189 -70v197zM2129 856q163 0 271 -118t108 -317q0 -200 -108 -318t-271 -118q-162 0 -270 118.5t-108 317.5t108 317t270 118zM2129 664q-74 0 -121 -64t-47 -179q0 -116 47 -180t121 -64t121.5 64
t47.5 180q0 115 -47.5 179t-121.5 64zM433 1447v-855h-202v578l-189 -69v196z" />
    <glyph glyph-name="onethird" unicode="&#x2153;" horiz-adv-x="1828" 
d="M1413 1434l-904 -1434h-247l904 1434h247zM1422 856q141 0 229.5 -67t88.5 -176q0 -131 -124 -189q67 -27 104.5 -76.5t37.5 -114.5q0 -80 -48 -138t-121.5 -84t-161.5 -26q-197 0 -304 124l113 131q75 -77 181 -77q58 0 94.5 22.5t36.5 65.5q0 42 -41.5 65t-105.5 23
h-96v171h98q56 0 92.5 23t36.5 63t-32 61t-86 21q-104 0 -175 -79l-113 130q112 127 296 127zM433 1447v-855h-202v578l-189 -69v196z" />
    <glyph glyph-name="twothirds" unicode="&#x2154;" horiz-adv-x="2009" 
d="M1592 1434l-904 -1434h-247l905 1434h246zM1602 856q141 0 229 -67t88 -176q0 -131 -124 -189q67 -27 104.5 -76.5t37.5 -114.5q0 -80 -48 -138t-121 -84t-161 -26q-197 0 -304 124l112 131q75 -77 181 -77q58 0 94.5 22.5t36.5 65.5q0 42 -41.5 65t-105.5 23h-96v171h98
q56 0 92.5 23t36.5 63t-32 61t-86 21q-104 0 -175 -79l-112 130q112 127 296 127zM176 1167l-122 132q120 149 314 149q136 0 217 -74t81 -197q0 -73 -31.5 -131.5t-103.5 -126.5l-147 -141h301v-186h-587v158l296 281q63 60 63 123q0 45 -31.5 73t-79.5 28q-51 0 -90 -23
t-80 -65z" />
    <glyph glyph-name="uni2155" unicode="&#x2155;" horiz-adv-x="1846" 
d="M1413 1434l-904 -1434h-247l904 1434h247zM1719 842v-185h-334l-3 -128h73q151 0 234 -68t83 -182q0 -133 -92 -213.5t-235 -80.5q-95 0 -175 31t-134 83l105 144q36 -30 92 -52.5t111 -22.5q58 0 88.5 26t30.5 69q0 92 -150 92h-212l11 487h507zM433 1447v-855h-202v578
l-189 -69v196z" />
    <glyph glyph-name="uni2156" unicode="&#x2156;" horiz-adv-x="2025" 
d="M1592 1434l-904 -1434h-247l905 1434h246zM1898 842v-185h-333l-3 -128h72q151 0 234 -68t83 -182q0 -133 -92 -213.5t-235 -80.5q-95 0 -175 31t-134 83l105 144q36 -30 92 -52.5t111 -22.5q58 0 88.5 26t30.5 69q0 92 -150 92h-212l12 487h506zM176 1167l-122 132
q120 149 314 149q136 0 217 -74t81 -197q0 -73 -31.5 -131.5t-103.5 -126.5l-147 -141h301v-186h-587v158l296 281q63 60 63 123q0 45 -31.5 73t-79.5 28q-51 0 -90 -23t-80 -65z" />
    <glyph glyph-name="uni2157" unicode="&#x2157;" horiz-adv-x="1999" 
d="M1567 1434l-904 -1434h-247l904 1434h247zM1873 842v-185h-334l-3 -128h73q151 0 233.5 -68t82.5 -182q0 -133 -92 -213.5t-235 -80.5q-95 0 -175 31t-134 83l106 144q36 -30 91.5 -52.5t110.5 -22.5q58 0 88.5 26t30.5 69q0 92 -149 92h-212l11 487h507zM341 1448
q141 0 229 -67t88 -176q0 -131 -123 -189q67 -27 104.5 -76.5t37.5 -114.5q0 -80 -48 -138t-121.5 -84t-161.5 -26q-198 0 -304 123l113 131q74 -76 181 -76q58 0 94.5 22.5t36.5 65.5q0 42 -42 65t-106 23h-96v171h99q56 0 92.5 23t36.5 63t-32 61t-86 21q-104 0 -175 -79
l-113 130q112 127 296 127z" />
    <glyph glyph-name="uni2158" unicode="&#x2158;" horiz-adv-x="2004" 
d="M1573 1434l-904 -1434h-247l904 1434h247zM1879 842v-185h-334l-3 -128h73q151 0 233.5 -68t82.5 -182q0 -133 -91.5 -213.5t-234.5 -80.5q-95 0 -175.5 31t-134.5 83l106 144q36 -30 92 -52.5t111 -22.5q58 0 88 26t30 69q0 92 -149 92h-212l11 487h507zM611 1141v-227
h107v-181h-107v-141h-201v141h-377v141l277 559h221l-261 -519h140v104l61 123h140z" />
    <glyph glyph-name="uni2159" unicode="&#x2159;" horiz-adv-x="1764" 
d="M1413 1434l-904 -1434h-247l904 1434h247zM1596 842l-205 -283h12q141 0 224 -79.5t83 -199.5q0 -128 -95.5 -211.5t-238.5 -83.5t-238.5 81.5t-95.5 206.5q0 112 86 237l227 332h241zM1376 392q-53 0 -88 -32t-35 -82q0 -51 35 -83.5t88 -32.5t88 32.5t35 83.5
q0 50 -35 82t-88 32zM433 1447v-855h-202v578l-189 -69v196z" />
    <glyph glyph-name="uni215A" unicode="&#x215a;" horiz-adv-x="1928" 
d="M1577 1434l-904 -1434h-247l904 1434h247zM1759 842l-206 -283h13q141 0 224 -79.5t83 -199.5q0 -128 -95.5 -211.5t-238.5 -83.5t-238.5 81.5t-95.5 206.5q0 112 86 237l227 332h241zM1539 392q-53 0 -88 -32t-35 -82q0 -51 35 -83.5t88 -32.5t88 32.5t35 83.5
q0 50 -35 82t-88 32zM638 1434v-185h-334l-3 -128h73q150 0 233 -68.5t83 -182.5q0 -133 -91.5 -213t-234.5 -80q-95 0 -175.5 31t-134.5 83l106 144q36 -30 91.5 -52.5t110.5 -22.5q58 0 88.5 26t30.5 69q0 92 -149 92h-212l11 487h507z" />
    <glyph glyph-name="oneeighth" unicode="&#x215b;" horiz-adv-x="1890" 
d="M1413 1434l-904 -1434h-247l904 1434h247zM1475 856q138 0 230 -65.5t92 -177.5q0 -129 -129 -188q151 -59 151 -196q0 -112 -98.5 -178t-245.5 -66q-146 0 -244.5 66t-98.5 178q0 137 149 196q-128 60 -128 188q0 111 92.5 177t229.5 66zM1475 348q-53 0 -88 -25.5
t-35 -69.5q0 -46 34.5 -72t88.5 -26t89 26t35 72q0 44 -35 69.5t-89 25.5zM1475 684q-47 0 -77.5 -24t-30.5 -65t30.5 -64.5t77.5 -23.5t77.5 23.5t30.5 64.5q0 42 -30.5 65.5t-77.5 23.5zM433 1447v-855h-202v578l-189 -69v196z" />
    <glyph glyph-name="threeeighths" unicode="&#x215c;" horiz-adv-x="2043" 
d="M1567 1434l-904 -1434h-247l904 1434h247zM1628 856q138 0 230.5 -66t92.5 -177q0 -129 -129 -188q150 -59 150 -196q0 -112 -98.5 -178t-245.5 -66q-146 0 -244.5 66t-98.5 178q0 137 150 196q-128 60 -128 188q0 111 92 177t229 66zM1628 348q-53 0 -88 -25.5
t-35 -69.5q0 -46 34.5 -72t88.5 -26t89.5 26t35.5 72q0 44 -35.5 69.5t-89.5 25.5zM1628 684q-47 0 -77 -23.5t-30 -65.5q0 -41 30.5 -64.5t76.5 -23.5q47 0 78 23.5t31 64.5q0 42 -31 65.5t-78 23.5zM341 1448q141 0 229 -67t88 -176q0 -131 -123 -189q67 -27 104.5 -76.5
t37.5 -114.5q0 -80 -48 -138t-121.5 -84t-161.5 -26q-198 0 -304 123l113 131q74 -76 181 -76q58 0 94.5 22.5t36.5 65.5q0 42 -42 65t-106 23h-96v171h99q56 0 92.5 23t36.5 63t-32 61t-86 21q-104 0 -175 -79l-113 130q112 127 296 127z" />
    <glyph glyph-name="fiveeighths" unicode="&#x215d;" horiz-adv-x="2053" 
d="M1577 1434l-904 -1434h-247l904 1434h247zM1637 856q138 0 230.5 -66t92.5 -177q0 -129 -129 -188q150 -59 150 -196q0 -112 -98.5 -178t-245.5 -66q-146 0 -244.5 66t-98.5 178q0 137 150 196q-128 60 -128 188q0 111 92 177t229 66zM1637 348q-53 0 -88 -25.5
t-35 -69.5q0 -46 34.5 -72t88.5 -26t89.5 26t35.5 72q0 44 -35.5 69.5t-89.5 25.5zM1637 684q-47 0 -77 -23.5t-30 -65.5q0 -41 30.5 -64.5t76.5 -23.5q47 0 78 23.5t31 64.5q0 42 -31 65.5t-78 23.5zM638 1434v-185h-334l-3 -128h73q150 0 233 -68.5t83 -182.5
q0 -133 -91.5 -213t-234.5 -80q-95 0 -175.5 31t-134.5 83l106 144q36 -30 91.5 -52.5t110.5 -22.5q58 0 88.5 26t30.5 69q0 92 -149 92h-212l11 487h507z" />
    <glyph glyph-name="seveneighths" unicode="&#x215e;" horiz-adv-x="1885" 
d="M1409 1434l-904 -1434h-247l904 1434h247zM1470 856q138 0 230.5 -66t92.5 -177q0 -129 -129 -188q151 -59 151 -196q0 -112 -99 -178t-246 -66q-146 0 -244.5 66t-98.5 178q0 137 150 196q-128 60 -128 188q0 111 92 177t229 66zM1470 348q-53 0 -87.5 -25.5
t-34.5 -69.5q0 -46 34.5 -72t87.5 -26q54 0 89.5 26t35.5 72q0 44 -35.5 69.5t-89.5 25.5zM1470 684q-47 0 -77 -23.5t-30 -65.5q0 -41 30.5 -64.5t76.5 -23.5q47 0 78 23.5t31 64.5q0 42 -31 65.5t-78 23.5zM671 1434v-158l-336 -684h-240l337 654h-382v188h621z" />
    <glyph glyph-name="uni215F" unicode="&#x215f;" horiz-adv-x="1081" 
d="M1413 1434l-904 -1434h-247l904 1434h247zM433 1447v-855h-202v578l-189 -69v196z" />
    <glyph glyph-name="uni2189" unicode="&#x2189;" horiz-adv-x="2100" 
d="M1684 1434l-904 -1434h-246l904 1434h246zM1694 856q141 0 229 -67t88 -176q0 -131 -124 -189q68 -27 105.5 -76.5t37.5 -114.5q0 -80 -48 -138t-121.5 -84t-161.5 -26q-197 0 -304 124l112 131q75 -77 182 -77q58 0 94.5 22.5t36.5 65.5q0 42 -42 65t-106 23h-96v171h98
q56 0 92.5 23t36.5 63t-31.5 61t-85.5 21q-105 0 -176 -79l-112 130q112 127 296 127zM461 1448q163 0 271 -118t108 -317q0 -200 -108 -318t-271 -118q-162 0 -270 118.5t-108 317.5t108 317t270 118zM461 1255q-74 0 -121 -63.5t-47 -178.5q0 -116 47 -180t121 -64
t121.5 64t47.5 180q0 115 -47.5 178.5t-121.5 63.5z" />
    <glyph glyph-name="arrowleft" unicode="&#x2190;" horiz-adv-x="2048" 
d="M1873 561h-993q-169 0 -291 8q104 -84 270 -247l151 -150l-165 -165l-670 671l670 670l165 -165l-151 -149q-161 -159 -270 -249q136 10 291 10h993v-234z" />
    <glyph glyph-name="arrowup" unicode="&#x2191;" horiz-adv-x="2048" 
d="M907 -127v993q0 169 8 291q-93 -114 -247 -270l-150 -151l-164 165l670 670l670 -670l-164 -165l-150 151q-154 156 -247 270q8 -122 8 -291v-993h-234z" />
    <glyph glyph-name="arrowright" unicode="&#x2192;" horiz-adv-x="2048" 
d="M175 795h993q155 0 291 -10q-109 90 -270 249l-151 149l165 165l670 -670l-670 -671l-165 165l151 150q166 163 270 247q-122 -8 -291 -8h-993v234z" />
    <glyph glyph-name="arrowdown" unicode="&#x2193;" horiz-adv-x="2048" 
d="M1141 1571v-993q0 -169 -8 -291q93 114 247 270l150 151l164 -165l-670 -670l-670 670l164 165l150 -151q154 -156 247 -270q-8 122 -8 291v993h234z" />
    <glyph glyph-name="uni2196" unicode="&#x2196;" horiz-adv-x="2048" 
d="M1500 11l-702 704q-11 11 -56 57t-76.5 79t-67.5 75q13 -137 15 -367l1 -212h-232v948h947v-233l-212 1q-230 2 -366 16q114 -100 211 -199l703 -704z" />
    <glyph glyph-name="uni2197" unicode="&#x2197;" horiz-adv-x="2048" 
d="M341 160l702 702q95 98 211 200q-136 -13 -365 -15l-212 -1v232h948v-947h-233l1 212q0 210 15 366q-80 -92 -199 -211l-703 -703z" />
    <glyph glyph-name="uni2198" unicode="&#x2198;" horiz-adv-x="2048" 
d="M507 1361l702 -704q120 -120 200 -211q-14 135 -16 367l-1 212h233v-948h-948v233l212 -1q230 -2 366 -16q-106 93 -211 200l-703 703z" />
    <glyph glyph-name="uni2199" unicode="&#x2199;" horiz-adv-x="2048" 
d="M1666 1178l-702 -703q-95 -98 -211 -200q165 16 366 16l211 1v-233h-948v948h233l-1 -211q0 -211 -15 -367q66 76 199 211l703 703z" />
    <glyph glyph-name="partialdiff" unicode="&#x2202;" horiz-adv-x="1219" 
d="M269 1300l142 190q154 -60 278 -146.5t207.5 -184t139.5 -209.5t81 -223.5t25 -225.5q0 -227 -151.5 -377t-386.5 -150q-228 0 -379 141t-151 352q0 141 63 255.5t173 179t244 64.5q142 0 249 -87q-134 246 -534 421zM610 730q-114 0 -188.5 -72t-74.5 -187
q0 -113 74.5 -185.5t188.5 -72.5t188.5 72.5t74.5 185.5q0 115 -74.5 187t-188.5 72z" />
    <glyph glyph-name="uni2300" unicode="&#x2205;" horiz-adv-x="1436" 
d="M1112 1087l162 -160l-118 -117q81 -129 81 -278q0 -141 -69.5 -260t-189 -188.5t-260.5 -69.5q-149 0 -277 80l-117 -117l-161 161l117 117q-81 127 -81 277q0 141 69.5 260.5t189 189.5t260.5 70q148 0 277 -81zM427 532q0 -61 28 -124l387 387q-59 28 -124 28
q-121 0 -206 -85.5t-85 -205.5zM718 243q120 0 205.5 84.5t85.5 204.5q0 61 -28 122l-384 -385q57 -26 121 -26z" />
    <glyph glyph-name="uni2300" unicode="&#x2300;" horiz-adv-x="1436" 
d="M1112 1087l162 -160l-118 -117q81 -129 81 -278q0 -141 -69.5 -260t-189 -188.5t-260.5 -69.5q-149 0 -277 80l-117 -117l-161 161l117 117q-81 127 -81 277q0 141 69.5 260.5t189 189.5t260.5 70q148 0 277 -81zM427 532q0 -61 28 -124l387 387q-59 28 -124 28
q-121 0 -206 -85.5t-85 -205.5zM718 243q120 0 205.5 84.5t85.5 204.5q0 61 -28 122l-384 -385q57 -26 121 -26z" />
    <glyph glyph-name="Delta" unicode="&#x2206;" horiz-adv-x="1420" 
d="M884 1434l471 -1211v-223h-1289v223l471 1211h347zM710 1152l-332 -885h663z" />
    <glyph glyph-name="product" unicode="&#x220f;" horiz-adv-x="1509" 
d="M1347 1434v-1705h-286v1437h-612v-1437h-286v1705h1184z" />
    <glyph glyph-name="summation" unicode="&#x2211;" horiz-adv-x="1303" 
d="M1203 1434v-268h-689l454 -493v-166l-461 -511h699v-267h-1109v223l574 633l-570 625v224h1102z" />
    <glyph glyph-name="minus" unicode="&#x2212;" 
d="M1085 659v-228h-942v228h942z" />
    <glyph glyph-name="uni2219" unicode="&#x2219;" 
d="M614 869q134 0 229.5 -94.5t95.5 -229.5t-95.5 -230t-229.5 -95q-135 0 -229.5 95t-94.5 230t94.5 229.5t229.5 94.5z" />
    <glyph glyph-name="radical" unicode="&#x221a;" horiz-adv-x="1339" 
d="M1318 1475l-566 -1746h-349l-385 1024h310l250 -697l442 1419h298z" />
    <glyph glyph-name="infinity" unicode="&#x221e;" horiz-adv-x="1761" 
d="M42 537q0 192 123.5 311.5t298.5 119.5q60 0 114.5 -18t107.5 -58t94.5 -80t100.5 -106q61 67 101.5 106.5t93.5 79.5t107 58t115 18q175 0 298 -119.5t123 -311.5q0 -129 -58.5 -229t-154 -152t-208.5 -52q-61 0 -115 18t-107 58.5t-93.5 80t-101.5 106.5
q-47 -52 -80 -86t-76.5 -71t-81.5 -58t-84 -34.5t-95 -13.5q-175 0 -298.5 120t-123.5 313zM285 537q0 -96 50.5 -150t128.5 -54q51 0 101 41t160 162v1q-110 120 -160 161t-101 41q-78 0 -128.5 -53.5t-50.5 -148.5zM1478 537q0 95 -51 148.5t-129 53.5q-51 0 -101 -41
t-161 -161h1l-1 -1q112 -121 161.5 -162t100.5 -41q77 0 128.5 54t51.5 150z" />
    <glyph glyph-name="integral" unicode="&#x222b;" horiz-adv-x="671" 
d="M686 1443l-61 -239q-26 6 -54 6q-116 0 -116 -139v-983q0 -177 -93 -281t-263 -104q-81 0 -142 16l60 239q25 -6 54 -6q116 0 116 139v983q0 177 93 281t263 104q80 0 143 -16z" />
    <glyph glyph-name="congruent" unicode="&#x2245;" 
d="M1085 442v-228h-942v228h942zM1085 877v-229h-942v229h942zM980 1353l129 -163q-123 -147 -304 -147q-64 0 -123 14.5t-96 31.5t-83.5 31.5t-88.5 14.5q-72 0 -164 -89l-129 162q121 147 303 147q64 0 123.5 -14t96.5 -31.5t83.5 -31.5t88.5 -14q72 0 164 89z" />
    <glyph glyph-name="approxequal" unicode="&#x2248;" 
d="M980 911l129 -162q-123 -147 -304 -147q-81 0 -152 23t-129.5 45.5t-109.5 22.5q-72 0 -164 -89l-129 163q120 146 303 146q64 0 123.5 -14t96.5 -31.5t83.5 -31.5t88.5 -14q72 0 164 89zM980 481l129 -163q-122 -146 -304 -146q-64 0 -123 14t-96 31.5t-83.5 31.5
t-88.5 14q-72 0 -164 -89l-129 163q120 146 303 146q64 0 123.5 -14t96.5 -31.5t83.5 -31.5t88.5 -14q72 0 164 89z" />
    <glyph glyph-name="uni2259" unicode="&#x2259;" 
d="M1085 442v-228h-942v228h942zM1085 877v-229h-942v229h942zM999 1043h-259l-126 157l-125 -157h-259l224 323h322z" />
    <glyph glyph-name="notequal" unicode="&#x2260;" 
d="M1085 442v-228h-503l-99 -214h-238l98 214h-200v228h306l95 206h-401v229h506l100 214h238l-99 -214h197v-229h-303l-95 -206h398z" />
    <glyph glyph-name="lessequal" unicode="&#x2264;" 
d="M1034 1195v-264l-558 -200l558 -199v-264l-838 338v250zM196 0v228h838v-228h-838z" />
    <glyph glyph-name="greaterequal" unicode="&#x2265;" 
d="M196 931v264l838 -339v-250l-838 -338v264l558 199zM1034 228v-228h-838v228h838z" />
    <glyph glyph-name="dotmath" unicode="&#x22c5;" 
d="M615 743q79 0 138.5 -59t59.5 -138q0 -81 -59.5 -140.5t-138.5 -59.5q-80 0 -139.5 59.5t-59.5 140.5q0 79 59.5 138t139.5 59z" />
    <glyph glyph-name="uni2460" unicode="&#x2460;" horiz-adv-x="2099" 
d="M1050 1642q192 0 366 -73t299.5 -197t200 -295t74.5 -359t-74.5 -359.5t-200 -296t-300 -198t-365.5 -73.5t-365.5 73.5t-300 198t-200 296t-74.5 359.5t74.5 359t200 295t299.5 197t366 73zM1050 1401q-140 0 -267.5 -54t-219.5 -145.5t-146.5 -218t-54.5 -265.5
q0 -140 54.5 -266.5t146.5 -218.5t219.5 -146t267.5 -54t267.5 54t219.5 146t146.5 218.5t54.5 266.5q0 139 -54.5 265.5t-146.5 218t-219.5 145.5t-267.5 54zM1192 1175v-884h-210v595l-213 -76v206z" />
    <glyph glyph-name="uni2461" unicode="&#x2461;" horiz-adv-x="2099" 
d="M1050 1642q192 0 366 -73t299.5 -197t200 -295t74.5 -359t-74.5 -359.5t-200 -296t-300 -198t-365.5 -73.5t-365.5 73.5t-300 198t-200 296t-74.5 359.5t74.5 359t200 295t299.5 197t366 73zM1050 1401q-140 0 -267.5 -54t-219.5 -145.5t-146.5 -218t-54.5 -265.5
q0 -140 54.5 -266.5t146.5 -218.5t219.5 -146t267.5 -54t267.5 54t219.5 146t146.5 218.5t54.5 266.5q0 139 -54.5 265.5t-146.5 218t-219.5 145.5t-267.5 54zM850 885l-130 137q128 155 329 155q142 0 227.5 -78t85.5 -206q0 -76 -35 -137t-108 -129l-153 -141h314v-195
h-614v166l310 288q67 64 67 126q0 46 -33 75t-84 29q-52 0 -92.5 -23.5t-83.5 -66.5z" />
    <glyph glyph-name="uni2462" unicode="&#x2462;" horiz-adv-x="2099" 
d="M1050 1642q192 0 366 -73t299.5 -197t200 -295t74.5 -359t-74.5 -359.5t-200 -296t-300 -198t-365.5 -73.5t-365.5 73.5t-300 198t-200 296t-74.5 359.5t74.5 359t200 295t299.5 197t366 73zM1050 1401q-140 0 -267.5 -54t-219.5 -145.5t-146.5 -218t-54.5 -265.5
q0 -140 54.5 -266.5t146.5 -218.5t219.5 -146t267.5 -54t267.5 54t219.5 146t146.5 218.5t54.5 266.5q0 139 -54.5 265.5t-146.5 218t-219.5 145.5t-267.5 54zM1040 1177q148 0 240 -69t92 -183q0 -139 -132 -197q72 -27 111.5 -77.5t39.5 -118.5q0 -83 -50 -143
t-126.5 -87.5t-168.5 -27.5q-208 0 -319 128l118 137q79 -79 190 -79q60 0 98.5 23t38.5 66q0 44 -43.5 68t-109.5 24h-103v177h104q60 0 98 23.5t38 64.5q0 40 -34 62t-91 22q-108 0 -182 -82l-119 138q117 131 310 131z" />
    <glyph glyph-name="uni2463" unicode="&#x2463;" horiz-adv-x="2099" 
d="M1050 1642q192 0 366 -73t299.5 -197t200 -295t74.5 -359t-74.5 -359.5t-200 -296t-300 -198t-365.5 -73.5t-365.5 73.5t-300 198t-200 296t-74.5 359.5t74.5 359t200 295t299.5 197t366 73zM1050 1401q-140 0 -267.5 -54t-219.5 -145.5t-146.5 -218t-54.5 -265.5
q0 -140 54.5 -266.5t146.5 -218.5t219.5 -146t267.5 -54t267.5 54t219.5 146t146.5 218.5t54.5 266.5q0 139 -54.5 265.5t-146.5 218t-219.5 145.5t-267.5 54zM1280 860v-232h112v-192h-112v-145h-210v145h-395v147l291 577h231l-272 -532h145v90l72 142h138z" />
    <glyph glyph-name="uni2464" unicode="&#x2464;" horiz-adv-x="2099" 
d="M1050 1642q192 0 366 -73t299.5 -197t200 -295t74.5 -359t-74.5 -359.5t-200 -296t-300 -198t-365.5 -73.5t-365.5 73.5t-300 198t-200 296t-74.5 359.5t74.5 359t200 295t299.5 197t366 73zM1050 1401q-140 0 -267.5 -54t-219.5 -145.5t-146.5 -218t-54.5 -265.5
q0 -140 54.5 -266.5t146.5 -218.5t219.5 -146t267.5 -54t267.5 54t219.5 146t146.5 218.5t54.5 266.5q0 139 -54.5 265.5t-146.5 218t-219.5 145.5t-267.5 54zM1339 1161v-193h-349l-4 -130h84q154 0 239 -70.5t85 -188.5q0 -137 -95.5 -221t-245.5 -84q-99 0 -183 32.5
t-142 87.5l103 156q37 -33 98.5 -58.5t122.5 -25.5q60 0 92 26.5t32 70.5q0 94 -158 94h-220l11 504h530z" />
    <glyph glyph-name="uni2465" unicode="&#x2465;" horiz-adv-x="2099" 
d="M1050 1642q192 0 366 -73t299.5 -197t200 -295t74.5 -359t-74.5 -359.5t-200 -296t-300 -198t-365.5 -73.5t-365.5 73.5t-300 198t-200 296t-74.5 359.5t74.5 359t200 295t299.5 197t366 73zM1050 1401q-140 0 -267.5 -54t-219.5 -145.5t-146.5 -218t-54.5 -265.5
q0 -140 54.5 -266.5t146.5 -218.5t219.5 -146t267.5 -54t267.5 54t219.5 146t146.5 218.5t54.5 266.5q0 139 -54.5 265.5t-146.5 218t-219.5 145.5t-267.5 54zM1272 1161l-215 -292h12q146 0 233 -82.5t87 -205.5q0 -132 -100 -219.5t-248 -87.5q-149 0 -248.5 85t-99.5 214
q0 113 90 246l235 342h254zM1041 694q-55 0 -91 -32.5t-36 -83.5t36 -83.5t91 -32.5q54 0 90.5 33t36.5 83q0 51 -36.5 83.5t-90.5 32.5z" />
    <glyph glyph-name="uni2466" unicode="&#x2466;" horiz-adv-x="2099" 
d="M1050 1642q192 0 366 -73t299.5 -197t200 -295t74.5 -359t-74.5 -359.5t-200 -296t-300 -198t-365.5 -73.5t-365.5 73.5t-300 198t-200 296t-74.5 359.5t74.5 359t200 295t299.5 197t366 73zM1050 1401q-140 0 -267.5 -54t-219.5 -145.5t-146.5 -218t-54.5 -265.5
q0 -140 54.5 -266.5t146.5 -218.5t219.5 -146t267.5 -54t267.5 54t219.5 146t146.5 218.5t54.5 266.5q0 139 -54.5 265.5t-146.5 218t-219.5 145.5t-267.5 54zM1402 1161v-166l-352 -704h-251l354 675h-401v195h650z" />
    <glyph glyph-name="uni2467" unicode="&#x2467;" horiz-adv-x="2099" 
d="M1050 1642q192 0 366 -73t299.5 -197t200 -295t74.5 -359t-74.5 -359.5t-200 -296t-300 -198t-365.5 -73.5t-365.5 73.5t-300 198t-200 296t-74.5 359.5t74.5 359t200 295t299.5 197t366 73zM1050 1401q-140 0 -267.5 -54t-219.5 -145.5t-146.5 -218t-54.5 -265.5
q0 -140 54.5 -266.5t146.5 -218.5t219.5 -146t267.5 -54t267.5 54t219.5 146t146.5 218.5t54.5 266.5q0 139 -54.5 265.5t-146.5 218t-219.5 145.5t-267.5 54zM1050 1177q143 0 239 -68.5t96 -183.5q0 -133 -136 -195q159 -63 159 -203q0 -115 -102.5 -184t-255.5 -69
q-152 0 -255 69t-103 184q0 142 159 203q-136 61 -136 195q0 115 96.5 183.5t238.5 68.5zM1050 650q-55 0 -91 -26t-36 -72q0 -44 36.5 -70t90.5 -26q55 0 92 26t37 70q0 46 -37 72t-92 26zM1050 994q-48 0 -80 -24t-32 -65q0 -42 32 -66t80 -24q49 0 81 24t32 66
q0 41 -32 65t-81 24z" />
    <glyph glyph-name="uni2468" unicode="&#x2468;" horiz-adv-x="2099" 
d="M1050 1642q192 0 366 -73t299.5 -197t200 -295t74.5 -359t-74.5 -359.5t-200 -296t-300 -198t-365.5 -73.5t-365.5 73.5t-300 198t-200 296t-74.5 359.5t74.5 359t200 295t299.5 197t366 73zM1050 1401q-140 0 -267.5 -54t-219.5 -145.5t-146.5 -218t-54.5 -265.5
q0 -140 54.5 -266.5t146.5 -218.5t219.5 -146t267.5 -54t267.5 54t219.5 146t146.5 218.5t54.5 266.5q0 139 -54.5 265.5t-146.5 218t-219.5 145.5t-267.5 54zM830 291l213 291h-10q-146 0 -232.5 82.5t-86.5 206.5q0 132 99 219t248 87t248.5 -85t99.5 -214
q0 -113 -90 -246l-236 -341h-253zM1061 758q55 0 91 32.5t36 82.5q0 51 -36 84t-91 33t-91 -33t-36 -84q0 -50 36 -82.5t91 -32.5z" />
    <glyph glyph-name="uni24EA" unicode="&#x24ea;" horiz-adv-x="2099" 
d="M1050 1642q192 0 366 -73t299.5 -197t200 -295t74.5 -359t-74.5 -359.5t-200 -296t-300 -198t-365.5 -73.5t-365.5 73.5t-300 198t-200 296t-74.5 359.5t74.5 359t200 295t299.5 197t366 73zM1050 1401q-140 0 -267.5 -54t-219.5 -145.5t-146.5 -218t-54.5 -265.5
q0 -140 54.5 -266.5t146.5 -218.5t219.5 -146t267.5 -54t267.5 54t219.5 146t146.5 218.5t54.5 266.5q0 139 -54.5 265.5t-146.5 218t-219.5 145.5t-267.5 54zM1050 1177q171 0 283.5 -122.5t112.5 -328.5q0 -207 -112.5 -329.5t-283.5 -122.5q-170 0 -283 122.5t-113 329.5
q0 206 113 328.5t283 122.5zM1050 975q-77 0 -127 -65.5t-50 -184.5q0 -118 50 -183.5t127 -65.5q78 0 127.5 65.5t49.5 183.5q0 119 -49.5 184.5t-127.5 65.5z" />
    <glyph glyph-name="uni24FF" unicode="&#x24ff;" horiz-adv-x="2099" 
d="M1050 1177q-170 0 -283 -122.5t-113 -328.5q0 -207 113 -329.5t283 -122.5q171 0 283.5 122.5t112.5 329.5q0 206 -112.5 328.5t-283.5 122.5zM1050 975q78 0 127.5 -65.5t49.5 -184.5q0 -118 -49.5 -183.5t-127.5 -65.5q-77 0 -127 65.5t-50 183.5q0 119 50 184.5
t127 65.5zM1050 1621q187 0 357.5 -71.5t293 -192.5t195 -288t72.5 -351t-72.5 -351.5t-195 -288.5t-293 -193t-357.5 -72t-357 72t-293 193t-195.5 288.5t-72.5 351.5t72.5 351t195.5 288t293 192.5t357 71.5z" />
    <glyph glyph-name="uni2715" unicode="&#x2573;" horiz-adv-x="2224" 
d="M1296 717l956 -956l-184 -184l-955 957l-956 -957l-185 184l956 956l-956 955l185 185l956 -956l955 956l184 -185z" />
    <glyph glyph-name="uni2715" unicode="&#x2715;" horiz-adv-x="2224" 
d="M1296 717l956 -956l-184 -184l-955 957l-956 -957l-185 184l956 956l-956 955l185 185l956 -956l955 956l184 -185z" />
    <glyph glyph-name="uni25AE" unicode="&#x258c;" horiz-adv-x="1843" 
d="M205 1434h717v-1434h-717v1434z" />
    <glyph glyph-name="uni25AE" unicode="&#x25ae;" horiz-adv-x="1843" 
d="M205 1434h717v-1434h-717v1434z" />
    <glyph glyph-name="filledbox" unicode="&#x25a0;" horiz-adv-x="1843" 
d="M205 1434h1433v-1434h-1433v1434z" />
    <glyph glyph-name="H22073" unicode="&#x25a1;" horiz-adv-x="1843" 
d="M205 1434h1433v-1434h-1433v1434zM449 1190v-946h946v946h-946z" />
    <glyph glyph-name="triagup" unicode="&#x25b2;" horiz-adv-x="1843" 
d="M922 1454l839 -1454h-1679z" />
    <glyph glyph-name="uni25B3" unicode="&#x25b3;" horiz-adv-x="1843" 
d="M922 1454l839 -1454h-1679zM922 968l-419 -724h837z" />
    <glyph glyph-name="uni25B4" unicode="&#x25b4;" 
d="M615 1071l455 -785h-910z" />
    <glyph glyph-name="uni25B8" unicode="&#x25b8;" 
d="M1071 678l-787 -457v913z" />
    <glyph glyph-name="triagdn" unicode="&#x25bc;" horiz-adv-x="1843" 
d="M922 -20l-840 1454h1679z" />
    <glyph glyph-name="uni25BD" unicode="&#x25bd;" horiz-adv-x="1843" 
d="M922 -20l-840 1454h1679zM922 466l418 724h-837z" />
    <glyph glyph-name="uni25BE" unicode="&#x25be;" 
d="M613 285l-454 785h910z" />
    <glyph glyph-name="uni25C2" unicode="&#x25c2;" 
d="M158 678l787 456v-913z" />
    <glyph glyph-name="uni25C6" unicode="&#x25c6;" horiz-adv-x="1843" 
d="M922 1473l755 -756l-755 -756l-756 756z" />
    <glyph glyph-name="uni25C7" unicode="&#x25c7;" horiz-adv-x="1843" 
d="M922 1473l755 -756l-755 -756l-756 756zM922 1128l-412 -411l412 -412l411 412z" />
    <glyph glyph-name="lozenge" unicode="&#x25ca;" horiz-adv-x="1574" 
d="M1493 717l-571 -717h-270l-570 717l571 717h270zM1156 716l-373 462l-362 -459l373 -464z" />
    <glyph glyph-name="circle" unicode="&#x25cb;" horiz-adv-x="1843" 
d="M922 -40q-154 0 -294.5 60t-241.5 161.5t-161 241.5t-60 294t60 294t161 241.5t241.5 161.5t294.5 60t294 -60t241 -161.5t161 -241.5t60 -294t-60 -294t-161 -241.5t-241 -161.5t-294 -60zM922 204q140 0 258 68.5t186.5 186.5t68.5 258t-68.5 258t-186.5 186.5
t-258 68.5t-258 -68.5t-186.5 -186.5t-68.5 -258t68.5 -258t186.5 -186.5t258 -68.5z" />
    <glyph glyph-name="H18533" unicode="&#x25cf;" horiz-adv-x="1843" 
d="M922 -40q-154 0 -294.5 60t-241.5 161.5t-161 241.5t-60 294t60 294t161 241.5t241.5 161.5t294.5 60t294 -60t241 -161.5t161 -241.5t60 -294t-60 -294t-161 -241.5t-241 -161.5t-294 -60z" />
    <glyph glyph-name="uni25D0" unicode="&#x25d0;" horiz-adv-x="1843" 
d="M922 -40q-154 0 -294.5 60t-241.5 161.5t-161 241.5t-60 294t60 294t161 241.5t241.5 161.5t294.5 60t294 -60t241 -161.5t161 -241.5t60 -294t-60 -294t-161 -241.5t-241 -161.5t-294 -60zM922 1230v-1026q140 0 258 68.5t186.5 186.5t68.5 258t-68.5 258t-186.5 186.5
t-258 68.5z" />
    <glyph glyph-name="uni25D6" unicode="&#x25d6;" horiz-adv-x="1843" 
d="M922 1474v-1514q-154 0 -294.5 60t-241.5 161.5t-161 241.5t-60 294t60 294t161 241.5t241.5 161.5t294.5 60z" />
    <glyph glyph-name="uni25E7" unicode="&#x25e7;" horiz-adv-x="1843" 
d="M205 1434h1433v-1434h-1433v1434zM922 1190v-946h473v946h-473z" />
    <glyph glyph-name="uni2610" unicode="&#x2610;" horiz-adv-x="2252" 
d="M259 1584h1735v-1735h-1735v1735zM459 1384v-1335h1335v1335h-1335z" />
    <glyph glyph-name="uni2611" unicode="&#x2611;" horiz-adv-x="2252" 
d="M259 1584h1735v-1735h-1735v1735zM459 1384v-1335h1335v1335h-1335zM1526 1220l156 -112l-669 -931l-426 480l141 129l266 -304z" />
    <glyph glyph-name="uni2612" unicode="&#x2612;" horiz-adv-x="2252" 
d="M1994 1584v-1735h-1735v1735h1735zM1794 1384h-1335v-1335h1335v1335zM641 369l349 348l-349 348l137 137l348 -349l349 349l137 -137l-349 -348l349 -348l-137 -138l-349 350l-348 -350z" />
    <glyph glyph-name="heart" unicode="&#x2665;" horiz-adv-x="1843" 
d="M1241 1285q140 0 233 -95.5t93 -237.5q0 -134 -91.5 -288t-232 -290.5t-321.5 -264.5q-181 128 -321.5 264t-232.5 290.5t-92 288.5q0 142 93 237.5t233 95.5q127 0 223.5 -75.5t96.5 -176.5q0 101 96 176.5t223 75.5z" />
    <glyph glyph-name="uni2713" unicode="&#x2713;" horiz-adv-x="2252" 
d="M1602 1354l188 -140l-839 -1130l-487 532l172 158l297 -323z" />
    <glyph glyph-name="uni2717" unicode="&#x2717;" horiz-adv-x="2252" 
d="M1291 717l429 -429l-165 -165l-429 429l-429 -429l-165 165l430 429l-430 429l165 165l429 -429l429 429l165 -165z" />
    <glyph glyph-name="uni278A" unicode="&#x2776;" horiz-adv-x="2099" 
d="M1192 1175l-423 -159v-206l213 76v-595h210v884zM1050 1621q187 0 357.5 -71.5t293 -192.5t195 -288t72.5 -351t-72.5 -351.5t-195 -288.5t-293 -193t-357.5 -72t-357 72t-293 193t-195.5 288.5t-72.5 351.5t72.5 351t195.5 288t293 192.5t357 71.5z" />
    <glyph glyph-name="uni278A" unicode="&#x278a;" horiz-adv-x="2099" 
d="M1192 1175l-423 -159v-206l213 76v-595h210v884zM1050 1621q187 0 357.5 -71.5t293 -192.5t195 -288t72.5 -351t-72.5 -351.5t-195 -288.5t-293 -193t-357.5 -72t-357 72t-293 193t-195.5 288.5t-72.5 351.5t72.5 351t195.5 288t293 192.5t357 71.5z" />
    <glyph glyph-name="uni278B" unicode="&#x2777;" horiz-adv-x="2099" 
d="M720 1022l130 -137q43 43 83.5 66.5t92.5 23.5q51 0 84 -29t33 -75q0 -62 -67 -126l-310 -288v-166h614v195h-314l153 141q73 68 108 129t35 137q0 128 -85.5 206t-227.5 78q-201 0 -329 -155zM1050 1621q187 0 357.5 -71.5t293 -192.5t195 -288t72.5 -351t-72.5 -351.5
t-195 -288.5t-293 -193t-357.5 -72t-357 72t-293 193t-195.5 288.5t-72.5 351.5t72.5 351t195.5 288t293 192.5t357 71.5z" />
    <glyph glyph-name="uni278B" unicode="&#x278b;" horiz-adv-x="2099" 
d="M720 1022l130 -137q43 43 83.5 66.5t92.5 23.5q51 0 84 -29t33 -75q0 -62 -67 -126l-310 -288v-166h614v195h-314l153 141q73 68 108 129t35 137q0 128 -85.5 206t-227.5 78q-201 0 -329 -155zM1050 1621q187 0 357.5 -71.5t293 -192.5t195 -288t72.5 -351t-72.5 -351.5
t-195 -288.5t-293 -193t-357.5 -72t-357 72t-293 193t-195.5 288.5t-72.5 351.5t72.5 351t195.5 288t293 192.5t357 71.5z" />
    <glyph glyph-name="uni278C" unicode="&#x2778;" horiz-adv-x="2099" 
d="M1050 1621q187 0 357.5 -71.5t293 -192.5t195 -288t72.5 -351t-72.5 -351.5t-195 -288.5t-293 -193t-357.5 -72t-357 72t-293 193t-195.5 288.5t-72.5 351.5t72.5 351t195.5 288t293 192.5t357 71.5zM1040 1177q-193 0 -310 -131l119 -138q74 82 182 82q57 0 91 -22
t34 -62q0 -41 -38 -64.5t-98 -23.5h-104v-177h103q66 0 109.5 -24t43.5 -68q0 -43 -38.5 -66t-98.5 -23q-111 0 -190 79l-118 -137q111 -128 319 -128q92 0 168.5 27.5t126.5 87.5t50 143q0 68 -39.5 118.5t-111.5 77.5q132 58 132 197q0 114 -92 183t-240 69z" />
    <glyph glyph-name="uni278C" unicode="&#x278c;" horiz-adv-x="2099" 
d="M1050 1621q187 0 357.5 -71.5t293 -192.5t195 -288t72.5 -351t-72.5 -351.5t-195 -288.5t-293 -193t-357.5 -72t-357 72t-293 193t-195.5 288.5t-72.5 351.5t72.5 351t195.5 288t293 192.5t357 71.5zM1040 1177q-193 0 -310 -131l119 -138q74 82 182 82q57 0 91 -22
t34 -62q0 -41 -38 -64.5t-98 -23.5h-104v-177h103q66 0 109.5 -24t43.5 -68q0 -43 -38.5 -66t-98.5 -23q-111 0 -190 79l-118 -137q111 -128 319 -128q92 0 168.5 27.5t126.5 87.5t50 143q0 68 -39.5 118.5t-111.5 77.5q132 58 132 197q0 114 -92 183t-240 69z" />
    <glyph glyph-name="uni278D" unicode="&#x2779;" horiz-adv-x="2099" 
d="M1050 1621q187 0 357.5 -71.5t293 -192.5t195 -288t72.5 -351t-72.5 -351.5t-195 -288.5t-293 -193t-357.5 -72t-357 72t-293 193t-195.5 288.5t-72.5 351.5t72.5 351t195.5 288t293 192.5t357 71.5zM1280 860h-138l-72 -142v-90h-145l272 532h-231l-291 -577v-147h395
v-145h210v145h112v192h-112v232z" />
    <glyph glyph-name="uni278D" unicode="&#x278d;" horiz-adv-x="2099" 
d="M1050 1621q187 0 357.5 -71.5t293 -192.5t195 -288t72.5 -351t-72.5 -351.5t-195 -288.5t-293 -193t-357.5 -72t-357 72t-293 193t-195.5 288.5t-72.5 351.5t72.5 351t195.5 288t293 192.5t357 71.5zM1280 860h-138l-72 -142v-90h-145l272 532h-231l-291 -577v-147h395
v-145h210v145h112v192h-112v232z" />
    <glyph glyph-name="uni278E" unicode="&#x277a;" horiz-adv-x="2099" 
d="M1339 1161h-530l-11 -504h220q158 0 158 -94q0 -44 -32 -70.5t-92 -26.5q-61 0 -122.5 25.5t-98.5 58.5l-103 -156q58 -55 142 -87.5t183 -32.5q150 0 245.5 84t95.5 221q0 118 -85 188.5t-239 70.5h-84l4 130h349v193zM1050 1621q187 0 357.5 -71.5t293 -192.5t195 -288
t72.5 -351t-72.5 -351.5t-195 -288.5t-293 -193t-357.5 -72t-357 72t-293 193t-195.5 288.5t-72.5 351.5t72.5 351t195.5 288t293 192.5t357 71.5z" />
    <glyph glyph-name="uni278E" unicode="&#x278e;" horiz-adv-x="2099" 
d="M1339 1161h-530l-11 -504h220q158 0 158 -94q0 -44 -32 -70.5t-92 -26.5q-61 0 -122.5 25.5t-98.5 58.5l-103 -156q58 -55 142 -87.5t183 -32.5q150 0 245.5 84t95.5 221q0 118 -85 188.5t-239 70.5h-84l4 130h349v193zM1050 1621q187 0 357.5 -71.5t293 -192.5t195 -288
t72.5 -351t-72.5 -351.5t-195 -288.5t-293 -193t-357.5 -72t-357 72t-293 193t-195.5 288.5t-72.5 351.5t72.5 351t195.5 288t293 192.5t357 71.5z" />
    <glyph glyph-name="uni278F" unicode="&#x277b;" horiz-adv-x="2099" 
d="M1050 1621q187 0 357.5 -71.5t293 -192.5t195 -288t72.5 -351t-72.5 -351.5t-195 -288.5t-293 -193t-357.5 -72t-357 72t-293 193t-195.5 288.5t-72.5 351.5t72.5 351t195.5 288t293 192.5t357 71.5zM1272 1161h-254l-235 -342q-90 -133 -90 -246q0 -129 99.5 -214
t248.5 -85q148 0 248 87.5t100 219.5q0 123 -87 205.5t-233 82.5h-12zM1041 694q54 0 90.5 -32.5t36.5 -83.5q0 -50 -36.5 -83t-90.5 -33q-55 0 -91 32.5t-36 83.5t36 83.5t91 32.5z" />
    <glyph glyph-name="uni278F" unicode="&#x278f;" horiz-adv-x="2099" 
d="M1050 1621q187 0 357.5 -71.5t293 -192.5t195 -288t72.5 -351t-72.5 -351.5t-195 -288.5t-293 -193t-357.5 -72t-357 72t-293 193t-195.5 288.5t-72.5 351.5t72.5 351t195.5 288t293 192.5t357 71.5zM1272 1161h-254l-235 -342q-90 -133 -90 -246q0 -129 99.5 -214
t248.5 -85q148 0 248 87.5t100 219.5q0 123 -87 205.5t-233 82.5h-12zM1041 694q54 0 90.5 -32.5t36.5 -83.5q0 -50 -36.5 -83t-90.5 -33q-55 0 -91 32.5t-36 83.5t36 83.5t91 32.5z" />
    <glyph glyph-name="uni2790" unicode="&#x277c;" horiz-adv-x="2099" 
d="M1402 1161h-650v-195h401l-354 -675h251l352 704v166zM1050 1621q187 0 357.5 -71.5t293 -192.5t195 -288t72.5 -351t-72.5 -351.5t-195 -288.5t-293 -193t-357.5 -72t-357 72t-293 193t-195.5 288.5t-72.5 351.5t72.5 351t195.5 288t293 192.5t357 71.5z" />
    <glyph glyph-name="uni2790" unicode="&#x2790;" horiz-adv-x="2099" 
d="M1402 1161h-650v-195h401l-354 -675h251l352 704v166zM1050 1621q187 0 357.5 -71.5t293 -192.5t195 -288t72.5 -351t-72.5 -351.5t-195 -288.5t-293 -193t-357.5 -72t-357 72t-293 193t-195.5 288.5t-72.5 351.5t72.5 351t195.5 288t293 192.5t357 71.5z" />
    <glyph glyph-name="uni2791" unicode="&#x277d;" horiz-adv-x="2099" 
d="M1050 1621q187 0 357.5 -71.5t293 -192.5t195 -288t72.5 -351t-72.5 -351.5t-195 -288.5t-293 -193t-357.5 -72t-357 72t-293 193t-195.5 288.5t-72.5 351.5t72.5 351t195.5 288t293 192.5t357 71.5zM1050 1177q-142 0 -238.5 -68.5t-96.5 -183.5q0 -134 136 -195
q-159 -61 -159 -203q0 -115 103 -184t255 -69q153 0 255.5 69t102.5 184q0 140 -159 203q136 62 136 195q0 115 -96 183.5t-239 68.5zM1050 650q55 0 92 -26t37 -72q0 -44 -37 -70t-92 -26q-54 0 -90.5 26t-36.5 70q0 46 36 72t91 26zM1050 994q49 0 81 -24t32 -65
q0 -42 -32 -66t-81 -24q-48 0 -80 24t-32 66q0 41 32 65t80 24z" />
    <glyph glyph-name="uni2791" unicode="&#x2791;" horiz-adv-x="2099" 
d="M1050 1621q187 0 357.5 -71.5t293 -192.5t195 -288t72.5 -351t-72.5 -351.5t-195 -288.5t-293 -193t-357.5 -72t-357 72t-293 193t-195.5 288.5t-72.5 351.5t72.5 351t195.5 288t293 192.5t357 71.5zM1050 1177q-142 0 -238.5 -68.5t-96.5 -183.5q0 -134 136 -195
q-159 -61 -159 -203q0 -115 103 -184t255 -69q153 0 255.5 69t102.5 184q0 140 -159 203q136 62 136 195q0 115 -96 183.5t-239 68.5zM1050 650q55 0 92 -26t37 -72q0 -44 -37 -70t-92 -26q-54 0 -90.5 26t-36.5 70q0 46 36 72t91 26zM1050 994q49 0 81 -24t32 -65
q0 -42 -32 -66t-81 -24q-48 0 -80 24t-32 66q0 41 32 65t80 24z" />
    <glyph glyph-name="uni2792" unicode="&#x277e;" horiz-adv-x="2099" 
d="M1050 1621q187 0 357.5 -71.5t293 -192.5t195 -288t72.5 -351t-72.5 -351.5t-195 -288.5t-293 -193t-357.5 -72t-357 72t-293 193t-195.5 288.5t-72.5 351.5t72.5 351t195.5 288t293 192.5t357 71.5zM830 291h253l236 341q90 133 90 246q0 129 -99.5 214t-248.5 85
t-248 -87t-99 -219q0 -124 86.5 -206.5t232.5 -82.5h10zM1061 758q-55 0 -91 32.5t-36 82.5q0 51 36 84t91 33t91 -33t36 -84q0 -50 -36 -82.5t-91 -32.5z" />
    <glyph glyph-name="uni2792" unicode="&#x2792;" horiz-adv-x="2099" 
d="M1050 1621q187 0 357.5 -71.5t293 -192.5t195 -288t72.5 -351t-72.5 -351.5t-195 -288.5t-293 -193t-357.5 -72t-357 72t-293 193t-195.5 288.5t-72.5 351.5t72.5 351t195.5 288t293 192.5t357 71.5zM830 291h253l236 341q90 133 90 246q0 129 -99.5 214t-248.5 85
t-248 -87t-99 -219q0 -124 86.5 -206.5t232.5 -82.5h10zM1061 758q-55 0 -91 32.5t-36 82.5q0 51 36 84t91 33t91 -33t36 -84q0 -50 -36 -82.5t-91 -32.5z" />
    <glyph glyph-name="uni2B51" unicode="&#x2b51;" horiz-adv-x="1843" 
d="M1114 924h621l-502 -365l192 -593l-502 367l-502 -367l191 593l-503 365h622l192 593z" />
    <glyph glyph-name="uni2B52" unicode="&#x2b52;" horiz-adv-x="1843" 
d="M1114 924h621l-502 -365l192 -593l-502 367l-502 -367l191 593l-503 365h622l192 593zM1011 781l-88 272l-88 -272h-287l231 -168l-88 -273l232 169l231 -169l-88 273l231 168h-286z" />
    <glyph glyph-name="uni2E17" unicode="&#x2e17;" horiz-adv-x="898" 
d="M751 969v-219l-604 -221v221zM751 608v-219l-604 -220v219z" />
    <glyph glyph-name="uni2E38" unicode="&#x2e38;" horiz-adv-x="815" 
d="M303 1475h209v-433h221v-203h-221v-223h-209v223h-221v203h221v433z" />
    <glyph glyph-name="uniEA00" unicode="&#xea00;" horiz-adv-x="1843" 
d="M1114 924h621l-502 -365l192 -593l-502 367l-502 -367l191 593l-503 365h622l192 593zM1011 781l-88 272v-544l231 -169l-88 273l231 168h-286z" />
    <glyph glyph-name="uniEA01" unicode="&#xea01;" horiz-adv-x="1843" 
d="M923 333l-502 -367l191 593l-503 365h622l192 593v-1184z" />
    <glyph glyph-name="uniFB00" unicode="&#xfb00;" horiz-adv-x="1715" 
d="M803 992v-237h-308v-755h-268v755h-185v237h185v123q0 177 93 281t263 104t305 -89l-107 -208q-87 48 -170 48q-116 0 -116 -139v-120h308zM1649 992v-237h-309v-755h-267v755h-185v237h185v123q0 177 92.5 281t262.5 104q171 0 306 -89l-107 -208q-87 48 -170 48
q-117 0 -117 -139v-120h309z" />
    <glyph glyph-name="fi" unicode="&#xfb01;" horiz-adv-x="1417" 
d="M803 992v-237h-308v-755h-268v755h-185v237h185v123q0 177 93 281t263 104t305 -89l-107 -208q-87 48 -170 48q-116 0 -116 -139v-120h308zM1277 992v-992h-267v992h267zM1142 1489q72 0 121.5 -50t49.5 -122t-49.5 -121t-121.5 -49t-121 49t-49 121t49 122t121 50z" />
    <glyph glyph-name="fl" unicode="&#xfb02;" horiz-adv-x="1417" 
d="M803 992v-237h-308v-755h-268v755h-185v237h185v123q0 177 93 281t263 104t305 -89l-107 -208q-87 48 -170 48q-116 0 -116 -139v-120h308zM1277 1475v-1475h-267v1475h267z" />
    <glyph glyph-name="uniFB03" unicode="&#xfb03;" horiz-adv-x="2263" 
d="M803 992v-237h-308v-755h-268v755h-185v237h185v123q0 177 93 281t263 104t305 -89l-107 -208q-87 48 -170 48q-116 0 -116 -139v-120h308zM1649 992v-237h-309v-755h-267v755h-185v237h185v123q0 177 92.5 281t262.5 104q171 0 306 -89l-107 -208q-87 48 -170 48
q-117 0 -117 -139v-120h309zM2123 992v-992h-268v992h268zM1988 1489q72 0 121.5 -50t49.5 -122t-49.5 -121t-121.5 -49t-121 49t-49 121t49 122t121 50z" />
    <glyph glyph-name="uniFB04" unicode="&#xfb04;" horiz-adv-x="2263" 
d="M803 992v-237h-308v-755h-268v755h-185v237h185v123q0 177 93 281t263 104t305 -89l-107 -208q-87 48 -170 48q-116 0 -116 -139v-120h308zM1649 992v-237h-309v-755h-267v755h-185v237h185v123q0 177 92.5 281t262.5 104q171 0 306 -89l-107 -208q-87 48 -170 48
q-117 0 -117 -139v-120h309zM2123 1475v-1475h-268v1475h268z" />
    <glyph glyph-name="uniFB05" unicode="&#xfb05;" horiz-adv-x="1485" 
d="M1392 992v-237h-361v-363q0 -88 41 -128.5t109 -40.5q80 0 186 65l97 -209q-153 -105 -328 -105q-183 0 -277 101.5t-94 295.5v384h-166v237h166v56q0 107 -49.5 158t-132.5 51t-133 -51t-50 -158v-1048h-267v1059q0 112 36.5 198.5t100 138.5t142.5 78t171 26t171 -26
t142 -78t99 -138.5t36 -199.5v-66h361z" />
    <glyph glyph-name="uniFB06" unicode="&#xfb06;" horiz-adv-x="1986" 
d="M942 924l-90 -208q-67 33 -152.5 56.5t-163.5 24.5q-74 0 -113.5 -24t-39.5 -66q0 -39 40.5 -56t121.5 -29l88 -14q335 -51 335 -297q0 -155 -121 -246t-335 -91q-275 0 -441 117l105 203q147 -97 338 -97q183 0 183 93q0 36 -39 57.5t-126 33.5l-80 11q-343 48 -343 301
q0 153 111 239t307 86q224 0 415 -94zM1891 992v-237h-359v-363q0 -88 40.5 -128.5t107.5 -40.5q81 0 187 65l98 -209q-155 -105 -329 -105q-183 0 -277 101.5t-94 295.5v384h-192v237h192v295h267v-295h359z" />
    <glyph glyph-name="uniFEFF" unicode="&#xfeff;" horiz-adv-x="0" 
 />
    <glyph glyph-name="uni030C.alt001" horiz-adv-x="1" 
d="M-536 1036h-210v439h263z" />
    <glyph glyph-name="uni0328.alt001" horiz-adv-x="1" 
d="M-496 -181l131 -157q-99 -91 -245 -91q-110 0 -182 54.5t-72 146.5q0 52 21.5 97t63.5 83t88 67t111 62l74 -78q-127 -79 -127 -165q0 -26 16.5 -40.5t43.5 -14.5q36 0 77 36z" />
    <glyph glyph-name="uni0328.alt002" horiz-adv-x="1" 
d="M-564 97l81 -72q-98 -43 -137.5 -85t-39.5 -86q0 -31 23 -51t62 -20q59 0 113 46l139 -152q-114 -106 -281 -106q-133 0 -217.5 62.5t-84.5 161.5q0 108 85.5 177t256.5 125z" />
    <glyph glyph-name="uni0328.alt003" horiz-adv-x="1" 
d="M-496 -181l131 -157q-99 -91 -245 -91q-110 0 -182 55.5t-72 149.5q0 41 18 78.5t46.5 67t73.5 59t89.5 52t104.5 48.5l73 -78q-174 -81 -174 -165q0 -26 16 -40.5t44 -14.5q36 0 77 36z" />
    <glyph glyph-name="uni0328.alt004" horiz-adv-x="1" 
d="M-462 -171l139 -152q-114 -106 -281 -106q-133 0 -217.5 62.5t-84.5 161.5q0 108 85.5 177t256.5 125l81 -72q-98 -43 -137.5 -85t-39.5 -86q0 -31 23 -51t62 -20q59 0 113 46z" />
    <glyph glyph-name="i.latn_TRK" horiz-adv-x="547" 
d="M408 992v-992h-268v992h268zM272 1489q72 0 121.5 -50t49.5 -122t-49.5 -121t-121.5 -49t-121 49t-49 121t49 122t121 50z" />
    <glyph glyph-name="j.latn_NLD" horiz-adv-x="551" 
d="M412 992v-1086q0 -160 -84.5 -248.5t-224.5 -88.5q-86 0 -150 27l40 234q34 -12 72 -12q79 0 79 103v1071h268zM353 1135h-255l206 322h320z" />
    <glyph glyph-name="Ldot.latn_CAT" horiz-adv-x="1239" 
d="M1206 267v-267h-1043v1434h286v-1167h757zM885 911q76 0 127.5 -52.5t51.5 -128.5q0 -75 -51.5 -126.5t-127.5 -51.5t-127 51.5t-51 126.5q0 76 51.5 128.5t126.5 52.5z" />
    <glyph glyph-name="ldot.latn_CAT" horiz-adv-x="754" 
d="M408 1475v-1475h-268v1475h268zM668 913q70 0 117.5 -48t47.5 -117q0 -70 -47.5 -117.5t-117.5 -47.5t-117 47.5t-47 117.5q0 69 47.5 117t116.5 48z" />
    <glyph glyph-name="zero.numr" horiz-adv-x="922" 
d="M461 1448q163 0 271 -118t108 -317q0 -200 -108 -318t-271 -118q-162 0 -270 118.5t-108 317.5t108 317t270 118zM461 1255q-74 0 -121 -63.5t-47 -178.5q0 -116 47 -180t121 -64t121.5 64t47.5 180q0 115 -47.5 178.5t-121.5 63.5z" />
    <glyph glyph-name="one.numr" horiz-adv-x="566" 
d="M433 1447v-855h-202v578l-189 -69v196z" />
    <glyph glyph-name="two.numr" horiz-adv-x="742" 
d="M176 1167l-122 132q120 149 314 149q136 0 217 -74t81 -197q0 -73 -31.5 -131.5t-103.5 -126.5l-147 -141h301v-186h-587v158l296 281q63 60 63 123q0 45 -31.5 73t-79.5 28q-51 0 -90 -23t-80 -65z" />
    <glyph glyph-name="three.numr" horiz-adv-x="747" 
d="M341 1448q141 0 229 -67t88 -176q0 -131 -123 -189q67 -27 104.5 -76.5t37.5 -114.5q0 -80 -48 -138t-121.5 -84t-161.5 -26q-198 0 -304 123l113 131q74 -76 181 -76q58 0 94.5 22.5t36.5 65.5q0 42 -42 65t-106 23h-96v171h99q56 0 92.5 23t36.5 63t-32 61t-86 21
q-104 0 -175 -79l-113 130q112 127 296 127z" />
    <glyph glyph-name="four.numr" horiz-adv-x="750" 
d="M611 1141v-227h107v-181h-107v-141h-201v141h-377v141l277 559h221l-261 -519h140v104l61 123h140z" />
    <glyph glyph-name="five.numr" horiz-adv-x="764" 
d="M638 1434v-185h-334l-3 -128h73q150 0 233 -68.5t83 -182.5q0 -133 -91.5 -213t-234.5 -80q-95 0 -175.5 31t-134.5 83l106 144q36 -30 91.5 -52.5t110.5 -22.5q58 0 88.5 26t30.5 69q0 92 -149 92h-212l11 487h507z" />
    <glyph glyph-name="six.numr" horiz-adv-x="772" 
d="M604 1434l-206 -283h13q141 0 224 -80t83 -200q0 -128 -95.5 -211t-238.5 -83t-238.5 81.5t-95.5 206.5q0 112 86 237l226 332h242zM384 984q-53 0 -88 -32.5t-35 -82.5q0 -51 34.5 -83t88.5 -32t88.5 32t34.5 83q0 50 -35 82.5t-88 32.5z" />
    <glyph glyph-name="seven.numr" horiz-adv-x="712" 
d="M671 1434v-158l-336 -684h-240l337 654h-382v188h621z" />
    <glyph glyph-name="eight.numr" horiz-adv-x="829" 
d="M414 1448q138 0 230 -65.5t92 -177.5q0 -129 -129 -188q151 -59 151 -196q0 -112 -98.5 -178t-245.5 -66q-146 0 -244.5 66t-98.5 178q0 137 149 196q-128 60 -128 188q0 111 92.5 177t229.5 66zM414 940q-53 0 -88 -25.5t-35 -69.5q0 -46 35 -72.5t88 -26.5
q54 0 89.5 26.5t35.5 72.5q0 44 -35.5 69.5t-89.5 25.5zM414 1276q-47 0 -77.5 -24t-30.5 -65t30.5 -64.5t77.5 -23.5t77.5 23.5t30.5 64.5q0 42 -30.5 65.5t-77.5 23.5z" />
    <glyph glyph-name="nine.numr" horiz-adv-x="772" 
d="M167 592l205 282h-12q-142 0 -224.5 79.5t-82.5 200.5q0 127 95.5 210.5t238.5 83.5t238.5 -81.5t95.5 -206.5q0 -113 -85 -237l-227 -331h-242zM387 1041q53 0 88 32.5t35 82.5q0 51 -34.5 83t-88.5 32t-88.5 -32t-34.5 -83q0 -50 35 -82.5t88 -32.5z" />
    <glyph glyph-name="zero.dnom" horiz-adv-x="922" 
d="M461 856q163 0 271 -118t108 -317q0 -200 -108 -318t-271 -118q-162 0 -270 118.5t-108 317.5t108 317t270 118zM461 664q-74 0 -121 -64t-47 -179q0 -116 47 -180t121 -64t121.5 64t47.5 180q0 115 -47.5 179t-121.5 64z" />
    <glyph glyph-name="one.dnom" horiz-adv-x="565" 
d="M433 855v-855h-202v579l-189 -70v197z" />
    <glyph glyph-name="two.dnom" horiz-adv-x="742" 
d="M176 575l-122 133q119 148 314 148q136 0 217 -74t81 -197q0 -73 -31.5 -131.5t-103.5 -126.5l-147 -141h301v-186h-587v158l296 281q63 60 63 123q0 45 -31.5 73.5t-79.5 28.5q-50 0 -89 -23t-81 -66z" />
    <glyph glyph-name="three.dnom" horiz-adv-x="747" 
d="M341 856q141 0 229 -67t88 -176q0 -131 -123 -189q67 -27 104.5 -76.5t37.5 -114.5q0 -80 -48 -138t-121.5 -84t-161.5 -26q-197 0 -304 124l113 131q75 -77 181 -77q58 0 94.5 22.5t36.5 65.5q0 42 -42 65t-106 23h-96v171h99q56 0 92.5 23t36.5 63t-32 61t-86 21
q-104 0 -175 -79l-113 130q112 127 296 127z" />
    <glyph glyph-name="four.dnom" horiz-adv-x="750" 
d="M611 549v-226h107v-182h-107v-141h-201v141h-377v142l277 558h221l-261 -518h140v103l61 123h140z" />
    <glyph glyph-name="five.dnom" horiz-adv-x="764" 
d="M638 842v-185h-334l-3 -128h73q151 0 233.5 -68t82.5 -182q0 -133 -91.5 -213.5t-234.5 -80.5q-95 0 -175.5 31t-134.5 83l106 144q36 -30 91.5 -52.5t110.5 -22.5q58 0 88.5 26t30.5 69q0 92 -149 92h-212l11 487h507z" />
    <glyph glyph-name="six.dnom" horiz-adv-x="771" 
d="M604 842l-206 -283h13q141 0 224 -79.5t83 -199.5q0 -128 -95.5 -211.5t-238.5 -83.5t-238.5 81.5t-95.5 206.5q0 112 86 237l226 332h242zM384 392q-53 0 -88 -32t-35 -82q0 -51 35 -83.5t88 -32.5t88 32.5t35 83.5q0 50 -35 82t-88 32z" />
    <glyph glyph-name="seven.dnom" horiz-adv-x="711" 
d="M671 842v-158l-336 -684h-240l337 654h-382v188h621z" />
    <glyph glyph-name="eight.dnom" horiz-adv-x="828" 
d="M414 856q138 0 230 -65.5t92 -177.5q0 -129 -129 -188q151 -59 151 -196q0 -112 -98.5 -178t-245.5 -66q-146 0 -244.5 66t-98.5 178q0 137 149 196q-128 60 -128 188q0 111 92.5 177t229.5 66zM414 348q-53 0 -88 -25.5t-35 -69.5q0 -46 34.5 -72t88.5 -26t89.5 26
t35.5 72q0 44 -35.5 69.5t-89.5 25.5zM414 684q-47 0 -77.5 -24t-30.5 -65t30.5 -64.5t77.5 -23.5t77.5 23.5t30.5 64.5q0 42 -30.5 65.5t-77.5 23.5z" />
    <glyph glyph-name="nine.dnom" horiz-adv-x="771" 
d="M167 0l205 283h-12q-142 0 -224.5 79t-82.5 200q0 127 95.5 210.5t238.5 83.5t238.5 -81.5t95.5 -206.5q0 -113 -85 -237l-227 -331h-242zM387 450q53 0 88 32t35 82q0 51 -34.5 83t-88.5 32t-88.5 -32t-34.5 -83q0 -50 35 -82t88 -32z" />
    <glyph glyph-name="space.frac" horiz-adv-x="101" 
 />
    <glyph glyph-name="b.ordn" horiz-adv-x="906" 
d="M504 1318q145 0 242.5 -107t97.5 -265q0 -159 -97.5 -266t-242.5 -107q-133 0 -209 95v-76h-194v1047h198v-411q76 90 205 90zM465 1133q-77 0 -126 -52.5t-49 -134.5t49 -134.5t126 -52.5q78 0 126.5 53.5t48.5 133.5t-48.5 133.5t-126.5 53.5z" />
    <glyph glyph-name="c.ordn" horiz-adv-x="790" 
d="M440 1318q184 0 288 -138l-147 -117q-61 70 -146 70q-72 0 -121 -51.5t-49 -135.5t48.5 -135.5t120.5 -51.5q87 0 149 70l145 -117q-107 -139 -288 -139q-168 0 -273 105.5t-105 267.5t105 267t273 105z" />
    <glyph glyph-name="d.ordn" horiz-adv-x="906" 
d="M402 1318q129 0 205 -91v412h198v-1047h-194v77q-79 -96 -210 -96q-145 0 -242 107t-97 266t97 265.5t243 106.5zM441 1133q-78 0 -126.5 -53.5t-48.5 -133.5t48.5 -133.5t126.5 -53.5q77 0 126 53t49 134t-49 134t-126 53z" />
    <glyph glyph-name="e.ordn" horiz-adv-x="830" 
d="M422 1318q154 0 249.5 -103t95.5 -269q0 -41 -3 -65h-497q14 -69 60.5 -104t114.5 -35q97 0 173 67l119 -126q-116 -110 -303 -110q-164 0 -266.5 102t-102.5 268t100 270.5t260 104.5zM420 1148q-62 0 -101 -35.5t-52 -98.5h301q-28 134 -148 134z" />
    <glyph glyph-name="h.ordn" horiz-adv-x="868" 
d="M300 1640v-414q67 92 200 92q120 0 196 -76.5t76 -198.5v-451h-200v388q0 73 -34 112.5t-97 39.5q-61 0 -101 -40t-40 -113v-387h-199v1048h199z" />
    <glyph glyph-name="l.ordn" horiz-adv-x="401" 
d="M300 1639v-1047h-199v1047h199z" />
    <glyph glyph-name="m.ordn" horiz-adv-x="1339" 
d="M966 1318q125 0 201 -76t76 -199v-451h-197v388q0 73 -35 112.5t-98 39.5q-61 0 -101 -40t-40 -113v-387h-200v388q0 73 -34 112.5t-97 39.5q-61 0 -101 -40t-40 -113v-387h-199v706h193v-81q67 101 206 101q75 0 135 -32t95 -89q73 121 236 121z" />
    <glyph glyph-name="r.ordn" horiz-adv-x="620" 
d="M492 1318q55 0 94 -14l-27 -197q-56 21 -115 21q-66 0 -105 -38.5t-39 -112.5v-385h-199v706h193v-75q62 95 198 95z" />
    <glyph glyph-name="s.ordn" horiz-adv-x="753" 
d="M679 1251l-64 -153q-120 56 -227 56q-102 0 -102 -59q0 -27 28 -38.5t86 -19.5l61 -9q236 -37 236 -212q0 -112 -86 -177t-239 -65q-200 0 -318 81l77 152q104 -69 243 -69q123 0 123 62q0 24 -27 38t-90 23l-53 7q-246 36 -246 216q0 110 80 172t221 62q153 0 297 -67z
" />
    <glyph glyph-name="t.ordn" horiz-adv-x="696" 
d="M622 1298v-175h-253v-246q0 -61 28.5 -89.5t75.5 -28.5q55 0 131 45l71 -155q-108 -76 -238 -76q-132 0 -199.5 73.5t-67.5 211.5v265h-135v175h135v210h199v-210h253z" />
    <glyph glyph-name="u.ordn" horiz-adv-x="874" 
d="M773 1298v-404q0 -81 -27 -144t-74 -101t-106.5 -57t-128.5 -19q-145 0 -240.5 81.5t-95.5 239.5v404h199v-387q0 -77 37.5 -114.5t99.5 -37.5q63 0 100.5 37.5t37.5 114.5v387h198z" />
    <glyph glyph-name="egrave.ordn" horiz-adv-x="830" 
d="M422 1318q154 0 249.5 -103t95.5 -269q0 -41 -3 -65h-497q14 -69 60.5 -104t114.5 -35q97 0 173 67l119 -126q-116 -110 -303 -110q-164 0 -266.5 102t-102.5 268t100 270.5t260 104.5zM362 1398l-194 232h234l149 -232h-189zM420 1148q-62 0 -101 -35.5t-52 -98.5h301
q-28 134 -148 134z" />
    <glyph glyph-name="zero.osf" horiz-adv-x="1376" 
d="M688 1121q122 0 230 -41t188 -114.5t126 -182t46 -236.5t-46 -236t-125.5 -181.5t-188 -114.5t-230.5 -41q-164 0 -297.5 69.5t-212.5 201.5t-79 302q0 171 79 303t212.5 201.5t297.5 69.5zM688 870q-137 0 -227 -88t-90 -234t90 -234.5t227 -88.5t228 88.5t91 234.5
q0 145 -91 233.5t-228 88.5z" />
    <glyph glyph-name="one.osf" horiz-adv-x="793" 
d="M636 1124v-1124h-270v764l-312 -96v263z" />
    <glyph glyph-name="two.osf" horiz-adv-x="1135" 
d="M233 719l-168 172q187 230 483 230q203 0 333.5 -106t130.5 -275q0 -71 -24 -133t-70 -113t-98.5 -91.5t-122.5 -80.5l-124 -72h494v-250h-947v215l406 254q111 69 157.5 126.5t46.5 114.5q0 70 -56.5 115t-148.5 45t-160.5 -40t-131.5 -111z" />
    <glyph glyph-name="three.osf" horiz-adv-x="1149" 
d="M537 1121q222 0 359.5 -113.5t137.5 -299.5q0 -110 -55 -193t-154 -131q113 -46 177 -131t64 -198q0 -103 -43.5 -185t-117 -132t-165 -76.5t-193.5 -26.5q-158 0 -286.5 54.5t-210.5 153.5l164 177q60 -66 146 -102.5t178 -36.5q109 0 176.5 48.5t67.5 140.5t-78 142.5
t-197 50.5h-164v243h164q108 0 177.5 47.5t69.5 136.5q0 86 -66 134.5t-167 48.5q-91 0 -163 -41t-120 -105l-175 170q72 102 192 163t282 61z" />
    <glyph glyph-name="four.osf" horiz-adv-x="1186" 
d="M925 578v-324h222v-254h-222v-340h-271v340h-614v201l453 893h289l-425 -840h297v324h271z" />
    <glyph glyph-name="five.osf" horiz-adv-x="1181" 
d="M1012 1094v-253h-582l-5 -293h169q122 0 218.5 -34t157 -93.5t92 -136.5t31.5 -166q0 -114 -41.5 -206.5t-112.5 -153t-165.5 -93t-201.5 -32.5q-318 0 -507 219l158 187q60 -67 155.5 -110t191.5 -43q116 0 177.5 60.5t61.5 149.5q0 205 -292 205h-341l13 793h823z" />
    <glyph glyph-name="six.osf" horiz-adv-x="1198" 
d="M923 1434l-355 -502q33 5 70 5q215 0 355.5 -136.5t140.5 -339.5q0 -210 -153.5 -348.5t-384.5 -138.5q-229 0 -383 137.5t-154 345.5q0 174 137 379l397 598h330zM596 697q-109 0 -181.5 -66.5t-72.5 -170.5q0 -105 72.5 -172.5t181.5 -67.5q110 0 182.5 67.5
t72.5 172.5q0 104 -72.5 170.5t-182.5 66.5z" />
    <glyph glyph-name="seven.osf" horiz-adv-x="1126" 
d="M1067 1094v-212l-597 -1222h-320l593 1180h-684v254h1008z" />
    <glyph glyph-name="eight.osf" horiz-adv-x="1248" 
d="M625 1459q140 0 254.5 -50t182.5 -145t68 -218q0 -115 -58 -195.5t-156 -127.5q112 -46 180 -129t68 -204q0 -123 -73 -219t-195 -146.5t-271 -50.5t-271.5 50.5t-196 146.5t-73.5 219q0 121 68 204t180 129q-97 47 -155 127.5t-58 195.5q0 123 68.5 218t183 145
t254.5 50zM625 609q-106 0 -177.5 -54t-71.5 -142t71.5 -141.5t177.5 -53.5q105 0 176 53.5t71 141.5t-71 142t-176 54zM625 1212q-93 0 -155.5 -51t-62.5 -134q0 -86 62.5 -138t155.5 -52t155 52t62 138q0 83 -62.5 134t-154.5 51z" />
    <glyph glyph-name="nine.osf" horiz-adv-x="1198" 
d="M275 -339l354 501q-27 -4 -70 -4q-214 0 -354 136.5t-140 339.5q0 210 153 348.5t383 138.5t384 -137.5t154 -345.5q0 -174 -137 -379l-397 -598h-330zM601 397q110 0 182 67t72 171q0 106 -72 172.5t-182 66.5t-182 -67t-72 -172q0 -104 72 -171t182 -67z" />
    <glyph glyph-name="zero.tf" 
d="M618 1459q116 0 215 -45t176 -133t121 -233t44 -331q0 -155 -29 -280.5t-79.5 -211t-121 -142.5t-152 -83t-174.5 -26q-119 0 -218.5 42.5t-178 129t-123 232.5t-44.5 339t44.5 339t123 232.5t178 128.5t218.5 42zM618 1194q-58 0 -106 -24.5t-88 -78t-62 -149
t-22 -225.5t22 -225.5t62 -149t88 -78t106 -24.5q56 0 103 24.5t85.5 78t60.5 149t22 225.5q0 240 -77 358.5t-194 118.5z" />
    <glyph glyph-name="one.tf" 
d="M202 262h340v822l-357 -127v276l632 223v-1194h325v-262h-940v262z" />
    <glyph glyph-name="two.tf" 
d="M276 1037l-178 175q191 247 490 247q223 0 354.5 -127.5t131.5 -335.5q0 -121 -52.5 -217t-154.5 -201l-306 -319h548v-259h-947v216l507 519q117 119 117 246q0 94 -60.5 154t-158.5 60q-93 0 -158.5 -41t-132.5 -117z" />
    <glyph glyph-name="three.tf" 
d="M571 1459q227 0 367.5 -113t140.5 -298q0 -112 -56 -195.5t-158 -130.5q116 -45 181 -130t65 -199q0 -103 -44 -184.5t-118.5 -131.5t-168 -76.5t-197.5 -26.5q-160 0 -289 54.5t-212 153.5l165 182q62 -65 147.5 -101.5t177.5 -36.5q110 0 180.5 48t70.5 139
q0 89 -79 138t-201 49h-167v246h168q109 0 180 47.5t71 134.5q0 84 -67 131.5t-171 47.5q-93 0 -167.5 -40.5t-122.5 -104.5l-174 175q75 102 195 162t283 60z" />
    <glyph glyph-name="four.tf" 
d="M971 902v-382h199v-258h-199v-262h-277v262h-636v201l503 970h307l-479 -913h305v382h277z" />
    <glyph glyph-name="five.tf" 
d="M1035 1434v-257h-580l-6 -287h164q122 0 219 -33.5t158 -92.5t93 -136.5t32 -168.5q0 -113 -41 -205.5t-112 -153t-166 -93.5t-204 -33q-158 0 -287.5 56t-220.5 158l156 194q60 -66 156.5 -109t193.5 -43q115 0 176.5 59t61.5 149q0 91 -67.5 146.5t-223.5 55.5h-341
l15 794h824z" />
    <glyph glyph-name="six.tf" 
d="M940 1434l-353 -499q38 4 66 4q216 0 356.5 -136.5t140.5 -339.5q0 -210 -154.5 -349.5t-385.5 -139.5q-230 0 -383.5 138t-153.5 346q0 176 136 381l397 595h334zM610 696q-107 0 -178.5 -66t-71.5 -169t71.5 -169.5t178.5 -66.5q109 0 180.5 66t71.5 170
q0 103 -71.5 169t-180.5 66z" />
    <glyph glyph-name="seven.tf" 
d="M1123 1434v-216l-594 -1218h-325l590 1176h-681v258h1010z" />
    <glyph glyph-name="eight.tf" 
d="M615 1459q146 0 264.5 -48t190 -143t71.5 -220q0 -224 -219 -325q116 -45 185 -127.5t69 -205.5q0 -127 -76.5 -223t-203 -144.5t-281.5 -48.5t-281.5 48.5t-202.5 144.5t-76 223q0 234 253 333q-100 46 -159 127t-59 198q0 125 71 220t189.5 143t264.5 48zM615 610
q-112 0 -187 -52t-75 -144q0 -91 75 -142t187 -51t187.5 51t75.5 142q0 92 -75.5 144t-187.5 52zM615 1209q-100 0 -165.5 -48.5t-65.5 -134.5q0 -89 65.5 -138.5t165.5 -49.5t166 49.5t66 138.5q0 86 -66 134.5t-166 48.5z" />
    <glyph glyph-name="nine.tf" 
d="M289 0l351 499q-25 -4 -65 -4q-216 0 -356 136.5t-140 339.5q0 210 153.5 349t384.5 139q151 0 274.5 -62.5t194 -173t70.5 -247.5q0 -178 -136 -381l-397 -595h-334zM617 737q108 0 179.5 66.5t71.5 169.5t-71.5 169t-179.5 66q-109 0 -179.5 -65.5t-70.5 -169.5
q0 -103 71 -169.5t179 -66.5z" />
    <glyph glyph-name="uni2007.tf" 
 />
    <glyph glyph-name="zero.tosf" 
d="M613 1121q115 0 216.5 -40.5t176.5 -114t118.5 -182t43.5 -237.5t-43.5 -238t-118.5 -182.5t-176.5 -114t-216.5 -40.5t-216 40.5t-176 114t-118.5 182.5t-43.5 238t43.5 237.5t118.5 182t176 114t216 40.5zM613 877q-122 0 -202.5 -89t-80.5 -241t80.5 -240.5
t202.5 -88.5q123 0 203.5 88.5t80.5 240.5t-80.5 241t-203.5 89z" />
    <glyph glyph-name="one.tosf" 
d="M198 254h329v527l-345 -100v267l616 176v-870l319 1v-255h-919v254z" />
    <glyph glyph-name="two.tosf" 
d="M285 719l-169 172q187 230 483 230q203 0 333.5 -106t130.5 -275q0 -71 -24 -133t-69.5 -113t-98 -91.5t-122.5 -80.5l-124 -72h493v-250h-947v215l407 254q111 69 157 126.5t46 114.5q0 70 -56 115t-148 45t-160.5 -40t-131.5 -111z" />
    <glyph glyph-name="three.tosf" 
d="M578 1121q222 0 359.5 -113.5t137.5 -299.5q0 -110 -55 -193t-154 -131q113 -46 177 -131t64 -198q0 -103 -43.5 -185t-117 -132t-165 -76.5t-193.5 -26.5q-158 0 -286.5 54.5t-210.5 153.5l164 177q60 -66 146 -102.5t178 -36.5q109 0 176.5 48.5t67.5 140.5t-78 142.5
t-197 50.5h-164v243h164q108 0 177.5 47.5t69.5 136.5q0 86 -66 134.5t-167 48.5q-91 0 -163 -41t-120 -105l-175 170q72 102 192 163t282 61z" />
    <glyph glyph-name="four.tosf" 
d="M959 578v-324h223v-254h-223v-340h-270v340h-614v201l452 893h290l-425 -840h297v324h270z" />
    <glyph glyph-name="five.tosf" 
d="M1034 1094v-253h-581l-6 -293h169q122 0 218.5 -34t157 -93.5t92 -136.5t31.5 -166q0 -151 -71.5 -262.5t-188 -167t-260.5 -55.5q-319 0 -508 219l159 187q60 -67 155.5 -110t191.5 -43q116 0 177 60.5t61 149.5q0 205 -291 205h-341l13 793h822z" />
    <glyph glyph-name="six.tosf" 
d="M943 1434l-354 -502q33 5 69 5q215 0 355.5 -136.5t140.5 -339.5q0 -210 -153.5 -348.5t-384.5 -138.5q-229 0 -382.5 137.5t-153.5 345.5q0 176 136 379l397 598h330zM616 697q-109 0 -181.5 -66.5t-72.5 -170.5q0 -105 72.5 -172.5t181.5 -67.5q110 0 182.5 67.5
t72.5 172.5q0 104 -72.5 170.5t-182.5 66.5z" />
    <glyph glyph-name="seven.tosf" 
d="M1133 1094v-212l-597 -1222h-321l594 1180h-684v254h1008z" />
    <glyph glyph-name="eight.tosf" 
d="M624 1459q140 0 254.5 -50t182.5 -145t68 -218q0 -115 -58 -195.5t-156 -127.5q112 -46 180 -129t68 -204q0 -123 -73 -219t-195 -146.5t-271 -50.5t-271.5 50.5t-196 146.5t-73.5 219q0 121 68 204t180 129q-97 47 -155 127.5t-58 195.5q0 123 68.5 218t183 145
t254.5 50zM624 609q-106 0 -177.5 -54t-71.5 -142t71.5 -141.5t177.5 -53.5q105 0 176 53.5t71 141.5t-71 142t-176 54zM624 1212q-93 0 -155.5 -51t-62.5 -134q0 -86 62.5 -138t155.5 -52t155 52t62 138q0 83 -62.5 134t-154.5 51z" />
    <glyph glyph-name="nine.tosf" 
d="M286 -339l353 501q-27 -4 -70 -4q-214 0 -354 136.5t-140 339.5q0 210 153 348.5t383 138.5t384 -137.5t154 -345.5q0 -176 -136 -379l-398 -598h-329zM611 397q110 0 182 67t72 171q0 106 -72 172.5t-182 66.5t-182 -67t-72 -172q0 -104 72 -171t182 -67z" />
    <glyph glyph-name="uni2007.tosf" 
 />
    <glyph glyph-name="exclam.sc" horiz-adv-x="567" 
d="M428 1097l-31 -681h-227l-31 681h289zM285 315q68 0 118.5 -51t50.5 -119t-50.5 -119.5t-118.5 -51.5q-69 0 -120 51.5t-51 119.5t51 119t120 51z" />
    <glyph glyph-name="numbersign.sc" horiz-adv-x="1238" 
d="M223 857h154l53 240h221l-53 -240h176l53 240h223l-54 -240h152l-43 -203h-153l-46 -205h152l-43 -205h-154l-53 -244h-222l53 244h-176l-53 -244h-223l54 244h-151l44 205h153l45 205h-153zM554 654l-46 -205h176l46 205h-176z" />
    <glyph glyph-name="dollar.sc" 
d="M527 1220h198v-143q173 -17 337 -105l-111 -199q-111 64 -226 82v-200h2q166 -28 259.5 -102t90.5 -196q-3 -145 -100.5 -228.5t-251.5 -106.5v-150h-198v146q-241 21 -388 127l123 196q127 -81 265 -101v202l-3 1q-170 29 -259 103.5t-86 206.5q2 129 97 215t251 108
v144zM817 331q1 29 -22 48t-70 32v-166q91 23 92 86zM437 767q0 -54 90 -78v161q-90 -23 -90 -83z" />
    <glyph glyph-name="percent.sc" horiz-adv-x="1648" 
d="M389 1118q137 0 228.5 -86t91.5 -216t-91.5 -216t-228.5 -86t-227.5 86t-90.5 216t90.5 216t227.5 86zM389 936q-53 0 -88 -34.5t-35 -85.5q0 -52 35 -86t88 -34t88 34t35 86t-35 86t-88 34zM1339 1097l-797 -1097h-239l798 1097h238zM1257 584q138 0 229.5 -86
t91.5 -216t-92 -216t-229 -86q-136 0 -227 86t-91 216q0 128 91 215t227 87zM1257 402q-53 0 -87 -34t-34 -86t34 -86t87 -34q54 0 89 34t35 86t-35 86t-89 34z" />
    <glyph glyph-name="ampersand.sc" 
d="M1208 0h-318l-114 103q-149 -123 -338 -123q-168 0 -263 79.5t-95 213.5q0 154 190 296q-70 71 -101.5 129.5t-31.5 131.5q0 127 95.5 206.5t250.5 79.5q154 0 248 -76.5t94 -203.5q0 -79 -55.5 -144t-155.5 -135l156 -146l168 212l175 -124l-184 -235l-1 -1zM458 188
q84 0 164 64l-193 179q-96 -75 -96 -138q0 -47 34.5 -76t90.5 -29zM376 824q0 -27 17.5 -51.5t70.5 -75.5q62 40 93.5 71.5t31.5 61.5q0 37 -28.5 60t-77.5 23q-51 0 -79 -23.5t-28 -65.5z" />
    </font>
</defs>
</svg>
