<?xml version="1.0" standalone="no"?>
<!DOCTYPE svg PUBLIC "-//W3C//DTD SVG 1.1//EN" "http://www.w3.org/Graphics/SVG/1.1/DTD/svg11.dtd" >
<svg xmlns="http://www.w3.org/2000/svg" xmlns:xlink="http://www.w3.org/1999/xlink" version="1.1">
<metadata>
Created by FontForge 20170731 at Fri Sep  3 12:30:46 2021
 By Aleksey,,,
2013 published by FontShop International GmbH
</metadata>
<defs>
<font id="MarkPro-Medium" horiz-adv-x="1" >
  <font-face 
    font-family="MarkPro-Medium"
    font-weight="500"
    font-stretch="normal"
    units-per-em="2048"
    panose-1="2 11 6 4 2 1 1 1 1 2"
    ascent="1618"
    descent="-430"
    x-height="981"
    cap-height="1434"
    bbox="-1393 -485 3230 2265"
    underline-thickness="139"
    underline-position="-404"
    unicode-range="U+000D-FEFF"
  />
<missing-glyph horiz-adv-x="1238" 
d="M168 0v1434h902v-1434h-902zM362 195h514v1044h-514v-1044z" />
    <glyph glyph-name=".notdef" horiz-adv-x="1238" 
d="M168 0v1434h902v-1434h-902zM362 195h514v1044h-514v-1044z" />
    <glyph glyph-name=".null" horiz-adv-x="0" 
 />
    <glyph glyph-name=".null" horiz-adv-x="0" 
 />
    <glyph glyph-name="nonmarkingreturn" horiz-adv-x="682" 
 />
    <glyph glyph-name="CR" unicode="&#xd;" horiz-adv-x="552" 
 />
    <glyph glyph-name="space" unicode=" " horiz-adv-x="552" 
 />
    <glyph glyph-name="exclam" unicode="!" horiz-adv-x="542" 
d="M402 1434l-34 -961h-195l-35 961h264zM271 333q72 0 125.5 -53t53.5 -125t-54 -126.5t-125 -54.5t-125 54.5t-54 126.5t53.5 125t125.5 53z" />
    <glyph glyph-name="quotedbl" unicode="&#x22;" horiz-adv-x="1138" 
d="M272 1475h215v-559h-215v559zM651 1475h215v-559h-215v559z" />
    <glyph glyph-name="numbersign" unicode="#" horiz-adv-x="1515" 
d="M265 1069h229l77 365h201l-78 -365h276l78 365h200l-78 -365h229l-41 -190h-229l-66 -317h226l-40 -190h-227l-79 -372h-201l79 372h-275l-79 -372h-201l79 372h-228l41 190h228l67 317h-229zM653 879l-66 -317h275l67 317h-276z" />
    <glyph glyph-name="dollar" unicode="$" horiz-adv-x="1433" 
d="M637 1609h199v-194q232 -19 430 -148l-113 -181q-154 98 -317 118v-393q93 -13 168.5 -39t139.5 -69t99 -111.5t33 -157.5q-3 -172 -125 -279.5t-314 -134.5v-205h-199v201q-134 11 -263.5 57.5t-219.5 121.5l119 177q63 -54 161 -93.5t202 -51.5v393l-19 3
q-88 13 -160 38.5t-132.5 69.5t-93.5 113.5t-32 160.5q2 168 123 275t314 132v197zM1052 423q1 62 -54 102.5t-162 64.5v-358q98 19 156.5 68t59.5 123zM426 1011q-1 -68 50.5 -108t160.5 -62v359q-97 -18 -153.5 -67.5t-57.5 -121.5z" />
    <glyph glyph-name="percent" unicode="%" horiz-adv-x="2030" 
d="M488 1459q171 0 285 -111t114 -276q0 -166 -114 -277t-285 -111q-170 0 -282.5 111t-112.5 277q0 165 113 276t282 111zM488 1270q-84 0 -138.5 -55.5t-54.5 -142.5q0 -88 54.5 -143.5t138.5 -55.5q86 0 141.5 55.5t55.5 143.5q0 87 -55.5 142.5t-141.5 55.5zM1579 1434
l-904 -1434h-224l904 1434h224zM1539 750q171 0 284.5 -111.5t113.5 -276.5q0 -167 -113.5 -277.5t-284.5 -110.5q-170 0 -282.5 111t-112.5 277q0 165 113 276.5t282 111.5zM1539 560q-84 0 -138.5 -55.5t-54.5 -142.5q0 -88 54.5 -143t138.5 -55q86 0 141.5 55t55.5 143
q0 87 -55.5 142.5t-141.5 55.5z" />
    <glyph glyph-name="ampersand" unicode="&#x26;" horiz-adv-x="1488" 
d="M1458 0h-309l-178 170q-180 -196 -433 -196q-202 0 -317.5 100t-115.5 278q0 118 68.5 214t186.5 186q-104 103 -148.5 182.5t-44.5 181.5q0 148 110 245.5t286 97.5t285 -93t109 -243q0 -58 -21 -111.5t-63 -101.5t-84 -85t-103 -82l265 -255l198 307l174 -109
l-181 -284l-39 -60zM551 176q83 0 146.5 32.5t124.5 102.5l-315 301q-82 -66 -126 -126t-44 -127q0 -82 59 -132.5t155 -50.5zM398 1103q0 -51 28 -93t115 -127q92 67 140 120t48 110q0 68 -44 105.5t-122 37.5t-121.5 -40.5t-43.5 -112.5z" />
    <glyph glyph-name="quotesingle" unicode="'" horiz-adv-x="759" 
d="M272 1475h215v-559h-215v559z" />
    <glyph glyph-name="parenleft" unicode="(" horiz-adv-x="870" 
d="M717 1476l76 -198q-197 -91 -309.5 -279.5t-112.5 -416.5t112.5 -417t309.5 -280l-76 -197q-263 109 -420 349t-157 545t157 545t420 349z" />
    <glyph glyph-name="parenright" unicode=")" horiz-adv-x="870" 
d="M154 -310l-76 197q197 91 309.5 280t112.5 417t-112.5 416.5t-309.5 279.5l76 198q263 -109 419.5 -349t156.5 -545t-156.5 -545t-419.5 -349z" />
    <glyph glyph-name="asterisk" unicode="*" horiz-adv-x="972" 
d="M147 1288l257 -84v271h164v-271l257 84l51 -156l-258 -83l160 -220l-133 -96l-159 218l-158 -218l-133 96l158 220l-256 83z" />
    <glyph glyph-name="plus" unicode="+" horiz-adv-x="1228" 
d="M714 85h-199v364h-361v194h361v364h199v-364h361v-194h-361v-364z" />
    <glyph glyph-name="comma" unicode="," horiz-adv-x="517" 
d="M159 278h251l-123 -559h-185z" />
    <glyph glyph-name="hyphen" unicode="-" horiz-adv-x="866" 
d="M730 643v-194h-594v194h594z" />
    <glyph glyph-name="period" unicode="." horiz-adv-x="541" 
d="M271 333q72 0 125.5 -53t53.5 -125t-54 -126.5t-125 -54.5t-125 54.5t-54 126.5t53.5 125t125.5 53z" />
    <glyph glyph-name="slash" unicode="/" horiz-adv-x="1031" 
d="M1075 1577l-869 -1782h-237l870 1782h236z" />
    <glyph glyph-name="zero" unicode="0" horiz-adv-x="1457" 
d="M728 1458q125 0 235 -51t192.5 -144.5t130 -234.5t47.5 -311q0 -169 -47.5 -310.5t-130 -235t-192.5 -145t-235 -51.5t-235 51.5t-192 145t-129.5 234.5t-47.5 311t47.5 311t129.5 234.5t192 144.5t235 51zM728 1245q-161 0 -266.5 -139t-105.5 -389t105.5 -389.5
t266.5 -139.5q162 0 267.5 139.5t105.5 389.5t-105.5 389t-267.5 139z" />
    <glyph glyph-name="one" unicode="1" horiz-adv-x="847" 
d="M649 1456v-1456h-222v1134l-365 -157v231z" />
    <glyph glyph-name="two" unicode="2" horiz-adv-x="1139" 
d="M240 1087l-159 132q25 34 49.5 61t67 62.5t88.5 59t112.5 40t140.5 16.5q219 0 347 -128t128 -333q0 -64 -16.5 -123.5t-47.5 -111t-59 -87.5t-68 -79l-359 -385h589v-211h-918v174l518 551q128 138 128 273q0 109 -67.5 178.5t-181.5 69.5q-99 0 -163.5 -40.5
t-128.5 -118.5z" />
    <glyph glyph-name="three" unicode="3" horiz-adv-x="1168" 
d="M543 1458q219 0 353 -112t134 -297q0 -112 -58 -195.5t-160 -130.5q116 -45 183.5 -131.5t67.5 -201.5q0 -101 -42.5 -182t-114 -131t-161 -76t-189.5 -26q-158 0 -286.5 53.5t-207.5 151.5l143 149q64 -69 156 -108t190 -39q124 0 201.5 56t77.5 162q0 104 -88 162.5
t-222 58.5h-173v203h172q122 0 201 55t79 158q0 99 -77.5 156.5t-193.5 57.5q-94 0 -168.5 -44t-120.5 -110l-160 136q65 102 184 163.5t280 61.5z" />
    <glyph glyph-name="four" unicode="4" horiz-adv-x="1179" 
d="M911 874v-385h219v-210h-219v-279h-222v279h-640v171l537 982h252l-522 -943h373v385h222z" />
    <glyph glyph-name="five" unicode="5" horiz-adv-x="1193" 
d="M1009 1434v-210h-599l-8 -346h189q122 0 218 -35.5t154.5 -96.5t88.5 -137t30 -162q0 -113 -40.5 -204t-110 -149t-159.5 -89t-192 -31q-313 0 -499 230l147 144q63 -75 158.5 -118.5t192.5 -43.5q131 0 201.5 71t70.5 171q0 50 -16 90.5t-52 75.5t-102.5 54.5
t-158.5 19.5h-329l13 766h803z" />
    <glyph glyph-name="six" unicode="6" horiz-adv-x="1196" 
d="M888 1434l-365 -521q58 15 111 15q130 0 240 -61.5t175.5 -171.5t65.5 -243q0 -204 -148.5 -340.5t-371.5 -136.5t-371.5 136.5t-148.5 340.5q0 169 129 361l412 621h272zM595 722q-125 0 -208 -75.5t-83 -194.5t83 -195t208 -76q126 0 208.5 76t82.5 195t-82.5 194.5
t-208.5 75.5z" />
    <glyph glyph-name="seven" unicode="7" horiz-adv-x="1122" 
d="M1060 1434v-174l-621 -1260h-259l613 1224h-718v210h985z" />
    <glyph glyph-name="eight" unicode="8" horiz-adv-x="1302" 
d="M651 1458q219 0 365.5 -111t146.5 -298q0 -118 -59.5 -199t-160.5 -127q115 -45 184.5 -128t69.5 -206q0 -126 -74 -221.5t-197 -144t-275 -48.5t-275 48.5t-197 144t-74 221.5q0 124 69.5 206.5t184.5 127.5q-101 46 -160.5 127t-59.5 199q0 187 146.5 298t365.5 111z
M651 624q-133 0 -221.5 -59t-88.5 -164q0 -104 88 -162t222 -58q133 0 221.5 58t88.5 162q0 105 -88.5 164t-221.5 59zM651 1251q-120 0 -198 -56.5t-78 -157.5q0 -104 78 -161.5t198 -57.5t199 57.5t79 161.5q0 101 -79 157.5t-199 56.5z" />
    <glyph glyph-name="nine" unicode="9" horiz-adv-x="1196" 
d="M308 0l365 520q-49 -14 -111 -14q-130 0 -240 61.5t-175.5 171.5t-65.5 243q0 204 148.5 340t371.5 136t371.5 -136t148.5 -340q0 -169 -129 -361l-412 -621h-272zM601 712q125 0 208 75.5t83 194.5t-83 194.5t-208 75.5q-126 0 -208.5 -75.5t-82.5 -194.5t82.5 -194.5
t208.5 -75.5z" />
    <glyph glyph-name="colon" unicode=":" horiz-adv-x="541" 
d="M271 1007q71 0 125 -53.5t54 -125.5t-54 -126t-125 -54t-125 54t-54 126t54 125.5t125 53.5zM271 333q72 0 125.5 -53t53.5 -125t-54 -126.5t-125 -54.5t-125 54.5t-54 126.5t53.5 125t125.5 53z" />
    <glyph glyph-name="semicolon" unicode=";" horiz-adv-x="517" 
d="M274 1007q71 0 125 -53.5t54 -125.5t-54 -126t-125 -54t-125 54t-54 126t54 125.5t125 53.5zM159 278h251l-123 -559h-185z" />
    <glyph glyph-name="less" unicode="&#x3c;" horiz-adv-x="1228" 
d="M1032 282v-230l-834 389v210l834 389v-229l-612 -264z" />
    <glyph glyph-name="equal" unicode="=" horiz-adv-x="1228" 
d="M1075 438v-194h-921v194h921zM1075 848v-195h-921v195h921z" />
    <glyph glyph-name="greater" unicode="&#x3e;" horiz-adv-x="1228" 
d="M198 811v229l834 -389v-210l-834 -389v230l612 264z" />
    <glyph glyph-name="question" unicode="?" horiz-adv-x="911" 
d="M391 473h-194v330h91q165 0 253 59t88 170q0 100 -87 154.5t-249 54.5q-65 0 -164 -9l-18 220q91 14 192 14q266 0 415.5 -114.5t149.5 -310.5q0 -184 -120.5 -296t-348.5 -141zM294 333q71 0 124.5 -53t53.5 -125t-53.5 -126.5t-124.5 -54.5t-125 54.5t-54 126.5
t53.5 125t125.5 53z" />
    <glyph glyph-name="at" unicode="@" horiz-adv-x="2019" 
d="M1399 904v-433q0 -110 23 -159.5t80 -49.5q72 0 115 70t43 221q0 177 -83.5 318.5t-232 221t-334.5 79.5q-187 0 -335 -83t-232 -233.5t-84 -343.5q0 -146 49 -270.5t135 -211t206.5 -135.5t260.5 -49q230 0 425 131l99 -138q-227 -165 -524 -165q-183 0 -341 63.5
t-268.5 174.5t-173.5 266t-63 334q0 177 63 331t173.5 264.5t268.5 174t341 63.5q182 0 340.5 -61.5t268.5 -168t173 -252.5t63 -310q0 -204 -96 -332t-266 -128q-181 0 -248 132q-95 -126 -268 -126t-285.5 117t-112.5 296q0 178 112.5 295.5t279.5 117.5q155 0 244 -107
v86h184zM996 752q-103 0 -165.5 -69t-62.5 -171t62.5 -171t165.5 -69q101 0 165 68t64 172t-64 172t-165 68z" />
    <glyph glyph-name="A" unicode="A" horiz-adv-x="1482" 
d="M886 1434l566 -1434h-249l-141 366h-649l-142 -366h-240l566 1434h289zM737 1203l-239 -618h479z" />
    <glyph glyph-name="B" unicode="B" horiz-adv-x="1436" 
d="M195 1434h556q119 0 213.5 -21.5t168.5 -66.5t114 -122t40 -181q0 -109 -62.5 -193.5t-158.5 -111.5q107 -32 180.5 -120.5t73.5 -207.5q0 -208 -141.5 -309t-395.5 -101h-588v1434zM773 614h-347v-397h347q151 0 227.5 42.5t76.5 158.5q0 59 -21 98.5t-63.5 60.5
t-94.5 29t-125 8zM741 1217h-315v-387h317q54 0 94 4t81 16t67 33t42.5 57t16.5 86q0 48 -16.5 83t-43 55.5t-67.5 32.5t-82 16t-94 4z" />
    <glyph glyph-name="C" unicode="C" horiz-adv-x="1568" 
d="M867 1460q191 0 350 -80.5t244 -219.5l-193 -129q-66 97 -170.5 152t-230.5 55q-221 0 -364.5 -145.5t-143.5 -375.5t143.5 -375.5t364.5 -145.5q126 0 229.5 53.5t170.5 151.5l188 -138q-92 -136 -247 -213t-341 -77q-217 0 -388.5 96.5t-266.5 266t-95 381.5
q0 159 55.5 296.5t154 236t238.5 154.5t302 56z" />
    <glyph glyph-name="D" unicode="D" horiz-adv-x="1625" 
d="M195 1434h569q337 0 540.5 -196.5t203.5 -520.5t-203.5 -520.5t-540.5 -196.5h-569v1434zM764 1214h-338v-995h338q245 0 373.5 136.5t128.5 361.5q0 227 -128.5 362t-373.5 135z" />
    <glyph glyph-name="E" unicode="E" horiz-adv-x="1395" 
d="M1240 217v-217h-1045v1434h1032v-217h-801v-387h773v-217h-773v-396h814z" />
    <glyph glyph-name="F" unicode="F" horiz-adv-x="1334" 
d="M1170 831v-219h-744v-612h-231v1434h1023v-220h-792v-383h744z" />
    <glyph glyph-name="G" unicode="G" horiz-adv-x="1678" 
d="M867 1460q169 0 312.5 -60.5t242.5 -170.5l-170 -165q-69 82 -168 128t-217 46q-221 0 -364.5 -145.5t-143.5 -375.5q0 -229 142 -375t356 -146q194 0 309 96t143 275h-380v215h631q2 -36 2 -55q0 -123 -30.5 -236t-90.5 -207t-144 -163.5t-197 -108t-243 -38.5
q-141 0 -272 50t-236 141.5t-168.5 235t-63.5 316.5q0 213 96 382.5t267.5 265t386.5 95.5z" />
    <glyph glyph-name="H" unicode="H" horiz-adv-x="1626" 
d="M426 1434v-603h774v603h232v-1434h-232v612h-774v-612h-231v1434h231z" />
    <glyph glyph-name="I" unicode="I" horiz-adv-x="620" 
d="M426 1434v-1434h-231v1434h231z" />
    <glyph glyph-name="J" unicode="J" horiz-adv-x="1176" 
d="M992 1434v-927q0 -251 -139 -392t-360 -141q-294 0 -460 221l154 158q109 -156 305 -156q128 0 198.5 84t70.5 248v905h231z" />
    <glyph glyph-name="K" unicode="K" horiz-adv-x="1458" 
d="M1135 0l-571 611h-138v-611h-231v1434h231v-604h141l539 604h299l-645 -700l689 -734h-314z" />
    <glyph glyph-name="L" unicode="L" horiz-adv-x="1258" 
d="M1220 219v-219h-1025v1434h231v-1215h794z" />
    <glyph glyph-name="M" unicode="M" horiz-adv-x="1933" 
d="M1739 1434v-1434h-232v1180l-418 -1040h-244l-419 1028v-1168h-231v1434h355l417 -1024l416 1024h356z" />
    <glyph glyph-name="N" unicode="N" horiz-adv-x="1630" 
d="M1436 1434v-1434h-209l-800 1037l-1 -1037h-231v1434h208l801 -1038v1038h232z" />
    <glyph glyph-name="O" unicode="O" horiz-adv-x="1734" 
d="M867 1460q217 0 388.5 -96t267 -265.5t95.5 -381.5q0 -159 -56 -296.5t-154 -236t-238.5 -155t-302.5 -56.5q-217 0 -388.5 96.5t-266.5 266t-95 381.5q0 159 55.5 296.5t154 236t238.5 154.5t302 56zM867 1238q-221 0 -364.5 -145.5t-143.5 -375.5t143.5 -375.5
t364.5 -145.5t364.5 145.5t143.5 375.5t-143.5 375.5t-364.5 145.5z" />
    <glyph glyph-name="P" unicode="P" horiz-adv-x="1355" 
d="M751 563h-325v-563h-231v1434h556q245 0 376 -116t131 -320t-131 -319.5t-376 -115.5zM744 1215h-318v-434h318q140 0 207 53.5t67 163.5t-67 163.5t-207 53.5z" />
    <glyph glyph-name="Q" unicode="Q" horiz-adv-x="1734" 
d="M867 1460q217 0 388.5 -96t267 -265.5t95.5 -381.5q0 -276 -162 -478l178 -239h-271l-70 92q-186 -119 -426 -119q-217 0 -388.5 96.5t-266.5 266t-95 381.5q0 159 55.5 296.5t154 236t238.5 154.5t302 56zM867 1238q-221 0 -364.5 -145.5t-143.5 -375.5t143.5 -375.5
t364.5 -145.5q162 0 287 82l-296 393h277l171 -231q69 122 69 277q0 230 -143.5 375.5t-364.5 145.5z" />
    <glyph glyph-name="R" unicode="R" horiz-adv-x="1404" 
d="M195 1434h589q247 0 377.5 -107t130.5 -308q0 -183 -129.5 -296t-348.5 -120l472 -603h-287l-456 603h-117v-603h-231v1434zM778 1217h-352v-404h352q274 0 274 206q0 198 -274 198z" />
    <glyph glyph-name="S" unicode="S" horiz-adv-x="1384" 
d="M1251 1304l-117 -188q-192 123 -403 123q-144 0 -233 -58t-89 -156q0 -84 73.5 -126.5t224.5 -64.5l99 -14q462 -64 462 -394q0 -141 -80 -245.5t-208.5 -155.5t-286.5 -51q-154 0 -311.5 50.5t-264.5 142.5l126 184q74 -68 200 -112.5t249 -44.5q144 0 239.5 57.5
t95.5 154.5q0 82 -78.5 126t-243.5 67l-112 15q-68 10 -126.5 27.5t-115 49t-96 74t-63.5 106t-24 140.5q0 140 77.5 243t204 153.5t283.5 50.5q287 0 518 -154z" />
    <glyph glyph-name="T" unicode="T" horiz-adv-x="1236" 
d="M1198 1434v-220h-464v-1214h-231v1214h-464v220h1159z" />
    <glyph glyph-name="U" unicode="U" horiz-adv-x="1566" 
d="M1392 1434v-869q0 -145 -47 -259.5t-130.5 -186t-193 -108.5t-238.5 -37t-238.5 37t-192.5 108.5t-130 186t-47 259.5v869h232v-851q0 -197 100.5 -291.5t275.5 -94.5t276 94.5t101 291.5v851h232z" />
    <glyph glyph-name="V" unicode="V" horiz-adv-x="1443" 
d="M1413 1434l-547 -1434h-288l-547 1434h247l446 -1200l450 1200h239z" />
    <glyph glyph-name="W" unicode="W" horiz-adv-x="2232" 
d="M2183 1434l-437 -1434h-287l-343 1119l-343 -1119h-287l-437 1434h243l341 -1167l354 1167h263l354 -1167l342 1167h237z" />
    <glyph glyph-name="X" unicode="X" horiz-adv-x="1388" 
d="M1323 1434l-490 -703l509 -731h-279l-371 552l-374 -552h-272l509 731l-488 703h279l350 -523l354 523h273z" />
    <glyph glyph-name="Y" unicode="Y" horiz-adv-x="1359" 
d="M1351 1434l-553 -852v-582h-232v586l-557 848h277l397 -642l398 642h270z" />
    <glyph glyph-name="Z" unicode="Z" horiz-adv-x="1323" 
d="M1206 1434v-180l-782 -1035h782v-219h-1089v179l782 1035h-780v220h1087z" />
    <glyph glyph-name="bracketleft" unicode="[" horiz-adv-x="793" 
d="M716 -71v-198h-521v1703h521v-199h-300v-1306h300z" />
    <glyph glyph-name="backslash" unicode="\" horiz-adv-x="1031" 
d="M825 -205l-869 1782h237l869 -1782h-237z" />
    <glyph glyph-name="bracketright" unicode="]" horiz-adv-x="793" 
d="M78 1235v199h521v-1703h-521v198h300v1306h-300z" />
    <glyph glyph-name="asciicircum" unicode="^" horiz-adv-x="1228" 
d="M373 650h-229l366 784h209l365 -784h-233l-240 555z" />
    <glyph glyph-name="underscore" unicode="_" horiz-adv-x="962" 
d="M968 -116v-194h-973v194h973z" />
    <glyph glyph-name="grave" unicode="`" horiz-adv-x="1024" 
d="M746 1137h-210l-257 307h272z" />
    <glyph glyph-name="a" unicode="a" horiz-adv-x="1277" 
d="M1110 981v-981h-214v118q-113 -144 -308 -144q-136 0 -248 66t-177.5 184.5t-65.5 265.5q0 223 142 370t349 147q195 0 308 -145v119h214zM613 805q-134 0 -215 -91t-81 -224t81 -223.5t215 -90.5q131 0 213.5 89t82.5 225t-82.5 225.5t-213.5 89.5z" />
    <glyph glyph-name="b" unicode="b" horiz-adv-x="1276" 
d="M689 1007q207 0 349 -147t142 -370q0 -147 -65.5 -265.5t-177.5 -184.5t-248 -66q-194 0 -307 143v-117h-214v1475h214v-611q113 143 307 143zM664 805q-131 0 -213.5 -89.5t-82.5 -225.5t82.5 -225t213.5 -89q134 0 214.5 90.5t80.5 223.5t-80.5 224t-214.5 91z" />
    <glyph glyph-name="c" unicode="c" horiz-adv-x="1051" 
d="M613 1007q111 0 207 -40.5t160 -116.5l-137 -147q-108 102 -236 102q-125 0 -207.5 -88.5t-82.5 -226.5t82.5 -226t207.5 -88q131 0 241 103l132 -148q-66 -77 -161 -117t-206 -40q-231 0 -373.5 146t-142.5 370q0 147 63 264t181.5 185t271.5 68z" />
    <glyph glyph-name="d" unicode="d" horiz-adv-x="1277" 
d="M588 1007q195 0 308 -145v613h214v-1475h-214v118q-113 -144 -308 -144q-136 0 -248 66t-177.5 184.5t-65.5 265.5q0 223 142 370t349 147zM613 805q-134 0 -215 -91t-81 -224t81 -223.5t215 -90.5q131 0 213.5 89t82.5 225t-82.5 225.5t-213.5 89.5z" />
    <glyph glyph-name="e" unicode="e" horiz-adv-x="1146" 
d="M586 1007q206 0 334.5 -143t129.5 -372q0 -30 -4 -80h-725q21 -126 100.5 -188t190.5 -62q74 0 148.5 27t135.5 76l106 -152q-164 -139 -403 -139q-222 0 -362 142t-140 374q0 230 136 373.5t353 143.5zM582 816q-111 0 -176.5 -65t-83.5 -177h508q-18 115 -82.5 178.5
t-165.5 63.5z" />
    <glyph glyph-name="f" unicode="f" horiz-adv-x="864" 
d="M798 981v-195h-336v-786h-215v786h-197v195h197v166q0 157 82 255t246 98q148 0 274 -74l-76 -180q-90 52 -183 52q-62 0 -95 -39t-33 -112v-166h336z" />
    <glyph glyph-name="g" unicode="g" horiz-adv-x="1261" 
d="M552 1007q212 0 327 -144v118h215v-912q0 -231 -140.5 -364.5t-386.5 -133.5q-113 0 -224 30t-186 84l77 181q163 -99 333 -99q150 0 231 77t81 215v79q-113 -143 -327 -143q-85 0 -166 35t-145.5 98.5t-104 160.5t-39.5 212t39.5 212t104 160.5t145.5 98.5t166 35z
M607 805q-132 0 -211 -87.5t-79 -216.5q0 -128 79 -216t211 -88q128 0 209 86.5t81 217.5t-81 217.5t-209 86.5z" />
    <glyph glyph-name="h" unicode="h" horiz-adv-x="1238" 
d="M383 1475v-611q100 143 299 143q175 0 286.5 -109.5t111.5 -281.5v-616h-215v546q0 123 -60 190t-168 67t-181 -69t-73 -190v-544h-215v1475h215z" />
    <glyph glyph-name="i" unicode="i" horiz-adv-x="550" 
d="M383 981v-981h-215v981h215zM274 1471q64 0 108 -43.5t44 -107.5t-44 -107t-108 -43t-106.5 43t-42.5 107t42.5 107.5t106.5 43.5z" />
    <glyph glyph-name="j" unicode="j" horiz-adv-x="557" 
d="M389 981v-1102q0 -148 -79 -228t-209 -80q-83 0 -148 30l50 186q39 -14 79 -14q41 0 66.5 28t25.5 88v1092h215zM280 1471q64 0 107.5 -43.5t43.5 -107.5t-43.5 -107t-107.5 -43t-107 43t-43 107t43 107.5t107 43.5z" />
    <glyph glyph-name="k" unicode="k" horiz-adv-x="1111" 
d="M383 1475v-867h107l324 373h269l-410 -462l414 -519h-271l-327 414h-106v-414h-215v1475h215z" />
    <glyph glyph-name="l" unicode="l" horiz-adv-x="550" 
d="M383 1475v-1475h-215v1475h215z" />
    <glyph glyph-name="m" unicode="m" horiz-adv-x="1935" 
d="M1379 1007q175 0 287 -109.5t112 -281.5v-616h-215v546q0 123 -60.5 190t-168.5 67t-181 -69t-73 -190v-544h-215v546q0 123 -60 190t-168 67t-181 -69t-73 -190v-544h-215v981h213v-120q99 146 301 146q111 0 199 -46.5t140 -129.5q30 50 73.5 86t92.5 55t95.5 27
t96.5 8z" />
    <glyph glyph-name="n" unicode="n" horiz-adv-x="1238" 
d="M682 1007q175 0 286.5 -109.5t111.5 -281.5v-616h-215v546q0 123 -60 190t-168 67t-181 -69t-73 -190v-544h-215v981h213v-120q99 146 301 146z" />
    <glyph glyph-name="o" unicode="o" horiz-adv-x="1250" 
d="M625 1007q227 0 377.5 -148t150.5 -369t-150.5 -368.5t-377.5 -147.5t-377.5 147.5t-150.5 368.5t150.5 369t377.5 148zM625 805q-132 0 -220 -88.5t-88 -226.5t88 -226t220 -88t220 88t88 226t-88 226.5t-220 88.5z" />
    <glyph glyph-name="p" unicode="p" horiz-adv-x="1276" 
d="M689 1007q207 0 349 -147t142 -370q0 -147 -65.5 -265.5t-177.5 -184.5t-248 -66q-194 0 -307 143v-527h-214v1391h214v-117q113 143 307 143zM664 805q-131 0 -213.5 -89.5t-82.5 -225.5t82.5 -225t213.5 -89q134 0 214.5 90.5t80.5 223.5t-80.5 224t-214.5 91z" />
    <glyph glyph-name="q" unicode="q" horiz-adv-x="1277" 
d="M588 1007q195 0 308 -145v119h214v-1391h-214v528q-113 -144 -308 -144q-136 0 -248 66t-177.5 184.5t-65.5 265.5q0 223 142 370t349 147zM613 805q-134 0 -215 -91t-81 -224t81 -223.5t215 -90.5q131 0 213.5 89t82.5 225t-82.5 225.5t-213.5 89.5z" />
    <glyph glyph-name="r" unicode="r" horiz-adv-x="879" 
d="M665 1007q92 0 164 -28l-51 -212q-67 36 -163 36q-104 0 -168.5 -70t-64.5 -193v-540h-214v981h212v-111q96 137 285 137z" />
    <glyph glyph-name="s" unicode="s" horiz-adv-x="1035" 
d="M928 902l-92 -167q-51 32 -135.5 58t-168.5 26q-87 0 -136 -32t-49 -85q0 -47 41 -68t121 -33l101 -15q341 -49 341 -290q0 -144 -119 -232.5t-327 -88.5q-100 0 -212.5 27.5t-208.5 98.5l99 161q131 -100 324 -100q108 0 165.5 32t57.5 88q0 85 -170 108l-102 13
q-163 23 -248 96.5t-85 191.5q0 146 108.5 230.5t296.5 84.5q239 0 398 -104z" />
    <glyph glyph-name="t" unicode="t" horiz-adv-x="929" 
d="M837 981v-195h-376v-427q0 -94 42.5 -138.5t112.5 -44.5q93 0 198 67l85 -171q-146 -98 -301 -98q-170 0 -261 94.5t-91 286.5v431h-196v195h196v297h215v-297h376z" />
    <glyph glyph-name="u" unicode="u" horiz-adv-x="1224" 
d="M1067 981v-565q0 -113 -38.5 -200t-103.5 -138.5t-144.5 -77.5t-168.5 -26t-168.5 26t-144.5 77.5t-103 138.5t-38 200v565h215v-546q0 -134 65.5 -196.5t173.5 -62.5q109 0 174.5 62.5t65.5 196.5v546h215z" />
    <glyph glyph-name="v" unicode="v" horiz-adv-x="1087" 
d="M1064 981l-392 -981h-254l-394 981h233l290 -759l290 759h227z" />
    <glyph glyph-name="w" unicode="w" horiz-adv-x="1714" 
d="M979 981l245 -750l231 750h223l-324 -981h-256l-243 739l-243 -739h-252l-324 981h228l231 -745l241 745h243z" />
    <glyph glyph-name="x" unicode="x" horiz-adv-x="1076" 
d="M1035 981l-362 -478l369 -503h-263l-249 341l-245 -341h-251l369 501l-363 480h263l239 -328l240 328h253z" />
    <glyph glyph-name="y" unicode="y" horiz-adv-x="1124" 
d="M1112 981l-774 -1397h-238l352 618l-436 779h241l315 -563l305 563h235z" />
    <glyph glyph-name="z" unicode="z" horiz-adv-x="1065" 
d="M938 981v-156l-536 -630h546v-195h-830v156l545 630h-529v195h804z" />
    <glyph glyph-name="braceleft" unicode="{" horiz-adv-x="901" 
d="M823 1235h-49q-103 0 -162.5 -55.5t-55.5 -153.5l5 -111q5 -120 -48.5 -205t-162.5 -127q109 -42 162.5 -127.5t48.5 -205.5l-5 -111q-4 -98 55.5 -153.5t162.5 -55.5h49v-198h-49q-219 0 -333.5 115.5t-105.5 316.5l5 110q4 99 -55.5 154t-167.5 55v199q108 0 167.5 55
t55.5 154l-5 110q-9 201 105.5 317t333.5 116h49v-199z" />
    <glyph glyph-name="bar" unicode="|" horiz-adv-x="759" 
d="M487 1434v-1705h-215v1705h215z" />
    <glyph glyph-name="braceright" unicode="}" horiz-adv-x="901" 
d="M78 -70h49q103 0 162.5 55.5t55.5 153.5l-5 111q-5 120 48.5 205.5t162.5 127.5q-109 42 -162.5 127t-48.5 205l5 111q4 98 -55.5 153.5t-162.5 55.5h-49v199h49q219 0 333.5 -116t105.5 -317l-5 -110q-4 -99 55.5 -154t167.5 -55v-199q-108 0 -167.5 -55t-55.5 -154
l5 -110q9 -201 -105.5 -316.5t-333.5 -115.5h-49v198z" />
    <glyph glyph-name="asciitilde" unicode="~" horiz-adv-x="1228" 
d="M977 672l117 -136q-62 -65 -130 -95t-157 -30q-67 0 -125 12.5t-93 27t-83 27t-97 12.5q-68 0 -156 -76l-117 136q62 65 130 95t157 30q85 0 153 -20t126.5 -40t118.5 -20q67 0 156 77z" />
    <glyph glyph-name="uni00A0" unicode="&#xa0;" horiz-adv-x="552" 
 />
    <glyph glyph-name="exclamdown" unicode="&#xa1;" horiz-adv-x="542" 
d="M140 -453l35 961h195l34 -961h-264zM271 648q-71 0 -124.5 53t-53.5 125t53.5 126.5t124.5 54.5t125.5 -54.5t54.5 -126.5t-54 -125t-126 -53z" />
    <glyph glyph-name="cent" unicode="&#xa2;" horiz-adv-x="1433" 
d="M673 1434h198v-207q194 -22 312 -152l-126 -140q-90 76 -186 94v-626q103 21 192 97l120 -142q-120 -129 -312 -151v-207h-198v214q-192 37 -305.5 174.5t-113.5 328.5t113.5 328t305.5 174v215zM466 717q0 -107 56.5 -187t150.5 -113v600q-94 -33 -150.5 -113
t-56.5 -187z" />
    <glyph glyph-name="sterling" unicode="&#xa3;" horiz-adv-x="1433" 
d="M1256 211v-211h-1078v211h170v409h-170v194h170v82q0 138 40.5 246.5t111 176.5t162.5 103.5t199 35.5q241 0 385 -148l-149 -157q-89 93 -236 93q-133 0 -212.5 -90t-79.5 -276v-66h511v-194h-511v-409h687z" />
    <glyph glyph-name="currency" unicode="&#xa4;" horiz-adv-x="1433" 
d="M174 1134l125 126l151 -150q121 81 267 81q145 0 266 -81l150 150l125 -126l-149 -150q83 -121 83 -267q0 -144 -82 -268l150 -149l-126 -126l-150 150q-121 -82 -267 -82t-268 82l-149 -150l-125 126l149 149q-82 120 -82 268q0 147 82 267zM717 418q125 0 211.5 87
t86.5 212t-86.5 211.5t-211.5 86.5t-211.5 -86.5t-86.5 -211.5t86.5 -212t211.5 -87z" />
    <glyph glyph-name="yen" unicode="&#xa5;" horiz-adv-x="1433" 
d="M1219 464v-177h-383v-287h-223v287h-384v177h384v160h-384v177h294l-433 633h264l370 -566l360 566h261l-425 -633h299v-177h-383v-160h383z" />
    <glyph glyph-name="brokenbar" unicode="&#xa6;" horiz-adv-x="759" 
d="M487 1434v-711h-215v711h215zM487 439v-710h-215v710h215z" />
    <glyph glyph-name="section" unicode="&#xa7;" horiz-adv-x="1339" 
d="M1170 1329l-103 -175q-176 103 -358 103q-130 0 -211 -46.5t-82 -123.5q0 -69 68 -102.5t215 -52.5l87 -11q87 -12 157.5 -35t130 -61.5t92.5 -99t33 -139.5q0 -163 -150 -262q129 -86 129 -241q0 -125 -73.5 -215.5t-189.5 -133t-259 -42.5q-140 0 -280 41t-236 116
l114 175q71 -57 180.5 -94.5t221.5 -37.5q131 0 216 46t86 127q0 66 -74 101t-220 53l-99 12q-82 10 -149 33.5t-123 62.5t-87 101t-31 142q0 159 147 256q-125 89 -125 247q0 118 69 206.5t184 133.5t258 45q254 0 462 -129zM588 734q-10 1 -74 14q-57 -24 -88.5 -66.5
t-31.5 -97.5q0 -68 69 -102t215 -53l87 -11q19 -2 92 -17q123 51 123 166q0 65 -74.5 101t-220.5 54z" />
    <glyph glyph-name="dieresis" unicode="&#xa8;" horiz-adv-x="1044" 
d="M316 1433q64 0 108 -44t44 -108q0 -63 -44 -106t-108 -43t-106.5 42.5t-42.5 106.5t43 108t106 44zM726 1433q64 0 108 -44t44 -108q0 -63 -44 -106t-108 -43t-106.5 42.5t-42.5 106.5t43 108t106 44z" />
    <glyph glyph-name="copyright" unicode="&#xa9;" horiz-adv-x="1957" 
d="M979 1559q171 0 326.5 -66t267.5 -177.5t178.5 -265t66.5 -322.5t-66.5 -323t-178.5 -265.5t-267.5 -177.5t-326.5 -66t-326.5 66t-267.5 177.5t-178.5 265.5t-66.5 323t66.5 322.5t178.5 265t267.5 177.5t326.5 66zM979 1369q-131 0 -250 -50.5t-205 -136.5t-137 -204.5
t-51 -249.5q0 -175 86 -323t234 -234t323 -86t323 86t234 234t86 323q0 131 -51 249.5t-137 204.5t-205 136.5t-250 50.5zM1357 986l-160 -107q-73 106 -200 106q-102 0 -169.5 -73t-67.5 -184q0 -120 68.5 -188.5t169.5 -68.5q125 0 202 107l151 -119q-127 -175 -352 -175
q-192 0 -316.5 125.5t-124.5 318.5t124.5 318.5t316.5 125.5q113 0 207.5 -49t150.5 -137z" />
    <glyph glyph-name="ordfeminine" unicode="&#xaa;" horiz-adv-x="809" 
d="M384 1313q150 0 234 -78t84 -223v-410h-173v72q-85 -90 -215 -90q-113 0 -178 62t-65 162q0 98 76.5 154.5t207.5 56.5h169q-12 137 -160 137q-99 0 -190 -66l-70 136q119 87 280 87zM355 729q98 0 172 85v82h-146q-65 0 -95 -24t-30 -60q0 -34 25 -58.5t74 -24.5z" />
    <glyph glyph-name="guillemotleft" unicode="&#xab;" horiz-adv-x="1087" 
d="M773 546l194 -388h-231l-193 388l193 388h231zM338 546l193 -388h-230l-193 388l193 388h230z" />
    <glyph glyph-name="logicalnot" unicode="&#xac;" horiz-adv-x="1228" 
d="M154 643h921v-512h-198v318h-723v194z" />
    <glyph glyph-name="uni00AD" unicode="&#xad;" horiz-adv-x="866" 
d="M730 643v-194h-594v194h594z" />
    <glyph glyph-name="registered" unicode="&#xae;" horiz-adv-x="1041" 
d="M522 1476q196 0 334 -135t138 -325q0 -124 -63 -230t-172 -168.5t-237 -62.5q-131 0 -240.5 62.5t-172 168t-62.5 230.5t62.5 230.5t172 167.5t240.5 62zM522 683q137 0 233.5 97.5t96.5 235.5t-96.5 235t-233.5 97q-140 0 -237 -97t-97 -235q0 -139 97 -236t237 -97z
M346 1220h203q82 0 126.5 -37t44.5 -101q0 -49 -31.5 -81.5t-90.5 -42.5l127 -146h-137l-114 142h-13v-142h-115v408zM547 1120h-86v-74h86q55 0 55 36q0 38 -55 38z" />
    <glyph glyph-name="macron" unicode="&#xaf;" horiz-adv-x="1024" 
d="M195 1193v174h634v-174h-634z" />
    <glyph glyph-name="degree" unicode="&#xb0;" horiz-adv-x="862" 
d="M431 702q-159 0 -271.5 110.5t-112.5 268.5q0 157 112.5 267.5t271.5 110.5t271.5 -110.5t112.5 -267.5q0 -158 -112.5 -268.5t-271.5 -110.5zM431 877q81 0 140.5 59.5t59.5 144.5q0 84 -60 144t-140 60q-82 0 -141 -60t-59 -144q0 -86 59 -145t141 -59z" />
    <glyph glyph-name="plusminus" unicode="&#xb1;" horiz-adv-x="1228" 
d="M714 290h-199v271h-361v195h361v333h199v-333h361v-195h-361v-271zM1075 195v-195h-921v195h921z" />
    <glyph glyph-name="twosuperior" unicode="&#xb2;" horiz-adv-x="738" 
d="M178 1193l-115 111q116 144 297 144q133 0 211.5 -73.5t78.5 -194.5q0 -71 -31 -128t-95 -120l-168 -165h315v-165h-568v138l297 292q67 67 67 133q0 51 -34 82.5t-88 31.5q-52 0 -90.5 -22.5t-76.5 -63.5z" />
    <glyph glyph-name="threesuperior" unicode="&#xb3;" horiz-adv-x="747" 
d="M341 1448q136 0 220.5 -66t84.5 -173q0 -130 -125 -188q67 -27 105.5 -76t38.5 -114q0 -117 -93 -180t-225 -63q-194 0 -298 121l103 116q76 -79 187 -79q62 0 101.5 25.5t39.5 74.5q0 47 -44.5 72t-112.5 25h-98v157h99q61 0 100 25t39 70t-36 69.5t-94 24.5
q-103 0 -172 -82l-107 114q101 127 287 127z" />
    <glyph glyph-name="acute" unicode="&#xb4;" horiz-adv-x="1024" 
d="M489 1137h-210l195 307h272z" />
    <glyph glyph-name="mu" unicode="&#xb5;" horiz-adv-x="1238" 
d="M371 -410h-213v1391h215v-546q0 -123 60 -190t168 -67t181 69t73 190v544h215v-981h-213v120q-99 -146 -301 -146q-101 0 -185 39v-423z" />
    <glyph glyph-name="paragraph" unicode="&#xb6;" horiz-adv-x="1297" 
d="M582 0v644q-215 4 -330.5 108t-115.5 286t115.5 286.5t330.5 108.5v1h170v-1434h-170zM855 0v1434h170v-1434h-170z" />
    <glyph glyph-name="periodcentered" unicode="&#xb7;" horiz-adv-x="670" 
d="M336 725q71 0 124.5 -53t53.5 -125t-53.5 -126t-124.5 -54t-125 54t-54 126t53.5 125t125.5 53z" />
    <glyph glyph-name="cedilla" unicode="&#xb8;" horiz-adv-x="1038" 
d="M684 7l-105 -336h-225l114 336h216z" />
    <glyph glyph-name="onesuperior" unicode="&#xb9;" horiz-adv-x="578" 
d="M423 1447v-845h-177v599l-197 -76v175z" />
    <glyph glyph-name="ordmasculine" unicode="&#xba;" horiz-adv-x="888" 
d="M444 1313q161 0 267.5 -104t106.5 -261q0 -156 -106.5 -260t-267.5 -104t-267 104t-106 260q0 157 106 261t267 104zM444 1148q-84 0 -138 -56t-54 -144q0 -87 54 -142.5t138 -55.5q83 0 138.5 55.5t55.5 142.5q0 88 -55.5 144t-138.5 56z" />
    <glyph glyph-name="guillemotright" unicode="&#xbb;" horiz-adv-x="1087" 
d="M314 546l-193 388h230l194 -388l-194 -388h-230zM750 546l-194 388h230l194 -388l-194 -388h-230z" />
    <glyph glyph-name="onequarter" unicode="&#xbc;" horiz-adv-x="1741" 
d="M1405 1434l-904 -1434h-214l904 1434h214zM1590 531v-223h113v-162h-113v-146h-177v146h-374v127l288 557h196l-275 -522h165v223h177zM423 1447v-845h-177v599l-197 -76v175z" />
    <glyph glyph-name="onehalf" unicode="&#xbd;" horiz-adv-x="1820" 
d="M1405 1434l-904 -1434h-214l904 1434h214zM1261 591l-115 110q116 145 297 145q133 0 211.5 -73.5t78.5 -194.5q0 -71 -31 -128t-95 -120l-168 -165h314v-165h-567v138l297 292q66 66 66 133q0 51 -34 82.5t-88 31.5q-52 0 -89.5 -22.5t-76.5 -63.5zM423 1447v-845h-177
v599l-197 -76v175z" />
    <glyph glyph-name="threequarters" unicode="&#xbe;" horiz-adv-x="1880" 
d="M1543 1434l-904 -1434h-214l904 1434h214zM1729 531v-223h112v-162h-112v-146h-178v146h-373v127l287 557h196l-275 -522h165v223h178zM341 1448q136 0 220.5 -66t84.5 -173q0 -130 -125 -188q67 -27 105.5 -76t38.5 -114q0 -117 -93 -180t-225 -63q-194 0 -298 121
l103 116q76 -79 187 -79q62 0 101.5 25.5t39.5 74.5q0 47 -44.5 72t-112.5 25h-98v157h99q61 0 100 25t39 70t-36 69.5t-94 24.5q-103 0 -172 -82l-107 114q101 127 287 127z" />
    <glyph glyph-name="questiondown" unicode="&#xbf;" horiz-adv-x="911" 
d="M520 508h195v-330h-91q-165 0 -253 -59t-88 -170q0 -100 87 -154.5t248 -54.5q65 0 164 9l19 -220q-91 -14 -193 -14q-266 0 -415.5 114.5t-149.5 310.5q0 184 120 295.5t348 140.5zM617 648q-71 0 -124.5 53t-53.5 125t53.5 126.5t124.5 54.5t125.5 -54.5t54.5 -126.5
t-54 -125t-126 -53z" />
    <glyph glyph-name="Agrave" unicode="&#xc0;" horiz-adv-x="1482" 
d="M886 1434l566 -1434h-249l-141 366h-649l-142 -366h-240l566 1434h289zM737 1203l-239 -618h479zM677 1562l-257 307h272l196 -307h-211z" />
    <glyph glyph-name="Aacute" unicode="&#xc1;" horiz-adv-x="1482" 
d="M886 1434l566 -1434h-249l-141 366h-649l-142 -366h-240l566 1434h289zM737 1203l-239 -618h479zM791 1562h-211l195 307h273z" />
    <glyph glyph-name="Acircumflex" unicode="&#xc2;" horiz-adv-x="1482" 
d="M886 1434l566 -1434h-249l-141 366h-649l-142 -366h-240l566 1434h289zM737 1203l-239 -618h479zM1104 1551h-228l-135 167l-134 -167h-228l216 308h293z" />
    <glyph glyph-name="Atilde" unicode="&#xc3;" horiz-adv-x="1482" 
d="M886 1434l566 -1434h-249l-141 366h-649l-142 -366h-240l566 1434h289zM737 1203l-239 -618h479zM470 1583l-111 136q53 59 111 87t135 28q60 0 113.5 -17.5t93 -35t65.5 -17.5q57 0 135 67l110 -136q-53 -60 -110.5 -87.5t-134.5 -27.5q-59 0 -112 17.5t-93 35t-67 17.5
q-57 0 -135 -67z" />
    <glyph glyph-name="Adieresis" unicode="&#xc4;" horiz-adv-x="1482" 
d="M886 1434l566 -1434h-249l-141 366h-649l-142 -366h-240l566 1434h289zM737 1203l-239 -618h479zM536 1858q64 0 107.5 -44t43.5 -108t-43.5 -107t-107.5 -43t-107 43t-43 107t43 108t107 44zM945 1858q64 0 108 -44t44 -108t-44 -107t-108 -43t-106.5 43t-42.5 107
t43 108t106 44z" />
    <glyph glyph-name="Aring" unicode="&#xc5;" horiz-adv-x="1482" 
d="M886 1434l566 -1434h-249l-141 366h-649l-142 -366h-240l566 1434h289zM737 1203l-239 -618h479zM741 1534q-105 0 -179.5 73.5t-74.5 177.5q0 103 75 176.5t179 73.5q105 0 180 -73.5t75 -176.5q0 -104 -75 -177.5t-180 -73.5zM741 1669q46 0 79.5 33.5t33.5 82.5
q0 47 -33.5 80t-79.5 33q-45 0 -78 -33t-33 -80q0 -49 32.5 -82.5t78.5 -33.5z" />
    <glyph glyph-name="AE" unicode="&#xc6;" horiz-adv-x="2372" 
d="M2217 217v-217h-1046v329h-620l-247 -329h-279l1082 1434h1097v-217h-801v-387h773v-217h-773v-396h814zM716 548h455v606z" />
    <glyph glyph-name="Ccedilla" unicode="&#xc7;" horiz-adv-x="1568" 
d="M867 1460q191 0 350 -80.5t244 -219.5l-193 -129q-66 97 -170.5 152t-230.5 55q-221 0 -364.5 -145.5t-143.5 -375.5t143.5 -375.5t364.5 -145.5q126 0 229.5 53.5t170.5 151.5l188 -138q-77 -115 -201 -188t-276 -94l-97 -310h-235l107 311q-284 37 -460 240t-176 495
q0 159 55.5 296.5t154 236t238.5 154.5t302 56z" />
    <glyph glyph-name="Egrave" unicode="&#xc8;" horiz-adv-x="1395" 
d="M1240 217v-217h-1045v1434h1032v-217h-801v-387h773v-217h-773v-396h814zM643 1562l-257 307h272l196 -307h-211z" />
    <glyph glyph-name="Eacute" unicode="&#xc9;" horiz-adv-x="1395" 
d="M1240 217v-217h-1045v1434h1032v-217h-801v-387h773v-217h-773v-396h814zM757 1562h-211l195 307h273z" />
    <glyph glyph-name="Ecircumflex" unicode="&#xca;" horiz-adv-x="1395" 
d="M1240 217v-217h-1045v1434h1032v-217h-801v-387h773v-217h-773v-396h814zM1070 1551h-228l-134 167l-135 -167h-228l216 308h293z" />
    <glyph glyph-name="Edieresis" unicode="&#xcb;" horiz-adv-x="1395" 
d="M1240 217v-217h-1045v1434h1032v-217h-801v-387h773v-217h-773v-396h814zM502 1858q64 0 107.5 -44t43.5 -108t-43.5 -107t-107.5 -43t-107 43t-43 107t43 108t107 44zM911 1858q64 0 108 -44t44 -108t-44 -107t-108 -43t-106.5 43t-42.5 107t43 108t106 44z" />
    <glyph glyph-name="Igrave" unicode="&#xcc;" horiz-adv-x="620" 
d="M426 1434v-1434h-231v1434h231zM246 1562l-257 307h272l196 -307h-211z" />
    <glyph glyph-name="Iacute" unicode="&#xcd;" horiz-adv-x="620" 
d="M426 1434v-1434h-231v1434h231zM359 1562h-211l196 307h272z" />
    <glyph glyph-name="Icircumflex" unicode="&#xce;" horiz-adv-x="620" 
d="M426 1434v-1434h-231v1434h231zM673 1551h-229l-134 167l-134 -167h-228l216 308h293z" />
    <glyph glyph-name="Idieresis" unicode="&#xcf;" horiz-adv-x="620" 
d="M426 1434v-1434h-231v1434h231zM104 1858q64 0 108 -44t44 -108t-44 -107t-108 -43t-106.5 43t-42.5 107t43 108t106 44zM514 1858q64 0 108 -44t44 -108t-44 -107t-108 -43t-106.5 43t-42.5 107t43 108t106 44z" />
    <glyph glyph-name="Eth" unicode="&#xd0;" horiz-adv-x="1741" 
d="M311 1434h570q337 0 540.5 -196.5t203.5 -520.5t-203.5 -520.5t-540.5 -196.5h-570v612h-194v219h194v603zM926 831v-219h-383v-393h338q245 0 373 136.5t128 361.5q0 227 -128 362t-373 135h-338v-383h383z" />
    <glyph glyph-name="Ntilde" unicode="&#xd1;" horiz-adv-x="1630" 
d="M1436 1434v-1434h-209l-800 1037l-1 -1037h-231v1434h208l801 -1038v1038h232zM544 1583l-111 136q53 59 111 87t135 28q60 0 113.5 -17.5t92.5 -35t65 -17.5q57 0 135 67l111 -136q-53 -59 -111 -87t-135 -28q-59 0 -111.5 17.5t-92.5 35t-67 17.5q-57 0 -135 -67z" />
    <glyph glyph-name="Ograve" unicode="&#xd2;" horiz-adv-x="1734" 
d="M867 1460q217 0 388.5 -96t267 -265.5t95.5 -381.5q0 -159 -56 -296.5t-154 -236t-238.5 -155t-302.5 -56.5q-217 0 -388.5 96.5t-266.5 266t-95 381.5q0 159 55.5 296.5t154 236t238.5 154.5t302 56zM867 1238q-221 0 -364.5 -145.5t-143.5 -375.5t143.5 -375.5
t364.5 -145.5t364.5 145.5t143.5 375.5t-143.5 375.5t-364.5 145.5zM803 1562l-257 307h272l196 -307h-211z" />
    <glyph glyph-name="Oacute" unicode="&#xd3;" horiz-adv-x="1734" 
d="M867 1460q217 0 388.5 -96t267 -265.5t95.5 -381.5q0 -159 -56 -296.5t-154 -236t-238.5 -155t-302.5 -56.5q-217 0 -388.5 96.5t-266.5 266t-95 381.5q0 159 55.5 296.5t154 236t238.5 154.5t302 56zM867 1238q-221 0 -364.5 -145.5t-143.5 -375.5t143.5 -375.5
t364.5 -145.5t364.5 145.5t143.5 375.5t-143.5 375.5t-364.5 145.5zM916 1562h-210l195 307h273z" />
    <glyph glyph-name="Ocircumflex" unicode="&#xd4;" horiz-adv-x="1734" 
d="M867 1460q217 0 388.5 -96t267 -265.5t95.5 -381.5q0 -159 -56 -296.5t-154 -236t-238.5 -155t-302.5 -56.5q-217 0 -388.5 96.5t-266.5 266t-95 381.5q0 159 55.5 296.5t154 236t238.5 154.5t302 56zM867 1238q-221 0 -364.5 -145.5t-143.5 -375.5t143.5 -375.5
t364.5 -145.5t364.5 145.5t143.5 375.5t-143.5 375.5t-364.5 145.5zM1230 1551h-229l-134 167l-134 -167h-228l216 308h293z" />
    <glyph glyph-name="Otilde" unicode="&#xd5;" horiz-adv-x="1734" 
d="M867 1460q217 0 388.5 -96t267 -265.5t95.5 -381.5q0 -159 -56 -296.5t-154 -236t-238.5 -155t-302.5 -56.5q-217 0 -388.5 96.5t-266.5 266t-95 381.5q0 159 55.5 296.5t154 236t238.5 154.5t302 56zM867 1238q-221 0 -364.5 -145.5t-143.5 -375.5t143.5 -375.5
t364.5 -145.5t364.5 145.5t143.5 375.5t-143.5 375.5t-364.5 145.5zM596 1583l-111 136q53 59 111 87t135 28q60 0 113.5 -17.5t92.5 -35t65 -17.5q58 0 136 67l110 -136q-53 -59 -111 -87t-135 -28q-59 0 -111.5 17.5t-92.5 35t-67 17.5q-57 0 -135 -67z" />
    <glyph glyph-name="Odieresis" unicode="&#xd6;" horiz-adv-x="1734" 
d="M867 1460q217 0 388.5 -96t267 -265.5t95.5 -381.5q0 -159 -56 -296.5t-154 -236t-238.5 -155t-302.5 -56.5q-217 0 -388.5 96.5t-266.5 266t-95 381.5q0 159 55.5 296.5t154 236t238.5 154.5t302 56zM867 1238q-221 0 -364.5 -145.5t-143.5 -375.5t143.5 -375.5
t364.5 -145.5t364.5 145.5t143.5 375.5t-143.5 375.5t-364.5 145.5zM662 1858q64 0 107.5 -44t43.5 -108t-43.5 -107t-107.5 -43t-107 43t-43 107t43 108t107 44zM1071 1858q64 0 108 -44t44 -108t-44 -107t-108 -43t-106.5 43t-42.5 107t43 108t106 44z" />
    <glyph glyph-name="multiply" unicode="&#xd7;" horiz-adv-x="1228" 
d="M322 115l-139 138l291 291l-293 293l143 142l292 -293l291 291l139 -138l-291 -291l293 -293l-143 -142l-293 293z" />
    <glyph glyph-name="Oslash" unicode="&#xd8;" horiz-adv-x="1734" 
d="M867 1460q261 0 454 -138l137 137l153 -152l-136 -137q143 -193 143 -453q0 -159 -56 -296.5t-154 -236t-238.5 -155t-302.5 -56.5q-258 0 -453 138l-136 -137l-153 152l135 135q-143 195 -143 456q0 159 55.5 296.5t154 236t238.5 154.5t302 56zM867 1238
q-221 0 -364.5 -145.5t-143.5 -375.5q0 -161 73 -284l722 722q-125 83 -287 83zM1375 717q0 157 -72 281l-722 -722q125 -80 286 -80q221 0 364.5 145.5t143.5 375.5z" />
    <glyph glyph-name="Ugrave" unicode="&#xd9;" horiz-adv-x="1566" 
d="M1392 1434v-869q0 -145 -47 -259.5t-130.5 -186t-193 -108.5t-238.5 -37t-238.5 37t-192.5 108.5t-130 186t-47 259.5v869h232v-851q0 -197 100.5 -291.5t275.5 -94.5t276 94.5t101 291.5v851h232zM719 1562l-257 307h272l196 -307h-211z" />
    <glyph glyph-name="Uacute" unicode="&#xda;" horiz-adv-x="1566" 
d="M1392 1434v-869q0 -145 -47 -259.5t-130.5 -186t-193 -108.5t-238.5 -37t-238.5 37t-192.5 108.5t-130 186t-47 259.5v869h232v-851q0 -197 100.5 -291.5t275.5 -94.5t276 94.5t101 291.5v851h232zM833 1562h-211l195 307h273z" />
    <glyph glyph-name="Ucircumflex" unicode="&#xdb;" horiz-adv-x="1566" 
d="M1392 1434v-869q0 -145 -47 -259.5t-130.5 -186t-193 -108.5t-238.5 -37t-238.5 37t-192.5 108.5t-130 186t-47 259.5v869h232v-851q0 -197 100.5 -291.5t275.5 -94.5t276 94.5t101 291.5v851h232zM1146 1551h-228l-135 167l-134 -167h-228l216 308h293z" />
    <glyph glyph-name="Udieresis" unicode="&#xdc;" horiz-adv-x="1566" 
d="M1392 1434v-869q0 -145 -47 -259.5t-130.5 -186t-193 -108.5t-238.5 -37t-238.5 37t-192.5 108.5t-130 186t-47 259.5v869h232v-851q0 -197 100.5 -291.5t275.5 -94.5t276 94.5t101 291.5v851h232zM578 1858q64 0 107.5 -44t43.5 -108t-43.5 -107t-107.5 -43t-107 43
t-43 107t43 108t107 44zM987 1858q64 0 108 -44t44 -108t-44 -107t-108 -43t-106.5 43t-42.5 107t43 108t106 44z" />
    <glyph glyph-name="Yacute" unicode="&#xdd;" horiz-adv-x="1359" 
d="M1351 1434l-553 -852v-582h-232v586l-557 848h277l397 -642l398 642h270zM732 1562h-211l196 307h272z" />
    <glyph glyph-name="Thorn" unicode="&#xde;" horiz-adv-x="1355" 
d="M426 1434v-267h325q245 0 376 -115.5t131 -319.5t-131 -319.5t-376 -115.5h-325v-297h-231v1434h231zM744 949h-318v-434h318q140 0 207 53.5t67 163.5t-67 163.5t-207 53.5z" />
    <glyph glyph-name="germandbls" unicode="&#xdf;" horiz-adv-x="1270" 
d="M160 0v1049q0 90 28.5 169t85.5 143t154 101.5t223 37.5q132 0 241 -50t173.5 -143t64.5 -210q0 -125 -66 -219.5t-168 -124.5q116 -26 197 -124t81 -222q0 -131 -61 -230.5t-162.5 -151t-227.5 -51.5q-129 0 -227 30l41 199q76 -29 152 -29q128 0 196 60.5t68 179.5
q0 123 -86 175.5t-247 52.5h-30v195h1q53 0 95 4.5t85.5 19t72.5 39t47.5 66.5t18.5 98q0 116 -74.5 175t-188.5 59q-129 0 -200.5 -73t-71.5 -191v-1034h-215z" />
    <glyph glyph-name="agrave" unicode="&#xe0;" horiz-adv-x="1277" 
d="M1110 981v-981h-214v118q-113 -144 -308 -144q-136 0 -248 66t-177.5 184.5t-65.5 265.5q0 223 142 370t349 147q195 0 308 -145v119h214zM613 805q-134 0 -215 -91t-81 -224t81 -223.5t215 -90.5q131 0 213.5 89t82.5 225t-82.5 225.5t-213.5 89.5zM566 1137l-257 307
h273l195 -307h-211z" />
    <glyph glyph-name="aacute" unicode="&#xe1;" horiz-adv-x="1277" 
d="M1110 981v-981h-214v118q-113 -144 -308 -144q-136 0 -248 66t-177.5 184.5t-65.5 265.5q0 223 142 370t349 147q195 0 308 -145v119h214zM613 805q-134 0 -215 -91t-81 -224t81 -223.5t215 -90.5q131 0 213.5 89t82.5 225t-82.5 225.5t-213.5 89.5zM692 1137h-211
l196 307h272z" />
    <glyph glyph-name="acircumflex" unicode="&#xe2;" horiz-adv-x="1277" 
d="M1110 981v-981h-214v118q-113 -144 -308 -144q-136 0 -248 66t-177.5 184.5t-65.5 265.5q0 223 142 370t349 147q195 0 308 -145v119h214zM613 805q-134 0 -215 -91t-81 -224t81 -223.5t215 -90.5q131 0 213.5 89t82.5 225t-82.5 225.5t-213.5 89.5zM998 1126h-228
l-134 167l-134 -167h-229l216 308h293z" />
    <glyph glyph-name="atilde" unicode="&#xe3;" horiz-adv-x="1277" 
d="M1110 981v-981h-214v118q-113 -144 -308 -144q-136 0 -248 66t-177.5 184.5t-65.5 265.5q0 223 142 370t349 147q195 0 308 -145v119h214zM613 805q-134 0 -215 -91t-81 -224t81 -223.5t215 -90.5q131 0 213.5 89t82.5 225t-82.5 225.5t-213.5 89.5zM367 1158l-111 136
q53 59 111 87t135 28q60 0 113.5 -17.5t92.5 -35t65 -17.5q57 0 135 67l111 -136q-53 -59 -111 -87t-135 -28q-59 0 -111.5 17.5t-92.5 35t-67 17.5q-57 0 -135 -67z" />
    <glyph glyph-name="adieresis" unicode="&#xe4;" horiz-adv-x="1277" 
d="M1110 981v-981h-214v118q-113 -144 -308 -144q-136 0 -248 66t-177.5 184.5t-65.5 265.5q0 223 142 370t349 147q195 0 308 -145v119h214zM613 805q-134 0 -215 -91t-81 -224t81 -223.5t215 -90.5q131 0 213.5 89t82.5 225t-82.5 225.5t-213.5 89.5zM430 1433
q64 0 108 -44t44 -108q0 -63 -44 -106t-108 -43t-106.5 42.5t-42.5 106.5t43 108t106 44zM840 1433q64 0 107.5 -44t43.5 -108t-43.5 -106.5t-107.5 -42.5t-107 42.5t-43 106.5t43 108t107 44z" />
    <glyph glyph-name="aring" unicode="&#xe5;" horiz-adv-x="1277" 
d="M1110 981v-981h-214v118q-113 -144 -308 -144q-136 0 -248 66t-177.5 184.5t-65.5 265.5q0 223 142 370t349 147q195 0 308 -145v119h214zM613 805q-134 0 -215 -91t-81 -224t81 -223.5t215 -90.5q131 0 213.5 89t82.5 225t-82.5 225.5t-213.5 89.5zM635 1109
q-105 0 -179.5 73.5t-74.5 177.5q0 103 75 176.5t179 73.5q105 0 180 -73.5t75 -176.5q0 -104 -75 -177.5t-180 -73.5zM635 1244q46 0 79.5 33.5t33.5 82.5q0 47 -33.5 80.5t-79.5 33.5q-45 0 -78.5 -33.5t-33.5 -80.5q0 -49 33 -82.5t79 -33.5z" />
    <glyph glyph-name="ae" unicode="&#xe6;" horiz-adv-x="1806" 
d="M1245 1007q206 0 334.5 -143t129.5 -372q0 -30 -4 -80h-725q21 -126 101 -188t191 -62q73 0 147.5 27t135.5 76l107 -152q-164 -139 -404 -139q-118 0 -216 43t-166 122q-161 -165 -396 -165q-184 0 -283.5 88t-99.5 229q0 135 107 213t284 78h271q-11 230 -251 230
q-135 0 -270 -98l-88 169q169 124 386 124q242 0 355 -161q61 76 155 118.5t199 42.5zM507 161q71 0 147.5 32t133.5 98q-19 58 -27 128h-242q-101 0 -146 -37t-45 -91q0 -53 45 -91.5t134 -38.5zM1241 816q-111 0 -176.5 -65t-83.5 -177h509q-18 115 -82.5 178.5
t-166.5 63.5z" />
    <glyph glyph-name="ccedilla" unicode="&#xe7;" horiz-adv-x="1051" 
d="M613 1007q111 0 207 -40.5t160 -116.5l-137 -147q-108 102 -236 102q-125 0 -207.5 -88.5t-82.5 -226.5t82.5 -226t207.5 -88q131 0 241 103l132 -148q-107 -124 -281 -150l-97 -310h-224l106 317q-178 39 -282.5 175.5t-104.5 326.5q0 147 63 264t181.5 185t271.5 68z
" />
    <glyph glyph-name="egrave" unicode="&#xe8;" horiz-adv-x="1146" 
d="M586 1007q206 0 334.5 -143t129.5 -372q0 -30 -4 -80h-725q21 -126 100.5 -188t190.5 -62q74 0 148.5 27t135.5 76l106 -152q-164 -139 -403 -139q-222 0 -362 142t-140 374q0 230 136 373.5t353 143.5zM582 816q-111 0 -176.5 -65t-83.5 -177h508q-18 115 -82.5 178.5
t-165.5 63.5zM511 1137l-257 307h272l196 -307h-211z" />
    <glyph glyph-name="eacute" unicode="&#xe9;" horiz-adv-x="1146" 
d="M586 1007q206 0 334.5 -143t129.5 -372q0 -30 -4 -80h-725q21 -126 100.5 -188t190.5 -62q74 0 148.5 27t135.5 76l106 -152q-164 -139 -403 -139q-222 0 -362 142t-140 374q0 230 136 373.5t353 143.5zM582 816q-111 0 -176.5 -65t-83.5 -177h508q-18 115 -82.5 178.5
t-165.5 63.5zM637 1137h-211l196 307h272z" />
    <glyph glyph-name="ecircumflex" unicode="&#xea;" horiz-adv-x="1146" 
d="M586 1007q206 0 334.5 -143t129.5 -372q0 -30 -4 -80h-725q21 -126 100.5 -188t190.5 -62q74 0 148.5 27t135.5 76l106 -152q-164 -139 -403 -139q-222 0 -362 142t-140 374q0 230 136 373.5t353 143.5zM582 816q-111 0 -176.5 -65t-83.5 -177h508q-18 115 -82.5 178.5
t-165.5 63.5zM943 1126h-228l-134 167l-135 -167h-228l216 308h293z" />
    <glyph glyph-name="edieresis" unicode="&#xeb;" horiz-adv-x="1146" 
d="M586 1007q206 0 334.5 -143t129.5 -372q0 -30 -4 -80h-725q21 -126 100.5 -188t190.5 -62q74 0 148.5 27t135.5 76l106 -152q-164 -139 -403 -139q-222 0 -362 142t-140 374q0 230 136 373.5t353 143.5zM582 816q-111 0 -176.5 -65t-83.5 -177h508q-18 115 -82.5 178.5
t-165.5 63.5zM375 1433q64 0 107.5 -44t43.5 -108t-43.5 -106.5t-107.5 -42.5t-107 42.5t-43 106.5t43 108t107 44zM784 1433q64 0 108 -44t44 -108q0 -63 -44 -106t-108 -43t-106.5 42.5t-42.5 106.5t43 108t106 44z" />
    <glyph glyph-name="igrave" unicode="&#xec;" horiz-adv-x="550" 
d="M383 981v-981h-215v981h215zM206 1137l-257 307h272l196 -307h-211z" />
    <glyph glyph-name="iacute" unicode="&#xed;" horiz-adv-x="550" 
d="M383 981v-981h-215v981h215zM332 1137h-211l195 307h273z" />
    <glyph glyph-name="icircumflex" unicode="&#xee;" horiz-adv-x="550" 
d="M383 981v-981h-215v981h215zM638 1126h-228l-135 167l-134 -167h-228l216 308h293z" />
    <glyph glyph-name="idieresis" unicode="&#xef;" horiz-adv-x="550" 
d="M383 981v-981h-215v981h215zM70 1433q64 0 107.5 -44t43.5 -108t-43.5 -106.5t-107.5 -42.5t-107 42.5t-43 106.5t43 108t107 44zM479 1433q64 0 108 -44t44 -108q0 -63 -44 -106t-108 -43t-106.5 42.5t-42.5 106.5t43 108t106 44z" />
    <glyph glyph-name="eth" unicode="&#xf0;" horiz-adv-x="1244" 
d="M874 1484l81 -130l-159 -99q99 -84 170.5 -183.5t109 -199t54.5 -189.5t17 -179q0 -148 -68 -269.5t-188 -191t-266 -69.5q-227 0 -377.5 143.5t-150.5 357.5q0 216 140.5 361t346.5 145q171 0 288 -126q-78 164 -257 290l-242 -149l-80 130l176 109q-83 44 -176 81
l96 172q150 -57 273 -134zM625 779q-133 0 -220.5 -84.5t-87.5 -218.5q0 -132 88 -216t220 -84t220 84t88 216q0 134 -87.5 218.5t-220.5 84.5z" />
    <glyph glyph-name="ntilde" unicode="&#xf1;" horiz-adv-x="1238" 
d="M682 1007q175 0 286.5 -109.5t111.5 -281.5v-616h-215v546q0 123 -60 190t-168 67t-181 -69t-73 -190v-544h-215v981h213v-120q99 146 301 146zM369 1158l-111 136q53 59 111 87t135 28q60 0 113.5 -17.5t92.5 -35t65 -17.5q57 0 135 67l111 -136q-53 -59 -111 -87
t-135 -28q-59 0 -111.5 17.5t-92.5 35t-67 17.5q-57 0 -135 -67z" />
    <glyph glyph-name="ograve" unicode="&#xf2;" horiz-adv-x="1250" 
d="M625 1007q227 0 377.5 -148t150.5 -369t-150.5 -368.5t-377.5 -147.5t-377.5 147.5t-150.5 368.5t150.5 369t377.5 148zM625 805q-132 0 -220 -88.5t-88 -226.5t88 -226t220 -88t220 88t88 226t-88 226.5t-220 88.5zM555 1137l-257 307h272l196 -307h-211z" />
    <glyph glyph-name="oacute" unicode="&#xf3;" horiz-adv-x="1250" 
d="M625 1007q227 0 377.5 -148t150.5 -369t-150.5 -368.5t-377.5 -147.5t-377.5 147.5t-150.5 368.5t150.5 369t377.5 148zM625 805q-132 0 -220 -88.5t-88 -226.5t88 -226t220 -88t220 88t88 226t-88 226.5t-220 88.5zM681 1137h-211l196 307h272z" />
    <glyph glyph-name="ocircumflex" unicode="&#xf4;" horiz-adv-x="1250" 
d="M625 1007q227 0 377.5 -148t150.5 -369t-150.5 -368.5t-377.5 -147.5t-377.5 147.5t-150.5 368.5t150.5 369t377.5 148zM625 805q-132 0 -220 -88.5t-88 -226.5t88 -226t220 -88t220 88t88 226t-88 226.5t-220 88.5zM987 1126h-228l-134 167l-135 -167h-228l216 308h293z
" />
    <glyph glyph-name="otilde" unicode="&#xf5;" horiz-adv-x="1250" 
d="M625 1007q227 0 377.5 -148t150.5 -369t-150.5 -368.5t-377.5 -147.5t-377.5 147.5t-150.5 368.5t150.5 369t377.5 148zM625 805q-132 0 -220 -88.5t-88 -226.5t88 -226t220 -88t220 88t88 226t-88 226.5t-220 88.5zM355 1158l-110 136q53 60 110.5 87.5t134.5 27.5
q60 0 113.5 -17.5t93 -35t65.5 -17.5q57 0 135 67l111 -136q-53 -59 -111 -87t-135 -28q-59 0 -112 17.5t-93 35t-67 17.5q-57 0 -135 -67z" />
    <glyph glyph-name="odieresis" unicode="&#xf6;" horiz-adv-x="1250" 
d="M625 1007q227 0 377.5 -148t150.5 -369t-150.5 -368.5t-377.5 -147.5t-377.5 147.5t-150.5 368.5t150.5 369t377.5 148zM625 805q-132 0 -220 -88.5t-88 -226.5t88 -226t220 -88t220 88t88 226t-88 226.5t-220 88.5zM419 1433q64 0 107.5 -44t43.5 -108t-43.5 -106.5
t-107.5 -42.5t-107 42.5t-43 106.5t43 108t107 44zM828 1433q64 0 108 -44t44 -108q0 -63 -44 -106t-108 -43t-106.5 42.5t-42.5 106.5t43 108t106 44z" />
    <glyph glyph-name="divide" unicode="&#xf7;" horiz-adv-x="1228" 
d="M1075 643v-194h-921v194h921zM615 1037q60 0 104 -43.5t44 -103.5q0 -59 -44.5 -104t-103.5 -45t-103.5 45t-44.5 104q0 60 44 103.5t104 43.5zM615 350q60 0 104 -43.5t44 -103.5q0 -59 -44.5 -104t-103.5 -45t-103.5 45t-44.5 104q0 60 44 103.5t104 43.5z" />
    <glyph glyph-name="oslash" unicode="&#xf8;" horiz-adv-x="1250" 
d="M625 1007q168 0 302 -87l105 105l129 -129l-103 -103q95 -133 95 -303q0 -221 -150.5 -368.5t-377.5 -147.5q-168 0 -300 85l-106 -105l-130 128l104 103q-96 136 -96 305q0 221 150.5 369t377.5 148zM625 805q-132 0 -220 -88.5t-88 -226.5q0 -79 32 -148l426 426
q-68 37 -150 37zM933 490q0 79 -32 146l-425 -425q67 -35 149 -35q132 0 220 88t88 226z" />
    <glyph glyph-name="ugrave" unicode="&#xf9;" horiz-adv-x="1224" 
d="M1067 981v-565q0 -113 -38.5 -200t-103.5 -138.5t-144.5 -77.5t-168.5 -26t-168.5 26t-144.5 77.5t-103 138.5t-38 200v565h215v-546q0 -134 65.5 -196.5t173.5 -62.5q109 0 174.5 62.5t65.5 196.5v546h215zM543 1137l-257 307h272l196 -307h-211z" />
    <glyph glyph-name="uacute" unicode="&#xfa;" horiz-adv-x="1224" 
d="M1067 981v-565q0 -113 -38.5 -200t-103.5 -138.5t-144.5 -77.5t-168.5 -26t-168.5 26t-144.5 77.5t-103 138.5t-38 200v565h215v-546q0 -134 65.5 -196.5t173.5 -62.5q109 0 174.5 62.5t65.5 196.5v546h215zM669 1137h-211l195 307h273z" />
    <glyph glyph-name="ucircumflex" unicode="&#xfb;" horiz-adv-x="1224" 
d="M1067 981v-565q0 -113 -38.5 -200t-103.5 -138.5t-144.5 -77.5t-168.5 -26t-168.5 26t-144.5 77.5t-103 138.5t-38 200v565h215v-546q0 -134 65.5 -196.5t173.5 -62.5q109 0 174.5 62.5t65.5 196.5v546h215zM975 1126h-229l-134 167l-134 -167h-228l216 308h293z" />
    <glyph glyph-name="udieresis" unicode="&#xfc;" horiz-adv-x="1224" 
d="M1067 981v-565q0 -113 -38.5 -200t-103.5 -138.5t-144.5 -77.5t-168.5 -26t-168.5 26t-144.5 77.5t-103 138.5t-38 200v565h215v-546q0 -134 65.5 -196.5t173.5 -62.5q109 0 174.5 62.5t65.5 196.5v546h215zM407 1433q64 0 107.5 -44t43.5 -108t-43.5 -106.5
t-107.5 -42.5t-107 42.5t-43 106.5t43 108t107 44zM816 1433q64 0 108 -44t44 -108q0 -63 -44 -106t-108 -43t-106.5 42.5t-42.5 106.5t43 108t106 44z" />
    <glyph glyph-name="yacute" unicode="&#xfd;" horiz-adv-x="1124" 
d="M1112 981l-774 -1397h-238l352 618l-436 779h241l315 -563l305 563h235zM624 1137h-211l195 307h273z" />
    <glyph glyph-name="thorn" unicode="&#xfe;" horiz-adv-x="1276" 
d="M689 1007q207 0 349 -147t142 -370q0 -147 -65.5 -265.5t-177.5 -184.5t-248 -66q-194 0 -306 142v-526h-215v1885h215v-610q114 142 306 142zM664 805q-131 0 -213.5 -89.5t-82.5 -225.5t82.5 -225t213.5 -89q134 0 214.5 90.5t80.5 223.5t-80.5 224t-214.5 91z" />
    <glyph glyph-name="ydieresis" unicode="&#xff;" horiz-adv-x="1124" 
d="M1112 981l-774 -1397h-238l352 618l-436 779h241l315 -563l305 563h235zM361 1433q64 0 108 -44t44 -108q0 -63 -44 -106t-108 -43t-106.5 42.5t-42.5 106.5t43 108t106 44zM771 1433q64 0 108 -44t44 -108q0 -63 -44 -106t-108 -43t-106.5 42.5t-42.5 106.5t43 108
t106 44z" />
    <glyph glyph-name="Amacron" unicode="&#x100;" horiz-adv-x="1482" 
d="M886 1434l566 -1434h-249l-141 366h-649l-142 -366h-240l566 1434h289zM737 1203l-239 -618h479zM424 1618v174h635v-174h-635z" />
    <glyph glyph-name="amacron" unicode="&#x101;" horiz-adv-x="1277" 
d="M1110 981v-981h-214v118q-113 -144 -308 -144q-136 0 -248 66t-177.5 184.5t-65.5 265.5q0 223 142 370t349 147q195 0 308 -145v119h214zM613 805q-134 0 -215 -91t-81 -224t81 -223.5t215 -90.5q131 0 213.5 89t82.5 225t-82.5 225.5t-213.5 89.5zM318 1193v174h635
v-174h-635z" />
    <glyph glyph-name="Abreve" unicode="&#x102;" horiz-adv-x="1482" 
d="M886 1434l566 -1434h-249l-141 366h-649l-142 -366h-240l566 1434h289zM737 1203l-239 -618h479zM364 1842l172 52q58 -177 205 -177q148 0 206 177l172 -52q-44 -150 -141.5 -228t-236.5 -78t-236 78t-141 228z" />
    <glyph glyph-name="abreve" unicode="&#x103;" horiz-adv-x="1277" 
d="M1110 981v-981h-214v118q-113 -144 -308 -144q-136 0 -248 66t-177.5 184.5t-65.5 265.5q0 223 142 370t349 147q195 0 308 -145v119h214zM613 805q-134 0 -215 -91t-81 -224t81 -223.5t215 -90.5q131 0 213.5 89t82.5 225t-82.5 225.5t-213.5 89.5zM258 1417l172 52
q58 -177 206 -177t206 177l172 -52q-44 -150 -141.5 -228t-236.5 -78t-236.5 78t-141.5 228z" />
    <glyph glyph-name="Aogonek" unicode="&#x104;" horiz-adv-x="1482" 
d="M1335 -206l114 -139q-93 -84 -215 -84q-106 0 -174 53.5t-68 142.5q0 73 51 131.5t154 114.5l-135 353h-649l-142 -366h-240l566 1434h289l566 -1434h-63q-194 -101 -194 -189q0 -26 15.5 -41t42.5 -15q41 0 82 39zM737 1203l-239 -618h479z" />
    <glyph glyph-name="aogonek" unicode="&#x105;" horiz-adv-x="1277" 
d="M1058 -206l113 -139q-93 -84 -215 -84q-106 0 -173.5 53.5t-67.5 142.5q0 69 44.5 124.5t136.5 108.5v118q-113 -144 -308 -144q-136 0 -248 66t-177.5 184.5t-65.5 265.5q0 223 142 370t349 147q195 0 308 -145v119h214v-980l1 -1q-193 -101 -193 -189q0 -26 15.5 -41
t42.5 -15q41 0 82 39zM613 805q-134 0 -215 -91t-81 -224t81 -223.5t215 -90.5q131 0 213.5 89t82.5 225t-82.5 225.5t-213.5 89.5z" />
    <glyph glyph-name="Cacute" unicode="&#x106;" horiz-adv-x="1568" 
d="M867 1460q191 0 350 -80.5t244 -219.5l-193 -129q-66 97 -170.5 152t-230.5 55q-221 0 -364.5 -145.5t-143.5 -375.5t143.5 -375.5t364.5 -145.5q126 0 229.5 53.5t170.5 151.5l188 -138q-92 -136 -247 -213t-341 -77q-217 0 -388.5 96.5t-266.5 266t-95 381.5
q0 159 55.5 296.5t154 236t238.5 154.5t302 56zM909 1562h-211l196 307h272z" />
    <glyph glyph-name="cacute" unicode="&#x107;" horiz-adv-x="1051" 
d="M613 1007q111 0 207 -40.5t160 -116.5l-137 -147q-108 102 -236 102q-125 0 -207.5 -88.5t-82.5 -226.5t82.5 -226t207.5 -88q131 0 241 103l132 -148q-66 -77 -161 -117t-206 -40q-231 0 -373.5 146t-142.5 370q0 147 63 264t181.5 185t271.5 68zM655 1137h-211l196 307
h272z" />
    <glyph glyph-name="Ccircumflex" unicode="&#x108;" horiz-adv-x="1568" 
d="M867 1460q191 0 350 -80.5t244 -219.5l-193 -129q-66 97 -170.5 152t-230.5 55q-221 0 -364.5 -145.5t-143.5 -375.5t143.5 -375.5t364.5 -145.5q126 0 229.5 53.5t170.5 151.5l188 -138q-92 -136 -247 -213t-341 -77q-217 0 -388.5 96.5t-266.5 266t-95 381.5
q0 159 55.5 296.5t154 236t238.5 154.5t302 56zM1223 1551h-229l-134 167l-134 -167h-228l216 308h293z" />
    <glyph glyph-name="ccircumflex" unicode="&#x109;" horiz-adv-x="1051" 
d="M613 1007q111 0 207 -40.5t160 -116.5l-137 -147q-108 102 -236 102q-125 0 -207.5 -88.5t-82.5 -226.5t82.5 -226t207.5 -88q131 0 241 103l132 -148q-66 -77 -161 -117t-206 -40q-231 0 -373.5 146t-142.5 370q0 147 63 264t181.5 185t271.5 68zM962 1126h-229
l-134 167l-134 -167h-228l216 308h292z" />
    <glyph glyph-name="Cdotaccent" unicode="&#x10a;" horiz-adv-x="1568" 
d="M867 1460q191 0 350 -80.5t244 -219.5l-193 -129q-66 97 -170.5 152t-230.5 55q-221 0 -364.5 -145.5t-143.5 -375.5t143.5 -375.5t364.5 -145.5q126 0 229.5 53.5t170.5 151.5l188 -138q-92 -136 -247 -213t-341 -77q-217 0 -388.5 96.5t-266.5 266t-95 381.5
q0 159 55.5 296.5t154 236t238.5 154.5t302 56zM838 1871q67 0 113 -46t46 -114q0 -67 -45.5 -112t-113.5 -45q-67 0 -112 45t-45 112q0 68 45 114t112 46z" />
    <glyph glyph-name="cdotaccent" unicode="&#x10b;" horiz-adv-x="1051" 
d="M613 1007q111 0 207 -40.5t160 -116.5l-137 -147q-108 102 -236 102q-125 0 -207.5 -88.5t-82.5 -226.5t82.5 -226t207.5 -88q131 0 241 103l132 -148q-66 -77 -161 -117t-206 -40q-231 0 -373.5 146t-142.5 370q0 147 63 264t181.5 185t271.5 68zM598 1471
q64 0 108 -43.5t44 -107.5t-44 -107t-108 -43t-106.5 43t-42.5 107t42.5 107.5t106.5 43.5z" />
    <glyph glyph-name="Ccaron" unicode="&#x10c;" horiz-adv-x="1568" 
d="M867 1460q191 0 350 -80.5t244 -219.5l-193 -129q-66 97 -170.5 152t-230.5 55q-221 0 -364.5 -145.5t-143.5 -375.5t143.5 -375.5t364.5 -145.5q126 0 229.5 53.5t170.5 151.5l188 -138q-92 -136 -247 -213t-341 -77q-217 0 -388.5 96.5t-266.5 266t-95 381.5
q0 159 55.5 296.5t154 236t238.5 154.5t302 56zM498 1859h228l134 -167l134 167h229l-216 -308h-293z" />
    <glyph glyph-name="ccaron" unicode="&#x10d;" horiz-adv-x="1051" 
d="M613 1007q111 0 207 -40.5t160 -116.5l-137 -147q-108 102 -236 102q-125 0 -207.5 -88.5t-82.5 -226.5t82.5 -226t207.5 -88q131 0 241 103l132 -148q-66 -77 -161 -117t-206 -40q-231 0 -373.5 146t-142.5 370q0 147 63 264t181.5 185t271.5 68zM237 1434h228l134 -167
l134 167h229l-217 -308h-292z" />
    <glyph glyph-name="Dcaron" unicode="&#x10e;" horiz-adv-x="1625" 
d="M195 1434h569q337 0 540.5 -196.5t203.5 -520.5t-203.5 -520.5t-540.5 -196.5h-569v1434zM764 1214h-338v-995h338q245 0 373.5 136.5t128.5 361.5q0 227 -128.5 362t-373.5 135zM396 1859h229l134 -167l134 167h228l-216 -308h-293z" />
    <glyph glyph-name="dcaron" unicode="&#x10f;" horiz-adv-x="1351" 
d="M588 1007q195 0 308 -145v613h214v-1475h-214v118q-113 -144 -308 -144q-136 0 -248 66t-177.5 184.5t-65.5 265.5q0 223 142 370t349 147zM613 805q-134 0 -215 -91t-81 -224t81 -223.5t215 -90.5q131 0 213.5 89t82.5 225t-82.5 225.5t-213.5 89.5zM1401 1075h-180v400
h221z" />
    <glyph glyph-name="Dcroat" unicode="&#x110;" horiz-adv-x="1741" 
d="M311 1434h570q337 0 540.5 -196.5t203.5 -520.5t-203.5 -520.5t-540.5 -196.5h-570v612h-194v219h194v603zM926 831v-219h-383v-393h338q245 0 373 136.5t128 361.5q0 227 -128 362t-373 135h-338v-383h383z" />
    <glyph glyph-name="dcroat" unicode="&#x111;" horiz-adv-x="1242" 
d="M1242 1319v-195h-132v-1124h-214v118q-113 -144 -308 -144q-136 0 -248 66t-177.5 184.5t-65.5 265.5q0 223 142 370t349 147q195 0 308 -145v262h-401v195h401v156h214v-156h132zM613 805q-134 0 -215 -91t-81 -224t81 -223.5t215 -90.5q131 0 213.5 89t82.5 225
t-82.5 225.5t-213.5 89.5z" />
    <glyph glyph-name="Emacron" unicode="&#x112;" horiz-adv-x="1395" 
d="M1240 217v-217h-1045v1434h1032v-217h-801v-387h773v-217h-773v-396h814zM390 1618v174h635v-174h-635z" />
    <glyph glyph-name="emacron" unicode="&#x113;" horiz-adv-x="1146" 
d="M586 1007q206 0 334.5 -143t129.5 -372q0 -30 -4 -80h-725q21 -126 100.5 -188t190.5 -62q74 0 148.5 27t135.5 76l106 -152q-164 -139 -403 -139q-222 0 -362 142t-140 374q0 230 136 373.5t353 143.5zM582 816q-111 0 -176.5 -65t-83.5 -177h508q-18 115 -82.5 178.5
t-165.5 63.5zM263 1193v174h635v-174h-635z" />
    <glyph glyph-name="Ebreve" unicode="&#x114;" horiz-adv-x="1395" 
d="M1240 217v-217h-1045v1434h1032v-217h-801v-387h773v-217h-773v-396h814zM330 1842l172 52q58 -177 206 -177q147 0 205 177l172 -52q-44 -150 -141 -228t-236 -78t-236.5 78t-141.5 228z" />
    <glyph glyph-name="ebreve" unicode="&#x115;" horiz-adv-x="1146" 
d="M586 1007q206 0 334.5 -143t129.5 -372q0 -30 -4 -80h-725q21 -126 100.5 -188t190.5 -62q74 0 148.5 27t135.5 76l106 -152q-164 -139 -403 -139q-222 0 -362 142t-140 374q0 230 136 373.5t353 143.5zM582 816q-111 0 -176.5 -65t-83.5 -177h508q-18 115 -82.5 178.5
t-165.5 63.5zM203 1417l172 52q58 -177 206 -177q147 0 205 177l172 -52q-44 -150 -141 -228t-236 -78t-236.5 78t-141.5 228z" />
    <glyph glyph-name="Edotaccent" unicode="&#x116;" horiz-adv-x="1395" 
d="M1240 217v-217h-1045v1434h1032v-217h-801v-387h773v-217h-773v-396h814zM685 1871q67 0 113.5 -46.5t46.5 -113.5t-46 -112t-114 -45q-67 0 -112 45t-45 112q0 68 45 114t112 46z" />
    <glyph glyph-name="edotaccent" unicode="&#x117;" horiz-adv-x="1146" 
d="M586 1007q206 0 334.5 -143t129.5 -372q0 -30 -4 -80h-725q21 -126 100.5 -188t190.5 -62q74 0 148.5 27t135.5 76l106 -152q-164 -139 -403 -139q-222 0 -362 142t-140 374q0 230 136 373.5t353 143.5zM582 816q-111 0 -176.5 -65t-83.5 -177h508q-18 115 -82.5 178.5
t-165.5 63.5zM580 1471q64 0 107.5 -43.5t43.5 -107.5t-43.5 -107t-107.5 -43t-107 43t-43 107t43 107.5t107 43.5z" />
    <glyph glyph-name="Eogonek" unicode="&#x118;" horiz-adv-x="1395" 
d="M1240 217v-217h-185q-137 -71 -137 -163q0 -36 27 -59t73 -23q70 0 129 50l114 -139q-106 -95 -256 -95q-132 0 -214.5 64.5t-82.5 161.5q0 124 121 203h-634v1434h1032v-217h-801v-387h773v-217h-773v-396h814z" />
    <glyph glyph-name="eogonek" unicode="&#x119;" horiz-adv-x="1146" 
d="M898 -195l114 -139q-106 -95 -256 -95q-132 0 -214.5 64.5t-82.5 161.5q0 107 89 179q-202 17 -326.5 157t-124.5 357q0 230 136 373.5t353 143.5q206 0 334.5 -143t129.5 -372q0 -30 -4 -80h-725q21 -126 100.5 -188t190.5 -62q74 0 148.5 27t135.5 76l106 -152
q-77 -66 -176 -104q-157 -60 -157 -172q0 -36 27 -59t73 -23q70 0 129 50zM582 816q-111 0 -176.5 -65t-83.5 -177h508q-18 115 -82.5 178.5t-165.5 63.5z" />
    <glyph glyph-name="Ecaron" unicode="&#x11a;" horiz-adv-x="1395" 
d="M1240 217v-217h-1045v1434h1032v-217h-801v-387h773v-217h-773v-396h814zM345 1859h228l135 -167l134 167h228l-216 -308h-293z" />
    <glyph glyph-name="ecaron" unicode="&#x11b;" horiz-adv-x="1146" 
d="M586 1007q206 0 334.5 -143t129.5 -372q0 -30 -4 -80h-725q21 -126 100.5 -188t190.5 -62q74 0 148.5 27t135.5 76l106 -152q-164 -139 -403 -139q-222 0 -362 142t-140 374q0 230 136 373.5t353 143.5zM582 816q-111 0 -176.5 -65t-83.5 -177h508q-18 115 -82.5 178.5
t-165.5 63.5zM218 1434h228l135 -167l134 167h228l-216 -308h-293z" />
    <glyph glyph-name="Gcircumflex" unicode="&#x11c;" horiz-adv-x="1678" 
d="M867 1460q169 0 312.5 -60.5t242.5 -170.5l-170 -165q-69 82 -168 128t-217 46q-221 0 -364.5 -145.5t-143.5 -375.5q0 -229 142 -375t356 -146q194 0 309 96t143 275h-380v215h631q2 -36 2 -55q0 -123 -30.5 -236t-90.5 -207t-144 -163.5t-197 -108t-243 -38.5
q-141 0 -272 50t-236 141.5t-168.5 235t-63.5 316.5q0 213 96 382.5t267.5 265t386.5 95.5zM1202 1551h-228l-134 167l-134 -167h-229l216 308h293z" />
    <glyph glyph-name="gcircumflex" unicode="&#x11d;" horiz-adv-x="1261" 
d="M552 1007q212 0 327 -144v118h215v-912q0 -231 -140.5 -364.5t-386.5 -133.5q-113 0 -224 30t-186 84l77 181q163 -99 333 -99q150 0 231 77t81 215v79q-113 -143 -327 -143q-85 0 -166 35t-145.5 98.5t-104 160.5t-39.5 212t39.5 212t104 160.5t145.5 98.5t166 35z
M607 805q-132 0 -211 -87.5t-79 -216.5q0 -128 79 -216t211 -88q128 0 209 86.5t81 217.5t-81 217.5t-209 86.5zM970 1126h-229l-134 167l-134 -167h-228l216 308h293z" />
    <glyph glyph-name="Gbreve" unicode="&#x11e;" horiz-adv-x="1678" 
d="M867 1460q169 0 312.5 -60.5t242.5 -170.5l-170 -165q-69 82 -168 128t-217 46q-221 0 -364.5 -145.5t-143.5 -375.5q0 -229 142 -375t356 -146q194 0 309 96t143 275h-380v215h631q2 -36 2 -55q0 -123 -30.5 -236t-90.5 -207t-144 -163.5t-197 -108t-243 -38.5
q-141 0 -272 50t-236 141.5t-168.5 235t-63.5 316.5q0 213 96 382.5t267.5 265t386.5 95.5zM462 1842l172 52q58 -177 206 -177t206 177l172 -52q-44 -150 -141.5 -228t-236.5 -78t-236.5 78t-141.5 228z" />
    <glyph glyph-name="gbreve" unicode="&#x11f;" horiz-adv-x="1261" 
d="M552 1007q212 0 327 -144v118h215v-912q0 -231 -140.5 -364.5t-386.5 -133.5q-113 0 -224 30t-186 84l77 181q163 -99 333 -99q150 0 231 77t81 215v79q-113 -143 -327 -143q-85 0 -166 35t-145.5 98.5t-104 160.5t-39.5 212t39.5 212t104 160.5t145.5 98.5t166 35z
M607 805q-132 0 -211 -87.5t-79 -216.5q0 -128 79 -216t211 -88q128 0 209 86.5t81 217.5t-81 217.5t-209 86.5zM229 1417l172 52q58 -177 206 -177t206 177l172 -52q-44 -150 -141.5 -228t-236.5 -78t-236.5 78t-141.5 228z" />
    <glyph glyph-name="Gdotaccent" unicode="&#x120;" horiz-adv-x="1678" 
d="M867 1460q169 0 312.5 -60.5t242.5 -170.5l-170 -165q-69 82 -168 128t-217 46q-221 0 -364.5 -145.5t-143.5 -375.5q0 -229 142 -375t356 -146q194 0 309 96t143 275h-380v215h631q2 -36 2 -55q0 -123 -30.5 -236t-90.5 -207t-144 -163.5t-197 -108t-243 -38.5
q-141 0 -272 50t-236 141.5t-168.5 235t-63.5 316.5q0 213 96 382.5t267.5 265t386.5 95.5zM817 1871q67 0 113.5 -46.5t46.5 -113.5t-46 -112t-114 -45q-67 0 -112 45t-45 112q0 68 45 114t112 46z" />
    <glyph glyph-name="gdotaccent" unicode="&#x121;" horiz-adv-x="1261" 
d="M552 1007q212 0 327 -144v118h215v-912q0 -231 -140.5 -364.5t-386.5 -133.5q-113 0 -224 30t-186 84l77 181q163 -99 333 -99q150 0 231 77t81 215v79q-113 -143 -327 -143q-85 0 -166 35t-145.5 98.5t-104 160.5t-39.5 212t39.5 212t104 160.5t145.5 98.5t166 35z
M607 805q-132 0 -211 -87.5t-79 -216.5q0 -128 79 -216t211 -88q128 0 209 86.5t81 217.5t-81 217.5t-209 86.5zM606 1471q64 0 108 -43.5t44 -107.5t-44 -107t-108 -43t-106.5 43t-42.5 107t42.5 107.5t106.5 43.5z" />
    <glyph glyph-name="Gcommaaccent" unicode="&#x122;" horiz-adv-x="1678" 
d="M867 1460q169 0 312.5 -60.5t242.5 -170.5l-170 -165q-69 82 -168 128t-217 46q-221 0 -364.5 -145.5t-143.5 -375.5q0 -229 142 -375t356 -146q194 0 309 96t143 275h-380v215h631q2 -36 2 -55q0 -123 -30.5 -236t-90.5 -207t-144 -163.5t-197 -108t-243 -38.5
q-141 0 -272 50t-236 141.5t-168.5 235t-63.5 316.5q0 213 96 382.5t267.5 265t386.5 95.5zM740 -89h237l-85 -377h-190z" />
    <glyph glyph-name="gcommaaccent" unicode="&#x123;" horiz-adv-x="1261" 
d="M552 1007q212 0 327 -144v118h215v-912q0 -231 -140.5 -364.5t-386.5 -133.5q-113 0 -224 30t-186 84l77 181q163 -99 333 -99q150 0 231 77t81 215v79q-113 -143 -327 -143q-85 0 -166 35t-145.5 98.5t-104 160.5t-39.5 212t39.5 212t104 160.5t145.5 98.5t166 35z
M607 805q-132 0 -211 -87.5t-79 -216.5q0 -128 79 -216t211 -88q128 0 209 86.5t81 217.5t-81 217.5t-209 86.5zM717 1137h-237l85 376h190z" />
    <glyph glyph-name="Hcircumflex" unicode="&#x124;" horiz-adv-x="1626" 
d="M426 1434v-603h774v603h232v-1434h-232v612h-774v-612h-231v1434h231zM1176 1551h-229l-134 167l-134 -167h-228l216 308h292z" />
    <glyph glyph-name="hcircumflex" unicode="&#x125;" horiz-adv-x="1238" 
d="M383 1475v-611q100 143 299 143q175 0 286.5 -109.5t111.5 -281.5v-616h-215v546q0 123 -60 190t-168 67t-181 -69t-73 -190v-544h-215v1475h215zM977 1579h-228l-135 167l-134 -167h-228l216 307h293z" />
    <glyph glyph-name="Hbar" unicode="&#x126;" horiz-adv-x="1652" 
d="M1594 1208v-194h-149v-1014h-232v612h-774v-612h-231v1014h-150v194h150v226h231v-226h774v226h232v-226h149zM439 831h774v183h-774v-183z" />
    <glyph glyph-name="hbar" unicode="&#x127;" horiz-adv-x="1238" 
d="M748 1319v-195h-365v-260q100 143 299 143q175 0 286.5 -109.5t111.5 -281.5v-616h-215v546q0 123 -60 190t-168 67t-181 -69t-73 -190v-544h-215v1124h-168v195h168v156h215v-156h365z" />
    <glyph glyph-name="Itilde" unicode="&#x128;" horiz-adv-x="620" 
d="M426 1434v-1434h-231v1434h231zM39 1583l-111 136q53 59 111 87t135 28q60 0 113.5 -17.5t92.5 -35t65 -17.5q58 0 136 67l110 -136q-53 -59 -111 -87t-135 -28q-59 0 -111.5 17.5t-92.5 35t-67 17.5q-57 0 -135 -67z" />
    <glyph glyph-name="itilde" unicode="&#x129;" horiz-adv-x="550" 
d="M383 981v-981h-215v981h215zM6 1158l-110 136q53 60 110.5 87.5t134.5 27.5q60 0 113.5 -17.5t93 -35t65.5 -17.5q57 0 135 67l110 -136q-53 -60 -110.5 -87.5t-134.5 -27.5q-59 0 -112 17.5t-93 35t-67 17.5q-57 0 -135 -67z" />
    <glyph glyph-name="Imacron" unicode="&#x12a;" horiz-adv-x="620" 
d="M426 1434v-1434h-231v1434h231zM-7 1618v174h635v-174h-635z" />
    <glyph glyph-name="imacron" unicode="&#x12b;" horiz-adv-x="550" 
d="M383 981v-981h-215v981h215zM-42 1193v174h635v-174h-635z" />
    <glyph glyph-name="Ibreve" unicode="&#x12c;" horiz-adv-x="620" 
d="M426 1434v-1434h-231v1434h231zM-68 1842l172 52q58 -177 206 -177t206 177l172 -52q-44 -150 -141.5 -228t-236.5 -78t-236.5 78t-141.5 228z" />
    <glyph glyph-name="ibreve" unicode="&#x12d;" horiz-adv-x="550" 
d="M383 981v-981h-215v981h215zM-102 1417l172 52q58 -177 205 -177q148 0 206 177l172 -52q-44 -150 -141.5 -228t-236.5 -78t-236 78t-141 228z" />
    <glyph glyph-name="Iogonek" unicode="&#x12e;" horiz-adv-x="620" 
d="M434 -206l114 -139q-93 -84 -215 -84q-106 0 -174 53.5t-68 142.5q0 69 36.5 124.5t111.5 108.5h-44v1434h231v-1434q-132 -99 -132 -189q0 -26 15.5 -41t42.5 -15q41 0 82 39z" />
    <glyph glyph-name="iogonek" unicode="&#x12f;" horiz-adv-x="550" 
d="M383 981v-981q-132 -99 -132 -189q0 -26 15.5 -41t42.5 -15q41 0 82 39l114 -139q-93 -84 -215 -84q-106 0 -174 53.5t-68 142.5q0 69 36.5 124.5t111.5 108.5h-28v981h215zM274 1471q64 0 108 -43.5t44 -107.5t-44 -107t-108 -43t-106.5 43t-42.5 107t42.5 107.5
t106.5 43.5z" />
    <glyph glyph-name="Idotaccent" unicode="&#x130;" horiz-adv-x="620" 
d="M426 1434v-1434h-231v1434h231zM288 1871q67 0 113 -46t46 -114q0 -67 -45.5 -112t-113.5 -45q-67 0 -112 45t-45 112q0 68 45 114t112 46z" />
    <glyph glyph-name="dotlessi" unicode="&#x131;" horiz-adv-x="550" 
d="M383 981v-981h-215v981h215z" />
    <glyph glyph-name="IJ" unicode="&#x132;" horiz-adv-x="1797" 
d="M426 1434v-1434h-231v1434h231zM1613 1434v-927q0 -126 -38 -228t-105 -168t-158.5 -101.5t-198.5 -35.5q-294 0 -460 221l155 158q109 -156 304 -156q128 0 198.5 84t70.5 248v905h232z" />
    <glyph glyph-name="ij" unicode="&#x133;" horiz-adv-x="1107" 
d="M940 981v-1102q0 -148 -79 -228t-209 -80q-83 0 -148 30l50 186q39 -14 79 -14q41 0 66.5 28t25.5 88v1092h215zM830 1471q64 0 108 -43.5t44 -107.5t-44 -107t-108 -43t-106.5 43t-42.5 107t42.5 107.5t106.5 43.5zM383 981v-981h-215v981h215zM274 1471q64 0 108 -43.5
t44 -107.5t-44 -107t-108 -43t-106.5 43t-42.5 107t42.5 107.5t106.5 43.5z" />
    <glyph glyph-name="Jcircumflex" unicode="&#x134;" horiz-adv-x="1176" 
d="M992 1434v-927q0 -251 -139 -392t-360 -141q-294 0 -460 221l154 158q109 -156 305 -156q128 0 198.5 84t70.5 248v905h231zM1239 1551h-228l-134 167l-135 -167h-228l216 308h293z" />
    <glyph glyph-name="jcircumflex" unicode="&#x135;" horiz-adv-x="557" 
d="M389 981v-1102q0 -148 -79 -228t-209 -80q-83 0 -148 30l50 186q39 -14 79 -14q41 0 66.5 28t25.5 88v1092h215zM643 1126h-228l-134 167l-135 -167h-228l216 308h293z" />
    <glyph glyph-name="Kcommaaccent" unicode="&#x136;" horiz-adv-x="1458" 
d="M1135 0l-571 611h-138v-611h-231v1434h231v-604h141l539 604h299l-645 -700l689 -734h-314zM632 -89h236l-85 -377h-189z" />
    <glyph glyph-name="kcommaaccent" unicode="&#x137;" horiz-adv-x="1111" 
d="M383 1475v-867h107l324 373h269l-410 -462l414 -519h-271l-327 414h-106v-414h-215v1475h215zM470 -89h237l-85 -377h-190z" />
    <glyph glyph-name="kgreenlandic" unicode="&#x138;" horiz-adv-x="1111" 
d="M383 981v-373h107l324 373h269l-410 -462l414 -519h-271l-327 414h-106v-414h-215v981h215z" />
    <glyph glyph-name="Lacute" unicode="&#x139;" horiz-adv-x="1258" 
d="M1220 219v-219h-1025v1434h231v-1215h794zM359 1562h-211l196 307h272z" />
    <glyph glyph-name="lacute" unicode="&#x13a;" horiz-adv-x="550" 
d="M383 1475v-1475h-215v1475h215zM310 1582h-211l196 307h272z" />
    <glyph glyph-name="Lcommaaccent" unicode="&#x13b;" horiz-adv-x="1258" 
d="M1220 219v-219h-1025v1434h231v-1215h794zM603 -89h237l-85 -377h-190z" />
    <glyph glyph-name="lcommaaccent" unicode="&#x13c;" horiz-adv-x="550" 
d="M383 1475v-1475h-215v1475h215zM164 -89h236l-85 -377h-189z" />
    <glyph glyph-name="Lcaron" unicode="&#x13d;" horiz-adv-x="1258" 
d="M1220 219v-219h-1025v1434h231v-1215h794zM806 1034h-180v400h221z" />
    <glyph glyph-name="lcaron" unicode="&#x13e;" horiz-adv-x="614" 
d="M383 1475v-1475h-215v1475h215zM664 1075h-181v400h222z" />
    <glyph glyph-name="Ldot" unicode="&#x13f;" horiz-adv-x="1258" 
d="M1220 219v-219h-1025v1434h231v-1215h794zM895 882q67 0 113.5 -46t46.5 -114q0 -67 -46 -112t-114 -45q-67 0 -112 45t-45 112q0 68 45 114t112 46z" />
    <glyph glyph-name="ldot" unicode="&#x140;" horiz-adv-x="706" 
d="M383 1475v-1475h-215v1475h215zM624 899q64 0 107.5 -43.5t43.5 -107.5t-43.5 -107t-107.5 -43t-107 43t-43 107t43 107.5t107 43.5z" />
    <glyph glyph-name="Lslash" unicode="&#x141;" horiz-adv-x="1375" 
d="M1336 219v-219h-1025v468l-194 -108v247l194 108v719h232v-590l495 275v-247l-495 -275v-378h793z" />
    <glyph glyph-name="lslash" unicode="&#x142;" horiz-adv-x="706" 
d="M461 1475v-532l195 132v-223l-195 -132v-720h-215v574l-196 -132v224l196 132v677h215z" />
    <glyph glyph-name="Nacute" unicode="&#x143;" horiz-adv-x="1630" 
d="M1436 1434v-1434h-209l-800 1037l-1 -1037h-231v1434h208l801 -1038v1038h232zM864 1562h-211l196 307h272z" />
    <glyph glyph-name="nacute" unicode="&#x144;" horiz-adv-x="1238" 
d="M682 1007q175 0 286.5 -109.5t111.5 -281.5v-616h-215v546q0 123 -60 190t-168 67t-181 -69t-73 -190v-544h-215v981h213v-120q99 146 301 146zM694 1137h-211l196 307h272z" />
    <glyph glyph-name="Ncommaaccent" unicode="&#x145;" horiz-adv-x="1630" 
d="M1436 1434v-1434h-209l-800 1037l-1 -1037h-231v1434h208l801 -1038v1038h232zM708 -89h236l-85 -377h-189z" />
    <glyph glyph-name="ncommaaccent" unicode="&#x146;" horiz-adv-x="1238" 
d="M682 1007q175 0 286.5 -109.5t111.5 -281.5v-616h-215v546q0 123 -60 190t-168 67t-181 -69t-73 -190v-544h-215v981h213v-120q99 146 301 146zM513 -89h237l-85 -377h-190z" />
    <glyph glyph-name="Ncaron" unicode="&#x147;" horiz-adv-x="1630" 
d="M1436 1434v-1434h-209l-800 1037l-1 -1037h-231v1434h208l801 -1038v1038h232zM453 1859h228l134 -167l134 167h229l-216 -308h-293z" />
    <glyph glyph-name="ncaron" unicode="&#x148;" horiz-adv-x="1238" 
d="M682 1007q175 0 286.5 -109.5t111.5 -281.5v-616h-215v546q0 123 -60 190t-168 67t-181 -69t-73 -190v-544h-215v981h213v-120q99 146 301 146zM275 1434h229l134 -167l134 167h228l-216 -308h-292z" />
    <glyph glyph-name="napostrophe" unicode="&#x149;" horiz-adv-x="1513" 
d="M159 1475h251l-123 -559h-185zM957 1007q175 0 287 -109.5t112 -281.5v-616h-215v546q0 123 -60.5 190t-168.5 67t-181 -69t-73 -190v-544h-215v981h213v-120q99 146 301 146z" />
    <glyph glyph-name="Eng" unicode="&#x14a;" horiz-adv-x="1630" 
d="M1436 1434v-1469q0 -85 -22 -155.5t-65 -124.5t-114.5 -84t-164.5 -30q-151 0 -277 62l83 203q88 -43 168 -43q160 0 160 182v54l-777 1008l-1 -1037h-231v1434h208l801 -1038v1038h232z" />
    <glyph glyph-name="eng" unicode="&#x14b;" horiz-adv-x="1238" 
d="M682 1007q175 0 286.5 -109.5t111.5 -281.5v-665q0 -148 -78.5 -228t-208.5 -80q-86 0 -149 29l50 187q42 -15 79 -15q41 0 66.5 28.5t25.5 88.5v585q0 123 -60 190t-168 67t-181 -69t-73 -190v-544h-215v981h213v-120q99 146 301 146z" />
    <glyph glyph-name="Omacron" unicode="&#x14c;" horiz-adv-x="1734" 
d="M867 1460q217 0 388.5 -96t267 -265.5t95.5 -381.5q0 -159 -56 -296.5t-154 -236t-238.5 -155t-302.5 -56.5q-217 0 -388.5 96.5t-266.5 266t-95 381.5q0 159 55.5 296.5t154 236t238.5 154.5t302 56zM867 1238q-221 0 -364.5 -145.5t-143.5 -375.5t143.5 -375.5
t364.5 -145.5t364.5 145.5t143.5 375.5t-143.5 375.5t-364.5 145.5zM550 1618v174h635v-174h-635z" />
    <glyph glyph-name="omacron" unicode="&#x14d;" horiz-adv-x="1250" 
d="M625 1007q227 0 377.5 -148t150.5 -369t-150.5 -368.5t-377.5 -147.5t-377.5 147.5t-150.5 368.5t150.5 369t377.5 148zM625 805q-132 0 -220 -88.5t-88 -226.5t88 -226t220 -88t220 88t88 226t-88 226.5t-220 88.5zM307 1193v174h635v-174h-635z" />
    <glyph glyph-name="Obreve" unicode="&#x14e;" horiz-adv-x="1734" 
d="M867 1460q217 0 388.5 -96t267 -265.5t95.5 -381.5q0 -159 -56 -296.5t-154 -236t-238.5 -155t-302.5 -56.5q-217 0 -388.5 96.5t-266.5 266t-95 381.5q0 159 55.5 296.5t154 236t238.5 154.5t302 56zM867 1238q-221 0 -364.5 -145.5t-143.5 -375.5t143.5 -375.5
t364.5 -145.5t364.5 145.5t143.5 375.5t-143.5 375.5t-364.5 145.5zM489 1842l173 52q58 -177 205 -177q148 0 206 177l172 -52q-44 -150 -141.5 -228t-236.5 -78t-236.5 78t-141.5 228z" />
    <glyph glyph-name="obreve" unicode="&#x14f;" horiz-adv-x="1250" 
d="M625 1007q227 0 377.5 -148t150.5 -369t-150.5 -368.5t-377.5 -147.5t-377.5 147.5t-150.5 368.5t150.5 369t377.5 148zM625 805q-132 0 -220 -88.5t-88 -226.5t88 -226t220 -88t220 88t88 226t-88 226.5t-220 88.5zM247 1417l172 52q58 -177 206 -177q147 0 205 177
l172 -52q-44 -150 -141 -228t-236 -78t-236.5 78t-141.5 228z" />
    <glyph glyph-name="Ohungarumlaut" unicode="&#x150;" horiz-adv-x="1734" 
d="M867 1460q217 0 388.5 -96t267 -265.5t95.5 -381.5q0 -159 -56 -296.5t-154 -236t-238.5 -155t-302.5 -56.5q-217 0 -388.5 96.5t-266.5 266t-95 381.5q0 159 55.5 296.5t154 236t238.5 154.5t302 56zM867 1238q-221 0 -364.5 -145.5t-143.5 -375.5t143.5 -375.5
t364.5 -145.5t364.5 145.5t143.5 375.5t-143.5 375.5t-364.5 145.5zM1125 1562h-215l205 307h251zM775 1562h-218l182 307h243z" />
    <glyph glyph-name="ohungarumlaut" unicode="&#x151;" horiz-adv-x="1250" 
d="M625 1007q227 0 377.5 -148t150.5 -369t-150.5 -368.5t-377.5 -147.5t-377.5 147.5t-150.5 368.5t150.5 369t377.5 148zM625 805q-132 0 -220 -88.5t-88 -226.5t88 -226t220 -88t220 88t88 226t-88 226.5t-220 88.5zM899 1137h-215l205 307h251zM549 1137h-218l182 307
h243z" />
    <glyph glyph-name="OE" unicode="&#x152;" horiz-adv-x="2308" 
d="M2152 217v-217h-1291q-337 0 -540.5 196.5t-203.5 520.5t203.5 520.5t540.5 196.5h1278v-217h-801v-387h773v-217h-773v-396h814zM359 717q0 -227 128.5 -362.5t373.5 -135.5h246v995h-246q-245 0 -373.5 -136t-128.5 -361z" />
    <glyph glyph-name="oe" unicode="&#x153;" horiz-adv-x="1981" 
d="M1420 1007q206 0 334.5 -143t129.5 -372q0 -30 -4 -80h-725q21 -126 101 -188t191 -62q74 0 148.5 27t135.5 76l106 -152q-164 -139 -403 -139q-132 0 -236 53t-168 151q-68 -96 -173.5 -150t-231.5 -54q-227 0 -377.5 147.5t-150.5 368.5t150.5 369t377.5 148
q126 0 231.5 -54.5t173.5 -149.5q63 97 164 150.5t226 53.5zM625 805q-132 0 -220 -88.5t-88 -226.5t88 -226t220 -88t220 88t88 226t-88 226.5t-220 88.5zM1416 816q-111 0 -176.5 -65t-83.5 -177h509q-18 115 -82.5 178.5t-166.5 63.5z" />
    <glyph glyph-name="Racute" unicode="&#x154;" horiz-adv-x="1404" 
d="M195 1434h589q247 0 377.5 -107t130.5 -308q0 -183 -129.5 -296t-348.5 -120l472 -603h-287l-456 603h-117v-603h-231v1434zM778 1217h-352v-404h352q274 0 274 206q0 198 -274 198zM733 1562h-211l196 307h272z" />
    <glyph glyph-name="racute" unicode="&#x155;" horiz-adv-x="879" 
d="M665 1007q92 0 164 -28l-51 -212q-67 36 -163 36q-104 0 -168.5 -70t-64.5 -193v-540h-214v981h212v-111q96 137 285 137zM558 1137h-211l196 307h272z" />
    <glyph glyph-name="Rcommaaccent" unicode="&#x156;" horiz-adv-x="1404" 
d="M195 1434h589q247 0 377.5 -107t130.5 -308q0 -183 -129.5 -296t-348.5 -120l472 -603h-287l-456 603h-117v-603h-231v1434zM778 1217h-352v-404h352q274 0 274 206q0 198 -274 198zM593 -89h236l-85 -377h-189z" />
    <glyph glyph-name="rcommaaccent" unicode="&#x157;" horiz-adv-x="879" 
d="M665 1007q92 0 164 -28l-51 -212q-67 36 -163 36q-104 0 -168.5 -70t-64.5 -193v-540h-214v981h212v-111q96 137 285 137zM166 -89h236l-85 -377h-189z" />
    <glyph glyph-name="Rcaron" unicode="&#x158;" horiz-adv-x="1404" 
d="M195 1434h589q247 0 377.5 -107t130.5 -308q0 -183 -129.5 -296t-348.5 -120l472 -603h-287l-456 603h-117v-603h-231v1434zM778 1217h-352v-404h352q274 0 274 206q0 198 -274 198zM322 1859h228l134 -167l134 167h229l-217 -308h-292z" />
    <glyph glyph-name="rcaron" unicode="&#x159;" horiz-adv-x="879" 
d="M665 1007q92 0 164 -28l-51 -212q-67 36 -163 36q-104 0 -168.5 -70t-64.5 -193v-540h-214v981h212v-111q96 137 285 137zM139 1434h229l134 -167l134 167h228l-216 -308h-293z" />
    <glyph glyph-name="Sacute" unicode="&#x15a;" horiz-adv-x="1384" 
d="M1251 1304l-117 -188q-192 123 -403 123q-144 0 -233 -58t-89 -156q0 -84 73.5 -126.5t224.5 -64.5l99 -14q462 -64 462 -394q0 -141 -80 -245.5t-208.5 -155.5t-286.5 -51q-154 0 -311.5 50.5t-264.5 142.5l126 184q74 -68 200 -112.5t249 -44.5q144 0 239.5 57.5
t95.5 154.5q0 82 -78.5 126t-243.5 67l-112 15q-68 10 -126.5 27.5t-115 49t-96 74t-63.5 106t-24 140.5q0 140 77.5 243t204 153.5t283.5 50.5q287 0 518 -154zM797 1562h-211l195 307h273z" />
    <glyph glyph-name="sacute" unicode="&#x15b;" horiz-adv-x="1035" 
d="M928 902l-92 -167q-51 32 -135.5 58t-168.5 26q-87 0 -136 -32t-49 -85q0 -47 41 -68t121 -33l101 -15q341 -49 341 -290q0 -144 -119 -232.5t-327 -88.5q-100 0 -212.5 27.5t-208.5 98.5l99 161q131 -100 324 -100q108 0 165.5 32t57.5 88q0 85 -170 108l-102 13
q-163 23 -248 96.5t-85 191.5q0 146 108.5 230.5t296.5 84.5q239 0 398 -104zM602 1137h-211l196 307h272z" />
    <glyph glyph-name="Scircumflex" unicode="&#x15c;" horiz-adv-x="1384" 
d="M1251 1304l-117 -188q-192 123 -403 123q-144 0 -233 -58t-89 -156q0 -84 73.5 -126.5t224.5 -64.5l99 -14q462 -64 462 -394q0 -141 -80 -245.5t-208.5 -155.5t-286.5 -51q-154 0 -311.5 50.5t-264.5 142.5l126 184q74 -68 200 -112.5t249 -44.5q144 0 239.5 57.5
t95.5 154.5q0 82 -78.5 126t-243.5 67l-112 15q-68 10 -126.5 27.5t-115 49t-96 74t-63.5 106t-24 140.5q0 140 77.5 243t204 153.5t283.5 50.5q287 0 518 -154zM1110 1551h-228l-134 167l-135 -167h-228l216 308h293z" />
    <glyph glyph-name="scircumflex" unicode="&#x15d;" horiz-adv-x="1035" 
d="M928 902l-92 -167q-51 32 -135.5 58t-168.5 26q-87 0 -136 -32t-49 -85q0 -47 41 -68t121 -33l101 -15q341 -49 341 -290q0 -144 -119 -232.5t-327 -88.5q-100 0 -212.5 27.5t-208.5 98.5l99 161q131 -100 324 -100q108 0 165.5 32t57.5 88q0 85 -170 108l-102 13
q-163 23 -248 96.5t-85 191.5q0 146 108.5 230.5t296.5 84.5q239 0 398 -104zM908 1126h-228l-134 167l-134 -167h-229l216 308h293z" />
    <glyph glyph-name="Scedilla" unicode="&#x15e;" horiz-adv-x="1384" 
d="M1251 1304l-117 -188q-192 123 -403 123q-144 0 -233 -58t-89 -156q0 -84 73.5 -126.5t224.5 -64.5l99 -14q462 -64 462 -394q0 -182 -126 -297.5t-326 -144.5l-97 -313h-235l107 310q-133 14 -259 61.5t-215 124.5l126 184q74 -68 200 -112.5t249 -44.5
q144 0 239.5 57.5t95.5 154.5q0 82 -78.5 126t-243.5 67l-112 15q-68 10 -126.5 27.5t-115 49t-96 74t-63.5 106t-24 140.5q0 140 77.5 243t204 153.5t283.5 50.5q287 0 518 -154z" />
    <glyph glyph-name="scedilla" unicode="&#x15f;" horiz-adv-x="1035" 
d="M928 902l-92 -167q-51 32 -135.5 58t-168.5 26q-87 0 -136 -32t-49 -85q0 -47 41 -68t121 -33l101 -15q341 -49 341 -290q0 -117 -80 -198.5t-225 -108.5l-99 -318h-224l103 309q-205 18 -342 121l99 161q131 -100 324 -100q108 0 165.5 32t57.5 88q0 85 -170 108
l-102 13q-163 23 -248 96.5t-85 191.5q0 146 108.5 230.5t296.5 84.5q239 0 398 -104z" />
    <glyph glyph-name="Scaron" unicode="&#x160;" horiz-adv-x="1384" 
d="M1251 1304l-117 -188q-192 123 -403 123q-144 0 -233 -58t-89 -156q0 -84 73.5 -126.5t224.5 -64.5l99 -14q462 -64 462 -394q0 -141 -80 -245.5t-208.5 -155.5t-286.5 -51q-154 0 -311.5 50.5t-264.5 142.5l126 184q74 -68 200 -112.5t249 -44.5q144 0 239.5 57.5
t95.5 154.5q0 82 -78.5 126t-243.5 67l-112 15q-68 10 -126.5 27.5t-115 49t-96 74t-63.5 106t-24 140.5q0 140 77.5 243t204 153.5t283.5 50.5q287 0 518 -154zM385 1859h228l135 -167l134 167h228l-216 -308h-293z" />
    <glyph glyph-name="scaron" unicode="&#x161;" horiz-adv-x="1035" 
d="M928 902l-92 -167q-51 32 -135.5 58t-168.5 26q-87 0 -136 -32t-49 -85q0 -47 41 -68t121 -33l101 -15q341 -49 341 -290q0 -144 -119 -232.5t-327 -88.5q-100 0 -212.5 27.5t-208.5 98.5l99 161q131 -100 324 -100q108 0 165.5 32t57.5 88q0 85 -170 108l-102 13
q-163 23 -248 96.5t-85 191.5q0 146 108.5 230.5t296.5 84.5q239 0 398 -104zM183 1434h229l134 -167l134 167h228l-216 -308h-293z" />
    <glyph glyph-name="Tcommaaccent" unicode="&#x162;" horiz-adv-x="1236" 
d="M1198 1434v-220h-464v-1214h-3l-103 -329h-235l113 329h-3v1214h-464v220h1159z" />
    <glyph glyph-name="tcommaaccent" unicode="&#x163;" horiz-adv-x="929" 
d="M837 981v-195h-376v-427q0 -94 42.5 -138.5t112.5 -44.5q93 0 198 67l85 -171q-116 -77 -233 -92l-97 -309h-224l110 325q-209 69 -209 359v431h-196v195h196v297h215v-297h376z" />
    <glyph glyph-name="Tcaron" unicode="&#x164;" horiz-adv-x="1236" 
d="M1198 1434v-220h-464v-1214h-231v1214h-464v220h1159zM256 1859h228l134 -167l135 167h228l-216 -308h-293z" />
    <glyph glyph-name="tcaron" unicode="&#x165;" horiz-adv-x="929" 
d="M837 981v-195h-376v-427q0 -94 42.5 -138.5t112.5 -44.5q93 0 198 67l85 -171q-146 -98 -301 -98q-170 0 -261 94.5t-91 286.5v431h-196v195h196v297h215v-297h376zM737 1075h-180v400h221z" />
    <glyph glyph-name="Tbar" unicode="&#x166;" horiz-adv-x="1236" 
d="M1023 831v-219h-289v-612h-231v612h-289v219h289v383h-464v220h1159v-220h-464v-383h289z" />
    <glyph glyph-name="tbar" unicode="&#x167;" horiz-adv-x="929" 
d="M837 981v-195h-376v-162h282v-195h-282v-70q0 -94 42.5 -138.5t112.5 -44.5q93 0 198 67l85 -171q-146 -98 -301 -98q-170 0 -261 94.5t-91 286.5v74h-189v195h189v162h-196v195h196v297h215v-297h376z" />
    <glyph glyph-name="Utilde" unicode="&#x168;" horiz-adv-x="1566" 
d="M1392 1434v-869q0 -145 -47 -259.5t-130.5 -186t-193 -108.5t-238.5 -37t-238.5 37t-192.5 108.5t-130 186t-47 259.5v869h232v-851q0 -197 100.5 -291.5t275.5 -94.5t276 94.5t101 291.5v851h232zM512 1583l-111 136q53 59 111 87t135 28q60 0 113.5 -17.5t93 -35
t65.5 -17.5q57 0 135 67l110 -136q-53 -60 -110.5 -87.5t-134.5 -27.5q-59 0 -112 17.5t-93 35t-67 17.5q-57 0 -135 -67z" />
    <glyph glyph-name="utilde" unicode="&#x169;" horiz-adv-x="1224" 
d="M1067 981v-565q0 -113 -38.5 -200t-103.5 -138.5t-144.5 -77.5t-168.5 -26t-168.5 26t-144.5 77.5t-103 138.5t-38 200v565h215v-546q0 -134 65.5 -196.5t173.5 -62.5q109 0 174.5 62.5t65.5 196.5v546h215zM343 1158l-111 136q53 59 111 87t135 28q60 0 113.5 -17.5
t93 -35t65.5 -17.5q57 0 135 67l110 -136q-53 -60 -110.5 -87.5t-134.5 -27.5q-59 0 -112 17.5t-93 35t-67 17.5q-57 0 -135 -67z" />
    <glyph glyph-name="Umacron" unicode="&#x16a;" horiz-adv-x="1566" 
d="M1392 1434v-869q0 -145 -47 -259.5t-130.5 -186t-193 -108.5t-238.5 -37t-238.5 37t-192.5 108.5t-130 186t-47 259.5v869h232v-851q0 -197 100.5 -291.5t275.5 -94.5t276 94.5t101 291.5v851h232zM466 1618v174h635v-174h-635z" />
    <glyph glyph-name="umacron" unicode="&#x16b;" horiz-adv-x="1224" 
d="M1067 981v-565q0 -113 -38.5 -200t-103.5 -138.5t-144.5 -77.5t-168.5 -26t-168.5 26t-144.5 77.5t-103 138.5t-38 200v565h215v-546q0 -134 65.5 -196.5t173.5 -62.5q109 0 174.5 62.5t65.5 196.5v546h215zM295 1193v174h635v-174h-635z" />
    <glyph glyph-name="Ubreve" unicode="&#x16c;" horiz-adv-x="1566" 
d="M1392 1434v-869q0 -145 -47 -259.5t-130.5 -186t-193 -108.5t-238.5 -37t-238.5 37t-192.5 108.5t-130 186t-47 259.5v869h232v-851q0 -197 100.5 -291.5t275.5 -94.5t276 94.5t101 291.5v851h232zM406 1842l172 52q58 -177 205 -177q148 0 206 177l172 -52
q-44 -150 -141.5 -228t-236.5 -78t-236 78t-141 228z" />
    <glyph glyph-name="ubreve" unicode="&#x16d;" horiz-adv-x="1224" 
d="M1067 981v-565q0 -113 -38.5 -200t-103.5 -138.5t-144.5 -77.5t-168.5 -26t-168.5 26t-144.5 77.5t-103 138.5t-38 200v565h215v-546q0 -134 65.5 -196.5t173.5 -62.5q109 0 174.5 62.5t65.5 196.5v546h215zM234 1417l173 52q58 -177 205 -177q148 0 206 177l172 -52
q-44 -150 -141.5 -228t-236.5 -78t-236.5 78t-141.5 228z" />
    <glyph glyph-name="Uring" unicode="&#x16e;" horiz-adv-x="1566" 
d="M1392 1434v-869q0 -145 -47 -259.5t-130.5 -186t-193 -108.5t-238.5 -37t-238.5 37t-192.5 108.5t-130 186t-47 259.5v869h232v-851q0 -197 100.5 -291.5t275.5 -94.5t276 94.5t101 291.5v851h232zM783 1534q-105 0 -179.5 73.5t-74.5 177.5q0 103 75 176.5t179 73.5
q105 0 180 -73.5t75 -176.5q0 -104 -75 -177.5t-180 -73.5zM783 1669q46 0 79.5 33.5t33.5 82.5q0 47 -33.5 80t-79.5 33q-45 0 -78 -33t-33 -80q0 -49 32.5 -82.5t78.5 -33.5z" />
    <glyph glyph-name="uring" unicode="&#x16f;" horiz-adv-x="1224" 
d="M1067 981v-565q0 -113 -38.5 -200t-103.5 -138.5t-144.5 -77.5t-168.5 -26t-168.5 26t-144.5 77.5t-103 138.5t-38 200v565h215v-546q0 -134 65.5 -196.5t173.5 -62.5q109 0 174.5 62.5t65.5 196.5v546h215zM611 1109q-105 0 -179.5 73.5t-74.5 177.5q0 103 75 176.5
t179 73.5q105 0 180 -73.5t75 -176.5q0 -104 -75 -177.5t-180 -73.5zM611 1244q46 0 79.5 33.5t33.5 82.5q0 47 -33.5 80.5t-79.5 33.5q-45 0 -78 -33.5t-33 -80.5q0 -49 32.5 -82.5t78.5 -33.5z" />
    <glyph glyph-name="Uhungarumlaut" unicode="&#x170;" horiz-adv-x="1566" 
d="M1392 1434v-869q0 -145 -47 -259.5t-130.5 -186t-193 -108.5t-238.5 -37t-238.5 37t-192.5 108.5t-130 186t-47 259.5v869h232v-851q0 -197 100.5 -291.5t275.5 -94.5t276 94.5t101 291.5v851h232zM1041 1562h-215l205 307h251zM691 1562h-218l182 307h243z" />
    <glyph glyph-name="uhungarumlaut" unicode="&#x171;" horiz-adv-x="1224" 
d="M1067 981v-565q0 -113 -38.5 -200t-103.5 -138.5t-144.5 -77.5t-168.5 -26t-168.5 26t-144.5 77.5t-103 138.5t-38 200v565h215v-546q0 -134 65.5 -196.5t173.5 -62.5q109 0 174.5 62.5t65.5 196.5v546h215zM887 1137h-215l205 307h250zM537 1137h-219l183 307h242z" />
    <glyph glyph-name="Uogonek" unicode="&#x172;" horiz-adv-x="1566" 
d="M1151 -195l114 -139q-106 -95 -256 -95q-132 0 -214.5 64.5t-82.5 161.5q0 106 87 178q-3 0 -8 -0.5t-8 -0.5q-129 0 -238.5 37t-192.5 108.5t-130 186t-47 259.5v869h232v-851q0 -197 100.5 -291.5t275.5 -94.5t276 94.5t101 291.5v851h232v-869q0 -190 -78 -322
t-215 -201q-95 -48 -136 -98t-41 -107q0 -36 27 -59t73 -23q70 0 129 50z" />
    <glyph glyph-name="uogonek" unicode="&#x173;" horiz-adv-x="1224" 
d="M928 -195l113 -139q-106 -95 -256 -95q-132 0 -214.5 64.5t-82.5 161.5q0 104 89 178q-84 5 -157.5 33.5t-133 80.5t-94 136t-34.5 191v565h215v-546q0 -134 65.5 -196.5t173.5 -62.5q109 0 174.5 62.5t65.5 196.5v546h215v-565q0 -275 -225 -394q-144 -75 -144 -185
q0 -36 27.5 -59t73.5 -23q70 0 129 50z" />
    <glyph glyph-name="Wcircumflex" unicode="&#x174;" horiz-adv-x="2232" 
d="M2183 1434l-437 -1434h-287l-343 1119l-343 -1119h-287l-437 1434h243l341 -1167l354 1167h263l354 -1167l342 1167h237zM1479 1551h-229l-134 167l-134 -167h-228l216 308h293z" />
    <glyph glyph-name="wcircumflex" unicode="&#x175;" horiz-adv-x="1714" 
d="M979 981l245 -750l231 750h223l-324 -981h-256l-243 739l-243 -739h-252l-324 981h228l231 -745l241 745h243zM1220 1126h-229l-134 167l-134 -167h-228l216 308h293z" />
    <glyph glyph-name="Ycircumflex" unicode="&#x176;" horiz-adv-x="1359" 
d="M1351 1434l-553 -852v-582h-232v586l-557 848h277l397 -642l398 642h270zM1046 1551h-229l-134 167l-134 -167h-228l216 308h292z" />
    <glyph glyph-name="ycircumflex" unicode="&#x177;" horiz-adv-x="1124" 
d="M1112 981l-774 -1397h-238l352 618l-436 779h241l315 -563l305 563h235zM930 1126h-229l-134 167l-134 -167h-228l216 308h293z" />
    <glyph glyph-name="Ydieresis" unicode="&#x178;" horiz-adv-x="1359" 
d="M1351 1434l-553 -852v-582h-232v586l-557 848h277l397 -642l398 642h270zM477 1858q64 0 108 -44t44 -108t-44 -107t-108 -43t-106.5 43t-42.5 107t43 108t106 44zM887 1858q64 0 107.5 -44t43.5 -108t-43.5 -107t-107.5 -43t-107 43t-43 107t43 108t107 44z" />
    <glyph glyph-name="Zacute" unicode="&#x179;" horiz-adv-x="1323" 
d="M1206 1434v-180l-782 -1035h782v-219h-1089v179l782 1035h-780v220h1087zM712 1562h-211l195 307h273z" />
    <glyph glyph-name="zacute" unicode="&#x17a;" horiz-adv-x="1065" 
d="M938 981v-156l-536 -630h546v-195h-830v156l545 630h-529v195h804zM593 1137h-211l196 307h272z" />
    <glyph glyph-name="Zdotaccent" unicode="&#x17b;" horiz-adv-x="1323" 
d="M1206 1434v-180l-782 -1035h782v-219h-1089v179l782 1035h-780v220h1087zM640 1871q68 0 114 -46.5t46 -113.5t-46 -112t-114 -45q-67 0 -112 45t-45 112q0 68 45 114t112 46z" />
    <glyph glyph-name="zdotaccent" unicode="&#x17c;" horiz-adv-x="1065" 
d="M938 981v-156l-536 -630h546v-195h-830v156l545 630h-529v195h804zM536 1471q64 0 107.5 -43.5t43.5 -107.5t-43.5 -107t-107.5 -43t-107 43t-43 107t43 107.5t107 43.5z" />
    <glyph glyph-name="Zcaron" unicode="&#x17d;" horiz-adv-x="1323" 
d="M1206 1434v-180l-782 -1035h782v-219h-1089v179l782 1035h-780v220h1087zM300 1859h228l135 -167l134 167h228l-216 -308h-293z" />
    <glyph glyph-name="zcaron" unicode="&#x17e;" horiz-adv-x="1065" 
d="M938 981v-156l-536 -630h546v-195h-830v156l545 630h-529v195h804zM174 1434h228l135 -167l134 167h228l-216 -308h-293z" />
    <glyph glyph-name="longs" unicode="&#x17f;" horiz-adv-x="649" 
d="M488 1500q148 0 274 -74l-76 -180q-90 52 -183 52q-62 0 -95 -39t-33 -112v-1147h-215v1147q0 157 82 255t246 98z" />
    <glyph glyph-name="uni018F" unicode="&#x18f;" horiz-adv-x="1654" 
d="M812 1459q204 0 370.5 -96.5t261 -266.5t94.5 -379q0 -157 -54.5 -295t-149 -236t-227 -155t-282.5 -57q-207 0 -369 94.5t-250.5 260.5t-88.5 373q0 39 4 117h1169q-32 184 -164 301t-313 117q-137 0 -241 -53.5t-194 -156.5l-161 160q249 272 595 272zM826 197
q173 0 301 113t162 293h-918q18 -174 144.5 -290t310.5 -116z" />
    <glyph glyph-name="florin" unicode="&#x192;" horiz-adv-x="1433" 
d="M1109 841v-197h-295l-32 -317q-9 -84 -29 -146t-56.5 -109.5t-94.5 -72t-138 -24.5q-139 0 -255 65l73 173q79 -44 168 -44q62 0 88 38t34 120l32 317h-242v197h263l27 266q9 84 29 145.5t57 109.5t95 72t138 24q139 0 255 -64l-74 -173q-79 44 -168 44
q-62 0 -88.5 -38.5t-34.5 -119.5l-26 -266h274z" />
    <glyph glyph-name="uni01B5" unicode="&#x1b5;" horiz-adv-x="1323" 
d="M1071 819v-212h-354l-293 -388h782v-219h-1089v179l328 435h-193v212h354l293 388h-780v220h1087v-180l-328 -435h193z" />
    <glyph glyph-name="uni01B6" unicode="&#x1b6;" horiz-adv-x="1065" 
d="M876 578v-164h-288l-186 -219h546v-195h-830v156l228 265h-156v164h297l176 201h-529v195h804v-156l-210 -247h148z" />
    <glyph glyph-name="uni01CD" unicode="&#x1cd;" horiz-adv-x="1482" 
d="M886 1434l566 -1434h-249l-141 366h-649l-142 -366h-240l566 1434h289zM737 1203l-239 -618h479zM379 1859h228l134 -167l135 167h228l-216 -308h-293z" />
    <glyph glyph-name="uni01CE" unicode="&#x1ce;" horiz-adv-x="1277" 
d="M1110 981v-981h-214v118q-113 -144 -308 -144q-136 0 -248 66t-177.5 184.5t-65.5 265.5q0 223 142 370t349 147q195 0 308 -145v119h214zM613 805q-134 0 -215 -91t-81 -224t81 -223.5t215 -90.5q131 0 213.5 89t82.5 225t-82.5 225.5t-213.5 89.5zM273 1434h229
l134 -167l134 167h228l-216 -308h-293z" />
    <glyph glyph-name="uni01CF" unicode="&#x1cf;" horiz-adv-x="620" 
d="M426 1434v-1434h-231v1434h231zM-52 1859h228l134 -167l134 167h229l-216 -308h-293z" />
    <glyph glyph-name="uni01D0" unicode="&#x1d0;" horiz-adv-x="550" 
d="M383 981v-981h-215v981h215zM-87 1434h228l134 -167l135 167h228l-216 -308h-293z" />
    <glyph glyph-name="uni01D1" unicode="&#x1d1;" horiz-adv-x="1734" 
d="M867 1460q217 0 388.5 -96t267 -265.5t95.5 -381.5q0 -159 -56 -296.5t-154 -236t-238.5 -155t-302.5 -56.5q-217 0 -388.5 96.5t-266.5 266t-95 381.5q0 159 55.5 296.5t154 236t238.5 154.5t302 56zM867 1238q-221 0 -364.5 -145.5t-143.5 -375.5t143.5 -375.5
t364.5 -145.5t364.5 145.5t143.5 375.5t-143.5 375.5t-364.5 145.5zM505 1859h228l134 -167l134 167h229l-216 -308h-293z" />
    <glyph glyph-name="uni01D2" unicode="&#x1d2;" horiz-adv-x="1250" 
d="M625 1007q227 0 377.5 -148t150.5 -369t-150.5 -368.5t-377.5 -147.5t-377.5 147.5t-150.5 368.5t150.5 369t377.5 148zM625 805q-132 0 -220 -88.5t-88 -226.5t88 -226t220 -88t220 88t88 226t-88 226.5t-220 88.5zM262 1434h228l135 -167l134 167h228l-216 -308h-293z
" />
    <glyph glyph-name="uni01D3" unicode="&#x1d3;" horiz-adv-x="1566" 
d="M1392 1434v-869q0 -145 -47 -259.5t-130.5 -186t-193 -108.5t-238.5 -37t-238.5 37t-192.5 108.5t-130 186t-47 259.5v869h232v-851q0 -197 100.5 -291.5t275.5 -94.5t276 94.5t101 291.5v851h232zM421 1859h228l134 -167l135 167h228l-216 -308h-293z" />
    <glyph glyph-name="uni01D4" unicode="&#x1d4;" horiz-adv-x="1224" 
d="M1067 981v-565q0 -113 -38.5 -200t-103.5 -138.5t-144.5 -77.5t-168.5 -26t-168.5 26t-144.5 77.5t-103 138.5t-38 200v565h215v-546q0 -134 65.5 -196.5t173.5 -62.5q109 0 174.5 62.5t65.5 196.5v546h215zM250 1434h228l134 -167l134 167h229l-216 -308h-293z" />
    <glyph glyph-name="uni01D5" unicode="&#x1d5;" horiz-adv-x="1566" 
d="M1392 1434v-869q0 -145 -47 -259.5t-130.5 -186t-193 -108.5t-238.5 -37t-238.5 37t-192.5 108.5t-130 186t-47 259.5v869h232v-851q0 -197 100.5 -291.5t275.5 -94.5t276 94.5t101 291.5v851h232zM466 1963v174h635v-174h-635zM578 1858q64 0 107.5 -44t43.5 -108
t-43.5 -107t-107.5 -43t-107 43t-43 107t43 108t107 44zM987 1858q64 0 108 -44t44 -108t-44 -107t-108 -43t-106.5 43t-42.5 107t43 108t106 44z" />
    <glyph glyph-name="uni01D6" unicode="&#x1d6;" horiz-adv-x="1224" 
d="M1067 981v-565q0 -113 -38.5 -200t-103.5 -138.5t-144.5 -77.5t-168.5 -26t-168.5 26t-144.5 77.5t-103 138.5t-38 200v565h215v-546q0 -134 65.5 -196.5t173.5 -62.5q109 0 174.5 62.5t65.5 196.5v546h215zM407 1433q64 0 107.5 -44t43.5 -108t-43.5 -106.5
t-107.5 -42.5t-107 42.5t-43 106.5t43 108t107 44zM816 1433q64 0 108 -44t44 -108q0 -63 -44 -106t-108 -43t-106.5 42.5t-42.5 106.5t43 108t106 44zM295 1551v174h635v-174h-635z" />
    <glyph glyph-name="uni01D7" unicode="&#x1d7;" horiz-adv-x="1566" 
d="M1392 1434v-869q0 -145 -47 -259.5t-130.5 -186t-193 -108.5t-238.5 -37t-238.5 37t-192.5 108.5t-130 186t-47 259.5v869h232v-851q0 -197 100.5 -291.5t275.5 -94.5t276 94.5t101 291.5v851h232zM833 1958h-211l195 307h273zM578 1858q64 0 107.5 -44t43.5 -108
t-43.5 -107t-107.5 -43t-107 43t-43 107t43 108t107 44zM987 1858q64 0 108 -44t44 -108t-44 -107t-108 -43t-106.5 43t-42.5 107t43 108t106 44z" />
    <glyph glyph-name="uni01D8" unicode="&#x1d8;" horiz-adv-x="1224" 
d="M1067 981v-565q0 -113 -38.5 -200t-103.5 -138.5t-144.5 -77.5t-168.5 -26t-168.5 26t-144.5 77.5t-103 138.5t-38 200v565h215v-546q0 -134 65.5 -196.5t173.5 -62.5q109 0 174.5 62.5t65.5 196.5v546h215zM407 1433q64 0 107.5 -44t43.5 -108t-43.5 -106.5
t-107.5 -42.5t-107 42.5t-43 106.5t43 108t107 44zM816 1433q64 0 108 -44t44 -108q0 -63 -44 -106t-108 -43t-106.5 42.5t-42.5 106.5t43 108t106 44zM662 1546h-211l195 307h273z" />
    <glyph glyph-name="uni01D9" unicode="&#x1d9;" horiz-adv-x="1566" 
d="M1392 1434v-869q0 -145 -47 -259.5t-130.5 -186t-193 -108.5t-238.5 -37t-238.5 37t-192.5 108.5t-130 186t-47 259.5v869h232v-851q0 -197 100.5 -291.5t275.5 -94.5t276 94.5t101 291.5v851h232zM421 2255h228l134 -167l135 167h228l-216 -307h-293zM578 1858
q64 0 107.5 -44t43.5 -108t-43.5 -107t-107.5 -43t-107 43t-43 107t43 108t107 44zM987 1858q64 0 108 -44t44 -108t-44 -107t-108 -43t-106.5 43t-42.5 107t43 108t106 44z" />
    <glyph glyph-name="uni01DA" unicode="&#x1da;" horiz-adv-x="1224" 
d="M1067 981v-565q0 -113 -38.5 -200t-103.5 -138.5t-144.5 -77.5t-168.5 -26t-168.5 26t-144.5 77.5t-103 138.5t-38 200v565h215v-546q0 -134 65.5 -196.5t173.5 -62.5q109 0 174.5 62.5t65.5 196.5v546h215zM407 1433q64 0 107.5 -44t43.5 -108t-43.5 -106.5
t-107.5 -42.5t-107 42.5t-43 106.5t43 108t107 44zM816 1433q64 0 108 -44t44 -108q0 -63 -44 -106t-108 -43t-106.5 42.5t-42.5 106.5t43 108t106 44zM250 1843h228l134 -167l134 167h229l-216 -307h-293z" />
    <glyph glyph-name="uni01DB" unicode="&#x1db;" horiz-adv-x="1566" 
d="M1392 1434v-869q0 -145 -47 -259.5t-130.5 -186t-193 -108.5t-238.5 -37t-238.5 37t-192.5 108.5t-130 186t-47 259.5v869h232v-851q0 -197 100.5 -291.5t275.5 -94.5t276 94.5t101 291.5v851h232zM719 1958l-257 307h272l196 -307h-211zM578 1858q64 0 107.5 -44
t43.5 -108t-43.5 -107t-107.5 -43t-107 43t-43 107t43 108t107 44zM987 1858q64 0 108 -44t44 -108t-44 -107t-108 -43t-106.5 43t-42.5 107t43 108t106 44z" />
    <glyph glyph-name="uni01DC" unicode="&#x1dc;" horiz-adv-x="1224" 
d="M1067 981v-565q0 -113 -38.5 -200t-103.5 -138.5t-144.5 -77.5t-168.5 -26t-168.5 26t-144.5 77.5t-103 138.5t-38 200v565h215v-546q0 -134 65.5 -196.5t173.5 -62.5q109 0 174.5 62.5t65.5 196.5v546h215zM407 1433q64 0 107.5 -44t43.5 -108t-43.5 -106.5
t-107.5 -42.5t-107 42.5t-43 106.5t43 108t107 44zM816 1433q64 0 108 -44t44 -108q0 -63 -44 -106t-108 -43t-106.5 42.5t-42.5 106.5t43 108t106 44zM548 1546l-257 307h272l196 -307h-211z" />
    <glyph glyph-name="uni01E2" unicode="&#x1e2;" horiz-adv-x="2372" 
d="M2217 217v-217h-1046v329h-620l-247 -329h-279l1082 1434h1097v-217h-801v-387h773v-217h-773v-396h814zM716 548h455v606zM1263 1618v174h634v-174h-634z" />
    <glyph glyph-name="uni01E3" unicode="&#x1e3;" horiz-adv-x="1806" 
d="M1245 1007q206 0 334.5 -143t129.5 -372q0 -30 -4 -80h-725q21 -126 101 -188t191 -62q73 0 147.5 27t135.5 76l107 -152q-164 -139 -404 -139q-118 0 -216 43t-166 122q-161 -165 -396 -165q-184 0 -283.5 88t-99.5 229q0 135 107 213t284 78h271q-11 230 -251 230
q-135 0 -270 -98l-88 169q169 124 386 124q242 0 355 -161q61 76 155 118.5t199 42.5zM507 161q71 0 147.5 32t133.5 98q-19 58 -27 128h-242q-101 0 -146 -37t-45 -91q0 -53 45 -91.5t134 -38.5zM1241 816q-111 0 -176.5 -65t-83.5 -177h509q-18 115 -82.5 178.5
t-166.5 63.5zM591 1193v174h635v-174h-635z" />
    <glyph glyph-name="Gcaron" unicode="&#x1e6;" horiz-adv-x="1678" 
d="M867 1460q169 0 312.5 -60.5t242.5 -170.5l-170 -165q-69 82 -168 128t-217 46q-221 0 -364.5 -145.5t-143.5 -375.5q0 -229 142 -375t356 -146q194 0 309 96t143 275h-380v215h631q2 -36 2 -55q0 -123 -30.5 -236t-90.5 -207t-144 -163.5t-197 -108t-243 -38.5
q-141 0 -272 50t-236 141.5t-168.5 235t-63.5 316.5q0 213 96 382.5t267.5 265t386.5 95.5zM477 1859h229l134 -167l134 167h228l-216 -308h-293z" />
    <glyph glyph-name="gcaron" unicode="&#x1e7;" horiz-adv-x="1261" 
d="M552 1007q212 0 327 -144v118h215v-912q0 -231 -140.5 -364.5t-386.5 -133.5q-113 0 -224 30t-186 84l77 181q163 -99 333 -99q150 0 231 77t81 215v79q-113 -143 -327 -143q-85 0 -166 35t-145.5 98.5t-104 160.5t-39.5 212t39.5 212t104 160.5t145.5 98.5t166 35z
M607 805q-132 0 -211 -87.5t-79 -216.5q0 -128 79 -216t211 -88q128 0 209 86.5t81 217.5t-81 217.5t-209 86.5zM245 1434h228l134 -167l134 167h229l-216 -308h-293z" />
    <glyph glyph-name="Aringacute" unicode="&#x1fa;" horiz-adv-x="1482" 
d="M271 0h-240l540 1369q-88 75 -88 191q0 103 75 176t179 73q105 0 180 -73t75 -176q0 -113 -83 -186l543 -1374h-249l-141 366h-649zM737 1203l-239 -618h479zM786 1879h-211l196 307h272zM737 1444q46 0 79.5 33.5t33.5 82.5q0 47 -33.5 80t-79.5 33q-45 0 -78 -33
t-33 -80q0 -49 32.5 -82.5t78.5 -33.5z" />
    <glyph glyph-name="aringacute" unicode="&#x1fb;" horiz-adv-x="1277" 
d="M1110 981v-981h-214v118q-113 -144 -308 -144q-136 0 -248 66t-177.5 184.5t-65.5 265.5q0 223 142 370t349 147q195 0 308 -145v119h214zM613 805q-134 0 -215 -91t-81 -224t81 -223.5t215 -90.5q131 0 213.5 89t82.5 225t-82.5 225.5t-213.5 89.5zM629 1068
q-105 0 -179.5 73.5t-74.5 177.5q0 103 75 176.5t179 73.5q105 0 180 -73.5t75 -176.5q0 -104 -75 -177.5t-180 -73.5zM629 1203q46 0 79 33.5t33 82.5q0 47 -33 80.5t-79 33.5q-45 0 -78.5 -33.5t-33.5 -80.5q0 -49 33 -82.5t79 -33.5zM679 1625h-211l196 307h272z" />
    <glyph glyph-name="AEacute" unicode="&#x1fc;" horiz-adv-x="2372" 
d="M2217 217v-217h-1046v329h-620l-247 -329h-279l1082 1434h1097v-217h-801v-387h773v-217h-773v-396h814zM716 548h455v606zM1629 1562h-211l196 307h272z" />
    <glyph glyph-name="aeacute" unicode="&#x1fd;" horiz-adv-x="1806" 
d="M1245 1007q206 0 334.5 -143t129.5 -372q0 -30 -4 -80h-725q21 -126 101 -188t191 -62q73 0 147.5 27t135.5 76l107 -152q-164 -139 -404 -139q-118 0 -216 43t-166 122q-161 -165 -396 -165q-184 0 -283.5 88t-99.5 229q0 135 107 213t284 78h271q-11 230 -251 230
q-135 0 -270 -98l-88 169q169 124 386 124q242 0 355 -161q61 76 155 118.5t199 42.5zM507 161q71 0 147.5 32t133.5 98q-19 58 -27 128h-242q-101 0 -146 -37t-45 -91q0 -53 45 -91.5t134 -38.5zM1241 816q-111 0 -176.5 -65t-83.5 -177h509q-18 115 -82.5 178.5
t-166.5 63.5zM965 1137h-211l195 307h273z" />
    <glyph glyph-name="Oslashacute" unicode="&#x1fe;" horiz-adv-x="1734" 
d="M867 1460q261 0 454 -138l137 137l153 -152l-136 -137q143 -193 143 -453q0 -159 -56 -296.5t-154 -236t-238.5 -155t-302.5 -56.5q-258 0 -453 138l-136 -137l-153 152l135 135q-143 195 -143 456q0 159 55.5 296.5t154 236t238.5 154.5t302 56zM867 1238
q-221 0 -364.5 -145.5t-143.5 -375.5q0 -161 73 -284l722 722q-125 83 -287 83zM1375 717q0 157 -72 281l-722 -722q125 -80 286 -80q221 0 364.5 145.5t143.5 375.5zM916 1562h-210l195 307h273z" />
    <glyph glyph-name="oslashacute" unicode="&#x1ff;" horiz-adv-x="1250" 
d="M625 1007q168 0 302 -87l105 105l129 -129l-103 -103q95 -133 95 -303q0 -221 -150.5 -368.5t-377.5 -147.5q-168 0 -300 85l-106 -105l-130 128l104 103q-96 136 -96 305q0 221 150.5 369t377.5 148zM625 805q-132 0 -220 -88.5t-88 -226.5q0 -79 32 -148l426 426
q-68 37 -150 37zM933 490q0 79 -32 146l-425 -425q67 -35 149 -35q132 0 220 88t88 226zM681 1137h-211l196 307h272z" />
    <glyph glyph-name="Scommaaccent" unicode="&#x218;" horiz-adv-x="1384" 
d="M1251 1304l-117 -188q-192 123 -403 123q-144 0 -233 -58t-89 -156q0 -84 73.5 -126.5t224.5 -64.5l99 -14q462 -64 462 -394q0 -141 -80 -245.5t-208.5 -155.5t-286.5 -51q-154 0 -311.5 50.5t-264.5 142.5l126 184q74 -68 200 -112.5t249 -44.5q144 0 239.5 57.5
t95.5 154.5q0 82 -78.5 126t-243.5 67l-112 15q-68 10 -126.5 27.5t-115 49t-96 74t-63.5 106t-24 140.5q0 140 77.5 243t204 153.5t283.5 50.5q287 0 518 -154zM610 -89h237l-85 -377h-190z" />
    <glyph glyph-name="scommaaccent" unicode="&#x219;" horiz-adv-x="1035" 
d="M928 902l-92 -167q-51 32 -135.5 58t-168.5 26q-87 0 -136 -32t-49 -85q0 -47 41 -68t121 -33l101 -15q341 -49 341 -290q0 -144 -119 -232.5t-327 -88.5q-100 0 -212.5 27.5t-208.5 98.5l99 161q131 -100 324 -100q108 0 165.5 32t57.5 88q0 85 -170 108l-102 13
q-163 23 -248 96.5t-85 191.5q0 146 108.5 230.5t296.5 84.5q239 0 398 -104zM427 -89h237l-85 -377h-190z" />
    <glyph glyph-name="uni021A" unicode="&#x21a;" horiz-adv-x="1236" 
d="M1198 1434v-220h-464v-1214h-231v1214h-464v220h1159zM519 -89h237l-85 -377h-190z" />
    <glyph glyph-name="uni021B" unicode="&#x21b;" horiz-adv-x="929" 
d="M837 981v-195h-376v-427q0 -94 42.5 -138.5t112.5 -44.5q93 0 198 67l85 -171q-146 -98 -301 -98q-170 0 -261 94.5t-91 286.5v431h-196v195h196v297h215v-297h376zM450 -89h236l-85 -377h-189z" />
    <glyph glyph-name="uni0232" unicode="&#x232;" horiz-adv-x="1359" 
d="M1351 1434l-553 -852v-582h-232v586l-557 848h277l397 -642l398 642h270zM366 1618v174h634v-174h-634z" />
    <glyph glyph-name="uni0233" unicode="&#x233;" horiz-adv-x="1124" 
d="M1112 981l-774 -1397h-238l352 618l-436 779h241l315 -563l305 563h235zM250 1193v174h635v-174h-635z" />
    <glyph glyph-name="uni0237" unicode="&#x237;" horiz-adv-x="557" 
d="M389 981v-1102q0 -148 -79 -228t-209 -80q-83 0 -148 30l50 186q39 -14 79 -14q41 0 66.5 28t25.5 88v1092h215z" />
    <glyph glyph-name="uni0259" unicode="&#x259;" horiz-adv-x="1146" 
d="M561 -26q-206 0 -334.5 143t-129.5 372q0 30 4 80h725q-21 126 -100.5 188t-190.5 62q-74 0 -148.5 -27t-135.5 -76l-107 152q164 139 404 139q222 0 362 -142.5t140 -374.5q0 -230 -136 -373t-353 -143zM565 165q111 0 176.5 65t83.5 177h-509q18 -115 82.5 -178.5
t166.5 -63.5z" />
    <glyph glyph-name="uni02BB" unicode="&#x2bb;" horiz-adv-x="517" 
d="M358 916h-250l122 559h185z" />
    <glyph glyph-name="afii57929" unicode="&#x2bc;" horiz-adv-x="517" 
d="M159 1475h251l-123 -559h-185z" />
    <glyph glyph-name="uni02BE" unicode="&#x2be;" horiz-adv-x="569" 
d="M136 711v197q72 0 124.5 57t52.5 135q0 81 -52.5 137t-124.5 56v198q160 0 273 -114t113 -277q0 -161 -113 -275t-273 -114z" />
    <glyph glyph-name="uni02BF" unicode="&#x2bf;" horiz-adv-x="569" 
d="M433 1491v-198q-72 0 -124.5 -56.5t-52.5 -134.5q0 -81 52.5 -137.5t124.5 -56.5v-197q-160 0 -273 114t-113 277q0 161 113 275t273 114z" />
    <glyph glyph-name="circumflex" unicode="&#x2c6;" horiz-adv-x="1024" 
d="M874 1126h-228l-134 167l-134 -167h-228l216 308h292z" />
    <glyph glyph-name="caron" unicode="&#x2c7;" horiz-adv-x="1024" 
d="M150 1434h228l134 -167l134 167h228l-216 -308h-292z" />
    <glyph glyph-name="breve" unicode="&#x2d8;" horiz-adv-x="1024" 
d="M134 1417l172 52q58 -177 206 -177t206 177l172 -52q-44 -150 -141.5 -228t-236.5 -78t-236.5 78t-141.5 228z" />
    <glyph glyph-name="dotaccent" unicode="&#x2d9;" horiz-adv-x="636" 
d="M317 1471q64 0 108 -43.5t44 -107.5t-44 -107t-108 -43t-106.5 43t-42.5 107t42.5 107.5t106.5 43.5z" />
    <glyph glyph-name="ring" unicode="&#x2da;" horiz-adv-x="1024" 
d="M512 1109q-105 0 -179.5 73.5t-74.5 177.5q0 103 75 176.5t179 73.5q105 0 180 -73.5t75 -176.5q0 -104 -75 -177.5t-180 -73.5zM512 1244q46 0 79.5 33.5t33.5 82.5q0 47 -33.5 80.5t-79.5 33.5q-45 0 -78.5 -33.5t-33.5 -80.5q0 -49 33 -82.5t79 -33.5z" />
    <glyph glyph-name="ogonek" unicode="&#x2db;" horiz-adv-x="1134" 
d="M838 -195l113 -139q-106 -95 -256 -95q-131 0 -210 67.5t-79 177.5q0 108 81 183t246 134l95 -121q-120 -41 -170 -83.5t-50 -91.5q0 -36 27.5 -59t73.5 -23q70 0 129 50z" />
    <glyph glyph-name="tilde" unicode="&#x2dc;" horiz-adv-x="1024" 
d="M242 1158l-111 136q53 59 111 87t135 28q60 0 113.5 -17.5t92.5 -35t65 -17.5q57 0 135 67l111 -136q-53 -59 -111 -87t-135 -28q-59 0 -111.5 17.5t-92.5 35t-67 17.5q-57 0 -135 -67z" />
    <glyph glyph-name="hungarumlaut" unicode="&#x2dd;" horiz-adv-x="1024" 
d="M694 1137h-211l196 307h272zM284 1137h-211l195 307h273z" />
    <glyph glyph-name="gravecomb" unicode="&#x300;" 
d="M-695 1137l-257 307h272l196 -307h-211z" />
    <glyph glyph-name="acutecomb" unicode="&#x301;" 
d="M-569 1137h-211l195 307h273z" />
    <glyph glyph-name="uni0302" unicode="&#x302;" 
d="M-263 1126h-229l-134 167l-134 -167h-228l216 308h293z" />
    <glyph glyph-name="tildecomb" unicode="&#x303;" 
d="M-895 1158l-111 136q53 59 111 87t135 28q60 0 113.5 -17.5t93 -35t65.5 -17.5q57 0 135 67l110 -136q-53 -60 -110.5 -87.5t-134.5 -27.5q-59 0 -112 17.5t-93 35t-67 17.5q-57 0 -135 -67z" />
    <glyph glyph-name="uni0304" unicode="&#x304;" 
d="M-943 1193v174h635v-174h-635z" />
    <glyph glyph-name="uni0306" unicode="&#x306;" 
d="M-1004 1417l173 52q58 -177 205 -177q148 0 206 177l172 -52q-44 -150 -141.5 -228t-236.5 -78t-236.5 78t-141.5 228z" />
    <glyph glyph-name="uni0307" unicode="&#x307;" 
d="M-627 1471q64 0 108 -43.5t44 -107.5t-44 -107t-108 -43t-106.5 43t-42.5 107t42.5 107.5t106.5 43.5z" />
    <glyph glyph-name="uni0308" unicode="&#x308;" 
d="M-831 1433q64 0 107.5 -44t43.5 -108t-43.5 -106.5t-107.5 -42.5t-107 42.5t-43 106.5t43 108t107 44zM-422 1433q64 0 108 -44t44 -108q0 -63 -44 -106t-108 -43t-106.5 42.5t-42.5 106.5t43 108t106 44z" />
    <glyph glyph-name="uni030A" unicode="&#x30a;" 
d="M-627 1109q-105 0 -179.5 73.5t-74.5 177.5q0 103 75 176.5t179 73.5q105 0 180 -73.5t75 -176.5q0 -104 -75 -177.5t-180 -73.5zM-627 1244q46 0 79.5 33.5t33.5 82.5q0 47 -33.5 80.5t-79.5 33.5q-45 0 -78 -33.5t-33 -80.5q0 -49 32.5 -82.5t78.5 -33.5z" />
    <glyph glyph-name="uni030B" unicode="&#x30b;" 
d="M-351 1137h-215l205 307h250zM-701 1137h-219l183 307h242z" />
    <glyph glyph-name="uni030C" unicode="&#x30c;" 
d="M-988 1434h228l134 -167l134 167h229l-216 -308h-293z" />
    <glyph glyph-name="uni0312" unicode="&#x312;" 
d="M-516 1137h-237l85 376h190z" />
    <glyph glyph-name="dotbelowcomb" unicode="&#x323;" 
d="M-626 -126q64 0 108 -44t44 -108q0 -63 -44 -106t-108 -43t-106.5 42.5t-42.5 106.5t43 108t106 44z" />
    <glyph glyph-name="uni0326" unicode="&#x326;" 
d="M-736 -89h236l-85 -377h-189z" />
    <glyph glyph-name="uni0327" unicode="&#x327;" 
d="M-460 7l-105 -336h-225l114 336h216z" />
    <glyph glyph-name="uni0328" unicode="&#x328;" 
d="M-462 -195l114 -139q-106 -95 -256 -95q-132 0 -214.5 64.5t-82.5 161.5q0 109 88 178.5t278 128.5l20 -62q-95 -49 -135.5 -98.5t-40.5 -106.5q0 -36 27 -59t73 -23q70 0 129 50z" />
    <glyph glyph-name="uni032E" unicode="&#x32e;" 
d="M-1002 -136l172 52q58 -177 205 -177q148 0 206 177l172 -52q-44 -150 -141.5 -228t-236.5 -78t-236 78t-141 228z" />
    <glyph glyph-name="uni0331" unicode="&#x331;" 
d="M-942 -358v174h635v-174h-635z" />
    <glyph glyph-name="uni0335" unicode="&#x335;" 
d="M-251 643v-194h-747v194h747z" />
    <glyph glyph-name="uni0336" unicode="&#x336;" 
d="M143 643v-194h-1536v194h1536z" />
    <glyph glyph-name="uni0394" unicode="&#x394;" horiz-adv-x="1432" 
d="M861 1434l494 -1255v-179h-1277v179l494 1255h289zM717 1202l-379 -983h757z" />
    <glyph glyph-name="uni03A9" unicode="&#x3a9;" horiz-adv-x="1763" 
d="M78 219h275q-106 94 -164 222t-58 276q0 212 95.5 381.5t267 265.5t388.5 96q162 0 302 -56t238.5 -154.5t154 -236t55.5 -296.5q0 -148 -58 -276t-164 -222h276v-219h-642v188q157 50 251.5 189t94.5 330q0 235 -143.5 383t-364.5 148t-364.5 -148t-143.5 -383
q0 -192 94 -330.5t251 -188.5v-188h-641v219z" />
    <glyph glyph-name="uni03BC" unicode="&#x3bc;" horiz-adv-x="1238" 
d="M371 -410h-213v1391h215v-546q0 -123 60 -190t168 -67t181 69t73 190v544h215v-981h-213v120q-99 -146 -301 -146q-101 0 -185 39v-423z" />
    <glyph glyph-name="pi" unicode="&#x3c0;" horiz-adv-x="1236" 
d="M1079 981v-981h-215v786h-481v-786h-215v981h911z" />
    <glyph glyph-name="uni1E0C" unicode="&#x1e0c;" horiz-adv-x="1625" 
d="M195 1434h569q337 0 540.5 -196.5t203.5 -520.5t-203.5 -520.5t-540.5 -196.5h-569v1434zM764 1214h-338v-995h338q245 0 373.5 136.5t128.5 361.5q0 227 -128.5 362t-373.5 135zM787 -126q64 0 108 -44t44 -108q0 -63 -44 -106t-108 -43t-106.5 42.5t-42.5 106.5t43 108
t106 44z" />
    <glyph glyph-name="uni1E0D" unicode="&#x1e0d;" horiz-adv-x="1277" 
d="M588 1007q195 0 308 -145v613h214v-1475h-214v118q-113 -144 -308 -144q-136 0 -248 66t-177.5 184.5t-65.5 265.5q0 223 142 370t349 147zM613 805q-134 0 -215 -91t-81 -224t81 -223.5t215 -90.5q131 0 213.5 89t82.5 225t-82.5 225.5t-213.5 89.5zM642 -126
q64 0 108 -44t44 -108q0 -63 -44 -106t-108 -43t-106.5 42.5t-42.5 106.5t43 108t106 44z" />
    <glyph glyph-name="uni1E0E" unicode="&#x1e0e;" horiz-adv-x="1625" 
d="M195 1434h569q337 0 540.5 -196.5t203.5 -520.5t-203.5 -520.5t-540.5 -196.5h-569v1434zM764 1214h-338v-995h338q245 0 373.5 136.5t128.5 361.5q0 227 -128.5 362t-373.5 135zM471 -358v174h635v-174h-635z" />
    <glyph glyph-name="uni1E0F" unicode="&#x1e0f;" horiz-adv-x="1277" 
d="M588 1007q195 0 308 -145v613h214v-1475h-214v118q-113 -144 -308 -144q-136 0 -248 66t-177.5 184.5t-65.5 265.5q0 223 142 370t349 147zM613 805q-134 0 -215 -91t-81 -224t81 -223.5t215 -90.5q131 0 213.5 89t82.5 225t-82.5 225.5t-213.5 89.5zM325 -358v174h634
v-174h-634z" />
    <glyph glyph-name="uni1E24" unicode="&#x1e24;" horiz-adv-x="1626" 
d="M426 1434v-603h774v603h232v-1434h-232v612h-774v-612h-231v1434h231zM812 -126q64 0 108 -44t44 -108q0 -63 -44 -106t-108 -43t-106.5 42.5t-42.5 106.5t43 108t106 44z" />
    <glyph glyph-name="uni1E25" unicode="&#x1e25;" horiz-adv-x="1238" 
d="M383 1475v-611q100 143 299 143q175 0 286.5 -109.5t111.5 -281.5v-616h-215v546q0 123 -60 190t-168 67t-181 -69t-73 -190v-544h-215v1475h215zM625 -126q64 0 107.5 -44t43.5 -108t-43.5 -106.5t-107.5 -42.5t-107 42.5t-43 106.5t43 108t107 44z" />
    <glyph glyph-name="uni1E28" unicode="&#x1e28;" horiz-adv-x="1626" 
d="M426 1434v-603h774v603h232v-1434h-232v612h-774v-612h-4l-104 -329h-234l113 329h-2v1434h231z" />
    <glyph glyph-name="uni1E29" unicode="&#x1e29;" horiz-adv-x="1238" 
d="M383 0h-3l-101 -329h-225l116 329h-2v1475h215v-611q100 143 299 143q175 0 286.5 -109.5t111.5 -281.5v-616h-215v546q0 123 -60 190t-168 67t-181 -69t-73 -190v-544z" />
    <glyph glyph-name="uni1E2A" unicode="&#x1e2a;" horiz-adv-x="1626" 
d="M426 1434v-603h774v603h232v-1434h-232v612h-774v-612h-231v1434h231zM435 -136l172 52q58 -177 206 -177t206 177l172 -52q-44 -150 -141.5 -228t-236.5 -78t-236.5 78t-141.5 228z" />
    <glyph glyph-name="uni1E2B" unicode="&#x1e2b;" horiz-adv-x="1238" 
d="M383 1475v-611q100 143 299 143q175 0 286.5 -109.5t111.5 -281.5v-616h-215v546q0 123 -60 190t-168 67t-181 -69t-73 -190v-544h-215v1475h215zM247 -136l172 52q58 -177 206 -177q147 0 205 177l172 -52q-44 -150 -141 -228t-236 -78t-236.5 78t-141.5 228z" />
    <glyph glyph-name="uni1E32" unicode="&#x1e32;" horiz-adv-x="1458" 
d="M1135 0l-571 611h-138v-611h-231v1434h231v-604h141l539 604h299l-645 -700l689 -734h-314zM730 -126q64 0 108 -44t44 -108q0 -63 -44 -106t-108 -43t-106.5 42.5t-42.5 106.5t43 108t106 44z" />
    <glyph glyph-name="uni1E33" unicode="&#x1e33;" horiz-adv-x="1111" 
d="M383 1475v-867h107l324 373h269l-410 -462l414 -519h-271l-327 414h-106v-414h-215v1475h215zM582 -126q64 0 107.5 -44t43.5 -108t-43.5 -106.5t-107.5 -42.5t-107 42.5t-43 106.5t43 108t107 44z" />
    <glyph glyph-name="uni1E36" unicode="&#x1e36;" horiz-adv-x="1258" 
d="M1220 219v-219h-1025v1434h231v-1215h794zM701 -126q64 0 108 -44t44 -108q0 -63 -44 -106t-108 -43t-106.5 42.5t-42.5 106.5t43 108t106 44z" />
    <glyph glyph-name="uni1E37" unicode="&#x1e37;" horiz-adv-x="550" 
d="M383 1475v-1475h-215v1475h215zM275 -126q64 0 108 -44t44 -108q0 -63 -44 -106t-108 -43t-106.5 42.5t-42.5 106.5t43 108t106 44z" />
    <glyph glyph-name="uni1E38" unicode="&#x1e38;" horiz-adv-x="1258" 
d="M1220 219v-219h-1025v1434h231v-1215h794zM701 -126q64 0 108 -44t44 -108q0 -63 -44 -106t-108 -43t-106.5 42.5t-42.5 106.5t43 108t106 44zM-7 1618v174h635v-174h-635z" />
    <glyph glyph-name="uni1E39" unicode="&#x1e39;" horiz-adv-x="550" 
d="M383 1475v-1475h-215v1475h215zM-56 1645v174h635v-174h-635zM275 -126q64 0 108 -44t44 -108q0 -63 -44 -106t-108 -43t-106.5 42.5t-42.5 106.5t43 108t106 44z" />
    <glyph glyph-name="uni1E3A" unicode="&#x1e3a;" horiz-adv-x="1258" 
d="M1220 219v-219h-1025v1434h231v-1215h794zM385 -358v174h635v-174h-635z" />
    <glyph glyph-name="uni1E3B" unicode="&#x1e3b;" horiz-adv-x="550" 
d="M383 1475v-1475h-215v1475h215zM-42 -358v174h635v-174h-635z" />
    <glyph glyph-name="uni1E40" unicode="&#x1e40;" horiz-adv-x="1933" 
d="M1739 1434v-1434h-232v1180l-418 -1040h-244l-419 1028v-1168h-231v1434h355l417 -1024l416 1024h356zM944 1871q68 0 114 -46.5t46 -113.5t-46 -112t-114 -45q-67 0 -112 45t-45 112q0 68 45 114t112 46z" />
    <glyph glyph-name="uni1E41" unicode="&#x1e41;" horiz-adv-x="1935" 
d="M1379 1007q175 0 287 -109.5t112 -281.5v-616h-215v546q0 123 -60.5 190t-168.5 67t-181 -69t-73 -190v-544h-215v546q0 123 -60 190t-168 67t-181 -69t-73 -190v-544h-215v981h213v-120q99 146 301 146q111 0 199 -46.5t140 -129.5q30 50 73.5 86t92.5 55t95.5 27
t96.5 8zM972 1471q64 0 107.5 -43.5t43.5 -107.5t-43.5 -107t-107.5 -43t-107 43t-43 107t43 107.5t107 43.5z" />
    <glyph glyph-name="uni1E42" unicode="&#x1e42;" horiz-adv-x="1933" 
d="M1739 1434v-1434h-232v1180l-418 -1040h-244l-419 1028v-1168h-231v1434h355l417 -1024l416 1024h356zM966 -126q64 0 107.5 -44t43.5 -108t-43.5 -106.5t-107.5 -42.5t-107 42.5t-43 106.5t43 108t107 44z" />
    <glyph glyph-name="uni1E43" unicode="&#x1e43;" horiz-adv-x="1935" 
d="M1379 1007q175 0 287 -109.5t112 -281.5v-616h-215v546q0 123 -60.5 190t-168.5 67t-181 -69t-73 -190v-544h-215v546q0 123 -60 190t-168 67t-181 -69t-73 -190v-544h-215v981h213v-120q99 146 301 146q111 0 199 -46.5t140 -129.5q30 50 73.5 86t92.5 55t95.5 27
t96.5 8zM973 -126q64 0 107.5 -44t43.5 -108t-43.5 -106.5t-107.5 -42.5t-107 42.5t-43 106.5t43 108t107 44z" />
    <glyph glyph-name="uni1E44" unicode="&#x1e44;" horiz-adv-x="1630" 
d="M1436 1434v-1434h-209l-800 1037l-1 -1037h-231v1434h208l801 -1038v1038h232zM793 1871q67 0 113 -46t46 -114q0 -67 -45.5 -112t-113.5 -45q-67 0 -112 45t-45 112q0 68 45 114t112 46z" />
    <glyph glyph-name="uni1E45" unicode="&#x1e45;" horiz-adv-x="1238" 
d="M682 1007q175 0 286.5 -109.5t111.5 -281.5v-616h-215v546q0 123 -60 190t-168 67t-181 -69t-73 -190v-544h-215v981h213v-120q99 146 301 146zM637 1471q64 0 107.5 -43.5t43.5 -107.5t-43.5 -107t-107.5 -43t-107 43t-43 107t43 107.5t107 43.5z" />
    <glyph glyph-name="uni1E46" unicode="&#x1e46;" horiz-adv-x="1630" 
d="M1436 1434v-1434h-209l-800 1037l-1 -1037h-231v1434h208l801 -1038v1038h232zM806 -126q64 0 107.5 -44t43.5 -108t-43.5 -106.5t-107.5 -42.5t-107 42.5t-43 106.5t43 108t107 44z" />
    <glyph glyph-name="uni1E47" unicode="&#x1e47;" horiz-adv-x="1238" 
d="M682 1007q175 0 286.5 -109.5t111.5 -281.5v-616h-215v546q0 123 -60 190t-168 67t-181 -69t-73 -190v-544h-215v981h213v-120q99 146 301 146zM625 -126q64 0 107.5 -44t43.5 -108t-43.5 -106.5t-107.5 -42.5t-107 42.5t-43 106.5t43 108t107 44z" />
    <glyph glyph-name="uni1E48" unicode="&#x1e48;" horiz-adv-x="1630" 
d="M1436 1434v-1434h-209l-800 1037l-1 -1037h-231v1434h208l801 -1038v1038h232zM489 -358v174h635v-174h-635z" />
    <glyph glyph-name="uni1E49" unicode="&#x1e49;" horiz-adv-x="1238" 
d="M682 1007q175 0 286.5 -109.5t111.5 -281.5v-616h-215v546q0 123 -60 190t-168 67t-181 -69t-73 -190v-544h-215v981h213v-120q99 146 301 146zM307 -358v174h635v-174h-635z" />
    <glyph glyph-name="uni1E58" unicode="&#x1e58;" horiz-adv-x="1404" 
d="M195 1434h589q247 0 377.5 -107t130.5 -308q0 -183 -129.5 -296t-348.5 -120l472 -603h-287l-456 603h-117v-603h-231v1434zM778 1217h-352v-404h352q274 0 274 206q0 198 -274 198zM662 1871q67 0 113 -46t46 -114q0 -67 -45.5 -112t-113.5 -45q-67 0 -112 45t-45 112
q0 68 45 114t112 46z" />
    <glyph glyph-name="uni1E59" unicode="&#x1e59;" horiz-adv-x="879" 
d="M665 1007q92 0 164 -28l-51 -212q-67 36 -163 36q-104 0 -168.5 -70t-64.5 -193v-540h-214v981h212v-111q96 137 285 137zM501 1471q64 0 107.5 -43.5t43.5 -107.5t-43.5 -107t-107.5 -43t-107 43t-43 107t43 107.5t107 43.5z" />
    <glyph glyph-name="uni1E5A" unicode="&#x1e5a;" horiz-adv-x="1404" 
d="M195 1434h589q247 0 377.5 -107t130.5 -308q0 -183 -129.5 -296t-348.5 -120l472 -603h-287l-456 603h-117v-603h-231v1434zM778 1217h-352v-404h352q274 0 274 206q0 198 -274 198zM691 -126q64 0 108 -44t44 -108q0 -63 -44 -106t-108 -43t-106.5 42.5t-42.5 106.5
t43 108t106 44z" />
    <glyph glyph-name="uni1E5B" unicode="&#x1e5b;" horiz-adv-x="879" 
d="M665 1007q92 0 164 -28l-51 -212q-67 36 -163 36q-104 0 -168.5 -70t-64.5 -193v-540h-214v981h212v-111q96 137 285 137zM278 -126q64 0 107.5 -44t43.5 -108t-43.5 -106.5t-107.5 -42.5t-107 42.5t-43 106.5t43 108t107 44z" />
    <glyph glyph-name="uni1E5C" unicode="&#x1e5c;" horiz-adv-x="1404" 
d="M195 1434h589q247 0 377.5 -107t130.5 -308q0 -183 -129.5 -296t-348.5 -120l472 -603h-287l-456 603h-117v-603h-231v1434zM778 1217h-352v-404h352q274 0 274 206q0 198 -274 198zM691 -126q64 0 108 -44t44 -108q0 -63 -44 -106t-108 -43t-106.5 42.5t-42.5 106.5
t43 108t106 44zM367 1618v174h634v-174h-634z" />
    <glyph glyph-name="uni1E5D" unicode="&#x1e5d;" horiz-adv-x="879" 
d="M665 1007q92 0 164 -28l-51 -212q-67 36 -163 36q-104 0 -168.5 -70t-64.5 -193v-540h-214v981h212v-111q96 137 285 137zM184 1193v174h635v-174h-635zM278 -126q64 0 107.5 -44t43.5 -108t-43.5 -106.5t-107.5 -42.5t-107 42.5t-43 106.5t43 108t107 44z" />
    <glyph glyph-name="uni1E5E" unicode="&#x1e5e;" horiz-adv-x="1404" 
d="M195 1434h589q247 0 377.5 -107t130.5 -308q0 -183 -129.5 -296t-348.5 -120l472 -603h-287l-456 603h-117v-603h-231v1434zM778 1217h-352v-404h352q274 0 274 206q0 198 -274 198zM375 -358v174h635v-174h-635z" />
    <glyph glyph-name="uni1E5F" unicode="&#x1e5f;" horiz-adv-x="879" 
d="M665 1007q92 0 164 -28l-51 -212q-67 36 -163 36q-104 0 -168.5 -70t-64.5 -193v-540h-214v981h212v-111q96 137 285 137zM-40 -358v174h635v-174h-635z" />
    <glyph glyph-name="uni1E62" unicode="&#x1e62;" horiz-adv-x="1384" 
d="M1251 1304l-117 -188q-192 123 -403 123q-144 0 -233 -58t-89 -156q0 -84 73.5 -126.5t224.5 -64.5l99 -14q462 -64 462 -394q0 -141 -80 -245.5t-208.5 -155.5t-286.5 -51q-154 0 -311.5 50.5t-264.5 142.5l126 184q74 -68 200 -112.5t249 -44.5q144 0 239.5 57.5
t95.5 154.5q0 82 -78.5 126t-243.5 67l-112 15q-68 10 -126.5 27.5t-115 49t-96 74t-63.5 106t-24 140.5q0 140 77.5 243t204 153.5t283.5 50.5q287 0 518 -154zM709 -126q64 0 107.5 -44t43.5 -108t-43.5 -106.5t-107.5 -42.5t-107 42.5t-43 106.5t43 108t107 44z" />
    <glyph glyph-name="uni1E63" unicode="&#x1e63;" horiz-adv-x="1035" 
d="M928 902l-92 -167q-51 32 -135.5 58t-168.5 26q-87 0 -136 -32t-49 -85q0 -47 41 -68t121 -33l101 -15q341 -49 341 -290q0 -144 -119 -232.5t-327 -88.5q-100 0 -212.5 27.5t-208.5 98.5l99 161q131 -100 324 -100q108 0 165.5 32t57.5 88q0 85 -170 108l-102 13
q-163 23 -248 96.5t-85 191.5q0 146 108.5 230.5t296.5 84.5q239 0 398 -104zM539 -126q64 0 107.5 -44t43.5 -108t-43.5 -106.5t-107.5 -42.5t-107 42.5t-43 106.5t43 108t107 44z" />
    <glyph glyph-name="uni1E6C" unicode="&#x1e6c;" horiz-adv-x="1236" 
d="M1198 1434v-220h-464v-1214h-231v1214h-464v220h1159zM617 -126q64 0 108 -44t44 -108q0 -63 -44 -106t-108 -43t-106.5 42.5t-42.5 106.5t43 108t106 44z" />
    <glyph glyph-name="uni1E6D" unicode="&#x1e6d;" horiz-adv-x="929" 
d="M837 981v-195h-376v-427q0 -94 42.5 -138.5t112.5 -44.5q93 0 198 67l85 -171q-146 -98 -301 -98q-170 0 -261 94.5t-91 286.5v431h-196v195h196v297h215v-297h376zM561 -126q64 0 108 -44t44 -108q0 -63 -44 -106t-108 -43t-106.5 42.5t-42.5 106.5t43 108t106 44z" />
    <glyph glyph-name="uni1E6E" unicode="&#x1e6e;" horiz-adv-x="1236" 
d="M1198 1434v-220h-464v-1214h-231v1214h-464v220h1159zM301 -358v174h635v-174h-635z" />
    <glyph glyph-name="uni1E6F" unicode="&#x1e6f;" horiz-adv-x="929" 
d="M837 981v-195h-376v-427q0 -94 42.5 -138.5t112.5 -44.5q93 0 198 67l85 -171q-146 -98 -301 -98q-170 0 -261 94.5t-91 286.5v431h-196v195h196v297h215v-297h376zM244 -358v174h635v-174h-635z" />
    <glyph glyph-name="Wgrave" unicode="&#x1e80;" horiz-adv-x="2232" 
d="M2183 1434l-437 -1434h-287l-343 1119l-343 -1119h-287l-437 1434h243l341 -1167l354 1167h263l354 -1167l342 1167h237zM1052 1562l-257 307h272l196 -307h-211z" />
    <glyph glyph-name="wgrave" unicode="&#x1e81;" horiz-adv-x="1714" 
d="M979 981l245 -750l231 750h223l-324 -981h-256l-243 739l-243 -739h-252l-324 981h228l231 -745l241 745h243zM787 1137l-257 307h273l195 -307h-211z" />
    <glyph glyph-name="Wacute" unicode="&#x1e82;" horiz-adv-x="2232" 
d="M2183 1434l-437 -1434h-287l-343 1119l-343 -1119h-287l-437 1434h243l341 -1167l354 1167h263l354 -1167l342 1167h237zM1165 1562h-211l196 307h272z" />
    <glyph glyph-name="wacute" unicode="&#x1e83;" horiz-adv-x="1714" 
d="M979 981l245 -750l231 750h223l-324 -981h-256l-243 739l-243 -739h-252l-324 981h228l231 -745l241 745h243zM913 1137h-211l196 307h272z" />
    <glyph glyph-name="Wdieresis" unicode="&#x1e84;" horiz-adv-x="2232" 
d="M2183 1434l-437 -1434h-287l-343 1119l-343 -1119h-287l-437 1434h243l341 -1167l354 1167h263l354 -1167l342 1167h237zM910 1858q64 0 108 -44t44 -108t-44 -107t-108 -43t-106.5 43t-42.5 107t43 108t106 44zM1320 1858q64 0 107.5 -44t43.5 -108t-43.5 -107
t-107.5 -43t-107 43t-43 107t43 108t107 44z" />
    <glyph glyph-name="wdieresis" unicode="&#x1e85;" horiz-adv-x="1714" 
d="M979 981l245 -750l231 750h223l-324 -981h-256l-243 739l-243 -739h-252l-324 981h228l231 -745l241 745h243zM651 1433q64 0 108 -44t44 -108q0 -63 -44 -106t-108 -43t-106.5 42.5t-42.5 106.5t43 108t106 44zM1061 1433q64 0 107.5 -44t43.5 -108t-43.5 -106.5
t-107.5 -42.5t-107 42.5t-43 106.5t43 108t107 44z" />
    <glyph glyph-name="uni1E88" unicode="&#x1e88;" horiz-adv-x="2232" 
d="M2183 1434l-437 -1434h-287l-343 1119l-343 -1119h-287l-437 1434h243l341 -1167l354 1167h263l354 -1167l342 1167h237zM1115 -126q64 0 108 -44t44 -108q0 -63 -44 -106t-108 -43t-106.5 42.5t-42.5 106.5t43 108t106 44z" />
    <glyph glyph-name="uni1E89" unicode="&#x1e89;" horiz-adv-x="1714" 
d="M979 981l245 -750l231 750h223l-324 -981h-256l-243 739l-243 -739h-252l-324 981h228l231 -745l241 745h243zM855 -126q64 0 108 -44t44 -108q0 -63 -44 -106t-108 -43t-106.5 42.5t-42.5 106.5t43 108t106 44z" />
    <glyph glyph-name="uni1E92" unicode="&#x1e92;" horiz-adv-x="1323" 
d="M1206 1434v-180l-782 -1035h782v-219h-1089v179l782 1035h-780v220h1087zM660 -126q64 0 108 -44t44 -108q0 -63 -44 -106t-108 -43t-106.5 42.5t-42.5 106.5t43 108t106 44z" />
    <glyph glyph-name="uni1E93" unicode="&#x1e93;" horiz-adv-x="1065" 
d="M938 981v-156l-536 -630h546v-195h-830v156l545 630h-529v195h804zM534 -126q64 0 107.5 -44t43.5 -108t-43.5 -106.5t-107.5 -42.5t-107 42.5t-43 106.5t43 108t107 44z" />
    <glyph glyph-name="uni1E94" unicode="&#x1e94;" horiz-adv-x="1323" 
d="M1206 1434v-180l-782 -1035h782v-219h-1089v179l782 1035h-780v220h1087zM344 -358v174h635v-174h-635z" />
    <glyph glyph-name="uni1E95" unicode="&#x1e95;" horiz-adv-x="1065" 
d="M938 981v-156l-536 -630h546v-195h-830v156l545 630h-529v195h804zM216 -358v174h635v-174h-635z" />
    <glyph glyph-name="uni1E96" unicode="&#x1e96;" horiz-adv-x="1238" 
d="M383 1475v-611q100 143 299 143q175 0 286.5 -109.5t111.5 -281.5v-616h-215v546q0 123 -60 190t-168 67t-181 -69t-73 -190v-544h-215v1475h215zM307 -358v174h635v-174h-635z" />
    <glyph glyph-name="uni1E9E" unicode="&#x1e9e;" horiz-adv-x="1497" 
d="M677 614v172l337 381q-86 70 -259 70q-165 0 -256 -85t-91 -224v-928h-233v941q0 82 21.5 157t67.5 141.5t113 115t165 76.5t217 28q196 0 334 -65t238 -193l-356 -391q180 -31 292.5 -137t112.5 -270q0 -128 -73.5 -227t-195.5 -150t-269 -51q-161 0 -281 28l54 220
q91 -25 191 -25q159 0 244.5 53t85.5 152q0 103 -85.5 157t-244.5 54h-129z" />
    <glyph glyph-name="Ygrave" unicode="&#x1ef2;" horiz-adv-x="1359" 
d="M1351 1434l-553 -852v-582h-232v586l-557 848h277l397 -642l398 642h270zM618 1562l-257 307h273l195 -307h-211z" />
    <glyph glyph-name="ygrave" unicode="&#x1ef3;" horiz-adv-x="1124" 
d="M1112 981l-774 -1397h-238l352 618l-436 779h241l315 -563l305 563h235zM498 1137l-257 307h272l196 -307h-211z" />
    <glyph glyph-name="uni1EF4" unicode="&#x1ef4;" horiz-adv-x="1359" 
d="M1351 1434l-553 -852v-582h-232v586l-557 848h277l397 -642l398 642h270zM681 -126q64 0 108 -44t44 -108q0 -63 -44 -106t-108 -43t-107 42.5t-43 106.5t43 108t107 44z" />
    <glyph glyph-name="uni1EF5" unicode="&#x1ef5;" horiz-adv-x="1124" 
d="M1112 981l-774 -1397h-238l352 618l-436 779h241l315 -563l305 563h235zM831 -126q64 0 108 -44t44 -108q0 -63 -44 -106t-108 -43t-106.5 42.5t-42.5 106.5t43 108t106 44z" />
    <glyph glyph-name="uni2007" unicode="&#x2007;" horiz-adv-x="1457" 
 />
    <glyph glyph-name="uni2008" unicode="&#x2008;" horiz-adv-x="541" 
 />
    <glyph glyph-name="uni2009" unicode="&#x2009;" horiz-adv-x="184" 
 />
    <glyph glyph-name="uni200B" unicode="&#x200b;" horiz-adv-x="0" 
 />
    <glyph glyph-name="uni2010" unicode="&#x2010;" horiz-adv-x="866" 
d="M730 643v-194h-594v194h594z" />
    <glyph glyph-name="uni2011" unicode="&#x2011;" horiz-adv-x="866" 
d="M730 643v-194h-594v194h594z" />
    <glyph glyph-name="figuredash" unicode="&#x2012;" horiz-adv-x="1228" 
d="M1101 643v-194h-973v194h973z" />
    <glyph glyph-name="endash" unicode="&#x2013;" horiz-adv-x="1206" 
d="M1090 643v-194h-973v194h973z" />
    <glyph glyph-name="emdash" unicode="&#x2014;" horiz-adv-x="1652" 
d="M1594 643v-194h-1536v194h1536z" />
    <glyph glyph-name="quoteleft" unicode="&#x2018;" horiz-adv-x="517" 
d="M358 916h-250l122 559h185z" />
    <glyph glyph-name="quoteright" unicode="&#x2019;" horiz-adv-x="517" 
d="M159 1475h251l-123 -559h-185z" />
    <glyph glyph-name="quotesinglbase" unicode="&#x201a;" horiz-adv-x="517" 
d="M159 278h251l-123 -559h-185z" />
    <glyph glyph-name="quotedblleft" unicode="&#x201c;" horiz-adv-x="916" 
d="M358 916h-250l122 559h185zM758 916h-251l123 559h184z" />
    <glyph glyph-name="quotedblright" unicode="&#x201d;" horiz-adv-x="916" 
d="M558 1475h251l-123 -559h-184zM159 1475h251l-123 -559h-185z" />
    <glyph glyph-name="quotedblbase" unicode="&#x201e;" horiz-adv-x="916" 
d="M558 278h251l-123 -559h-184zM159 278h251l-123 -559h-185z" />
    <glyph glyph-name="dagger" unicode="&#x2020;" horiz-adv-x="807" 
d="M493 642h-178v441h-218v173h218v219h178v-219h218v-173h-218v-441z" />
    <glyph glyph-name="daggerdbl" unicode="&#x2021;" horiz-adv-x="807" 
d="M493 1475v-178h218v-173h-218v-132h218v-173h-218v-177h-178v177h-218v173h218v132h-218v173h218v178h178z" />
    <glyph glyph-name="bullet" unicode="&#x2022;" horiz-adv-x="866" 
d="M433 841q122 0 208.5 -86t86.5 -209t-86.5 -209t-208.5 -86q-123 0 -209 86t-86 209t86 209t209 86z" />
    <glyph glyph-name="uni2023" unicode="&#x2023;" horiz-adv-x="1080" 
d="M963 546l-735 -425v850z" />
    <glyph glyph-name="ellipsis" unicode="&#x2026;" horiz-adv-x="1668" 
d="M271 333q72 0 125.5 -53t53.5 -125t-54 -126.5t-125 -54.5t-125 54.5t-54 126.5t53.5 125t125.5 53zM835 333q71 0 124.5 -53t53.5 -125t-53.5 -126.5t-124.5 -54.5t-125.5 54.5t-54.5 126.5t54 125t126 53zM1398 333q71 0 124.5 -53t53.5 -125t-53.5 -126.5
t-124.5 -54.5t-125 54.5t-54 126.5t53.5 125t125.5 53z" />
    <glyph glyph-name="perthousand" unicode="&#x2030;" horiz-adv-x="2902" 
d="M488 1459q171 0 285 -111t114 -276q0 -166 -114 -277t-285 -111q-170 0 -282.5 111t-112.5 277q0 165 113 276t282 111zM488 1270q-84 0 -138.5 -55.5t-54.5 -142.5q0 -88 54.5 -143.5t138.5 -55.5q86 0 141.5 55.5t55.5 143.5q0 87 -55.5 142.5t-141.5 55.5zM1579 1434
l-904 -1434h-224l904 1434h224zM1539 750q170 0 284 -112.5t114 -275.5q0 -167 -113.5 -277.5t-284.5 -110.5q-170 0 -282.5 111t-112.5 277q0 165 113 276.5t282 111.5zM1539 560q-84 0 -138.5 -55.5t-54.5 -142.5q0 -88 54.5 -143t138.5 -55q86 0 141.5 55t55.5 143
q0 87 -55.5 142.5t-141.5 55.5zM2410 750q171 0 285 -111.5t114 -276.5q0 -166 -114 -277t-285 -111q-170 0 -282.5 111t-112.5 277q0 165 113 276.5t282 111.5zM2410 560q-84 0 -138.5 -55.5t-54.5 -142.5q0 -88 54.5 -143t138.5 -55q86 0 141.5 55t55.5 143
q0 87 -55.5 142.5t-141.5 55.5z" />
    <glyph glyph-name="minute" unicode="&#x2032;" horiz-adv-x="558" 
d="M246 1434h205l-144 -675h-205z" />
    <glyph glyph-name="second" unicode="&#x2033;" horiz-adv-x="906" 
d="M594 1434h205l-144 -675h-204zM246 1434h205l-144 -675h-205z" />
    <glyph glyph-name="uni2034" unicode="&#x2034;" horiz-adv-x="1213" 
d="M573 1434h205l-143 -675h-205zM901 1434h205l-143 -675h-205zM246 1434h205l-144 -675h-205z" />
    <glyph glyph-name="guilsinglleft" unicode="&#x2039;" horiz-adv-x="652" 
d="M338 546l193 -388h-230l-193 388l193 388h230z" />
    <glyph glyph-name="guilsinglright" unicode="&#x203a;" horiz-adv-x="652" 
d="M314 546l-193 388h230l194 -388l-194 -388h-230z" />
    <glyph glyph-name="fraction" unicode="&#x2044;" horiz-adv-x="473" 
d="M796 1434l-905 -1434h-214l905 1434h214z" />
    <glyph glyph-name="uni2070" unicode="&#x2070;" horiz-adv-x="930" 
d="M465 1448q158 0 263.5 -116.5t105.5 -313.5t-105.5 -313.5t-263.5 -116.5t-263 117t-105 313t105 313t263 117zM465 1279q-80 0 -131.5 -68.5t-51.5 -192.5t51.5 -192.5t131.5 -68.5q81 0 132.5 68.5t51.5 192.5t-51.5 192.5t-132.5 68.5z" />
    <glyph glyph-name="uni2071" unicode="&#x2071;" horiz-adv-x="405" 
d="M291 1294v-692h-176v692h176zM202 1640q50 0 83 -33t33 -82t-33 -82t-83 -33q-49 0 -82 33t-33 82t33 82t82 33z" />
    <glyph glyph-name="uni2074" unicode="&#x2074;" horiz-adv-x="741" 
d="M590 1134v-224h112v-161h-112v-147h-177v147h-374v127l288 557h195l-274 -523h165v224h177z" />
    <glyph glyph-name="uni2075" unicode="&#x2075;" horiz-adv-x="766" 
d="M631 1434v-163h-338l-3 -149h81q148 0 228.5 -69.5t80.5 -180.5q0 -131 -89 -208t-225 -77q-188 0 -303 120l105 117q36 -32 89.5 -53t107.5 -21q64 0 98 30t34 79q0 106 -163 106h-205l10 469h492z" />
    <glyph glyph-name="uni2076" unicode="&#x2076;" horiz-adv-x="766" 
d="M584 1434l-207 -285q9 1 30 1q132 0 214 -79.5t82 -197.5q0 -123 -92 -204t-230 -81t-230.5 79.5t-92.5 201.5q0 106 82 227l231 338h213zM381 1000q-60 0 -99 -36t-39 -92q0 -57 39 -93t99 -36t99 36t39 93q0 56 -39 92t-99 36z" />
    <glyph glyph-name="uni2077" unicode="&#x2077;" horiz-adv-x="710" 
d="M662 1434v-139l-344 -693h-209l344 667h-395v165h604z" />
    <glyph glyph-name="uni2078" unicode="&#x2078;" horiz-adv-x="833" 
d="M417 1448q134 0 223.5 -65t89.5 -174q0 -129 -129 -187q150 -60 150 -194q0 -110 -96 -175t-238 -65q-143 0 -238.5 64.5t-95.5 175.5q0 135 148 194q-128 58 -128 187q0 109 90 174t224 65zM417 951q-61 0 -102 -27.5t-41 -76.5q0 -52 40.5 -80.5t102.5 -28.5
q61 0 101.5 28.5t40.5 80.5q0 49 -40.5 76.5t-101.5 27.5zM417 1294q-54 0 -89.5 -26.5t-35.5 -74.5q0 -47 35.5 -72.5t89.5 -25.5t89.5 25.5t35.5 72.5q0 48 -35.5 74.5t-89.5 26.5z" />
    <glyph glyph-name="uni2079" unicode="&#x2079;" horiz-adv-x="766" 
d="M183 602l206 285q-9 -1 -29 -1q-132 0 -214.5 79t-82.5 197q0 123 92.5 204.5t230.5 81.5t230.5 -80t92.5 -202q0 -105 -82 -226l-231 -338h-213zM386 1035q59 0 98 36t39 92q0 57 -38.5 93t-98.5 36t-99 -36t-39 -93q0 -56 39 -92t99 -36z" />
    <glyph glyph-name="uni207F" unicode="&#x207f;" horiz-adv-x="872" 
d="M493 1313q120 0 196 -76t76 -196v-439h-177v382q0 78 -37.5 120t-105.5 42q-66 0 -110 -42.5t-44 -120.5v-381h-177v692h173v-82q68 101 206 101z" />
    <glyph glyph-name="uni2080" unicode="&#x2080;" horiz-adv-x="930" 
d="M465 451q158 0 263.5 -117t105.5 -314t-105.5 -313.5t-263.5 -116.5t-263 117t-105 313q0 197 105 314t263 117zM465 282q-80 0 -131.5 -69t-51.5 -193t51.5 -192.5t131.5 -68.5q81 0 132.5 68.5t51.5 192.5t-52 193t-132 69z" />
    <glyph glyph-name="uni2081" unicode="&#x2081;" horiz-adv-x="578" 
d="M423 450v-845h-177v599l-197 -76v175z" />
    <glyph glyph-name="uni2082" unicode="&#x2082;" horiz-adv-x="738" 
d="M178 196l-115 110q116 145 297 145q133 0 211.5 -74t78.5 -195q0 -71 -31 -128t-95 -120l-168 -164h315v-165h-568v138l297 292q67 67 67 133q0 51 -34 82.5t-88 31.5q-52 0 -90.5 -22.5t-76.5 -63.5z" />
    <glyph glyph-name="uni2083" unicode="&#x2083;" horiz-adv-x="747" 
d="M341 451q136 0 220.5 -66t84.5 -173q0 -130 -125 -188q67 -27 105.5 -76t38.5 -114q0 -117 -93 -180.5t-225 -63.5q-194 0 -298 121l103 117q76 -79 187 -79q63 0 102 25t39 74q0 47 -44.5 72.5t-112.5 25.5h-98v156h99q61 0 100 25.5t39 70.5t-36 69.5t-94 24.5
q-103 0 -172 -82l-107 114q101 127 287 127z" />
    <glyph glyph-name="uni2084" unicode="&#x2084;" horiz-adv-x="741" 
d="M590 136v-223h112v-162h-112v-146h-177v146h-374v127l288 557h195l-274 -522h165v223h177z" />
    <glyph glyph-name="uni2085" unicode="&#x2085;" horiz-adv-x="766" 
d="M631 436v-163h-338l-3 -148h81q148 0 228.5 -69.5t80.5 -180.5q0 -131 -89 -208.5t-225 -77.5q-188 0 -303 120l105 118q36 -32 89.5 -53.5t107.5 -21.5q64 0 98 30.5t34 79.5q0 105 -163 105h-205l10 469h492z" />
    <glyph glyph-name="uni2086" unicode="&#x2086;" horiz-adv-x="766" 
d="M584 436l-207 -284q9 1 30 1q132 0 214 -79.5t82 -197.5q0 -123 -92 -204.5t-230 -81.5t-230.5 80t-92.5 202q0 105 82 226l231 338h213zM381 3q-60 0 -99 -36t-39 -92q0 -57 39 -93t99 -36t99 36t39 93q0 56 -39 92t-99 36z" />
    <glyph glyph-name="uni2087" unicode="&#x2087;" horiz-adv-x="710" 
d="M662 436v-138l-344 -693h-209l344 666h-395v165h604z" />
    <glyph glyph-name="uni2088" unicode="&#x2088;" horiz-adv-x="833" 
d="M417 451q134 0 223.5 -65t89.5 -174q0 -129 -129 -187q150 -60 150 -194q0 -111 -96 -176t-238 -65q-143 0 -238.5 65t-95.5 176q0 135 148 194q-128 58 -128 187q0 109 90 174t224 65zM417 -46q-61 0 -102 -28t-41 -77q0 -52 40.5 -80t102.5 -28q61 0 101.5 28t40.5 80
q0 49 -40.5 77t-101.5 28zM417 297q-54 0 -89.5 -26.5t-35.5 -74.5q0 -47 35.5 -73t89.5 -26t89.5 26t35.5 73q0 48 -35.5 74.5t-89.5 26.5z" />
    <glyph glyph-name="uni2089" unicode="&#x2089;" horiz-adv-x="766" 
d="M183 -395l206 284q-9 -1 -29 -1q-132 0 -214.5 79.5t-82.5 197.5q0 123 92.5 204.5t230.5 81.5t230.5 -80t92.5 -202q0 -105 -82 -226l-231 -338h-213zM386 38q59 0 98 36t39 92q0 57 -38.5 93t-98.5 36t-99 -36t-39 -93q0 -56 39 -92t99 -36z" />
    <glyph glyph-name="Euro" unicode="&#x20ac;" horiz-adv-x="1433" 
d="M1066 637v-177h-567q48 -132 146 -205.5t232 -73.5q196 0 337 174l142 -149q-189 -231 -479 -231q-230 0 -392 129.5t-223 355.5h-187v177h158q-3 39 -3 80q0 39 3 80h-158v177h187q61 225 223 354.5t392 129.5q294 0 484 -223l-149 -157q-139 174 -336 174
q-134 0 -232 -73t-145 -205h567v-177h-605q-3 -39 -3 -80t3 -80h605z" />
    <glyph glyph-name="uni20BA" unicode="&#x20ba;" horiz-adv-x="1433" 
d="M1033 851v-189l-476 -216v-233h195q125 0 218.5 62t169.5 203l190 -106q-112 -199 -253 -285.5t-343 -86.5h-399v346l-190 -85v190l190 85v154l-190 -85v190l190 85v554h222v-454l476 216v-190l-476 -215v-155z" />
    <glyph glyph-name="uni2100" unicode="&#x2100;" horiz-adv-x="2048" 
d="M534 1459q150 0 234 -78t84 -223v-409h-173v71q-85 -90 -215 -90q-114 0 -179 62t-65 162q0 97 77 154t208 57h169q-13 138 -161 138q-97 0 -189 -67l-70 136q119 87 280 87zM505 876q98 0 172 85v81h-147q-65 0 -94.5 -24t-29.5 -60q0 -34 25 -58t74 -24zM1624 1434
l-904 -1434h-214l904 1434h214zM1556 703q177 0 273 -124l-125 -110q-67 70 -152 70q-78 0 -130 -55.5t-52 -144.5t51.5 -144t129.5 -55q88 0 156 71l122 -112q-102 -125 -273 -125q-163 0 -265 103.5t-102 261.5q0 159 101.5 261.5t265.5 102.5z" />
    <glyph glyph-name="uni2101" unicode="&#x2101;" horiz-adv-x="2048" 
d="M542 1459q150 0 234 -78t84 -223v-409h-173v71q-85 -90 -215 -90q-114 0 -179 62t-65 162q0 97 77 154t208 57h169q-13 138 -161 138q-97 0 -189 -67l-70 136q119 87 280 87zM513 876q98 0 172 85v81h-146q-65 0 -95 -24t-30 -60q0 -34 25 -58t74 -24zM1632 1434
l-904 -1434h-214l904 1434h214zM1794 634l-63 -137q-110 57 -220 57q-54 0 -83 -18.5t-29 -50.5q0 -29 28 -41.5t84 -20.5l65 -9q235 -36 235 -207q0 -106 -84 -169.5t-233 -63.5q-190 0 -305 83l73 134q98 -68 234 -68q135 0 135 71q0 26 -28 42t-89 24l-60 8
q-239 35 -239 208q0 106 78 166t214 60q156 0 287 -68z" />
    <glyph glyph-name="afii61248" unicode="&#x2105;" horiz-adv-x="2048" 
d="M544 1459q175 0 272 -125l-125 -109q-66 69 -151 69q-78 0 -130.5 -55.5t-52.5 -143.5q0 -89 52 -144t130 -55q87 0 155 71l122 -112q-102 -125 -272 -125q-163 0 -265.5 103.5t-102.5 261.5q0 159 102 261.5t266 102.5zM1570 1434l-904 -1434h-214l904 1434h214z
M1499 703q161 0 267.5 -103.5t106.5 -260.5q0 -156 -106.5 -260.5t-267.5 -104.5t-267.5 104.5t-106.5 260.5q0 157 106.5 260.5t267.5 103.5zM1499 539q-84 0 -138 -56t-54 -144q0 -87 54 -143t138 -56q83 0 138.5 56t55.5 143q0 88 -55.5 144t-138.5 56z" />
    <glyph glyph-name="uni2106" unicode="&#x2106;" horiz-adv-x="2048" 
d="M540 1459q175 0 272 -125l-125 -109q-66 69 -151 69q-78 0 -130.5 -55.5t-52.5 -143.5q0 -89 52 -144t130 -55q87 0 155 71l122 -112q-102 -125 -272 -125q-163 0 -265.5 103.5t-102.5 261.5q0 159 102 261.5t266 102.5zM1566 1434l-904 -1434h-215l905 1434h214z
M1877 685v-397q0 -79 -26.5 -141t-73 -99t-103.5 -55.5t-123 -18.5q-138 0 -231.5 79.5t-93.5 234.5v397h177v-382q0 -83 40.5 -123t107.5 -40q68 0 109 40t41 123v382h176z" />
    <glyph glyph-name="afii61289" unicode="&#x2113;" horiz-adv-x="1082" 
d="M200 374l-79 184q73 27 158 69l2 475q1 173 95.5 285.5t252.5 112.5q147 0 240 -93.5t93 -239.5q0 -190 -126.5 -355t-341.5 -294v-160q0 -94 42.5 -138.5t112.5 -44.5q93 0 198 67l85 -171q-146 -98 -301 -98q-170 0 -261 94.5t-91 286.5v53q-9 -3 -36 -15t-43 -18z
M496 1102l-1 -343q246 190 246 408q0 63 -29 97.5t-83 34.5q-59 0 -96 -52t-37 -145z" />
    <glyph glyph-name="afii61352" unicode="&#x2116;" horiz-adv-x="2525" 
d="M2433 600v-194h-703v194h703zM2081 1452q161 0 267.5 -104.5t106.5 -260.5t-106.5 -260t-267.5 -104q-160 0 -266.5 104t-106.5 260t106.5 260.5t266.5 104.5zM2081 1289q-84 0 -139.5 -56.5t-55.5 -145.5q0 -88 55.5 -144.5t139.5 -56.5q85 0 140.5 56t55.5 145
t-55.5 145.5t-140.5 56.5zM1436 1434v-1434h-209l-800 1037l-1 -1037h-231v1434h208l801 -1038v1038h232z" />
    <glyph glyph-name="uni2117" unicode="&#x2117;" horiz-adv-x="1957" 
d="M979 1559q171 0 326.5 -66t267.5 -177.5t178.5 -265t66.5 -322.5t-66.5 -323t-178.5 -265.5t-267.5 -177.5t-326.5 -66t-326.5 66t-267.5 177.5t-178.5 265.5t-66.5 323t66.5 322.5t178.5 265t267.5 177.5t326.5 66zM979 1369q-131 0 -250 -50.5t-205 -136.5t-137 -204.5
t-51 -249.5q0 -175 86 -323t234 -234t323 -86t323 86t234 234t86 323q0 131 -51 249.5t-137 204.5t-205 136.5t-250 50.5zM663 1157h379q174 0 267.5 -75t93.5 -205q0 -128 -93.5 -203t-266.5 -75h-189v-318h-191v876zM1038 984h-184v-215h184q168 0 168 108q0 107 -168 107
z" />
    <glyph glyph-name="uni2120" unicode="&#x2120;" horiz-adv-x="1662" 
d="M678 1383l-69 -126q-106 52 -196 52q-57 0 -93 -17.5t-36 -48.5q0 -30 35 -43t109 -22l36 -4q105 -11 168.5 -58t63.5 -126q0 -76 -43.5 -129t-109.5 -75.5t-148 -22.5q-182 0 -298 77l76 126q101 -64 223 -64q58 0 95.5 17.5t37.5 49.5q0 30 -34.5 44t-111.5 21l-42 4
q-105 11 -165 59t-60 132q0 99 82.5 158.5t210.5 59.5q144 0 269 -64zM1585 778h-153v455l-148 -392h-163l-147 391v-454h-154v656h220l163 -420l162 420h220v-656z" />
    <glyph glyph-name="trademark" unicode="&#x2122;" horiz-adv-x="1617" 
d="M1540 778h-154v455l-147 -392h-163l-147 391v-454h-154v656h220l163 -420l162 420h220v-656zM439 778h-153v514h-208v142h569v-142h-208v-514z" />
    <glyph glyph-name="Omega" unicode="&#x2126;" horiz-adv-x="1763" 
d="M78 219h275q-106 94 -164 222t-58 276q0 212 95.5 381.5t267 265.5t388.5 96q162 0 302 -56t238.5 -154.5t154 -236t55.5 -296.5q0 -148 -58 -276t-164 -222h276v-219h-642v188q157 50 251.5 189t94.5 330q0 235 -143.5 383t-364.5 148t-364.5 -148t-143.5 -383
q0 -192 94 -330.5t251 -188.5v-188h-641v219z" />
    <glyph glyph-name="estimated" unicode="&#x212e;" horiz-adv-x="2048" 
d="M486 676v-337q0 -84 26 -144.5t90 -102.5q183 -123 422 -123q192 0 354 83.5t261 232.5l66 -51q-111 -164 -290 -255.5t-391 -91.5q-169 0 -319.5 60.5t-262 167t-176.5 263t-65 339.5t65 339t176.5 263t262 167t319.5 60t319.5 -60t262 -167t176.5 -263t65 -339
q0 -28 -1 -41h-1360zM486 758h1090v323q0 83 -25 143t-86 104q-188 136 -441 136q-239 0 -422 -123q-64 -42 -90 -102t-26 -144v-337z" />
    <glyph glyph-name="uni214D" unicode="&#x214d;" horiz-adv-x="2048" 
d="M648 1434l272 -746h-189l-49 148h-283l-49 -148h-185l271 746h212zM1863 687l-76 -147q-104 58 -211 58q-58 0 -93.5 -18.5t-35.5 -50.5q0 -11 5 -20t18 -16t23 -11.5t33.5 -9t36 -6.5t42.5 -7l33 -5q245 -38 245 -211q0 -86 -47.5 -145.5t-118 -85t-157.5 -25.5
q-198 0 -323 87l85 145q114 -72 240 -72q58 0 94 18t36 53q0 32 -34.5 46t-118.5 25l-40 5q-243 30 -243 219q0 111 87.5 178.5t224.5 67.5q91 0 158 -18t137 -54zM541 1262l-88 -266h176zM1665 1434l-904 -1434h-214l904 1434h214z" />
    <glyph glyph-name="uni2150" unicode="&#x2150;" horiz-adv-x="1823" 
d="M1405 1434l-904 -1434h-214l904 1434h214zM1775 831v-138l-343 -693h-210l344 667h-395v164h604zM423 1447v-845h-177v599l-197 -76v175z" />
    <glyph glyph-name="uni2151" unicode="&#x2151;" horiz-adv-x="1849" 
d="M1405 1434l-904 -1434h-214l904 1434h214zM1266 0l205 285q-9 -1 -28 -1q-132 0 -214.5 79t-82.5 197q0 123 92 204.5t230 81.5t230.5 -80t92.5 -202q0 -105 -82 -226l-230 -338h-213zM1468 433q60 0 99 36t39 92q0 57 -39 93t-99 36t-99 -36t-39 -93q0 -56 39 -92
t99 -36zM423 1447v-845h-177v599l-197 -76v175z" />
    <glyph glyph-name="uni2152" unicode="&#x2152;" horiz-adv-x="2612" 
d="M1405 1434l-904 -1434h-214l904 1434h214zM1526 845v-845h-177v599l-197 -76v175zM2146 846q158 0 263.5 -116.5t105.5 -313.5t-105.5 -313.5t-263.5 -116.5t-262.5 116.5t-104.5 313.5t104.5 313.5t262.5 116.5zM2146 677q-80 0 -131.5 -68.5t-51.5 -192.5t51.5 -192.5
t131.5 -68.5q81 0 133 68.5t52 192.5t-52 192.5t-133 68.5zM423 1447v-845h-177v599l-197 -76v175z" />
    <glyph glyph-name="onethird" unicode="&#x2153;" horiz-adv-x="1829" 
d="M1405 1434l-904 -1434h-214l904 1434h214zM1423 846q136 0 221 -66t85 -173q0 -130 -125 -188q67 -27 105 -76t38 -114q0 -117 -92.5 -180t-224.5 -63q-195 0 -298 120l102 117q76 -79 187 -79q63 0 102.5 25.5t39.5 74.5q0 47 -45 72t-113 25h-97v157h98q61 0 100 25
t39 70t-36 69.5t-94 24.5q-103 0 -172 -82l-106 114q101 127 286 127zM423 1447v-845h-177v599l-197 -76v175z" />
    <glyph glyph-name="twothirds" unicode="&#x2154;" horiz-adv-x="1989" 
d="M1565 1434l-905 -1434h-214l905 1434h214zM1583 846q136 0 220.5 -66t84.5 -173q0 -130 -125 -188q67 -27 105.5 -76t38.5 -114q0 -117 -93 -180t-225 -63q-195 0 -298 120l103 117q76 -79 187 -79q62 0 101.5 25.5t39.5 74.5q0 47 -44.5 72t-112.5 25h-98v157h99
q61 0 100 25t39 70t-36 69.5t-94 24.5q-103 0 -172 -82l-107 114q101 127 287 127zM178 1193l-115 111q116 144 297 144q133 0 211.5 -73.5t78.5 -194.5q0 -71 -31 -128t-95 -120l-168 -165h315v-165h-568v138l297 292q67 67 67 133q0 51 -34 82.5t-88 31.5
q-52 0 -90.5 -22.5t-76.5 -63.5z" />
    <glyph glyph-name="uni2155" unicode="&#x2155;" horiz-adv-x="1849" 
d="M1405 1434l-904 -1434h-214l904 1434h214zM1713 831v-162h-338l-3 -149h81q148 0 228.5 -69.5t80.5 -180.5q0 -131 -89 -208t-225 -77q-188 0 -302 119l104 118q36 -32 89.5 -53.5t107.5 -21.5q64 0 98 30.5t34 79.5q0 105 -163 105h-205l11 469h491zM423 1447v-845h-177
v599l-197 -76v175z" />
    <glyph glyph-name="uni2156" unicode="&#x2156;" horiz-adv-x="2009" 
d="M1565 1434l-905 -1434h-214l905 1434h214zM1873 831v-162h-338l-3 -149h81q148 0 228.5 -69.5t80.5 -180.5q0 -131 -89 -208t-225 -77q-188 0 -302 119l104 118q36 -32 89.5 -53.5t107.5 -21.5q64 0 98 30.5t34 79.5q0 105 -163 105h-205l10 469h492zM178 1193l-115 111
q116 144 297 144q133 0 211.5 -73.5t78.5 -194.5q0 -71 -31 -128t-95 -120l-168 -165h315v-165h-568v138l297 292q67 67 67 133q0 51 -34 82.5t-88 31.5q-52 0 -90.5 -22.5t-76.5 -63.5z" />
    <glyph glyph-name="uni2157" unicode="&#x2157;" horiz-adv-x="1987" 
d="M1543 1434l-904 -1434h-214l904 1434h214zM1851 831v-162h-338l-3 -149h81q148 0 229 -69.5t81 -180.5q0 -131 -89 -208t-226 -77q-188 0 -302 119l105 118q36 -32 89 -53.5t107 -21.5q64 0 98 30.5t34 79.5q0 105 -163 105h-204l10 469h491zM341 1448q136 0 220.5 -66
t84.5 -173q0 -130 -125 -188q67 -27 105.5 -76t38.5 -114q0 -117 -93 -180t-225 -63q-194 0 -298 121l103 116q76 -79 187 -79q62 0 101.5 25.5t39.5 74.5q0 47 -44.5 72t-112.5 25h-98v157h99q61 0 100 25t39 70t-36 69.5t-94 24.5q-103 0 -172 -82l-107 114
q101 127 287 127z" />
    <glyph glyph-name="uni2158" unicode="&#x2158;" horiz-adv-x="1981" 
d="M1537 1434l-904 -1434h-214l904 1434h214zM1845 831v-162h-338l-3 -149h81q148 0 228.5 -69.5t80.5 -180.5q0 -131 -89 -208t-225 -77q-188 0 -302 119l104 118q36 -32 89.5 -53.5t107.5 -21.5q64 0 98 30.5t34 79.5q0 105 -163 105h-205l11 469h491zM590 1134v-224h112
v-161h-112v-147h-177v147h-374v127l288 557h195l-274 -523h165v224h177z" />
    <glyph glyph-name="uni2159" unicode="&#x2159;" horiz-adv-x="1757" 
d="M1405 1434l-904 -1434h-214l904 1434h214zM1574 831l-207 -284q9 1 30 1q132 0 214.5 -79.5t82.5 -197.5q0 -123 -92 -204t-231 -81q-138 0 -230 79.5t-92 201.5q0 107 81 227l231 337h213zM1371 398q-60 0 -99 -36t-39 -92q0 -57 39 -93t99 -36t99 36t39 93q0 56 -39 92
t-99 36zM423 1447v-845h-177v599l-197 -76v175z" />
    <glyph glyph-name="uni215A" unicode="&#x215a;" horiz-adv-x="1904" 
d="M1552 1434l-904 -1434h-214l904 1434h214zM1721 831l-207 -284q9 1 30 1q132 0 214.5 -79.5t82.5 -197.5q0 -123 -92 -204t-230 -81t-230.5 79.5t-92.5 201.5q0 106 82 227l230 337h213zM1519 398q-60 0 -99.5 -36t-39.5 -92q0 -57 39.5 -93t99.5 -36t99 36t39 93
q0 56 -39 92t-99 36zM631 1434v-163h-338l-3 -149h81q148 0 228.5 -69.5t80.5 -180.5q0 -131 -89 -208t-225 -77q-188 0 -303 120l105 117q36 -32 89.5 -53t107.5 -21q64 0 98 30t34 79q0 106 -163 106h-205l10 469h492z" />
    <glyph glyph-name="oneeighth" unicode="&#x215b;" horiz-adv-x="1885" 
d="M1405 1434l-904 -1434h-214l904 1434h214zM1468 846q134 0 224 -65t90 -174q0 -129 -129 -187q149 -59 149 -194q0 -110 -96 -175t-238 -65q-143 0 -238 64.5t-95 175.5q0 135 148 194q-128 58 -128 187q0 109 89.5 174t223.5 65zM1468 349q-61 0 -101.5 -27.5
t-40.5 -76.5q0 -52 40.5 -80.5t101.5 -28.5t102 28.5t41 80.5q0 49 -41 76.5t-102 27.5zM1468 692q-54 0 -89.5 -26.5t-35.5 -74.5q0 -47 35.5 -72.5t89.5 -25.5t89.5 25.5t35.5 72.5q0 48 -35.5 74.5t-89.5 26.5zM423 1447v-845h-177v599l-197 -76v175z" />
    <glyph glyph-name="threeeighths" unicode="&#x215c;" horiz-adv-x="2023" 
d="M1543 1434l-904 -1434h-214l904 1434h214zM1607 846q134 0 223.5 -65t89.5 -174q0 -129 -129 -187q149 -59 149 -194q0 -111 -95.5 -175.5t-237.5 -64.5q-143 0 -238.5 64.5t-95.5 175.5q0 135 148 194q-128 58 -128 187q0 109 90 174t224 65zM1607 349q-61 0 -102 -27.5
t-41 -76.5q0 -52 40.5 -80.5t102.5 -28.5q61 0 101.5 28.5t40.5 80.5q0 49 -40.5 76.5t-101.5 27.5zM1607 692q-54 0 -89.5 -26.5t-35.5 -74.5q0 -47 35.5 -72.5t89.5 -25.5t89.5 25.5t35.5 72.5q0 48 -35.5 74.5t-89.5 26.5zM341 1448q136 0 220.5 -66t84.5 -173
q0 -130 -125 -188q67 -27 105.5 -76t38.5 -114q0 -117 -93 -180t-225 -63q-194 0 -298 121l103 116q76 -79 187 -79q62 0 101.5 25.5t39.5 74.5q0 47 -44.5 72t-112.5 25h-98v157h99q61 0 100 25t39 70t-36 69.5t-94 24.5q-103 0 -172 -82l-107 114q101 127 287 127z" />
    <glyph glyph-name="fiveeighths" unicode="&#x215d;" horiz-adv-x="2032" 
d="M1552 1434l-904 -1434h-214l904 1434h214zM1616 846q134 0 223.5 -65t89.5 -174q0 -129 -129 -187q150 -60 150 -194q0 -110 -96 -175t-238 -65q-143 0 -238.5 64.5t-95.5 175.5q0 135 149 194q-128 58 -128 187q0 109 89.5 174t223.5 65zM1616 349q-61 0 -101.5 -27.5
t-40.5 -76.5q0 -52 40.5 -80.5t101.5 -28.5t101.5 28.5t40.5 80.5q0 49 -40.5 76.5t-101.5 27.5zM1616 692q-54 0 -89.5 -26.5t-35.5 -74.5q0 -47 35.5 -72.5t89.5 -25.5t89.5 25.5t35.5 72.5q0 48 -35.5 74.5t-89.5 26.5zM631 1434v-163h-338l-3 -149h81q148 0 228.5 -69.5
t80.5 -180.5q0 -131 -89 -208t-225 -77q-188 0 -303 120l105 117q36 -32 89.5 -53t107.5 -21q64 0 98 30t34 79q0 106 -163 106h-205l10 469h492z" />
    <glyph glyph-name="seveneighths" unicode="&#x215e;" horiz-adv-x="1873" 
d="M1394 1434l-905 -1434h-214l905 1434h214zM1457 846q134 0 223.5 -65t89.5 -174q0 -129 -129 -187q150 -60 150 -194q0 -110 -96 -175t-238 -65q-143 0 -238.5 64.5t-95.5 175.5q0 135 149 194q-128 58 -128 187q0 109 89.5 174t223.5 65zM1457 349q-61 0 -101.5 -27.5
t-40.5 -76.5q0 -52 40.5 -80.5t101.5 -28.5t101.5 28.5t40.5 80.5q0 49 -40.5 76.5t-101.5 27.5zM1457 692q-54 0 -89.5 -26.5t-35.5 -74.5q0 -47 35.5 -72.5t89.5 -25.5t89.5 25.5t35.5 72.5q0 48 -35.5 74.5t-89.5 26.5zM662 1434v-139l-344 -693h-209l344 667h-395v165
h604z" />
    <glyph glyph-name="uni215F" unicode="&#x215f;" horiz-adv-x="1082" 
d="M1405 1434l-904 -1434h-214l904 1434h214zM423 1447v-845h-177v599l-197 -76v175z" />
    <glyph glyph-name="uni2189" unicode="&#x2189;" horiz-adv-x="2089" 
d="M1665 1434l-904 -1434h-214l904 1434h214zM1683 846q136 0 221 -66t85 -173q0 -130 -125 -188q67 -27 105 -76t38 -114q0 -117 -92.5 -180t-224.5 -63q-195 0 -298 120l102 117q76 -79 187 -79q63 0 102.5 25.5t39.5 74.5q0 47 -45 72t-113 25h-97v157h98q61 0 100 25
t39 70t-36 69.5t-94 24.5q-103 0 -172 -82l-106 114q101 127 286 127zM465 1448q158 0 263.5 -116.5t105.5 -313.5t-105.5 -313.5t-263.5 -116.5t-263 117t-105 313t105 313t263 117zM465 1279q-80 0 -131.5 -68.5t-51.5 -192.5t51.5 -192.5t131.5 -68.5q81 0 132.5 68.5
t51.5 192.5t-51.5 192.5t-132.5 68.5z" />
    <glyph glyph-name="arrowleft" unicode="&#x2190;" horiz-adv-x="2048" 
d="M1860 584h-1044q-152 0 -285 8q109 -88 278 -257l173 -173l-137 -137l-657 656l657 656l137 -137l-173 -173q-169 -169 -278 -257q133 8 285 8h1044v-194z" />
    <glyph glyph-name="arrowup" unicode="&#x2191;" horiz-adv-x="2048" 
d="M927 -114v1044q0 151 8 284q-84 -104 -257 -277l-173 -173l-137 137l656 657l656 -657l-137 -137l-173 173q-173 173 -257 277q8 -133 8 -284v-1044h-194z" />
    <glyph glyph-name="arrowright" unicode="&#x2192;" horiz-adv-x="2048" 
d="M188 778h1044q152 0 285 -8q-109 88 -278 257l-173 173l137 137l657 -656l-657 -656l-137 137l173 173q169 169 278 257q-133 -8 -285 -8h-1044v194z" />
    <glyph glyph-name="arrowdown" unicode="&#x2193;" horiz-adv-x="2048" 
d="M1121 1558v-1044q0 -152 -8 -285q88 109 257 278l173 173l137 -137l-656 -657l-656 657l137 137l173 -173q169 -169 257 -278q-8 133 -8 285v1044h194z" />
    <glyph glyph-name="uni2196" unicode="&#x2196;" horiz-adv-x="2048" 
d="M1510 36l-737 737q-99 99 -195 207q14 -136 14 -378v-245h-194v929h928v-194h-245q-242 0 -378 15q100 -89 207 -196l739 -738z" />
    <glyph glyph-name="uni2197" unicode="&#x2197;" horiz-adv-x="2048" 
d="M365 160l737 737q108 108 207 196q-145 -15 -378 -15h-245v194h929v-928h-195v245q0 233 16 378q-89 -100 -196 -207l-738 -738z" />
    <glyph glyph-name="uni2198" unicode="&#x2198;" horiz-adv-x="2048" 
d="M503 1340l737 -737q108 -108 196 -207q-15 145 -15 378v245h194v-929h-928v195h245q233 0 378 -16q-100 89 -207 196l-738 738z" />
    <glyph glyph-name="uni2199" unicode="&#x2199;" horiz-adv-x="2048" 
d="M1650 1188l-738 -737q-116 -116 -206 -196q136 14 377 14h245v-193h-929v928h195v-245q0 -242 -15 -378q97 109 195 207l738 738z" />
    <glyph glyph-name="partialdiff" unicode="&#x2202;" horiz-adv-x="1239" 
d="M288 1316l96 172q177 -67 314 -162t220 -194.5t136.5 -214t73.5 -213.5t20 -200q0 -149 -68.5 -270t-189.5 -190.5t-270 -69.5q-227 0 -377.5 143.5t-150.5 357.5q0 217 140 361.5t350 144.5q168 0 286 -127q-136 286 -580 462zM620 779q-133 0 -220.5 -84.5
t-87.5 -218.5q0 -132 88 -216t220 -84t220 84t88 216q0 134 -87.5 218.5t-220.5 84.5z" />
    <glyph glyph-name="uni2300" unicode="&#x2205;" horiz-adv-x="1490" 
d="M1159 1083l137 -137l-125 -125q90 -133 90 -289q0 -140 -69.5 -258.5t-188 -187.5t-258.5 -69q-158 0 -288 89l-125 -124l-137 137l123 124q-89 132 -89 289q0 104 41 199.5t110 165t164.5 111t200.5 41.5q158 0 289 -91zM424 532q0 -86 41 -157l436 437q-72 42 -156 42
q-132 0 -226.5 -95t-94.5 -227zM745 212q132 0 226.5 94t94.5 226q0 82 -41 155l-434 -435q71 -40 154 -40z" />
    <glyph glyph-name="uni2300" unicode="&#x2300;" horiz-adv-x="1490" 
d="M1159 1083l137 -137l-125 -125q90 -133 90 -289q0 -140 -69.5 -258.5t-188 -187.5t-258.5 -69q-158 0 -288 89l-125 -124l-137 137l123 124q-89 132 -89 289q0 104 41 199.5t110 165t164.5 111t200.5 41.5q158 0 289 -91zM424 532q0 -86 41 -157l436 437q-72 42 -156 42
q-132 0 -226.5 -95t-94.5 -227zM745 212q132 0 226.5 94t94.5 226q0 82 -41 155l-434 -435q71 -40 154 -40z" />
    <glyph glyph-name="Delta" unicode="&#x2206;" horiz-adv-x="1432" 
d="M861 1434l494 -1255v-179h-1277v179l494 1255h289zM717 1202l-379 -983h757z" />
    <glyph glyph-name="product" unicode="&#x220f;" horiz-adv-x="1523" 
d="M1329 1434v-1705h-231v1485h-672v-1485h-231v1705h1134z" />
    <glyph glyph-name="summation" unicode="&#x2211;" horiz-adv-x="1341" 
d="M1220 1434v-220h-759l515 -559v-128l-520 -579h769v-219h-1108v179l612 678l-607 668v180h1098z" />
    <glyph glyph-name="minus" unicode="&#x2212;" horiz-adv-x="1228" 
d="M1075 643v-194h-921v194h921z" />
    <glyph glyph-name="uni2219" unicode="&#x2219;" horiz-adv-x="1228" 
d="M614 841q122 0 208.5 -86t86.5 -209t-86.5 -209t-208.5 -86q-123 0 -209 86t-86 209t86 209t209 86z" />
    <glyph glyph-name="radical" unicode="&#x221a;" horiz-adv-x="1296" 
d="M1266 1475l-563 -1746h-288l-391 1024h255l279 -753l472 1475h236z" />
    <glyph glyph-name="infinity" unicode="&#x221e;" horiz-adv-x="1740" 
d="M49 532q0 123 56.5 219t148 146t200.5 50q48 0 94 -14.5t82 -34.5t81 -59.5t76.5 -72.5t82.5 -89q52 57 83 89.5t76.5 72t81.5 59.5t82 34.5t94 14.5q109 0 200.5 -50t148 -146t56.5 -219t-56.5 -219t-148 -145.5t-200.5 -49.5q-60 0 -112.5 18t-106.5 60t-94 81
t-104 110q-51 -56 -82.5 -89t-76 -72t-81 -59.5t-82.5 -34.5t-94 -14q-109 0 -200.5 49.5t-148 145.5t-56.5 219zM254 532q0 -102 57 -161t143 -59q57 0 114 46.5t171 173.5q-53 58 -77 83t-58.5 59t-55 46.5t-45 22.5t-49.5 10q-86 0 -143 -59t-57 -162zM1487 532
q0 103 -57 162t-143 59q-57 0 -111.5 -45t-173.5 -176h2l-2 -1q118 -129 173 -174t112 -45q86 0 143 59t57 161z" />
    <glyph glyph-name="integral" unicode="&#x222b;" horiz-adv-x="661" 
d="M649 1446l-58 -195q-24 6 -51 6q-62 0 -95 -39t-33 -112v-1050q0 -157 -82.5 -255t-246.5 -98q-69 0 -124 13l58 195q24 -6 52 -6q62 0 95 39t33 112v1050q0 157 82 255t246 98q69 0 124 -13z" />
    <glyph glyph-name="congruent" unicode="&#x2245;" horiz-adv-x="1228" 
d="M1075 438v-194h-921v194h921zM1075 848v-195h-921v195h921zM977 1297l117 -136q-62 -65 -130 -95t-157 -30q-84 0 -152.5 20t-127 40t-118.5 20q-67 0 -156 -77l-117 137q61 65 129 94.5t158 29.5q85 0 153 -20t126.5 -39.5t118.5 -19.5q68 0 156 76z" />
    <glyph glyph-name="approxequal" unicode="&#x2248;" horiz-adv-x="1228" 
d="M977 876l117 -137q-62 -65 -130 -95t-157 -30q-84 0 -152.5 20t-127 40t-118.5 20q-67 0 -156 -77l-117 137q62 65 130 95t157 30q85 0 153 -20t126.5 -40t118.5 -20q67 0 156 77zM977 469l117 -136q-62 -65 -130 -95t-157 -30q-84 0 -152.5 20t-127 40t-118.5 20
q-67 0 -156 -77l-117 136q62 65 130 95t157 30q85 0 153 -20t126.5 -40t118.5 -20q67 0 156 77z" />
    <glyph glyph-name="uni2259" unicode="&#x2259;" horiz-adv-x="1228" 
d="M1075 438v-194h-921v194h921zM1075 848v-195h-921v195h921zM977 1030h-228l-135 167l-134 -167h-228l216 307h293z" />
    <glyph glyph-name="notequal" unicode="&#x2260;" horiz-adv-x="1228" 
d="M1075 438v-194h-506l-118 -244h-205l119 244h-211v194h305l105 215h-410v195h505l119 244h205l-119 -244h211v-195h-306l-105 -215h411z" />
    <glyph glyph-name="lessequal" unicode="&#x2264;" horiz-adv-x="1228" 
d="M1032 1122v-227l-591 -216l591 -215v-227l-834 337v210zM198 0v195h834v-195h-834z" />
    <glyph glyph-name="greaterequal" unicode="&#x2265;" horiz-adv-x="1228" 
d="M198 895v227l834 -338v-210l-834 -337v227l590 215zM1032 195v-195h-834v195h834z" />
    <glyph glyph-name="dotmath" unicode="&#x22c5;" horiz-adv-x="1228" 
d="M614 725q72 0 125.5 -53t53.5 -125t-54 -126t-125 -54t-125 54t-54 126t53.5 125t125.5 53z" />
    <glyph glyph-name="uni2460" unicode="&#x2460;" horiz-adv-x="2099" 
d="M1050 1632q188 0 358.5 -72.5t293.5 -195t196 -291.5t73 -355t-73 -355.5t-196 -292.5t-293.5 -196t-358.5 -73t-358.5 73t-294 196t-196.5 292.5t-73 355.5t73 355t196.5 291.5t294 195t358.5 72.5zM1050 1432q-146 0 -278 -56.5t-228 -152t-152.5 -227.5t-56.5 -278
t56.5 -278.5t152.5 -228.5t228 -152.5t278 -56.5t278 56.5t227.5 152.5t152 228.5t56.5 278.5q0 194 -95.5 358.5t-260 260t-358.5 95.5zM1186 1179v-888h-191v623l-230 -85v189z" />
    <glyph glyph-name="uni2461" unicode="&#x2461;" horiz-adv-x="2099" 
d="M1050 1632q188 0 358.5 -72.5t293.5 -195t196 -291.5t73 -355t-73 -355.5t-196 -292.5t-293.5 -196t-358.5 -73t-358.5 73t-294 196t-196.5 292.5t-73 355.5t73 355t196.5 291.5t294 195t358.5 72.5zM1050 1432q-146 0 -278 -56.5t-228 -152t-152.5 -227.5t-56.5 -278
t56.5 -278.5t152.5 -228.5t228 -152.5t278 -56.5t278 56.5t227.5 152.5t152 228.5t56.5 278.5q0 194 -95.5 358.5t-260 260t-358.5 95.5zM856 909l-126 119q122 153 320 153q142 0 227 -78.5t85 -207.5q0 -76 -36 -136.5t-102 -123.5l-177 -167h335v-177h-610v149l320 303
q71 66 71 139q0 52 -36 84t-94 32q-55 0 -95.5 -23.5t-81.5 -65.5z" />
    <glyph glyph-name="uni2462" unicode="&#x2462;" horiz-adv-x="2099" 
d="M1050 1632q188 0 358.5 -72.5t293.5 -195t196 -291.5t73 -355t-73 -355.5t-196 -292.5t-293.5 -196t-358.5 -73t-358.5 73t-294 196t-196.5 292.5t-73 355.5t73 355t196.5 291.5t294 195t358.5 72.5zM1050 1432q-146 0 -278 -56.5t-228 -152t-152.5 -227.5t-56.5 -278
t56.5 -278.5t152.5 -228.5t228 -152.5t278 -56.5t278 56.5t227.5 152.5t152 228.5t56.5 278.5q0 194 -95.5 358.5t-260 260t-358.5 95.5zM1040 1181q147 0 237.5 -69t90.5 -183q0 -69 -35.5 -120t-101.5 -78q74 -27 115.5 -78.5t41.5 -120.5q0 -63 -28.5 -113.5t-76.5 -81.5
t-108.5 -47t-127.5 -16q-209 0 -320 128l110 124q81 -83 201 -83q67 0 109.5 26t42.5 76t-48 77t-121 27h-106v165h107q66 0 107.5 25.5t41.5 73.5q0 45 -39 71t-101 26q-110 0 -183 -85l-116 123q109 133 308 133z" />
    <glyph glyph-name="uni2463" unicode="&#x2463;" horiz-adv-x="2099" 
d="M1050 1632q188 0 358.5 -72.5t293.5 -195t196 -291.5t73 -355t-73 -355.5t-196 -292.5t-293.5 -196t-358.5 -73t-358.5 73t-294 196t-196.5 292.5t-73 355.5t73 355t196.5 291.5t294 195t358.5 72.5zM1050 1432q-146 0 -278 -56.5t-228 -152t-152.5 -227.5t-56.5 -278
t56.5 -278.5t152.5 -228.5t228 -152.5t278 -56.5t278 56.5t227.5 152.5t152 228.5t56.5 278.5q0 194 -95.5 358.5t-260 260t-358.5 95.5zM1269 852v-231h121v-178h-121v-152h-191v152h-402v136l309 585h211l-292 -543h174v231h191z" />
    <glyph glyph-name="uni2464" unicode="&#x2464;" horiz-adv-x="2099" 
d="M1050 1632q188 0 358.5 -72.5t293.5 -195t196 -291.5t73 -355t-73 -355.5t-196 -292.5t-293.5 -196t-358.5 -73t-358.5 73t-294 196t-196.5 292.5t-73 355.5t73 355t196.5 291.5t294 195t358.5 72.5zM1050 1432q-146 0 -278 -56.5t-228 -152t-152.5 -227.5t-56.5 -278
t56.5 -278.5t152.5 -228.5t228 -152.5t278 -56.5t278 56.5t227.5 152.5t152 228.5t56.5 278.5q0 194 -95.5 358.5t-260 260t-358.5 95.5zM1339 1165v-176h-361l-4 -152h98q154 0 237.5 -72.5t83.5 -189.5q0 -137 -96 -219t-242 -82q-201 0 -325 126l101 138q38 -36 100 -62
t123 -26q68 0 104 30.5t36 81.5q0 108 -174 108h-219l10 495h528z" />
    <glyph glyph-name="uni2465" unicode="&#x2465;" horiz-adv-x="2099" 
d="M1050 1632q188 0 358.5 -72.5t293.5 -195t196 -291.5t73 -355t-73 -355.5t-196 -292.5t-293.5 -196t-358.5 -73t-358.5 73t-294 196t-196.5 292.5t-73 355.5t73 355t196.5 291.5t294 195t358.5 72.5zM1050 1432q-146 0 -278 -56.5t-228 -152t-152.5 -227.5t-56.5 -278
t56.5 -278.5t152.5 -228.5t228 -152.5t278 -56.5t278 56.5t227.5 152.5t152 228.5t56.5 278.5q0 194 -95.5 358.5t-260 260t-358.5 95.5zM1255 1165l-219 -299q18 2 28 2q138 0 227 -83.5t89 -206.5q0 -131 -98 -217.5t-245 -86.5t-245.5 85t-98.5 213q0 113 88 240l244 353
h230zM1037 706q-62 0 -103 -37t-41 -94t41 -93.5t103 -36.5q61 0 103 37t42 93q0 57 -42 94t-103 37z" />
    <glyph glyph-name="uni2466" unicode="&#x2466;" horiz-adv-x="2099" 
d="M1050 1632q188 0 358.5 -72.5t293.5 -195t196 -291.5t73 -355t-73 -355.5t-196 -292.5t-293.5 -196t-358.5 -73t-358.5 73t-294 196t-196.5 292.5t-73 355.5t73 355t196.5 291.5t294 195t358.5 72.5zM1050 1432q-146 0 -278 -56.5t-228 -152t-152.5 -227.5t-56.5 -278
t56.5 -278.5t152.5 -228.5t228 -152.5t278 -56.5t278 56.5t227.5 152.5t152 228.5t56.5 278.5q0 194 -95.5 358.5t-260 260t-358.5 95.5zM1403 1165v-149l-369 -725h-226l370 697h-423v177h648z" />
    <glyph glyph-name="uni2467" unicode="&#x2467;" horiz-adv-x="2099" 
d="M1050 1632q188 0 358.5 -72.5t293.5 -195t196 -291.5t73 -355t-73 -355.5t-196 -292.5t-293.5 -196t-358.5 -73t-358.5 73t-294 196t-196.5 292.5t-73 355.5t73 355t196.5 291.5t294 195t358.5 72.5zM1050 1432q-146 0 -278 -56.5t-228 -152t-152.5 -227.5t-56.5 -278
t56.5 -278.5t152.5 -228.5t228 -152.5t278 -56.5t278 56.5t227.5 152.5t152 228.5t56.5 278.5q0 194 -95.5 358.5t-260 260t-358.5 95.5zM1050 1181q141 0 237 -68.5t96 -183.5q0 -134 -141 -197q164 -63 164 -204q0 -116 -102.5 -185t-253.5 -69t-253.5 69t-102.5 185
q0 142 163 203q-141 63 -141 198q0 115 96.5 183.5t237.5 68.5zM1050 657q-63 0 -106 -28.5t-43 -79.5q0 -50 43 -78.5t106 -28.5t106 28.5t43 78.5q0 51 -43 79.5t-106 28.5zM1050 1012q-57 0 -94 -26.5t-37 -74.5t37.5 -75t93.5 -27q57 0 94.5 27t37.5 75t-37.5 74.5
t-94.5 26.5z" />
    <glyph glyph-name="uni2468" unicode="&#x2468;" horiz-adv-x="2099" 
d="M1050 1632q188 0 358.5 -72.5t293.5 -195t196 -291.5t73 -355t-73 -355.5t-196 -292.5t-293.5 -196t-358.5 -73t-358.5 73t-294 196t-196.5 292.5t-73 355.5t73 355t196.5 291.5t294 195t358.5 72.5zM1050 1432q-146 0 -278 -56.5t-228 -152t-152.5 -227.5t-56.5 -278
t56.5 -278.5t152.5 -228.5t228 -152.5t278 -56.5t278 56.5t227.5 152.5t152 228.5t56.5 278.5q0 194 -95.5 358.5t-260 260t-358.5 95.5zM841 291l219 298q-9 -1 -28 -1q-139 0 -227.5 83.5t-88.5 207.5q0 131 98 216.5t246 85.5q147 0 245 -84.5t98 -212.5q0 -112 -88 -241
l-244 -352h-230zM1060 751q61 0 102 36.5t41 93.5t-41 93.5t-102 36.5q-62 0 -104 -37t-42 -93t42 -93t104 -37z" />
    <glyph glyph-name="uni24EA" unicode="&#x24ea;" horiz-adv-x="2099" 
d="M1050 1632q188 0 358.5 -72.5t293.5 -195t196 -291.5t73 -355t-73 -355.5t-196 -292.5t-293.5 -196t-358.5 -73t-358.5 73t-294 196t-196.5 292.5t-73 355.5t73 355t196.5 291.5t294 195t358.5 72.5zM1050 1432q-146 0 -278 -56.5t-228 -152t-152.5 -227.5t-56.5 -278
t56.5 -278.5t152.5 -228.5t228 -152.5t278 -56.5t278 56.5t227.5 152.5t152 228.5t56.5 278.5q0 194 -95.5 358.5t-260 260t-358.5 95.5zM1050 1181q170 0 283 -123t113 -330q0 -208 -113 -331t-283 -123q-169 0 -282.5 123.5t-113.5 330.5t113.5 330t282.5 123zM1050 997
q-86 0 -141.5 -71t-55.5 -199t55.5 -199t141.5 -71q87 0 142 71t55 199t-55 199t-142 71z" />
    <glyph glyph-name="uni24FF" unicode="&#x24ff;" horiz-adv-x="2099" 
d="M1050 1181q-169 0 -282.5 -123t-113.5 -330t113.5 -330.5t282.5 -123.5q170 0 283 123t113 331q0 207 -113 330t-283 123zM1050 997q87 0 142 -71t55 -199t-55 -199t-142 -71q-86 0 -141.5 71t-55.5 199t55.5 199t141.5 71zM1050 1614q184 0 351.5 -71t288 -191t192 -286
t71.5 -348t-71.5 -348.5t-192 -287t-288 -191.5t-351.5 -71t-351.5 71t-288.5 191.5t-192.5 287t-71.5 348.5t71.5 348t192.5 286t288.5 191t351.5 71z" />
    <glyph glyph-name="uni2715" unicode="&#x2573;" horiz-adv-x="2192" 
d="M1247 717l966 -966l-151 -151l-965 966l-967 -966l-150 151l965 966l-965 965l150 152l967 -966l965 966l151 -152z" />
    <glyph glyph-name="uni2715" unicode="&#x2715;" horiz-adv-x="2192" 
d="M1247 717l966 -966l-151 -151l-965 966l-967 -966l-150 151l965 966l-965 965l150 152l967 -966l965 966l151 -152z" />
    <glyph glyph-name="uni25AE" unicode="&#x258c;" horiz-adv-x="1843" 
d="M205 1434h717v-1434h-717v1434z" />
    <glyph glyph-name="uni25AE" unicode="&#x25ae;" horiz-adv-x="1843" 
d="M205 1434h717v-1434h-717v1434z" />
    <glyph glyph-name="filledbox" unicode="&#x25a0;" horiz-adv-x="1843" 
d="M205 1434h1433v-1434h-1433v1434z" />
    <glyph glyph-name="H22073" unicode="&#x25a1;" horiz-adv-x="1843" 
d="M205 1434h1433v-1434h-1433v1434zM403 1235v-1036h1037v1036h-1037z" />
    <glyph glyph-name="triagup" unicode="&#x25b2;" horiz-adv-x="1843" 
d="M922 1454l839 -1454h-1679z" />
    <glyph glyph-name="uni25B3" unicode="&#x25b3;" horiz-adv-x="1843" 
d="M922 1454l839 -1454h-1679zM922 1057l-496 -858h991z" />
    <glyph glyph-name="uni25B4" unicode="&#x25b4;" horiz-adv-x="1228" 
d="M615 1049l424 -734h-849z" />
    <glyph glyph-name="uni25B8" unicode="&#x25b8;" horiz-adv-x="1228" 
d="M1044 681l-734 -425v850z" />
    <glyph glyph-name="triagdn" unicode="&#x25bc;" horiz-adv-x="1843" 
d="M922 -20l-840 1454h1679z" />
    <glyph glyph-name="uni25BD" unicode="&#x25bd;" horiz-adv-x="1843" 
d="M922 -20l-840 1454h1679zM922 377l495 858h-991z" />
    <glyph glyph-name="uni25BE" unicode="&#x25be;" horiz-adv-x="1228" 
d="M613 314l-424 734h849z" />
    <glyph glyph-name="uni25C2" unicode="&#x25c2;" horiz-adv-x="1228" 
d="M184 681l735 425v-850z" />
    <glyph glyph-name="uni25C6" unicode="&#x25c6;" horiz-adv-x="1843" 
d="M922 1473l755 -756l-755 -756l-756 756z" />
    <glyph glyph-name="uni25C7" unicode="&#x25c7;" horiz-adv-x="1843" 
d="M922 1473l755 -756l-755 -756l-756 756zM922 1192l-476 -475l476 -475l475 475z" />
    <glyph glyph-name="lozenge" unicode="&#x25ca;" horiz-adv-x="1584" 
d="M1487 717l-572 -717h-247l-571 717l572 717h247zM1206 717l-419 518l-408 -517l418 -519z" />
    <glyph glyph-name="circle" unicode="&#x25cb;" horiz-adv-x="1843" 
d="M922 -40q-154 0 -294.5 60t-241.5 161.5t-161 241.5t-60 294t60 294t161 241.5t241.5 161.5t294.5 60t294 -60t241 -161.5t161 -241.5t60 -294t-60 -294t-161 -241.5t-241 -161.5t-294 -60zM922 159q113 0 216.5 44t178.5 119t119 178.5t44 216.5t-44 216.5t-119 178.5
t-178.5 119t-216.5 44q-114 0 -217.5 -44t-178 -119t-118.5 -178t-44 -217t44 -217t118.5 -178t178 -119t217.5 -44z" />
    <glyph glyph-name="H18533" unicode="&#x25cf;" horiz-adv-x="1843" 
d="M922 -40q-154 0 -294.5 60t-241.5 161.5t-161 241.5t-60 294t60 294t161 241.5t241.5 161.5t294.5 60t294 -60t241 -161.5t161 -241.5t60 -294t-60 -294t-161 -241.5t-241 -161.5t-294 -60z" />
    <glyph glyph-name="uni25D0" unicode="&#x25d0;" horiz-adv-x="1843" 
d="M922 -40q-154 0 -294.5 60t-241.5 161.5t-161 241.5t-60 294t60 294t161 241.5t241.5 161.5t294.5 60t294 -60t241 -161.5t161 -241.5t60 -294t-60 -294t-161 -241.5t-241 -161.5t-294 -60zM922 1275v-1116q113 0 216.5 44t178.5 119t119 178.5t44 216.5t-44 216.5
t-119 178.5t-178.5 119t-216.5 44z" />
    <glyph glyph-name="uni25D6" unicode="&#x25d6;" horiz-adv-x="1843" 
d="M922 1474v-1514q-154 0 -294.5 60t-241.5 161.5t-161 241.5t-60 294t60 294t161 241.5t241.5 161.5t294.5 60z" />
    <glyph glyph-name="uni25E7" unicode="&#x25e7;" horiz-adv-x="1843" 
d="M205 1434h1433v-1434h-1433v1434zM922 1235v-1036h518v1036h-518z" />
    <glyph glyph-name="uni2610" unicode="&#x2610;" horiz-adv-x="2252" 
d="M259 1584h1735v-1735h-1735v1735zM423 1420v-1407h1407v1407h-1407z" />
    <glyph glyph-name="uni2611" unicode="&#x2611;" horiz-adv-x="2252" 
d="M259 1584h1735v-1735h-1735v1735zM423 1420v-1407h1407v1407h-1407zM1562 1205l133 -96l-685 -940l-428 518l126 105l293 -356z" />
    <glyph glyph-name="uni2612" unicode="&#x2612;" horiz-adv-x="2252" 
d="M1994 1584v-1735h-1735v1735h1735zM1830 1420h-1407v-1407h1407v1407zM638 345l372 372l-372 372l117 116l371 -372l372 372l117 -116l-373 -372l373 -372l-117 -117l-372 372l-371 -372z" />
    <glyph glyph-name="heart" unicode="&#x2665;" horiz-adv-x="1843" 
d="M1231 1266q135 0 224.5 -92.5t89.5 -229.5q0 -98 -49.5 -207.5t-137 -215t-197.5 -204.5t-239 -189q-129 90 -239 189t-197.5 204.5t-137.5 215t-50 207.5q0 137 89.5 229.5t224.5 92.5q123 0 216.5 -73t93.5 -171q0 98 93 171t216 73z" />
    <glyph glyph-name="uni2713" unicode="&#x2713;" horiz-adv-x="2252" 
d="M1623 1342l157 -115l-843 -1137l-464 506l143 132l306 -333z" />
    <glyph glyph-name="uni2717" unicode="&#x2717;" horiz-adv-x="2252" 
d="M1264 717l451 -452l-137 -137l-452 452l-451 -452l-137 137l451 452l-451 451l137 138l451 -452l452 452l137 -138z" />
    <glyph glyph-name="uni278A" unicode="&#x2776;" horiz-adv-x="2099" 
d="M1186 1179l-421 -161v-189l230 85v-623h191v888zM1050 1614q184 0 351.5 -71t288 -191t192 -286t71.5 -348t-71.5 -348.5t-192 -287t-288 -191.5t-351.5 -71t-351.5 71t-288.5 191.5t-192.5 287t-71.5 348.5t71.5 348t192.5 286t288.5 191t351.5 71z" />
    <glyph glyph-name="uni278A" unicode="&#x278a;" horiz-adv-x="2099" 
d="M1186 1179l-421 -161v-189l230 85v-623h191v888zM1050 1614q184 0 351.5 -71t288 -191t192 -286t71.5 -348t-71.5 -348.5t-192 -287t-288 -191.5t-351.5 -71t-351.5 71t-288.5 191.5t-192.5 287t-71.5 348.5t71.5 348t192.5 286t288.5 191t351.5 71z" />
    <glyph glyph-name="uni278B" unicode="&#x2777;" horiz-adv-x="2099" 
d="M730 1028l126 -119q41 42 81.5 65.5t95.5 23.5q58 0 94 -32t36 -84q0 -73 -71 -139l-320 -303v-149h610v177h-335l177 167q66 63 102 123.5t36 136.5q0 129 -85 207.5t-227 78.5q-198 0 -320 -153zM1050 1614q184 0 351.5 -71t288 -191t192 -286t71.5 -348t-71.5 -348.5
t-192 -287t-288 -191.5t-351.5 -71t-351.5 71t-288.5 191.5t-192.5 287t-71.5 348.5t71.5 348t192.5 286t288.5 191t351.5 71z" />
    <glyph glyph-name="uni278B" unicode="&#x278b;" horiz-adv-x="2099" 
d="M730 1028l126 -119q41 42 81.5 65.5t95.5 23.5q58 0 94 -32t36 -84q0 -73 -71 -139l-320 -303v-149h610v177h-335l177 167q66 63 102 123.5t36 136.5q0 129 -85 207.5t-227 78.5q-198 0 -320 -153zM1050 1614q184 0 351.5 -71t288 -191t192 -286t71.5 -348t-71.5 -348.5
t-192 -287t-288 -191.5t-351.5 -71t-351.5 71t-288.5 191.5t-192.5 287t-71.5 348.5t71.5 348t192.5 286t288.5 191t351.5 71z" />
    <glyph glyph-name="uni278C" unicode="&#x2778;" horiz-adv-x="2099" 
d="M1050 1614q184 0 351.5 -71t288 -191t192 -286t71.5 -348t-71.5 -348.5t-192 -287t-288 -191.5t-351.5 -71t-351.5 71t-288.5 191.5t-192.5 287t-71.5 348.5t71.5 348t192.5 286t288.5 191t351.5 71zM1040 1181q-199 0 -308 -133l116 -123q73 85 183 85q62 0 101 -26
t39 -71q0 -48 -41.5 -73.5t-107.5 -25.5h-107v-165h106q73 0 121 -27t48 -77t-42.5 -76t-109.5 -26q-120 0 -201 83l-110 -124q111 -128 320 -128q67 0 127.5 16t108.5 47t76.5 81.5t28.5 113.5q0 69 -41.5 120.5t-115.5 78.5q66 27 101.5 78t35.5 120q0 114 -90.5 183
t-237.5 69z" />
    <glyph glyph-name="uni278C" unicode="&#x278c;" horiz-adv-x="2099" 
d="M1050 1614q184 0 351.5 -71t288 -191t192 -286t71.5 -348t-71.5 -348.5t-192 -287t-288 -191.5t-351.5 -71t-351.5 71t-288.5 191.5t-192.5 287t-71.5 348.5t71.5 348t192.5 286t288.5 191t351.5 71zM1040 1181q-199 0 -308 -133l116 -123q73 85 183 85q62 0 101 -26
t39 -71q0 -48 -41.5 -73.5t-107.5 -25.5h-107v-165h106q73 0 121 -27t48 -77t-42.5 -76t-109.5 -26q-120 0 -201 83l-110 -124q111 -128 320 -128q67 0 127.5 16t108.5 47t76.5 81.5t28.5 113.5q0 69 -41.5 120.5t-115.5 78.5q66 27 101.5 78t35.5 120q0 114 -90.5 183
t-237.5 69z" />
    <glyph glyph-name="uni278D" unicode="&#x2779;" horiz-adv-x="2099" 
d="M1050 1614q184 0 351.5 -71t288 -191t192 -286t71.5 -348t-71.5 -348.5t-192 -287t-288 -191.5t-351.5 -71t-351.5 71t-288.5 191.5t-192.5 287t-71.5 348.5t71.5 348t192.5 286t288.5 191t351.5 71zM1269 852h-191v-231h-174l292 543h-211l-309 -585v-136h402v-152h191
v152h121v178h-121v231z" />
    <glyph glyph-name="uni278D" unicode="&#x278d;" horiz-adv-x="2099" 
d="M1050 1614q184 0 351.5 -71t288 -191t192 -286t71.5 -348t-71.5 -348.5t-192 -287t-288 -191.5t-351.5 -71t-351.5 71t-288.5 191.5t-192.5 287t-71.5 348.5t71.5 348t192.5 286t288.5 191t351.5 71zM1269 852h-191v-231h-174l292 543h-211l-309 -585v-136h402v-152h191
v152h121v178h-121v231z" />
    <glyph glyph-name="uni278E" unicode="&#x277a;" horiz-adv-x="2099" 
d="M1339 1165h-528l-10 -495h219q174 0 174 -108q0 -51 -36 -81.5t-104 -30.5q-61 0 -123 26t-100 62l-101 -138q124 -126 325 -126q146 0 242 82t96 219q0 117 -83.5 189.5t-237.5 72.5h-98l4 152h361v176zM1050 1614q184 0 351.5 -71t288 -191t192 -286t71.5 -348
t-71.5 -348.5t-192 -287t-288 -191.5t-351.5 -71t-351.5 71t-288.5 191.5t-192.5 287t-71.5 348.5t71.5 348t192.5 286t288.5 191t351.5 71z" />
    <glyph glyph-name="uni278E" unicode="&#x278e;" horiz-adv-x="2099" 
d="M1339 1165h-528l-10 -495h219q174 0 174 -108q0 -51 -36 -81.5t-104 -30.5q-61 0 -123 26t-100 62l-101 -138q124 -126 325 -126q146 0 242 82t96 219q0 117 -83.5 189.5t-237.5 72.5h-98l4 152h361v176zM1050 1614q184 0 351.5 -71t288 -191t192 -286t71.5 -348
t-71.5 -348.5t-192 -287t-288 -191.5t-351.5 -71t-351.5 71t-288.5 191.5t-192.5 287t-71.5 348.5t71.5 348t192.5 286t288.5 191t351.5 71z" />
    <glyph glyph-name="uni278F" unicode="&#x277b;" horiz-adv-x="2099" 
d="M1050 1614q184 0 351.5 -71t288 -191t192 -286t71.5 -348t-71.5 -348.5t-192 -287t-288 -191.5t-351.5 -71t-351.5 71t-288.5 191.5t-192.5 287t-71.5 348.5t71.5 348t192.5 286t288.5 191t351.5 71zM1255 1165h-230l-244 -353q-88 -127 -88 -240q0 -128 98.5 -213
t245.5 -85t245 86.5t98 217.5q0 123 -89 206.5t-227 83.5q-10 0 -28 -2zM1037 706q61 0 103 -37t42 -94q0 -56 -42 -93t-103 -37q-62 0 -103 36.5t-41 93.5t41 94t103 37z" />
    <glyph glyph-name="uni278F" unicode="&#x278f;" horiz-adv-x="2099" 
d="M1050 1614q184 0 351.5 -71t288 -191t192 -286t71.5 -348t-71.5 -348.5t-192 -287t-288 -191.5t-351.5 -71t-351.5 71t-288.5 191.5t-192.5 287t-71.5 348.5t71.5 348t192.5 286t288.5 191t351.5 71zM1255 1165h-230l-244 -353q-88 -127 -88 -240q0 -128 98.5 -213
t245.5 -85t245 86.5t98 217.5q0 123 -89 206.5t-227 83.5q-10 0 -28 -2zM1037 706q61 0 103 -37t42 -94q0 -56 -42 -93t-103 -37q-62 0 -103 36.5t-41 93.5t41 94t103 37z" />
    <glyph glyph-name="uni2790" unicode="&#x277c;" horiz-adv-x="2099" 
d="M1403 1165h-648v-177h423l-370 -697h226l369 725v149zM1050 1614q184 0 351.5 -71t288 -191t192 -286t71.5 -348t-71.5 -348.5t-192 -287t-288 -191.5t-351.5 -71t-351.5 71t-288.5 191.5t-192.5 287t-71.5 348.5t71.5 348t192.5 286t288.5 191t351.5 71z" />
    <glyph glyph-name="uni2790" unicode="&#x2790;" horiz-adv-x="2099" 
d="M1403 1165h-648v-177h423l-370 -697h226l369 725v149zM1050 1614q184 0 351.5 -71t288 -191t192 -286t71.5 -348t-71.5 -348.5t-192 -287t-288 -191.5t-351.5 -71t-351.5 71t-288.5 191.5t-192.5 287t-71.5 348.5t71.5 348t192.5 286t288.5 191t351.5 71z" />
    <glyph glyph-name="uni2791" unicode="&#x277d;" horiz-adv-x="2099" 
d="M1050 1614q184 0 351.5 -71t288 -191t192 -286t71.5 -348t-71.5 -348.5t-192 -287t-288 -191.5t-351.5 -71t-351.5 71t-288.5 191.5t-192.5 287t-71.5 348.5t71.5 348t192.5 286t288.5 191t351.5 71zM1050 1181q-141 0 -237.5 -68.5t-96.5 -183.5q0 -135 141 -198
q-163 -61 -163 -203q0 -116 102.5 -185t253.5 -69t253.5 69t102.5 185q0 141 -164 204q141 63 141 197q0 115 -96 183.5t-237 68.5zM1050 657q63 0 106 -28.5t43 -79.5q0 -50 -43 -78.5t-106 -28.5t-106 28.5t-43 78.5q0 51 43 79.5t106 28.5zM1050 1012q57 0 94.5 -26.5
t37.5 -74.5t-37.5 -75t-94.5 -27q-56 0 -93.5 27t-37.5 75t37 74.5t94 26.5z" />
    <glyph glyph-name="uni2791" unicode="&#x2791;" horiz-adv-x="2099" 
d="M1050 1614q184 0 351.5 -71t288 -191t192 -286t71.5 -348t-71.5 -348.5t-192 -287t-288 -191.5t-351.5 -71t-351.5 71t-288.5 191.5t-192.5 287t-71.5 348.5t71.5 348t192.5 286t288.5 191t351.5 71zM1050 1181q-141 0 -237.5 -68.5t-96.5 -183.5q0 -135 141 -198
q-163 -61 -163 -203q0 -116 102.5 -185t253.5 -69t253.5 69t102.5 185q0 141 -164 204q141 63 141 197q0 115 -96 183.5t-237 68.5zM1050 657q63 0 106 -28.5t43 -79.5q0 -50 -43 -78.5t-106 -28.5t-106 28.5t-43 78.5q0 51 43 79.5t106 28.5zM1050 1012q57 0 94.5 -26.5
t37.5 -74.5t-37.5 -75t-94.5 -27q-56 0 -93.5 27t-37.5 75t37 74.5t94 26.5z" />
    <glyph glyph-name="uni2792" unicode="&#x277e;" horiz-adv-x="2099" 
d="M1050 1614q184 0 351.5 -71t288 -191t192 -286t71.5 -348t-71.5 -348.5t-192 -287t-288 -191.5t-351.5 -71t-351.5 71t-288.5 191.5t-192.5 287t-71.5 348.5t71.5 348t192.5 286t288.5 191t351.5 71zM841 291h230l244 352q88 129 88 241q0 128 -98 212.5t-245 84.5
q-148 0 -246 -85.5t-98 -216.5q0 -124 88.5 -207.5t227.5 -83.5q19 0 28 1zM1060 751q-62 0 -104 37t-42 93t42 93t104 37q61 0 102 -36.5t41 -93.5t-41 -93.5t-102 -36.5z" />
    <glyph glyph-name="uni2792" unicode="&#x2792;" horiz-adv-x="2099" 
d="M1050 1614q184 0 351.5 -71t288 -191t192 -286t71.5 -348t-71.5 -348.5t-192 -287t-288 -191.5t-351.5 -71t-351.5 71t-288.5 191.5t-192.5 287t-71.5 348.5t71.5 348t192.5 286t288.5 191t351.5 71zM841 291h230l244 352q88 129 88 241q0 128 -98 212.5t-245 84.5
q-148 0 -246 -85.5t-98 -216.5q0 -124 88.5 -207.5t227.5 -83.5q19 0 28 1zM1060 751q-62 0 -104 37t-42 93t42 93t104 37q61 0 102 -36.5t41 -93.5t-41 -93.5t-102 -36.5z" />
    <glyph glyph-name="uni2B51" unicode="&#x2b51;" horiz-adv-x="1843" 
d="M1108 914h600l-485 -353l186 -572l-486 354l-486 -354l186 572l-488 353h602l186 573z" />
    <glyph glyph-name="uni2B52" unicode="&#x2b52;" horiz-adv-x="1843" 
d="M1108 914h600l-485 -353l186 -572l-486 354l-486 -354l186 572l-488 353h602l186 573zM1013 783l-90 278l-90 -278h-293l236 -172l-90 -278l237 172l236 -172l-90 278l237 172h-293z" />
    <glyph glyph-name="uni2E17" unicode="&#x2e17;" horiz-adv-x="942" 
d="M765 938v-188l-588 -214v188zM765 603v-188l-588 -214v188z" />
    <glyph glyph-name="uni2E38" unicode="&#x2e38;" horiz-adv-x="807" 
d="M315 1475h178v-442h218v-173h-218v-218h-178v218h-218v173h218v442z" />
    <glyph glyph-name="uniEA00" unicode="&#xea00;" horiz-adv-x="1843" 
d="M1108 914h600l-485 -353l186 -572l-486 354l-486 -354l186 572l-488 353h602l186 573zM1013 783l-90 278v-556l236 -172l-90 278l237 172h-293z" />
    <glyph glyph-name="uniEA01" unicode="&#xea01;" horiz-adv-x="1843" 
d="M923 343l-486 -354l186 572l-488 353h602l186 573v-1144z" />
    <glyph glyph-name="uniFB00" unicode="&#xfb00;" horiz-adv-x="1708" 
d="M798 981v-195h-336v-786h-215v786h-197v195h197v166q0 157 82 255t246 98q148 0 274 -74l-76 -180q-90 52 -183 52q-62 0 -95 -39t-33 -112v-166h336zM1641 981v-195h-335v-786h-215v786h-197v195h197v166q0 157 82 255t246 98q148 0 274 -74l-76 -180q-90 52 -183 52
q-62 0 -95 -39t-33 -112v-166h335z" />
    <glyph glyph-name="fi" unicode="&#xfb01;" horiz-adv-x="1415" 
d="M798 981v-195h-336v-786h-215v786h-197v195h197v166q0 157 82 255t246 98q148 0 274 -74l-76 -180q-90 52 -183 52q-62 0 -95 -39t-33 -112v-166h336zM1247 981v-981h-215v981h215zM1139 1471q64 0 107.5 -43.5t43.5 -107.5t-43.5 -107t-107.5 -43t-107 43t-43 107
t43 107.5t107 43.5z" />
    <glyph glyph-name="fl" unicode="&#xfb02;" horiz-adv-x="1415" 
d="M798 981v-195h-336v-786h-215v786h-197v195h197v166q0 157 82 255t246 98q148 0 274 -74l-76 -180q-90 52 -183 52q-62 0 -95 -39t-33 -112v-166h336zM1247 1475v-1475h-215v1475h215z" />
    <glyph glyph-name="uniFB03" unicode="&#xfb03;" horiz-adv-x="2258" 
d="M798 981v-195h-336v-786h-215v786h-197v195h197v166q0 157 82 255t246 98q148 0 274 -74l-76 -180q-90 52 -183 52q-62 0 -95 -39t-33 -112v-166h336zM1641 981v-195h-335v-786h-215v786h-197v195h197v166q0 157 82 255t246 98q148 0 274 -74l-76 -180q-90 52 -183 52
q-62 0 -95 -39t-33 -112v-166h335zM2091 981v-981h-215v981h215zM1982 1471q64 0 108 -43.5t44 -107.5t-44 -107t-108 -43t-106.5 43t-42.5 107t42.5 107.5t106.5 43.5z" />
    <glyph glyph-name="uniFB04" unicode="&#xfb04;" horiz-adv-x="2258" 
d="M798 981v-195h-336v-786h-215v786h-197v195h197v166q0 157 82 255t246 98q148 0 274 -74l-76 -180q-90 52 -183 52q-62 0 -95 -39t-33 -112v-166h336zM1641 981v-195h-335v-786h-215v786h-197v195h197v166q0 157 82 255t246 98q148 0 274 -74l-76 -180q-90 52 -183 52
q-62 0 -95 -39t-33 -112v-166h335zM2091 1475v-1475h-215v1475h215z" />
    <glyph glyph-name="uniFB05" unicode="&#xfb05;" horiz-adv-x="1498" 
d="M1405 981v-195h-376v-427q0 -94 43 -138.5t113 -44.5q92 0 197 67l85 -171q-146 -98 -301 -98q-170 0 -261 94.5t-91 286.5v431h-191v195h191v69q0 129 -60 188.5t-159 59.5t-159 -59.5t-60 -188.5v-1050h-215v1064q0 112 37 198.5t99.5 136.5t138 75.5t159.5 25.5
q85 0 160.5 -25.5t138 -76t99 -136.5t36.5 -198v-83h376z" />
    <glyph glyph-name="uniFB06" unicode="&#xfb06;" horiz-adv-x="1965" 
d="M928 902l-92 -167q-51 32 -135.5 58t-168.5 26q-87 0 -136 -32t-49 -85q0 -47 41 -68t121 -33l101 -15q341 -49 341 -290q0 -144 -119 -232.5t-327 -88.5q-100 0 -212.5 27.5t-208.5 98.5l99 161q131 -100 324 -100q108 0 165.5 32t57.5 88q0 85 -170 108l-102 13
q-163 23 -248 96.5t-85 191.5q0 146 108.5 230.5t296.5 84.5q239 0 398 -104zM1872 981v-195h-376v-427q0 -94 43 -138.5t113 -44.5q92 0 197 67l85 -171q-146 -98 -301 -98q-170 0 -261 94.5t-91 286.5v431h-196v195h196v297h215v-297h376z" />
    <glyph glyph-name="uniFEFF" unicode="&#xfeff;" horiz-adv-x="0" 
 />
    <glyph glyph-name="uni030C.alt001" 
d="M-556 1075h-180v400h221z" />
    <glyph glyph-name="uni0328.alt001" 
d="M-510 -206l114 -139q-93 -84 -215 -84q-106 0 -174 53.5t-68 142.5q0 95 68.5 166t216.5 149l50 -82q-132 -99 -132 -189q0 -26 15.5 -41t42.5 -15q41 0 82 39z" />
    <glyph glyph-name="uni0328.alt002" 
d="M-535 104l26 -82q-98 -43 -140 -88t-42 -97q0 -36 27 -59t73 -23q70 0 129 50l114 -139q-106 -95 -256 -95q-132 0 -214.5 64.5t-82.5 161.5q0 109 88 178.5t278 128.5z" />
    <glyph glyph-name="uni0328.alt003" 
d="M-510 -206l114 -139q-93 -84 -215 -84q-106 0 -174 53.5t-68 142.5q0 94 83.5 165.5t262.5 149.5l50 -82q-193 -101 -193 -189q0 -26 15.5 -41t42.5 -15q41 0 82 39z" />
    <glyph glyph-name="uni0328.alt004" 
d="M-462 -195l114 -139q-106 -95 -256 -95q-132 0 -214.5 64.5t-82.5 161.5q0 109 88 178.5t278 128.5l26 -82q-98 -43 -140 -88t-42 -97q0 -36 27 -59t73 -23q70 0 129 50z" />
    <glyph glyph-name="i.latn_TRK" horiz-adv-x="550" 
d="M383 981v-981h-215v981h215zM274 1471q64 0 108 -43.5t44 -107.5t-44 -107t-108 -43t-106.5 43t-42.5 107t42.5 107.5t106.5 43.5z" />
    <glyph glyph-name="j.latn_NLD" horiz-adv-x="557" 
d="M389 981v-1102q0 -148 -79 -228t-209 -80q-83 0 -148 30l50 186q39 -14 79 -14q41 0 66.5 28t25.5 88v1092h215zM337 1137h-211l196 307h272z" />
    <glyph glyph-name="Ldot.latn_CAT" horiz-adv-x="1258" 
d="M1220 219v-219h-1025v1434h231v-1215h794zM895 882q67 0 113.5 -46t46.5 -114q0 -67 -46 -112t-114 -45q-67 0 -112 45t-45 112q0 68 45 114t112 46z" />
    <glyph glyph-name="ldot.latn_CAT" horiz-adv-x="706" 
d="M383 1475v-1475h-215v1475h215zM624 899q64 0 107.5 -43.5t43.5 -107.5t-43.5 -107t-107.5 -43t-107 43t-43 107t43 107.5t107 43.5z" />
    <glyph glyph-name="zero.numr" horiz-adv-x="930" 
d="M465 1448q158 0 263.5 -116.5t105.5 -313.5t-105.5 -313.5t-263.5 -116.5t-263 117t-105 313t105 313t263 117zM465 1279q-80 0 -131.5 -68.5t-51.5 -192.5t51.5 -192.5t131.5 -68.5q81 0 132.5 68.5t51.5 192.5t-51.5 192.5t-132.5 68.5z" />
    <glyph glyph-name="one.numr" horiz-adv-x="578" 
d="M423 1447v-845h-177v599l-197 -76v175z" />
    <glyph glyph-name="two.numr" horiz-adv-x="738" 
d="M178 1193l-115 111q116 144 297 144q133 0 211.5 -73.5t78.5 -194.5q0 -71 -31 -128t-95 -120l-168 -165h315v-165h-568v138l297 292q67 67 67 133q0 51 -34 82.5t-88 31.5q-52 0 -90.5 -22.5t-76.5 -63.5z" />
    <glyph glyph-name="three.numr" horiz-adv-x="747" 
d="M341 1448q136 0 220.5 -66t84.5 -173q0 -130 -125 -188q67 -27 105.5 -76t38.5 -114q0 -117 -93 -180t-225 -63q-194 0 -298 121l103 116q76 -79 187 -79q62 0 101.5 25.5t39.5 74.5q0 47 -44.5 72t-112.5 25h-98v157h99q61 0 100 25t39 70t-36 69.5t-94 24.5
q-103 0 -172 -82l-107 114q101 127 287 127z" />
    <glyph glyph-name="four.numr" horiz-adv-x="741" 
d="M590 1134v-224h112v-161h-112v-147h-177v147h-374v127l288 557h195l-274 -523h165v224h177z" />
    <glyph glyph-name="five.numr" horiz-adv-x="766" 
d="M631 1434v-163h-338l-3 -149h81q148 0 228.5 -69.5t80.5 -180.5q0 -131 -89 -208t-225 -77q-188 0 -303 120l105 117q36 -32 89.5 -53t107.5 -21q64 0 98 30t34 79q0 106 -163 106h-205l10 469h492z" />
    <glyph glyph-name="six.numr" horiz-adv-x="766" 
d="M584 1434l-207 -285q9 1 30 1q132 0 214 -79.5t82 -197.5q0 -123 -92 -204t-230 -81t-230.5 79.5t-92.5 201.5q0 106 82 227l231 338h213zM381 1000q-60 0 -99 -36t-39 -92q0 -57 39 -93t99 -36t99 36t39 93q0 56 -39 92t-99 36z" />
    <glyph glyph-name="seven.numr" horiz-adv-x="710" 
d="M662 1434v-139l-344 -693h-209l344 667h-395v165h604z" />
    <glyph glyph-name="eight.numr" horiz-adv-x="833" 
d="M417 1448q134 0 223.5 -65t89.5 -174q0 -129 -129 -187q150 -60 150 -194q0 -110 -96 -175t-238 -65q-143 0 -238.5 64.5t-95.5 175.5q0 135 148 194q-128 58 -128 187q0 109 90 174t224 65zM417 951q-61 0 -102 -27.5t-41 -76.5q0 -52 40.5 -80.5t102.5 -28.5
q61 0 101.5 28.5t40.5 80.5q0 49 -40.5 76.5t-101.5 27.5zM417 1294q-54 0 -89.5 -26.5t-35.5 -74.5q0 -47 35.5 -72.5t89.5 -25.5t89.5 25.5t35.5 72.5q0 48 -35.5 74.5t-89.5 26.5z" />
    <glyph glyph-name="nine.numr" horiz-adv-x="766" 
d="M183 602l206 285q-9 -1 -29 -1q-132 0 -214.5 79t-82.5 197q0 123 92.5 204.5t230.5 81.5t230.5 -80t92.5 -202q0 -105 -82 -226l-231 -338h-213zM386 1035q59 0 98 36t39 92q0 57 -38.5 93t-98.5 36t-99 -36t-39 -93q0 -56 39 -92t99 -36z" />
    <glyph glyph-name="zero.dnom" horiz-adv-x="930" 
d="M465 846q158 0 263.5 -116.5t105.5 -313.5t-105.5 -313.5t-263.5 -116.5t-263 117t-105 313t105 313t263 117zM465 677q-80 0 -131.5 -68.5t-51.5 -192.5t51.5 -192.5t131.5 -68.5q81 0 132.5 68.5t51.5 192.5t-51.5 192.5t-132.5 68.5z" />
    <glyph glyph-name="one.dnom" horiz-adv-x="578" 
d="M423 845v-845h-177v599l-197 -76v175z" />
    <glyph glyph-name="two.dnom" horiz-adv-x="738" 
d="M178 591l-115 110q116 145 297 145q133 0 211.5 -73.5t78.5 -194.5q0 -71 -31 -128t-95 -120l-168 -165h315v-165h-568v138l297 292q67 67 67 133q0 51 -34 82.5t-88 31.5q-52 0 -90.5 -22.5t-76.5 -63.5z" />
    <glyph glyph-name="three.dnom" horiz-adv-x="747" 
d="M341 846q136 0 220.5 -66t84.5 -173q0 -130 -125 -188q67 -27 105.5 -76t38.5 -114q0 -117 -93 -180t-225 -63q-195 0 -298 120l103 117q76 -79 187 -79q62 0 101.5 25.5t39.5 74.5q0 47 -44.5 72t-112.5 25h-98v157h99q61 0 100 25t39 70t-36 69.5t-94 24.5
q-103 0 -172 -82l-107 114q101 127 287 127z" />
    <glyph glyph-name="four.dnom" horiz-adv-x="741" 
d="M590 531v-223h112v-162h-112v-146h-177v146h-374v127l288 557h195l-274 -522h165v223h177z" />
    <glyph glyph-name="five.dnom" horiz-adv-x="766" 
d="M631 831v-162h-338l-3 -149h81q148 0 228.5 -69.5t80.5 -180.5q0 -131 -89 -208t-225 -77q-189 0 -303 119l105 118q36 -32 89.5 -53.5t107.5 -21.5q64 0 98 30.5t34 79.5q0 105 -163 105h-205l10 469h492z" />
    <glyph glyph-name="six.dnom" horiz-adv-x="766" 
d="M584 831l-207 -284q9 1 30 1q132 0 214 -79.5t82 -197.5q0 -123 -92 -204t-230 -81t-230.5 79.5t-92.5 201.5q0 106 82 227l231 337h213zM381 398q-60 0 -99 -36t-39 -92q0 -57 39 -93t99 -36t99 36t39 93q0 56 -39 92t-99 36z" />
    <glyph glyph-name="seven.dnom" horiz-adv-x="710" 
d="M662 831v-138l-344 -693h-209l344 667h-395v164h604z" />
    <glyph glyph-name="eight.dnom" horiz-adv-x="833" 
d="M417 846q134 0 223.5 -65t89.5 -174q0 -129 -129 -187q150 -60 150 -194q0 -110 -96 -175t-238 -65q-143 0 -238.5 64.5t-95.5 175.5q0 135 148 194q-128 58 -128 187q0 109 90 174t224 65zM417 349q-61 0 -102 -27.5t-41 -76.5q0 -52 40.5 -80.5t102.5 -28.5
q61 0 101.5 28.5t40.5 80.5q0 49 -40.5 76.5t-101.5 27.5zM417 692q-54 0 -89.5 -26.5t-35.5 -74.5q0 -47 35.5 -72.5t89.5 -25.5t89.5 25.5t35.5 72.5q0 48 -35.5 74.5t-89.5 26.5z" />
    <glyph glyph-name="nine.dnom" horiz-adv-x="766" 
d="M183 0l206 285q-9 -1 -29 -1q-132 0 -214.5 79t-82.5 197q0 123 92.5 204.5t230.5 81.5t230.5 -80t92.5 -202q0 -105 -82 -226l-231 -338h-213zM386 433q59 0 98 36t39 92q0 57 -38.5 93t-98.5 36t-99 -36t-39 -93q0 -56 39 -92t99 -36z" />
    <glyph glyph-name="space.frac" horiz-adv-x="110" 
 />
    <glyph glyph-name="b.ordn" horiz-adv-x="906" 
d="M497 1313q144 0 241.5 -104.5t97.5 -260.5t-97.5 -260t-241.5 -104q-134 0 -210 96v-78h-173v1032h176v-414q76 93 207 93zM467 1148q-83 0 -135 -56.5t-52 -143.5q0 -86 52 -142t135 -56q84 0 135 56.5t51 141.5q0 86 -51 143t-135 57z" />
    <glyph glyph-name="c.ordn" horiz-adv-x="781" 
d="M438 1313q176 0 273 -125l-125 -110q-67 70 -152 70q-78 0 -130 -55.5t-52 -144.5t51.5 -143.5t129.5 -54.5q89 0 156 70l122 -111q-102 -125 -273 -125q-163 0 -265 103t-102 261q0 159 102 262t265 103z" />
    <glyph glyph-name="d.ordn" horiz-adv-x="906" 
d="M410 1313q129 0 206 -94v415h177v-1032h-173v79q-77 -97 -211 -97q-144 0 -241 104t-97 260q0 157 97 261t242 104zM439 1148q-85 0 -136 -57t-51 -143q0 -85 51 -141.5t136 -56.5q83 0 135 56t52 142q0 87 -52 143.5t-135 56.5z" />
    <glyph glyph-name="e.ordn" horiz-adv-x="824" 
d="M420 1313q149 0 241.5 -101t92.5 -263q0 -37 -3 -61h-497q14 -76 64 -114.5t121 -38.5q100 0 183 69l99 -117q-114 -103 -292 -103q-159 0 -258.5 100t-99.5 263t97 264.5t252 101.5zM418 1159q-68 0 -110 -39t-54 -108h321q-13 71 -53.5 109t-103.5 38z" />
    <glyph glyph-name="h.ordn" horiz-adv-x="872" 
d="M291 1634v-415q68 94 202 94q120 0 196 -76t76 -196v-439h-177v382q0 78 -37.5 120t-105.5 42q-66 0 -110 -42.5t-44 -120.5v-381h-177v1032h177z" />
    <glyph glyph-name="l.ordn" horiz-adv-x="404" 
d="M291 1634v-1032h-177v1032h177z" />
    <glyph glyph-name="m.ordn" horiz-adv-x="1346" 
d="M964 1313q123 0 199 -75.5t76 -196.5v-439h-176v382q0 78 -37.5 120t-104.5 42t-111.5 -42.5t-44.5 -120.5v-381h-177v382q0 78 -37.5 120t-105.5 42q-66 0 -110 -42.5t-44 -120.5v-381h-177v692h173v-82q68 101 206 101q75 0 135 -32t96 -89q72 121 240 121z" />
    <glyph glyph-name="r.ordn" horiz-adv-x="625" 
d="M482 1313q60 0 103 -17l-30 -175q-55 24 -114 24q-69 0 -110 -43.5t-41 -120.5v-379h-176v692h172v-75q64 94 196 94z" />
    <glyph glyph-name="s.ordn" horiz-adv-x="747" 
d="M668 1244l-64 -137q-110 57 -219 57q-54 0 -83.5 -18.5t-29.5 -49.5q0 -29 28.5 -42t84.5 -21l65 -9q235 -36 235 -207q0 -106 -84 -169t-233 -63q-191 0 -306 83l73 134q99 -69 235 -69q135 0 135 71q0 26 -28 42t-89 24l-60 9q-239 35 -239 207q0 106 78 166.5
t214 60.5q154 0 287 -69z" />
    <glyph glyph-name="t.ordn" horiz-adv-x="684" 
d="M607 1294v-157h-255v-267q0 -62 29.5 -91t76.5 -29q60 0 133 45l65 -140q-103 -71 -224 -71q-125 0 -190.5 69.5t-65.5 204.5v279h-135v157h135v207h176v-207h255z" />
    <glyph glyph-name="u.ordn" horiz-adv-x="878" 
d="M765 1294v-397q0 -105 -47 -177.5t-118.5 -104t-160.5 -31.5q-66 0 -123 18.5t-103 55.5t-72.5 98.5t-26.5 140.5v397h177v-382q0 -83 40.5 -122.5t107.5 -39.5q68 0 109 39.5t41 122.5v382h176z" />
    <glyph glyph-name="egrave.ordn" horiz-adv-x="824" 
d="M420 1313q149 0 241.5 -101t92.5 -263q0 -37 -3 -61h-497q14 -76 64 -114.5t121 -38.5q100 0 183 69l99 -117q-114 -103 -292 -103q-159 0 -258.5 100t-99.5 263t97 264.5t252 101.5zM366 1397l-188 223h215l142 -223h-169zM418 1159q-68 0 -110 -39t-54 -108h321
q-13 71 -53.5 109t-103.5 38z" />
    <glyph glyph-name="zero.osf" horiz-adv-x="1402" 
d="M701 1111q159 0 290.5 -69t210 -199.5t78.5 -299.5t-78.5 -300t-210 -200t-290.5 -69q-119 0 -224.5 40.5t-184 113.5t-124 180.5t-45.5 234.5q0 169 78 299.5t209 199.5t291 69zM701 908q-154 0 -256 -99t-102 -266t102 -266.5t256 -99.5q155 0 257 99t102 267
q0 167 -102 266t-257 99z" />
    <glyph glyph-name="one.osf" horiz-adv-x="797" 
d="M601 1113v-1113h-217v817l-316 -101v214z" />
    <glyph glyph-name="two.osf" horiz-adv-x="1127" 
d="M234 750l-154 133q30 40 68.5 75t95 72t133.5 58.5t163 21.5q192 0 319.5 -109t127.5 -276q0 -75 -27.5 -141.5t-78 -119t-97 -88t-110.5 -74.5l-156 -93h523v-209h-914v179l425 274q206 132 206 262q0 78 -61.5 131.5t-165.5 53.5q-98 0 -167 -39.5t-130 -110.5z" />
    <glyph glyph-name="three.osf" horiz-adv-x="1155" 
d="M540 1110q215 0 346.5 -113t131.5 -299q0 -110 -56.5 -193t-155.5 -131q113 -46 179 -131.5t66 -200.5q0 -102 -41.5 -183t-112 -131.5t-158.5 -76.5t-186 -26q-158 0 -286 54.5t-206 152.5l144 146q62 -68 154.5 -107t189.5 -39q122 0 197 56t75 162q0 105 -87 164
t-219 59h-169v201h168q120 0 198 55.5t78 159.5q0 100 -77 158t-189 58q-91 0 -164.5 -44t-117.5 -110l-162 131q61 103 180 165.5t280 62.5z" />
    <glyph glyph-name="four.osf" horiz-adv-x="1178" 
d="M889 527v-320h240v-207h-240v-351h-217v351h-623v171l495 911h235l-471 -875h364v320h217z" />
    <glyph glyph-name="five.osf" horiz-adv-x="1188" 
d="M1002 1082v-206h-599l-5 -351h193q98 0 179.5 -24t137.5 -64.5t95 -96t57 -117t18 -128.5q0 -114 -41 -205.5t-111 -149t-159 -88t-188 -30.5q-313 0 -499 235l151 138q64 -76 158 -119.5t189 -43.5q131 0 201 72.5t70 171.5q0 49 -15.5 89.5t-50.5 76t-101.5 55.5
t-160.5 20h-330l12 765h799z" />
    <glyph glyph-name="six.osf" horiz-adv-x="1191" 
d="M884 1434l-367 -524q56 16 115 16q129 0 239 -61.5t175.5 -171.5t65.5 -243q0 -204 -148 -340t-371 -136q-222 0 -370.5 136.5t-148.5 340.5q0 90 32 175.5t97 184.5l412 623h269zM593 722q-126 0 -209.5 -76t-83.5 -195q0 -121 83.5 -197t209.5 -76t209.5 76.5
t83.5 196.5t-83 195.5t-210 75.5z" />
    <glyph glyph-name="seven.osf" horiz-adv-x="1129" 
d="M1056 1082v-170l-625 -1263h-254l618 1227h-721v206h982z" />
    <glyph glyph-name="eight.osf" horiz-adv-x="1254" 
d="M628 1459q207 0 348 -115t141 -297q0 -114 -58.5 -195t-155.5 -129q111 -47 179 -130t68 -203q0 -122 -70.5 -218t-189.5 -147t-262 -51q-144 0 -263 51t-190 147t-71 218q0 120 68 203t179 130q-97 48 -155 129t-58 195q0 182 141.5 297t348.5 115zM628 623
q-124 0 -208.5 -62.5t-84.5 -161.5q0 -98 84.5 -159t208.5 -61t208 61t84 159q0 99 -84.5 161.5t-207.5 62.5zM628 1253q-110 0 -185 -60t-75 -155q0 -99 75 -160t185 -61q109 0 184 61t75 160q0 95 -75 155t-184 60z" />
    <glyph glyph-name="nine.osf" horiz-adv-x="1191" 
d="M308 -349l366 522q-47 -14 -114 -14q-129 0 -239 61.5t-175.5 171.5t-65.5 243q0 204 148 339.5t371 135.5q222 0 370.5 -136t148.5 -340q0 -90 -32 -176t-97 -185l-412 -622h-269zM599 362q126 0 209.5 76t83.5 196q0 121 -83.5 196.5t-209.5 75.5q-127 0 -210 -76
t-83 -196t83.5 -196t209.5 -76z" />
    <glyph glyph-name="zero.tf" horiz-adv-x="1228" 
d="M618 1458q89 0 168 -27t148.5 -86t119.5 -144.5t79 -209.5t29 -274q0 -159 -29 -286t-79 -211t-119.5 -140t-148 -80.5t-168.5 -24.5q-91 0 -170.5 24.5t-150.5 80.5t-121.5 140t-80 211t-29.5 286t29.5 286t80 211t121.5 140t150.5 80t170.5 24zM618 1245
q-53 0 -98.5 -15.5t-87.5 -53.5t-71.5 -96.5t-47 -151t-17.5 -211.5q0 -147 26 -253.5t72.5 -165t101.5 -84.5t122 -26q52 0 96 15.5t85 53.5t70 97t46 151.5t17 211.5q0 136 -25.5 240.5t-70 165.5t-99.5 91.5t-119 30.5z" />
    <glyph glyph-name="one.tf" horiz-adv-x="1228" 
d="M209 211h365v941l-385 -138v226l608 216v-1245h344v-211h-932v211z" />
    <glyph glyph-name="two.tf" horiz-adv-x="1228" 
d="M280 1087l-159 132q25 34 49.5 61t67 62.5t88.5 59t112.5 40t140.5 16.5q219 0 347 -128t128 -333q0 -64 -16.5 -123.5t-47.5 -111t-59 -87.5t-68 -79l-359 -385h589v-211h-918v174l518 551q128 138 128 273q0 109 -67.5 178.5t-181.5 69.5q-99 0 -163.5 -40.5
t-128.5 -118.5z" />
    <glyph glyph-name="three.tf" horiz-adv-x="1228" 
d="M575 1458q219 0 353.5 -112t134.5 -297q0 -112 -58 -195.5t-160 -130.5q116 -45 183.5 -131.5t67.5 -201.5q0 -101 -42.5 -182t-114 -131t-161 -76t-189.5 -26q-158 0 -286.5 53.5t-207.5 151.5l143 149q64 -69 156 -108t190 -39q124 0 201.5 56t77.5 162
q0 104 -88 162.5t-222 58.5h-173v203h172q122 0 200.5 55t78.5 158q0 99 -77 156.5t-193 57.5q-94 0 -169 -44t-121 -110l-159 136q65 102 183.5 163.5t279.5 61.5z" />
    <glyph glyph-name="four.tf" horiz-adv-x="1228" 
d="M936 874v-385h219v-210h-219v-279h-222v279h-640v171l536 982h252l-521 -943h373v385h222z" />
    <glyph glyph-name="five.tf" horiz-adv-x="1228" 
d="M1024 1434v-210h-599l-7 -346h188q122 0 218 -35.5t154.5 -96.5t89 -137t30.5 -162q0 -149 -70.5 -258.5t-183 -162t-249.5 -52.5q-313 0 -499 230l148 144q63 -75 158 -118.5t192 -43.5q131 0 201.5 71t70.5 171q0 50 -16 90.5t-51.5 75.5t-102 54.5t-158.5 19.5h-330
l13 766h803z" />
    <glyph glyph-name="six.tf" horiz-adv-x="1228" 
d="M905 1434l-364 -521q58 15 110 15q130 0 240.5 -61.5t176 -171.5t65.5 -243q0 -204 -149 -340.5t-372 -136.5t-371.5 136.5t-148.5 340.5q0 169 129 361l413 621h271zM612 722q-125 0 -207.5 -75.5t-82.5 -194.5q0 -120 82.5 -195.5t207.5 -75.5q126 0 208.5 76t82.5 195
t-82.5 194.5t-208.5 75.5z" />
    <glyph glyph-name="seven.tf" horiz-adv-x="1228" 
d="M1110 1434v-174l-621 -1260h-259l613 1224h-718v210h985z" />
    <glyph glyph-name="eight.tf" horiz-adv-x="1228" 
d="M614 1458q219 0 365.5 -111t146.5 -298q0 -118 -59.5 -199t-160.5 -127q115 -45 184.5 -128t69.5 -206q0 -126 -74 -221.5t-197 -144t-275 -48.5t-274.5 48.5t-196.5 144t-74 221.5q0 124 69.5 206.5t184.5 127.5q-221 102 -221 326q0 187 146.5 298t365.5 111zM614 624
q-133 0 -221.5 -59t-88.5 -164q0 -104 88 -162t222 -58q133 0 221.5 58t88.5 162q0 105 -88.5 164t-221.5 59zM614 1251q-120 0 -198 -56.5t-78 -157.5q0 -104 78 -161.5t198 -57.5t199 57.5t79 161.5q0 101 -79 157.5t-199 56.5z" />
    <glyph glyph-name="nine.tf" horiz-adv-x="1228" 
d="M325 0l364 520q-49 -14 -110 -14q-130 0 -240.5 61.5t-176 171.5t-65.5 243q0 204 148.5 340t371.5 136t372 -136t149 -340q0 -169 -129 -361l-413 -621h-271zM617 712q125 0 208 75.5t83 194.5t-83 194.5t-208 75.5q-126 0 -208 -75.5t-82 -194.5t82 -194.5t208 -75.5z
" />
    <glyph glyph-name="uni2007.tf" horiz-adv-x="1228" 
 />
    <glyph glyph-name="zero.tosf" horiz-adv-x="1228" 
d="M613 1110q151 0 275 -69t198.5 -199.5t74.5 -299.5q0 -127 -43.5 -235t-117.5 -180.5t-174.5 -113.5t-212.5 -41t-212 41t-174 113.5t-117 180.5t-43 235t43 234.5t117 180t174 113t212 40.5zM613 912q-140 0 -233.5 -100t-93.5 -270q0 -171 93.5 -271t233.5 -100
q141 0 234.5 100t93.5 271q0 170 -93.5 270t-234.5 100z" />
    <glyph glyph-name="one.tosf" horiz-adv-x="1228" 
d="M212 209l348 1v624l-367 -108v219l584 168v-903l336 1v-211h-901v209z" />
    <glyph glyph-name="two.tosf" horiz-adv-x="1228" 
d="M295 750l-155 133q30 40 68.5 75t95 72t133.5 58.5t163 21.5q192 0 320 -109t128 -276q0 -61 -20 -117.5t-49 -98t-74.5 -83t-83 -68t-87.5 -56.5l-155 -93h523v-209h-915v179l425 274q206 132 206 262q0 78 -61 131.5t-165 53.5q-98 0 -167 -39.5t-130 -110.5z" />
    <glyph glyph-name="three.tosf" horiz-adv-x="1228" 
d="M584 1110q215 0 346.5 -113t131.5 -299q0 -110 -56.5 -193t-155.5 -131q113 -46 179 -131.5t66 -200.5q0 -102 -41.5 -183t-112 -131.5t-158.5 -76.5t-186 -26q-158 0 -286 54.5t-206 152.5l144 146q62 -68 154.5 -107t189.5 -39q122 0 197 56t75 162q0 105 -87 164
t-219 59h-169v201h168q120 0 198 55.5t78 159.5q0 100 -77 158t-189 58q-91 0 -164.5 -44t-117.5 -110l-162 131q61 103 180 165.5t280 62.5z" />
    <glyph glyph-name="four.tosf" horiz-adv-x="1228" 
d="M931 527v-320h240v-207h-240v-351h-217v351h-623v171l495 911h235l-471 -875h364v320h217z" />
    <glyph glyph-name="five.tosf" horiz-adv-x="1228" 
d="M1027 1082v-206h-599l-5 -351h192q121 0 217 -36t153.5 -97.5t87.5 -137t30 -159.5q0 -114 -41.5 -205.5t-111.5 -149t-159 -88t-188 -30.5q-313 0 -499 235l152 138q64 -76 157.5 -119.5t188.5 -43.5q131 0 201 72.5t70 171.5q0 49 -15 89.5t-50 76t-101.5 55.5
t-160.5 20h-330l11 765h800z" />
    <glyph glyph-name="six.tosf" horiz-adv-x="1228" 
d="M913 1434l-366 -524q56 16 115 16q129 0 239 -61.5t175.5 -171.5t65.5 -243q0 -204 -148 -340t-371 -136q-222 0 -371 136.5t-149 340.5q0 90 32 175.5t97 184.5l413 623h268zM623 722q-126 0 -209.5 -76t-83.5 -195q0 -121 83.5 -197t209.5 -76t209 76.5t83 196.5
t-83 195.5t-209 75.5z" />
    <glyph glyph-name="seven.tosf" horiz-adv-x="1228" 
d="M1123 1082v-170l-624 -1263h-254l617 1227h-721v206h982z" />
    </font>
</defs>
</svg>
