<?xml version="1.0" encoding="utf-8"?>
<!-- Generator: Adobe Illustrator 25.2.1, SVG Export Plug-In . SVG Version: 6.00 Build 0)  -->
<svg version="1.1" id="Layer_1" xmlns="http://www.w3.org/2000/svg" xmlns:xlink="http://www.w3.org/1999/xlink" x="0px" y="0px"
	 viewBox="0 0 70.84 20.13" style="enable-background:new 0 0 70.84 20.13;" xml:space="preserve">
<style type="text/css">
	.st0{fill:none;}
</style>
<g>
	<path class="st0" d="M68.85,1.8c0-0.51-0.38-0.81-1.04-0.81h-1.12v1.63h1.01C68.63,2.62,68.85,2.18,68.85,1.8z"/>
	<polygon class="st0" points="14.59,3.72 16.58,3.72 15.59,1.51 	"/>
	<path class="st0" d="M67.88,17.34h-1.2v1.79h1.18c0.94,0,1.2-0.53,1.2-0.91C69.06,17.79,68.75,17.34,67.88,17.34z"/>
	<polygon class="st0" points="53.61,17.87 55.59,17.87 54.6,15.66 	"/>
	<path class="st0" d="M68.53,15.74c0-0.33-0.23-0.64-0.86-0.64h-0.99v1.34h0.88C68.27,16.45,68.53,16.13,68.53,15.74z"/>
	<g>
		<polygon points="0,0.99 2.13,0.99 2.13,5.94 3.24,5.94 3.24,0.99 5.37,0.99 5.37,0 0,0 		"/>
		<path d="M15.12,0l-2.74,5.94h1.22l0.58-1.28H17l0.57,1.28h1.22L16.05,0H15.12z M14.59,3.72l0.99-2.21l0.99,2.21H14.59z"/>
		<polygon points="28.36,0 27.24,0 27.24,5.94 31.36,5.94 31.36,4.95 28.36,4.95 		"/>
		<polygon points="40.97,0 39.85,0 39.85,5.94 43.97,5.94 43.97,4.95 40.97,4.95 		"/>
		<polygon points="56.74,4.97 53.58,4.97 53.58,3.32 56.04,3.32 56.04,2.35 53.58,2.35 53.58,0.97 56.74,0.97 56.74,0 52.47,0 
			52.47,5.94 56.74,5.94 		"/>
		<path d="M66.68,3.62h0.91l1.81,2.32h1.36l-1.99-2.51c0.73-0.27,1.22-0.83,1.22-1.63c0-0.9-0.67-1.8-2.02-1.8h-2.41v5.94h1.11V3.62
			z M66.68,0.99h1.12c0.66,0,1.04,0.3,1.04,0.81c0,0.38-0.22,0.82-1.16,0.82h-1.01V0.99z"/>
		<polygon points="40.97,14.15 39.85,14.15 39.85,20.09 43.97,20.09 43.97,19.09 40.97,19.09 		"/>
		<path d="M54.13,14.15l-2.74,5.94h1.22l0.57-1.28h2.82l0.57,1.28h1.22l-2.74-5.94H54.13z M53.61,17.87l0.99-2.21l0.99,2.21H53.61z"
			/>
		<path d="M68.99,16.79c0.48-0.28,0.72-0.69,0.72-1.14c0-0.54-0.37-1.5-1.94-1.5h-2.2v5.94h2.47c1.54,0,2.2-0.97,2.2-1.73
			C70.23,17.64,69.8,17.04,68.99,16.79z M66.68,15.11h0.99c0.63,0,0.86,0.3,0.86,0.64c0,0.39-0.26,0.71-0.97,0.71h-0.88V15.11z
			 M67.86,19.13h-1.18v-1.79h1.2c0.87,0,1.19,0.45,1.19,0.88C69.06,18.6,68.81,19.13,67.86,19.13z"/>
	</g>
</g>
</svg>
