<?xml version="1.0" encoding="utf-8"?>
<!-- Generator: Adobe Illustrator 25.2.1, SVG Export Plug-In . SVG Version: 6.00 Build 0)  -->
<svg version="1.1" id="Layer_1" xmlns="http://www.w3.org/2000/svg" xmlns:xlink="http://www.w3.org/1999/xlink" x="0px" y="0px"
	 viewBox="0 0 393.45 20.33" style="enable-background:new 0 0 393.45 20.33;" xml:space="preserve">
<style type="text/css">
	.st0{fill:#1D1D1B;}
</style>
<g>
	<polygon class="st0" points="7.04,20.33 10.72,20.33 10.72,3.4 17.76,3.4 17.76,0 0,0 0,3.4 7.04,3.4 	"/>
	<rect y="0" class="st0" width="17.76" height="0"/>
	<path class="st0" d="M44.95,20.33l1.9-4.39h9.33l1.9,4.39h4.03L53.06,0h-3.09l-9.06,20.33H44.95z M51.52,5.18l3.28,7.55h-6.57
		L51.52,5.18z"/>
	<rect x="49.97" y="0" class="st0" width="3.09" height="0"/>
	<polygon class="st0" points="103.64,20.33 103.64,16.93 93.71,16.93 93.71,0 90.04,0 90.04,20.33 	"/>
	<rect x="90.04" y="0" class="st0" width="3.68" height="0"/>
	<rect x="131.71" y="0" class="st0" width="3.68" height="0"/>
	<polygon class="st0" points="145.32,20.33 145.32,16.93 135.39,16.93 135.39,0 131.71,0 131.71,20.33 	"/>
	<polygon class="st0" points="187.51,20.33 187.51,17.01 177.07,17.01 177.07,11.35 185.21,11.35 185.21,8.03 177.07,8.03 
		177.07,3.32 187.51,3.32 187.51,0 173.39,0 173.39,20.33 	"/>
	<rect x="173.39" y="0" class="st0" width="14.12" height="0"/>
	<path class="st0" d="M231.32,6.17c0-3.09-2.22-6.17-6.68-6.17h-7.95v20.33h3.68v-7.95h3.01l5.97,7.95h4.51l-6.57-8.58
		C229.7,10.83,231.32,8.9,231.32,6.17z M223.69,8.98h-3.32V3.4h3.72c2.17,0,3.44,1.03,3.44,2.77
		C227.52,7.47,226.81,8.98,223.69,8.98z"/>
	<polygon class="st0" points="301.51,20.33 301.51,16.93 291.59,16.93 291.59,0 287.91,0 287.91,20.33 	"/>
	<rect x="287.91" y="0" class="st0" width="3.68" height="0"/>
	<path class="st0" d="M332.54,20.33l1.9-4.39h9.33l1.9,4.39h4.04L340.65,0h-3.08l-9.06,20.33H332.54z M339.11,5.18l3.28,7.55h-6.57
		L339.11,5.18z"/>
	<rect x="337.57" y="0" class="st0" width="3.08" height="0"/>
	<path class="st0" d="M388.94,9.06c1.58-0.95,2.37-2.37,2.37-3.92c0-1.86-1.23-5.14-6.41-5.14h-7.28v20.33h8.15
		c5.09,0,7.26-3.3,7.28-5.91v-0.04C393.05,11.93,391.63,9.88,388.94,9.06z M381.31,3.28h3.28c2.1,0,2.85,1.03,2.85,2.17
		c0,1.34-0.87,2.41-3.2,2.41h-2.92V3.28z M385.23,17.04h-3.91v-6.13h3.95c2.89,0,3.92,1.54,3.92,3.01
		C389.18,15.22,388.35,17.04,385.23,17.04z"/>
</g>
</svg>
